<svg fill="none" height="128" viewBox="0 0 184 128" width="184" xmlns="http://www.w3.org/2000/svg" xmlns:xlink="http://www.w3.org/1999/xlink"><clipPath id="a"><path d="m0 0h183.596v128h-183.596z"/></clipPath><g clip-path="url(#a)" clip-rule="evenodd" fill="#fff" fill-rule="evenodd"><path d="m13.6829 16.7002c3.1423-.1918 6.2309.0955 9.266.8619.0358 1.9408 0 3.8801-.1077 5.8182-3.1099-2.0574-6.3782-2.3807-9.8047-.9697-1.1194 1.3285-.9758 2.5494.431 3.6633 2.541 1.2345 5.055 2.5275 7.542 3.8788 3.1324 2.6932 3.8866 5.9613 2.2627 9.8047-1.0717 1.7778-2.616 2.963-4.633 3.5556-4.2487 1.0796-8.4148.8283-12.49835-.7542-.28731-2.0112-.28731-4.0226 0-6.0337 3.02496 2.4078 6.40095 3.0903 10.12795 2.0471 1.1905-.629 1.5856-1.5987 1.1852-2.9091-.5532-.905-1.3074-1.5875-2.2626-2.0471-2.1687-.8329-4.2517-1.8386-6.2492-3.0168-2.84552-2.2885-3.7434-5.1976-2.6936-8.7273.57518-1.5089 1.54488-2.6941 2.90909-3.5556 1.46421-.7389 2.97261-1.2776 4.52521-1.6161z" opacity=".962"/><path d="m25.5352 17.1313h6.6801c1.3976 6.593 2.7266 13.2014 3.9865 19.8249 1.5856-6.6237 3.3455-13.1961 5.2795-19.7172 2.1585-.1793 4.3134-.1434 6.4646.1078 1.68 6.4323 3.2242 12.8969 4.633 19.3939 1.2604-6.4812 2.5891-12.9459 3.9866-19.3939 2.0792-.2512 4.1623-.2871 6.2491-.1078-2.4497 8.6848-4.7481 17.4121-6.8956 26.1818-2.3029.0716-4.6015-.0002-6.8956-.2155-1.6119-6.0166-3.1563-12.0503-4.633-18.101-1.7151 6.0699-3.3313 12.1753-4.8485 18.3165-2.4238.0692-4.8302-.0028-7.2189-.2155-2.2973-8.6861-4.5599-17.3776-6.7878-26.074z" opacity=".966"/><path d="m71.2198 17.1313c2.5328-.1362 5.0109.0074 7.4343.4309 3.0315 8.556 6.0843 17.1036 9.1583 25.6431-2.2267.2873-4.4535.2873-6.6802 0-.6191-1.8573-1.1938-3.7249-1.7239-5.6027-3.092-.0717-6.1806.0003-9.266.2155-.6191 1.8573-1.1938 3.725-1.7239 5.6027-2.2314.0716-4.458-.0002-6.6801-.2155 3.247-8.6635 6.4073-17.3547 9.4815-26.074zm3.4478 5.3872c.9901 3.4167 2.0676 6.8286 3.2323 10.2357-2.0818.1077-4.165.1435-6.2492.1077 1.0488-3.4338 2.0545-6.8816 3.0169-10.3434z" opacity=".971"/><path d="m90.8281 17.1315c4.4621-.0922 8.9154.0155 13.3599.3232 3.271.6843 5.246 2.6597 5.926 5.926.739 5.3865-1.452 8.9421-6.572 10.6666-2.143.2942-4.2976.4019-6.4647.3233v9.0505c-2.0831 0-4.1661 0-6.2492 0 0-8.7633 0-17.5263 0-26.2896zm6.2492 4.7408c1.7638-.13 3.4877.0497 5.1717.5387 2.088 2.0301 2.232 4.185.431 6.4646-1.764.8585-3.6312 1.1818-5.6027.9697 0-2.6576 0-5.3154 0-7.973z" opacity=".961"/><path d="m111.516 17.1313h21.117v4.9563c-2.514 0-5.028 0-7.542 0v21.3333c-2.011 0-4.022 0-6.033 0 0-7.1111 0-14.2222 0-21.3333-2.514 0-5.028 0-7.542 0 0-1.6521 0-3.3042 0-4.9563z" opacity=".976"/><path d="m135.865 17.1313h15.3v4.9563c-3.017 0-6.034 0-9.051 0v5.6027h8.404v4.9562c-2.801 0-5.602 0-8.404 0v5.8182h9.697v4.9562c-5.315 0-10.63 0-15.946 0 0-8.7632 0-17.5263 0-26.2896z" opacity=".965"/><path d="m155.906 17.1315c4.462-.0922 8.916.0155 13.361.3232 4.929 1.4164 6.688 4.6128 5.279 9.5893-1.018 2.3826-2.778 3.927-5.279 4.633 1.096.6643 2.066 1.4905 2.909 2.4781 1.948 3.0711 3.923 6.1237 5.926 9.1582-2.371.1438-4.741.1438-7.112 0-1.606-2.8192-3.294-5.5848-5.064-8.2963-.981-1.3819-2.31-1.8848-3.986-1.5084v9.9125c-2.011 0-4.023 0-6.034 0 0-8.7633 0-17.5263 0-26.2896zm6.034 4.5253c1.76-.1186 3.484.0609 5.172.5387 1.999 1.9034 1.999 3.8428 0 5.8182-.478.2747-.981.4902-1.509.6464-1.219.1076-2.44.1435-3.663.1078 0-2.3704 0-4.7408 0-7.1111z" opacity=".974"/><path d="m183.489 51.6094v3.8788c-.722.8083-1.655 1.2752-2.802 1.4006-3.933.5398-7.884.8988-11.852 1.0775 4.047 1.5564 8.07 3.1726 12.068 4.8485.605 1.3373.497 2.6302-.324 3.8787-.796.4506-1.658.6661-2.585.6465-7.394-.774-14.756-1.7797-22.088-3.0168-.999.1047-1.861.4999-2.586 1.1852-1.636 1.456-3.073 3.0722-4.31 4.8484-1.513-1.4368-3.237-2.4785-5.171-3.1245 2.296 1.8993 3.732 4.3054 4.309 7.2188-.071 1.2229-.395 2.3721-.969 3.4478-1.006 1.293-2.155 2.4422-3.448 3.4478-.106.2787-.142.5661-.108.862 2.308.3247 4.607.7197 6.896 1.1852 1.95.6792 2.345 1.8644 1.185 3.5555-1.227 1.5845-2.771 2.7697-4.633 3.5556-.774.17-1.528.134-2.263-.1078.014-1.1489.265-2.2624.755-3.34-.087-.3174-.231-.6047-.431-.862-1.963-.9175-3.974-1.7075-6.034-2.3703-.589-.5659-.984-1.2484-1.185-2.0472-3.245 4.2445-7.447 7.1536-12.606 8.7273-2.058.6503-4.141 1.1891-6.249 1.6162.786-7.4126-.83-14.2365-4.849-20.4714-.141-.2578-.249-.2578-.323 0 2.052 3.7546 3.238 7.7769 3.555 12.0673.144 2.7296.144 5.459 0 8.1886-.616 2.9694-1.335 5.9143-2.154 8.8353-1.324 2.79-2.761 5.52-4.31 8.188-1.644 4.484-.746 8.398 2.693 11.744.468.342.971.63 1.509.862 3.291.515 6.129 1.916 8.512 4.202.337.459.337.89 0 1.293-.578.394-1.189.682-1.832.862-1.939 0-3.879 0-5.818 0-2.455-.328-4.754-1.154-6.896-2.478-1.065-1.016-1.891-2.201-2.478-3.555-.722-2.241-1.476-4.468-2.263-6.681-.579-.558-1.261-.918-2.047-1.077.136-.916.567-1.706 1.293-2.37.347-.621.634-1.268.862-1.94-.017-2.951-.196-5.896-.539-8.835.05-4.081 1.486-7.5648 4.31-10.451-4.224-3.6086-7.708-7.8106-10.451-12.6061.5562 2.0487 1.4181 3.9881 2.586 5.8182 1.472 2.4436 3.232 4.6703 5.279 6.6801-.113.1492-.257.2569-.431.3233-3.752.6018-7.3431.0991-10.7741-1.5084-1.1492-.7183-2.2986-1.4367-3.4478-2.1549-1.7957-1.7957-3.5915-3.5916-5.3872-5.3872-.6118-.4138-1.2582-.773-1.9394-1.0775-5.8874-1.149-11.7773-2.2982-17.67-3.4478-7.7587-1.5806-15.229-4.0229-22.4108-7.3266-5.5204-2.0753-11.2308-3.1168-17.1313-3.1246-9.3832.0026-18.25412 2.0858-26.612822 6.2492 0-.1437 0-.2872 0-.431 7.483092-7.0068 16.389922-10.9213 26.720522-11.7441 4.5201-.3286 9.0454-.4004 13.5758-.2155 6.6271.7932 13.2353 1.727 19.8249 2.8014 3.9389.4325 7.8894.6837 11.8518.7542 5.6779-.0989 11.3524-.2784 17.0236-.5387 2.5096-.4588 5.0237-.8898 7.5421-1.293 3.6627.0347 7.3257.0347 10.9897 0 1.272-.1922 2.493-.5512 3.664-1.0774 2.387-1.4511 4.829-2.8158 7.326-4.0943 4.337-1.8243 8.862-2.7222 13.576-2.6936 3.588.2821 7.179.3898 10.774.3232.467-.3232.934-.6464 1.401-.9697 1.256-1.6497 2.405-3.3736 3.448-5.1717 1.347-2.0917 3.251-3.2769 5.71-3.5555 7.937-.62 15.838-.3327 23.704.8619 3.428.5222 5.583 2.4256 6.465 5.7105zm-162.6941 11.8518c1.3154-.3583 2.6803-.6098 4.0943-.7542 6.3976-.6566 12.7905-.5848 19.1785.2155 6.1662.9425 12.3436 1.8045 18.532 2.5859 8.6897.3965 17.381.3965 26.074 0 3.6838-.6439 7.3829-1.1826 11.0977-1.6162 3.9926.8242 7.9066.573 11.7436-.7542 2.624-1.4914 5.281-2.9281 7.974-4.3098 4.355-1.7316 8.881-2.6296 13.575-2.6936 2.91.2021 5.82.4176 8.728.6465 1.707.2215 3.072-.3532 4.094-1.7239 1.149-1.7239 2.298-3.4478 3.448-5.1717 1.185-1.3996 2.657-2.3693 4.417-2.9091 6.545-.6163 13.082-.4726 19.61.4309 1.532.2576 3.041.6166 4.525 1.0775-5.221-.5267-10.464-.8499-15.731-.9697-2.669.058-5.326.2375-7.973.5387-1.519.4189-2.776 1.2451-3.771 2.4781-1.095 1.8323-2.245 3.628-3.448 5.3872-1.447 1.7524-3.315 2.5424-5.602 2.3704-5.53-.729-11.025-.5495-16.485.5387-1.378.3875-2.743.8184-4.095 1.293-2.979 1.5254-5.924 3.1056-8.835 4.7407-1.534.5633-3.114.9223-4.74 1.0774-3.662-.0836-7.3249-.0836-10.9902 0-2.9974.5715-6.0143 1.0025-9.0505 1.293-6.6084.1437-13.2165.1437-19.8249 0-7.6042-.6329-15.1462-1.7104-22.6263-3.2324-7.953-1.2485-15.9261-1.428-23.9192-.5387z" opacity=".973"/><path d="m96.6459 92.1211c2.5815.3989 5.1671.5424 7.7571.431-1.359 2.7071-2.113 5.5803-2.262 8.6199-2.2505 2.033-4.2617 4.26-6.0338 6.68-.7178 3.161-.2151 6.106 1.5084 8.835 1.7172 1.81 3.8364 2.852 6.3564 3.124 1.129.921 1.057 1.783-.215 2.586-2.933 1.301-5.9501 1.516-9.0505.647-2.8503-1.385-4.3587-3.683-4.5253-6.896.1795-2.587.6823-5.101 1.5085-7.542-.2155-.108-.431-.216-.6465-.323-.8467.201-1.7086.273-2.5859.215-.0275-.464.0802-.895.3233-1.293 1.5455-1.654 2.7664-3.521 3.6633-5.602.529-3.5706 1.9297-6.731 4.202-9.4819z" opacity=".964"/></g></svg>