<svg width="1181" height="285" viewBox="0 0 1181 285" fill="none" xmlns="http://www.w3.org/2000/svg">
<g clip-path="url(#clip0_29076_987)">
<path fill-rule="evenodd" clip-rule="evenodd" d="M142.138 284.258C220.634 284.258 284.267 220.625 284.267 142.129C284.267 63.6334 220.634 0 142.138 0C63.6422 0 0.00878906 63.6334 0.00878906 142.129C0.00878906 220.625 63.6422 284.258 142.138 284.258ZM222.269 88.6639C222.269 95.7362 219.459 102.519 214.458 107.52C209.458 112.52 202.675 115.33 195.603 115.33C175.603 115.33 168.937 121.996 168.937 141.996C168.937 143.095 168.869 144.187 168.736 145.267C169.468 162.729 176.469 168.662 195.336 168.662C200.61 168.662 205.766 170.225 210.151 173.156C214.536 176.086 217.954 180.25 219.972 185.123C221.991 189.995 222.519 195.357 221.49 200.53C220.461 205.702 217.921 210.454 214.192 214.183C210.463 217.912 205.711 220.452 200.538 221.481C195.366 222.51 190.004 221.982 185.132 219.963C180.259 217.945 176.094 214.527 173.164 210.142C170.234 205.757 168.67 200.601 168.67 195.327C168.67 175.373 162.034 168.691 142.138 168.662C122.242 168.691 115.605 175.373 115.605 195.327C115.605 200.601 114.041 205.757 111.111 210.142C108.181 214.527 104.016 217.945 99.1439 219.963C94.2714 221.982 88.9098 222.51 83.7371 221.481C78.5644 220.452 73.813 217.912 70.0837 214.183C66.3544 210.454 63.8147 205.702 62.7858 200.53C61.7569 195.357 62.285 189.995 64.3033 185.123C66.3215 180.25 69.7394 176.086 74.1246 173.156C78.5097 170.225 83.6653 168.662 88.9393 168.662C107.806 168.662 114.807 162.729 115.54 145.266C115.406 144.187 115.339 143.095 115.339 141.996C115.339 121.996 108.672 115.33 88.6727 115.33C81.6005 115.33 74.8179 112.52 69.8171 107.52C64.8163 102.519 62.0068 95.7362 62.0068 88.6639C62.0068 81.5917 64.8163 74.8091 69.8171 69.8083C74.8179 64.8075 81.6005 61.998 88.6727 61.998C95.7449 61.998 102.528 64.8075 107.528 69.8083C112.529 74.8091 115.339 81.5917 115.339 88.6639C115.339 108.663 122.005 115.33 142.004 115.33C142.049 115.33 142.093 115.33 142.138 115.33C142.182 115.33 142.227 115.33 142.271 115.33C162.27 115.33 168.937 108.663 168.937 88.6639C168.937 81.5917 171.746 74.8091 176.747 69.8083C181.748 64.8075 188.531 61.998 195.603 61.998C202.675 61.998 209.458 64.8075 214.458 69.8083C219.459 74.8091 222.269 81.5917 222.269 88.6639Z" fill="#7A7A7A"/>
<path d="M370.118 94.3037L416.583 164.608V93.6504C416.583 89.0372 417.57 85.5707 419.556 83.2774C420.542 82.1331 421.773 81.2267 423.159 80.6264C424.544 80.026 426.048 79.7472 427.556 79.8108C429.097 79.738 430.635 80.0116 432.056 80.6115C433.478 81.2114 434.746 82.1224 435.769 83.2774C437.782 85.5707 438.782 89.0372 438.782 93.6504V187.474C438.782 197.936 434.44 203.172 425.756 203.181C423.766 203.211 421.785 202.895 419.903 202.247C418.1 201.58 416.443 200.571 415.023 199.274C413.442 197.845 412.02 196.249 410.783 194.514C409.45 192.701 408.117 190.834 406.877 188.941L361.545 119.436V189.328C361.545 193.887 360.478 197.327 358.371 199.674C357.349 200.813 356.091 201.716 354.684 202.319C353.277 202.923 351.755 203.212 350.225 203.167C348.68 203.225 347.141 202.938 345.72 202.327C344.299 201.716 343.033 200.796 342.012 199.634C339.945 197.261 338.919 193.834 338.919 189.328V97.3303C338.808 94.213 339.26 91.1011 340.252 88.1439C341.285 85.6641 343.06 83.564 345.332 82.1308C347.624 80.6119 350.315 79.8048 353.065 79.8108C354.857 79.7392 356.644 80.0505 358.306 80.7242C359.969 81.3978 361.468 82.4183 362.705 83.7174C364.049 85.1429 365.25 86.6969 366.291 88.3572C367.536 90.2505 368.811 92.2327 370.118 94.3037Z" fill="#7A7A7A"/>
<path d="M518.513 190.661C513.752 194.445 508.511 197.584 502.927 199.994C497.565 202.151 491.827 203.217 486.048 203.127C480.844 203.236 475.692 202.078 471.035 199.754C466.93 197.708 463.477 194.559 461.062 190.661C458.753 186.89 457.543 182.55 457.568 178.128C457.437 172.399 459.503 166.837 463.342 162.582C467.576 158.089 473.135 155.066 479.208 153.955C480.621 153.636 484.119 152.907 489.701 151.769C495.283 150.631 500.074 149.587 504.074 148.636C508.065 147.676 512.389 146.52 517.047 145.169C516.78 139.311 515.602 135.014 513.513 132.276C511.425 129.538 507.096 128.17 500.527 128.17C494.892 128.17 490.647 128.956 487.794 130.53C484.799 132.238 482.282 134.673 480.474 137.609C478.434 140.756 476.994 142.822 476.155 143.836C475.315 144.849 473.488 145.329 470.741 145.329C468.361 145.372 466.051 144.515 464.275 142.929C463.402 142.166 462.71 141.219 462.249 140.156C461.788 139.093 461.569 137.941 461.608 136.783C461.663 132.616 463.103 128.587 465.702 125.33C468.461 121.636 472.781 118.663 478.634 116.21C484.488 113.757 491.794 112.637 500.527 112.637C510.305 112.637 517.984 113.788 523.566 116.09C528.787 118.059 533.034 121.986 535.406 127.036C537.717 132.041 538.868 138.658 538.859 146.889C538.859 152.107 538.859 156.551 538.859 160.222C538.859 163.893 538.819 167.937 538.739 172.355C538.781 176.784 539.477 181.183 540.806 185.408C541.817 188.243 542.515 191.18 542.886 194.168C542.844 195.377 542.535 196.561 541.979 197.636C541.423 198.711 540.635 199.648 539.673 200.381C537.684 202.198 535.086 203.202 532.393 203.194C531.105 203.134 529.841 202.82 528.674 202.271C527.508 201.722 526.461 200.948 525.593 199.994C522.859 197.186 520.481 194.051 518.513 190.661ZM517.047 158.515C512.402 160.089 507.659 161.354 502.847 162.302C496.625 163.635 492.327 164.613 489.954 165.235C487.432 165.931 485.096 167.179 483.114 168.888C482.023 169.822 481.162 170.994 480.597 172.314C480.033 173.635 479.781 175.068 479.861 176.501C479.845 178.124 480.178 179.73 480.838 181.212C481.499 182.693 482.471 184.015 483.688 185.088C486.439 187.522 490.031 188.79 493.701 188.621C497.927 188.659 502.1 187.671 505.86 185.741C509.254 184.108 512.095 181.517 514.033 178.288C516.051 174.928 517.056 169.395 517.047 161.689V158.515Z" fill="#7A7A7A"/>
<path d="M580.245 125.143V127.809C583.626 123.122 588.007 119.247 593.072 116.463C598.03 113.971 603.522 112.726 609.071 112.836C614.548 112.747 619.956 114.064 624.777 116.663C629.276 119.094 632.892 122.882 635.11 127.489C636.583 130.222 637.549 133.199 637.964 136.276C638.442 140.257 638.66 144.265 638.617 148.275V189.607C638.617 194.047 637.59 197.421 635.564 199.7C634.574 200.819 633.35 201.704 631.979 202.295C630.608 202.885 629.123 203.164 627.631 203.114C626.112 203.163 624.6 202.875 623.206 202.271C621.811 201.667 620.567 200.762 619.564 199.62C617.511 197.287 616.471 193.941 616.471 189.607V152.648C616.471 145.315 615.453 139.711 613.418 135.836C611.382 131.96 607.329 130.022 601.258 130.022C597.362 129.998 593.563 131.238 590.432 133.556C587.117 136.003 584.621 139.396 583.272 143.289C582.196 146.595 581.654 152.777 581.645 161.835V189.674C581.645 194.181 580.601 197.558 578.512 199.807C577.482 200.915 576.227 201.789 574.831 202.371C573.435 202.953 571.931 203.229 570.419 203.18C568.927 203.218 567.445 202.924 566.08 202.32C564.715 201.716 563.501 200.817 562.526 199.687C560.459 197.354 559.433 194.007 559.433 189.674V125.463C559.433 121.241 560.353 118.081 562.193 115.983C563.145 114.933 564.318 114.108 565.627 113.566C566.937 113.024 568.35 112.78 569.766 112.85C571.631 112.804 573.474 113.265 575.099 114.183C576.732 115.175 578.046 116.614 578.885 118.33C579.878 120.459 580.344 122.795 580.245 125.143Z" fill="#7A7A7A"/>
<path d="M730.933 174.128C731.192 179.755 729.601 185.311 726.403 189.949C723.206 194.586 718.578 198.048 713.227 199.807C706.382 202.225 699.152 203.368 691.895 203.181C684.882 203.357 677.906 202.109 671.388 199.514C665.7 197.079 661.495 194.03 658.775 190.368C656.253 187.235 654.825 183.362 654.709 179.341C654.692 178.175 654.913 177.017 655.36 175.939C655.808 174.861 656.471 173.887 657.309 173.075C658.164 172.201 659.191 171.514 660.324 171.055C661.457 170.596 662.673 170.376 663.895 170.408C665.827 170.287 667.732 170.901 669.229 172.128C670.676 173.524 671.887 175.145 672.815 176.928C674.755 180.521 677.565 183.569 680.988 185.794C684.161 187.741 688.495 188.728 693.974 188.728C697.842 188.885 701.664 187.847 704.921 185.754C707.761 183.768 709.187 181.515 709.187 178.955C709.296 177.262 708.941 175.573 708.161 174.067C707.381 172.561 706.205 171.296 704.761 170.408C701.801 168.631 696.912 166.924 690.095 165.288C683.721 163.8 677.479 161.798 671.428 159.302C666.999 157.485 663.054 154.659 659.909 151.049C656.997 147.502 655.468 143.022 655.602 138.436C655.627 133.923 657.022 129.525 659.602 125.823C662.552 121.62 666.628 118.334 671.362 116.343C677.29 113.835 683.687 112.626 690.121 112.797C695.388 112.753 700.639 113.38 705.747 114.663C709.801 115.642 713.672 117.262 717.214 119.463C719.979 121.183 722.361 123.452 724.214 126.13C725.723 128.234 726.573 130.74 726.653 133.329C726.692 134.495 726.484 135.656 726.043 136.736C725.602 137.816 724.938 138.791 724.094 139.596C722.081 141.333 719.466 142.209 716.814 142.036C714.703 142.091 712.64 141.402 710.987 140.089C708.96 138.327 707.119 136.361 705.494 134.223C703.885 132.109 701.867 130.341 699.561 129.023C696.672 127.572 693.456 126.897 690.228 127.063C686.713 126.93 683.235 127.819 680.215 129.623C677.548 131.343 676.215 133.463 676.215 136.023C676.201 137.145 676.461 138.253 676.972 139.252C677.484 140.251 678.23 141.11 679.148 141.756C681.536 143.454 684.21 144.709 687.041 145.462C690.348 146.431 694.903 147.622 700.708 149.036C706.565 150.343 712.239 152.367 717.6 155.062C721.505 157.003 724.901 159.829 727.52 163.315C729.773 166.468 730.968 170.254 730.933 174.128Z" fill="#7A7A7A"/>
<path d="M758.079 126.663L772.559 176.301L785.745 130.156C787.159 125.329 788.203 122.036 788.878 120.276C789.713 118.299 791.028 116.562 792.705 115.223C794.894 113.517 797.628 112.665 800.398 112.823C803.194 112.66 805.954 113.512 808.171 115.223C809.907 116.611 811.28 118.4 812.171 120.436C812.927 122.303 813.984 125.543 815.344 130.156L828.517 176.301L843.184 126.663C844.161 123.107 844.948 120.516 845.543 118.89C846.156 117.256 847.169 115.803 848.49 114.663C850.255 113.331 852.444 112.686 854.65 112.85C855.927 112.833 857.195 113.07 858.38 113.546C859.566 114.022 860.645 114.728 861.556 115.623C862.48 116.436 863.22 117.437 863.726 118.559C864.232 119.681 864.492 120.899 864.49 122.129C864.198 125.685 863.348 129.172 861.97 132.462L843.823 185.688C842.25 190.194 841.028 193.447 840.157 195.447C839.224 197.522 837.817 199.348 836.05 200.78C833.738 202.345 831.004 203.168 828.212 203.14C825.421 203.111 822.704 202.232 820.424 200.62C818.508 198.947 817.041 196.82 816.158 194.434C815.224 191.99 814.22 188.816 813.144 184.914L800.451 141.622L788.158 184.914C787.023 189.682 785.228 194.268 782.825 198.54C780.932 201.607 777.599 203.14 772.826 203.14C770.662 203.204 768.519 202.713 766.599 201.714C764.866 200.751 763.396 199.378 762.319 197.714C761.082 195.745 760.071 193.643 759.306 191.447C758.439 189.034 757.773 187.127 757.279 185.714L739.28 132.462C737.493 127.476 736.613 124.023 736.613 122.129C736.625 120.921 736.882 119.728 737.371 118.623C737.859 117.518 738.568 116.525 739.453 115.703C740.363 114.775 741.454 114.043 742.658 113.552C743.862 113.061 745.153 112.822 746.453 112.85C750.142 112.85 752.639 113.894 753.946 115.983C755.754 119.361 757.142 122.947 758.079 126.663Z" fill="#7A7A7A"/>
<path d="M932.354 190.661C927.595 194.442 922.359 197.58 916.781 199.994C911.414 202.15 905.672 203.215 899.888 203.127C894.685 203.236 889.533 202.078 884.875 199.754C880.763 197.69 877.308 194.517 874.902 190.594C872.594 186.823 871.384 182.483 871.409 178.061C871.278 172.332 873.343 166.77 877.182 162.515C881.416 158.022 886.976 155 893.049 153.889C894.462 153.569 897.964 152.84 903.555 151.702C909.146 150.564 913.932 149.52 917.915 148.569C921.906 147.609 926.23 146.453 930.887 145.102C930.621 139.245 929.443 134.947 927.354 132.209C925.265 129.472 920.937 128.103 914.368 128.103C908.724 128.103 904.479 128.89 901.635 130.463C898.645 132.179 896.13 134.612 894.315 137.543C892.981 139.69 891.539 141.768 889.995 143.769C889.155 144.769 887.329 145.262 884.662 145.262C882.277 145.305 879.964 144.448 878.182 142.862C877.31 142.1 876.618 141.153 876.157 140.09C875.696 139.027 875.477 137.874 875.516 136.716C875.573 132.582 876.988 128.581 879.542 125.33C882.316 121.636 886.622 118.663 892.489 116.21C898.355 113.757 905.635 112.637 914.368 112.637C924.145 112.637 931.825 113.788 937.407 116.09C942.663 118.057 946.937 122.006 949.314 127.09C951.616 132.094 952.767 138.711 952.767 146.942C952.767 152.16 952.767 156.604 952.767 160.275C952.767 163.946 952.727 167.991 952.647 172.408C952.686 176.839 953.387 181.238 954.727 185.461C955.73 188.298 956.423 191.235 956.793 194.221C956.752 195.43 956.442 196.615 955.886 197.689C955.331 198.764 954.543 199.701 953.58 200.434C951.592 202.251 948.994 203.255 946.3 203.247C943.711 203.111 941.281 201.956 939.541 200.034C936.77 197.216 934.357 194.068 932.354 190.661ZM930.887 158.515C926.243 160.089 921.499 161.354 916.688 162.302C910.488 163.635 906.181 164.609 903.795 165.235C901.273 165.931 898.936 167.179 896.955 168.888C895.87 169.827 895.013 171 894.449 172.319C893.886 173.638 893.63 175.069 893.702 176.501C893.686 178.124 894.019 179.73 894.679 181.212C895.34 182.693 896.311 184.015 897.528 185.088C900.281 187.52 903.872 188.787 907.541 188.621C911.768 188.659 915.941 187.671 919.701 185.741C923.096 184.105 925.941 181.515 927.888 178.288C929.887 174.928 930.887 169.395 930.887 161.689V158.515Z" fill="#7A7A7A"/>
<path d="M992.219 125.33V127.996C995.785 123.376 1000.24 119.515 1005.31 116.637C1010.03 114.169 1015.28 112.922 1020.61 113.01C1027.27 112.978 1033.82 114.826 1039.48 118.343C1045.42 122.081 1050.15 127.451 1053.11 133.809C1056.62 141.341 1058.33 149.583 1058.12 157.889C1058.2 164.284 1057.22 170.649 1055.23 176.728C1053.56 182.006 1050.86 186.904 1047.3 191.141C1043.99 194.926 1039.9 197.947 1035.31 199.994C1030.67 202.097 1025.63 203.166 1020.54 203.127C1014.96 203.319 1009.43 201.996 1004.54 199.301C999.773 196.348 995.592 192.543 992.206 188.074V221.407C992.206 231.184 988.651 236.073 981.54 236.073C977.353 236.073 974.593 234.74 973.233 232.286C971.873 229.833 971.193 226.087 971.193 221.26V125.463C971.193 121.236 972.127 118.077 973.967 115.983C974.917 114.931 976.09 114.105 977.4 113.563C978.71 113.021 980.124 112.777 981.54 112.85C982.991 112.79 984.438 113.046 985.78 113.601C987.122 114.156 988.328 114.996 989.313 116.063C991.259 118.214 992.228 121.303 992.219 125.33ZM1035.76 157.635C1035.9 152.476 1034.99 147.344 1033.1 142.542C1031.58 138.678 1029 135.32 1025.66 132.849C1022.59 130.638 1018.9 129.457 1015.11 129.476C1012.15 129.445 1009.22 130.079 1006.54 131.332C1003.86 132.585 1001.49 134.425 999.619 136.716C995.415 141.569 993.313 148.671 993.313 158.022C993.313 166.866 995.402 173.742 999.579 178.648C1001.44 180.975 1003.81 182.847 1006.5 184.122C1009.2 185.397 1012.15 186.042 1015.13 186.008C1018.77 186.004 1022.32 184.882 1025.31 182.795C1028.69 180.355 1031.31 177.015 1032.88 173.155C1034.91 168.229 1035.89 162.935 1035.76 157.609V157.635Z" fill="#7A7A7A"/>
</g>
<defs>
<clipPath id="clip0_29076_987">
<rect width="1180.65" height="284.258" fill="white"/>
</clipPath>
</defs>
</svg>
