<svg width="223" height="40" viewBox="0 0 223 40" fill="none" xmlns="http://www.w3.org/2000/svg">
<path d="M66.2269 29.5912H53.645V10.3704H57.9014V25.7363H66.2269V29.5912Z" fill="white"/>
<path d="M73.5491 29.8321C72.1035 29.8321 70.8364 29.5287 69.7477 28.9219C68.677 28.2973 67.8382 27.4228 67.2314 26.2985C66.6424 25.1741 66.348 23.8713 66.348 22.3901C66.348 20.9623 66.6514 19.6952 67.2581 18.5887C67.8828 17.4644 68.7305 16.5899 69.8013 15.9653C70.8899 15.3228 72.1213 15.0016 73.4955 15.0016C74.6377 15.0016 75.6728 15.2157 76.6008 15.644C77.5289 16.0724 78.3052 16.6702 78.9298 17.4376C79.5545 18.205 80.0006 19.0974 80.2683 20.1146C80.536 21.1319 80.5806 22.2294 80.4022 23.4073H68.6502V20.9445H76.2796C76.2439 19.9986 75.9673 19.249 75.4497 18.6958C74.9322 18.1426 74.254 17.8659 73.4152 17.8659C72.7371 17.8659 72.166 18.0355 71.702 18.3746C71.2379 18.7137 70.881 19.2223 70.6312 19.9004C70.3991 20.5786 70.2831 21.4085 70.2831 22.3901C70.2831 23.3538 70.3991 24.1658 70.6312 24.8261C70.881 25.4864 71.2379 25.9861 71.702 26.3252C72.1838 26.6643 72.7727 26.8339 73.4688 26.8339C74.2362 26.8339 74.8786 26.6554 75.3962 26.2985C75.9316 25.9237 76.2975 25.3972 76.4938 24.719H80.3486C79.9382 26.3431 79.1351 27.6013 77.9393 28.4936C76.7615 29.3859 75.298 29.8321 73.5491 29.8321Z" fill="white"/>
<path d="M90.7387 25.7898V29.1896C90.2747 29.4395 89.8107 29.609 89.3467 29.6982C88.8827 29.8053 88.3651 29.8589 87.794 29.8589C86.7946 29.8589 85.929 29.6715 85.1973 29.2967C84.4656 28.9219 83.9035 28.3597 83.5108 27.6102C83.1182 26.8606 82.9219 25.9504 82.9219 24.8797V18.6155H80.0843V15.2693H82.9219V11.0396H86.7768V15.2693H90.8458V18.6155H86.7768V23.9962C86.7768 24.7993 86.9552 25.3794 87.3122 25.7363C87.6691 26.0932 88.1777 26.2717 88.838 26.2717C89.195 26.2717 89.5341 26.236 89.8553 26.1646C90.1765 26.0754 90.471 25.9504 90.7387 25.7898Z" fill="white"/>
<path d="M104.12 24.9332C104.12 26.4502 103.567 27.6548 102.461 28.5471C101.354 29.4216 99.7657 29.8589 97.6955 29.8589C95.661 29.8589 94.0727 29.3948 92.9305 28.4668C91.7883 27.5388 91.1458 26.2806 91.0031 24.6923H94.7241C94.7419 25.3883 95.0275 25.9504 95.5807 26.3788C96.1518 26.7892 96.8835 26.9945 97.7758 26.9945C98.454 26.9945 99.0251 26.8874 99.4891 26.6732C99.9531 26.4591 100.185 26.1021 100.185 25.6024C100.185 25.192 100.033 24.8797 99.7301 24.6655C99.4445 24.4513 98.9805 24.2818 98.338 24.1569L95.7146 23.675C94.4475 23.443 93.4391 22.979 92.6896 22.283C91.9579 21.587 91.592 20.6768 91.592 19.5524C91.592 18.6601 91.8329 17.8749 92.3148 17.1967C92.7966 16.5007 93.4748 15.9653 94.3493 15.5905C95.2416 15.1979 96.2857 15.0016 97.4814 15.0016C98.6949 15.0016 99.7657 15.2068 100.694 15.6173C101.622 16.0099 102.362 16.5899 102.916 17.3573C103.469 18.1069 103.781 18.9992 103.853 20.0343H100.158C100.087 19.3561 99.8104 18.8297 99.3285 18.4549C98.8645 18.0622 98.2577 17.8659 97.5081 17.8659C96.8478 17.8659 96.3124 17.9819 95.902 18.2139C95.5093 18.4281 95.313 18.7493 95.313 19.1777C95.313 19.5881 95.4558 19.8915 95.7413 20.0878C96.0447 20.2663 96.4909 20.418 97.0798 20.5429L99.8907 21.0783C101.301 21.3282 102.354 21.7833 103.05 22.4436C103.763 23.0861 104.12 23.9159 104.12 24.9332Z" fill="white"/>
<path d="M118.919 25.8969V29.5912H105.856V10.3704H118.732V14.0646H110.112V17.8392H117.956V21.5602H110.112V25.8969H118.919Z" fill="white"/>
<path d="M123.645 29.5912H119.308L124.1 22.3097L119.629 15.2693H124.127L126.937 20.1414L129.775 15.2693H133.871L129.481 22.4436L134.219 29.5912H129.802L126.67 24.5316L123.645 29.5912Z" fill="white"/>
<path d="M140.449 29.8589C139.074 29.8589 137.861 29.5465 136.808 28.9219C135.755 28.2973 134.925 27.4228 134.318 26.2985C133.729 25.1741 133.435 23.8802 133.435 22.4168C133.435 20.9891 133.738 19.722 134.345 18.6155C134.952 17.4912 135.782 16.6078 136.835 15.9653C137.905 15.3228 139.11 15.0016 140.449 15.0016C141.716 15.0016 142.849 15.2693 143.848 15.8047C144.848 16.3401 145.66 17.0896 146.284 18.0533C146.927 19.017 147.319 20.1414 147.462 21.4263H143.366C143.277 20.5162 142.974 19.8023 142.456 19.2847C141.939 18.7493 141.278 18.4816 140.475 18.4816C139.851 18.4816 139.306 18.6423 138.842 18.9635C138.396 19.2847 138.048 19.7398 137.798 20.3288C137.548 20.8999 137.424 21.5959 137.424 22.4168C137.424 23.2378 137.54 23.9516 137.772 24.5584C138.021 25.1652 138.378 25.6292 138.842 25.9504C139.306 26.2538 139.851 26.4055 140.475 26.4055C141.296 26.4055 141.957 26.1468 142.456 25.6292C142.974 25.0938 143.277 24.3532 143.366 23.4073H147.462C147.337 24.7458 146.963 25.8969 146.338 26.8606C145.713 27.8065 144.901 28.5471 143.902 29.0825C142.902 29.6001 141.751 29.8589 140.449 29.8589Z" fill="white"/>
<path d="M152.607 21.8547V29.5912H148.725V10.3704H152.607V17.0896C153.106 16.4471 153.669 15.9385 154.293 15.5637C154.936 15.1889 155.73 15.0016 156.676 15.0016C158.121 15.0016 159.29 15.4656 160.183 16.3936C161.075 17.3038 161.521 18.6244 161.521 20.3555V29.5912H157.639V21.6673C157.639 20.6322 157.434 19.8469 157.024 19.3115C156.631 18.7583 156.033 18.4816 155.23 18.4816C154.748 18.4816 154.302 18.6066 153.892 18.8564C153.499 19.0884 153.187 19.4543 152.955 19.954C152.723 20.4537 152.607 21.0872 152.607 21.8547Z" fill="white"/>
<path d="M162.638 22.4168C162.638 21.0248 162.906 19.7666 163.441 18.6423C163.977 17.5179 164.735 16.6345 165.717 15.992C166.698 15.3317 167.867 15.0016 169.223 15.0016C170.169 15.0016 170.972 15.18 171.633 15.537C172.311 15.876 172.918 16.4025 173.453 17.1164V15.2693H177.04V29.5912H173.453V27.6102C172.9 28.324 172.24 28.8773 171.472 29.2699C170.723 29.6625 169.902 29.8589 169.009 29.8589C167.724 29.8589 166.6 29.5376 165.636 28.8951C164.69 28.2348 163.95 27.3425 163.414 26.2181C162.897 25.076 162.638 23.8089 162.638 22.4168ZM166.654 22.4168C166.654 23.7196 166.975 24.7101 167.617 25.3883C168.26 26.0486 169.018 26.3788 169.893 26.3788C170.482 26.3788 171.017 26.2271 171.499 25.9237C171.999 25.6203 172.391 25.1741 172.677 24.5852C172.98 23.9784 173.132 23.2467 173.132 22.3901C173.132 21.5156 172.98 20.7928 172.677 20.2217C172.373 19.6328 171.972 19.1955 171.472 18.91C170.99 18.6244 170.464 18.4816 169.893 18.4816C169.018 18.4816 168.26 18.8118 167.617 19.4721C166.975 20.1146 166.654 21.0962 166.654 22.4168Z" fill="white"/>
<path d="M182.986 21.8547V29.5912H179.105V15.2693H182.665V17.2502C183.218 16.5542 183.852 16.0099 184.566 15.6173C185.28 15.2068 186.11 15.0016 187.055 15.0016C188.501 15.0016 189.67 15.4656 190.562 16.3936C191.455 17.3038 191.901 18.6244 191.901 20.3555V29.5912H188.019V21.6673C188.019 20.6322 187.814 19.8469 187.403 19.3115C187.011 18.7583 186.413 18.4816 185.61 18.4816C185.128 18.4816 184.682 18.6066 184.271 18.8564C183.879 19.0884 183.566 19.4543 183.334 19.954C183.102 20.4537 182.986 21.0872 182.986 21.8547Z" fill="white"/>
<path d="M200.112 35.0254C198.827 35.0254 197.685 34.8024 196.685 34.3562C195.704 33.9279 194.927 33.3033 194.356 32.4823C193.803 31.6614 193.5 30.7066 193.446 29.6179H197.194C197.283 30.3853 197.569 30.9743 198.05 31.3847C198.55 31.7952 199.228 32.0004 200.085 32.0004C201.067 32.0004 201.816 31.7417 202.334 31.2241C202.851 30.7066 203.11 29.9481 203.11 28.9487V26.9409C202.717 27.5834 202.173 28.092 201.477 28.4668C200.799 28.8238 200.031 29.0022 199.175 29.0022C198.015 29.0022 196.962 28.6988 196.016 28.092C195.088 27.4853 194.356 26.6554 193.821 25.6024C193.285 24.5316 193.018 23.327 193.018 21.9885C193.018 20.6143 193.268 19.4097 193.767 18.3746C194.285 17.3216 194.99 16.5007 195.882 15.9117C196.792 15.3049 197.836 15.0016 199.014 15.0016C199.978 15.0016 200.817 15.18 201.531 15.537C202.244 15.8939 202.869 16.4293 203.404 17.1431V15.2693H206.965V28.8951C206.965 30.8047 206.349 32.3038 205.118 33.3925C203.904 34.4811 202.236 35.0254 200.112 35.0254ZM196.926 22.0153C196.926 23.1218 197.194 24.0052 197.729 24.6655C198.282 25.308 199.023 25.6292 199.951 25.6292C200.576 25.6292 201.12 25.4864 201.584 25.2009C202.048 24.8975 202.405 24.4781 202.655 23.9427C202.923 23.3895 203.056 22.7559 203.056 22.042C203.056 20.9356 202.771 20.0521 202.2 19.3918C201.629 18.7137 200.879 18.3746 199.951 18.3746C199.023 18.3746 198.282 18.7047 197.729 19.3651C197.194 20.0254 196.926 20.9088 196.926 22.0153Z" fill="white"/>
<path d="M215.435 29.8321C213.989 29.8321 212.722 29.5287 211.634 28.9219C210.563 28.2973 209.724 27.4228 209.117 26.2985C208.528 25.1741 208.234 23.8713 208.234 22.3901C208.234 20.9623 208.537 19.6952 209.144 18.5887C209.769 17.4644 210.616 16.5899 211.687 15.9653C212.776 15.3228 214.007 15.0016 215.381 15.0016C216.523 15.0016 217.559 15.2157 218.487 15.644C219.415 16.0724 220.191 16.6702 220.816 17.4376C221.44 18.205 221.886 19.0974 222.154 20.1146C222.422 21.1319 222.466 22.2294 222.288 23.4073H210.536V20.9445H218.165C218.13 19.9986 217.853 19.249 217.336 18.6958C216.818 18.1426 216.14 17.8659 215.301 17.8659C214.623 17.8659 214.052 18.0355 213.588 18.3746C213.124 18.7137 212.767 19.2223 212.517 19.9004C212.285 20.5786 212.169 21.4085 212.169 22.3901C212.169 23.3538 212.285 24.1658 212.517 24.8261C212.767 25.4864 213.124 25.9861 213.588 26.3252C214.07 26.6643 214.659 26.8339 215.355 26.8339C216.122 26.8339 216.764 26.6554 217.282 26.2985C217.817 25.9237 218.183 25.3972 218.38 24.719H222.234C221.824 26.3431 221.021 27.6013 219.825 28.4936C218.647 29.3859 217.184 29.8321 215.435 29.8321Z" fill="white"/>
<path fill-rule="evenodd" clip-rule="evenodd" d="M20.5 1.72316C20.5 0.955335 21.3295 0.473967 21.9961 0.854914L29.25 4.99998L37.3702 9.64008C37.7596 9.86263 38 10.2768 38 10.7254V20L30.4903 15.7087C29.7218 15.2696 28.7782 15.2696 28.0097 15.7087L20.5 20L20.5 9.99998L20.5 1.72316ZM3 20V10.7254C3 10.2768 3.24036 9.86263 3.62983 9.64008L10.5097 5.70875C11.2782 5.26956 12.2218 5.26956 12.9903 5.70875L20.5 9.99998L3 20ZM20.5 38.2768C20.5 39.0446 19.6705 39.526 19.0039 39.145L11.75 35L3.62983 30.3599C3.24036 30.1373 3 29.7231 3 29.2746V20L10.5097 24.2912C11.2782 24.7304 12.2218 24.7304 12.9903 24.2912L20.5 20V30V38.2768ZM28.0097 34.2912C28.7782 34.7304 29.7218 34.7304 30.4903 34.2912L37.3702 30.3599C37.7596 30.1373 38 29.7231 38 29.2746V20L20.5 30L28.0097 34.2912Z" fill="#3FAFFF"/>
</svg>
