<svg width="2800" height="420" viewBox="0 0 2800 420" fill="none" xmlns="http://www.w3.org/2000/svg">
<path fill-rule="evenodd" clip-rule="evenodd" d="M1576.28 98.25C1576.56 118.738 1577.29 138.425 1577.9 142C1578.5 145.575 1579.25 149.991 1579.56 151.813C1580.09 154.996 1579.79 154.799 1571.81 146.786C1565.91 140.865 1561.59 137.518 1556.93 135.248C1553.31 133.489 1547.46 131.304 1543.93 130.394C1539.94 129.365 1533.52 128.738 1527 128.738C1520.44 128.738 1514.06 129.365 1510 130.411C1506.42 131.332 1501.13 133.168 1498.24 134.492C1495.35 135.815 1490.25 139 1486.91 141.568C1483.57 144.137 1478.84 148.772 1476.4 151.869C1473.95 154.966 1470.6 159.883 1468.94 162.796C1467.29 165.709 1464.61 172.026 1463 176.835C1461.39 181.644 1459.29 189.836 1458.34 195.039C1457.09 201.877 1456.62 209.768 1456.63 223.5C1456.63 237.26 1457.12 245.12 1458.38 252C1459.35 257.225 1461.26 264.875 1462.64 269C1464.02 273.125 1466.79 279.65 1468.8 283.5C1471.31 288.318 1475.1 293.157 1480.97 299.025C1487.03 305.085 1491.4 308.475 1496.07 310.75C1499.69 312.51 1505.54 314.704 1509.07 315.625C1513.06 316.666 1519.48 317.309 1526 317.324C1532.74 317.34 1538.79 316.743 1542.89 315.66C1546.4 314.731 1552.02 312.539 1555.39 310.788C1559.28 308.761 1564.52 304.554 1569.81 299.201C1574.39 294.579 1578.34 291.005 1578.59 291.258C1578.85 291.512 1581.02 296.62 1583.43 302.61L1587.81 313.5L1607.4 313.771L1627 314.042V187.521V61H1601.38H1575.76L1576.28 98.25ZM525.23 97.25L525.5 118.5L557.75 118.764L590 119.028V216.514V314H615.5H641V216.514V119.028L673.25 118.764L705.5 118.5L705.77 97.25L706.04 76H615.5H524.96L525.23 97.25ZM831.5 129.012C828.2 129.463 822.959 130.785 819.854 131.949C816.749 133.113 811.356 135.91 807.869 138.163C804.382 140.417 799.048 144.848 796.015 148.01C792.982 151.172 789.375 155.601 788 157.853C786.625 160.104 784.955 161.958 784.289 161.973C783.622 161.988 782.639 160.313 782.105 158.25C781.57 156.188 779.938 149.438 778.479 143.25L775.826 132H756.413H737V223V314H762.5H788V264.636C788 235.793 788.418 213.034 789.005 209.886C789.558 206.924 791.375 201.711 793.042 198.303C794.882 194.542 797.927 190.471 800.787 187.948C803.379 185.662 807.633 182.708 810.241 181.384C812.849 180.059 818.024 178.266 821.741 177.4C826.527 176.284 832.076 175.923 840.75 176.162C852.443 176.485 853.001 176.409 853.013 174.5C853.021 173.4 853.686 164.85 854.493 155.5C855.299 146.15 855.968 136.618 855.979 134.317C855.995 131.175 855.565 130.013 854.25 129.647C853.288 129.378 849.125 128.941 845 128.676C840.875 128.41 834.8 128.562 831.5 129.012ZM953.687 129.032C949.39 129.519 943.145 130.616 939.808 131.471C936.472 132.325 931.087 134.097 927.842 135.408C924.597 136.718 919.368 139.3 916.221 141.145C913.075 142.99 906.9 148.105 902.5 152.511C897.446 157.571 892.955 163.28 890.306 168.011C887.999 172.13 884.973 178.919 883.582 183.099C882.19 187.278 880.321 195.153 879.427 200.599C878.183 208.18 877.927 214.484 878.333 227.5C878.722 239.953 879.398 246.506 880.862 252C881.961 256.125 883.519 261.332 884.323 263.571C885.127 265.81 887.012 270.085 888.512 273.071C890.012 276.057 893.198 281.264 895.593 284.642C897.988 288.02 902.619 293.195 905.883 296.142C909.148 299.089 914.322 303.01 917.381 304.855C920.44 306.7 925.571 309.271 928.783 310.568C931.995 311.866 937.295 313.632 940.561 314.494C943.828 315.356 950.753 316.472 955.951 316.974C961.53 317.513 969.52 317.525 975.451 317.004C980.978 316.518 987.525 315.663 990 315.103C992.475 314.543 997.089 313.189 1000.25 312.095C1003.42 311.001 1009.17 308.444 1013.03 306.414C1016.89 304.384 1023.22 299.789 1027.1 296.202C1030.97 292.616 1035.95 287.014 1038.17 283.753C1040.38 280.492 1043.67 274.591 1045.47 270.639C1047.27 266.686 1049.71 259.638 1050.89 254.976C1052.07 250.314 1053.52 240.912 1054.11 234.082C1054.87 225.195 1054.86 218.48 1054.08 210.469C1053.48 204.312 1052.09 195.725 1050.98 191.387C1049.88 187.049 1047.15 179.675 1044.92 175C1042.68 170.325 1039.15 164.237 1037.06 161.471C1034.98 158.706 1030.85 154.061 1027.88 151.15C1024.92 148.24 1019.34 143.885 1015.49 141.474C1011.63 139.062 1005.53 135.98 1001.92 134.624C998.323 133.268 992.028 131.475 987.938 130.64C983.847 129.805 976.225 128.903 971 128.635C965.775 128.367 957.984 128.546 953.687 129.032ZM1165 128.654C1163.07 128.837 1158.12 129.49 1154 130.105C1149.87 130.72 1143.57 132.119 1140 133.214C1136.42 134.309 1130.35 136.775 1126.5 138.694C1122.65 140.613 1117.02 144.192 1114 146.646C1110.97 149.101 1106.35 153.672 1103.73 156.804C1101.1 159.937 1096.94 166.55 1094.49 171.5C1092.04 176.45 1089.15 183.94 1088.08 188.145C1087.01 192.349 1085.65 199.244 1085.07 203.467C1084.48 207.69 1084 217.075 1084.01 224.322C1084.01 231.57 1084.68 242 1085.5 247.5C1086.32 253 1087.94 260.631 1089.09 264.457C1090.24 268.283 1092.67 274.358 1094.48 277.957C1096.29 281.556 1099.62 286.975 1101.89 290C1104.15 293.025 1108.56 297.622 1111.69 300.216C1114.82 302.809 1120.69 306.546 1124.74 308.519C1128.78 310.492 1135.48 312.973 1139.63 314.033C1143.78 315.094 1152.19 316.466 1158.33 317.083C1164.47 317.699 1173.1 317.92 1177.5 317.572C1181.9 317.224 1188.86 316.457 1192.97 315.867C1197.08 315.277 1203.61 313.669 1207.47 312.292C1211.34 310.915 1216.86 308.453 1219.75 306.821L1225 303.853V282.427C1225 270.642 1224.85 261 1224.67 261C1224.49 261 1220.9 262.963 1216.69 265.362C1212.48 267.761 1205.47 270.902 1201.11 272.341C1196.76 273.781 1188.99 275.44 1183.85 276.028C1178.71 276.616 1172.25 276.82 1169.5 276.481C1166.75 276.141 1162.38 275.188 1159.78 274.361C1157.07 273.499 1152.89 270.911 1149.97 268.284C1147.04 265.646 1143.63 261.228 1141.93 257.854C1140.3 254.634 1138.22 248.963 1137.31 245.25C1136.13 240.47 1135.65 234.122 1135.66 223.5C1135.66 213.459 1136.19 206.134 1137.26 201.343C1138.14 197.406 1140.04 191.674 1141.49 188.605C1142.95 185.535 1146.13 181.024 1148.58 178.58C1151.27 175.887 1155.13 173.346 1158.37 172.133C1161.32 171.031 1166.4 169.828 1169.67 169.458C1172.94 169.088 1178.96 169.299 1183.06 169.927C1187.15 170.554 1195.45 172.796 1201.5 174.907C1207.55 177.019 1213.22 179.05 1214.09 179.42C1215.39 179.97 1216.99 176.664 1222.84 161.278C1226.78 150.929 1230 142.008 1230 141.453C1230 140.898 1226.29 138.997 1221.75 137.23C1217.21 135.462 1209.9 133.1 1205.5 131.981C1201.1 130.862 1192.32 129.515 1186 128.989C1179.67 128.462 1173.15 128.097 1171.5 128.176C1169.85 128.255 1166.92 128.47 1165 128.654ZM1322.5 129.157C1318.1 129.65 1309.86 131.165 1304.18 132.524C1298.51 133.882 1289.28 136.798 1283.68 139.002C1278.08 141.206 1272.93 143.375 1272.23 143.823C1271.29 144.432 1273.01 148.901 1279.08 161.568C1283.54 170.881 1287.28 178.59 1287.38 178.699C1287.48 178.808 1291.88 177.163 1297.14 175.043C1302.41 172.922 1311.35 170.02 1317.01 168.594C1324.58 166.685 1329.86 166 1337.02 166C1343.17 166 1348.33 166.56 1351.06 167.52C1353.42 168.355 1356.81 170.143 1358.58 171.492C1360.35 172.842 1362.79 176.006 1364.01 178.524C1365.53 181.666 1366.39 185.729 1366.75 191.48L1367.27 199.858L1363.89 200.377C1362.02 200.662 1352.17 201.136 1342 201.43C1331.82 201.724 1318.82 202.678 1313.09 203.549C1307.37 204.419 1299.04 206.28 1294.59 207.683C1290.14 209.087 1283.84 211.575 1280.59 213.213C1277.34 214.851 1272.23 218.505 1269.24 221.332C1266.25 224.159 1262.73 228.314 1261.41 230.566C1260.09 232.818 1258.03 237.324 1256.84 240.58C1254.99 245.604 1254.66 248.62 1254.66 260.5C1254.66 273.129 1254.92 275.286 1257.39 282.529C1259.09 287.522 1261.94 293.034 1264.93 297.11C1267.96 301.233 1272.01 305.175 1275.85 307.744C1279.22 309.989 1284.79 312.764 1288.23 313.911C1291.68 315.057 1298.19 316.457 1302.7 317.022C1308.21 317.713 1314.27 317.726 1321.2 317.06C1326.86 316.516 1333.97 315.329 1337 314.423C1340.02 313.517 1345.13 311.446 1348.35 309.821C1351.87 308.047 1357.76 303.446 1363.09 298.308L1371.96 289.75L1373.8 294.125C1374.8 296.531 1376.94 301.988 1378.54 306.25L1381.46 314H1399.28H1417.1L1416.79 245.75L1416.47 177.5L1413.75 169.422C1412.25 164.978 1409.29 158.663 1407.17 155.387C1405.05 152.111 1401.11 147.535 1398.41 145.219C1395.71 142.902 1390.55 139.454 1386.95 137.556C1383.35 135.659 1377.05 133.199 1372.95 132.089C1368.85 130.98 1361.69 129.606 1357.03 129.036C1352.37 128.466 1344.49 128.059 1339.53 128.131C1334.56 128.203 1326.9 128.665 1322.5 129.157ZM1742.5 129.097C1738.1 129.622 1731.12 130.963 1727 132.077C1722.88 133.191 1715.9 135.847 1711.5 137.979C1707.1 140.111 1700.44 144.39 1696.7 147.488C1692.96 150.586 1687.84 155.906 1685.31 159.31C1682.78 162.715 1678.96 169.197 1676.82 173.716C1674.68 178.235 1672.05 185.391 1670.97 189.619C1669.89 193.846 1668.5 201.399 1667.88 206.403C1667.25 211.539 1667 221.161 1667.31 228.5C1667.62 235.65 1668.55 244.692 1669.39 248.593C1670.22 252.494 1672.27 259.415 1673.93 263.973C1675.59 268.531 1679.07 275.656 1681.66 279.806C1684.24 283.956 1689.09 290.103 1692.43 293.466C1695.77 296.829 1701.17 301.327 1704.43 303.463C1707.69 305.598 1713.38 308.614 1717.07 310.166C1720.77 311.717 1726.44 313.668 1729.69 314.5C1732.94 315.333 1740.08 316.438 1745.55 316.956C1751.83 317.551 1759.23 317.546 1765.62 316.941C1771.19 316.415 1779.19 315.102 1783.4 314.025C1787.62 312.947 1794.76 310.232 1799.29 307.991C1803.81 305.749 1810.27 301.572 1813.64 298.708C1817.01 295.843 1821.41 291.525 1823.42 289.111C1825.43 286.697 1828.8 281.747 1830.92 278.111C1833.03 274.475 1835.89 268.35 1837.26 264.5C1838.64 260.65 1840.6 253.675 1841.61 249C1842.99 242.596 1843.44 236.185 1843.45 223C1843.46 209.861 1843.01 203.382 1841.65 197C1840.66 192.325 1838.57 185.222 1837.01 181.216C1835.46 177.21 1832.35 170.834 1830.1 167.048C1827.85 163.262 1822.97 157.062 1819.25 153.27C1815.54 149.478 1809.57 144.484 1806 142.172C1802.43 139.86 1795.93 136.588 1791.57 134.901C1787.2 133.214 1780.45 131.228 1776.57 130.488C1772.68 129.749 1765.22 128.919 1760 128.643C1754.78 128.368 1746.9 128.573 1742.5 129.097ZM1978.99 128.943C1975.96 129.351 1971.69 130.26 1969.49 130.964C1967.3 131.667 1962.53 133.784 1958.9 135.668C1955.27 137.551 1949.78 141.333 1946.71 144.072C1943.64 146.811 1938.98 151.972 1936.36 155.541C1933.74 159.11 1931.12 161.875 1930.55 161.684C1929.97 161.493 1927.95 154.736 1926.06 146.669L1922.63 132H1903.31H1884V223V314H1909.5H1935V263.21C1935 221.128 1935.26 211.426 1936.51 206.62C1937.34 203.429 1939.16 198.874 1940.55 196.496C1941.95 194.118 1945.05 190.362 1947.45 188.149C1949.85 185.936 1954.11 182.966 1956.9 181.55C1959.7 180.134 1965.02 178.269 1968.74 177.406C1973.44 176.313 1979.15 175.93 1987.5 176.145L1999.5 176.455L2001.18 156.477C2002.1 145.49 2002.88 135.068 2002.93 133.317C2002.98 131.097 2002.47 129.987 2001.25 129.647C2000.29 129.378 1996.12 128.943 1992 128.68C1987.88 128.417 1982.02 128.535 1978.99 128.943ZM2190.5 128.693C2188.3 128.89 2181.66 129.953 2175.75 131.056C2169.83 132.16 2160.98 134.373 2156.08 135.974C2151.18 137.575 2144.43 140.268 2141.09 141.957L2135 145.027L2143.45 161.901L2151.9 178.775L2160.42 175.391C2165.11 173.53 2172.9 170.805 2177.72 169.336C2185.35 167.015 2188.33 166.654 2200.5 166.583C2213.02 166.509 2214.92 166.728 2218.5 168.653C2220.7 169.837 2223.46 171.862 2224.63 173.153C2225.81 174.444 2227.58 177.075 2228.56 179C2229.74 181.281 2230.52 185.529 2230.8 191.201C2231.23 199.706 2231.19 199.913 2228.87 200.389C2227.57 200.657 2217.72 201.117 2207 201.413C2196.28 201.708 2182.79 202.67 2177.02 203.551C2171.26 204.432 2162.49 206.457 2157.52 208.052C2152.56 209.647 2145.63 212.65 2142.13 214.726C2138.62 216.802 2133.59 220.864 2130.95 223.752C2128.31 226.641 2125.04 231.366 2123.7 234.252C2122.35 237.139 2120.66 241.975 2119.94 245C2119.21 248.025 2118.64 255.225 2118.68 261C2118.71 267.078 2119.43 274.404 2120.39 278.397C2121.3 282.19 2123.4 287.852 2125.07 290.978C2126.74 294.105 2130.58 299.168 2133.62 302.23C2136.76 305.395 2141.84 309.124 2145.39 310.873C2148.83 312.566 2154.54 314.706 2158.07 315.63C2162.52 316.794 2168.34 317.292 2177 317.252C2185.05 317.215 2192.13 316.585 2196.9 315.482C2200.98 314.54 2205.9 313.103 2207.85 312.288C2209.8 311.474 2213.81 309.264 2216.76 307.378C2219.71 305.492 2225.24 300.733 2229.05 296.803C2232.87 292.873 2236.15 289.847 2236.35 290.079C2236.55 290.31 2238.71 295.675 2241.14 302L2245.58 313.5L2263.33 313.773L2281.08 314.046L2280.79 245.273L2280.5 176.5L2277.68 168.5C2276.13 164.1 2273.5 158.368 2271.84 155.762C2270.17 153.156 2266.31 148.741 2263.25 145.95C2260.2 143.159 2254.64 139.332 2250.89 137.446C2247.15 135.56 2240.8 133.129 2236.79 132.044C2232.78 130.96 2225.69 129.606 2221.03 129.036C2216.37 128.466 2208.49 128.076 2203.53 128.168C2198.56 128.261 2192.7 128.497 2190.5 128.693ZM2423.56 129.034C2419.74 129.495 2413.89 130.863 2410.56 132.074C2407.23 133.285 2402.25 135.711 2399.5 137.466C2396.75 139.221 2392.32 142.832 2389.67 145.49C2387.01 148.149 2384.14 151.376 2383.3 152.662C2382.46 153.948 2381.23 155 2380.57 155C2379.91 155 2377.9 149.889 2376.04 143.5L2372.71 132H2351.85H2331V263V394H2356.59H2382.17L2381.7 348.25C2381.44 323.087 2380.79 300.587 2380.25 298.25C2379.71 295.913 2379.48 294 2379.74 294C2380 294 2383.48 297.053 2387.48 300.785C2391.47 304.517 2397.61 309.011 2401.12 310.772C2404.63 312.533 2410.43 314.717 2414 315.625C2418.09 316.663 2424.58 317.279 2431.5 317.282C2438.77 317.286 2444.7 316.701 2449 315.559C2452.57 314.608 2458.47 312.272 2462.1 310.369C2465.73 308.465 2471.27 304.625 2474.4 301.835C2477.53 299.046 2481.81 294.229 2483.91 291.132C2486.01 288.034 2489.07 282.8 2490.72 279.5C2492.37 276.2 2494.69 270.562 2495.87 266.971C2497.05 263.381 2498.7 257.081 2499.53 252.971C2500.36 248.862 2501.31 238.525 2501.65 230C2502.02 220.517 2501.8 210.301 2501.08 203.684C2500.43 197.735 2498.85 188.712 2497.56 183.634C2496.27 178.555 2493.6 170.985 2491.62 166.812C2489.64 162.638 2485.58 156.108 2482.6 152.3C2479.62 148.492 2474.62 143.443 2471.49 141.08C2468.36 138.717 2463.03 135.533 2459.65 134.005C2456.27 132.478 2451.03 130.751 2448 130.169C2444.97 129.587 2439.8 128.904 2436.5 128.653C2433.2 128.401 2427.38 128.573 2423.56 129.034ZM2634.16 129.059C2630.67 129.521 2624.88 130.875 2621.3 132.067C2617.72 133.259 2612.03 136.121 2608.66 138.427C2605.29 140.733 2600.28 145.368 2597.52 148.727C2594.76 152.086 2591.98 154.871 2591.35 154.917C2590.71 154.963 2589.23 151.738 2588.04 147.75C2586.86 143.762 2585.32 138.7 2584.61 136.5L2583.33 132.5L2562.67 132.23L2542 131.959V262.98V394H2567.59H2593.19L2592.7 349.25C2592.4 322.001 2591.78 302.577 2591.11 299.584C2590.5 296.88 2590.22 294.452 2590.48 294.188C2590.74 293.923 2594.29 296.866 2598.35 300.727C2602.8 304.957 2608.27 308.982 2612.12 310.856C2615.63 312.567 2621.43 314.708 2625 315.613C2628.91 316.603 2635.69 317.277 2642 317.303C2648.71 317.331 2654.85 316.741 2659 315.669C2662.57 314.747 2668.87 312.307 2672.98 310.246C2678.19 307.639 2682.6 304.355 2687.48 299.448C2691.61 295.303 2696.31 289.197 2698.9 284.636C2701.32 280.368 2704.59 273.034 2706.17 268.338C2707.74 263.643 2709.79 255.683 2710.71 250.651C2711.9 244.146 2712.38 236.005 2712.37 222.5C2712.37 208.74 2711.88 200.88 2710.61 194C2709.65 188.775 2707.74 181.125 2706.36 177C2704.98 172.875 2702.22 166.35 2700.22 162.5C2697.71 157.639 2693.99 152.892 2688.05 146.964C2682.08 141.004 2677.54 137.462 2673 135.227C2669.43 133.467 2663.8 131.382 2660.5 130.595C2657.2 129.808 2651.35 128.951 2647.5 128.691C2643.65 128.432 2637.65 128.597 2634.16 129.059ZM957.132 170.015C954.729 170.521 950.811 171.881 948.426 173.036C946.04 174.191 942.717 176.697 941.042 178.605C939.367 180.513 936.867 184.303 935.486 187.028C934.105 189.753 932.216 195.024 931.287 198.741C930.033 203.758 929.598 209.88 929.598 222.5C929.598 235.322 930.027 241.22 931.342 246.5C932.3 250.35 934.145 255.817 935.44 258.648C936.736 261.479 939.548 265.548 941.69 267.69C943.832 269.832 947.815 272.677 950.542 274.012C954.825 276.11 956.929 276.442 966 276.455C974.556 276.467 977.343 276.083 981.051 274.379C983.554 273.23 987.234 270.855 989.23 269.103C991.226 267.351 994.033 263.912 995.469 261.462C996.905 259.012 999.005 253.518 1000.13 249.254C1001.56 243.892 1002.35 237.026 1002.71 227C1003.1 216.11 1002.82 210.155 1001.58 203.083C1000.64 197.661 998.674 191.007 996.953 187.402C995.118 183.556 992.212 179.596 989.426 177.144C986.931 174.947 982.777 172.428 980.195 171.546C977.613 170.663 972.35 169.75 968.5 169.517C964.65 169.284 959.534 169.508 957.132 170.015ZM1746.14 170.077C1743.74 170.548 1739.46 172.231 1736.64 173.817C1733.4 175.63 1730.17 178.587 1727.91 181.792C1725.93 184.593 1723.37 189.782 1722.21 193.323C1721.04 196.863 1719.59 204.652 1718.97 210.63C1718.35 216.609 1718.14 225.325 1718.5 230C1718.86 234.675 1719.84 241.875 1720.67 246C1721.5 250.125 1723.34 255.859 1724.75 258.741C1726.16 261.624 1728.93 265.623 1730.91 267.629C1732.88 269.634 1736.89 272.382 1739.8 273.736C1743.38 275.397 1747.63 276.369 1752.85 276.727C1758.51 277.115 1762.2 276.796 1766.55 275.54C1769.82 274.595 1773.98 272.704 1775.78 271.338C1777.58 269.972 1780 267.874 1781.15 266.677C1782.31 265.48 1784.52 261.8 1786.07 258.5C1787.62 255.2 1789.64 248.742 1790.56 244.148C1791.86 237.594 1792.12 232.106 1791.76 218.648C1791.37 204.495 1790.9 200.292 1789.05 194.586C1787.82 190.784 1785.75 185.978 1784.44 183.906C1783.13 181.834 1780.81 178.952 1779.28 177.502C1777.75 176.051 1774.91 174.036 1772.97 173.023C1771.03 172.011 1766.78 170.691 1763.53 170.091C1760.29 169.491 1756.03 169.049 1754.07 169.11C1752.1 169.17 1748.54 169.605 1746.14 170.077ZM2405.5 170.341C2403.3 171.069 2400.15 172.374 2398.5 173.243C2396.85 174.111 2394.29 176.099 2392.81 177.661C2391.32 179.222 2388.98 182.975 2387.6 186C2386.22 189.025 2384.39 195.496 2383.54 200.381C2382.69 205.266 2382.01 214.491 2382.03 220.881C2382.05 227.271 2382.5 235.875 2383.03 240C2383.57 244.125 2384.66 249.75 2385.47 252.5C2386.27 255.25 2388.41 259.957 2390.21 262.96C2392.02 265.964 2395.3 269.645 2397.5 271.141C2399.7 272.637 2403.53 274.442 2406 275.152C2408.47 275.862 2413.88 276.413 2418 276.375C2423.61 276.324 2426.69 275.74 2430.22 274.057C2432.82 272.82 2436.58 269.994 2438.58 267.779C2440.58 265.563 2443.27 261.384 2444.54 258.493C2445.82 255.602 2447.65 249.696 2448.61 245.368C2449.86 239.703 2450.34 233.16 2450.31 222C2450.28 211.656 2449.74 204.062 2448.67 199.172C2447.79 195.141 2446.01 189.516 2444.7 186.672C2443.39 183.827 2441.06 180.015 2439.53 178.201C2437.99 176.386 2434.44 173.719 2431.62 172.274C2427.52 170.169 2424.81 169.583 2418 169.332C2412.79 169.141 2407.95 169.532 2405.5 170.341ZM2615.71 170.365C2613.08 171.105 2609.26 173.045 2607.21 174.677C2605.17 176.309 2602.1 179.699 2600.4 182.211C2598.69 184.723 2596.48 189.866 2595.49 193.639C2594.2 198.535 2593.55 205.515 2593.23 218.005C2592.89 231.481 2593.17 237.58 2594.43 244.505C2595.33 249.452 2597.43 256.294 2599.08 259.708C2600.82 263.314 2603.8 267.387 2606.18 269.424C2608.44 271.354 2612.58 273.701 2615.39 274.641C2618.41 275.649 2623.62 276.353 2628.11 276.359C2634.39 276.367 2636.71 275.889 2641.32 273.633C2644.39 272.129 2648.13 269.458 2649.61 267.699C2651.1 265.94 2653.57 261.8 2655.1 258.5C2656.63 255.2 2658.58 249.031 2659.44 244.792C2660.43 239.921 2661 231.765 2661 222.63C2661 214.065 2660.4 205.046 2659.53 200.494C2658.72 196.268 2656.9 190.285 2655.49 187.198C2654.08 184.11 2651.87 180.204 2650.58 178.517C2649.29 176.829 2645.82 174.132 2642.87 172.523C2638.33 170.05 2636.18 169.552 2629 169.309C2624.02 169.14 2618.52 169.577 2615.71 170.365ZM1531.45 171.326C1529.78 171.972 1526.85 173.491 1524.95 174.703C1523.05 175.914 1520.32 178.403 1518.88 180.234C1517.44 182.065 1515.28 185.497 1514.07 187.862C1512.86 190.227 1510.95 195.613 1509.81 199.831C1508.11 206.125 1507.74 210.458 1507.74 224C1507.74 237.694 1508.1 241.846 1509.87 248.414C1511.04 252.766 1513.12 258.239 1514.49 260.576C1515.86 262.913 1518.07 266.122 1519.41 267.708C1520.74 269.294 1524.23 271.921 1527.17 273.546C1532.22 276.345 1533.1 276.498 1544 276.47C1553.95 276.444 1556.13 276.129 1560.2 274.131C1562.79 272.862 1566.67 269.913 1568.82 267.58C1570.97 265.247 1573.74 260.674 1574.98 257.419C1576.21 254.163 1577.89 247.225 1578.71 242C1579.77 235.231 1580.03 228.763 1579.59 219.5C1579.26 212.35 1578.32 203.35 1577.51 199.5C1576.7 195.65 1574.57 189.595 1572.77 186.044C1570.62 181.806 1568.03 178.466 1565.21 176.32C1562.84 174.522 1558.6 172.365 1555.77 171.526C1552.88 170.665 1547.12 170.033 1542.57 170.076C1538.13 170.118 1533.13 170.68 1531.45 171.326ZM1345.5 231.073C1337.12 231.57 1330.17 232.575 1325.96 233.898C1321.95 235.156 1317.73 237.393 1315.07 239.67C1312.67 241.724 1309.67 245.652 1308.37 248.444C1306.71 252.025 1306.02 255.304 1306.01 259.685C1306 263.087 1306.48 267.137 1307.07 268.685C1307.65 270.233 1309.12 272.555 1310.32 273.845C1311.52 275.135 1313.81 276.871 1315.41 277.703C1317.01 278.535 1320.83 279.562 1323.91 279.986C1326.98 280.409 1332.38 280.353 1335.89 279.862C1339.41 279.37 1344.32 278.067 1346.81 276.965C1349.3 275.863 1353.35 273.315 1355.81 271.302C1358.84 268.82 1361.26 265.53 1363.35 261.072C1366.14 255.102 1366.46 253.378 1366.83 242.25L1367.24 230L1362.87 230.15C1360.47 230.233 1352.65 230.648 1345.5 231.073ZM2210.5 231.054C2203.9 231.467 2196.33 232.308 2193.68 232.923C2191.02 233.539 2186.68 235.142 2184.03 236.487C2181.37 237.831 2177.79 240.634 2176.07 242.716C2174.35 244.797 2172.28 248.719 2171.47 251.432C2170.66 254.144 2170 257.969 2170.01 259.932C2170.01 261.894 2170.51 265.295 2171.12 267.488C2171.73 269.682 2173.69 272.854 2175.47 274.538C2177.26 276.221 2180.68 278.185 2183.07 278.903C2185.46 279.62 2190.85 280.184 2195.03 280.157C2200.19 280.123 2204.43 279.436 2208.21 278.021C2211.28 276.874 2215.64 274.598 2217.89 272.964C2220.15 271.33 2223.35 268.121 2225.01 265.833C2226.66 263.545 2228.69 259.415 2229.51 256.655C2230.43 253.56 2231 247.492 2231 240.818V230L2226.75 230.152C2224.41 230.235 2217.1 230.641 2210.5 231.054Z" fill="#7A7A7A"/>
<path fill-rule="evenodd" clip-rule="evenodd" d="M369.5 34.3563C367.85 35.1203 365.503 36.8283 364.284 38.1513C363.065 39.4743 361.377 42.5133 360.534 44.9043C359.438 48.0103 359 53.2133 359 63.1263V77.0003L336.75 77.0613L314.5 77.1213L233.627 164.061L152.753 251H119.402H86.051L84.583 253.84C83.775 255.402 82.598 259.647 81.966 263.273C81.307 267.057 80.969 276.392 81.173 285.183C81.478 298.323 81.839 301.175 83.708 305.25L85.888 310H130.388H174.888L177.325 307.75C178.665 306.512 213.228 269.525 254.131 225.556C295.034 181.587 330.454 143.449 332.843 140.806L337.185 136H347.593H358L358.129 145.25C358.2 150.338 358.344 155.625 358.45 157C358.555 158.375 358.966 161.579 359.362 164.12C359.759 166.661 361.364 170.759 362.928 173.226C364.806 176.187 367.279 178.441 370.202 179.856C372.638 181.035 375.952 181.996 377.566 181.991C379.18 181.985 382.786 180.67 385.579 179.068C388.46 177.416 400.145 166.912 412.579 154.797C424.636 143.05 437.847 129.998 441.937 125.791C446.028 121.585 450.171 116.649 451.145 114.822C452.119 112.995 452.933 109.925 452.954 108C452.975 106.075 452.127 103.081 451.07 101.347C450.012 99.6123 446.086 94.9493 442.345 90.9833C438.604 87.0173 425.877 74.0913 414.063 62.2583C402.249 50.4253 390.198 39.1603 387.283 37.2243C383.556 34.7503 380.574 33.5953 377.241 33.3363C374.521 33.1253 371.221 33.5593 369.5 34.3563ZM85.186 79.3023C83.995 80.5703 82.569 84.0013 82.012 86.9393C81.455 89.8723 81 99.1053 81 107.455C81 118.453 81.442 124.134 82.602 128.068C83.483 131.056 84.663 134.063 85.224 134.75C86.003 135.704 93.991 136 118.923 136H151.602L171.786 156.25L191.97 176.5L211.485 157.01C223.857 144.653 231 136.786 231 135.516C231 134.226 220.944 123.452 202.757 105.256L174.513 77.0003H130.931H87.349L85.186 79.3023ZM366.492 209.665C363.89 212.23 361.139 215.816 360.38 217.633C359.414 219.944 359 225.448 359 235.968V251H348.808H338.615L319.387 231.5C308.811 220.775 299.554 212 298.815 212C298.077 212 291.625 217.963 284.478 225.25C277.331 232.537 268.614 241.499 265.106 245.164L258.728 251.828L283.275 277.664C296.775 291.874 308.794 304.738 309.983 306.25L312.145 309H335.504H358.862L359.181 324.75C359.465 338.784 359.75 341.008 361.799 345.167C363.064 347.734 365.314 350.643 366.799 351.632C368.637 352.855 371.444 353.441 375.583 353.465C380.946 353.496 382.319 353.066 387.19 349.834C390.229 347.818 405.198 333.643 420.455 318.334C435.712 303.025 449.051 288.83 450.098 286.79C451.144 284.749 451.998 281.599 451.996 279.79C451.994 277.98 451.067 274.982 449.936 273.126C448.805 271.271 442.336 264.071 435.561 257.126C428.786 250.182 415.65 237.037 406.371 227.915C397.092 218.794 387.394 209.906 384.82 208.165C381.3 205.785 379.034 205 375.682 205C371.718 205 370.699 205.517 366.492 209.665ZM2030 288V314H2056H2082V288V262H2056H2030V288Z" fill="#7A7A7A"/>
</svg>
