<svg width="150"
     height="18"
     viewBox="0 0 150 18"
     fill="none"
     xmlns="http://www.w3.org/2000/svg"
>
    <g clip-path="url(#clip0)">
        <path
            d="M1.97466 5.50531V8.19813H9.97333C10.5119 8.19813 10.9707 8.63696 10.9707 9.19547C10.9707 9.73404 10.5318 10.1928 9.97333 10.1928H1.97466V14.0226C1.97466 14.5612 1.53583 15.0199 0.977321 15.0199C0.438757 15.0199 -0.0200195 14.5811 -0.0200195 14.0226V4.72739C-0.0200195 4.06914 0.518544 3.55053 1.15684 3.55053H9.97333C10.5119 3.55053 10.9707 3.98936 10.9707 4.54787C10.9707 5.08643 10.5318 5.54521 9.97333 5.54521H1.97466V5.50531ZM13.9228 3.53058C14.4614 3.53058 14.9201 3.96941 14.9201 4.52792V14.0226C14.9201 14.5612 14.4813 15.0199 13.9228 15.0199C13.3842 15.0199 12.9255 14.5811 12.9255 14.0226V4.52792C12.9454 3.98936 13.3842 3.53058 13.9228 3.53058ZM46.0172 15C45.4787 15 45.0199 14.5612 45.0199 14.0027V4.50797C45.0199 4.24866 45.1196 3.98936 45.3191 3.80983C45.4986 3.63031 45.7579 3.53058 46.0172 3.53058H50.4853C53.5771 3.53058 55.9906 6.04388 55.9906 9.25532C55.9906 12.367 53.3377 14.9801 50.1861 14.9801H46.0172V15ZM50.1861 13.0253C52.2207 13.0253 54.0159 11.2699 54.0159 9.27526C54.0159 7.1609 52.46 5.52526 50.4853 5.52526H46.9946V13.0452H50.1861V13.0253Z"
            fill="white"/>
        <path
            d="M90.8575 5.5053V8.19812H98.8561C99.3947 8.19812 99.8535 8.63695 99.8535 9.19546C99.8535 9.73402 99.4147 10.1928 98.8561 10.1928H90.8575V14.0226C90.8575 14.5612 90.4186 15.0199 89.8601 15.0199C89.3216 15.0199 88.8628 14.5811 88.8628 14.0226V4.72738C88.8628 4.06913 89.4014 3.55051 90.0397 3.55051H98.8362C99.3748 3.55051 99.8335 3.98934 99.8335 4.54785C99.8335 5.08642 99.3947 5.54519 98.8362 5.54519H90.8575V5.5053ZM101.828 13.1848V4.52791C101.828 3.98934 102.267 3.53057 102.826 3.53057C103.364 3.53057 103.823 3.9694 103.823 4.52791V13.0252H109.308C109.847 13.0252 110.306 13.4641 110.306 14.0226C110.306 14.5612 109.867 15.0199 109.308 15.0199H103.643C102.646 15 101.828 14.1822 101.828 13.1848ZM119.082 3.53057H116.409C114.115 3.53057 112.26 5.38562 112.26 7.6795V10.851C112.26 13.1449 114.115 15 116.409 15H119.082C121.376 15 123.231 13.1449 123.231 10.851V7.69945C123.231 5.40557 121.376 3.53057 119.082 3.53057V3.53057ZM121.256 10.851C121.256 12.0479 120.279 13.0252 119.082 13.0252H116.409C115.213 13.0252 114.235 12.0479 114.235 10.851V7.69945C114.235 6.50264 115.213 5.52525 116.409 5.52525H119.082C120.279 5.52525 121.256 6.50264 121.256 7.69945V10.851ZM148.903 5.5053H145.332V14.0026C145.332 14.5412 144.893 15 144.335 15C143.796 15 143.337 14.5612 143.337 14.0026V5.5053H139.747C139.209 5.5053 138.75 5.06647 138.75 4.50796C138.75 3.9694 139.189 3.51062 139.747 3.51062H148.883C149.421 3.51062 149.88 3.94945 149.88 4.50796C149.9 5.06647 149.441 5.5053 148.903 5.5053Z"
            fill="#F9943C"/>
        <path
            d="M36.7024 5.5053H42.0681C42.6066 5.5053 43.0654 5.06647 43.0654 4.50796C43.0654 3.9694 42.6266 3.51062 42.0681 3.51062H36.7024C36.1638 3.51062 35.705 3.94945 35.705 4.50796C35.705 5.06647 36.1439 5.5053 36.7024 5.5053ZM42.0681 13.0252H34.0694V10.1928H42.0681C42.6066 10.1928 43.0654 9.75397 43.0654 9.19546C43.0654 8.6569 42.6266 8.19812 42.0681 8.19812H33.072C33.0122 8.19812 32.9324 8.19812 32.8726 8.21807C32.7529 8.23801 32.6332 8.29785 32.5135 8.3577C32.2542 8.53722 32.0747 8.83642 32.0747 9.17551V13.9827C32.0747 14.1822 32.1345 14.3816 32.2343 14.5412C32.3141 14.6409 32.3939 14.7407 32.4936 14.8005C32.6532 14.9002 32.8327 14.9601 33.0521 14.9601H42.0481C42.5867 14.9601 43.0455 14.5213 43.0455 13.9627C43.0455 13.4641 42.6066 13.0252 42.0681 13.0252V13.0252Z"
            fill="white"/>
        <path
            d="M23.1183 10.1729C23.617 9.6742 23.617 8.87632 23.1183 8.37765L18.5904 3.82978C18.3111 3.55053 17.8523 3.43085 17.3936 3.67021C17.234 3.75 17.0944 3.88962 17.0146 4.0492C16.7952 4.50797 16.8949 4.96675 17.1742 5.24601L21.2234 9.29521L17.1941 13.3245C16.9148 13.6037 16.7952 14.0625 17.0345 14.5213C17.1143 14.6808 17.2539 14.8205 17.4135 14.9003C17.8723 15.1197 18.3311 15.0199 18.6103 14.7407L23.1183 10.1729Z"
            fill="white"/>
        <path
            d="M23.876 10.1729C23.3773 9.6742 23.3773 8.87633 23.876 8.37766L28.4238 3.82978C28.7031 3.55053 29.1619 3.43085 29.6207 3.67021C29.7802 3.75 29.9199 3.88962 29.9996 4.0492C30.2191 4.50797 30.1193 4.96675 29.8401 5.24601L25.7909 9.29521L29.8401 13.3444C30.1193 13.6237 30.239 14.0824 29.9996 14.5412C29.9199 14.7008 29.7802 14.8404 29.6207 14.9202C29.1619 15.1396 28.7031 15.0399 28.4238 14.7606L23.876 10.1729Z"
            fill="white"/>
        <path
            d="M137.813 15C137.473 15 137.154 14.8404 136.975 14.5213L132.008 6.40292L127.959 13.0053H132.008C132.547 13.0053 133.005 13.4441 133.005 14.0027C133.005 14.5612 132.567 15 132.008 15H126.203C125.844 15 125.525 14.8005 125.346 14.5013C125.166 14.1822 125.186 13.8032 125.366 13.504L131.17 4.0093C131.35 3.7101 131.669 3.53058 132.008 3.53058C132.347 3.53058 132.666 3.7101 132.846 4.0093L138.65 13.504C138.93 13.9628 138.79 14.5811 138.331 14.8604C138.172 14.9601 137.992 15 137.813 15V15Z"
            fill="#F9943C"/>
        <path
            d="M74.9402 7.93884L72.8458 5.84442L70.7513 3.75001C70.5519 3.55054 70.2926 3.45081 70.0333 3.45081C69.7739 3.45081 69.5146 3.55054 69.3152 3.75001L66.6224 6.44283L63.9295 9.13565L63.0918 8.29788L62.254 7.46012C62.1144 7.32049 61.9149 7.30054 61.7553 7.36038C61.5958 7.42022 61.4761 7.5798 61.4761 7.77926V17.1144C61.4761 17.254 61.5359 17.3737 61.6157 17.4535C61.6955 17.5333 61.8152 17.5931 61.9548 17.5931H71.2899C71.4894 17.5931 71.6489 17.4734 71.7088 17.3138C71.7686 17.1543 71.7487 16.9548 71.6091 16.8152L70.5918 15.7979L69.5745 14.7806L72.2673 12.0878L74.9601 9.39496C75.1596 9.19549 75.2593 8.93618 75.2593 8.67687C75.2593 8.41756 75.1396 8.13831 74.9402 7.93884V7.93884Z"
            fill="white"/>
        <path
            d="M73.9627 16.0771C73.7034 16.0771 73.464 15.9774 73.2646 15.7779C72.8856 15.3989 72.8856 14.7606 73.2646 14.3816L79.2885 8.35771C79.6675 7.97872 80.3058 7.97872 80.6848 8.35771L81.343 9.01596V1.97473H74.2819L74.96 2.65293C75.339 3.03192 75.339 3.67021 74.96 4.0492C74.5811 4.42819 73.9428 4.42819 73.5638 4.0492L71.2101 1.69548C70.9308 1.41622 70.851 0.99734 70.9906 0.618351C71.1502 0.239362 71.5093 0 71.9082 0H82.3404C82.8789 0 83.3377 0.43883 83.3377 0.99734V11.4295C83.3377 11.8285 83.0983 12.1875 82.7193 12.3471C82.3404 12.5066 81.9215 12.4069 81.6422 12.1277L79.9866 10.4721L74.6608 15.7979C74.4614 15.9774 74.2021 16.0771 73.9627 16.0771V16.0771Z"
            fill="#F9943C"/>
    </g>
    <defs>
        <clipPath id="clip0">
            <rect width="150"
                  height="17.5532"
                  fill="white"
            />
        </clipPath>
    </defs>
</svg>
