<svg width="889" height="146" viewBox="0 0 889 146" fill="none" xmlns="http://www.w3.org/2000/svg">
<mask id="mask0_29087_954" style="mask-type:luminance" maskUnits="userSpaceOnUse" x="0" y="9" width="889" height="121">
<path d="M888.545 9.40576H0V129.48H888.545V9.40576Z" fill="white"/>
</mask>
<g mask="url(#mask0_29087_954)">
<path d="M414.935 12.6743H456.334L498.96 67.4797L451.765 126.852H411.889L460.605 67.4797L414.935 12.6743Z" fill="#7A7A7A"/>
<path d="M581.463 12.6743H540.064L497.438 67.4797L544.63 126.852H584.505L535.789 67.4797L581.463 12.6743Z" fill="#7A7A7A"/>
<path d="M881.674 59.1227V80.4309H799.027V59.1227H881.674ZM818.509 69.7768L810.899 116.959L798.877 103.261H886.546V126.853H782.133L790.961 69.7768L782.133 12.7012H885.783V36.2925H798.877L810.899 22.5943L818.509 69.7768Z" fill="#7A7A7A"/>
<path d="M763.458 12.7012V126.853H736.063V22.7465L742.758 23.2031L696.337 126.853H666.961L620.541 23.5075L627.238 22.8987V126.853H599.843V12.7012H644.132L687.509 112.546H675.943L719.169 12.7012H763.458Z" fill="#7A7A7A"/>
<path d="M393.385 59.1227V80.4309H310.741V59.1227H393.385ZM330.223 69.7768L322.611 116.959L310.588 103.261H398.257V126.853H293.846L302.673 69.7768L293.846 12.7012H397.495V36.2925H310.588L322.611 22.5943L330.223 69.7768Z" fill="#7A7A7A"/>
<path d="M214.226 129.287C200.832 129.287 189.061 126.801 178.915 121.83C168.87 116.858 161.056 109.907 155.476 100.978C149.895 92.0487 147.105 81.6483 147.105 69.7766C147.105 57.9049 149.895 47.5044 155.476 38.5752C161.056 29.646 168.87 22.6954 178.915 17.7235C189.061 12.7516 200.832 10.2656 214.226 10.2656C227.619 10.2656 239.339 12.7516 249.384 17.7235C259.531 22.6954 267.395 29.646 272.975 38.5752C278.658 47.5044 281.499 57.9049 281.499 69.7766C281.499 81.6483 278.658 92.0487 272.975 100.978C267.395 109.907 259.531 116.858 249.384 121.83C239.339 126.801 227.619 129.287 214.226 129.287ZM214.226 103.565C222.14 103.565 228.938 102.246 234.621 99.608C240.303 96.8685 244.666 92.9619 247.71 87.8885C250.856 82.8151 252.428 76.7778 252.428 69.7766C252.428 62.7754 250.856 56.7378 247.71 51.6644C244.666 46.5913 240.303 42.7354 234.621 40.0971C228.938 37.3575 222.14 35.9877 214.226 35.9877C206.413 35.9877 199.665 37.3575 193.983 40.0971C188.3 42.7354 183.887 46.5913 180.741 51.6644C177.596 56.7378 176.023 62.7754 176.023 69.7766C176.023 76.7778 177.596 82.8151 180.741 87.8885C183.887 92.9619 188.3 96.8685 193.983 99.608C199.665 102.246 206.413 103.565 214.226 103.565Z" fill="#7A7A7A"/>
<path d="M122.454 77.3865C122.251 84.2866 120.881 90.8819 118.344 97.1729C115.808 103.362 112.155 108.892 107.386 113.763C102.617 118.532 96.7312 122.337 89.73 125.178C82.7285 127.918 74.5605 129.287 65.2254 129.287C56.2961 129.287 47.9251 127.968 40.112 125.33C32.4005 122.692 25.6022 118.836 19.7171 113.763C13.8319 108.689 9.26586 102.449 6.01889 95.0422C2.77192 87.6348 1.14844 79.2132 1.14844 69.7766C1.14844 60.34 2.77192 51.9183 6.01889 44.511C9.36732 37.1039 13.9841 30.8636 19.8693 25.7902C25.8559 20.7168 32.8064 16.861 40.721 14.2229C48.7368 11.5847 57.4632 10.2656 66.8995 10.2656C79.1773 10.2656 89.8314 12.1935 98.8619 16.0493C107.995 19.9051 115.3 25.1814 120.779 31.8783C126.36 38.5752 129.912 46.2866 131.434 55.0129H102.363C101.349 50.7512 99.217 47.0986 95.9702 44.0544C92.7231 41.0102 88.6136 38.6766 83.6419 37.0531C78.7715 35.3282 73.1907 34.4657 66.8995 34.4657C59.2895 34.4657 52.7449 35.8355 47.2656 38.5752C41.7864 41.2135 37.5247 45.1705 34.4805 50.4468C31.4366 55.6217 29.9146 62.0649 29.9146 69.7766C29.9146 77.488 31.5381 84.0329 34.7849 89.4107C38.032 94.7885 42.5981 98.847 48.4832 101.587C54.3683 104.326 61.3188 105.696 69.3349 105.696C77.1478 105.696 83.9971 104.529 89.8822 102.196C95.8687 99.8616 100.588 96.5134 104.037 92.1502C107.589 87.787 109.618 82.5614 110.125 76.4734L122.454 77.3865ZM72.6834 88.9538V68.559H132.499V126.852H111.952L107.995 81.1917L113.778 88.9538H72.6834Z" fill="#7A7A7A"/>
</g>
</svg>
