<svg width="144" height="34" viewBox="0 0 144 34" fill="none" xmlns="http://www.w3.org/2000/svg">
<g clip-path="url(#clip0_28678_944)">
<path d="M15.9949 0.0363544L9.41046 6.62079C9.36391 6.66734 9.36391 6.74281 9.41046 6.78937L15.9949 13.3738C16.0414 13.4204 16.1169 13.4204 16.1635 13.3738L22.7479 6.78937C22.7945 6.74281 22.7945 6.66734 22.7479 6.62079L16.1635 0.0363546C16.1169 -0.0101959 16.0414 -0.010196 15.9949 0.0363544Z" fill="#2690FF"/>
<path d="M15.9802 18.8196L9.4154 25.3844C9.36343 25.4364 9.36343 25.5207 9.41541 25.5726L15.9802 32.1374C16.0322 32.1894 16.1164 32.1894 16.1684 32.1374L22.7332 25.5726C22.7852 25.5207 22.7852 25.4364 22.7332 25.3844L16.1684 18.8196C16.1164 18.7676 16.0322 18.7676 15.9802 18.8196Z" fill="#2690FF"/>
<path d="M6.75488 9.43331C6.73028 9.38421 6.65678 9.38421 6.60778 9.43331L0.0369768 16.0286C0.0273083 16.0358 0.0191511 16.0448 0.0129723 16.0551C0.00679337 16.0655 0.00271407 16.0769 0.000967839 16.0889C-0.000778389 16.1008 -0.000157256 16.1129 0.00279568 16.1246C0.00574863 16.1363 0.0109754 16.1473 0.0181768 16.1569C0.0234576 16.1641 0.0297962 16.1704 0.0369768 16.1757L6.60778 22.7465C6.63044 22.7585 6.65569 22.7647 6.68133 22.7647C6.70696 22.7647 6.73221 22.7585 6.75488 22.7465L13.3257 16.1757C13.3484 16.1542 13.3617 16.1246 13.3626 16.0934C13.3635 16.0621 13.352 16.0318 13.3306 16.009L13.3257 16.0041L6.75488 9.43331ZM11.021 16.1757L6.75488 20.4173C6.73028 20.4663 6.65678 20.4663 6.60778 20.4173L2.34158 16.1757C2.32951 16.1531 2.3232 16.1278 2.3232 16.1022C2.3232 16.0765 2.32951 16.0512 2.34158 16.0286L6.60778 11.738C6.63044 11.726 6.65569 11.7198 6.68133 11.7198C6.70696 11.7198 6.73221 11.726 6.75488 11.738L11.021 16.0041C11.0437 16.0254 11.057 16.0549 11.058 16.086C11.059 16.1171 11.0477 16.1474 11.0264 16.1701L11.021 16.1757Z" fill="#91CDFF"/>
<path d="M25.535 9.43266C25.5124 9.42046 25.4871 9.41406 25.4614 9.41406C25.4357 9.41406 25.4105 9.42046 25.3879 9.43266L18.8171 16.028C18.8056 16.0365 18.7964 16.0476 18.79 16.0604C18.7836 16.0732 18.7803 16.0872 18.7803 16.1015C18.7803 16.1158 18.7836 16.1299 18.79 16.1426C18.7964 16.1554 18.8056 16.1665 18.8171 16.1751L25.3879 22.7214C25.437 22.7704 25.5105 22.7704 25.535 22.7214L32.1058 16.1751C32.1285 16.1538 32.1419 16.1244 32.143 16.0932C32.144 16.0621 32.1327 16.0318 32.1115 16.0091L32.1058 16.0035L25.535 9.43266ZM29.8011 16.1751L25.535 20.4167C25.5105 20.4657 25.437 20.4657 25.3879 20.4167L21.1218 16.1751C21.1094 16.1525 21.1029 16.1272 21.1029 16.1015C21.1029 16.0758 21.1094 16.0505 21.1218 16.028L25.3879 11.7619C25.437 11.7128 25.5105 11.7128 25.535 11.7619L29.8011 16.0035C29.8238 16.0249 29.8371 16.0545 29.8381 16.0858C29.839 16.117 29.8275 16.1474 29.8061 16.1702L29.8011 16.1751Z" fill="#91CDFF"/>
<path opacity="0.94" d="M104.579 10.3633L104.498 10.6698C103.749 13.962 102.984 16.8349 102.187 19.4489C101.382 22.1952 100.426 24.8945 99.3211 27.5343C98.9721 28.4061 98.5529 29.2481 98.0676 30.052C97.6708 30.6949 97.1826 31.2766 96.6184 31.7789C96.069 32.2326 95.4318 32.5677 94.7467 32.7632C93.9418 32.9897 93.1085 33.0984 92.2725 33.086C91.7722 33.0906 91.2738 33.0255 90.7916 32.8925L90.2532 32.7309H89.96L90.3672 30.9076L90.6605 31.0202C90.7582 31.0525 90.8877 31.101 91.0833 31.1493C92.0395 31.3914 93.0409 31.3914 93.9972 31.1493C94.4848 31.0193 94.9397 30.7885 95.3325 30.4717C95.7455 30.1251 96.1024 29.7168 96.3907 29.2612C96.7284 28.6896 97.0168 28.0902 97.2529 27.4697L97.2855 27.4054L97.2371 27.3086C96.5043 25.9205 95.8366 24.5646 95.2349 23.2739C94.5682 21.8539 93.9488 20.4016 93.3949 18.9809C92.8911 17.7382 92.3863 16.3181 91.8163 14.6237C91.3768 13.2844 91.0025 11.9931 90.6607 10.6858L90.5787 10.3633H92.7932L92.8416 10.5567C93.1024 11.6218 93.3801 12.6548 93.7049 13.7035C93.9975 14.6074 94.4539 15.9793 94.9577 17.3835C95.4792 18.8035 95.9997 20.127 96.4886 21.2894C96.9273 22.3544 97.4814 23.5163 98.0998 24.8225L98.3439 25.2745L98.5067 24.7903C98.9305 23.5638 99.3049 22.4665 99.63 21.4658C100.053 20.0296 100.379 18.9323 100.656 17.9158L101.031 16.4958C101.21 15.8019 101.39 15.0596 101.584 14.3174L101.714 13.7201C101.991 12.558 102.218 11.5577 102.43 10.573L102.463 10.3636L104.579 10.3633Z" fill="#F6F7F8"/>
<g opacity="0.94">
<path d="M143.328 26.4475L143.102 26.5421C142.618 26.7553 142.116 26.9237 141.602 27.0454C140.716 27.3027 139.798 27.4299 138.876 27.4228C137.893 27.4521 136.912 27.3192 135.972 27.0295C135.26 26.8082 134.619 26.4011 134.117 25.8501C133.62 25.2696 133.281 24.5708 133.133 23.8212C132.915 22.8723 132.812 21.9008 132.825 20.9273V5.6718L135.019 5.3418V21.1148C134.997 21.9009 135.094 22.6858 135.309 23.4423C135.457 23.9828 135.734 24.4793 136.116 24.8891C136.482 25.2048 136.919 25.4262 137.39 25.5342C137.928 25.6314 138.474 25.6839 139.02 25.6912C139.844 25.7171 140.666 25.611 141.456 25.3768C141.876 25.235 142.2 25.1094 142.424 25.015L142.763 24.8733L142.891 25.1553L143.328 26.4475Z" fill="#F6F7F8"/>
</g>
<path opacity="0.94" d="M141.959 10.7598H136.606V12.5123H141.959V10.7598Z" fill="#F6F7F8"/>
<path d="M44.3212 24.961V16.73H55.7822V14.715H44.3212V7.074H56.8562V5H41.9932V27.035H57.2332V24.961H44.3212Z" fill="#F6F7F8"/>
<path d="M122.235 17.4934C121.43 16.503 120.306 15.8232 119.055 15.5705C120.016 15.2196 120.854 14.5959 121.465 13.7757C122.081 12.9463 122.405 11.9368 122.388 10.9041C122.395 9.92278 122.138 8.95774 121.645 8.10936C121.151 7.28272 120.43 6.61527 119.568 6.18636C118.942 5.83014 118.255 5.59526 117.542 5.49406C116.498 5.34325 115.444 5.27467 114.389 5.28896H106.723V27.1339H113.133C115.184 27.1339 116.723 27.0826 117.671 27.0057C118.396 26.9861 119.113 26.8564 119.799 26.6211C120.885 26.2418 121.82 25.5225 122.465 24.5699C123.135 23.5802 123.475 22.4052 123.44 21.2112C123.478 19.8702 123.052 18.5571 122.235 17.4934ZM108.928 7.16066H114.004C115.652 7.01734 117.307 7.31836 118.799 8.03236C119.259 8.37719 119.622 8.83387 119.856 9.35896C120.089 9.88406 120.184 10.4601 120.132 11.0324C120.187 11.6138 120.088 12.1994 119.845 12.7305C119.602 13.2615 119.224 13.7193 118.748 14.0578C117.213 14.7798 115.516 15.0892 113.825 14.9552H108.928V7.16066ZM119.85 24.3135C118.389 25.0682 116.746 25.3969 115.107 25.2622H108.928V16.6986H115.261C116.821 16.5962 118.374 16.9911 119.696 17.8267C120.192 18.2173 120.587 18.7221 120.846 19.298C121.105 19.8739 121.221 20.5038 121.184 21.1342C121.24 21.733 121.148 22.3366 120.915 22.8913C120.683 23.446 120.317 23.9341 119.85 24.3135Z" fill="#F6F7F8"/>
<path opacity="0.94" d="M74.6732 25.6208H74.2632C73.9095 25.6639 73.5525 25.5724 73.2632 25.3644C73.0832 25.2106 73.0068 24.7744 73.0068 24.0824V14.8266C73.048 14.1062 72.9212 13.3862 72.6364 12.7232C72.3517 12.0603 71.9167 11.4726 71.3659 11.0066C69.9505 10.0443 68.2535 9.58393 66.5459 9.69896C64.7333 9.59838 62.9411 10.1233 61.4692 11.186C60.8565 11.656 60.3616 12.2621 60.0234 12.9563C59.6852 13.6505 59.5131 14.4138 59.5206 15.186H61.5461C61.5382 14.6463 61.657 14.1123 61.893 13.6269C62.129 13.1415 62.4756 12.7183 62.905 12.3913C63.9818 11.6845 65.261 11.3511 66.5458 11.4426C67.7286 11.3397 68.9117 11.6377 69.9046 12.2887C70.2721 12.6546 70.5545 13.097 70.7317 13.5843C70.909 14.0717 70.9767 14.5921 70.9302 15.1087C70.9302 16.1856 70.0841 16.8778 68.3919 17.2111C68.2022 17.2354 68.0139 17.2697 67.8278 17.3137C67.5714 17.3393 67.2125 17.365 66.7253 17.3906C64.9364 17.4488 63.1656 17.7684 61.4692 18.3393C60.6246 18.7092 59.8974 19.3032 59.3664 20.057C58.7745 21.0153 58.5375 22.1509 58.6968 23.266C58.8561 24.381 59.4015 25.4049 60.2381 26.1592C61.4475 27.1064 62.9606 27.5804 64.4943 27.4925C65.7028 27.5047 66.9001 27.26 68.0069 26.7746C69.143 26.2553 70.1698 25.5244 71.0324 24.6209V24.8773C71.0106 25.1984 71.0539 25.5206 71.1596 25.8246C71.2654 26.1285 71.4314 26.4081 71.6477 26.6464C72.1847 27.0722 72.8612 27.2826 73.545 27.2364C73.7501 27.2364 73.9809 27.2108 74.2373 27.1851C74.4937 27.1594 74.7501 27.1082 75.0065 27.0569V25.5952C74.8966 25.6152 74.7849 25.6238 74.6732 25.6208ZM70.8785 20.5442C70.9138 21.2625 70.7816 21.9793 70.4923 22.6378C70.2031 23.2964 69.7648 23.8787 69.212 24.3388C67.9379 25.3183 66.3552 25.8095 64.7504 25.7234C63.7084 25.7807 62.6777 25.4824 61.8275 24.8773C61.4811 24.6028 61.2034 24.2514 61.0165 23.8508C60.8296 23.4503 60.7387 23.0118 60.7509 22.57C60.7471 22.1518 60.8346 21.7378 61.0073 21.357C61.18 20.9762 61.4338 20.6376 61.7509 20.365C62.6115 19.6784 63.6215 19.2039 64.6994 18.98C66.5967 18.8774 67.9556 18.7748 68.8017 18.6466C69.5099 18.5759 70.207 18.421 70.8785 18.1851V20.5442Z" fill="#F6F7F8"/>
<path opacity="0.94" d="M88.4664 19.6729C87.2274 18.7488 85.7859 18.1335 84.2615 17.8782C84.0564 17.8525 83.7487 17.7756 83.3128 17.6731C80.1079 16.9551 78.4928 15.8531 78.4928 14.3399C78.4902 13.9259 78.5894 13.5177 78.7816 13.1511C78.9739 12.7845 79.2533 12.4708 79.5953 12.2375C80.4395 11.6651 81.4484 11.3859 82.4669 11.4427C83.6449 11.3766 84.8106 11.7109 85.7745 12.3913C86.1747 12.72 86.5005 13.13 86.7303 13.5942C86.9601 14.0583 87.0888 14.5659 87.1077 15.0835H89.1845C89.1607 14.3243 88.9744 13.5791 88.6383 12.898C88.3022 12.2168 87.824 11.6157 87.2359 11.135C85.8796 10.1194 84.2102 9.61137 82.5182 9.6992C80.9354 9.62944 79.3772 10.1096 78.1082 11.0581C77.5672 11.4786 77.1323 12.02 76.8384 12.6389C76.5445 13.2578 76.3998 13.937 76.4158 14.622C76.3923 15.1772 76.4983 15.7303 76.7252 16.2375C76.9521 16.7448 77.2938 17.1923 77.7234 17.5449C79.2693 18.52 80.9957 19.1739 82.7998 19.4678C82.8269 19.471 82.8531 19.4798 82.8767 19.4935C86.0047 20.2114 87.5687 21.2626 87.5687 22.6215C87.5769 23.0785 87.4653 23.5296 87.2448 23.93C87.0244 24.3304 86.7029 24.666 86.3124 24.9034C85.2499 25.4983 84.0416 25.7825 82.8254 25.7234C81.6136 25.773 80.4235 25.3915 79.4666 24.6465C79.0455 24.2988 78.7041 23.8649 78.4652 23.3739C78.2263 22.8829 78.0957 22.3463 78.0821 21.8005H76.0569C76.0497 22.5921 76.2185 23.3754 76.551 24.0939C76.8836 24.8123 77.3716 25.4478 77.9798 25.9546C79.388 27.0532 81.1445 27.6083 82.9283 27.5186C84.653 27.6074 86.3606 27.14 87.7998 26.1854C88.3731 25.7974 88.8417 25.2737 89.1637 24.6609C89.4858 24.048 89.6514 23.3651 89.6458 22.6728C89.6793 22.1171 89.5911 21.5607 89.3874 21.0426C89.1837 20.5245 88.8694 20.057 88.4664 19.6729Z" fill="#F6F7F8"/>
<path d="M129.066 11.0664H126.999V27.1462H129.066V11.0664Z" fill="#F6F7F8"/>
<path d="M126.993 11.0586V27.1346H129.07V11.0586H126.993Z" fill="#F6F7F8"/>
<path d="M128.032 8.4196C128.875 8.4196 129.558 7.73061 129.558 6.8807C129.558 6.03079 128.875 5.3418 128.032 5.3418C127.188 5.3418 126.505 6.03079 126.505 6.8807C126.505 7.73061 127.188 8.4196 128.032 8.4196Z" fill="#F6F7F8"/>
</g>
<defs>
<clipPath id="clip0_28678_944">
<rect width="143.328" height="33.0871" fill="white"/>
</clipPath>
</defs>
</svg>
