<svg xmlns="http://www.w3.org/2000/svg"
     width="113"
     height="24.53"
     viewBox="0 0 113 24.53"
>
    <defs>
        <style>
            .cls-1,.cls-2 {
                fill: #7a7a7a;
            }

            .cls-1 {
                fill-rule: evenodd;
            }
        </style>
    </defs>
    <title>
        Asset 1logoGodex
    </title>
    <g id="Layer_2">
        <g id="Layer_1-2">
            <path class="cls-1"
                  d="M96.78,4.5,93.53,0H85.85l7,9.6ZM101,20.84l4-5.12,6.42,8.81h-7.67ZM83.26,21.92l-2,2.61H66.63V0H83.26V3.28H72.19V9.84h8.69v3.27H72.19v8.14H83.26Zm-73-.67c1.58,0,2.38-.54,2.38-1.64V16.28H8.4V13h9.8v7.14a3.57,3.57,0,0,1-2.09,3.22,8.94,8.94,0,0,1-4.75,1.17H6.84c-3,0-5.06-.84-6.26-2.52A3.12,3.12,0,0,1,0,20.14V4.39A3.55,3.55,0,0,1,2,1.23,9.22,9.22,0,0,1,6.84,0h4.52a9.27,9.27,0,0,1,4.81,1.17,3.58,3.58,0,0,1,2,3.22V7.67H12.64V4.92c0-1.1-.8-1.64-2.38-1.64H7.94c-1.58,0-2.38.54-2.38,1.64V19.61c0,1.1.8,1.64,2.38,1.64Zm22.59,0c1.54,0,2.32-.54,2.32-1.64V4.92c0-1.1-.78-1.64-2.32-1.64H30.3c-1.59,0-2.38.54-2.38,1.64V19.61c0,1.1.79,1.64,2.38,1.64ZM22.36,4.39a3.53,3.53,0,0,1,2-3.16A9.2,9.2,0,0,1,29.2,0H34q4.45,0,6.26,2.52a3.19,3.19,0,0,1,.58,1.87V20.14a3.67,3.67,0,0,1-2,3.22A9.29,9.29,0,0,1,34,24.53H29.2q-4.47,0-6.26-2.52a3.12,3.12,0,0,1-.58-1.87Zm35.3,15.22c0,1.1-.79,1.64-2.38,1.64H50.82v-18h4.46c1.59,0,2.38.54,2.38,1.64ZM61.19,1.17A9.14,9.14,0,0,0,56.44,0H45.25V24.53H56.44a8.82,8.82,0,0,0,4.69-1.17,3.56,3.56,0,0,0,2.09-3.22V4.39A3.57,3.57,0,0,0,61.19,1.17Z"
            />
            <path class="cls-2"
                  d="M113,.12h-6.61a5.59,5.59,0,0,0-4.51,2.31L85,24.53H91.6a5.58,5.58,0,0,0,4.51-2.3Z"
            />
        </g>
    </g>
</svg>
