<svg width="1659" height="400" viewBox="0 0 1659 400" fill="none" xmlns="http://www.w3.org/2000/svg">
<g clip-path="url(#clip0_29689_930)">
<path d="M650.889 212.3H743.899V227.04C743.899 245.61 739.729 262.37 731.399 277.33C723.059 292.29 711.499 303.98 696.729 312.41C681.949 320.84 665.369 325.05 646.979 325.05C632.919 325.05 619.669 322.5 607.239 317.41C594.799 312.32 584.169 305.4 575.339 296.66C566.509 287.92 559.539 277.44 554.449 265.23C549.359 253.02 546.809 239.97 546.809 226.09C546.809 212.21 549.379 199.17 554.519 186.95C559.659 174.74 566.689 164.26 575.609 155.52C584.529 146.78 595.259 139.88 607.779 134.84C620.309 129.79 633.639 127.27 647.789 127.27C664.189 127.27 679.359 130.54 693.279 137.07C707.199 143.61 718.539 152.55 727.279 163.9L694.839 189.59C689.429 182.92 682.719 177.69 674.699 173.91C666.679 170.12 657.979 168.23 648.609 168.23C632.119 168.23 618.349 173.75 607.309 184.79C596.269 195.83 590.749 209.6 590.749 226.09C590.749 242.58 596.249 256.35 607.239 267.39C618.229 278.43 631.929 283.95 648.339 283.95C660.319 283.95 670.819 280.89 679.839 274.76C688.849 268.63 694.889 260.57 697.949 250.56H650.909V212.3H650.889Z" fill="#7A7A7A"/>
<path d="M829.538 325.049C809.438 325.049 793.288 319.569 781.078 308.619C768.868 297.669 762.758 283.179 762.758 265.159V180.529H803.178V259.609C803.178 267.539 805.588 273.919 810.408 278.739C815.228 283.559 821.608 285.969 829.538 285.969C837.468 285.969 843.818 283.559 848.598 278.739C853.378 273.919 855.768 267.539 855.768 259.609V180.529H896.19V265.159C896.19 283.189 890.13 297.669 878.008 308.619C865.878 319.569 849.728 325.049 829.538 325.049Z" fill="#7A7A7A"/>
<path d="M1026.3 180.53H1066.72V321.66H1026.3V307.6C1014.94 319.23 1000.7 325.04 983.58 325.04C964.2 325.04 948 317.97 934.98 303.82C921.96 289.67 915.45 272.1 915.45 251.1C915.45 230.1 921.96 212.53 934.98 198.38C948 184.23 964.2 177.16 983.58 177.16C1000.7 177.16 1014.94 182.97 1026.3 194.6V180.53ZM991.7 285.98C1001.61 285.98 1009.86 282.65 1016.44 275.98C1023.02 269.31 1026.31 261.02 1026.31 251.1C1026.31 241.19 1023.02 232.9 1016.44 226.23C1009.86 219.56 1001.61 216.23 991.7 216.23C981.88 216.23 973.7 219.57 967.16 226.23C960.62 232.9 957.36 241.19 957.36 251.1C957.36 261.02 960.63 269.31 967.16 275.98C973.69 282.64 981.87 285.98 991.7 285.98Z" fill="#7A7A7A"/>
<path d="M1174.54 178.23H1180.62V219.73H1174.54C1162.37 219.73 1152.98 222.97 1146.35 229.46C1139.73 235.95 1136.41 244.74 1136.41 255.82V321.65H1096V180.53H1136.42V196.48C1146.87 184.32 1159.58 178.23 1174.54 178.23Z" fill="#7A7A7A"/>
<path d="M1298.44 122.27H1338.86V321.67H1298.44V307.61C1287.08 319.24 1272.84 325.05 1255.72 325.05C1236.34 325.05 1220.14 317.98 1207.12 303.83C1194.1 289.68 1187.59 272.11 1187.59 251.11C1187.59 230.11 1194.1 212.54 1207.12 198.39C1220.14 184.24 1236.34 177.17 1255.72 177.17C1272.84 177.17 1287.08 182.98 1298.44 194.61V122.27ZM1263.83 285.98C1273.74 285.98 1281.99 282.65 1288.57 275.98C1295.15 269.31 1298.44 261.02 1298.44 251.1C1298.44 241.19 1295.15 232.9 1288.57 226.23C1281.99 219.56 1273.74 216.23 1263.83 216.23C1254.01 216.23 1245.83 219.57 1239.29 226.23C1232.75 232.9 1229.49 241.19 1229.49 251.1C1229.49 261.02 1232.76 269.31 1239.29 275.98C1245.83 282.64 1254.01 285.98 1263.83 285.98Z" fill="#7A7A7A"/>
<path d="M1509.26 251.64C1509.26 256.51 1508.99 260.74 1508.45 264.35H1403.28C1405.8 272.28 1410.26 278.5 1416.66 283.01C1423.06 287.52 1430.67 289.77 1439.51 289.77C1447.08 289.77 1453.97 288.28 1460.19 285.31C1466.41 282.34 1471.32 278.6 1474.93 274.09L1502.1 297.61C1494.44 306.26 1485.11 313 1474.12 317.82C1463.12 322.64 1451.23 325.05 1438.43 325.05C1415.99 325.05 1397.27 317.91 1382.26 303.62C1367.25 289.34 1359.75 271.56 1359.75 250.29C1359.75 236.68 1363.01 224.29 1369.55 213.11C1376.08 201.94 1385.12 193.15 1396.65 186.75C1408.19 180.35 1420.98 177.15 1435.04 177.15C1456.22 177.15 1473.88 184.23 1488.03 198.37C1502.19 212.53 1509.26 230.28 1509.26 251.64ZM1434.51 212.03C1426.94 212.03 1420.32 214.31 1414.64 218.86C1408.96 223.41 1405.09 229.61 1403.01 237.45H1466.41C1464.16 229.52 1460.19 223.3 1454.51 218.79C1448.84 214.28 1442.17 212.03 1434.51 212.03Z" fill="#7A7A7A"/>
<path d="M1658.71 321.669H1609.64L1581.79 279.089L1553.81 321.669H1505.28L1554.89 250.829L1506.09 180.529H1555.16L1582.33 222.299L1609.37 180.529H1657.9L1609.1 250.829L1658.71 321.669Z" fill="#7A7A7A"/>
<path d="M259.424 388.02C165.924 329.94 123.854 250.63 105.484 183.24L199.434 204.62C199.424 204.61 180.974 315.27 259.424 388.02Z" fill="#7A7A7A"/>
<path d="M562.887 99.7508H98.4771V99.7108C100.587 82.6508 104.067 63.7308 109.637 43.8008L562.887 99.7508Z" fill="#7A7A7A"/>
<path d="M562.885 99.75L109 46C109.86 42.94 111.395 37.64 112.345 34.53C115.815 23.23 119.965 11.68 124.945 0L205.875 18.44H205.895L330.595 46.84L562.885 99.75Z" fill="#7A7A7A"/>
<path d="M242.5 269.5C224.1 250.7 210.5 227 199.5 204.5C194.5 216.333 195.842 278 208 310.5C228.8 366.1 242.5 380.5 279.5 400C333 370.5 375 333.5 407 286.5C432 249.781 455 199.5 464.5 129.5H0.5L357 210.5C351.833 221.667 338.061 245.017 324.5 261C310.5 277.5 288.667 297.167 280 303.5C276 301.5 260.9 288.3 242.5 269.5Z" fill="#7A7A7A"/>
</g>
<defs>
<clipPath id="clip0_29689_930">
<rect width="1659" height="400" fill="white"/>
</clipPath>
</defs>
</svg>
