<svg width="223" height="40" viewBox="0 0 223 40" fill="none" xmlns="http://www.w3.org/2000/svg">
<path d="M66.2264 29.5919H53.6445V10.3711H57.9009V25.737H66.2264V29.5919Z" fill="#7A7A7A"/>
<path d="M73.5488 29.8325C72.1032 29.8325 70.8361 29.5291 69.7474 28.9223C68.6767 28.2977 67.8379 27.4232 67.2311 26.2989C66.6421 25.1745 66.3477 23.8717 66.3477 22.3905C66.3477 20.9627 66.6511 19.6956 67.2578 18.5891C67.8825 17.4648 68.7302 16.5903 69.801 15.9657C70.8896 15.3232 72.121 15.002 73.4952 15.002C74.6374 15.002 75.6725 15.2161 76.6005 15.6444C77.5286 16.0728 78.3049 16.6706 78.9295 17.438C79.5542 18.2054 80.0003 19.0978 80.268 20.115C80.5357 21.1323 80.5803 22.2298 80.4019 23.4077H68.6499V20.9449H76.2793C76.2436 19.999 75.967 19.2494 75.4494 18.6962C74.9319 18.143 74.2537 17.8663 73.4149 17.8663C72.7368 17.8663 72.1657 18.0359 71.7017 18.375C71.2376 18.7141 70.8807 19.2227 70.6309 19.9008C70.3988 20.579 70.2828 21.4089 70.2828 22.3905C70.2828 23.3542 70.3988 24.1662 70.6309 24.8265C70.8807 25.4868 71.2376 25.9865 71.7017 26.3256C72.1835 26.6647 72.7724 26.8343 73.4685 26.8343C74.2359 26.8343 74.8783 26.6558 75.3959 26.2989C75.9313 25.9241 76.2972 25.3976 76.4935 24.7194H80.3483C79.9379 26.3435 79.1348 27.6017 77.939 28.494C76.7612 29.3863 75.2977 29.8325 73.5488 29.8325Z" fill="#7A7A7A"/>
<path d="M90.7384 25.7893V29.1891C90.2744 29.439 89.8104 29.6085 89.3464 29.6977C88.8824 29.8048 88.3648 29.8584 87.7937 29.8584C86.7943 29.8584 85.9287 29.671 85.197 29.2962C84.4653 28.9214 83.9032 28.3592 83.5105 27.6097C83.1179 26.8601 82.9216 25.9499 82.9216 24.8792V18.615H80.084V15.2688H82.9216V11.0391H86.7765V15.2688H90.8455V18.615H86.7765V23.9957C86.7765 24.7988 86.9549 25.3789 87.3119 25.7358C87.6688 26.0927 88.1774 26.2712 88.8377 26.2712C89.1947 26.2712 89.5338 26.2355 89.855 26.1641C90.1762 26.0749 90.4707 25.9499 90.7384 25.7893Z" fill="#7A7A7A"/>
<path d="M104.12 24.9336C104.12 26.4506 103.567 27.6552 102.461 28.5475C101.354 29.422 99.7655 29.8593 97.6953 29.8593C95.6608 29.8593 94.0725 29.3952 92.9303 28.4672C91.7881 27.5392 91.1456 26.281 91.0029 24.6927H94.7239C94.7417 25.3887 95.0273 25.9508 95.5805 26.3792C96.1516 26.7896 96.8833 26.9949 97.7756 26.9949C98.4538 26.9949 99.0249 26.8878 99.4889 26.6736C99.9529 26.4595 100.185 26.1025 100.185 25.6028C100.185 25.1924 100.033 24.8801 99.7299 24.6659C99.4443 24.4517 98.9803 24.2822 98.3378 24.1573L95.7144 23.6754C94.4473 23.4434 93.4389 22.9794 92.6894 22.2834C91.9577 21.5874 91.5918 20.6772 91.5918 19.5528C91.5918 18.6605 91.8327 17.8753 92.3146 17.1971C92.7964 16.5011 93.4746 15.9657 94.3491 15.5909C95.2414 15.1983 96.2855 15.002 97.4812 15.002C98.6947 15.002 99.7655 15.2072 100.694 15.6177C101.622 16.0103 102.362 16.5903 102.916 17.3577C103.469 18.1073 103.781 18.9996 103.853 20.0347H100.158C100.087 19.3565 99.8102 18.8301 99.3283 18.4553C98.8643 18.0626 98.2575 17.8663 97.5079 17.8663C96.8476 17.8663 96.3122 17.9823 95.9018 18.2143C95.5091 18.4285 95.3128 18.7497 95.3128 19.1781C95.3128 19.5885 95.4556 19.8919 95.7411 20.0882C96.0445 20.2667 96.4907 20.4184 97.0796 20.5433L99.8905 21.0787C101.301 21.3286 102.354 21.7837 103.05 22.444C103.763 23.0865 104.12 23.9163 104.12 24.9336Z" fill="#7A7A7A"/>
<path d="M118.919 25.8976V29.5919H105.856V10.3711H118.732V14.0653H110.112V17.8399H117.956V21.5609H110.112V25.8976H118.919Z" fill="#7A7A7A"/>
<path d="M123.645 29.5914H119.308L124.1 22.3099L119.629 15.2695H124.127L126.937 20.1416L129.775 15.2695H133.871L129.481 22.4438L134.219 29.5914H129.802L126.67 24.5318L123.645 29.5914Z" fill="#7A7A7A"/>
<path d="M140.449 29.8593C139.074 29.8593 137.861 29.5469 136.808 28.9223C135.755 28.2977 134.925 27.4232 134.318 26.2989C133.729 25.1745 133.435 23.8806 133.435 22.4172C133.435 20.9895 133.738 19.7224 134.345 18.6159C134.952 17.4916 135.782 16.6082 136.835 15.9657C137.905 15.3232 139.11 15.002 140.449 15.002C141.716 15.002 142.849 15.2697 143.848 15.8051C144.848 16.3405 145.66 17.09 146.284 18.0537C146.927 19.0174 147.319 20.1418 147.462 21.4267H143.366C143.277 20.5166 142.974 19.8027 142.456 19.2851C141.939 18.7497 141.278 18.482 140.475 18.482C139.851 18.482 139.306 18.6427 138.842 18.9639C138.396 19.2851 138.048 19.7402 137.798 20.3292C137.548 20.9003 137.424 21.5963 137.424 22.4172C137.424 23.2382 137.54 23.952 137.772 24.5588C138.021 25.1656 138.378 25.6296 138.842 25.9508C139.306 26.2542 139.851 26.4059 140.475 26.4059C141.296 26.4059 141.957 26.1472 142.456 25.6296C142.974 25.0942 143.277 24.3536 143.366 23.4077H147.462C147.337 24.7462 146.963 25.8973 146.338 26.861C145.713 27.8069 144.901 28.5475 143.902 29.0829C142.902 29.6005 141.751 29.8593 140.449 29.8593Z" fill="#7A7A7A"/>
<path d="M152.607 21.8554V29.5919H148.725V10.3711H152.607V17.0903C153.106 16.4478 153.669 15.9392 154.293 15.5644C154.936 15.1896 155.73 15.0023 156.676 15.0023C158.121 15.0023 159.29 15.4663 160.183 16.3943C161.075 17.3045 161.521 18.6251 161.521 20.3562V29.5919H157.639V21.668C157.639 20.6329 157.434 19.8476 157.024 19.3122C156.631 18.759 156.033 18.4823 155.23 18.4823C154.748 18.4823 154.302 18.6073 153.892 18.8571C153.499 19.0891 153.187 19.455 152.955 19.9547C152.723 20.4544 152.607 21.0879 152.607 21.8554Z" fill="#7A7A7A"/>
<path d="M162.638 22.4172C162.638 21.0252 162.906 19.767 163.441 18.6427C163.977 17.5183 164.735 16.6349 165.717 15.9924C166.698 15.3321 167.867 15.002 169.223 15.002C170.169 15.002 170.972 15.1804 171.633 15.5374C172.311 15.8764 172.918 16.4029 173.453 17.1168V15.2697H177.04V29.5916H173.453V27.6106C172.9 28.3244 172.24 28.8777 171.472 29.2703C170.723 29.6629 169.902 29.8593 169.009 29.8593C167.724 29.8593 166.6 29.538 165.636 28.8955C164.69 28.2352 163.95 27.3429 163.414 26.2185C162.897 25.0764 162.638 23.8093 162.638 22.4172ZM166.654 22.4172C166.654 23.72 166.975 24.7105 167.617 25.3887C168.26 26.049 169.018 26.3792 169.893 26.3792C170.482 26.3792 171.017 26.2275 171.499 25.9241C171.999 25.6207 172.391 25.1745 172.677 24.5856C172.98 23.9788 173.132 23.2471 173.132 22.3905C173.132 21.516 172.98 20.7932 172.677 20.2221C172.373 19.6332 171.972 19.1959 171.472 18.9104C170.99 18.6248 170.464 18.482 169.893 18.482C169.018 18.482 168.26 18.8122 167.617 19.4725C166.975 20.115 166.654 21.0966 166.654 22.4172Z" fill="#7A7A7A"/>
<path d="M182.986 21.8551V29.5916H179.105V15.2697H182.665V17.2506C183.218 16.5546 183.852 16.0103 184.566 15.6177C185.28 15.2072 186.11 15.002 187.055 15.002C188.501 15.002 189.67 15.466 190.562 16.394C191.455 17.3042 191.901 18.6248 191.901 20.3559V29.5916H188.019V21.6677C188.019 20.6326 187.814 19.8473 187.403 19.3119C187.011 18.7587 186.413 18.482 185.61 18.482C185.128 18.482 184.682 18.607 184.271 18.8568C183.879 19.0888 183.566 19.4547 183.334 19.9544C183.102 20.4541 182.986 21.0876 182.986 21.8551Z" fill="#7A7A7A"/>
<path d="M200.112 35.0258C198.827 35.0258 197.685 34.8028 196.685 34.3566C195.704 33.9283 194.927 33.3037 194.356 32.4827C193.803 31.6618 193.5 30.707 193.446 29.6183H197.194C197.283 30.3857 197.569 30.9747 198.05 31.3851C198.55 31.7956 199.228 32.0008 200.085 32.0008C201.067 32.0008 201.816 31.7421 202.334 31.2245C202.851 30.707 203.11 29.9485 203.11 28.9491V26.9413C202.717 27.5838 202.173 28.0924 201.477 28.4672C200.799 28.8242 200.031 29.0026 199.175 29.0026C198.015 29.0026 196.962 28.6992 196.016 28.0924C195.088 27.4857 194.356 26.6558 193.821 25.6028C193.285 24.532 193.018 23.3274 193.018 21.9889C193.018 20.6147 193.268 19.4101 193.767 18.375C194.285 17.322 194.99 16.5011 195.882 15.9121C196.792 15.3053 197.836 15.002 199.014 15.002C199.978 15.002 200.817 15.1804 201.531 15.5374C202.244 15.8943 202.869 16.4297 203.404 17.1435V15.2697H206.965V28.8955C206.965 30.8051 206.349 32.3042 205.118 33.3929C203.904 34.4815 202.236 35.0258 200.112 35.0258ZM196.926 22.0157C196.926 23.1222 197.194 24.0056 197.729 24.6659C198.282 25.3084 199.023 25.6296 199.951 25.6296C200.576 25.6296 201.12 25.4868 201.584 25.2013C202.048 24.8979 202.405 24.4785 202.655 23.9431C202.923 23.3899 203.056 22.7563 203.056 22.0424C203.056 20.936 202.771 20.0525 202.2 19.3922C201.629 18.7141 200.879 18.375 199.951 18.375C199.023 18.375 198.282 18.7051 197.729 19.3655C197.194 20.0258 196.926 20.9092 196.926 22.0157Z" fill="#7A7A7A"/>
<path d="M215.435 29.8325C213.989 29.8325 212.722 29.5291 211.634 28.9223C210.563 28.2977 209.724 27.4232 209.117 26.2989C208.528 25.1745 208.234 23.8717 208.234 22.3905C208.234 20.9627 208.537 19.6956 209.144 18.5891C209.769 17.4648 210.616 16.5903 211.687 15.9657C212.776 15.3232 214.007 15.002 215.381 15.002C216.523 15.002 217.559 15.2161 218.487 15.6444C219.415 16.0728 220.191 16.6706 220.816 17.438C221.44 18.2054 221.886 19.0978 222.154 20.115C222.422 21.1323 222.466 22.2298 222.288 23.4077H210.536V20.9449H218.165C218.13 19.999 217.853 19.2494 217.336 18.6962C216.818 18.143 216.14 17.8663 215.301 17.8663C214.623 17.8663 214.052 18.0359 213.588 18.375C213.124 18.7141 212.767 19.2227 212.517 19.9008C212.285 20.579 212.169 21.4089 212.169 22.3905C212.169 23.3542 212.285 24.1662 212.517 24.8265C212.767 25.4868 213.124 25.9865 213.588 26.3256C214.07 26.6647 214.659 26.8343 215.355 26.8343C216.122 26.8343 216.764 26.6558 217.282 26.2989C217.817 25.9241 218.183 25.3976 218.38 24.7194H222.234C221.824 26.3435 221.021 27.6017 219.825 28.494C218.647 29.3863 217.184 29.8325 215.435 29.8325Z" fill="#7A7A7A"/>
<path fill-rule="evenodd" clip-rule="evenodd" d="M20.5 1.72218C20.5 0.954359 21.3295 0.472991 21.9961 0.853938L29.25 4.999L37.3702 9.6391C37.7596 9.86165 38 10.2758 38 10.7244V19.999L30.4903 15.7077C29.7218 15.2686 28.7782 15.2686 28.0097 15.7077L20.5 19.999V9.999V1.72218ZM3 19.999V10.7244C3 10.2758 3.24036 9.86165 3.62983 9.6391L10.5097 5.70777C11.2782 5.26858 12.2218 5.26858 12.9903 5.70777L20.5 9.999L3 19.999ZM20.5 38.2758C20.5 39.0436 19.6705 39.525 19.0039 39.144L11.75 34.999L3.62983 30.3589C3.24036 30.1363 3 29.7221 3 29.2736V19.999L10.5097 24.2902C11.2782 24.7294 12.2218 24.7294 12.9903 24.2902L20.5 19.999V29.999V38.2758ZM28.0097 34.2902C28.7782 34.7294 29.7218 34.7294 30.4903 34.2902L37.3702 30.3589C37.7596 30.1363 38 29.7221 38 29.2736V19.999L20.5 29.999L28.0097 34.2902Z" fill="#7A7A7A"/>
</svg>
