<svg width="1068" height="320" viewBox="0 0 1068 320" fill="none" xmlns="http://www.w3.org/2000/svg">
<g clip-path="url(#clip0_28244_939)">
<path d="M255.297 319.592C251.214 319.592 247.131 318.64 243.185 317.959C220.46 314.149 198.496 306.708 178.136 295.92C145.441 278.621 116.887 254.439 94.4434 225.042C93.8855 224.075 93.1411 223.228 92.2534 222.551C91.3657 221.874 90.3524 221.379 89.2722 221.097C66.1998 217.77 44.8928 206.856 28.7141 190.079C12.7645 173.373 2.68577 151.933 0 128.996C0 127.907 0 125.458 0 122.057C0 113.079 0 108.453 0 99.0661C0 89.6791 2.04129 85.4618 3.94648 78.2515C9.63222 56.369 22.2913 36.9327 40.0092 22.882C57.2866 9.62471 78.1445 1.85283 99.8868 0.570901C126.051 -2.06414 152.318 4.47652 174.19 19.0728C193.951 32.4532 208.397 52.334 215.015 75.2585C219.325 89.2046 221.077 103.815 220.187 118.384C219.524 145.65 208.645 171.674 189.703 191.303C175.845 205.599 158.106 215.53 138.671 219.872C134.616 220.46 130.521 220.733 126.424 220.689L121.661 221.097L123.702 223.818C149.302 252.618 182.217 273.959 218.962 285.581C243.799 293.644 270.187 295.741 295.986 291.703C317.742 289.381 338.738 282.379 357.53 271.177C376.323 259.975 392.467 244.84 404.855 226.81C422.084 197.545 430.318 163.859 428.534 129.948C428.534 120.561 429.214 106.14 428.534 96.7533C428.534 92.2639 428.534 85.4618 427.853 80.9723C427.853 80.9723 428.942 80.4282 432.48 80.9723C437.488 81.7154 442.578 81.7154 447.586 80.9723C450.716 80.9723 452.349 80.9723 452.349 80.9723C452.349 92.9441 452.349 106.957 452.349 119.064V130.084C451.79 145.156 450.427 160.187 448.266 175.114C445.404 196.807 438.577 217.789 428.125 237.014C409.126 266.891 381.442 290.246 348.787 303.947C335.905 310.424 322.155 315.006 307.962 317.551L291.631 320L255.297 319.592ZM110.638 24.5145C103.833 25.4668 97.029 26.011 90.3608 27.3714C80.5348 29.3544 71.2074 33.2904 62.932 38.9458C54.6566 44.6012 47.6019 51.8608 42.1865 60.2938C34.0888 72.2557 28.9737 85.9821 27.269 100.325C25.5644 114.668 27.3198 129.21 32.3884 142.736C39.0461 162.838 53.2576 179.567 72.0221 189.39C90.7867 199.214 112.636 201.363 132.956 195.385C146.973 191.841 159.717 184.445 169.746 174.035C179.776 163.624 186.689 150.614 189.703 136.478C193.784 120.776 193.784 104.293 189.703 88.5908C185.299 68.9849 173.815 51.692 157.451 40.0234C143.703 30.3818 127.425 24.989 110.638 24.5145Z" fill="#7A7A7A"/>
<path d="M896.533 185.455L900.752 195.658C901.704 197.971 902.385 200.556 903.609 202.868C903.824 203.203 903.967 203.579 904.029 203.971C904.09 204.364 904.069 204.765 903.967 205.15C903.864 205.534 903.683 205.892 903.434 206.202C903.185 206.512 902.874 206.767 902.521 206.95C894.508 213.35 885.233 217.986 875.304 220.554C860.84 224.627 845.585 225.001 830.94 221.642C818.993 219.581 807.873 214.182 798.867 206.069C789.86 197.956 783.335 187.461 780.044 175.796C773.847 156.37 775.059 135.339 783.446 116.753C786.819 108.857 791.806 101.753 798.087 95.8959C804.368 90.039 811.803 85.5588 819.917 82.7424C836.224 76.4693 854.193 75.989 870.813 81.3819C879.674 84.0776 887.778 88.8192 894.468 95.2236C901.158 101.628 906.247 109.516 909.325 118.25C913.302 130.11 914.421 142.742 912.591 155.117C912.591 157.702 911.23 158.518 908.508 158.518H805.219C805.401 164.027 806.698 169.441 809.03 174.435C812.091 181.297 816.913 187.228 823.008 191.624C829.103 196.02 836.253 198.726 843.732 199.467C858.971 201.905 874.588 199.176 888.096 191.713C889.506 190.933 890.87 190.07 892.178 189.128L896.533 185.455ZM803.722 137.976H883.741C883.741 137.976 884.83 137.976 885.102 137.976C885.374 137.976 887.007 136.616 887.007 135.935C886.84 133.363 886.43 130.812 885.782 128.317C884.798 123.831 882.9 119.595 880.208 115.874C877.516 112.153 874.086 109.025 870.132 106.686C859.413 100.801 846.831 99.2896 835.022 102.469C829.592 103.588 824.459 105.838 819.957 109.073C815.455 112.307 811.685 116.454 808.894 121.243C805.895 126.294 804.124 131.979 803.722 137.84V137.976Z" fill="#7A7A7A"/>
<path d="M353.008 201.369C349.333 204.634 346.339 207.627 343.073 210.076C336.106 215.481 328.1 219.393 319.555 221.57C311.009 223.747 302.107 224.141 293.402 222.728C285.664 221.966 278.272 219.139 272 214.544C265.728 209.949 260.806 203.755 257.748 196.608C253.942 188.038 251.95 178.775 251.896 169.399C251.896 141.102 251.896 112.805 251.896 84.6446C251.896 81.9237 252.848 81.2435 255.298 81.3796H272.989C276.8 81.3796 276.8 81.3796 276.8 85.0527C276.8 108.316 276.8 131.443 276.8 154.707C276.529 162.215 277.308 169.724 279.113 177.018C280.607 183.435 284.178 189.18 289.271 193.361C294.364 197.543 300.696 199.927 307.283 200.145C315.839 200.916 324.451 199.497 332.307 196.022C340.164 192.547 347.006 187.131 352.191 180.283C353.054 179.051 353.485 177.568 353.416 176.065C353.144 145.592 353.008 115.254 353.008 85.0527C353.008 82.1958 353.008 81.2435 356.546 81.3796C362.67 81.3796 368.793 81.3796 374.781 81.3796C376.959 81.3796 377.775 81.3796 377.775 84.2365C377.775 128.858 377.775 173.526 377.775 218.239C377.775 220.279 377.775 221.096 375.189 221.096H356.137C353.96 221.096 353.28 221.096 353.416 218.239C353.008 212.389 353.008 207.491 353.008 201.369Z" fill="#7A7A7A"/>
<path d="M1065.28 81.1067L1049.63 102.193C1038.74 116.885 1027.85 131.578 1016.97 146.135C1015.61 147.903 1016.97 148.992 1016.97 150.352L1066.23 217.557L1068 220.142H1065.55C1056.98 220.142 1048.4 220.142 1039.83 220.142C1039.12 220.087 1038.43 219.89 1037.8 219.563C1037.17 219.235 1036.61 218.785 1036.16 218.238C1023.64 201.096 1011.12 183.955 998.732 166.813L996.691 164.228L990.567 172.391C979.272 187.628 968.113 202.865 956.818 218.102C956.372 218.668 955.817 219.14 955.186 219.491C954.555 219.841 953.861 220.062 953.144 220.142C944.843 220.142 936.541 220.142 928.24 220.142H926.199L935.997 206.538C949.606 188.172 963.214 169.806 976.823 152.121C977.181 151.778 977.466 151.366 977.66 150.91C977.855 150.454 977.956 149.964 977.956 149.468C977.956 148.972 977.855 148.481 977.66 148.026C977.466 147.57 977.181 147.158 976.823 146.815L931.098 83.0113L930.009 81.1067H957.907C958.709 81.0359 959.516 81.1892 960.237 81.5494C960.958 81.9097 961.564 82.4628 961.989 83.1473L996.011 130.626C997.916 133.347 998.052 133.347 1000.09 130.626L1034.66 83.4194C1035.5 82.2547 1036.78 81.4721 1038.2 81.2427C1046.5 81.2427 1054.8 81.2427 1063.1 81.2427L1065.28 81.1067Z" fill="#7A7A7A"/>
<path d="M597.962 182.053C601.773 187.902 605.583 193.48 609.121 199.194C609.121 199.194 609.121 201.235 608.441 201.779C601.575 209.898 592.57 215.931 582.448 219.192C564.818 225.298 545.645 225.298 528.014 219.192C516.996 215.892 507.066 209.694 499.262 201.247C491.458 192.799 486.066 182.412 483.65 171.169C478.43 152.049 480.718 131.656 490.046 114.167C494.401 105.509 500.63 97.9277 508.28 91.9744C515.93 86.0211 524.809 81.8447 534.274 79.7482C554.351 74.8598 575.511 77.2208 594.016 86.4143C598.065 88.6811 601.892 91.3229 605.447 94.3048C605.831 94.6896 606.109 95.1681 606.252 95.693C606.395 96.2178 606.399 96.7709 606.263 97.2977C602.861 103.284 599.323 109.27 595.649 115.664L592.247 112.263C584.857 106.338 576.05 102.444 566.694 100.965C557.338 99.4855 547.758 100.472 538.901 103.828C530.097 106.927 522.448 112.638 516.977 120.199C511.505 127.759 508.472 136.808 508.282 146.137C507.549 152.565 508.135 159.075 510.003 165.27C511.871 171.464 514.982 177.213 519.146 182.166C523.311 187.118 528.441 191.17 534.224 194.074C540.007 196.979 546.321 198.674 552.782 199.058C560.752 199.916 568.812 198.954 576.356 196.244C583.9 193.534 590.729 189.147 596.329 183.413L597.962 182.053Z" fill="#7A7A7A"/>
<path d="M641.236 111.583C641.236 76.7555 641.236 41.9285 641.236 7.1015C641.236 3.15625 641.236 3.15625 645.047 3.15625H663.282C666.004 3.42834 666.004 3.42834 666.004 5.74107C666.004 8.0538 666.004 6.69337 666.004 7.1015C666.004 77.209 666.004 146.999 666.004 216.472C666.004 220.281 666.004 220.281 662.057 220.281C658.111 220.281 650.218 220.281 644.366 220.281C641.917 220.281 641.236 220.281 641.236 217.152C641.236 181.962 641.236 146.772 641.236 111.583Z" fill="#7A7A7A"/>
<path d="M768.205 220.146H736.633C735.08 220.052 733.62 219.371 732.551 218.241L673.082 150.22C671.449 148.315 671.449 147.227 673.082 145.322L727.516 83.2868C728.395 82.1839 729.659 81.4548 731.054 81.2461H760.993L756.366 86.4158L704.245 143.145C702.612 144.914 702.476 146.002 704.245 147.907L749.834 198.923L768.205 220.146Z" fill="#7A7A7A"/>
<path d="M440.238 44.2393C438.104 44.3593 435.969 44.0252 433.973 43.259C431.978 42.4928 430.168 41.312 428.663 39.7947C427.158 38.2774 425.993 36.4581 425.243 34.457C424.494 32.4559 424.178 30.3185 424.316 28.1863C424.293 26.1626 424.688 24.1559 425.478 22.2922C426.267 20.4284 427.432 18.7478 428.902 17.3555C430.371 15.9633 432.112 14.8895 434.016 14.2016C435.92 13.5136 437.946 13.2263 439.966 13.3576C441.98 13.2251 443.999 13.5127 445.896 14.202C447.793 14.8913 449.526 15.9672 450.984 17.3616C452.443 18.7559 453.596 20.4382 454.37 22.3017C455.144 24.1651 455.522 26.1691 455.48 28.1863C455.653 30.2689 455.384 32.3647 454.691 34.3362C453.998 36.3077 452.895 38.1105 451.456 39.6262C450.017 41.142 448.274 42.3365 446.34 43.1316C444.407 43.9266 442.327 44.3041 440.238 44.2393Z" fill="#7A7A7A"/>
</g>
<defs>
<clipPath id="clip0_28244_939">
<rect width="1068" height="320" fill="white"/>
</clipPath>
</defs>
</svg>
