<svg width="297" height="95" viewBox="0 0 297 95" fill="none" xmlns="http://www.w3.org/2000/svg">
<path d="M74.2505 37.125L57.0427 19.9172C51.5427 14.4172 42.6253 14.4172 37.1252 19.9172L19.9174 37.125C14.4174 42.6251 14.4174 51.5425 19.9174 57.0425L37.1252 74.2503C42.6253 79.7504 51.5427 79.7504 57.0427 74.2503L74.2505 57.0425C79.7506 51.5425 79.7506 42.6251 74.2505 37.125Z" stroke="#EA7125" stroke-width="14.0838"/>
<path d="M74.2505 37.125L57.0427 19.9172C51.5427 14.4172 42.6253 14.4172 37.1252 19.9172L19.9174 37.125C14.4174 42.6251 14.4174 51.5425 19.9174 57.0425L37.1252 74.2503C42.6253 79.7504 51.5427 79.7504 57.0427 74.2503L74.2505 57.0425C79.7506 51.5425 79.7506 42.6251 74.2505 37.125Z" stroke="url(#paint0_linear_29129_930)" stroke-opacity="0.2" stroke-width="14.0838"/>
<path d="M57.8197 44.682L49.8028 36.6651C48.3018 35.1641 45.8681 35.1641 44.3671 36.6651L36.3502 44.682C34.8492 46.183 34.8492 48.6166 36.3502 50.1177L44.3671 58.1346C45.8681 59.6356 48.3018 59.6356 49.8028 58.1346L57.8197 50.1177C59.3207 48.6166 59.3207 46.183 57.8197 44.682Z" fill="#EA7125"/>
<path d="M57.8197 44.682L49.8028 36.6651C48.3018 35.1641 45.8681 35.1641 44.3671 36.6651L36.3502 44.682C34.8492 46.183 34.8492 48.6166 36.3502 50.1177L44.3671 58.1346C45.8681 59.6356 48.3018 59.6356 49.8028 58.1346L57.8197 50.1177C59.3207 48.6166 59.3207 46.183 57.8197 44.682Z" fill="url(#paint1_linear_29129_930)" fill-opacity="0.2"/>
<path d="M111.045 60.6618C109.004 60.6618 107.02 60.3601 105.094 59.7565C103.167 59.153 101.537 58.2798 100.201 57.137L103.206 52.3601C103.771 52.9636 104.49 53.4837 105.363 53.9203C106.236 54.3569 107.167 54.6971 108.156 54.9411C109.158 55.1723 110.127 55.2878 111.065 55.2878C112.387 55.2878 113.459 55.0695 114.281 54.6329C115.116 54.1835 115.533 53.535 115.533 52.6875C115.533 51.9941 115.232 51.4098 114.628 50.9347C114.037 50.4596 112.927 50.0037 111.296 49.5671L108.984 48.9122C106.211 48.1418 104.214 47.0888 102.994 45.7533C101.774 44.4178 101.164 42.8127 101.164 40.9379C101.164 39.7308 101.421 38.6201 101.935 37.6056C102.448 36.5784 103.167 35.6923 104.092 34.9475C105.016 34.1899 106.102 33.6056 107.347 33.1947C108.606 32.771 109.973 32.5591 111.45 32.5591C113.492 32.5591 115.386 32.8609 117.132 33.4644C118.891 34.0551 120.304 34.8641 121.37 35.8914L118.249 40.5142C117.761 40.0005 117.158 39.5511 116.439 39.1658C115.72 38.7806 114.936 38.4788 114.089 38.2605C113.241 38.0422 112.387 37.9331 111.527 37.9331C110.679 37.9331 109.941 38.0422 109.312 38.2605C108.683 38.4788 108.188 38.7934 107.829 39.2044C107.482 39.6024 107.309 40.0776 107.309 40.6297C107.309 41.0792 107.437 41.458 107.694 41.7662C107.963 42.0615 108.407 42.344 109.023 42.6137C109.652 42.8833 110.5 43.1787 111.565 43.4997L113.915 44.1931C116.676 45.0021 118.673 46.0166 119.906 47.2365C121.138 48.4564 121.755 50.0422 121.755 51.9941C121.755 53.702 121.318 55.2108 120.445 56.5206C119.572 57.8175 118.333 58.832 116.728 59.5639C115.135 60.2959 113.241 60.6618 111.045 60.6618ZM125.672 60.084V32.3472H131.989V44.8288L130.68 43.2686C131.527 42.2284 132.535 41.4002 133.704 40.7838C134.872 40.1674 136.163 39.8593 137.575 39.8593C139.412 39.8593 140.94 40.2252 142.16 40.9572C143.392 41.6891 144.31 42.6458 144.914 43.8272C145.517 45.0085 145.819 46.2798 145.819 47.641V60.084H139.501V49.413C139.501 48.283 139.174 47.3649 138.519 46.6586C137.864 45.9524 136.946 45.5928 135.765 45.58C134.969 45.5671 134.288 45.7276 133.723 46.0615C133.171 46.3825 132.741 46.8512 132.432 47.4676C132.137 48.0711 131.989 48.7902 131.989 49.6249V60.084H125.672ZM159.025 60.6618C157.176 60.6618 155.519 60.2317 154.055 59.3713C152.592 58.4981 151.436 57.2846 150.588 55.7309C149.741 54.1642 149.317 52.3408 149.317 50.2605C149.317 48.6939 149.561 47.275 150.049 46.0037C150.537 44.7196 151.218 43.6217 152.091 42.71C152.964 41.7983 153.991 41.0984 155.173 40.6105C156.354 40.1097 157.638 39.8593 159.025 39.8593C160.848 39.8593 162.402 40.2573 163.686 41.0535C164.97 41.8368 165.888 42.8833 166.441 44.1931L165.574 45.5607V40.4371H171.006V60.084H165.574V54.9604L166.441 56.3087C165.888 57.6185 164.97 58.6715 163.686 59.4676C162.402 60.2638 160.848 60.6618 159.025 60.6618ZM160.104 55.2301C160.977 55.2301 161.76 55.031 162.453 54.6329C163.16 54.222 163.718 53.6442 164.129 52.8994C164.54 52.1546 164.746 51.275 164.746 50.2605C164.746 49.2333 164.54 48.3536 164.129 47.6217C163.718 46.8769 163.16 46.3055 162.453 45.9074C161.76 45.4965 160.977 45.291 160.104 45.291C159.23 45.291 158.447 45.4965 157.754 45.9074C157.06 46.3055 156.508 46.8769 156.097 47.6217C155.686 48.3536 155.481 49.2333 155.481 50.2605C155.481 51.275 155.686 52.1546 156.097 52.8994C156.508 53.6442 157.06 54.222 157.754 54.6329C158.447 55.031 159.23 55.2301 160.104 55.2301ZM176.233 68.1739V40.4371H181.684V42.6907C182.416 41.8304 183.347 41.1434 184.477 40.6297C185.62 40.1161 186.943 39.8593 188.445 39.8593C190.32 39.8593 191.989 40.2894 193.453 41.1498C194.93 42.0101 196.092 43.2236 196.94 44.7902C197.787 46.3569 198.211 48.1803 198.211 50.2605C198.211 51.7244 197.967 53.092 197.479 54.3633C197.004 55.6217 196.323 56.726 195.437 57.6763C194.551 58.6137 193.505 59.3456 192.298 59.8721C191.103 60.3986 189.781 60.6618 188.33 60.6618C187.174 60.6618 186.108 60.4756 185.132 60.1032C184.169 59.7309 183.302 59.2044 182.532 58.5238V68.1739H176.233ZM187.27 55.2301C188.182 55.2301 188.997 55.031 189.717 54.6329C190.436 54.222 191.001 53.6442 191.412 52.8994C191.822 52.1546 192.028 51.275 192.028 50.2605C192.028 49.2333 191.816 48.3536 191.392 47.6217C190.981 46.8769 190.416 46.3055 189.697 45.9074C188.991 45.4965 188.182 45.291 187.27 45.291C186.371 45.291 185.562 45.4965 184.843 45.9074C184.124 46.3055 183.559 46.8769 183.148 47.6217C182.737 48.3536 182.532 49.2333 182.532 50.2605C182.532 51.275 182.737 52.1546 183.148 52.8994C183.559 53.6442 184.118 54.222 184.824 54.6329C185.543 55.031 186.359 55.2301 187.27 55.2301ZM211.382 60.6618C209.225 60.6618 207.331 60.2317 205.7 59.3713C204.069 58.4981 202.798 57.2846 201.886 55.7309C200.974 54.1642 200.518 52.3344 200.518 50.2413C200.518 48.726 200.782 47.3328 201.308 46.0615C201.847 44.7902 202.592 43.6923 203.542 42.7678C204.506 41.8432 205.636 41.1305 206.933 40.6297C208.242 40.1161 209.681 39.8593 211.247 39.8593C212.968 39.8593 214.502 40.1674 215.851 40.7838C217.199 41.3874 218.31 42.2349 219.183 43.3264C220.069 44.405 220.679 45.6827 221.013 47.1594C221.347 48.6233 221.359 50.2156 221.051 51.9363H206.297C206.31 52.7068 206.541 53.3809 206.99 53.9588C207.44 54.5366 208.056 54.9925 208.839 55.3264C209.623 55.6474 210.534 55.8079 211.575 55.8079C212.73 55.8079 213.828 55.6602 214.868 55.3649C215.908 55.0567 216.904 54.588 217.854 53.9588L219.838 58.2349C219.234 58.6971 218.451 59.1145 217.488 59.4869C216.538 59.8464 215.523 60.1289 214.445 60.3344C213.379 60.5527 212.358 60.6618 211.382 60.6618ZM206.682 47.6795H215.042C215.016 46.6907 214.65 45.901 213.944 45.3103C213.237 44.7196 212.281 44.4243 211.074 44.4243C209.854 44.4243 208.839 44.7196 208.03 45.3103C207.234 45.901 206.785 46.6907 206.682 47.6795Z" fill="white"/>
<path d="M225.51 60.0842V33.1179H235.95C238.698 33.1179 240.894 33.6957 242.538 34.8514C244.181 35.9943 245.003 37.6957 245.003 39.9558C245.003 40.7776 244.836 41.5352 244.502 42.2286C244.168 42.9221 243.713 43.5384 243.135 44.0778C242.57 44.6042 241.934 45.028 241.228 45.349C242.679 45.8627 243.847 46.7166 244.733 47.9108C245.632 49.105 246.082 50.524 246.082 52.1676C246.082 53.7728 245.677 55.166 244.868 56.3474C244.072 57.5288 242.936 58.4469 241.459 59.1018C239.982 59.7567 238.229 60.0842 236.201 60.0842H225.51ZM231.905 55.3651H235.276C236.663 55.3651 237.703 55.0826 238.396 54.5176C239.09 53.9526 239.437 53.105 239.437 51.975C239.437 50.8964 239.103 50.0617 238.435 49.471C237.78 48.8675 236.798 48.5657 235.488 48.5657H231.905V55.3651ZM231.905 44.1741H235.083C235.854 44.1741 236.515 44.0457 237.067 43.7888C237.632 43.532 238.063 43.1596 238.358 42.6717C238.666 42.1837 238.82 41.5994 238.82 40.9189C238.82 39.9301 238.486 39.166 237.819 38.6267C237.164 38.0874 236.22 37.8177 234.987 37.8177H231.905V44.1741ZM255.605 60.0842V38.9542H248.42V33.1179H269.223V38.9542H262.038V60.0842H255.605ZM284.641 60.662C281.855 60.662 279.396 60.0906 277.264 58.9477C275.132 57.8049 273.469 56.1869 272.275 54.0938C271.081 52.0007 270.484 49.5288 270.484 46.6781C270.484 44.5978 270.831 42.6973 271.524 40.9766C272.23 39.2431 273.219 37.7471 274.49 36.4887C275.774 35.2302 277.283 34.2607 279.017 33.5802C280.763 32.8867 282.67 32.54 284.737 32.54C286.985 32.54 288.872 32.8225 290.4 33.3875C291.929 33.9526 293.309 34.7551 294.542 35.7953L291.344 41.0537C290.599 40.2832 289.701 39.7118 288.648 39.3394C287.595 38.9542 286.433 38.7615 285.161 38.7615C283.903 38.7615 282.779 38.9477 281.79 39.3201C280.815 39.6797 279.98 40.1997 279.286 40.8803C278.606 41.5609 278.086 42.3827 277.726 43.3458C277.367 44.3089 277.187 45.3876 277.187 46.5818C277.187 48.2254 277.508 49.6315 278.15 50.8001C278.805 51.9686 279.736 52.8675 280.943 53.4967C282.15 54.1131 283.595 54.4213 285.277 54.4213C286.484 54.4213 287.678 54.2415 288.859 53.8819C290.054 53.5095 291.184 52.9124 292.25 52.0906L295.177 57.4646C293.932 58.4277 292.442 59.2046 290.709 59.7953C288.975 60.3731 286.953 60.662 284.641 60.662Z" fill="#EB772F"/>
<defs>
<linearGradient id="paint0_linear_29129_930" x1="77.6678" y1="26.4586" x2="30.5839" y2="73.5426" gradientUnits="userSpaceOnUse">
<stop stop-color="white"/>
<stop offset="1" stop-color="white" stop-opacity="0"/>
</linearGradient>
<linearGradient id="paint1_linear_29129_930" x1="53.8112" y1="40.6735" x2="40.3587" y2="54.1261" gradientUnits="userSpaceOnUse">
<stop stop-color="white"/>
<stop offset="1" stop-color="white" stop-opacity="0"/>
</linearGradient>
</defs>
</svg>
