<svg fill="none" height="48" viewBox="0 0 226 48" width="226" xmlns="http://www.w3.org/2000/svg"><path d="m84.1406 31.7947c-1.548 0-2.862-.342-3.942-1.026s-1.9044-1.6344-2.4732-2.8512c-.5616-1.2168-.8424-2.6244-.8424-4.2228s.2808-3.006.8424-4.2228c.5688-1.2168 1.3932-2.1672 2.4732-2.8512s2.394-1.026 3.942-1.026c1.8 0 3.2796.4572 4.4388 1.3716 1.1665.9144 1.9693 2.1456 2.4085 3.6936l-1.9548.5184c-.3168-1.1592-.8821-2.0736-1.6957-2.7432s-1.8792-1.0044-3.1968-1.0044c-1.1592 0-2.124.2628-2.8944.7884s-1.35 1.26-1.7388 2.2032c-.3888.936-.5868 2.0268-.594 3.2724-.0072 1.2384.1836 2.3292.5724 3.2724.3888.936.972 1.6704 1.7496 2.2032.7776.5256 1.746.7884 2.9052.7884 1.3176 0 2.3832-.3348 3.1968-1.0044.8136-.6768 1.3789-1.5912 1.6957-2.7432l1.9548.5184c-.4392 1.5408-1.242 2.772-2.4085 3.6936-1.1592.9144-2.6388 1.3716-4.4388 1.3716zm14.1838 0c-1.1592 0-2.16-.2628-3.0024-.7884-.8352-.5256-1.4796-1.2528-1.9332-2.1816s-.6804-1.9944-.6804-3.1968c0-1.224.2304-2.2968.6912-3.2184s1.1124-1.638 1.9548-2.1492c.8424-.5184 1.8324-.7776 2.97-.7776 1.1664 0 2.1706.2628 3.0136.7884.842.5184 1.486 1.242 1.933 2.1708.453.9216.68 1.9836.68 3.186 0 1.2168-.227 2.2896-.68 3.2184-.454.9216-1.102 1.6452-1.944 2.1708-.843.5184-1.8434.7776-3.0026.7776zm0-1.8252c1.2096 0 2.1096-.4032 2.6996-1.2096.591-.8064.886-1.8504.886-3.132 0-1.3176-.299-2.3652-.896-3.1428-.598-.7848-1.4944-1.1772-2.6896-1.1772-.8136 0-1.4832.1836-2.0088.5508s-.918.8748-1.1772 1.5228-.3888 1.3968-.3888 2.2464c0 1.3104.3024 2.3616.9072 3.1536s1.494 1.188 2.6676 1.188zm8.2206-12.2256v-1.9872h1.922v1.9872zm0 13.7268v-11.664h1.922v11.664zm13.468 0v-5.8428c0-.5544-.05-1.0872-.151-1.5984-.094-.5112-.263-.9684-.508-1.3716-.237-.4104-.561-.7344-.972-.972-.403-.2376-.914-.3564-1.533-.3564-.483 0-.922.0828-1.318.2484-.389.1584-.723.4032-1.004.7344s-.501.7488-.659 1.2528c-.151.4968-.227 1.0836-.227 1.7604l-1.263-.3888c0-1.1304.201-2.0988.604-2.9052.411-.8136.983-1.4364 1.718-1.8684.741-.4392 1.612-.6588 2.613-.6588.756 0 1.401.1188 1.933.3564.533.2376.976.5544 1.329.9504.353.3888.63.828.831 1.3176.202.4824.342.9756.422 1.4796.086.4968.129.9684.129 1.4148v6.4476zm-8.316 0v-11.664h1.728v3.1212h.216v8.5428z" fill="#7a7a7a"/><path d="m131.159 31.7947c-1.548 0-2.862-.342-3.942-1.026s-1.905-1.6344-2.474-2.8512c-.561-1.2168-.842-2.6244-.842-4.2228s.281-3.006.842-4.2228c.569-1.2168 1.394-2.1672 2.474-2.8512s2.394-1.026 3.942-1.026c1.8 0 3.279.4572 4.438 1.3716 1.167.9144 1.97 2.1456 2.409 3.6936l-1.955.5184c-.317-1.1592-.882-2.0736-1.696-2.7432-.813-.6696-1.879-1.0044-3.196-1.0044-1.16 0-2.124.2628-2.895.7884-.77.5256-1.35 1.26-1.739 2.2032-.388.936-.586 2.0268-.594 3.2724-.007 1.2384.184 2.3292.573 3.2724.389.936.972 1.6704 1.749 2.2032.778.5256 1.746.7884 2.906.7884 1.317 0 2.383-.3348 3.196-1.0044.814-.6768 1.379-1.5912 1.696-2.7432l1.955.5184c-.439 1.5408-1.242 2.772-2.409 3.6936-1.159.9144-2.638 1.3716-4.438 1.3716zm9.215-.324v-11.664h1.718v2.8188l-.281-.3672c.137-.36.313-.6912.529-.9936.223-.3024.472-.5508.745-.7452.303-.2448.645-.432 1.026-.5616.382-.1296.771-.2052 1.167-.2268.396-.0288.766-.0036 1.112.0756v1.8036c-.403-.108-.846-.1368-1.328-.0864-.483.0504-.929.2268-1.34.5292-.374.2664-.666.5904-.874.972-.202.3816-.342.7956-.422 1.242-.079.4392-.118.8892-.118 1.35v5.8536zm10.994.324c-.871 0-1.602-.1584-2.192-.4752-.583-.324-1.026-.7488-1.329-1.2744-.295-.5256-.442-1.1016-.442-1.728 0-.612.115-1.1412.345-1.5876.238-.4536.569-.828.994-1.1232.425-.3024.932-.54 1.523-.7128.554-.1512 1.173-.2808 1.857-.3888.691-.1152 1.39-.2196 2.095-.3132.706-.0936 1.365-.1836 1.977-.27l-.691.3996c.021-1.0368-.188-1.8036-.627-2.3004-.432-.4968-1.181-.7452-2.246-.7452-.706 0-1.325.162-1.858.486-.525.3168-.896.8352-1.112 1.5552l-1.825-.5508c.28-1.0224.824-1.8252 1.63-2.4084.807-.5832 1.869-.8748 3.186-.8748 1.059 0 1.966.1908 2.722.5724.763.3744 1.31.9432 1.642 1.7064.165.36.27.7524.313 1.1772.043.4176.065.8568.065 1.3176v7.2144h-1.707v-2.7972l.4.2592c-.439.9432-1.055 1.656-1.847 2.1384-.785.4824-1.742.7236-2.873.7236zm.292-1.6092c.691 0 1.289-.1224 1.793-.3672.511-.252.921-.5796 1.231-.9828.309-.4104.511-.8568.605-1.3392.108-.36.165-.7596.172-1.1988.015-.4464.022-.7884.022-1.026l.67.2916c-.627.0864-1.242.1692-1.847.2484s-1.177.1656-1.717.2592c-.54.0864-1.026.1908-1.458.3132-.317.1008-.616.2304-.897.3888-.273.1584-.497.3636-.669.6156-.166.2448-.249.5508-.249.918 0 .3168.079.6192.238.9072.165.288.417.522.756.702.345.18.795.27 1.35.27zm13.122 1.6092c-1.087 0-2.02-.27-2.797-.81-.778-.5472-1.379-1.2852-1.804-2.214-.418-.9288-.626-1.9764-.626-3.1428s.208-2.214.626-3.1428c.425-.9288 1.026-1.6596 1.804-2.1924.777-.54 1.706-.81 2.786-.81 1.102 0 2.027.2664 2.776.7992.748.5328 1.314 1.2636 1.695 2.1924.389.9288.583 1.98.583 3.1536 0 1.1592-.194 2.2068-.583 3.1428-.381.9288-.947 1.6668-1.695 2.214-.749.54-1.671.81-2.765.81zm.237-1.7604c.785 0 1.43-.1872 1.934-.5616.504-.3816.874-.9036 1.112-1.566.245-.6696.367-1.4292.367-2.2788 0-.864-.122-1.6236-.367-2.2788-.238-.6624-.605-1.1772-1.102-1.5444-.496-.3744-1.126-.5616-1.89-.5616-.792 0-1.447.1944-1.965.5832-.511.3888-.893.9144-1.145 1.5768-.245.6624-.367 1.404-.367 2.2248 0 .828.126 1.5768.378 2.2464.252.6624.63 1.188 1.134 1.5768.511.3888 1.148.5832 1.911.5832zm3.413 1.4364v-8.586h-.216v-6.966h1.933v15.552zm9.322.324c-1.087 0-2.019-.27-2.797-.81-.777-.5472-1.379-1.2852-1.803-2.214-.418-.9288-.627-1.9764-.627-3.1428s.209-2.214.627-3.1428c.424-.9288 1.026-1.6596 1.803-2.1924.778-.54 1.707-.81 2.787-.81 1.101 0 2.026.2664 2.775.7992s1.314 1.2636 1.696 2.1924c.389.9288.583 1.98.583 3.1536 0 1.1592-.194 2.2068-.583 3.1428-.382.9288-.947 1.6668-1.696 2.214-.749.54-1.67.81-2.765.81zm.238-1.7604c.785 0 1.429-.1872 1.933-.5616.504-.3816.875-.9036 1.113-1.566.244-.6696.367-1.4292.367-2.2788 0-.864-.123-1.6236-.367-2.2788-.238-.6624-.605-1.1772-1.102-1.5444-.497-.3744-1.127-.5616-1.89-.5616-.792 0-1.447.1944-1.966.5832-.511.3888-.892.9144-1.144 1.5768-.245.6624-.368 1.404-.368 2.2248 0 .828.126 1.5768.378 2.2464.252.6624.63 1.188 1.134 1.5768.512.3888 1.149.5832 1.912.5832zm3.413 1.4364v-8.586h-.216v-6.966h1.933v15.552zm4.959 0v-15.876h1.922v15.876zm10.217.324c-1.145 0-2.145-.252-3.002-.756-.85-.5112-1.512-1.2204-1.987-2.1276-.476-.9144-.713-1.98-.713-3.1968 0-1.2744.234-2.376.702-3.3048.468-.936 1.119-1.656 1.955-2.16.842-.5112 1.828-.7668 2.959-.7668 1.173 0 2.171.27 2.991.81.828.54 1.448 1.3104 1.858 2.3112.418 1.0008.598 2.1924.54 3.5748h-1.944v-.6912c-.022-1.4328-.313-2.502-.875-3.2076-.561-.7128-1.397-1.0692-2.505-1.0692-1.188 0-2.092.3816-2.711 1.1448s-.929 1.8576-.929 3.2832c0 1.3752.31 2.4408.929 3.1968s1.501 1.134 2.646 1.134c.77 0 1.44-.1764 2.009-.5292.568-.3528 1.015-.8604 1.339-1.5228l1.847.6372c-.454 1.0296-1.138 1.8288-2.052 2.3976-.908.5616-1.926.8424-3.057.8424zm-4.309-5.616v-1.5444h8.618v1.5444z" fill="#7a7a7a"/><g clip-rule="evenodd" fill-rule="evenodd"><path d="m22.5881 24c0 13.2548 10.7451 24 24 24 13.2548 0 24-10.7452 24-24s-10.7452-24-24-24v7.27273c9.2382 0 16.7273 7.48907 16.7273 16.72727s-7.4891 16.7273-16.7273 16.7273-16.7273-7.4891-16.7273-16.7273z" fill="#7a7a7a"/><path d="m47.9999 24c0-13.2548-10.7452-24.00000857-24-24.00000973-13.2549-.00000116-24.00003407 10.74520973-24.00003523 24.00000973s10.74513523 24 24.00003523 24v-7.2727c-9.2382 0-16.72731-7.4891-16.72731-16.7273s7.48911-16.72728 16.72731-16.72728 16.7273 7.48908 16.7273 16.72728z" fill="#7a7a7a"/></g></svg>