<svg width="910" height="320" viewBox="0 0 910 320" fill="none" xmlns="http://www.w3.org/2000/svg">
<path d="M61.3223 254.359V78.0884H180.262V111.409H100.969V146.002H171.367V178.56H100.969V221.038H186.107V254.359H61.3223ZM271.481 161.264L297.912 120.566H337.051L291.305 184.919C301.47 197.637 310.705 210.016 319.006 222.056C327.309 234.095 333.916 244.863 338.83 254.359H298.167C296.811 251.816 295.117 248.679 293.084 244.948C291.051 241.048 288.763 237.063 286.222 232.993C283.68 228.753 280.97 224.599 278.089 220.529C275.379 216.29 272.668 212.474 269.957 209.083C267.415 212.305 264.789 215.866 262.078 219.766C259.537 223.666 257.08 227.651 254.708 231.721C252.336 235.621 249.964 239.522 247.592 243.422C245.39 247.322 243.441 250.968 241.747 254.359H203.117C205.15 250.12 207.945 245.118 211.503 239.352C215.061 233.586 218.874 227.651 222.94 221.547C227.176 215.272 231.581 209.083 236.155 202.979C240.73 196.704 245.22 190.854 249.625 185.428C242.001 174.745 234.376 163.977 226.752 153.124C219.128 142.102 211.589 131.249 204.133 120.566H245.05L271.481 161.264Z" fill="#7A7A7A"/>
<path d="M493.704 99.7089C501.837 127.01 509.969 151.768 518.102 173.982C526.404 196.026 534.451 216.29 542.245 234.773C548.175 214.764 554.021 191.194 559.781 164.062C565.711 136.93 571.388 108.273 576.809 78.0884H593.837C590.787 96.2324 587.653 113.274 584.433 129.215C581.384 144.985 578.164 160.076 574.776 174.49C571.388 188.735 567.83 202.47 564.102 215.697C560.374 228.753 556.308 241.641 551.903 254.359H533.35C529.284 244.693 525.218 235.028 521.152 225.362C517.255 215.697 513.358 205.777 509.461 195.602C505.564 185.258 501.667 174.49 497.77 163.299C493.874 152.107 489.892 140.236 485.825 127.688C481.759 140.236 477.693 152.107 473.627 163.299C469.73 174.49 465.833 185.258 461.936 195.602C458.039 205.777 454.057 215.697 449.991 225.362C446.095 235.028 442.113 244.693 438.046 254.359H419.748C415.173 241.641 410.937 228.753 407.041 215.697C403.313 202.47 399.755 188.735 396.367 174.49C393.147 160.076 390.013 144.985 386.963 129.215C384.083 113.274 381.118 96.2324 378.068 78.0884H395.858C398.4 93.011 401.026 107.679 403.737 122.092C406.448 136.337 409.244 150.156 412.124 163.553C415.173 176.949 418.223 189.667 421.273 201.707C424.492 213.577 427.626 224.599 430.676 234.773C437.962 215.951 445.755 195.602 454.057 173.727C462.36 151.683 470.577 127.01 478.709 99.7089H493.704ZM614.208 188.48C614.208 176.949 615.818 166.944 619.036 158.466C622.425 149.818 626.746 142.611 631.998 136.845C637.42 131.08 643.519 126.841 650.296 124.127C657.243 121.245 664.359 119.803 671.644 119.803C687.741 119.803 700.532 125.06 710.02 135.573C719.677 146.087 724.506 162.281 724.506 184.156C724.506 185.512 724.422 186.869 724.252 188.226C724.252 189.582 724.168 190.854 723.998 192.041H631.744C632.252 208.15 636.234 220.529 643.688 229.178C651.144 237.826 663.003 242.15 679.269 242.15C688.249 242.15 695.365 241.302 700.617 239.606C705.869 237.91 709.681 236.469 712.053 235.282L715.103 249.526C712.731 250.883 708.241 252.494 701.633 254.359C695.195 256.224 687.571 257.157 678.76 257.157C667.239 257.157 657.412 255.461 649.28 252.07C641.147 248.679 634.455 243.93 629.202 237.826C623.95 231.721 620.138 224.515 617.766 216.205C615.394 207.727 614.208 198.485 614.208 188.48ZM707.479 178.051C707.14 164.316 703.921 153.633 697.821 146.002C691.722 138.371 683.081 134.556 671.898 134.556C665.969 134.556 660.632 135.743 655.887 138.117C651.313 140.491 647.246 143.713 643.688 147.783C640.3 151.683 637.589 156.261 635.556 161.518C633.692 166.775 632.591 172.286 632.252 178.051H707.479ZM794.612 256.648C789.021 256.479 784.108 255.715 779.872 254.359C775.806 253.172 772.333 251.307 769.452 248.763C766.742 246.05 764.623 242.659 763.098 238.589C761.743 234.349 761.065 229.093 761.065 222.819V60.0289L777.585 56.9766V222.31C777.585 226.38 777.924 229.686 778.601 232.23C779.449 234.604 780.634 236.554 782.159 238.08C783.684 239.436 785.633 240.454 788.005 241.132C790.546 241.811 793.511 242.404 796.9 242.913L794.612 256.648ZM859.393 256.648C853.802 256.479 848.883 255.715 844.652 254.359C840.586 253.172 837.11 251.307 834.233 248.763C831.519 246.05 829.404 242.659 827.879 238.589C826.518 234.349 825.846 229.093 825.846 222.819V60.0289L842.365 56.9766V222.31C842.365 226.38 842.701 229.686 843.382 232.23C844.226 234.604 845.415 236.554 846.94 238.08C848.465 239.436 850.408 240.454 852.785 241.132C855.327 241.811 858.286 242.404 861.68 242.913L859.393 256.648Z" fill="#7A7A7A"/>
<path d="M65.5847 311.795H8.19727V254.359" stroke="#7A7A7A" stroke-width="9"/>
<path d="M844.414 8.20508H901.801V65.641" stroke="#7A7A7A" stroke-width="9"/>
</svg>
