<svg width="1196" height="242" viewBox="0 0 1196 242" fill="none" xmlns="http://www.w3.org/2000/svg">
<g clip-path="url(#clip0_28212_1034)">
<path d="M189 132.339L243 101.279V38.9492L189 70.0192V132.339Z" fill="#0E52B8"/>
<path d="M0 38.8691V101.189L53.97 132.269L53.95 69.9391L0 38.8691Z" fill="#0E52B8"/>
<path d="M112.47 31.12L58.5 0L4.52002 31.09L58.5 62.18L112.47 31.12Z" fill="#0180FF"/>
<path d="M62.98 147.84L63 210.13L117 241.23V178.96L62.98 147.84Z" fill="#0E52B8"/>
<path d="M126 241.13L179.99 210.03L180 147.9L126 178.96V241.13Z" fill="#0E52B8"/>
<path d="M238.48 31.1603L184.5 0.0703125L130.51 31.1303L184.46 62.2403L238.48 31.1603Z" fill="#0180FF"/>
<path d="M117 106.261L62.95 75.1309L62.9799 137.461L117 168.571V106.261Z" fill="#0E52B8"/>
<path d="M126 106.259V168.579L180 137.519V75.1895L126 106.259Z" fill="#0E52B8"/>
<path d="M67.52 67.3703L121.5 98.4703L175.44 67.4303L121.49 36.3203L67.52 67.3703Z" fill="#0180FF"/>
<path d="M339.21 184.739C327.877 184.406 318.177 180.856 310.11 174.089C301.637 167.189 297.403 158.826 297.41 148.999V80.2492C297.41 70.3492 301.643 61.9492 310.11 55.0492C318.577 48.1492 328.873 44.6992 341 44.6992H364.6C376.507 44.6992 386.793 48.1492 395.46 55.0492C403.92 61.9492 408.15 70.3492 408.15 80.2492V148.999C408.15 158.833 403.92 167.196 395.46 174.089C387.265 180.797 377.049 184.549 366.46 184.739V204.269H339.21V184.739ZM382.18 80.9992C382.18 76.8326 380.18 73.1859 376.18 70.0592C372.575 67.1909 368.097 65.6419 363.49 65.6692H341.75C337.14 65.6404 332.658 67.1895 329.05 70.0592C325.283 73.1992 323.397 76.8459 323.39 80.9992V148.179C323.39 152.286 325.277 155.899 329.05 159.019C332.657 161.892 337.139 163.444 341.75 163.419H363.53C368.138 163.443 372.616 161.89 376.22 159.019C380.22 155.899 382.22 152.286 382.22 148.179L382.18 80.9992Z" fill="url(#paint0_linear_28212_1034)"/>
<path d="M457.47 44.6992V148.209C457.47 152.316 459.36 155.929 463.14 159.049C466.743 161.923 471.221 163.476 475.83 163.449H497.61C502.219 163.476 506.697 161.923 510.3 159.049C514.3 155.929 516.3 152.316 516.3 148.209V44.6992H542.3V148.999C542.3 158.833 538.067 167.196 529.6 174.089C520.933 181.189 510.647 184.739 498.74 184.739H475.05C462.937 184.739 452.65 181.189 444.19 174.089C435.73 167.189 431.497 158.826 431.49 148.999V44.6992H457.47Z" fill="url(#paint1_linear_28212_1034)"/>
<path d="M616.46 83.2702L590.58 184.74H563.33L602.78 44.7402H630L669.45 184.74H642.24L616.46 83.2702Z" fill="url(#paint2_linear_28212_1034)"/>
<path d="M717.63 184.739H691.06V44.6992H726.81L772 134.049V44.6992H798.76V184.699H772.51L717.63 75.6592V184.739Z" fill="url(#paint3_linear_28212_1034)"/>
<path d="M866.85 66.7692H821.85V44.6992H940.28V66.7692H895.28V184.769H866.85V66.7692Z" fill="url(#paint4_linear_28212_1034)"/>
<path d="M962.26 148.7V80.6999C962.26 70.8733 966.457 62.4433 974.85 55.4099C983.25 48.5833 993.407 45.0033 1005.32 44.6699H1066.06V67.0599H1007.18C1002.58 66.9862 998.066 68.3648 994.29 70.9999C990.45 73.9866 988.53 77.5033 988.53 81.5499V100.2H1066.06V122.76H988.53V147.95C988.53 151.99 990.45 155.507 994.29 158.5C998.069 161.124 1002.58 162.492 1007.18 162.41H1066.06V184.77H1004.54C992.627 184.25 982.627 180.583 974.54 173.77C966.353 166.69 962.26 158.333 962.26 148.7Z" fill="url(#paint5_linear_28212_1034)"/>
<path d="M1141.26 88.1592L1165.09 44.6992H1194.29L1155.62 114.229L1194.29 184.739H1166.06L1141.26 140.109L1116.36 184.739H1088.14L1126.81 114.229L1088.14 44.6992H1117.33L1141.26 88.1592Z" fill="url(#paint6_linear_28212_1034)"/>
<path d="M339.21 184.739C327.877 184.406 318.177 180.856 310.11 174.089C301.637 167.189 297.403 158.826 297.41 148.999V80.2492C297.41 70.3492 301.643 61.9492 310.11 55.0492C318.577 48.1492 328.873 44.6992 341 44.6992H364.6C376.507 44.6992 386.793 48.1492 395.46 55.0492C403.92 61.9492 408.15 70.3492 408.15 80.2492V148.999C408.15 158.833 403.92 167.196 395.46 174.089C387.265 180.797 377.049 184.549 366.46 184.739V204.269H339.21V184.739ZM382.18 80.9992C382.18 76.8326 380.18 73.1859 376.18 70.0592C372.575 67.1909 368.097 65.6419 363.49 65.6692H341.75C337.14 65.6404 332.658 67.1895 329.05 70.0592C325.283 73.1992 323.397 76.8459 323.39 80.9992V148.179C323.39 152.286 325.277 155.899 329.05 159.019C332.657 161.892 337.139 163.444 341.75 163.419H363.53C368.138 163.443 372.616 161.89 376.22 159.019C380.22 155.899 382.22 152.286 382.22 148.179L382.18 80.9992Z" fill="black" stroke="white" stroke-miterlimit="10"/>
<path d="M457.47 44.6992V148.209C457.47 152.316 459.36 155.929 463.14 159.049C466.743 161.923 471.221 163.476 475.83 163.449H497.61C502.219 163.476 506.697 161.923 510.3 159.049C514.3 155.929 516.3 152.316 516.3 148.209V44.6992H542.3V148.999C542.3 158.833 538.067 167.196 529.6 174.089C520.933 181.189 510.647 184.739 498.74 184.739H475.05C462.937 184.739 452.65 181.189 444.19 174.089C435.73 167.189 431.497 158.826 431.49 148.999V44.6992H457.47Z" fill="black" stroke="white" stroke-miterlimit="10"/>
<path d="M616.46 83.2702L590.58 184.74H563.33L602.78 44.7402H630L669.45 184.74H642.24L616.46 83.2702Z" fill="black" stroke="white" stroke-miterlimit="10"/>
<path d="M717.63 184.739H691.06V44.6992H726.81L772 134.049V44.6992H798.76V184.699H772.51L717.63 75.6592V184.739Z" fill="black" stroke="white" stroke-miterlimit="10"/>
<path d="M866.85 66.7692H821.85V44.6992H940.28V66.7692H895.28V184.769H866.85V66.7692Z" fill="black" stroke="white" stroke-miterlimit="10"/>
<path d="M962.26 148.7V80.6999C962.26 70.8733 966.457 62.4433 974.85 55.4099C983.25 48.5833 993.407 45.0033 1005.32 44.6699H1066.06V67.0599H1007.18C1002.58 66.9862 998.066 68.3648 994.29 70.9999C990.45 73.9866 988.53 77.5033 988.53 81.5499V100.2H1066.06V122.76H988.53V147.95C988.53 151.99 990.45 155.507 994.29 158.5C998.069 161.124 1002.58 162.492 1007.18 162.41H1066.06V184.77H1004.54C992.627 184.25 982.627 180.583 974.54 173.77C966.353 166.69 962.26 158.333 962.26 148.7Z" fill="black" stroke="white" stroke-miterlimit="10"/>
<path d="M1141.26 88.1592L1165.09 44.6992H1194.29L1155.62 114.229L1194.29 184.739H1166.06L1141.26 140.109L1116.36 184.739H1088.14L1126.81 114.229L1088.14 44.6992H1117.33L1141.26 88.1592Z" fill="black" stroke="white" stroke-miterlimit="10"/>
<path d="M339.21 184.739C327.877 184.406 318.177 180.856 310.11 174.089C301.637 167.189 297.403 158.826 297.41 148.999V80.2492C297.41 70.3492 301.643 61.9492 310.11 55.0492C318.577 48.1492 328.873 44.6992 341 44.6992H364.6C376.507 44.6992 386.793 48.1492 395.46 55.0492C403.92 61.9492 408.15 70.3492 408.15 80.2492V148.999C408.15 158.833 403.92 167.196 395.46 174.089C387.265 180.797 377.049 184.549 366.46 184.739V204.269H339.21V184.739ZM382.18 80.9992C382.18 76.8326 380.18 73.1859 376.18 70.0592C372.575 67.1909 368.097 65.6419 363.49 65.6692H341.75C337.14 65.6404 332.658 67.1895 329.05 70.0592C325.283 73.1992 323.397 76.8459 323.39 80.9992V148.179C323.39 152.286 325.277 155.899 329.05 159.019C332.657 161.892 337.139 163.444 341.75 163.419H363.53C368.138 163.443 372.616 161.89 376.22 159.019C380.22 155.899 382.22 152.286 382.22 148.179L382.18 80.9992Z" fill="url(#paint7_linear_28212_1034)"/>
<path d="M457.47 44.6992V148.209C457.47 152.316 459.36 155.929 463.14 159.049C466.743 161.923 471.221 163.476 475.83 163.449H497.61C502.219 163.476 506.697 161.923 510.3 159.049C514.3 155.929 516.3 152.316 516.3 148.209V44.6992H542.3V148.999C542.3 158.833 538.067 167.196 529.6 174.089C520.933 181.189 510.647 184.739 498.74 184.739H475.05C462.937 184.739 452.65 181.189 444.19 174.089C435.73 167.189 431.497 158.826 431.49 148.999V44.6992H457.47Z" fill="url(#paint8_linear_28212_1034)"/>
<path d="M616.46 83.2702L590.58 184.74H563.33L602.78 44.7402H630L669.45 184.74H642.24L616.46 83.2702Z" fill="url(#paint9_linear_28212_1034)"/>
<path d="M717.63 184.739H691.06V44.6992H726.81L772 134.049V44.6992H798.76V184.699H772.51L717.63 75.6592V184.739Z" fill="url(#paint10_linear_28212_1034)"/>
<path d="M866.85 66.7692H821.85V44.6992H940.28V66.7692H895.28V184.769H866.85V66.7692Z" fill="url(#paint11_linear_28212_1034)"/>
<path d="M962.26 148.7V80.6999C962.26 70.8733 966.457 62.4433 974.85 55.4099C983.25 48.5833 993.407 45.0033 1005.32 44.6699H1066.06V67.0599H1007.18C1002.58 66.9862 998.066 68.3648 994.29 70.9999C990.45 73.9866 988.53 77.5033 988.53 81.5499V100.2H1066.06V122.76H988.53V147.95C988.53 151.99 990.45 155.507 994.29 158.5C998.069 161.124 1002.58 162.492 1007.18 162.41H1066.06V184.77H1004.54C992.627 184.25 982.627 180.583 974.54 173.77C966.353 166.69 962.26 158.333 962.26 148.7Z" fill="url(#paint12_linear_28212_1034)"/>
<path d="M1141.26 88.1592L1165.09 44.6992H1194.29L1155.62 114.229L1194.29 184.739H1166.06L1141.26 140.109L1116.36 184.739H1088.14L1126.81 114.229L1088.14 44.6992H1117.33L1141.26 88.1592Z" fill="url(#paint13_linear_28212_1034)"/>
</g>
<defs>
<linearGradient id="paint0_linear_28212_1034" x1="297.41" y1="124.479" x2="1068.58" y2="124.479" gradientUnits="userSpaceOnUse">
<stop stop-color="#0E52B8"/>
<stop offset="0.11" stop-color="#0D4CAA"/>
<stop offset="0.31" stop-color="#0A3C86"/>
<stop offset="0.58" stop-color="#06214B"/>
<stop offset="0.89"/>
</linearGradient>
<linearGradient id="paint1_linear_28212_1034" x1="297.41" y1="124.479" x2="1068.58" y2="124.479" gradientUnits="userSpaceOnUse">
<stop stop-color="#0E52B8"/>
<stop offset="0.11" stop-color="#0D4CAA"/>
<stop offset="0.31" stop-color="#0A3C86"/>
<stop offset="0.58" stop-color="#06214B"/>
<stop offset="0.89"/>
</linearGradient>
<linearGradient id="paint2_linear_28212_1034" x1="297.41" y1="124.48" x2="1068.58" y2="124.48" gradientUnits="userSpaceOnUse">
<stop stop-color="#0E52B8"/>
<stop offset="0.11" stop-color="#0D4CAA"/>
<stop offset="0.31" stop-color="#0A3C86"/>
<stop offset="0.58" stop-color="#06214B"/>
<stop offset="0.89"/>
</linearGradient>
<linearGradient id="paint3_linear_28212_1034" x1="297.41" y1="124.479" x2="1068.58" y2="124.479" gradientUnits="userSpaceOnUse">
<stop stop-color="#0E52B8"/>
<stop offset="0.11" stop-color="#0D4CAA"/>
<stop offset="0.31" stop-color="#0A3C86"/>
<stop offset="0.58" stop-color="#06214B"/>
<stop offset="0.89"/>
</linearGradient>
<linearGradient id="paint4_linear_28212_1034" x1="297.41" y1="124.479" x2="1068.58" y2="124.479" gradientUnits="userSpaceOnUse">
<stop stop-color="#0E52B8"/>
<stop offset="0.11" stop-color="#0D4CAA"/>
<stop offset="0.31" stop-color="#0A3C86"/>
<stop offset="0.58" stop-color="#06214B"/>
<stop offset="0.89"/>
</linearGradient>
<linearGradient id="paint5_linear_28212_1034" x1="297.41" y1="124.48" x2="1068.58" y2="124.48" gradientUnits="userSpaceOnUse">
<stop stop-color="#0E52B8"/>
<stop offset="0.11" stop-color="#0D4CAA"/>
<stop offset="0.31" stop-color="#0A3C86"/>
<stop offset="0.58" stop-color="#06214B"/>
<stop offset="0.89"/>
</linearGradient>
<linearGradient id="paint6_linear_28212_1034" x1="297.41" y1="124.479" x2="1068.58" y2="124.479" gradientUnits="userSpaceOnUse">
<stop stop-color="#0E52B8"/>
<stop offset="0.11" stop-color="#0D4CAA"/>
<stop offset="0.31" stop-color="#0A3C86"/>
<stop offset="0.58" stop-color="#06214B"/>
<stop offset="0.89"/>
</linearGradient>
<linearGradient id="paint7_linear_28212_1034" x1="297.41" y1="124.479" x2="1068.58" y2="124.479" gradientUnits="userSpaceOnUse">
<stop stop-color="#0E52B8"/>
<stop offset="1" stop-color="#0180FF"/>
</linearGradient>
<linearGradient id="paint8_linear_28212_1034" x1="297.41" y1="124.479" x2="1068.58" y2="124.479" gradientUnits="userSpaceOnUse">
<stop stop-color="#0E52B8"/>
<stop offset="1" stop-color="#0180FF"/>
</linearGradient>
<linearGradient id="paint9_linear_28212_1034" x1="297.41" y1="124.48" x2="1068.58" y2="124.48" gradientUnits="userSpaceOnUse">
<stop stop-color="#0E52B8"/>
<stop offset="1" stop-color="#0180FF"/>
</linearGradient>
<linearGradient id="paint10_linear_28212_1034" x1="297.41" y1="124.479" x2="1068.58" y2="124.479" gradientUnits="userSpaceOnUse">
<stop stop-color="#0E52B8"/>
<stop offset="1" stop-color="#0180FF"/>
</linearGradient>
<linearGradient id="paint11_linear_28212_1034" x1="297.41" y1="124.479" x2="1068.58" y2="124.479" gradientUnits="userSpaceOnUse">
<stop stop-color="#0E52B8"/>
<stop offset="1" stop-color="#0180FF"/>
</linearGradient>
<linearGradient id="paint12_linear_28212_1034" x1="297.41" y1="124.48" x2="1068.58" y2="124.48" gradientUnits="userSpaceOnUse">
<stop stop-color="#0E52B8"/>
<stop offset="1" stop-color="#0180FF"/>
</linearGradient>
<linearGradient id="paint13_linear_28212_1034" x1="297.41" y1="124.479" x2="1068.58" y2="124.479" gradientUnits="userSpaceOnUse">
<stop stop-color="#0E52B8"/>
<stop offset="1" stop-color="#0180FF"/>
</linearGradient>
<clipPath id="clip0_28212_1034">
<rect width="1195.14" height="241.23" fill="white"/>
</clipPath>
</defs>
</svg>
