<svg width="406" height="94" viewBox="0 0 406 94" fill="none" xmlns="http://www.w3.org/2000/svg">
<g clip-path="url(#clip0_606_16)">
<path d="M317.262 46.5474C317.262 44.1708 317.262 41.9354 317.185 39.8709C317.133 37.9232 316.94 35.9819 316.608 34.0621C316.298 32.309 315.75 30.6063 314.98 29.0013C314.166 27.3463 313.08 25.8406 311.765 24.5474C309.901 22.6373 307.683 21.1086 305.234 20.0465C302.585 18.9735 299.748 18.4416 296.891 18.4821C294.022 18.4451 291.175 18.9768 288.513 20.0465C286.05 21.0941 283.818 22.6162 281.943 24.526C280.631 25.8184 279.549 27.3245 278.742 28.9799C277.978 30.5853 277.439 32.2882 277.139 34.0407C276.815 35.9611 276.629 37.9024 276.583 39.8495C276.532 41.914 276.506 44.1495 276.519 46.526C276.532 48.9025 276.519 51.1209 276.583 53.1982C276.629 55.1453 276.815 57.0866 277.139 59.007C277.439 60.7595 277.978 62.4624 278.742 64.0678C279.552 65.7213 280.634 67.2269 281.943 68.5217C283.815 70.4331 286.048 71.9529 288.513 72.9926C291.173 74.0694 294.021 74.6041 296.891 74.5656C299.749 74.6077 302.587 74.0727 305.234 72.9926C307.683 71.9447 309.902 70.4256 311.765 68.5217C313.077 67.226 314.163 65.7208 314.98 64.0678C315.75 62.4627 316.298 60.7601 316.608 59.007C316.936 57.0926 317.126 55.157 317.177 53.2153C317.241 51.138 317.271 48.9153 317.253 46.5431L317.262 46.5474ZM306.491 46.5474C306.491 49.1803 306.452 51.3731 306.362 53.117C306.312 54.5495 306.169 55.9772 305.935 57.3913C305.775 58.3335 305.487 59.2494 305.08 60.1141C304.75 60.811 304.318 61.4549 303.798 62.0247C302.996 62.9432 302 63.673 300.883 64.1619C299.625 64.6999 298.271 64.9734 296.903 64.9656C295.529 64.9715 294.168 64.6981 292.903 64.1619C291.758 63.6821 290.736 62.9518 289.911 62.0247C289.388 61.4574 288.955 60.813 288.628 60.1141C288.233 59.2486 287.959 58.3322 287.816 57.3913C287.588 55.9764 287.445 54.5491 287.389 53.117C287.312 51.3731 287.273 49.1832 287.273 46.5474C287.273 43.9144 287.312 41.7174 287.389 39.9735C287.445 38.5414 287.588 37.114 287.816 35.6991C287.959 34.7583 288.233 33.8419 288.628 32.9764C288.956 32.278 289.389 31.6337 289.911 31.0658C290.737 30.1399 291.759 29.4099 292.903 28.9286C294.166 28.3863 295.529 28.1126 296.903 28.125C298.272 28.1108 299.627 28.3846 300.883 28.9286C301.999 29.4189 302.994 30.1485 303.798 31.0658C304.317 31.6363 304.749 32.2801 305.08 32.9764C305.487 33.841 305.775 34.757 305.935 35.6991C306.169 37.1133 306.312 38.541 306.362 39.9735C306.456 41.7131 306.491 43.9101 306.491 46.5474Z" fill="#7A7A7A"/>
<path d="M403.09 19.9095C403.086 19.3897 402.665 18.9695 402.146 18.9648H393.259C392.739 18.9672 392.317 19.3887 392.315 19.9095V52.7363L370.644 19.2299C370.499 19.0033 370.37 18.9648 370.05 18.9648H361.809C361.29 18.9717 360.871 19.3907 360.864 19.9095V73.1761C360.871 73.6942 361.291 74.1119 361.809 74.1165H370.691C371.209 74.1141 371.629 73.6945 371.631 73.1761V40.2638L393.306 73.8472C393.456 74.0737 393.576 74.1122 393.901 74.1122H402.137C402.656 74.1099 403.077 73.6909 403.082 73.1719L403.09 19.9095Z" fill="#7A7A7A"/>
<path d="M343.523 19.9095C343.521 19.3887 343.099 18.9672 342.579 18.9648H333.701C333.18 18.9672 332.759 19.3887 332.756 19.9095V73.1719C332.759 73.6926 333.18 74.1141 333.701 74.1165H342.579C343.099 74.1141 343.521 73.6926 343.523 73.1719V19.9095Z" fill="#7A7A7A"/>
<path d="M237.247 46.5472C237.247 43.8971 237.276 41.6915 237.353 39.9348C237.406 38.5024 237.548 37.0748 237.781 35.6605C238.602 30.916 242.235 28.1163 246.872 28.1163C249.899 28.1419 252.643 29.2618 254.395 31.8093C255.189 32.9986 255.767 34.318 256.105 35.7075C256.131 35.8538 256.265 35.956 256.413 35.9426H266.863C267.013 35.9426 267.069 35.84 267.043 35.6947C265.902 29.2276 262.452 23.4188 256.357 20.5422C253.361 19.1552 250.092 18.4612 246.791 18.5119C240.907 18.5119 235.95 20.5265 231.921 24.5558C229.62 26.7978 228.05 29.6819 227.416 32.8309C226.8 35.9312 226.489 40.5018 226.484 46.5429C226.478 52.5839 226.789 57.1532 227.416 60.2507C228.045 63.4037 229.61 66.2936 231.908 68.5429C235.934 72.5693 240.891 74.5825 246.778 74.5825C250.078 74.6324 253.348 73.94 256.344 72.5564C262.439 69.6798 265.889 63.871 267.03 57.404C267.056 57.2544 267 57.156 266.851 57.156H256.396C256.247 57.1405 256.112 57.2436 256.088 57.3911C255.75 58.779 255.171 60.0969 254.378 61.285C252.626 63.8496 249.881 64.9567 246.855 64.9781C242.218 64.9781 238.584 62.1827 237.764 57.4382C237.532 56.0238 237.389 54.5962 237.336 53.1638C237.276 51.3985 237.247 49.1887 237.247 46.5472Z" fill="#7A7A7A"/>
<path d="M126.866 19.9095C126.864 19.3887 126.442 18.9672 125.922 18.9648H117.044C116.523 18.9672 116.102 19.3887 116.099 19.9095V73.1761C116.104 73.6952 116.525 74.1142 117.044 74.117H125.922C126.441 74.1142 126.862 73.6952 126.866 73.1761V57.5406L133.992 49.0219L148.627 73.8344C148.74 74.0173 148.942 74.1252 149.157 74.117H159.945C160.441 74.117 160.531 73.8087 160.283 73.3856L141.121 40.9007L158.702 19.8112C159.056 19.3837 158.907 18.9777 158.351 18.9777H146.558C146.415 18.9692 146.277 19.0335 146.191 19.1486L126.866 42.324V19.9095Z" fill="#7A7A7A"/>
<path d="M191.545 64.978C186.549 64.978 182.018 60.3532 182.018 54.8307V19.9095C182.016 19.3887 181.594 18.9672 181.073 18.9648H172.196C171.675 18.9672 171.253 19.3887 171.251 19.9095V54.6939C171.251 66.8544 180.347 74.5824 191.545 74.5824C202.744 74.5824 211.84 66.8544 211.84 54.6939V19.9095C211.835 19.3897 211.415 18.9695 210.895 18.9648H202.013C201.494 18.9695 201.075 19.3904 201.073 19.9095V54.8307C201.073 60.3489 196.538 64.978 191.545 64.978Z" fill="#7A7A7A"/>
<path fill-rule="evenodd" clip-rule="evenodd" d="M26.8599 46.5472L54.4207 74.1123L71.8172 56.7158C74.928 53.9148 79.687 54.0394 82.6469 56.9993C85.6068 59.9592 85.7314 64.7183 82.9305 67.829L59.9731 90.7907C56.8894 93.8234 51.9435 93.8234 48.8598 90.7907L15.7381 57.6604V77.3522C15.7381 81.6982 12.215 85.2213 7.86904 85.2213C3.52309 85.2213 0 81.6982 0 77.3522V15.7164C0 11.3705 3.52309 7.84741 7.86904 7.84741C12.215 7.84741 15.7381 11.3705 15.7381 15.7164V35.4083L48.8556 2.28651C51.9383 -0.748499 56.886 -0.748499 59.9688 2.28651L82.9433 25.2439C85.7443 28.3546 85.6197 33.1137 82.6598 36.0736C79.6999 39.0335 74.9408 39.1581 71.8301 36.3572L54.4336 18.9607L26.8599 46.5472ZM54.4336 38.6696C51.247 38.6679 48.3732 40.5861 47.1526 43.5296C45.9319 46.4731 46.6048 49.8621 48.8575 52.1159C51.1101 54.3698 54.4987 55.0446 57.4429 53.8255C60.3871 52.6065 62.3069 49.7337 62.3069 46.5472C62.308 44.4579 61.4791 42.4538 60.0026 40.9756C58.5261 39.4975 56.5228 38.6664 54.4336 38.6653V38.6696Z" fill="#7A7A7A"/>
</g>
<defs>
<clipPath id="clip0_606_16">
<rect width="406" height="93.1803" fill="white"/>
</clipPath>
</defs>
</svg>
