<svg width="1104" height="278" viewBox="0 0 1104 278" fill="none" xmlns="http://www.w3.org/2000/svg">
<g clip-path="url(#clip0_29682_1154)">
<path d="M161.948 181.551L181.868 178.663L245.77 214.77L221.352 218.623L161.948 181.551Z" fill="#7A7A7A"/>
<path d="M187.003 92.4717L176.478 108.18L260.087 95.4064L259.072 82.9224L187.003 92.4717Z" fill="#7A7A7A"/>
<path d="M187.003 92.4717L176.478 108.18L139.9 28.1157L154.08 26.145L187.003 92.4717Z" fill="#7A7A7A"/>
<path d="M214.184 148.415L194.863 147.808L192 150.703L221.352 218.623L245.771 214.77L214.184 148.415Z" fill="#7A7A7A"/>
<path d="M125.514 103.273L142.978 99.9001L154.08 26.1441L139.9 28.1148L125.514 103.273Z" fill="#7A7A7A"/>
<path d="M214.205 148.468L192.001 150.703L259.072 82.9205L261.15 100.184L214.205 148.468Z" fill="#7A7A7A"/>
<path d="M39.1929 96.2176C34.6809 92.8336 116.41 163.795 116.41 163.795C116.41 163.795 78.5755 255.994 80.2889 252.42C114.453 216.606 207.664 139.718 240.593 33.4069C217.261 58.8002 167.768 121.646 39.1929 96.2176Z" fill="#7A7A7A"/>
<mask id="mask0_29682_1154" style="mask-type:luminance" maskUnits="userSpaceOnUse" x="-115" y="-8" width="1334" height="295">
<path d="M-115 -8.00063H1218.33V286.666H-115V-8.00063Z" fill="white"/>
</mask>
<g mask="url(#mask0_29682_1154)">
<path d="M240.594 33.4062C207.665 139.716 114.454 216.605 80.2899 252.418C78.5765 255.993 116.41 163.796 116.41 163.796C130.898 103.966 188.459 131.248 240.594 33.4062Z" fill="#7A7A7A"/>
<path d="M325.161 194.001C328.515 194.373 332.058 194.373 335.411 194.373C346.97 194.373 357.598 188.781 357.598 177.783C357.598 165.852 349.579 159.327 333.921 159.327H325.161V194.001ZM331.685 139.381C347.531 139.381 356.853 132.671 356.853 120.925C356.853 111.417 349.955 103.403 335.785 103.403C331.873 103.403 328.887 103.403 325.161 103.776V139.381H331.685ZM300.553 84.5746C310.994 83.2693 326.278 82.524 334.109 82.524C365.613 82.524 382.762 95.9453 382.95 116.824C383.135 133.603 371.95 143.481 356.665 147.024C374.562 149.819 383.695 161.937 383.695 177.411C383.695 203.136 360.207 215.252 332.43 215.252C322.179 215.252 308.383 214.32 300.553 212.643V84.5746Z" fill="#7A7A7A"/>
<path d="M401.409 122.789H426.016V212.643H401.409V122.789ZM427.88 100.419C427.88 107.689 421.542 113.468 413.712 113.468C405.881 113.468 399.545 107.689 399.545 100.419C399.545 93.1493 405.881 87.3706 413.712 87.3706C421.542 87.3706 427.88 93.1493 427.88 100.419Z" fill="#7A7A7A"/>
<path d="M501.515 123.534V142.921H476.535V179.086C476.535 189.898 481.009 194.373 489.585 194.373C493.499 194.373 497.789 193.627 501.142 192.323L502.073 210.965C496.854 213.201 489.397 214.506 482.873 214.506C462.553 214.506 451.929 204.441 451.929 184.119V142.921H438.691V123.534H451.929V100.79H476.535V123.534H501.515Z" fill="#7A7A7A"/>
<path d="M583.167 209.661C576.269 213.015 566.952 214.506 557.069 214.506C530.599 214.506 512.328 197.73 512.328 168.647C512.328 139.939 533.768 120.925 559.865 120.925C569.745 120.925 578.321 122.415 584.1 125.398L582.421 145.531C577.203 143.107 570.491 141.43 562.663 141.43C548.12 141.43 537.684 151.685 537.684 167.527C537.684 184.306 548.12 194.745 562.291 194.745C568.628 194.745 575.525 193.254 581.491 190.271L583.167 209.661Z" fill="#7A7A7A"/>
<path d="M619.52 167.714C619.52 185.985 627.162 195.491 638.536 195.491C649.906 195.491 657.548 185.985 657.548 167.714C657.548 149.259 649.906 139.939 638.536 139.939C627.162 139.939 619.52 149.259 619.52 167.714ZM683.461 167.714C683.461 197.73 663.516 214.506 638.536 214.506C613.556 214.506 593.606 197.73 593.606 167.714C593.606 137.515 613.556 120.925 638.536 120.925C663.516 120.925 683.461 137.515 683.461 167.714Z" fill="#7A7A7A"/>
<path d="M699.496 122.789H724.103V212.643H699.496V122.789ZM725.966 100.419C725.966 107.689 719.63 113.468 711.8 113.468C703.969 113.468 697.632 107.689 697.632 100.419C697.632 93.1493 703.969 87.3706 711.8 87.3706C719.63 87.3706 725.966 93.1493 725.966 100.419Z" fill="#7A7A7A"/>
<path d="M767.725 139.753C771.641 126.891 781.892 120.925 794.008 120.925C814.143 120.925 826.073 134.347 826.073 152.615V212.643H801.467V162.497C801.467 150.939 796.248 142.921 785.808 142.921C775.552 142.921 769.588 152.243 769.588 166.411V212.643H744.981V122.789H765.673L767.725 139.753Z" fill="#7A7A7A"/>
<path d="M878.088 212.643L833.72 84.3866H860.75L892.816 190.272L924.692 84.3866H950.978L906.61 212.643H878.088Z" fill="#7A7A7A"/>
<path d="M1027.78 212.643L995.158 142.176C989.939 130.991 986.958 123.535 982.108 108.621C982.855 123.535 983.042 130.991 983.042 142.176V212.643H959.182V84.3866H995.719L1028.34 154.852C1033.56 166.037 1036.54 173.495 1041.39 188.408C1040.64 173.495 1040.46 166.037 1040.46 154.852V84.3866H1064.32V212.643H1027.78Z" fill="#7A7A7A"/>
</g>
</g>
<defs>
<clipPath id="clip0_29682_1154">
<rect width="1104" height="278" fill="white"/>
</clipPath>
</defs>
</svg>
