<svg width="607" height="125" viewBox="0 0 607 125" fill="none" xmlns="http://www.w3.org/2000/svg">
<mask id="mask0_27974_44" style="mask-type:luminance" maskUnits="userSpaceOnUse" x="0" y="0" width="607" height="125">
<path d="M606.652 0H0V124.364H606.652V0Z" fill="white"/>
</mask>
<g mask="url(#mask0_27974_44)">
<path d="M75.4336 28.3208L98.2007 48.7475L86.1129 59.0358L75.4336 28.3208Z" fill="#7A7A7A"/>
<path d="M40.9863 97.2837L98.1898 48.7451L113.519 62.5523L40.9892 97.2865L40.9863 97.2837Z" fill="#7A7A7A"/>
<path d="M113.525 62.5551V38.2505L98.1934 48.7479L113.525 62.5551Z" fill="#7A7A7A"/>
<path d="M113.523 38.2505H124.381L132.065 45.0848H113.523V38.2505ZM113.523 45.0848V62.5551L127.871 55.8282L113.526 45.0877L113.523 45.0848Z" fill="#7A7A7A"/>
<path d="M132.065 45.085H113.523L127.868 55.8283L132.062 45.0878L132.065 45.085Z" fill="#7A7A7A"/>
<path d="M138.582 50.8958L127.863 55.8279L132.06 45.0874L138.582 50.8958Z" fill="#7A7A7A"/>
<path d="M113.515 62.5552L96.3164 93.1317L127.86 55.8311L113.515 62.5552Z" fill="#7A7A7A"/>
<path d="M40.9863 97.2862L96.3203 93.1313L113.522 62.5576L40.9863 97.2862Z" fill="#7A7A7A"/>
<path d="M96.3203 93.1313L45.8848 106.69L40.9863 97.2862L96.3203 93.1313Z" fill="#7A7A7A"/>
<path d="M75.4228 28.321L23.2621 0L0 5.21197L78.2086 36.1729L75.4228 28.3182V28.321Z" fill="#7A7A7A"/>
<path d="M1.83398 23.4228L20.6557 13.3154L78.2099 36.1757L80.2179 41.9502L1.83398 23.4228Z" fill="#7A7A7A"/>
<path d="M7.29102 41.0062L21.0135 27.9678L80.225 41.9502L81.7748 46.4584L7.29385 41.0033L7.29102 41.0062Z" fill="#7A7A7A"/>
<path d="M25.4187 42.3032L15.3984 57.3314L83.4311 51.3196L81.7737 46.4581L25.4187 42.3032Z" fill="#7A7A7A"/>
<path d="M26.9813 70.9381L31.4584 55.9297L83.4297 51.3169L84.8042 55.2965L26.9785 70.9381H26.9813Z" fill="#7A7A7A"/>
<path d="M40.6777 80.9723L41.5968 66.7101L84.7978 55.2969L86.1016 59.0306L40.6777 80.9723Z" fill="#7A7A7A"/>
<path d="M54.2 74.4261L52.5879 87.4617L86.1107 59.0361L54.2 74.4261Z" fill="#7A7A7A"/>
<path d="M168.621 95.1213V52.1056H175.261V95.1241L168.621 95.1213ZM170.835 77.4249V71.0343H201.148V77.4221L170.835 77.4249ZM171.695 58.4962V52.1084H203.917V58.4962H171.695ZM220.547 95.1213V88.547H231.803V58.6827H220.547V52.1056H249.694V58.6827H238.441V88.547H249.694V95.1213H220.547ZM268.85 95.1213V52.1056H275.428L310.354 87.3175L309.986 87.8714C309.769 86.5647 309.584 85.2528 309.432 83.937C309.308 82.4849 309.205 81.031 309.123 79.5758L308.877 75.0253L308.756 70.4803V52.1084H315.396V95.1213H308.694L274.198 61.2011L274.26 60.3419C274.342 61.0767 274.424 61.9586 274.506 62.9818C274.588 64.0078 274.69 65.1129 274.814 66.3C274.936 67.4871 275.041 68.7194 275.12 69.9885C275.244 71.218 275.326 72.4673 275.366 73.7364C275.451 74.9659 275.49 76.1332 275.49 77.2412V95.1213H268.85ZM355.616 95.7375C352.175 95.7375 348.936 95.2259 345.902 94.1999C343.01 93.1917 340.323 91.6723 337.968 89.7143C335.735 87.774 333.933 85.387 332.68 82.7075C331.41 79.9659 330.776 76.9331 330.776 73.6149C330.776 70.4605 331.43 67.5521 332.742 64.8868C334.089 62.2343 335.949 59.8749 338.214 57.945C340.555 55.9518 343.245 54.4089 346.148 53.3945C349.18 52.2822 352.387 51.7213 355.616 51.7382C358.405 51.7382 361.069 52.1056 363.609 52.8433C366.001 53.4807 368.312 54.3882 370.499 55.5482C372.589 56.6138 374.249 57.7387 375.479 58.9286L371.542 64.5194C370.067 63.2915 368.482 62.2016 366.808 61.2633C363.202 59.2494 359.133 58.2117 355.003 58.2531C352.828 58.2531 350.698 58.6206 348.608 59.3554C346.576 60.0425 344.681 61.0836 343.011 62.4306C341.337 63.7339 339.972 65.3912 339.015 67.2836C338.031 69.1689 337.538 71.2802 337.538 73.6149C337.538 76.1954 338.05 78.4679 339.077 80.4351C340.089 82.3463 341.517 84.0059 343.257 85.2909C345.061 86.6231 347.078 87.6408 349.222 88.3011C351.458 88.9599 353.777 89.2912 356.109 89.2847C358.569 89.2847 360.761 88.9766 362.687 88.3633C364.495 87.7634 366.229 86.9593 367.854 85.9664C369.262 85.0971 370.635 84.1741 371.972 83.1993L375.171 88.7307C374.022 89.6747 372.444 90.6979 370.436 91.803C368.289 92.9844 366.021 93.932 363.671 94.6295C361.171 95.3672 358.487 95.7375 355.616 95.7375ZM427.464 95.1213V52.1056H434.105V95.1241L427.464 95.1213ZM390.754 95.1213V52.1056H397.395V95.1241L390.754 95.1213ZM393.645 77.1168L393.707 70.7262H430.414V77.1168H393.645Z" fill="#7A7A7A"/>
<path d="M461.037 95.1212V52.1055H486.186C488.728 52.1055 491.042 52.699 493.134 53.8861C495.22 54.9918 496.979 56.6241 498.237 58.6204C499.509 60.6272 500.143 62.8601 500.143 65.3191C500.143 67.8997 499.447 70.2541 498.053 72.3852C496.644 74.4887 494.744 76.2182 492.518 77.4248C490.191 78.6616 487.591 79.2953 484.955 79.2676H467.678V95.124L461.037 95.1212ZM467.678 72.877H484.342C485.897 72.877 487.334 72.5294 488.646 71.8312C489.929 71.1954 491.028 70.2442 491.842 69.067C492.662 67.9194 493.072 66.6701 493.072 65.3191C493.078 64.0631 492.642 62.8449 491.842 61.8765C491.064 60.8533 489.998 60.0337 488.646 59.4175C487.297 58.7953 485.827 58.4805 484.342 58.4961H467.678V72.877ZM506.396 95.1212L527.427 52.1055H535.173L556.079 95.124H548.763L534.313 65.5028C533.952 64.741 533.583 63.9826 533.207 63.2275L532.099 61.0173C531.771 60.2796 531.443 59.4995 531.115 58.6826C530.76 57.7908 530.432 56.8887 530.13 55.9777L532.099 55.9155C531.731 56.8991 531.361 57.8205 530.993 58.6826C530.665 59.5418 530.317 60.3615 529.946 61.1416L528.841 63.4734C528.47 64.2111 528.103 64.9715 527.735 65.7487L513.407 95.1212H506.396ZM515.559 85.0449L518.204 78.6543H543.72L544.766 85.042H515.559V85.0449ZM579.944 95.1212V75.89L581.174 80.6215L558.056 52.1083H567.279L584.064 73.8013H582.65L599.006 52.1083H607.247L586.279 78.9624L586.587 75.401V95.124L579.944 95.1212Z" fill="#7A7A7A"/>
<path d="M40.9833 97.2861L9.54492 123.985L45.8818 106.69L40.9833 97.2861Z" fill="#7A7A7A"/>
</g>
</svg>
