<?xml version="1.0" encoding="utf-8"?>
<!-- Generator: Adobe Illustrator 17.0.0, SVG Export Plug-In . SVG Version: 6.00 Build 0)  -->
<!DOCTYPE svg PUBLIC "-//W3C//DTD SVG 1.1//EN" "http://www.w3.org/Graphics/SVG/1.1/DTD/svg11.dtd">
<svg version="1.1" id="Livello_1" xmlns="http://www.w3.org/2000/svg" xmlns:xlink="http://www.w3.org/1999/xlink" x="0px" y="0px"
	 width="485.885px" height="128px" viewBox="0 0 485.885 128" enable-background="new 0 0 485.885 128" xml:space="preserve">
<g>
	<path fill="#B0B2B4" d="M249.547,42.756c-5.014,18.472-10.83,35.208-17.449,50.208c-1.239,2.786-2.513,5.174-3.816,7.159
		c-1.304,1.984-2.762,3.626-4.374,4.928c-1.614,1.302-3.415,2.242-5.399,2.836c-1.985,0.587-4.281,0.884-6.887,0.884
		c-1.739,0-3.462-0.187-5.168-0.558c-1.704-0.372-2.993-0.776-3.862-1.209l2.045-9.019c2.242,0.869,4.453,1.302,6.633,1.302
		c2.925,0,5.214-0.698,6.864-2.092c1.65-1.396,3.096-3.55,4.343-6.464c-3.548-6.814-6.958-14.254-10.226-22.314
		c-3.268-8.057-6.178-16.611-8.73-25.66h11.994c0.623,2.603,1.384,5.423,2.287,8.46c0.901,3.039,1.882,6.121,2.94,9.25
		c1.056,3.131,2.176,6.245,3.357,9.347c1.183,3.099,2.365,5.981,3.548,8.644c1.974-5.515,3.824-11.387,5.553-17.618
		c1.729-6.23,3.303-12.258,4.723-18.084L249.547,42.756L249.547,42.756z"/>
	<path fill="#B0B2B4" d="M303.913,67.116c0,3.717-0.481,7.129-1.441,10.226c-0.963,3.1-2.339,5.765-4.137,7.999
		c-1.799,2.23-4.045,3.964-6.742,5.206c-2.697,1.238-5.747,1.857-9.155,1.857c-2.296,0-4.403-0.278-6.324-0.837
		c-1.923-0.558-3.503-1.175-4.741-1.858v18.874h-11.251V44.336c2.292-0.619,5.113-1.209,8.461-1.767
		c3.346-0.558,6.879-0.836,10.598-0.836c3.845,0,7.284,0.59,10.321,1.765c3.036,1.18,5.627,2.869,7.764,5.068
		c2.137,2.2,3.781,4.866,4.928,7.996C303.339,59.692,303.913,63.209,303.913,67.116z M292.384,67.301
		c0-5.02-1.133-8.926-3.393-11.714c-2.264-2.791-5.905-4.185-10.925-4.185c-1.055,0-2.156,0.046-3.301,0.137
		c-1.147,0.093-2.277,0.296-3.393,0.605v27.802c0.991,0.683,2.305,1.316,3.95,1.906c1.643,0.59,3.393,0.884,5.254,0.884
		c4.093,0,7.081-1.395,8.971-4.185C291.44,75.76,292.384,72.012,292.384,67.301z"/>
	<path fill="#34BBDA" d="M380.376,91.381h-11.252V64.512c0-1.982,0.094-3.843,0.281-5.58c0.184-1.735,0.527-3.378,1.021-4.925
		c-0.804-0.558-2.013-1.133-3.627-1.722c-1.609-0.588-3.315-0.883-5.114-0.883c-3.533,0-5.918,1.133-7.159,3.394
		c-1.237,2.26-1.858,5.935-1.858,11.017v25.567h-11.252V64.045c0-3.285,0.265-6.306,0.791-9.063c0.527-2.757,1.488-5.114,2.88-7.066
		c1.396-1.954,3.318-3.474,5.767-4.558c2.449-1.083,5.564-1.626,9.344-1.626c1.487,0,2.96,0.154,4.417,0.463
		c1.459,0.311,2.835,0.698,4.137,1.163c1.304,0.465,2.479,0.977,3.535,1.534c1.053,0.558,1.921,1.085,2.602,1.581
		c1.426-1.426,3.207-2.571,5.346-3.442c2.138-0.866,4.884-1.299,8.228-1.299c3.906,0,7.611,0.277,11.11,0.836
		c3.504,0.558,6.338,1.148,8.509,1.767v47.045h-11.249V52.144c-0.743-0.122-1.861-0.276-3.348-0.464
		c-1.486-0.186-2.85-0.278-4.093-0.278c-3.469,0-5.838,1.133-7.109,3.394c-1.271,2.26-1.906,5.935-1.906,11.017V91.381z"/>
	<path fill="#34BBDA" d="M418.679,67.301c0-4.278,0.635-8.026,1.907-11.251c1.268-3.222,2.959-5.903,5.068-8.042
		c2.104-2.138,4.521-3.75,7.251-4.834c2.725-1.084,5.515-1.63,8.367-1.63c6.695,0,11.917,2.081,15.668,6.232
		c3.75,4.153,5.625,10.353,5.625,18.595c0,0.623-0.015,1.318-0.048,2.091c-0.029,0.777-0.074,1.476-0.138,2.093h-32.075
		c0.309,3.904,1.687,6.929,4.135,9.066c2.45,2.138,5.998,3.208,10.644,3.208c2.731,0,5.223-0.248,7.489-0.745
		c2.261-0.495,4.043-1.021,5.344-1.58l1.488,9.206c-0.622,0.311-1.473,0.637-2.557,0.976c-1.086,0.341-2.327,0.65-3.718,0.928
		c-1.395,0.283-2.901,0.513-4.511,0.699c-1.611,0.185-3.254,0.28-4.927,0.28c-4.276,0-7.995-0.638-11.159-1.907
		c-3.162-1.269-5.763-3.037-7.811-5.299c-2.043-2.262-3.566-4.928-4.556-7.996C419.175,74.32,418.679,70.959,418.679,67.301z
		 M451.314,62.281c0-1.55-0.219-3.024-0.652-4.417c-0.435-1.395-1.067-2.605-1.903-3.628c-0.84-1.024-1.863-1.827-3.071-2.414
		c-1.207-0.591-2.647-0.885-4.322-0.885c-1.734,0-3.256,0.324-4.557,0.977c-1.302,0.65-2.404,1.502-3.298,2.557
		c-0.902,1.053-1.599,2.263-2.093,3.626c-0.499,1.362-0.837,2.757-1.025,4.185L451.314,62.281L451.314,62.281z"/>
	<g>
		<path fill="#B0B2B4" d="M149.454,19.23c2.613,0,4.916,0.233,6.906,0.702c1.992,0.466,3.485,0.884,4.482,1.259l-2.147,9.331
			c-1.058-0.496-2.286-0.902-3.687-1.212c-1.401-0.312-2.91-0.466-4.525-0.466c-1.806,0-3.329,0.266-4.576,0.793
			c-1.243,0.529-2.237,1.262-2.984,2.193c-0.746,0.933-1.278,2.069-1.588,3.409c-0.311,1.335-0.466,2.784-0.466,4.339v3.265h17.734
			v9.428h-17.734v39.381h-11.29V39.389c0-6.285,1.648-11.214,4.945-14.792C137.819,21.019,142.796,19.23,149.454,19.23z"/>
	</g>
	<g>
		<path fill="#B0B2B4" d="M192.449,92.312c-3.347-0.062-6.124-0.435-8.321-1.114c-2.203-0.681-3.953-1.657-5.255-2.928
			c-1.301-1.273-2.217-2.854-2.743-4.744c-0.527-1.889-0.789-4.042-0.789-6.463V21.091l11.25-1.861v55.695
			c0,1.363,0.106,2.512,0.326,3.44c0.215,0.929,0.601,1.719,1.16,2.372c0.559,0.649,1.316,1.146,2.278,1.486
			c0.96,0.342,2.186,0.606,3.672,0.791L192.449,92.312z"/>
	</g>
	<path fill="#34BBDA" d="M23.321,38.667c0-3.033,1.084-5.626,3.256-7.774c2.18-2.146,4.751-3.223,7.737-3.223h36.574l-6.593,11.525
		H34.919v14.553h21.092l-6.843,11.676h-14.25v14.561h5.844l-6.213,11.595H23.321V38.667z"/>
	<path fill="#B0B2B4" d="M94.158,80.584c0,3.032-1.084,5.623-3.256,7.772c-2.179,2.145-4.75,3.224-7.736,3.224H46.592l6.592-11.527
		h29.377V65.5H61.469l6.842-11.675h14.25V39.264h-5.844l6.213-11.594h11.228L94.158,80.584L94.158,80.584z"/>
	<rect x="315.89" y="80.063" fill="#B0B2B4" width="11.237" height="11.237"/>
</g>
</svg>
