<svg width="151" height="128" viewBox="0 0 151 128" fill="none" xmlns="http://www.w3.org/2000/svg">
<g clip-path="url(#clip0_30092_953)">
<path d="M77 50.5L77.5 0L81.5 8.5L77 50.5Z" fill="#7A7A7A"/>
<path d="M80 50.5L85.5 13.5L88 18.5L80 50.5Z" fill="#7A7A7A"/>
<path d="M90 22.5L83 50.5L92.5 26.5L90 22.5Z" fill="#7A7A7A"/>
<path d="M95 30.5L86 50.5H86.5L96.5 33.5L95 30.5Z" fill="#7A7A7A"/>
<path d="M99 36.5L89.5 51L90 51.5L100 38.5L99 36.5Z" fill="#7A7A7A"/>
<path d="M101.5 40.5L93 52.5H94L102.5 43L101.5 40.5Z" fill="#7A7A7A"/>
<path d="M104 46.5L97 53.5H98L105 48.5V47.5L104 46.5Z" fill="#7A7A7A"/>
<path d="M107 51L101.5 55.5H102L108 52.5L107 51Z" fill="#7A7A7A"/>
<path d="M109 55.5L106 57.5H107L110 56.5V55.5H109Z" fill="#7A7A7A"/>
<path d="M112 59.5L111 60.5H112H113L112 59.5Z" fill="#7A7A7A"/>
<path d="M77 50.5L77.5 0L81.5 8.5L77 50.5Z" stroke="#7A7A7A" stroke-linejoin="round"/>
<path d="M80 50.5L85.5 13.5L88 18.5L80 50.5Z" stroke="#7A7A7A" stroke-linejoin="round"/>
<path d="M90 22.5L83 50.5L92.5 26.5L90 22.5Z" stroke="#7A7A7A" stroke-linejoin="round"/>
<path d="M95 30.5L86 50.5H86.5L96.5 33.5L95 30.5Z" stroke="#7A7A7A" stroke-linejoin="round"/>
<path d="M99 36.5L89.5 51L90 51.5L100 38.5L99 36.5Z" stroke="#7A7A7A" stroke-linejoin="round"/>
<path d="M101.5 40.5L93 52.5H94L102.5 43L101.5 40.5Z" stroke="#7A7A7A" stroke-linejoin="round"/>
<path d="M104 46.5L97 53.5H98L105 48.5V47.5L104 46.5Z" stroke="#7A7A7A" stroke-linejoin="round"/>
<path d="M107 51L101.5 55.5H102L108 52.5L107 51Z" stroke="#7A7A7A" stroke-linejoin="round"/>
<path d="M109 55.5L106 57.5H107L110 56.5V55.5H109Z" stroke="#7A7A7A" stroke-linejoin="round"/>
<path d="M112 59.5L111 60.5H112H113L112 59.5Z" stroke="#7A7A7A" stroke-linejoin="round"/>
<path d="M74 50.5V0L70 8.5L74 50.5Z" fill="#7A7A7A"/>
<path d="M71.5 50.5L67 12.5L64.5 18.5L71.5 50.5Z" fill="#7A7A7A"/>
<path d="M61.5 22.5L68 50.5L59 26.5L61.5 22.5Z" fill="#7A7A7A"/>
<path d="M56.5 30.5L65 50.5H64L55 34L56.5 30.5Z" fill="#7A7A7A"/>
<path d="M53 36.5L62 51.5H61L52 39L53 36.5Z" fill="#7A7A7A"/>
<path d="M49.5 41.5L58 52.5H57L48.5 44L49.5 41.5Z" fill="#7A7A7A"/>
<path d="M47 46.5L54 53.5H53L46 48.5L46.5 47.5L47 46.5Z" fill="#7A7A7A"/>
<path d="M44 51.5L50 55.5H49L43.5 52.5L44 51.5Z" fill="#7A7A7A"/>
<path d="M42 55.5L45 57.5H44L41 56.5V55.5H42Z" fill="#7A7A7A"/>
<path d="M39 59.5L40 60.5H39H38L39 59.5Z" fill="#7A7A7A"/>
<path d="M74 50.5V0L70 8.5L74 50.5Z" stroke="#7A7A7A" stroke-linejoin="round"/>
<path d="M71.5 50.5L67 12.5L64.5 18.5L71.5 50.5Z" stroke="#7A7A7A" stroke-linejoin="round"/>
<path d="M61.5 22.5L68 50.5L59 26.5L61.5 22.5Z" stroke="#7A7A7A" stroke-linejoin="round"/>
<path d="M56.5 30.5L65 50.5H64L55 34L56.5 30.5Z" stroke="#7A7A7A" stroke-linejoin="round"/>
<path d="M53 36.5L62 51.5H61L52 39L53 36.5Z" stroke="#7A7A7A" stroke-linejoin="round"/>
<path d="M49.5 41.5L58 52.5H57L48.5 44L49.5 41.5Z" stroke="#7A7A7A" stroke-linejoin="round"/>
<path d="M47 46.5L54 53.5H53L46 48.5L46.5 47.5L47 46.5Z" stroke="#7A7A7A" stroke-linejoin="round"/>
<path d="M44 51.5L50 55.5H49L43.5 52.5L44 51.5Z" stroke="#7A7A7A" stroke-linejoin="round"/>
<path d="M42 55.5L45 57.5H44L41 56.5V55.5H42Z" stroke="#7A7A7A" stroke-linejoin="round"/>
<path d="M39 59.5L40 60.5H39H38L39 59.5Z" stroke="#7A7A7A" stroke-linejoin="round"/>
<path fill-rule="evenodd" clip-rule="evenodd" d="M73 55.5011C51 56.3145 33.5 70.6677 27 78.5011L27.2127 78.7706C34.6901 88.244 44.7686 101.013 73 102.5C99.4722 103.894 118 87.3345 124 78.5011C116 70 100 54.5027 73 55.5011ZM33 79C44 65.5 54 64.5 55 64.5C52 83.5 63 93.5 77.5 93.5C92 93.5 99.5 78 96.5 64.5C105.3 65.3 114.833 74.5 118.5 79C112 88 95.1 98.1 77.5 98.5C55.5 99 39.5 87.5 33 79ZM73.6737 61.5685C72.997 60.6038 71.7469 58.8217 67 59.4998C61.4 60.2998 61.5 68.494 65 70.9907C64.1667 75.1574 65.7 83.7938 76.5 82.994C86 82.2905 86 74.9816 86 70.9907C86 66.9998 82.5 61.9905 74 61.9905C73.8985 61.8889 73.7954 61.7419 73.6737 61.5685Z" fill="#7A7A7A"/>
<path d="M27 78.5011L26.6152 78.1818C26.4645 78.3634 26.4613 78.6256 26.6075 78.8109L27 78.5011ZM73 55.5011L73.0185 56.0007L73 55.5011ZM27.2127 78.7706L27.6052 78.4608L27.6052 78.4608L27.2127 78.7706ZM73 102.5L72.9737 102.999L72.9737 102.999L73 102.5ZM124 78.5011L124.414 78.782C124.545 78.5882 124.525 78.329 124.364 78.1584L124 78.5011ZM55 64.5L55.4939 64.578C55.5167 64.4335 55.4751 64.2864 55.3801 64.1752C55.2851 64.064 55.1462 64 55 64V64.5ZM33 79L32.6124 78.6842C32.4662 78.8636 32.4622 79.1199 32.6028 79.3037L33 79ZM96.5 64.5L96.5453 64.0021C96.3863 63.9876 96.23 64.0499 96.1246 64.1698C96.0191 64.2896 95.9773 64.4526 96.0119 64.6085L96.5 64.5ZM118.5 79L118.905 79.2927C119.038 79.1093 119.031 78.8596 118.888 78.6842L118.5 79ZM77.5 98.5L77.5114 98.9999L77.5114 98.9999L77.5 98.5ZM67 59.4998L66.9293 59.0049L67 59.4998ZM73.6737 61.5685L74.0831 61.2814L74.0831 61.2814L73.6737 61.5685ZM65 70.9907L65.4903 71.0888C65.5289 70.8957 65.4507 70.698 65.2904 70.5837L65 70.9907ZM76.5 82.994L76.4631 82.4954L76.4631 82.4954L76.5 82.994ZM74 61.9905L73.6465 62.344C73.7402 62.4378 73.8674 62.4905 74 62.4905V61.9905ZM27.3848 78.8204C33.8313 71.0514 51.2103 56.8071 73.0185 56.0007L72.9815 55.0014C50.7897 55.822 33.1687 70.284 26.6152 78.1818L27.3848 78.8204ZM27.6052 78.4608L27.3925 78.1913L26.6075 78.8109L26.8203 79.0804L27.6052 78.4608ZM73.0263 102.001C58.9873 101.261 49.4975 97.7197 42.5971 93.2115C35.6895 88.6987 31.3446 83.1984 27.6052 78.4608L26.8203 79.0803C30.5583 83.8162 34.9913 89.437 42.0502 94.0487C49.1162 98.6651 58.7814 102.252 72.9737 102.999L73.0263 102.001ZM123.586 78.2201C117.654 86.9539 99.2754 103.383 73.0263 102.001L72.9737 102.999C99.669 104.406 118.346 87.715 124.414 78.782L123.586 78.2201ZM73.0185 56.0007C99.7919 55.0108 115.659 70.3673 123.636 78.8437L124.364 78.1584C116.341 69.6327 100.208 53.9947 72.9815 55.0014L73.0185 56.0007ZM55 64C53.8442 64 43.7038 65.072 32.6124 78.6842L33.3876 79.3158C44.2962 65.928 54.1558 65 55 65V64ZM77.5 93C70.3628 93 64.1397 90.5408 60.0668 85.7992C55.997 81.0613 54.0109 73.9705 55.4939 64.578L54.5061 64.422C52.9891 74.0295 55.003 81.4387 59.3082 86.4508C63.6103 91.4592 70.1372 94 77.5 94V93ZM96.0119 64.6085C97.4856 71.2403 96.377 78.3591 93.1329 83.8067C89.8959 89.2424 84.5469 93 77.5 93V94C84.9531 94 90.6041 90.0076 93.9921 84.3183C97.373 78.6409 98.5144 71.2597 96.9881 64.3915L96.0119 64.6085ZM118.888 78.6842C117.032 76.4064 113.703 72.9523 109.725 69.9628C105.759 66.9814 101.084 64.4147 96.5453 64.0021L96.4547 64.9979C100.716 65.3853 105.208 67.8186 109.125 70.7622C113.03 73.6977 116.302 77.0936 118.112 79.3158L118.888 78.6842ZM77.5114 98.9999C86.4001 98.7979 95.0987 96.1478 102.39 92.4202C109.676 88.6956 115.596 83.8746 118.905 79.2927L118.095 78.7073C114.904 83.1254 109.124 87.8544 101.935 91.5298C94.7513 95.2022 86.1999 97.8021 77.4886 98.0001L77.5114 98.9999ZM32.6028 79.3037C39.1878 87.9148 55.3328 99.5039 77.5114 98.9999L77.4886 98.0001C55.6672 98.4961 39.8122 87.0852 33.3972 78.6963L32.6028 79.3037ZM67.0707 59.9948C69.3799 59.6649 70.7708 59.9432 71.6446 60.3678C72.513 60.7898 72.9334 61.3838 73.2644 61.8557L74.0831 61.2814C73.7373 60.7885 73.1943 60.0091 72.0817 59.4684C70.9745 58.9303 69.3669 58.6566 66.9293 59.0049L67.0707 59.9948ZM65.2904 70.5837C63.7307 69.4711 62.8588 67.0025 63.0852 64.657C63.3088 62.3402 64.5747 60.3514 67.0707 59.9948L66.9293 59.0049C63.8253 59.4483 62.3412 61.9566 62.0898 64.561C61.8412 67.1368 62.7693 70.0137 64.7097 71.3978L65.2904 70.5837ZM76.4631 82.4954C71.2203 82.8836 68.3271 80.9899 66.8103 78.5878C65.2651 76.1409 65.0925 73.0779 65.4903 71.0888L64.5097 70.8927C64.0742 73.0702 64.2516 76.4088 65.9648 79.1218C67.7063 81.8796 70.9797 83.9042 76.537 83.4926L76.4631 82.4954ZM85.5 70.9907C85.5 73.0036 85.4921 75.7109 84.3639 78.0044C83.806 79.1385 82.9741 80.1688 81.7246 80.9606C80.4722 81.7541 78.7746 82.3242 76.4631 82.4954L76.537 83.4926C78.9755 83.3121 80.8403 82.7047 82.2598 81.8053C83.6822 80.904 84.6316 79.7257 85.2612 78.4458C86.5079 75.9113 86.5 72.9687 86.5 70.9907H85.5ZM74 62.4905C82.2726 62.4905 85.5 67.3223 85.5 70.9907H86.5C86.5 66.6773 82.7274 61.4905 74 61.4905V62.4905ZM73.2644 61.8557C73.3767 62.0158 73.5072 62.2047 73.6465 62.344L74.3536 61.6369C74.2898 61.5731 74.214 61.4681 74.0831 61.2814L73.2644 61.8557Z" fill="#7A7A7A"/>
<path d="M74 127.5V108.5H73L70 127.5H74Z" fill="#7A7A7A"/>
<path d="M66 127.5L69 108.5H68L63 127.5H66Z" fill="#7A7A7A"/>
<path d="M58 127.5L64 107.5H63L55 127.5H58Z" fill="#7A7A7A"/>
<path d="M59 107.5V106.5H58L47 127.5H50L59 107.5Z" fill="#7A7A7A"/>
<path d="M54 106.5V104.5H53L37 126.5V127.5H41L54 106.5Z" fill="#7A7A7A"/>
<path d="M49.5 104.5V102.5H48L25 126.5V127.5H30.5L49.5 104.5Z" fill="#7A7A7A"/>
<path d="M44 101.5V100.5H42L10 126.5V127.5H17L44 101.5Z" fill="#7A7A7A"/>
<path d="M39 98.5V97.5L38 96.5L8 114.5L0 126.5L39 98.5Z" fill="#7A7A7A"/>
<path d="M12 106.5L34 94.5L32 92.5L16 99.5L12 106.5Z" fill="#7A7A7A"/>
<path d="M20 93.5L29.5 89.5L28.5 88.5H23L20 91.5V93.5Z" fill="#7A7A7A"/>
<path d="M74 127.5V108.5H73L70 127.5H74Z" stroke="#7A7A7A" stroke-linejoin="round"/>
<path d="M66 127.5L69 108.5H68L63 127.5H66Z" stroke="#7A7A7A" stroke-linejoin="round"/>
<path d="M58 127.5L64 107.5H63L55 127.5H58Z" stroke="#7A7A7A" stroke-linejoin="round"/>
<path d="M59 107.5V106.5H58L47 127.5H50L59 107.5Z" stroke="#7A7A7A" stroke-linejoin="round"/>
<path d="M54 106.5V104.5H53L37 126.5V127.5H41L54 106.5Z" stroke="#7A7A7A" stroke-linejoin="round"/>
<path d="M49.5 104.5V102.5H48L25 126.5V127.5H30.5L49.5 104.5Z" stroke="#7A7A7A" stroke-linejoin="round"/>
<path d="M44 101.5V100.5H42L10 126.5V127.5H17L44 101.5Z" stroke="#7A7A7A" stroke-linejoin="round"/>
<path d="M39 98.5V97.5L38 96.5L8 114.5L0 126.5L39 98.5Z" stroke="#7A7A7A" stroke-linejoin="round"/>
<path d="M12 106.5L34 94.5L32 92.5L16 99.5L12 106.5Z" stroke="#7A7A7A" stroke-linejoin="round"/>
<path d="M20 93.5L29.5 89.5L28.5 88.5H23L20 91.5V93.5Z" stroke="#7A7A7A" stroke-linejoin="round"/>
<path d="M77 127.5L77.5 108.487H78.5L81 127.5H77Z" fill="#7A7A7A"/>
<path d="M85 127.5L82.5 108.487H83.5L88 127.5H85Z" fill="#7A7A7A"/>
<path d="M93 127.5L87.5 107.513H88.5L96 127.5H93Z" fill="#7A7A7A"/>
<path d="M92.5 107.513V106.538H93.5L104 127.5H101L92.5 107.513Z" fill="#7A7A7A"/>
<path d="M97.5 106.538V104.59H98.5L114 126.526V127.5H110L97.5 106.538Z" fill="#7A7A7A"/>
<path d="M102 104.59V102.641H103.5L126 126.526V127.5H120.5L102 104.59Z" fill="#7A7A7A"/>
<path d="M107.5 101.667V100.692H109.5L141 126.526V127.5H134L107.5 101.667Z" fill="#7A7A7A"/>
<path d="M112.5 98.7436V97.7692L113.5 96.7949L143.5 114.333L151 126.526L112.5 98.7436Z" fill="#7A7A7A"/>
<path d="M139.5 106.538L117.5 94.8462L119.5 92.8974L135.5 99.7179L139.5 106.538Z" fill="#7A7A7A"/>
<path d="M131.5 93.8718L122 89.9744L123 89H128.5L131.5 91.9231V93.8718Z" fill="#7A7A7A"/>
<path d="M77 127.5L77.5 108.487H78.5L81 127.5H77Z" stroke="#7A7A7A" stroke-linejoin="round"/>
<path d="M85 127.5L82.5 108.487H83.5L88 127.5H85Z" stroke="#7A7A7A" stroke-linejoin="round"/>
<path d="M93 127.5L87.5 107.513H88.5L96 127.5H93Z" stroke="#7A7A7A" stroke-linejoin="round"/>
<path d="M92.5 107.513V106.538H93.5L104 127.5H101L92.5 107.513Z" stroke="#7A7A7A" stroke-linejoin="round"/>
<path d="M97.5 106.538V104.59H98.5L114 126.526V127.5H110L97.5 106.538Z" stroke="#7A7A7A" stroke-linejoin="round"/>
<path d="M102 104.59V102.641H103.5L126 126.526V127.5H120.5L102 104.59Z" stroke="#7A7A7A" stroke-linejoin="round"/>
<path d="M107.5 101.667V100.692H109.5L141 126.526V127.5H134L107.5 101.667Z" stroke="#7A7A7A" stroke-linejoin="round"/>
<path d="M112.5 98.7436V97.7692L113.5 96.7949L143.5 114.333L151 126.526L112.5 98.7436Z" stroke="#7A7A7A" stroke-linejoin="round"/>
<path d="M139.5 106.538L117.5 94.8462L119.5 92.8974L135.5 99.7179L139.5 106.538Z" stroke="#7A7A7A" stroke-linejoin="round"/>
<path d="M131.5 93.8718L122 89.9744L123 89H128.5L131.5 91.9231V93.8718Z" stroke="#7A7A7A" stroke-linejoin="round"/>
</g>
<defs>
<clipPath id="clip0_30092_953">
<rect width="151" height="127.5" fill="white"/>
</clipPath>
</defs>
</svg>
