<svg width="400" height="81" viewBox="0 0 400 81" fill="none" xmlns="http://www.w3.org/2000/svg">
<g clip-path="url(#clip0_28241_950)">
<path d="M78.58 28.82C73.66 12.16 58.3 0 40.12 0C17.96 0 0 18.05 0 40.32C0 62.59 17.96 80.64 40.12 80.64C42.12 80.64 44.11 80.49 46.09 80.2C48.65 79.82 51.17 79.18 53.61 78.31C56 77.45 58.31 76.37 60.49 75.07C62.65 73.79 64.7 72.3 66.58 70.63C68.46 68.97 70.19 67.13 71.74 65.14C73.29 63.15 74.66 61.01 75.81 58.76C76.98 56.48 77.93 54.09 78.64 51.63C79.38 49.09 79.94 46.43 80.08 43.79C80.13 43.15 80.1 42.86 80.1 42.85C80.1 42.7 80.09 42.54 80.07 42.39C79.97 41.14 78.82 40.22 77.58 40.33C76.31 40.44 75.36 41.54 75.47 42.79V43.15L75.45 43.75C75.31 45.91 74.86 48.05 74.27 50.13C73.57 52.6 72.6 54.98 71.39 57.24C70.19 59.47 68.76 61.56 67.13 63.49C65.5 65.41 63.67 67.15 61.68 68.68C59.68 70.22 57.51 71.55 55.23 72.63C52.91 73.73 50.47 74.57 47.97 75.14C45.4 75.72 42.77 76.01 40.13 76.01C20.52 76.01 4.63 60.03 4.63 40.32C4.63 20.61 20.51 4.64 40.12 4.64C55.82 4.64 69.13 14.88 73.82 29.07L73.99 29.76C74.1 30.15 74.08 30.52 74.14 30.91C74.19 31.25 74.32 31.57 74.51 31.85C74.9 32.42 75.55 32.79 76.23 32.85C77.48 32.96 78.62 32.03 78.72 30.79C78.77 30.13 78.75 29.47 78.57 28.83L78.58 28.82Z" fill="#7A7A7A"/>
<path d="M60.3801 37.7505C60.2201 41.1305 59.71 44.5605 58.39 47.6905C57.44 49.9405 56.11 52.0305 54.46 53.8205C52.01 56.4705 48.87 58.4005 45.37 59.4105C35 62.3905 24.2 56.5205 21.29 46.3305C21.07 45.5705 20.9 44.7905 20.79 44.0105C20.64 43.0305 20.57 42.0405 20.58 41.0505C20.58 40.0705 20.67 39.1005 20.83 38.1305C20.99 37.1705 21.22 36.2305 21.52 35.3005C21.82 34.3805 22.19 33.4805 22.62 32.6105C23.05 31.7405 23.55 30.9005 24.1 30.1005C24.66 29.3005 25.28 28.5405 25.95 27.8305C26.63 27.1105 27.36 26.4505 28.13 25.8405C28.92 25.2205 29.75 24.6705 30.63 24.1805C31.71 23.5705 32.82 23.0605 34.03 22.7705C35.58 22.4005 36.57 20.9205 36.23 19.4705C35.96 18.2705 34.73 17.4305 33.42 17.4705C33.02 17.4805 32.61 17.5305 32.21 17.6105C31.86 17.6805 31.51 17.7805 31.18 17.9105C25.82 20.0205 21.36 23.8105 18.49 28.8205C15.21 34.5405 14.38 41.1105 16.15 47.3305C19.82 60.2005 33.58 67.5705 46.82 63.7705C51.99 62.2805 56.66 59.1605 59.96 54.8805C61.1 53.4005 62.0801 51.8005 62.8601 50.1005C63.1301 49.5205 63.38 48.9305 63.62 48.3305C63.85 47.7305 64.07 47.1205 64.25 46.5005C64.44 45.8705 64.58 45.2305 64.71 44.5805C64.76 44.3405 64.81 44.1005 64.84 43.8605C64.89 43.5005 64.8801 43.1405 64.8701 42.7705C64.7701 41.5205 65.7201 40.4205 66.9801 40.3105C68.2301 40.2005 69.3701 41.1305 69.4701 42.3705C69.4801 42.5305 69.49 42.6805 69.5 42.8305C69.5 42.8305 69.5201 43.1205 69.4801 43.7705C69.4401 44.3805 69.3601 44.9605 69.2301 45.5605C68.1001 50.9405 65.49 56.0005 61.75 60.0105C58.05 63.9605 53.3001 66.8605 48.1101 68.3505C45.3301 69.1505 42.54 69.5305 39.79 69.5305C27.01 69.5305 15.3 61.2905 11.69 48.6105C9.57005 41.1605 10.54 33.2905 14.42 26.4605C17.97 20.2205 23.53 15.5905 30.27 13.1605C31.18 12.8305 32.02 12.6805 32.97 12.6405C36.52 12.5005 39.89 14.9205 40.72 18.4005C41.64 22.4005 39.13 26.3605 35.11 27.3205L34.87 27.4005C27.71 30.0805 23.68 37.8305 25.73 45.0205C27.91 52.6905 36.14 57.0805 44.05 54.8005C46.75 54.0205 49.1701 52.5405 51.0601 50.5005C54.5201 46.7605 55.6101 42.9805 55.8101 37.6705L55.84 20.8105C55.81 20.0805 55.55 19.3705 55.26 18.9105C54.63 17.8905 53.26 17.3105 51.98 17.5305C51.12 17.6805 50.2201 18.1105 49.7001 18.8005C49.1301 19.5505 49.02 20.6105 49 21.5505C49 21.5505 49.0401 24.0205 48.9901 24.8905L49.03 39.5805C49.15 43.5305 46.21 47.8105 42.47 48.8805C38.04 50.1505 33.42 47.6205 32.17 43.2305C30.92 38.8405 33.51 34.2305 37.93 32.9605C39.16 32.6105 40.45 33.3505 40.81 34.6105C41.17 35.8705 40.46 37.1905 39.24 37.5405C38.28 37.8205 37.48 38.4305 36.98 39.2805C36.49 40.1105 36.37 41.0605 36.62 41.9505C37.15 43.8005 39.18 44.8405 41.17 44.3005C44.13 43.4805 44.4801 40.9605 44.5201 40.2105L44.5 36.9805L44.5201 20.9205C44.5201 20.0605 44.61 19.1805 44.89 18.3005C45.33 16.9005 46.16 15.6405 47.28 14.6705C48.38 13.7105 49.72 13.0805 51.16 12.8305C54.28 12.2905 57.4901 13.7205 59.1501 16.3705C60.2601 18.1405 60.37 20.2105 60.37 22.2105V37.7205L60.3801 37.7505Z" fill="#7A7A7A"/>
<path d="M255.34 16.4707V54.2307L225.98 16.4707H221.8V64.2207H227.02V26.5207L256.38 64.2207H260.62V16.4707H255.34Z" fill="#7A7A7A"/>
<path d="M290 37.9207C288.57 37.7207 286.27 37.7007 284.6 37.7207H284.5C279.02 37.7207 274.56 34.1407 274.56 29.7507C274.56 25.3607 279.02 21.7207 284.5 21.7207H285.72C290.96 21.7207 295.3 25.0407 295.6 29.2807L295.73 31.1807H301.25L301.12 29.0107C300.69 21.9807 293.93 16.4707 285.72 16.4707H284.5C276.01 16.4707 269.1 22.4307 269.1 29.7507C269.1 34.4407 271.63 38.2307 276.85 41.3507C277.37 41.6507 280.31 43.1507 287.11 42.9707C292.59 42.9707 297.05 46.5707 297.05 51.0007C297.05 55.4307 292.59 58.9707 287.11 58.9707H283.1C277.62 58.9707 273.16 55.3907 273.16 51.0007V48.7107H267.69V51.0007C267.69 58.2907 274.6 64.2207 283.09 64.2207H287.1C295.59 64.2207 302.5 58.2907 302.5 51.0007C302.5 44.5007 297.24 39.0007 289.99 37.9207H290Z" fill="#7A7A7A"/>
<path d="M324.18 16.4707H307.39L312.62 21.7207H324.18C334.42 21.7207 342.75 30.0907 342.75 40.3807C342.75 50.6707 334.42 58.9807 324.18 58.9807H314.18V27.8607L308.96 24.3807V62.2607L309.09 64.2307H324.18C337.26 64.2307 347.91 53.5307 347.91 40.3807C347.91 27.2307 337.27 16.4707 324.18 16.4707Z" fill="#7A7A7A"/>
<path d="M211.74 16.4707H206.44V64.2207H211.74V16.4707Z" fill="#7A7A7A"/>
<path d="M376.21 16.3906C363.1 16.3906 352.43 27.1406 352.43 40.3506C352.43 53.5606 363.1 64.2606 376.21 64.2606C389.32 64.2606 400 53.5406 400 40.3506C400 27.1606 389.33 16.3906 376.21 16.3906ZM394.69 40.3506C394.69 50.5906 386.4 58.9206 376.21 58.9206C366.02 58.9206 357.74 50.5906 357.74 40.3506C357.74 30.1106 366.03 21.7206 376.21 21.7206C386.39 21.7206 394.69 30.0806 394.69 40.3506Z" fill="#7A7A7A"/>
<path d="M175.97 16.3906C162.86 16.3906 152.19 27.1406 152.19 40.3506C152.19 53.5606 162.86 64.2606 175.97 64.2606C189.08 64.2606 199.76 53.5406 199.76 40.3506C199.76 27.1606 189.09 16.3906 175.97 16.3906ZM194.45 40.3506C194.45 50.5906 186.16 58.9206 175.97 58.9206C165.78 58.9206 157.5 50.5906 157.5 40.3506C157.5 30.1106 165.79 21.7206 175.97 21.7206C186.15 21.7206 194.45 30.0806 194.45 40.3506Z" fill="#7A7A7A"/>
<path d="M145.04 49.7097C141.8 55.2897 135.78 58.9497 129.05 58.9497C118.85 58.9497 110.55 50.6097 110.55 40.3497C110.55 30.0897 118.85 21.6897 129.05 21.6897C135.78 21.6897 141.79 25.3497 145.04 30.9297L149.56 28.2997C145.42 21.1197 137.71 16.4297 129.05 16.4297C115.97 16.4297 105.33 27.1597 105.33 40.3397C105.33 53.5197 115.97 64.1897 129.05 64.1897C137.72 64.1897 145.43 59.4997 149.57 52.3297L145.04 49.6997V49.7097Z" fill="#7A7A7A"/>
</g>
<defs>
<clipPath id="clip0_28241_950">
<rect width="400" height="80.65" fill="white"/>
</clipPath>
</defs>
</svg>
