<svg fill="none" height="28" viewBox="0 0 42 28" width="42" xmlns="http://www.w3.org/2000/svg"><path d="m42 18.904c0 1.2655-.2602 2.4519-.7807 3.5593-.4684 1.1073-1.1189 2.0828-1.9516 2.9265-.7807.791-1.7175 1.4238-2.8104 1.8983-1.093.4746-2.264.7119-3.5131.7119-1.249 0-2.42-.2373-3.513-.7119-1.0929-.4745-2.0557-1.1073-2.8884-1.8983-.7807-.8437-1.4053-1.8192-1.8737-2.9265-.4684-1.1074-.7026-2.2938-.7026-3.5593 0-2.1093.3383-4.0603 1.0149-5.8532.6766-1.8455 1.5874-3.55927 2.7324-5.1412 1.197-1.58192 2.5501-3.03201 4.0594-4.35028 1.5614-1.31827 3.1748-2.50471 4.8402-3.55932l2.8885 2.53107c-.9889.89643-1.8997 2.03014-2.7324 3.40113-.8327 1.371-1.3792 2.742-1.6394 4.113 1.9777.4746 3.6171 1.5556 4.9182 3.2429 1.3011 1.6347 1.9517 3.5066 1.9517 5.6159zm-23.9665 0c0 1.2655-.2603 2.4519-.7807 3.5593-.4684 1.1073-1.119 2.0828-1.9517 2.9265-.7807.791-1.7435 1.4238-2.8885 1.8983-1.0929.4746-2.2639.7119-3.51297.7119s-2.42008-.2373-3.51301-.7119c-1.04089-.4745-1.9777-1.1073-2.81041-1.8983-.78067-.8437-1.40521-1.8192-1.873608-2.9265-.468401-1.1074-.702602-2.2938-.702602-3.5593 0-2.1093.33829-4.0603 1.01487-5.8532.67658-1.8455 1.58736-3.55927 2.73234-5.1412 1.19703-1.58192 2.55019-3.03201 4.05948-4.35028 1.56134-1.31827 3.17471-2.50471 4.84011-3.55932l2.8104 2.53107c-.9368.89643-1.8215 2.03014-2.6542 3.40113-.8327 1.371-1.3792 2.742-1.6394 4.113 1.9777.4746 3.6171 1.5556 4.9182 3.2429 1.3011 1.6347 1.9517 3.5066 1.9517 5.6159z" fill="#e35760"/></svg>