<svg fill="none" height="400" viewBox="0 0 2195 400" width="2195" xmlns="http://www.w3.org/2000/svg"><g fill="#7a7a7a"><path d="m2031.07 327.892-80.86-185.758h54.15l55.22 133.222 63.83-133.222h53.26l-125.87 255.866h-54.15zm-196.91-38.46c4.78-1.088 9.39-2.807 13.72-5.111 4.18-2.225 8.06-4.966 11.56-8.158 3.5-3.2 6.52-6.883 8.97-10.937 2.57-4.259 4.56-8.842 5.92-13.627 1.47-5.221 2.19-10.624 2.15-16.048.05-5.483-.68-10.946-2.15-16.227-1.36-4.785-3.35-9.368-5.92-13.627-2.47-4.071-5.49-7.782-8.97-11.027-3.45-3.22-7.35-5.936-11.56-8.069-4.36-2.192-8.96-3.848-13.72-4.93-5-1.146-10.11-1.718-15.24-1.704-5.1-.017-10.18.554-15.15 1.704-4.7 1.083-9.24 2.739-13.54 4.93-4.2 2.161-8.09 4.875-11.56 8.069-3.53 3.227-6.58 6.94-9.06 11.027-2.56 4.25-4.52 8.837-5.83 13.627-1.41 5.291-2.11 10.75-2.06 16.227-.04 5.418.65 10.816 2.06 16.048 1.31 4.79 3.27 9.377 5.83 13.627 2.47 4.07 5.52 7.755 9.06 10.937 3.52 3.166 7.4 5.904 11.56 8.158 4.26 2.303 8.82 4.022 13.54 5.111 4.97 1.151 10.05 1.723 15.15 1.703 5.13.016 10.24-.555 15.24-1.703zm-54.6 41.598c-8.3-2.112-16.29-5.308-23.75-9.503-14.55-8.181-26.56-20.217-34.7-34.784-4.2-7.532-7.39-15.579-9.5-23.937-4.43-17.961-4.43-36.727 0-54.688 2.1-8.333 5.3-16.352 9.5-23.847 8.18-14.516 20.18-26.515 34.7-34.695 7.46-4.195 15.45-7.39 23.75-9.503 8.88-2.252 18.01-3.367 27.17-3.317 4.94-.012 9.88.288 14.79.896 4.51.559 8.98 1.458 13.36 2.69 4.06 1.152 8.04 2.559 11.92 4.213 3.64 1.546 7.14 3.375 10.49 5.469 3.15 1.971 6.09 4.254 8.79 6.813 2.52 2.392 4.85 4.969 6.99 7.711v-22.414h51.46v186.834h-51.46v-22.413c-3.29 4.128-7.05 7.859-11.21 11.117-4.59 3.606-9.62 6.619-14.97 8.965-5.95 2.612-12.17 4.537-18.56 5.738-7.12 1.348-14.35 2.009-21.6 1.972-9.16.049-18.29-1.065-27.17-3.317zm-186.82-141.56c7.37.135 14.73-.709 21.88-2.51 5.57-1.407 10.77-4.007 15.24-7.62 4.03-3.365 7.12-7.721 8.96-12.641 2.01-5.575 2.98-11.469 2.87-17.393.12-5.894-.85-11.76-2.87-17.302-1.84-4.867-4.93-9.164-8.96-12.462-4.49-3.559-9.69-6.126-15.24-7.531-7.15-1.799-14.51-2.643-21.88-2.51h-50.56v79.969zm-103.81-124.0774h108.83c17.1 0 31.92 2.0919 44.47 6.2756 12.55 4.1838 22.89 9.9813 31.02 17.3924 8.09 7.3483 14.32 16.5024 18.2 26.7164 4.07 10.768 6.11 22.197 6.01 33.709.12 11.484-1.91 22.89-6.01 33.619-3.94 10.129-10.17 19.211-18.2 26.537-8.13 7.473-18.47 13.3-31.02 17.482-12.55 4.187-27.37 6.279-44.47 6.276h-55.58v95.568h-53.25zm-228.68 76.7414h51.11v22.413c3.15-4.35 6.89-8.242 11.11-11.565 4.47-3.506 9.35-6.456 14.53-8.786 5.7-2.551 11.69-4.417 17.84-5.558 6.82-1.284 13.76-1.914 20.71-1.883 10.81-.155 21.57 1.668 31.73 5.379 9.06 3.336 17.26 8.632 24.03 15.51 6.8 7.128 11.94 15.668 15.06 25.013 3.6 10.745 5.36 22.02 5.2 33.35v112.961h-51.1v-99.692c.12-7.288-.91-14.55-3.05-21.517-1.77-5.752-4.73-11.067-8.69-15.599-3.81-4.211-8.58-7.44-13.9-9.414-6.03-2.182-12.41-3.245-18.83-3.137-6.44-.102-12.85.961-18.91 3.137-5.36 1.957-10.16 5.188-13.99 9.414-3.96 4.532-6.92 9.847-8.7 15.599-2.14 6.967-3.17 14.229-3.04 21.517v99.692h-51.11zm-125.74 146.76c4.87-1.179 9.6-2.925 14.07-5.2 4.26-2.176 8.16-4.988 11.57-8.338 3.37-3.306 6.3-7.044 8.69-11.117 2.44-4.194 4.26-8.725 5.38-13.448 1.22-5.109 1.82-10.346 1.79-15.599.04-5.223-.57-10.431-1.79-15.51-2.26-9.359-7.14-17.881-14.07-24.564-3.46-3.321-7.35-6.156-11.57-8.427-4.44-2.38-9.17-4.159-14.07-5.29-5.33-1.222-10.77-1.823-16.23-1.793-5.4-.024-10.79.578-16.05 1.793-4.88 1.12-9.59 2.9-13.99 5.29-4.18 2.286-8.04 5.12-11.47 8.427-3.38 3.256-6.25 7.004-8.52 11.117-2.31 4.225-4.12 8.709-5.38 13.358-1.35 5.088-2.01 10.335-1.97 15.6-.03 5.263.63 10.508 1.97 15.599 1.23 4.689 3.04 9.206 5.38 13.448 2.29 4.094 5.16 7.838 8.52 11.116 3.39 3.336 7.26 6.146 11.47 8.338 4.44 2.286 9.14 4.032 13.99 5.2 5.25 1.276 10.64 1.908 16.05 1.883 5.46.032 10.91-.601 16.23-1.883zm-46.36 42.046c-9.22-2.146-18.15-5.365-26.62-9.593-7.97-3.971-15.36-9.008-21.97-14.971-6.4-5.795-11.95-12.465-16.49-19.813-4.6-7.48-8.13-15.568-10.49-24.027-4.9-17.899-4.9-36.787 0-54.687 2.35-8.434 5.88-16.493 10.49-23.937 4.57-7.325 10.12-13.991 16.49-19.813 6.59-6.01 13.99-11.079 21.97-15.061 8.47-4.226 17.41-7.445 26.62-9.593 19.95-4.542 40.66-4.542 60.61 0 9.17 2.129 18.05 5.349 26.45 9.593 7.94 4.041 15.33 9.105 21.96 15.061 6.47 5.801 12.12 12.468 16.77 19.813 4.66 7.428 8.22 15.49 10.57 23.937 4.91 17.9 4.91 36.788 0 54.687-2.36 8.472-5.92 16.562-10.57 24.027-4.62 7.369-10.27 14.04-16.77 19.813-6.65 5.909-14.03 10.941-21.96 14.971-8.38 4.237-17.22 7.457-26.36 9.593-19.98 4.542-40.72 4.542-60.7 0zm-199.4-42.046c4.878-1.179 9.602-2.924 14.075-5.2 4.256-2.176 8.156-4.988 11.565-8.338 3.376-3.306 6.3-7.044 8.696-11.117 2.445-4.193 4.257-8.725 5.379-13.448 1.22-5.109 1.822-10.346 1.793-15.599.032-5.223-.57-10.431-1.793-15.51-2.26-9.36-7.143-17.881-14.075-24.564-3.454-3.321-7.345-6.156-11.565-8.427-4.436-2.381-9.169-4.16-14.075-5.29-5.322-1.222-10.767-1.823-16.227-1.793-5.401-.024-10.786.578-16.048 1.793-4.88 1.12-9.585 2.9-13.986 5.29-4.182 2.287-8.041 5.121-11.475 8.427-3.382 3.256-6.253 7.004-8.517 11.117-2.311 4.226-4.116 8.709-5.379 13.358-1.354 5.087-2.018 10.334-1.972 15.599-.031 5.264.632 10.509 1.972 15.599 1.229 4.689 3.036 9.206 5.379 13.448 2.292 4.094 5.161 7.838 8.517 11.117 3.389 3.335 7.257 6.145 11.475 8.338 4.438 2.285 9.133 4.031 13.986 5.2 5.253 1.275 10.642 1.908 16.048 1.882 5.465.032 10.914-.6 16.227-1.882zm-46.35 42.046c-9.22-2.145-18.157-5.364-26.627-9.592-7.966-3.972-15.355-9.008-21.964-14.971-6.404-5.795-11.958-12.465-16.496-19.813-4.6-7.48-8.131-15.568-10.489-24.027-4.901-17.899-4.901-36.787 0-54.687 2.348-8.434 5.88-16.493 10.489-23.937 4.571-7.324 10.121-13.99 16.496-19.813 6.591-6.01 13.983-11.079 21.964-15.061 8.471-4.226 17.407-7.445 26.627-9.593 19.946-4.542 40.658-4.542 60.604 0 9.168 2.128 18.047 5.349 26.447 9.593 7.948 4.04 15.332 9.104 21.965 15.061 6.475 5.801 12.116 12.468 16.765 19.813 4.662 7.427 8.225 15.49 10.579 23.937 4.901 17.9 4.901 36.788 0 54.687-2.364 8.472-5.926 16.563-10.579 24.027-4.616 7.369-10.261 14.041-16.765 19.813-6.65 5.91-14.032 10.941-21.965 14.971-8.372 4.236-17.22 7.456-26.357 9.592-19.977 4.542-40.718 4.542-60.694 0zm-403.327-265.5474h53.791l91.983 140.5734 92.341-140.5734h53.791v263.5754h-53.253v-180.737l-76.383 116.547h-32.634l-76.383-116.547v180.737h-53.253z"/><path d="m316.259 112.582c10.639 0 21.039-3.155 29.885-9.066 8.845-5.9102 15.74-14.3112 19.811-24.1402 4.072-9.829 5.137-20.6445 3.061-31.079-2.075-10.4344-7.198-20.019-14.721-27.5418s-17.108-12.64587-27.542-14.7214-21.25-1.01029-31.079 3.06101c-9.829 4.07129-18.23 10.96579-24.14 19.81169-5.911 8.8459-9.066 19.2458-9.066 29.8846 0 7.0641 1.391 14.059 4.094 20.5854 2.703 6.5265 6.665 12.4565 11.66 17.4515 4.995 4.9952 10.925 8.9572 17.452 11.6602 6.526 2.703 13.521 4.094 20.585 4.094zm-164.936 242.26c-25.933 0-51.282-7.689-72.8443-22.097-21.5618-14.407-38.3672-34.884-48.2911-58.842-9.9238-23.959-12.5203-50.322-7.4611-75.755 5.0591-25.434 17.5467-48.797 35.8835-67.134 18.3369-18.337 41.699-30.824 67.133-35.8831s51.797-2.4625 75.755 7.4611c23.959 9.924 44.436 26.73 58.843 48.291 14.407 21.562 22.097 46.912 22.097 72.844 0 17.219-3.391 34.269-9.98 50.177-6.589 15.907-16.247 30.362-28.422 42.537s-26.629 21.833-42.537 28.422-32.958 9.98-50.176 9.979z"/></g></svg>