<svg width="128" height="26" viewBox="0 0 128 26" fill="none" xmlns="http://www.w3.org/2000/svg">
<g clip-path="url(#clip0_1_23)">
<path d="M5.80554 12.8679L2.91671 15.7578L0 12.8679L2.91565 9.95221L5.80554 12.8679ZM12.8679 5.80554L17.8434 10.7811L20.7602 7.86656L12.8679 0L4.97556 7.89229L7.89229 10.8069L12.8679 5.80554ZM22.8201 9.95221L19.9302 12.8679L22.8458 15.7835L25.7603 12.8679L22.8201 9.95221ZM12.8679 19.9302L7.89229 14.9289L4.97556 17.8445L12.8679 25.7357L20.7602 17.8434L17.8434 14.9289L12.8679 19.9302ZM12.8679 15.7588L15.7835 12.8421L12.8679 9.95329L9.95221 12.8679L12.8679 15.7578V15.7588ZM43.5298 16.0591V16.0098C43.5298 14.1246 42.524 13.1692 40.8909 12.5408C41.8957 11.9885 42.7502 11.0824 42.7502 9.4997V9.45036C42.7502 7.23817 40.9658 5.80554 38.1007 5.80554H31.5413V19.9055H38.252C41.443 19.9302 43.5298 18.623 43.5298 16.0602V16.0591ZM39.6586 10.0284C39.6586 11.0835 38.8041 11.5103 37.4218 11.5103H34.5577V8.5196H37.6234C38.9305 8.5196 39.6586 9.04718 39.6586 9.97794V10.0284ZM40.4382 15.658C40.4382 16.7132 39.6094 17.1915 38.2507 17.1915H34.5577V14.0989H38.1509C39.7348 14.0989 40.4382 14.6779 40.4382 15.6323V15.658ZM50.0389 19.9302V5.80554H46.9227V19.9055H50.0389V19.9302ZM66.7274 19.9302V5.80554H63.6605V14.5021L57.0506 5.80554H54.1855V19.9055H57.2524V10.9581L64.0885 19.9302H66.7264H66.7274ZM83.9168 19.9302L77.8613 5.73049H74.997L68.9395 19.9302H72.1319L73.4134 16.7636H79.37L80.6516 19.9302H83.9188H83.9168ZM78.2622 14.0238H74.5177L76.4029 9.45036L78.2622 14.0238ZM98.7211 19.9302V5.80554H95.6542V14.5021L89.0446 5.80554H86.1792V19.9055H89.2461V10.9581L96.0822 19.9302H98.7201H98.7211ZM114.73 17.6429L112.745 15.658C111.638 16.6628 110.658 17.3158 109.025 17.3158C106.612 17.3158 104.929 15.3052 104.929 12.8925V12.8175C104.929 10.4047 106.637 8.41988 109.025 8.41988C110.432 8.41988 111.539 9.0225 112.644 10.0026L114.629 7.71536C113.323 6.43393 111.739 5.52888 109.075 5.52888C104.753 5.52888 101.712 8.82092 101.712 12.8175V12.8679C101.712 16.9137 104.802 20.1307 108.95 20.1307C111.664 20.1564 113.273 19.201 114.73 17.6429ZM127.975 19.9302V17.1657H120.309V14.1997H126.969V11.4352H120.309V8.56999H127.874V5.80554H117.243V19.9055H127.975V19.9302Z" fill="#F0B90B"/>
</g>
<defs>
<clipPath id="clip0_1_23">
<rect width="128" height="25.7357" fill="white"/>
</clipPath>
</defs>
</svg>
