<svg width="1351" height="300" viewBox="0 0 1351 300" fill="none" xmlns="http://www.w3.org/2000/svg">
<g clip-path="url(#clip0_546_1891)">
<path d="M394.801 138.4V232.1C394.801 233.3 395.801 234.3 397.001 234.3H423.001C424.201 234.3 425.201 233.3 425.201 232.1V138.2C425.201 134.5 428.201 131.5 431.901 131.5H473.001C474.201 131.5 475.201 130.5 475.201 129.3V103.3C475.201 102.1 474.201 101.1 473.001 101.1H432.101C411.501 100.9 394.801 117.7 394.801 138.4Z" fill="white"/>
<path d="M546.901 98.7C508.901 98.7 477.601 130.4 477.901 168.3C478.301 206 508.701 236.6 546.001 236.6C560.401 236.6 574.101 231.2 585.301 221.5V232.1C585.301 233.3 586.301 234.3 587.501 234.3H613.501C614.701 234.3 615.701 233.3 615.701 232.1V167.6C615.801 129.6 584.901 98.7 546.901 98.7ZM585.301 167.7C585.301 189.1 568.101 206.6 546.901 206.6C525.701 206.6 508.501 189.2 508.501 167.7C508.501 146.3 525.701 128.8 546.901 128.8C568.101 128.8 585.301 146.2 585.301 167.7Z" fill="white"/>
<path d="M704.9 98.7C690.9 98.7 677.5 103.5 666.5 112.4V58.6C666.5 57.4 665.5 56.4 664.3 56.4H638.3C637.1 56.4 636.1 57.4 636.1 58.6V167.4C636.1 205.4 666.7 236.6 704.7 236.8C742.9 237 774 206 774 167.8C773.9 129.6 743 98.7 704.9 98.7ZM743.4 167.7C743.4 189.1 726.2 206.6 705 206.6C683.8 206.6 666.6 189.2 666.6 167.7C666.6 146.3 683.8 128.8 705 128.8C726.1 128.8 743.4 146.2 743.4 167.7Z" fill="white"/>
<path d="M860.101 98.7C846.101 98.7 832.701 103.5 821.701 112.4V58.6C821.701 57.4 820.701 56.4 819.501 56.4H793.501C792.301 56.4 791.301 57.4 791.301 58.6V167.4C791.301 205.4 821.901 236.6 859.901 236.8C898.101 237 929.201 206 929.201 167.8C929.101 129.6 898.101 98.7 860.101 98.7ZM898.501 167.7C898.501 189.1 881.301 206.6 860.101 206.6C838.901 206.6 821.701 189.2 821.701 167.7C821.701 146.3 838.901 128.8 860.101 128.8C881.301 128.8 898.501 146.2 898.501 167.7Z" fill="white"/>
<path d="M1036.5 56.3H1010.5C1009.3 56.3 1008.3 57.3 1008.3 58.5V167.6C1008.3 205.7 1039.2 236.6 1077.3 236.6H1085.8C1087 236.6 1088 235.6 1088 234.4V208.4C1088 207.2 1087 206.2 1085.8 206.2H1077.3C1056.1 206.2 1038.9 189 1038.9 167.8V130.6H1085.9C1087.1 130.6 1088.1 129.6 1088.1 128.4V102.8C1088.1 101.6 1087.1 100.6 1085.9 100.6H1038.9V58.7C1038.8 57.3 1037.8 56.3 1036.5 56.3Z" fill="white"/>
<path d="M1282 98.7C1244 98.7 1213 129.6 1213 167.7C1213 205.7 1243.9 236.7 1282 236.7C1320 236.7 1351 205.8 1351 167.7C1351 129.6 1320.1 98.7 1282 98.7ZM1320.5 167.7C1320.5 189.1 1303.3 206.6 1282.1 206.6C1260.9 206.6 1243.7 189.2 1243.7 167.7C1243.7 146.3 1260.9 128.8 1282.1 128.8C1303.2 128.8 1320.5 146.2 1320.5 167.7Z" fill="white"/>
<path d="M1163.6 234.4H1189.6C1190.8 234.4 1191.8 233.4 1191.8 232.2V103.2C1191.8 102 1190.8 101 1189.6 101H1163.6C1162.4 101 1161.4 102 1161.4 103.2V232.2C1161.3 233.4 1162.3 234.4 1163.6 234.4Z" fill="white"/>
<path d="M1176.6 46.9C1165.7 46.9 1156.8 55.8 1156.8 66.7C1156.8 77.6 1165.7 86.5 1176.6 86.5C1187.5 86.5 1196.4 77.6 1196.4 66.7C1196.4 55.7 1187.5 46.9 1176.6 46.9Z" fill="white"/>
<path d="M1124.9 197C1114 197 1105.1 205.9 1105.1 216.8C1105.1 227.7 1114 236.6 1124.9 236.6C1135.8 236.6 1144.7 227.7 1144.7 216.8C1144.8 205.9 1135.9 197 1124.9 197Z" fill="white"/>
<path d="M952.501 234.4H978.501C979.701 234.4 980.701 233.4 980.701 232.2V103.2C980.701 102 979.701 101 978.501 101H952.501C951.301 101 950.301 102 950.301 103.2V232.2C950.301 233.4 951.301 234.4 952.501 234.4Z" fill="white"/>
<path d="M965.499 86.5C976.434 86.5 985.299 77.6353 985.299 66.7C985.299 55.7648 976.434 46.9 965.499 46.9C954.564 46.9 945.699 55.7648 945.699 66.7C945.699 77.6353 954.564 86.5 965.499 86.5Z" fill="white"/>
<path d="M197.901 0C161.501 0 97.7008 43.3 56.6008 100.5C20.8008 150.1 7.40081 194.5 1.6008 239.2C-3.49919 270.9 22.5008 300 54.5008 300H181.201C190.201 300 197.701 292.7 197.801 283.7C197.901 274.6 190.501 267.2 181.401 267.2H54.4008C41.8008 267.2 32.2008 256.1 33.9008 243.7C40.8008 194.8 54.5008 159.3 83.3008 119.3C127.801 59.4 172.001 39.4 188.201 34.2C204.201 28.9 215.201 36.3 215.201 53.1C223.601 50.5 235.901 47.7 247.701 47.4C244.901 20.9 226.301 0 197.901 0Z" fill="white"/>
<path d="M242.1 221.7C264.8 199.5 301 143.5 301 95.3C301 78.3 293.3 46.9 251.1 46.9C172.5 46.9 73.3997 140.6 121.3 186.3C127.2 191.7 136.9 197.4 151.9 197.4C195.6 197.4 235.1 146.3 246.2 79.5C248.3 79.3 250.4 79.3 252.5 79.3C262.9 79.3 268.2 83.1 268.2 95.1C268.2 127.4 242.9 179.3 207.7 209.7C196.5 219.8 203.7 231.9 209.2 235.8C228.2 251.3 240.8 268 245.5 286.7C247.6 294.4 253.8 299.9 261.6 299.9C273 299.9 277.5 289.6 277.5 282.5C277.5 266.3 259.3 237.9 242.1 221.7ZM152 165.3C121.4 165.3 159.5 110.8 211.1 88.6C197.5 141.4 169.5 165.3 152 165.3Z" fill="white"/>
<path d="M152 165.3V197.4C195.7 197.4 235.2 146.3 246.3 79.5C234.3 80.4 222.4 83.7 211.1 88.6C197.5 141.4 169.5 165.3 152 165.3Z" fill="white"/>
</g>
<defs>
<clipPath id="clip0_546_1891">
<rect width="1351" height="300" fill="white"/>
</clipPath>
</defs>
</svg>
