<svg fill="none" height="130" viewBox="0 0 165 130" width="165" xmlns="http://www.w3.org/2000/svg" xmlns:xlink="http://www.w3.org/1999/xlink"><filter id="a" color-interpolation-filters="sRGB" filterUnits="userSpaceOnUse" height="76.4209" width="118.179" x="30.6008" y="45.864"><feFlood flood-opacity="0" result="BackgroundImageFix"/><feBlend in="SourceGraphic" in2="BackgroundImageFix" mode="normal" result="shape"/><feGaussianBlur result="effect1_foregroundBlur_1_187" stdDeviation="4.84472"/></filter><filter id="b" color-interpolation-filters="sRGB" filterUnits="userSpaceOnUse" height="36.9767" width="80.3273" x="41.2272" y="35.6424"><feFlood flood-opacity="0" result="BackgroundImageFix"/><feBlend in="SourceGraphic" in2="BackgroundImageFix" mode="normal" result="shape"/><feGaussianBlur result="effect1_foregroundBlur_1_187" stdDeviation=".260435"/></filter><filter id="c" color-interpolation-filters="sRGB" filterUnits="userSpaceOnUse" height="58.0747" width="96.7349" x="32.8079" y="31.1646"><feFlood flood-opacity="0" result="BackgroundImageFix"/><feBlend in="SourceGraphic" in2="BackgroundImageFix" mode="normal" result="shape"/><feGaussianBlur result="effect1_foregroundBlur_1_187" stdDeviation=".260435"/></filter><filter id="d" color-interpolation-filters="sRGB" filterUnits="userSpaceOnUse" height="40.3561" width="51.2029" x="51.9591" y="38.2873"><feFlood flood-opacity="0" result="BackgroundImageFix"/><feBlend in="SourceGraphic" in2="BackgroundImageFix" mode="normal" result="shape"/><feGaussianBlur result="effect1_foregroundBlur_1_187" stdDeviation=".242236"/></filter><linearGradient id="e" gradientUnits="userSpaceOnUse" x1="138.839" x2="37.1663" y1="62.2527" y2="88.6045"><stop offset="0" stop-color="#66536e"/><stop offset=".3125" stop-color="#302634"/><stop offset=".58" stop-color="#594163"/><stop offset=".793394" stop-color="#6f4a6e"/><stop offset=".952475" stop-color="#7a5178"/><stop offset="1" stop-color="#332837"/></linearGradient><linearGradient id="f"><stop offset="0" stop-color="#302634"/><stop offset="1" stop-color="#302634" stop-opacity="0"/></linearGradient><linearGradient id="g" gradientUnits="userSpaceOnUse" x1="37.2082" x2="34.6168" xlink:href="#f" y1="94.1062" y2="94.1044"/><linearGradient id="h" gradientUnits="userSpaceOnUse" x1="43.8711" x2="41.2797" xlink:href="#f" y1="97.0755" y2="97.0733"/><linearGradient id="i" gradientUnits="userSpaceOnUse" x1="48.3054" x2="45.714" xlink:href="#f" y1="95.887" y2="95.8848"/><linearGradient id="j" gradientUnits="userSpaceOnUse" x1="52.7406" x2="50.1492" xlink:href="#f" y1="94.6986" y2="94.6964"/><linearGradient id="k" gradientUnits="userSpaceOnUse" x1="57.1755" x2="54.5841" xlink:href="#f" y1="93.511" y2="93.5089"/><linearGradient id="l" gradientUnits="userSpaceOnUse" x1="61.6109" x2="59.0195" xlink:href="#f" y1="92.3217" y2="92.3195"/><linearGradient id="m" gradientUnits="userSpaceOnUse" x1="66.0456" x2="63.4542" xlink:href="#f" y1="91.1341" y2="91.1319"/><linearGradient id="n" gradientUnits="userSpaceOnUse" x1="70.4808" x2="67.8894" xlink:href="#f" y1="89.9448" y2="89.9426"/><linearGradient id="o" gradientUnits="userSpaceOnUse" x1="74.9162" x2="72.3248" xlink:href="#f" y1="88.7571" y2="88.7549"/><linearGradient id="p" gradientUnits="userSpaceOnUse" x1="79.3512" x2="76.7597" xlink:href="#f" y1="87.5687" y2="87.5665"/><linearGradient id="q" gradientUnits="userSpaceOnUse" x1="83.7864" x2="81.1949" xlink:href="#f" y1="86.3802" y2="86.378"/><linearGradient id="r" gradientUnits="userSpaceOnUse" x1="88.2207" x2="85.6292" xlink:href="#f" y1="85.1918" y2="85.1896"/><linearGradient id="s" gradientUnits="userSpaceOnUse" x1="92.6555" x2="90.0641" xlink:href="#f" y1="84.0042" y2="84.002"/><linearGradient id="t" gradientUnits="userSpaceOnUse" x1="97.0902" x2="94.4988" xlink:href="#f" y1="82.8148" y2="82.8127"/><linearGradient id="u" gradientUnits="userSpaceOnUse" x1="101.525" x2="98.9337" xlink:href="#f" y1="81.6263" y2="81.6241"/><linearGradient id="v" gradientUnits="userSpaceOnUse" x1="105.96" x2="103.369" xlink:href="#f" y1="80.4388" y2="80.4366"/><linearGradient id="w" gradientUnits="userSpaceOnUse" x1="110.395" x2="107.803" xlink:href="#f" y1="79.2503" y2="79.2481"/><linearGradient id="x" gradientUnits="userSpaceOnUse" x1="114.831" x2="112.239" xlink:href="#f" y1="78.0618" y2="78.0597"/><linearGradient id="y" gradientUnits="userSpaceOnUse" x1="119.265" x2="116.674" xlink:href="#f" y1="76.8733" y2="76.8712"/><linearGradient id="z" gradientUnits="userSpaceOnUse" x1="123.7" x2="121.109" xlink:href="#f" y1="75.6849" y2="75.6827"/><linearGradient id="A" gradientUnits="userSpaceOnUse" x1="128.134" x2="125.543" xlink:href="#f" y1="74.4964" y2="74.4942"/><linearGradient id="B" gradientUnits="userSpaceOnUse" x1="129.748" x2="127.157" xlink:href="#f" y1="68.042" y2="68.0403"/><linearGradient id="C"><stop offset="0" stop-color="#81557e"/><stop offset="1" stop-color="#36293b"/></linearGradient><radialGradient id="D" cx="0" cy="0" gradientTransform="matrix(-35.83188778 66.78699785 -115.04701885 -61.72386844 58.5036 10.707)" gradientUnits="userSpaceOnUse" r="1" xlink:href="#C"/><radialGradient id="E" cx="0" cy="0" gradientTransform="matrix(-48.60886367 -41.41036337 25.47866631 -29.90770707 54.1907 54.0892)" gradientUnits="userSpaceOnUse" r="1" xlink:href="#C"/><linearGradient id="F" gradientUnits="userSpaceOnUse" x1="84.9973" x2="99.7084" y1="50.3321" y2="77.4846"><stop offset="0" stop-color="#362a39"/><stop offset="1" stop-color="#362a39" stop-opacity="0"/></linearGradient><radialGradient id="G" cx="0" cy="0" gradientTransform="matrix(-81.83681379 37.95093275 -39.96589138 -86.18183991 119.319 41.8124)" gradientUnits="userSpaceOnUse" r="1"><stop offset="0" stop-color="#36293b"/><stop offset="1" stop-color="#81557e"/></radialGradient><linearGradient id="H" gradientUnits="userSpaceOnUse" x1="109.935" x2="53.7573" y1="49.5851" y2="75.2702"><stop offset="0" stop-color="#302634"/><stop offset=".45" stop-color="#e35760"/><stop offset=".66" stop-color="#e35760"/><stop offset="1" stop-color="#302634"/></linearGradient><radialGradient id="I" cx="0" cy="0" gradientTransform="matrix(32.18149859 -44.98778993 26.64845716 19.06266762 73.4848 71.0019)" gradientUnits="userSpaceOnUse" r="1"><stop offset="0" stop-color="#e35760"/><stop offset="1" stop-color="#302634"/></radialGradient><mask id="J" height="58" maskUnits="userSpaceOnUse" width="100" x="33" y="45"><path d="m56.0837 100.171c21.4318 5.743 51.5243-2.3203 67.2133-18.0096 7.948-7.9478 10.675-16.328 8.645-23.4094l-3.623-13.5863-95.2145 24.9184 3.9364 14.6908c1.9774 6.8975 8.4678 12.5628 19.0428 15.3961z" fill="#b81a24"/></mask><g filter="url(#a)"><ellipse cx="34.9176" cy="45.1025" fill="#27212b" fill-opacity=".3" rx="34.9176" ry="45.1025" transform="matrix(.866026 .5 -.866026 .5 98.5105 44.0643)"/></g><path d="m56.0838 100.172c21.4319 5.743 51.5242-2.3203 67.2142-18.0095 7.947-7.9479 10.674-16.328 8.644-23.4095l-3.623-13.5863-95.2143 24.9184 3.9364 14.6908c1.9773 6.8975 8.4678 12.5629 19.0427 15.3961z" fill="url(#e)"/><g fill-opacity=".2" mask="url(#J)"><path d="m34.7791 70.8231h2.2957v48.2097h-2.2957z" fill="url(#g)" transform="matrix(.96592583 -.25881905 .25881905 .96592583 -17.145298 11.414732)"/><path d="m41.4419 77.9501h2.2957v39.6009h-2.2957z" fill="url(#h)" transform="matrix(.96592583 -.25881905 .25881905 .96592583 -18.762872 13.382038)"/><path d="m45.8762 76.7616h2.2957v39.6009h-2.2957z" fill="url(#i)" transform="matrix(.96592583 -.25881905 .25881905 .96592583 -18.30417 14.489222)"/><path d="m50.3114 75.5732h2.2957v39.6009h-2.2957z" fill="url(#j)" transform="matrix(.96592583 -.25881905 .25881905 .96592583 -17.845464 15.596643)"/><path d="m54.7463 74.3856h2.2957v39.6009h-2.2957z" fill="url(#k)" transform="matrix(.96592583 -.25881905 .25881905 .96592583 -17.386975 16.704013)"/><path d="m59.1817 73.1963h2.2957v39.6009h-2.2957z" fill="url(#l)" transform="matrix(.96592583 -.25881905 .25881905 .96592583 -16.928029 17.811455)"/><path d="m63.6165 72.0087h2.2957v39.6009h-2.2957z" fill="url(#m)" transform="matrix(.96592583 -.25881905 .25881905 .96592583 -16.469543 18.918799)"/><path d="m68.0517 70.8194h2.2957v39.6009h-2.2957z" fill="url(#n)" transform="matrix(.96592583 -.25881905 .25881905 .96592583 -16.010604 20.026189)"/><path d="m72.4871 69.6317h2.2957v39.6009h-2.2957z" fill="url(#o)" transform="matrix(.96592583 -.25881905 .25881905 .96592583 -15.552072 21.133685)"/><path d="m76.922 68.4433h2.2957v39.6009h-2.2957z" fill="url(#p)" transform="matrix(.96592583 -.25881905 .25881905 .96592583 -15.093376 22.241027)"/><path d="m81.3572 67.2548h2.2957v39.6009h-2.2957z" fill="url(#q)" transform="matrix(.96592583 -.25881905 .25881905 .96592583 -14.634644 23.348445)"/><path d="m85.7915 66.0664h2.2957v39.6009h-2.2957z" fill="url(#r)" transform="matrix(.96592583 -.25881905 .25881905 .96592583 -14.175968 24.455632)"/><path d="m90.2263 64.8788h2.2957v39.6009h-2.2957z" fill="url(#s)" transform="matrix(.96592583 -.25881905 .25881905 .96592583 -13.717482 25.562976)"/><path d="m94.661 63.6894h2.2957v39.6009h-2.2957z" fill="url(#t)" transform="matrix(.96592583 -.25881905 .25881905 .96592583 -13.258534 26.670233)"/><path d="m99.0959 62.5009h2.2957v39.6009h-2.2957z" fill="url(#u)" transform="matrix(.96592583 -.25881905 .25881905 .96592583 -12.799812 27.777573)"/><path d="m103.531 61.3133h2.2957v39.6009h-2.2957z" fill="url(#v)" transform="matrix(.96592583 -.25881905 .25881905 .96592583 -12.341316 28.884995)"/><path d="m107.966 60.1249h2.2957v39.6009h-2.2957z" fill="url(#w)" transform="matrix(.96592583 -.25881905 .25881905 .96592583 -11.882617 29.992363)"/><path d="m112.402 58.9364h2.2957v39.6009h-2.2957z" fill="url(#x)" transform="matrix(.96592583 -.25881905 .25881905 .96592583 -11.423857 31.099987)"/><path d="m116.836 57.7479h2.2957v39.6009h-2.2957z" fill="url(#y)" transform="matrix(.96592583 -.25881905 .25881905 .96592583 -10.965166 32.207094)"/><path d="m121.271 56.5595h2.2957v39.6009h-2.2957z" fill="url(#z)" transform="matrix(.96592583 -.25881905 .25881905 .96592583 -10.506467 33.314463)"/><path d="m125.705 55.371h2.2957v39.6009h-2.2957z" fill="url(#A)" transform="matrix(.96592583 -.25881905 .25881905 .96592583 -10.047775 34.421569)"/><path d="m127.319 43.6502h2.2957v50.5055h-2.2957z" fill="url(#B)" transform="matrix(.96592583 -.25881905 .25881905 .96592583 -6.959213 34.439927)"/></g><ellipse cx="40.1748" cy="40.1748" fill="url(#D)" rx="40.1748" ry="40.1748" transform="matrix(.965926 .258819 -.707107 .707107 70.3798 19.0996)"/><ellipse cx="33.256" cy="33.3193" fill="url(#E)" rx="33.256" ry="33.3193" transform="matrix(.965926 .258819 -.707107 .707107 73.0243 29.0869)"/><g filter="url(#b)"><path clip-rule="evenodd" d="m121.034 50.9635c-1.644-5.6984-7.007-10.3757-15.739-12.7155-17.7407-4.7537-42.6709 1.941-55.6829 14.953-6.4007 6.4007-8.7253 13.1378-7.3233 18.8973-1.6953-5.8789.5684-12.8447 7.1758-19.4522 13.012-13.012 37.9422-19.7067 55.6834-14.953 9.014 2.4153 14.438 7.3214 15.886 13.2704z" fill="#81557e" fill-rule="evenodd"/></g><path d="m57.1633 85.2924-3.8265-17.2343 12.5926 2.9237 10.2792-11.5706-4.5723-6.4886 3.3543-4.5195 26.2324-6.0848 4.18 7.3803c1.69 6.3068 7.661 12.0399 8.889 19.1464-33.9856 25.539-42.9655 17.0933-57.1287 16.4474z" fill="url(#F)" fill-opacity=".5"/><path d="m119.584 68.3034c-15.69 15.6893-45.7822 23.7525-67.214 18.0099-21.4319-5.7427-26.0873-23.1166-10.3981-38.8059 15.6893-15.6892 45.7819-23.7525 67.2141-18.0098 21.432 5.7426 26.087 23.1166 10.398 38.8058zm-72.4309-19.4077c-13.5945 13.5945-9.5607 28.6488 9.0097 33.6247s44.6452-2.0108 58.2402-15.6053c13.594-13.5944 9.56-28.6487-9.01-33.6247-18.5706-4.9759-44.6454 2.0108-58.2399 15.6053z" fill="url(#G)"/><g filter="url(#c)"><path clip-rule="evenodd" d="m52.3693 86.3125c21.4319 5.7427 51.5247-2.3206 67.2137-18.0098 7.744-7.7442 10.532-15.8988 8.791-22.8625 2.035 7.083-.691 15.4663-8.642 23.417-15.689 15.6892-45.7819 23.7525-67.2138 18.0099-10.8532-2.9081-17.4041-8.799-19.1895-15.9434 1.98 6.8941 8.4695 12.5563 19.0406 15.3888zm-12.6949-17.0902c-1.7826-6.1451.5751-13.4244 7.4781-20.3273 13.5944-13.5945 39.6692-20.5812 58.2395-15.6053 9.423 2.5249 15.103 7.6446 16.637 13.8519-1.728-5.957-7.347-10.8481-16.488-13.2974-18.5704-4.9759-44.6452 2.0108-58.2397 15.6053-6.6964 6.6964-9.1155 13.747-7.6269 19.7728z" fill="#a0789c" fill-opacity=".3" fill-rule="evenodd"/></g><path d="m95.5381 53.7576.9436 3.522c1.0494-1.0494 1.3-2.0605 1.044-2.9908z" fill="url(#H)"/><path clip-rule="evenodd" d="m96.4817 57.2796 5.3763 1.4404c5.582-5.5823.723-10.1128-4.7251-12.316l4.0751-4.0752-.947-3.5326-8.504 6.1673-14.4955-1.5787-10.9189 8.9078.9445 3.525c.5433 2.8264 3.5523 5.1558 7.0381 6.5777l-9.7795 9.7795c-3.3982-1.5368-6.0488-4.1756-3.3413-6.8832l-.9378-3.4998-7.6857 4.5781.9052 3.3782c.5484 2.6782 3.3073 4.9587 7.0534 6.4329l-5.0048.5403.9435 3.5211 5.3758 1.4404 4.0732-4.0731c6.6207 1.0305 16.5742.4666 22.1565-5.1158 2.3805-2.3804 2.8623-4.5696 2.2094-6.4686l-.8658-3.2314-4.9447-3.7396 8.6578-8.6579c1.9698.9062 3.9408 2.2776 4.3853 3.8924.256.9303.0054 1.9414-1.044 2.9908zm-8.7171-8.3236c-4.0452-.4877-9.9154-.3091-12.7863 2.5618-2.7488 2.7488.156 5.3959 3.3433 6.8811zm-17.843 24.6593c4.0452.4876 9.9154.309 12.7863-2.5618 2.8708-2.8709-.2367-5.455-3.3413-6.8832z" fill="url(#H)" fill-rule="evenodd"/><path d="m95.5378 53.7549 5.3762 1.4405c5.582-5.5824.723-10.1128-4.7251-12.3161l4.0751-4.0751-5.3758-1.4404-4.0751 4.0751c-6.6208-1.0306-16.5722-.4686-22.1546 5.1138-5.3246 5.3245-.9271 10.0132 4.7227 12.318l-9.7794 9.7795c-3.3983-1.5368-6.0489-4.1756-3.3413-6.8832l-5.3759-1.4405c-5.0944 5.0944-1.5867 9.8516 4.7109 12.3299l-4.0613 4.0613 5.3758 1.4405 4.0732-4.0731c6.6208 1.0305 16.5742.4665 22.1565-5.1158 5.5824-5.5824.7233-10.1128-4.7247-12.3161l9.7815-9.7814c3.1046 1.4282 6.2121 4.0123 3.3413 6.8831zm-21.5034-5.7618c2.8708-2.8709 8.741-3.0494 12.7862-2.5618l-9.443 9.443c-3.1873-1.4853-6.0921-4.1323-3.3432-6.8812zm7.7295 19.5357c-2.8709 2.8709-8.7411 3.0494-12.7863 2.5618l9.445-9.4449c3.1046 1.4281 6.2121 4.0123 3.3413 6.8831z" fill="url(#I)"/><g filter="url(#d)"><path clip-rule="evenodd" d="m96.3834 52.6234c1.1969-2.4079-1.4954-4.5134-4.1857-5.7509l-9.4549 9.4549c-.0372-.0153-.0744-.0304-.1116-.0455l9.7814-9.7814c2.8279 1.3008 5.6582 3.5607 3.9708 6.1229zm-.5269.7877c-.0964.1144-.2021.2292-.3175.3446l5.376 1.4404c.785-.7848 1.363-1.5487 1.763-2.2884-.384.623-.894 1.2625-1.548 1.9164zm.6602-10.8576 3.7483-3.7486-.124-.0332-3.7359 3.7363c.0372.0151.0744.0302.1116.0455zm-7.6131 24.1281c-.3832.623-.8938 1.2625-1.5477 1.9164-5.5824 5.5823-15.5358 6.1463-22.1566 5.1157l-4.0731 4.0732-5.2519-1.4073-.3388.3389 5.3758 1.4404 4.0732-4.0731c6.6207 1.0305 16.5741.4666 22.1565-5.1158.7848-.7848 1.3632-1.5487 1.7626-2.2884zm-29.4193 5.9309.3274-.3274c-5.3652-2.1114-8.7054-5.8767-6.4269-10.0955-2.6692 4.339.6439 8.2408 6.0995 10.4229zm.6758-10.872c-.2139.2554-.3816.5099-.5069.7624.1609-.244.3626-.4893.6085-.7352zm13.111-2.9149.3263-.3262c-4.8549-1.9805-8.7851-5.7212-6.4165-10.1131-2.7829 4.5182 1.1508 8.3909 6.0902 10.4393zm13.7657-13.7656c-4.0453-.4876-9.9154-.3091-12.7863 2.5618-.3662.3662-.6321.7307-.8103 1.0908.1576-.2384.3548-.4782.5954-.7188 2.8378-2.8377 8.6062-3.0449 12.6457-2.5783zm-4.4273 21.3373c1.1969-2.4079-1.4954-4.5134-4.1857-5.7509l-9.0895 9.0895c-.0471-.0054-.0939-.011-.1405-.0166l9.4449-9.4449c2.828 1.3008 5.6582 3.5607 3.9708 6.1229z" fill="#fff" fill-opacity=".25" fill-rule="evenodd"/></g></svg>