<svg fill="none" height="164" viewBox="0 0 189 164" width="189" xmlns="http://www.w3.org/2000/svg" xmlns:xlink="http://www.w3.org/1999/xlink"><filter id="a" color-interpolation-filters="sRGB" filterUnits="userSpaceOnUse" height="86.2746" width="138.792" x="15.3639" y="26.4648"><feFlood flood-opacity="0" result="BackgroundImageFix"/><feBlend in="SourceGraphic" in2="BackgroundImageFix" mode="normal" result="shape"/><feGaussianBlur result="effect1_foregroundBlur_1_20" stdDeviation="3.63354"/></filter><filter id="b" color-interpolation-filters="sRGB" filterUnits="userSpaceOnUse" height="48.3956" width="91.7747" x="41.8531" y="46.2438"><feFlood flood-opacity="0" result="BackgroundImageFix"/><feBlend in="SourceGraphic" in2="BackgroundImageFix" mode="normal" result="shape"/><feGaussianBlur result="effect1_foregroundBlur_1_20" stdDeviation=".146278"/></filter><filter id="c" color-interpolation-filters="sRGB" filterUnits="userSpaceOnUse" height="70.6759" width="110.67" x="32.3416" y="41.0224"><feFlood flood-opacity="0" result="BackgroundImageFix"/><feBlend in="SourceGraphic" in2="BackgroundImageFix" mode="normal" result="shape"/><feGaussianBlur result="effect1_foregroundBlur_1_20" stdDeviation=".146278"/></filter><filter id="d" color-interpolation-filters="sRGB" filterUnits="userSpaceOnUse" height="45.3473" width="66.4188" x="51.0723" y="45.9705"><feFlood flood-opacity="0" result="BackgroundImageFix"/><feBlend in="SourceGraphic" in2="BackgroundImageFix" mode="normal" result="shape"/><feGaussianBlur result="effect1_foregroundBlur_1_20" stdDeviation=".136056"/></filter><linearGradient id="e" gradientUnits="userSpaceOnUse" x1="155.458" x2="39.1" y1="72.4661" y2="114.339"><stop offset="0" stop-color="#66536e"/><stop offset=".3125" stop-color="#302634"/><stop offset=".588542" stop-color="#c44b53"/><stop offset=".793394" stop-color="#ff656f"/><stop offset=".952475" stop-color="#ff9da3"/><stop offset="1" stop-color="#ff656f"/></linearGradient><linearGradient id="f"><stop offset="0" stop-color="#302634"/><stop offset="1" stop-color="#302634" stop-opacity="0"/></linearGradient><linearGradient id="g" gradientUnits="userSpaceOnUse" x1="2.86032" x2="-.191042" xlink:href="#f" y1="27.4156" y2="27.4135"/><linearGradient id="h" gradientUnits="userSpaceOnUse" x1="2.86032" x2="-.191041" xlink:href="#f" y1="22.5199" y2="22.5174"/><linearGradient id="i" gradientUnits="userSpaceOnUse" x1="2.86032" x2="-.191042" xlink:href="#f" y1="28.7211" y2="28.7191"/><linearGradient id="j"><stop offset="0" stop-color="#e35760"/><stop offset="1" stop-color="#302634"/></linearGradient><radialGradient id="k" cx="0" cy="0" gradientTransform="matrix(-39.37377787 -107.25735011 89.04952875 -32.68975376 52.4434 70.5384)" gradientUnits="userSpaceOnUse" r="1" xlink:href="#j"/><linearGradient id="l" gradientUnits="userSpaceOnUse" x1="91.0209" x2="111.17" y1="64.2323" y2="94.5124"><stop offset="0" stop-color="#362a39"/><stop offset="1" stop-color="#362a39" stop-opacity="0"/></linearGradient><linearGradient id="m" gradientUnits="userSpaceOnUse" x1="91.1597" x2="64.9988" xlink:href="#j" y1="118.752" y2="27.191"/><linearGradient id="n"><stop offset=".125157" stop-color="#36293b"/><stop offset="1" stop-color="#81557e"/></linearGradient><linearGradient id="o" gradientUnits="userSpaceOnUse" x1="54.9316" x2="53.5223" xlink:href="#n" y1="74.5727" y2="98.8359"/><linearGradient id="p"><stop offset=".111577" stop-color="#36293b"/><stop offset=".571564" stop-color="#81557e"/></linearGradient><linearGradient id="q" gradientUnits="userSpaceOnUse" x1="59.4097" x2="64.0437" xlink:href="#p" y1="82.9927" y2="95.596"/><linearGradient id="r"><stop offset="0" stop-color="#36293b"/><stop offset="1" stop-color="#81557e"/></linearGradient><linearGradient id="s" gradientUnits="userSpaceOnUse" x1="61.7446" x2="48.1829" xlink:href="#r" y1="89.0071" y2="98.7028"/><linearGradient id="t" gradientUnits="userSpaceOnUse" x1="65.7757" x2="63.6107" xlink:href="#n" y1="81.6263" y2="93.1582"/><linearGradient id="u" gradientUnits="userSpaceOnUse" x1="67.3423" x2="72.0395" xlink:href="#p" y1="86.1201" y2="98.8954"/><linearGradient id="v" gradientUnits="userSpaceOnUse" x1="69.6953" x2="56.1122" xlink:href="#r" y1="92.1624" y2="101.872"/><linearGradient id="w" gradientUnits="userSpaceOnUse" x1="102.48" x2="121.92" y1="80.5015" y2="73.325"><stop offset=".0255456" stop-color="#372a3c"/><stop offset=".262597" stop-color="#372a3c"/><stop offset=".483201" stop-color="#6f4a6e"/><stop offset=".933517" stop-color="#462f45"/><stop offset="1" stop-color="#372a3c"/></linearGradient><linearGradient id="x" gradientUnits="userSpaceOnUse" x1="77.206" x2="111.493" y1="98.8356" y2="86.1786"><stop offset=".0255456" stop-color="#372a3c"/><stop offset=".262597" stop-color="#372a3c"/><stop offset=".593342" stop-color="#6f4a6e"/><stop offset=".933517" stop-color="#462f45"/><stop offset="1" stop-color="#372a3c"/></linearGradient><linearGradient id="y" gradientUnits="userSpaceOnUse" x1="111.701" x2="116.023" xlink:href="#p" y1="51.38" y2="63.1347"/><linearGradient id="z" gradientUnits="userSpaceOnUse" x1="102.976" x2="106.12" xlink:href="#p" y1="49.0046" y2="57.5536"/><linearGradient id="A"><stop offset=".111577" stop-color="#36293b"/><stop offset=".897208" stop-color="#81557e"/></linearGradient><linearGradient id="B" gradientUnits="userSpaceOnUse" x1="85.3176" x2="88.4704" xlink:href="#A" y1="50.7822" y2="59.3569"/><linearGradient id="C" gradientUnits="userSpaceOnUse" x1="74.3722" x2="79.4897" xlink:href="#A" y1="70.4343" y2="84.3525"/><linearGradient id="D" gradientUnits="userSpaceOnUse" x1="84.2094" x2="77.7714" xlink:href="#n" y1="65.9511" y2="96.1861"/><linearGradient id="E" gradientUnits="userSpaceOnUse" x1="89.0388" x2="93.5556" xlink:href="#p" y1="59.2571" y2="71.5417"/><linearGradient id="F" gradientUnits="userSpaceOnUse" x1="98.283" x2="93.6843" xlink:href="#n" y1="55.8049" y2="78.8156"/><radialGradient id="G" cx="0" cy="0" gradientTransform="matrix(-20.43119007 39.54913262 -81.54949623 -42.12869278 95.8733 51.2022)" gradientUnits="userSpaceOnUse" r="1"><stop offset="0" stop-color="#81557e"/><stop offset="1" stop-color="#36293b"/></radialGradient><mask id="H" height="74" maskUnits="userSpaceOnUse" width="117" x="32" y="53"><path d="m62.4806 125.731c25.7571 4.446 60.1834-8.212 76.8944-28.2732 8.465-10.1624 10.76-20.275 7.615-28.3584l-5.715-15.5375-108.9914 39.3545 6.2012 16.7986c3.063 7.873 11.2867 13.822 23.9958 16.016z" fill="#b81a24"/></mask><mask id="I" fill="#fff"><path clip-rule="evenodd" d="m56.6289 109.882c25.7571 4.447 60.1841-8.211 76.8941-28.2723 8.246-9.8996 10.637-19.7519 7.848-27.7272 3.147 8.0839.852 18.1976-7.614 28.3611-16.71 20.0604-51.1368 32.7194-76.894 28.2724-13.0465-2.252-21.3662-8.46-24.2288-16.6462 3.0639 7.8722 11.2871 13.8192 23.9947 16.0122zm-16.7349-18.682c-2.7506-7.0114-.7693-15.7923 6.5812-24.6165 14.4793-17.3824 44.3095-28.3504 66.6278-24.4979 11.327 1.9553 18.542 7.3525 21.009 14.4666-2.668-6.8001-9.787-11.9359-20.775-13.8327-22.3181-3.8525-52.1484 7.1156-66.6277 24.4979-7.1305 8.5603-9.2084 17.0797-6.8153 23.9826z" fill="#fff" fill-rule="evenodd"/></mask><g filter="url(#a)"><ellipse cx="40.0858" cy="59.4876" fill="#27212b" fill-opacity=".3" rx="40.0858" ry="59.4876" transform="matrix(.866026 .5 -.866026 .5 101.562 19.8154)"/></g><path d="m62.4821 125.731c25.7571 4.446 60.1839-8.212 76.8939-28.2732 8.465-10.1623 10.76-20.275 7.616-28.3583l-5.715-15.5375-108.9919 39.3544 6.2012 16.7986c3.063 7.873 11.2867 13.822 23.9958 16.016z" fill="url(#e)"/><g fill-opacity=".2" mask="url(#H)"><path d="m0 0h2.70316v56.7664h-2.70316z" fill="url(#g)" transform="matrix(.938568 -.345095 .346306 .938121 34.3286 93.6035)"/><g fill="url(#h)"><path d="m0 0h2.70316v46.6295h-2.70316z" transform="matrix(.938568 -.345095 .346306 .938121 42.9121 101.247)"/><path d="m0 0h2.70316v46.6295h-2.70316z" transform="matrix(.938568 -.345095 .346306 .938121 47.9854 99.3818)"/><path d="m0 0h2.70316v46.6295h-2.70316z" transform="matrix(.938568 -.345095 .346306 .938121 53.0591 97.5166)"/><path d="m0 0h2.70316v46.6295h-2.70316z" transform="matrix(.938568 -.345095 .346306 .938121 58.1343 95.6504)"/><path d="m0 0h2.70316v46.6295h-2.70316z" transform="matrix(.938568 -.345095 .346306 .938121 63.2065 93.7852)"/><path d="m0 0h2.70316v46.6295h-2.70316z" transform="matrix(.938568 -.345095 .346306 .938121 68.2808 91.9199)"/><path d="m0 0h2.70316v46.6295h-2.70316z" transform="matrix(.938568 -.345095 .346306 .938121 73.354 90.0547)"/><path d="m0 0h2.70316v46.6295h-2.70316z" transform="matrix(.938568 -.345095 .346306 .938121 78.4272 88.1895)"/><path d="m0 0h2.70316v46.6295h-2.70316z" transform="matrix(.938568 -.345095 .346306 .938121 83.5015 86.3232)"/><path d="m0 0h2.70316v46.6295h-2.70316z" transform="matrix(.938568 -.345095 .346306 .938121 88.5757 84.458)"/><path d="m0 0h2.70316v46.6295h-2.70316z" transform="matrix(.938568 -.345095 .346306 .938121 93.6489 82.5928)"/><path d="m0 0h2.70316v46.6295h-2.70316z" transform="matrix(.938568 -.345095 .346306 .938121 98.7217 80.7266)"/><path d="m0 0h2.70316v46.6295h-2.70316z" transform="matrix(.938568 -.345095 .346306 .938121 103.796 78.8613)"/><path d="m0 0h2.70316v46.6295h-2.70316z" transform="matrix(.938568 -.345095 .346306 .938121 108.869 76.9961)"/><path d="m0 0h2.70316v46.6295h-2.70316z" transform="matrix(.938568 -.345095 .346306 .938121 113.943 75.1299)"/><path d="m0 0h2.70316v46.6295h-2.70316z" transform="matrix(.938568 -.345095 .346306 .938121 119.018 73.2646)"/><path d="m0 0h2.70316v46.6295h-2.70316z" transform="matrix(.938568 -.345095 .346306 .938121 124.091 71.3994)"/><path d="m0 0h2.70316v46.6295h-2.70316z" transform="matrix(.938568 -.345095 .346306 .938121 129.163 69.5342)"/><path d="m0 0h2.70316v46.6295h-2.70316z" transform="matrix(.938568 -.345095 .346306 .938121 134.237 67.6689)"/><path d="m0 0h2.70316v46.6295h-2.70316z" transform="matrix(.938568 -.345095 .346306 .938121 139.309 65.8037)"/></g><path d="m0 0h2.70316v59.4696h-2.70316z" fill="url(#i)" transform="matrix(.938568 -.345095 .346306 .938121 139.937 51.8916)"/></g><ellipse cx="47.3007" cy="47.3007" fill="#602e2e" rx="47.3007" ry="47.3007" transform="matrix(.985976 .170199 -.63967 .767923 70.5078 29.1845)"/><ellipse cx="39.1548" cy="39.2293" fill="url(#k)" rx="39.1548" ry="39.2293" transform="matrix(.985976 .170199 -.63967 .767923 74.686 40.6083)"/><g filter="url(#b)"><path clip-rule="evenodd" d="m133.335 61.0796c-2.557-6.4782-9.344-11.3676-19.811-13.1744-21.321-3.6805-49.8402 6.8234-63.6991 23.461-6.8351 8.2055-8.8277 16.3706-6.5341 22.9807-2.652-6.7181-.7562-15.1448 6.2991-23.6147 13.8589-16.6376 42.3781-27.1414 63.6991-23.4609 10.806 1.8652 17.689 7.0158 20.046 13.8083z" fill="#ffadad" fill-opacity=".4" fill-rule="evenodd"/></g><path d="m58.1969 108.245-3.6508-14.2647 17.9113-8.9981 7.4741-17.4917 16.0631-7.5442 23.7764-2.1894c2.662 7.212 5.401 16.8529 7.608 25.0514-37.1099 33.5567-52.4996 24.6847-69.1821 25.4367z" fill="url(#l)" fill-opacity=".5"/><path d="m133.526 81.6088c-16.711 20.0612-51.1374 32.7192-76.8945 28.2732-25.7571-4.447-33.0909-24.3135-16.3805-44.3742 16.7104-20.0608 51.1371-32.719 76.894-28.2728 25.757 4.4462 33.091 24.313 16.381 44.3738zm-87.0482-15.0262c-14.4794 17.3824-8.1247 34.5964 14.1934 38.4494 22.3182 3.852 52.1488-7.1157 66.6278-24.498 14.479-17.3824 8.125-34.5967-14.194-38.4493-22.3177-3.8525-52.1479 7.1156-66.6272 24.4979z" fill="url(#m)"/><g filter="url(#c)"><path clip-rule="evenodd" d="m56.6289 109.882c25.7571 4.447 60.1841-8.211 76.8941-28.2723 8.246-9.8996 10.637-19.7519 7.848-27.7272 3.147 8.0839.852 18.1976-7.614 28.3611-16.71 20.0604-51.1368 32.7194-76.894 28.2724-13.0465-2.252-21.3662-8.46-24.2288-16.6462 3.0639 7.8722 11.2871 13.8192 23.9947 16.0122zm-16.7349-18.682c-2.7506-7.0114-.7693-15.7923 6.5812-24.6165 14.4793-17.3824 44.3095-28.3504 66.6278-24.4979 11.327 1.9553 18.542 7.3525 21.009 14.4666-2.668-6.8001-9.787-11.9359-20.775-13.8327-22.3181-3.8525-52.1484 7.1156-66.6277 24.4979-7.1305 8.5603-9.2084 17.0797-6.8153 23.9826z" fill="#ffadad" fill-opacity=".2" fill-rule="evenodd"/><path d="m133.523 81.6097-.225-.1872zm-76.8941 28.2723.0496-.288zm84.7421-55.9995.273-.1057-.549.202zm-7.614 28.3611-.225-.1872zm-76.894 28.2724.0496-.288zm-24.2288-16.6462.2728-.1058-.5491.202zm13.841-27.2863.225.1872zm-6.5812 24.6165-.2725.1065.5491-.2019zm73.209-49.1144.049-.2881zm21.009 14.4666-.273.1065.549-.2019zm-20.775-13.8327-.05.2882zm-66.6277 24.4979-.225-.1872zm86.5887 14.2051c-8.315 9.9817-21.051 18.1359-34.9308 23.2395-13.8797 5.103-28.8727 7.145-41.6887 4.932l-.0991.577c12.9411 2.234 28.0399.169 41.9905-4.96 13.9501-5.13 26.7821-13.335 35.1781-23.4141zm7.797-27.4437c2.743 7.8443.41 17.5908-7.797 27.4437l.45.3744c8.285-9.9462 10.734-19.9044 7.9-28.0106zm.004.0095c3.094 7.9495.859 17.9525-7.567 28.0681l.45.3744c8.506-10.2114 10.861-20.4359 7.662-28.654zm-7.567 28.0681c-8.314 9.9817-21.051 18.1356-34.9306 23.2396-13.8797 5.103-28.8728 7.145-41.6888 4.932l-.0991.577c12.9411 2.233 28.0399.169 41.9905-4.96 13.951-5.13 26.783-13.335 35.178-23.4142zm-76.6194 28.1716c-12.9851-2.241-21.1871-8.404-24.0021-16.4544l-.5526.1924c2.9101 8.322 11.3476 14.576 24.4556 16.839zm-.2341-.634c-12.6477-2.183-20.7579-8.087-23.7715-15.83l-.5456.2115c3.1142 8.0015 11.4505 13.9915 24.218 16.1955zm-10.4283-43.1977c-7.3904 8.8722-9.432 17.7642-6.6287 24.9102l.545-.2129c-2.6978-6.877-.7768-15.5466 6.5337-24.3229zm66.9018-24.5988c-11.221-1.9371-24.3112-.1468-36.4038 4.2995-12.0927 4.4463-23.2178 11.5594-30.498 20.2993l.45.3744c7.1991-8.6424 18.2288-15.7046 30.2506-20.1248s25.0062-6.1876 36.1022-4.2721zm21.236 14.6593c-2.513-7.2507-9.847-12.6934-21.236-14.6593l-.099.5763c11.266 1.9447 18.363 7.2963 20.782 14.2739zm-.004-.011c-2.718-6.9288-9.949-12.1073-20.997-14.0144l-.1.5763c10.929 1.8865 17.935 6.9796 20.552 13.651zm-20.997-14.0144c-11.222-1.9371-24.312-.1467-36.4047 4.2995-12.0927 4.4463-23.2178 11.5594-30.498 20.2993l.45.3745c7.1991-8.6425 18.2288-15.7046 30.2506-20.1248 12.0218-4.4203 25.0061-6.1877 36.1021-4.2722zm-66.9027 24.5988c-7.1694 8.6068-9.3052 17.2318-6.8668 24.2653l.5531-.1909c-2.3479-6.7723-.328-15.1863 6.7637-23.6999z" fill="#000" mask="url(#I)"/></g><path d="m51.3462 77.7666 2.3806 6.4489 4.0544 1.616 3.9889-5.267c-.713-.2931-1.3596-.5642-1.3596-.5642z" fill="url(#o)"/><path d="m58.9432 95.9003 7.9921-6.2828-.7748-2.0986-1.6475-4.4616-7.9845 6.3018z" fill="url(#q)"/><path d="m54.5295 94.141 4.413 1.7603-2.4147-6.5413-4.3763-1.6608z" fill="url(#s)"/><path d="m64.5131 83.0576 4.0098 1.2994c-.215.7568-.5413 1.8906-.8444 2.9149l-1.518.2474z" fill="url(#t)"/><path d="m66.8134 99.2245 8.2101-6.3923-2.4533-6.6667-8.1385 6.6074z" fill="url(#u)"/><path d="m62.4704 97.3071 4.419 1.7612-2.3816-6.4517-4.4205-1.765z" fill="url(#v)"/><path d="m102.136 79.572c3.999-.1092 8.129-1.4587 11.967-4.9202l.001.0003c2.448-2.2032 3.193-4.1004 2.769-5.7721l-2.445-6.6239-2.813 1.6443-5.03 5.5496-6.899 3.484z" fill="url(#w)"/><path d="m74.952 92.7296c7.8971 2.5929 15.1562 3.0472 23.4713-2.7282 4.6927-3.2572 6.1557-5.8131 5.5457-7.9311l-2.566-6.9508-10.4313 6.9978-9.2806 2.844-9.1925 1.1018z" fill="url(#x)"/><path d="m117.215 51.1631 2.384 6.459-6.527 5.1325-3.224-2.7021-1.508-2.1742.775-.7472z" fill="url(#y)"/><path d="m109.272 48.0063 2.38 6.4473-10.024 2.648-3.3218-2.1564c1.3814-1.0148 4.2218-3.0974 4.5338-3.3094s4.418-2.508 6.432-3.6295z" fill="url(#z)"/><path d="m90.3325 55.4294-5.1901 4.0822-2.3872-6.4667 6.9724 1.3588z" fill="url(#B)"/><path d="m72.9139 85.0354 10.7014-8.413-2.4193-6.5536-11.0255 8.3957z" fill="url(#C)"/><path d="m84.7126 77.0371c-.4243-.1564-.7989-.2946-1.0995-.4145l-2.5568-6.9261 9.762 2.2258.4781 8.3911c-1.7077-1.4786-4.6569-2.5659-6.5827-3.2759l-.0006-.0002z" fill="url(#D)"/><path d="m98.2167 65.1388-2.3937-6.4842-11.076 8.5222 5.9254 3.8937z" fill="url(#E)"/><path d="m104.537 63.5043c.123.3346-1.185 2.4479-1.854 3.4628l-4.4659-1.8235-2.3945-6.4864 3.7506 1.183 3.3028 1.118c.502.7093 1.537 2.2116 1.661 2.5461z" fill="url(#F)"/><path clip-rule="evenodd" d="m111.723 68.2008c5.252-4.7272 2.665-8.0456-2.489-10.7516l7.985-6.2785-4.42-1.7614-7.775 6.1131c-1.16-.4627-2.373-.9162-3.578-1.3661l7.827-6.1532-4.416-1.7607-7.9846 6.276c-.9781-.3645-1.937-.7236-2.8537-1.0883l.0242-.0197-6.0918-2.4314-5.1899 4.0821s3.3312 1.2471 3.2109 1.2774c1.7891.714 1.2301 1.8451.4117 2.6879l-9.0962 7.1527c.1227.0498.2782.1185.4331.2128l-.4659-.1854-12.7461 10.0193c-.6981.4559-2.0171 1.1007-3.2699.604.0015.0659-3.2109-1.2812-3.2109-1.2812l-6.6835 4.2152 5.7517 2.2924c.6485.2595 1.2838.5219 1.9121.7814l.0006.0003c.4069.168.8109.3349 1.2136.499l-8.0751 6.3518 4.4129 1.7603 7.9919-6.2827c1.1828.5046 2.345.9805 3.4911 1.436l-7.9557 6.2532 4.4189 1.7611 8.063-6.3382c7.8971 2.5929 15.1563 3.0472 23.4713-2.7282 6.7003-4.6505 6.8163-7.8715 3.7147-10.4295 3.9986-.1093 8.1286-1.4587 11.9666-4.9201zm-23.4518 11.1136c-5.5383 4.3561-13.3282 1.1057-16.8892-.3802-.3189-.133-.6039-.2519-.8503-.35l10.7013-8.4128c.3009.12.6759.2583 1.1006.4149 3.8032 1.4021 11.5976 4.2758 5.9391 8.7284zm-1.4206-12.6976c2.9653 1.2466 9.4289 3.964 14.4634.0073 5.149-4.048-1.3687-6.4271-4.5518-7.589-.3578-.1306-.6735-.2458-.9257-.3463l-9.7048 7.6304c.2082.0829.449.1842.7189.2976z" fill="url(#G)" fill-rule="evenodd"/><g filter="url(#d)"><path clip-rule="evenodd" d="m100.235 73.5471c-.106.0046-.212.0084-.3179.0113.7679.6335 1.3389 1.3077 1.6609 2.0341-.216-.7303-.68-1.4085-1.343-2.0454zm-39.6708 17.4985 7.6407-6.0056c-.1584-.063-.3172-.1264-.4764-.1902l-7.641 6.0059zm-7.9405-3.1667-.4764-.19 7.7646-6.1076c.1577.0648.315.1292.4722.1933zm-.7551-9.906 6.321-3.9866s3.2124 1.3471 3.2109 1.2812c1.2528.4967 2.5718-.1481 3.2699-.604l12.7462-10.0192.4658.1853c-.1549-.0943-.3103-.163-.4331-.2128l9.0963-7.1527c.5801-.5974 1.0298-1.3398.6053-1.9757.0562.5216-.3161 1.0737-.7671 1.5382l-9.0962 7.1527c.1227.0498.2782.1185.4331.2128l-.4659-.1854-12.7461 10.0193c-.6982.4559-2.0171 1.1007-3.2699.604.0014.0659-3.2109-1.2812-3.2109-1.2812l-6.6835 4.2152zm31.3781-24.7288 4.8661-3.8274 6.0918 2.4314-.0242.0197c.9167.3647 1.8757.7238 2.8537 1.0883l7.9849-6.276 3.939 1.5706.315-.2474-4.416-1.7607-7.9846 6.276c-.9781-.3645-1.9371-.7236-2.8538-1.0883l.0242-.0197-6.0917-2.4314-5.19 4.0821s.1935.0725.4856.1828zm18.6863 1.0942-.325.2557c1.205.4499 2.418.9034 3.578 1.3661l7.774-6.1131 3.944 1.5715.315-.2476-4.42-1.7614-7.775 6.1131c-1.004-.4004-2.047-.794-3.091-1.1843zm7.728 3.34-.265.2086c2.455 1.289 4.327 2.7171 5.048 4.3701-.53-1.741-2.331-3.236-4.783-4.5787zm-38.279 21.2561c3.561 1.4859 11.3508 4.7363 16.8891.3802l.0016.0003c1.729-1.3606 2.2019-2.5737 1.9165-3.6425.5544 1.1718.2147 2.5302-1.7548 4.08l-.0015-.0002c-5.5383 4.356-13.3282 1.1056-16.8892-.3803-.3189-.133-.6038-.2519-.8503-.35l.3112-.2446c.1198.0497.2457.1022.3774.1571zm29.932-12.3101c-5.0345 3.9567-11.4982 1.2393-14.4635-.0073-.0853-.0359-.1678-.0705-.2472-.1038l-.3099.2437c.2082.0829.449.1842.7189.2976 2.9653 1.2466 9.4289 3.964 14.4627.0073 1.896-1.4903 2.21-2.7544 1.692-3.8148.244.9659-.212 2.0868-1.853 3.3773z" fill="#fff" fill-opacity=".25" fill-rule="evenodd"/></g></svg>