<svg fill="none" height="219" viewBox="0 0 239 219" width="239" xmlns="http://www.w3.org/2000/svg" xmlns:xlink="http://www.w3.org/1999/xlink"><filter id="a" color-interpolation-filters="sRGB" filterUnits="userSpaceOnUse" height="217.84" width="237.703" x=".549652" y=".379242"><feFlood flood-opacity="0" result="BackgroundImageFix"/><feBlend in="SourceGraphic" in2="BackgroundImageFix" mode="normal" result="shape"/><feGaussianBlur result="effect1_foregroundBlur_1_79" stdDeviation="35"/></filter><filter id="b" color-interpolation-filters="sRGB" filterUnits="userSpaceOnUse" height="30.8657" width="66.4505" x="87.3458" y="83.472"><feFlood flood-opacity="0" result="BackgroundImageFix"/><feBlend in="SourceGraphic" in2="BackgroundImageFix" mode="normal" result="shape"/><feGaussianBlur result="effect1_foregroundBlur_1_79" stdDeviation=".146278"/></filter><filter id="c" color-interpolation-filters="sRGB" filterUnits="userSpaceOnUse" height="48.1732" width="80.0811" x="80.3631" y="79.7531"><feFlood flood-opacity="0" result="BackgroundImageFix"/><feBlend in="SourceGraphic" in2="BackgroundImageFix" mode="normal" result="shape"/><feGaussianBlur result="effect1_foregroundBlur_1_79" stdDeviation=".146278"/></filter><filter id="d" color-interpolation-filters="sRGB" filterUnits="userSpaceOnUse" height="29.547" width="48.4983" x="94.4815" y="83.4557"><feFlood flood-opacity="0" result="BackgroundImageFix"/><feBlend in="SourceGraphic" in2="BackgroundImageFix" mode="normal" result="shape"/><feGaussianBlur result="effect1_foregroundBlur_1_79" stdDeviation=".136056"/></filter><filter id="e" color-interpolation-filters="sRGB" filterUnits="userSpaceOnUse" height="31.3576" width="66.895" x="87.0776" y="83.2473"><feFlood flood-opacity="0" result="BackgroundImageFix"/><feBlend in="SourceGraphic" in2="BackgroundImageFix" mode="normal" result="shape"/><feGaussianBlur result="effect1_foregroundBlur_1_79" stdDeviation=".260435"/></filter><filter id="f" color-interpolation-filters="sRGB" filterUnits="userSpaceOnUse" height="48.6428" width="80.5324" x="80.0961" y="79.5265"><feFlood flood-opacity="0" result="BackgroundImageFix"/><feBlend in="SourceGraphic" in2="BackgroundImageFix" mode="normal" result="shape"/><feGaussianBlur result="effect1_foregroundBlur_1_79" stdDeviation=".260435"/></filter><filter id="g" color-interpolation-filters="sRGB" filterUnits="userSpaceOnUse" height="34.0227" width="42.6939" x="95.9939" y="85.3912"><feFlood flood-opacity="0" result="BackgroundImageFix"/><feBlend in="SourceGraphic" in2="BackgroundImageFix" mode="normal" result="shape"/><feGaussianBlur result="effect1_foregroundBlur_1_79" stdDeviation=".242236"/></filter><radialGradient id="h" cx="0" cy="0" gradientTransform="matrix(-28.59078569 49.28005567 -127.32235827 -73.86855004 73.7775 36.9399)" gradientUnits="userSpaceOnUse" r="1"><stop offset="0" stop-color="#6f4b6e"/><stop offset=".9375" stop-color="#e35760"/></radialGradient><linearGradient id="i" gradientUnits="userSpaceOnUse" x1="168.425" x2="84.0248" y1="105.054" y2="127.897"><stop offset="0" stop-color="#66536e"/><stop offset=".3125" stop-color="#302634"/><stop offset=".588542" stop-color="#c44b53"/><stop offset=".793394" stop-color="#ff656f"/><stop offset=".952475" stop-color="#ff9da3"/><stop offset="1" stop-color="#ff656f"/></linearGradient><linearGradient id="j"><stop offset="0" stop-color="#302634"/><stop offset="1" stop-color="#302634" stop-opacity="0"/></linearGradient><linearGradient id="k" gradientUnits="userSpaceOnUse" x1="2.02241" x2="-.135077" xlink:href="#j" y1="19.3478" y2="19.3463"/><linearGradient id="l" gradientUnits="userSpaceOnUse" x1="2.02241" x2="-.135077" xlink:href="#j" y1="15.8928" y2="15.891"/><linearGradient id="m"><stop offset="0" stop-color="#e35760"/><stop offset="1" stop-color="#302634"/></linearGradient><radialGradient id="n" cx="0" cy="0" gradientTransform="matrix(-27.82647741 -75.80157129 62.93333654 -23.10259587 37.063 49.8511)" gradientUnits="userSpaceOnUse" r="1" xlink:href="#m"/><linearGradient id="o"><stop offset="0" stop-color="#362a39"/><stop offset="1" stop-color="#362a39" stop-opacity="0"/></linearGradient><linearGradient id="p" gradientUnits="userSpaceOnUse" x1="123.496" x2="135.929" xlink:href="#o" y1="95.5977" y2="118.056"/><linearGradient id="q" gradientUnits="userSpaceOnUse" x1="120.453" x2="107.277" xlink:href="#m" y1="133.963" y2="68.0635"/><linearGradient id="r"><stop offset=".125157" stop-color="#36293b"/><stop offset="1" stop-color="#81557e"/></linearGradient><linearGradient id="s" gradientUnits="userSpaceOnUse" x1="97.4715" x2="95.104" xlink:href="#r" y1="100.822" y2="117.815"/><linearGradient id="t"><stop offset=".111577" stop-color="#36293b"/><stop offset=".571564" stop-color="#81557e"/></linearGradient><linearGradient id="u" gradientUnits="userSpaceOnUse" x1="100.142" x2="102.681" xlink:href="#t" y1="107" y2="116.13"/><linearGradient id="v"><stop offset="0" stop-color="#36293b"/><stop offset="1" stop-color="#81557e"/></linearGradient><linearGradient id="w" gradientUnits="userSpaceOnUse" x1="101.441" x2="91.3322" xlink:href="#v" y1="111.364" y2="117.424"/><linearGradient id="x" gradientUnits="userSpaceOnUse" x1="104.706" x2="102.53" xlink:href="#r" y1="106.401" y2="114.394"/><linearGradient id="y" gradientUnits="userSpaceOnUse" x1="105.552" x2="108.125" xlink:href="#t" y1="109.651" y2="118.906"/><linearGradient id="z" gradientUnits="userSpaceOnUse" x1="106.862" x2="96.7374" xlink:href="#v" y1="114.035" y2="120.104"/><linearGradient id="A" gradientUnits="userSpaceOnUse" x1="130.633" x2="144.745" y1="107.695" y2="103.751"><stop offset=".0255456" stop-color="#372a3c"/><stop offset=".262597" stop-color="#372a3c"/><stop offset=".483201" stop-color="#6f4a6e"/><stop offset=".933517" stop-color="#462f45"/><stop offset="1" stop-color="#372a3c"/></linearGradient><linearGradient id="B" gradientUnits="userSpaceOnUse" x1="111.769" x2="136.657" y1="119.158" y2="112.202"><stop offset=".0255456" stop-color="#372a3c"/><stop offset=".262597" stop-color="#372a3c"/><stop offset=".593342" stop-color="#6f4a6e"/><stop offset=".933517" stop-color="#462f45"/><stop offset="1" stop-color="#372a3c"/></linearGradient><linearGradient id="C" gradientUnits="userSpaceOnUse" x1="138.808" x2="141.176" xlink:href="#t" y1="87.7316" y2="96.2469"/><linearGradient id="D" gradientUnits="userSpaceOnUse" x1="132.798" x2="134.52" xlink:href="#t" y1="85.5655" y2="91.7586"/><linearGradient id="E"><stop offset=".111577" stop-color="#36293b"/><stop offset=".897208" stop-color="#81557e"/></linearGradient><linearGradient id="F" gradientUnits="userSpaceOnUse" x1="120.253" x2="121.98" xlink:href="#E" y1="85.8114" y2="92.0232"/><linearGradient id="G" gradientUnits="userSpaceOnUse" x1="111.408" x2="114.212" xlink:href="#E" y1="99.0153" y2="109.098"/><linearGradient id="H" gradientUnits="userSpaceOnUse" x1="118.598" x2="112.356" xlink:href="#r" y1="96.4212" y2="117.337"/><linearGradient id="I" gradientUnits="userSpaceOnUse" x1="122.386" x2="124.861" xlink:href="#t" y1="91.9863" y2="100.886"/><linearGradient id="J" gradientUnits="userSpaceOnUse" x1="129.099" x2="124.56" xlink:href="#r" y1="90.0812" y2="106.016"/><linearGradient id="K"><stop offset="0" stop-color="#81557e"/><stop offset="1" stop-color="#36293b"/></linearGradient><radialGradient id="L" cx="0" cy="0" gradientTransform="matrix(-16.67435662 26.66279802 -54.9689063 -34.37640512 127.666 86.7066)" gradientUnits="userSpaceOnUse" r="1" xlink:href="#K"/><linearGradient id="M" gradientUnits="userSpaceOnUse" x1="168.366" x2="83.9374" y1="105.07" y2="127.804"><stop offset="0" stop-color="#66536e"/><stop offset=".3125" stop-color="#302634"/><stop offset=".58" stop-color="#594163"/><stop offset=".793394" stop-color="#6f4a6e"/><stop offset=".952475" stop-color="#7a5178"/><stop offset="1" stop-color="#332837"/></linearGradient><linearGradient id="N" gradientUnits="userSpaceOnUse" x1="49.9121" x2="170.568" y1="134.287" y2="145.623"><stop offset="0" stop-color="#fbff5c"/><stop offset=".370478" stop-color="#e35760"/><stop offset=".825209" stop-color="#302634"/></linearGradient><linearGradient id="O" gradientUnits="userSpaceOnUse" x1="83.8409" x2="81.6837" xlink:href="#j" y1="132.397" y2="132.395"/><linearGradient id="P" gradientUnits="userSpaceOnUse" x1="89.4403" x2="87.283" xlink:href="#j" y1="134.809" y2="134.808"/><linearGradient id="Q" gradientUnits="userSpaceOnUse" x1="93.1224" x2="90.9652" xlink:href="#j" y1="133.786" y2="133.784"/><linearGradient id="R" gradientUnits="userSpaceOnUse" x1="96.8046" x2="94.6473" xlink:href="#j" y1="132.762" y2="132.76"/><linearGradient id="S" gradientUnits="userSpaceOnUse" x1="100.487" x2="98.3299" xlink:href="#j" y1="131.738" y2="131.736"/><linearGradient id="T" gradientUnits="userSpaceOnUse" x1="104.17" x2="102.013" xlink:href="#j" y1="130.713" y2="130.711"/><linearGradient id="U" gradientUnits="userSpaceOnUse" x1="107.851" x2="105.694" xlink:href="#j" y1="129.689" y2="129.687"/><linearGradient id="V" gradientUnits="userSpaceOnUse" x1="111.534" x2="109.377" xlink:href="#j" y1="128.666" y2="128.664"/><linearGradient id="W" gradientUnits="userSpaceOnUse" x1="115.217" x2="113.059" xlink:href="#j" y1="127.641" y2="127.64"/><linearGradient id="X" gradientUnits="userSpaceOnUse" x1="118.899" x2="116.742" xlink:href="#j" y1="126.617" y2="126.615"/><linearGradient id="Y" gradientUnits="userSpaceOnUse" x1="122.583" x2="120.426" xlink:href="#j" y1="125.593" y2="125.591"/><linearGradient id="Z" gradientUnits="userSpaceOnUse" x1="126.265" x2="124.107" xlink:href="#j" y1="124.569" y2="124.567"/><linearGradient id="aa" gradientUnits="userSpaceOnUse" x1="129.946" x2="127.789" xlink:href="#j" y1="123.546" y2="123.544"/><linearGradient id="ab" gradientUnits="userSpaceOnUse" x1="133.629" x2="131.472" xlink:href="#j" y1="122.52" y2="122.519"/><linearGradient id="ac" gradientUnits="userSpaceOnUse" x1="137.312" x2="135.154" xlink:href="#j" y1="121.497" y2="121.495"/><linearGradient id="ad" gradientUnits="userSpaceOnUse" x1="140.994" x2="138.837" xlink:href="#j" y1="120.472" y2="120.471"/><linearGradient id="ae" gradientUnits="userSpaceOnUse" x1="144.676" x2="142.519" xlink:href="#j" y1="119.449" y2="119.447"/><linearGradient id="af" gradientUnits="userSpaceOnUse" x1="148.359" x2="146.202" xlink:href="#j" y1="118.424" y2="118.422"/><linearGradient id="ag" gradientUnits="userSpaceOnUse" x1="152.042" x2="149.884" xlink:href="#j" y1="117.4" y2="117.398"/><linearGradient id="ah" gradientUnits="userSpaceOnUse" x1="155.724" x2="153.566" xlink:href="#j" y1="116.377" y2="116.375"/><linearGradient id="ai" gradientUnits="userSpaceOnUse" x1="159.406" x2="157.249" xlink:href="#j" y1="115.352" y2="115.351"/><linearGradient id="aj" gradientUnits="userSpaceOnUse" x1="160.661" x2="158.503" xlink:href="#j" y1="109.974" y2="109.973"/><radialGradient id="ak" cx="0" cy="0" gradientTransform="matrix(-29.81494643 55.57203057 -95.72785402 -51.3589446 48.6796 8.90905)" gradientUnits="userSpaceOnUse" r="1" xlink:href="#K"/><radialGradient id="al" cx="0" cy="0" gradientTransform="matrix(-40.4463618 -34.4566487 21.20030531 -24.88562444 45.0909 45.0065)" gradientUnits="userSpaceOnUse" r="1" xlink:href="#K"/><linearGradient id="am" gradientUnits="userSpaceOnUse" x1="123.465" x2="135.892" xlink:href="#o" y1="95.6088" y2="118.061"/><radialGradient id="an" cx="0" cy="0" gradientTransform="matrix(-67.83158745 32.21170747 -33.86207092 -71.30693172 151.968 88.2447)" gradientUnits="userSpaceOnUse" r="1" xlink:href="#v"/><linearGradient id="ao" gradientUnits="userSpaceOnUse" x1="144.215" x2="97.6613" y1="94.7805" y2="116.616"><stop offset="0" stop-color="#302634"/><stop offset=".45" stop-color="#e35760"/><stop offset=".66" stop-color="#e35760"/><stop offset="1" stop-color="#302634"/></linearGradient><radialGradient id="ap" cx="0" cy="0" gradientTransform="matrix(26.45000429 -37.64935338 22.29338696 15.66189397 114.036 112.878)" gradientUnits="userSpaceOnUse" r="1" xlink:href="#m"/><mask id="aq" height="95" maskUnits="userSpaceOnUse" width="104" x="47" y="37"><path d="m77.0803 131.519-29.4848-28.933 63.3775-64.5863 39.664 38.9222z" fill="#d9d9d9"/></mask><mask id="ar" height="49" maskUnits="userSpaceOnUse" width="84" x="80" y="90"><path d="m99.8435 137.241c17.8925 4.592 42.8795-2.357 55.8095-15.52 6.55-6.669 8.75-13.653 6.999-19.518l-3.131-11.2561-79.064 21.4921 3.4016 12.171c1.7046 5.713 7.1563 10.365 15.9849 12.631z" fill="#b81a24"/></mask><mask id="as" height="95" maskUnits="userSpaceOnUse" width="104" x="77" y="76"><path d="m150.699 76.984 29.485 28.933-63.377 64.586-39.6646-38.922z" fill="#d9d9d9"/></mask><mask id="at" height="49" maskUnits="userSpaceOnUse" width="84" x="80" y="90"><path d="m99.7699 137.262c17.8811 4.595 42.8681-2.354 55.8091-15.52 6.556-6.671 8.763-13.657 7.021-19.525l-3.117-11.2596-79.0635 21.4926 3.3859 12.175c1.6972 5.715 7.1416 10.369 15.9645 12.637z" fill="#b81a24"/></mask><g filter="url(#a)"><ellipse cx="45.1863" cy="43.1098" fill="url(#h)" fill-opacity=".4" rx="45.1863" ry="43.1098" transform="matrix(.508154 .861266 -.999951 .00989444 139.547 69.9551)"/></g><g mask="url(#aq)"><path d="m99.8444 137.242c17.8926 4.592 42.8796-2.357 55.8096-15.52 6.55-6.669 8.749-13.653 6.999-19.518l-3.131-11.2561-79.0641 21.4921 3.4016 12.171c1.7046 5.713 7.1563 10.365 15.9849 12.631z" fill="url(#i)"/><g fill-opacity=".2" mask="url(#ar)"><path d="m0 0h1.91129v40.0614h-1.91129z" fill="url(#k)" transform="matrix(.963439 -.267927 .26917 .963093 81.8567 113.039)"/><g fill="url(#l)"><path d="m0 0h1.91129v32.9075h-1.91129z" transform="matrix(.963439 -.267927 .26917 .963093 87.4636 118.905)"/><path d="m0 0h1.91129v32.9075h-1.91129z" transform="matrix(.963439 -.267927 .26917 .963093 91.1467 117.881)"/><path d="m0 0h1.91129v32.9075h-1.91129z" transform="matrix(.963439 -.267927 .26917 .963093 94.8284 116.856)"/><path d="m0 0h1.91129v32.9075h-1.91129z" transform="matrix(.963439 -.267927 .26917 .963093 98.5115 115.832)"/><path d="m0 0h1.91129v32.9075h-1.91129z" transform="matrix(.963439 -.267927 .26917 .963093 102.194 114.809)"/><path d="m0 0h1.91129v32.9075h-1.91129z" transform="matrix(.963439 -.267927 .26917 .963093 105.877 113.785)"/><path d="m0 0h1.91129v32.9075h-1.91129z" transform="matrix(.963439 -.267927 .26917 .963093 109.559 112.761)"/><path d="m0 0h1.91129v32.9075h-1.91129z" transform="matrix(.963439 -.267927 .26917 .963093 113.241 111.737)"/><path d="m0 0h1.91129v32.9075h-1.91129z" transform="matrix(.963439 -.267927 .26917 .963093 116.924 110.713)"/><path d="m0 0h1.91129v32.9075h-1.91129z" transform="matrix(.963439 -.267927 .26917 .963093 120.606 109.689)"/><path d="m0 0h1.91129v32.9075h-1.91129z" transform="matrix(.963439 -.267927 .26917 .963093 124.29 108.664)"/><path d="m0 0h1.91129v32.9075h-1.91129z" transform="matrix(.963439 -.267927 .26917 .963093 127.97 107.64)"/><path d="m0 0h1.91129v32.9075h-1.91129z" transform="matrix(.963439 -.267927 .26917 .963093 131.654 106.617)"/><path d="m0 0h1.91129v32.9075h-1.91129z" transform="matrix(.963439 -.267927 .26917 .963093 135.336 105.592)"/><path d="m0 0h1.91129v32.9075h-1.91129z" transform="matrix(.963439 -.267927 .26917 .963093 139.018 104.568)"/><path d="m0 0h1.91129v32.9075h-1.91129z" transform="matrix(.963439 -.267927 .26917 .963093 142.701 103.544)"/><path d="m0 0h1.91129v32.9075h-1.91129z" transform="matrix(.963439 -.267927 .26917 .963093 146.384 102.519)"/><path d="m0 0h1.91129v32.9075h-1.91129z" transform="matrix(.963439 -.267927 .26917 .963093 150.065 101.495)"/></g></g><circle cx="33.4285" cy="33.4285" fill="#602e2e" r="33.4285" transform="matrix(.96915 .248724 -.700361 .713007 111.062 69.7753)"/><ellipse cx="27.6716" cy="27.7242" fill="url(#n)" rx="27.6716" ry="27.7242" transform="matrix(.96915 .248724 -.700361 .713007 113.348 78.0498)"/><g filter="url(#b)"><path clip-rule="evenodd" d="m153.504 95.8185c-1.419-4.7166-5.923-8.5543-13.209-10.4242-14.811-3.8012-35.511 1.9676-46.235 12.885-5.2777 5.3727-7.1554 10.9917-5.9358 15.7657-1.4653-4.871.3597-10.679 5.8079-16.2258 10.7239-10.9174 31.4239-16.6862 46.2349-12.885 7.522 1.9304 12.078 5.9577 13.337 10.8843z" fill="#ffadad" fill-opacity=".3" fill-rule="evenodd"/></g><path d="m97.8321 124.697-1.7504-10.244 13.1393-5.312 6.274-11.8813 11.753-4.3946 16.879-.1889c1.46 5.2251 2.835 12.1638 3.917 18.0568-28.081 21.499-38.414 14.382-50.2119 13.964z" fill="url(#p)" fill-opacity=".5"/><path d="m152.445 110.239c-12.93 13.164-37.917 20.112-55.8093 15.52-17.8926-4.592-21.9154-18.985-8.9853-32.1489 12.9306-13.1636 37.9166-20.1122 55.8096-15.5203 17.892 4.592 21.915 18.9857 8.985 32.1492zm-60.4691-15.5188c-11.2037 11.4058-7.718 23.8778 7.7856 27.8568 15.5035 3.979 37.1545-2.042 48.3575-13.448 11.204-11.4061 7.718-23.878-7.785-27.8569-15.504-3.9789-37.154 2.0421-48.3581 13.4481z" fill="url(#q)"/><g filter="url(#c)"><path clip-rule="evenodd" d="m96.6366 125.759c17.8924 4.592 42.8794-2.356 55.8094-15.52 6.385-6.5 8.636-13.3003 7.124-19.0721 1.758 5.8683-.44 12.8581-6.995 19.5311-12.93 13.164-37.917 20.112-55.8096 15.52-9.0571-2.324-14.5603-7.16-16.1098-13.077 1.7091 5.708 7.1592 10.354 15.981 12.618zm-10.7123-14.085c-1.5394-5.091.3614-11.16 6.0526-16.9537 11.2041-11.4061 32.8541-17.427 48.3581-13.4481 7.863 2.0181 12.635 6.2211 13.967 11.3618-1.491-4.9313-6.21-8.9451-13.838-10.9028-15.504-3.9789-37.155 2.042-48.3583 13.4481-5.5211 5.6207-7.475 11.5007-6.1814 16.4947z" fill="#ffadad" fill-opacity=".3" fill-rule="evenodd"/></g><path d="m94.7611 102.865 1.3059 4.673 2.7636 1.367 3.1144-3.479c-.486-.247-.926-.474-.926-.474z" fill="url(#s)"/><path d="m99.0696 116.054 5.9934-3.965-.425-1.521-.904-3.232-5.9889 3.979z" fill="url(#u)"/><path d="m96.061 114.565 3.0081 1.49-1.3246-4.74-2.9879-1.417z" fill="url(#w)"/><path d="m103.734 107.336 2.751 1.142c-.195.52-.491 1.299-.763 2.003l-1.084.087z" fill="url(#x)"/><path d="m104.424 118.84 6.153-4.03-1.344-4.83-6.115 4.186z" fill="url(#y)"/><path d="m101.475 117.243 3.012 1.491-1.307-4.675-3.013-1.493z" fill="url(#z)"/><path d="m130.445 107.022c2.824.15 5.812-.565 8.715-2.782l.001.001c1.852-1.411 2.486-2.704 2.284-3.904l-1.342-4.799-2.076.997-3.864 3.618-5.062 2.059z" fill="url(#A)"/><path d="m110.532 114.734c5.415 2.273 10.504 3.005 16.696-.585 3.494-2.025 4.672-3.74 4.364-5.265l-1.407-5.036-7.754 4.33-6.703 1.474-6.54.252z" fill="url(#B)"/><path d="m142.705 87.8923 1.308 4.6796-4.895 3.2399-2.116-2.0843-.937-1.6153.59-.4816z" fill="url(#C)"/><path d="m137.292 85.221 1.305 4.6711-7.216 1.2932-2.216-1.7059c1.032-.6354 3.154-1.9391 3.386-2.0705.232-.1315 3.257-1.5134 4.741-2.1879z" fill="url(#D)"/><path d="m123.519 89.3659-3.892 2.577-1.31-4.6852 4.835 1.3522z" fill="url(#F)"/><path d="m109.539 109.205 8.025-5.311-1.327-4.748-8.252 5.28z" fill="url(#G)"/><path d="m118.314 104.249c-.29-.134-.546-.252-.751-.354l-1.402-5.018 6.75 2.121-.147 5.93c-1.118-1.137-3.133-2.07-4.449-2.678z" fill="url(#H)"/><path d="m128.514 96.646-1.313-4.6979-8.295 5.3661 3.951 3.0758z" fill="url(#I)"/><path d="m133.062 95.8535c.068.2423-.975 1.6548-1.506 2.3308l-3.041-1.5367-1.314-4.6995 2.575 1.0455 2.263.9742c.313.5276.956 1.6433 1.023 1.8857z" fill="url(#J)"/><path clip-rule="evenodd" d="m137.854 99.5664c3.973-3.0272 2.341-5.5088-1.134-7.7055l5.988-3.9633-3.013-1.4904-5.831 3.8589c-.79-.3915-1.619-.7795-2.442-1.1645l5.869-3.8841-3.01-1.4897-5.987 3.9616c-.668-.3121-1.323-.6192-1.948-.9279l.018-.0125-4.152-2.0568-3.892 2.5769s2.275 1.0667 2.188 1.0812c1.22.604.761 1.368.136 1.9144l-6.822 4.5151c.084.042.189.0992.293.1744l-.317-.1569-9.559 6.3247c-.518.281-1.484.659-2.339.239-.002.046-2.1881-1.084-2.1881-1.084l-4.9522 2.586 3.9206 1.939c.442.22.8745.44 1.3023.659h.0004c.277.141.552.282.826.42l-6.0554 4.01 3.0079 1.489 5.9935-3.966c.804.422 1.596.823 2.377 1.209l-5.966 3.947 3.012 1.49 6.046-4.001c5.415 2.273 10.504 3.005 16.696-.585 4.989-2.891 5.256-5.151 3.218-7.127 2.824.151 5.812-.564 8.715-2.7808zm-17.165 6.4856c-4.153 2.75-9.455.021-11.878-1.227-.217-.112-.411-.212-.579-.295l8.025-5.3102c.205.1016.461.2201.752.3545 2.598 1.2027 7.925 3.6677 3.681 6.4777zm-.269-9.0136c2.017 1.0455 6.415 3.3246 10.19.8271 3.862-2.5552-.594-4.5994-2.769-5.5977-.245-.1123-.461-.2113-.633-.2963l-7.277 4.8166c.141.0702.305.1551.489.2503z" fill="url(#L)" fill-rule="evenodd"/><g filter="url(#d)"><path clip-rule="evenodd" d="m129.451 102.674c-.075-.003-.149-.006-.224-.01.504.488.866.993 1.052 1.521-.112-.525-.399-1.027-.828-1.511zm-28.96 10.057 5.73-3.792c-.108-.053-.216-.107-.324-.161l-5.731 3.792zm-5.4128-2.68-.3246-.16 5.8234-3.856c.108.054.215.108.322.162zm.0386-7.012 4.6844-2.446s2.1858 1.131 2.1888 1.084c.854.421 1.82.042 2.339-.239l9.558-6.3242.317.1569c-.103-.0752-.209-.1323-.292-.1744l6.821-4.5151c.443-.3876.803-.8847.54-1.3566.01.3707-.284.7386-.629 1.0402l-6.822 4.515c.084.0421.189.0992.293.1744l-.317-.1569-9.559 6.3247c-.518.281-1.484.659-2.339.239-.002.046-2.1882-1.084-2.1882-1.084l-4.9521 2.586zm23.5342-15.6137 3.65-2.4165 4.152 2.0567-.018.0125c.625.3087 1.28.6159 1.948.9279l5.987-3.9616 2.686 1.329.235-.1558-3.01-1.4897-5.987 3.9616c-.668-.312-1.323-.6192-1.948-.9279l.018-.0125-4.152-2.0567-3.893 2.5769s.133.0619.332.1561zm13.103 1.8319-.243.1609c.824.3851 1.652.773 2.443 1.1645l5.83-3.8589 2.688 1.3298.236-.1559-3.013-1.4904-5.831 3.8589c-.684-.3388-1.396-.675-2.11-1.0089zm5.253 2.789-.198.1312c1.653 1.0449 2.889 2.1542 3.303 3.3561-.275-1.2527-1.457-2.405-3.105-3.4873zm-28.196 12.7788c2.423 1.248 7.725 3.977 11.878 1.227l.001.001c1.299-.861 1.701-1.689 1.56-2.458.325.857.009 1.794-1.47 2.774h-.001c-4.154 2.75-9.455.02-11.879-1.228-.217-.111-.411-.211-.579-.294l.233-.154c.082.042.167.086.257.132zm21.799-6.9595c-3.775 2.4975-8.173.2185-10.19-.8271-.058-.0301-.114-.0592-.168-.0871l-.232.1533c.142.0702.306.1551.489.2503 2.018 1.0456 6.416 3.3251 10.191.8271 1.423-.9418 1.716-1.8142 1.41-2.5904.118.6942-.267 1.458-1.5 2.2739z" fill="#fff" fill-opacity=".25" fill-rule="evenodd"/></g></g><g mask="url(#as)"><path d="m99.7699 137.263c17.8811 4.595 42.8681-2.354 55.8091-15.52 6.556-6.67 8.763-13.657 7.021-19.524l-3.117-11.2605-79.0635 21.4925 3.3859 12.175c1.6972 5.715 7.1416 10.37 15.9645 12.637z" fill="url(#M)"/><path d="m99.7699 137.263c17.8811 4.595 42.8681-2.354 55.8091-15.52 6.556-6.67 8.763-13.657 7.021-19.524l-3.117-11.2605-79.0635 21.4925 3.3859 12.175c1.6972 5.715 7.1416 10.37 15.9645 12.637z" fill="url(#N)"/><g fill-opacity=".2" mask="url(#at)"><path d="m81.8187 113.051h1.9111v40.0578h-1.9111z" fill="url(#O)" transform="matrix(.96343897 -.26792787 .26792787 .96343897 -27.298138 26.05477)"/><path d="m87.4181 118.918h1.9111v32.9046h-1.9111z" fill="url(#P)" transform="matrix(.96343897 -.26792787 .26792787 .96343897 -28.665351 27.769509)"/><path d="m91.1002 117.895h1.9111v32.9046h-1.9111z" fill="url(#Q)" transform="matrix(.96343897 -.26792787 .26792787 .96343897 -28.256639 28.718644)"/><path d="m94.7823 116.87h1.9111v32.9046h-1.9111z" fill="url(#R)" transform="matrix(.96343897 -.26792787 .26792787 .96343897 -27.847392 29.667706)"/><path d="m98.465 115.847h1.9111v32.9046h-1.9111z" fill="url(#S)" transform="matrix(.96343897 -.26792787 .26792787 .96343897 -27.438658 30.617003)"/><path d="m102.148 114.821h1.9111v32.9046h-1.9111z" fill="url(#T)" transform="matrix(.96343897 -.26792787 .26792787 .96343897 -27.02911 31.566269)"/><path d="m105.829 113.798h1.9111v32.9046h-1.9111z" fill="url(#U)" transform="matrix(.96343897 -.26792787 .26792787 .96343897 -26.620439 32.51511)"/><path d="m109.512 112.774h1.9111v32.9046h-1.9111z" fill="url(#V)" transform="matrix(.96343897 -.26792787 .26792787 .96343897 -26.211426 33.46445)"/><path d="m113.194 111.75h1.9111v32.9046h-1.9111z" fill="url(#W)" transform="matrix(.96343897 -.26792787 .26792787 .96343897 -25.80245 34.413522)"/><path d="m116.877 110.726h1.9111v32.9046h-1.9111z" fill="url(#X)" transform="matrix(.96343897 -.26792787 .26792787 .96343897 -25.393438 35.362861)"/><path d="m120.561 109.701h1.9111v32.9046h-1.9111z" fill="url(#Y)" transform="matrix(.96343897 -.26792787 .26792787 .96343897 -24.984121 36.312433)"/><path d="m124.242 108.678h1.9111v32.9046h-1.9111z" fill="url(#Z)" transform="matrix(.96343897 -.26792787 .26792787 .96343897 -24.57545 37.261273)"/><path d="m127.924 107.654h1.9111v32.9046h-1.9111z" fill="url(#aa)" transform="matrix(.96343897 -.26792787 .26792787 .96343897 -24.166474 38.210345)"/><path d="m131.607 106.629h1.9111v32.9046h-1.9111z" fill="url(#ab)" transform="matrix(.96343897 -.26792787 .26792787 .96343897 -23.757194 39.159648)"/><path d="m135.289 105.605h1.9111v32.9046h-1.9111z" fill="url(#ac)" transform="matrix(.96343897 -.26792787 .26792787 .96343897 -23.348218 40.10872)"/><path d="m138.972 104.581h1.9111v32.9046h-1.9111z" fill="url(#ad)" transform="matrix(.96343897 -.26792787 .26792787 .96343897 -22.939205 41.05806)"/><path d="m142.654 103.558h1.9111v32.9046h-1.9111z" fill="url(#ae)" transform="matrix(.96343897 -.26792787 .26792787 .96343897 -22.530498 42.007169)"/><path d="m146.337 102.532h1.9111v32.9046h-1.9111z" fill="url(#af)" transform="matrix(.96343897 -.26792787 .26792787 .96343897 -22.120949 42.956435)"/><path d="m150.019 101.509h1.9111v32.9046h-1.9111z" fill="url(#ag)" transform="matrix(.96343897 -.26792787 .26792787 .96343897 -21.712241 43.905544)"/><path d="m153.701 100.485h1.9111v32.9046h-1.9111z" fill="url(#ah)" transform="matrix(.96343897 -.26792787 .26792787 .96343897 -21.303266 44.854616)"/><path d="m157.384 99.4609h1.9111v32.9046h-1.9111z" fill="url(#ai)" transform="matrix(.96343897 -.26792787 .26792787 .96343897 -20.894226 45.803952)"/><path d="m158.639 89.707h1.9111v41.9653h-1.9111z" fill="url(#aj)" transform="matrix(.96343897 -.26792787 .26792787 .96343897 -18.235001 45.783589)"/></g><ellipse cx="33.4286" cy="33.4286" fill="url(#ak)" rx="33.4286" ry="33.4286" transform="matrix(.968529 .2489 -.700979 .713182 111.065 69.7745)"/><ellipse cx="27.6716" cy="27.7243" fill="url(#al)" rx="27.6716" ry="27.7243" transform="matrix(.968529 .2489 -.700979 .713182 113.341 78.0527)"/><g filter="url(#e)"><path clip-rule="evenodd" d="m153.452 95.7971c-1.423-4.7051-5.917-8.5325-13.184-10.4-14.801-3.8039-35.501 1.965-46.2344 12.885-5.2939 5.3859-7.1744 11.0189-5.9447 15.8019-1.475-4.879.3528-10.701 5.8166-16.2599 10.7335-10.9201 31.4335-16.6889 46.2345-12.885 7.502 1.9277 12.048 5.9439 13.312 10.858z" fill="#ffadad" fill-opacity=".2" fill-rule="evenodd"/></g><path d="m100.558 124.89-3.313-14.29 10.503 2.326 8.469-9.7-3.854-5.3544 2.758-3.7833 21.789-5.2727 3.534 6.0984c1.454 5.227 6.466 9.942 7.542 15.837-28.097 21.503-35.635 14.558-47.428 14.139z" fill="url(#am)" fill-opacity=".5"/><path d="m152.385 110.256c-12.941 13.167-37.928 20.115-55.8089 15.52-17.8811-4.595-21.8854-18.994-8.9439-32.1608 12.9418-13.1669 37.9278-20.1155 55.8088-15.5203 17.882 4.5952 21.886 18.9942 8.944 32.1611zm-60.43-15.5299c-11.2137 11.4089-7.744 23.8849 7.7497 27.8669 15.4933 3.982 37.1443-2.039 48.3583-13.448 11.213-11.4088 7.744-23.8853-7.75-27.867s-37.144 2.0392-48.358 13.4481z" fill="url(#an)"/><g filter="url(#f)"><path clip-rule="evenodd" d="m96.5776 125.773c17.8814 4.596 42.8674-2.353 55.8094-15.52 6.391-6.502 8.649-13.3051 7.144-19.0793 1.75 5.8705-.455 12.8623-7.016 19.5373-12.942 13.167-37.929 20.116-55.8096 15.52-9.0506-2.326-14.546-7.163-16.0884-13.081 1.7017 5.709 7.1445 10.358 15.9606 12.623zm-10.6919-14.09c-1.5328-5.093.3746-11.164 6.0708-16.9597 11.2135-11.4089 32.8645-17.4298 48.3575-13.4481 7.858 2.0194 12.623 6.2238 13.949 11.3657-1.485-4.9331-6.197-8.9487-13.821-10.9078-15.493-3.9817-37.144 2.0392-48.3577 13.4481-5.5264 5.6228-7.4865 11.5048-6.1986 16.5018z" fill="#ffadad" fill-opacity=".3" fill-rule="evenodd"/></g><path d="m132.263 98.3665.811 2.9185c.866-.88 1.067-1.7225.847-2.4935z" fill="url(#ao)"/><path clip-rule="evenodd" d="m133.074 101.285 4.485 1.153c4.605-4.6848.527-8.4094-4.024-10.1954l3.362-3.4199-.815-2.9278-7.032 5.1951-12.077-1.1923-9.021 7.4922.812 2.9211c.473 2.345 2.995 4.255 5.907 5.408l-8.067 8.207c-2.84-1.249-5.065-3.419-2.832-5.692l-.807-2.9-6.3626 3.867.7786 2.8c.4764 2.221 2.79 4.093 5.919 5.288l-4.162.49.8116 2.918 4.4854 1.153 3.36-3.419c5.518.802 13.798.251 18.403-4.434 1.963-1.997 2.348-3.82 1.791-5.393l-.745-2.678-4.144-3.067 7.142-7.2658c1.646.7367 3.297 1.8601 3.679 3.1983.22.771.019 1.6135-.847 2.4935zm-7.317-6.8444c-3.371-.3719-8.255-.1751-10.623 2.2342-2.268 2.307.17 4.4822 2.834 5.6902zm-14.668 20.6384c3.371.372 8.256.175 10.624-2.234s-.238-4.531-2.833-5.692z" fill="url(#ao)" fill-rule="evenodd"/><path d="m132.262 98.3643 4.485 1.1526c4.605-4.6848.527-8.4094-4.024-10.1954l3.361-3.4199-4.485-1.1527-3.361 3.42c-5.518-.8018-13.797-.2527-18.402 4.4322-4.392 4.4685-.697 8.3289 4.023 10.1969l-8.067 8.207c-2.84-1.249-5.066-3.42-2.832-5.692l-4.4854-1.152c-4.2022 4.275-1.2472 8.199 4.0134 10.206l-3.3505 3.409 4.4855 1.153 3.359-3.419c5.519.802 13.799.251 18.404-4.434 4.604-4.685.526-8.409-4.025-10.195l8.069-8.2089c2.595 1.1612 5.2 3.2829 2.832 5.6922zm-17.941-4.6106c2.368-2.4093 7.253-2.6061 10.624-2.2342l-7.79 7.9248c-2.664-1.208-5.101-3.3836-2.834-5.6906zm6.58 16.1703c-2.369 2.409-7.253 2.606-10.624 2.234l7.791-7.926c2.595 1.161 5.201 3.282 2.833 5.692z" fill="url(#ap)"/><g filter="url(#g)"><path clip-rule="evenodd" d="m132.959 97.412c.972-2.0085-1.283-3.7338-3.529-4.7391l-7.799 7.9351c-.031-.013-.063-.025-.094-.037l8.068-8.2093c2.362 1.0569 4.733 2.9094 3.354 5.0503zm-.435.6641c-.079.0958-.167.1922-.262.289l4.485 1.1527c.652-.6626 1.129-1.306 1.456-1.9274-.315.5243-.737 1.0635-1.28 1.6161zm.469-9.0278 3.092-3.1459-.105-.0268-3.081 3.1355c.031.0123.062.0247.094.0372zm-6.151 20.1017c-.315.524-.738 1.063-1.281 1.616-4.604 4.685-12.885 5.236-18.403 4.434l-3.36 3.418-4.3808-1.126-.2796.285 4.4854 1.152 3.36-3.418c5.518.802 13.798.251 18.403-4.434.651-.662 1.129-1.306 1.456-1.927zm-24.449 5.182.27-.275c-4.4765-1.708-7.2835-4.805-5.4304-8.325-2.177 3.623.6082 6.833 5.1604 8.6zm.481-9.04c-.177.216-.316.43-.418.643.132-.206.299-.413.504-.621zm10.891-2.53.269-.274c-4.051-1.604-7.348-4.6758-5.421-8.3401-2.27 3.7727 1.03 6.9541 5.152 8.6141zm11.355-11.5529c-3.37-.3719-8.255-.1751-10.623 2.2342-.304.3091-.523.6159-.669.9183.13-.201.293-.4035.494-.607 2.34-2.3814 7.139-2.6013 10.505-2.247zm-3.522 17.7619c.971-2.008-1.283-3.733-3.53-4.739l-7.497 7.628c-.04-.004-.079-.008-.118-.012l7.791-7.927c2.361 1.057 4.732 2.91 3.354 5.05z" fill="#fff" fill-opacity=".25" fill-rule="evenodd"/></g></g></svg>