<svg fill="none" height="198" viewBox="0 0 337 198" width="337" xmlns="http://www.w3.org/2000/svg" xmlns:xlink="http://www.w3.org/1999/xlink"><filter id="a" color-interpolation-filters="sRGB" filterUnits="userSpaceOnUse" height="150.117" width="201.848" x="104.882" y="45.818"><feFlood flood-opacity="0" result="BackgroundImageFix"/><feBlend in="SourceGraphic" in2="BackgroundImageFix" mode="normal" result="shape"/><feGaussianBlur result="effect1_foregroundBlur_1_5" stdDeviation="19.8628"/></filter><filter id="b" color-interpolation-filters="sRGB" filterUnits="userSpaceOnUse" height="195.217" width="331.033" x="2.96878" y=".078258"><feFlood flood-opacity="0" result="BackgroundImageFix"/><feGaussianBlur in="BackgroundImageFix" stdDeviation="2.42236"/><feComposite in2="SourceAlpha" operator="in" result="effect1_backgroundBlur_1_5"/><feBlend in="SourceGraphic" in2="effect1_backgroundBlur_1_5" mode="normal" result="shape"/></filter><filter id="c" color-interpolation-filters="sRGB" filterUnits="userSpaceOnUse" height="116.47" width="322.313" x="7.32846" y="74.4647"><feFlood flood-opacity="0" result="BackgroundImageFix"/><feBlend in="SourceGraphic" in2="BackgroundImageFix" mode="normal" result="shape"/><feGaussianBlur result="effect1_foregroundBlur_1_5" stdDeviation=".242236"/></filter><filter id="d" color-interpolation-filters="sRGB" filterUnits="userSpaceOnUse" height="22.3312" width="66.1463" x="94.6453" y="20.6082"><feFlood flood-opacity="0" result="BackgroundImageFix"/><feBlend in="SourceGraphic" in2="BackgroundImageFix" mode="normal" result="shape"/><feGaussianBlur result="effect1_foregroundBlur_1_5" stdDeviation=".242236"/></filter><filter id="e" color-interpolation-filters="sRGB" filterUnits="userSpaceOnUse" height="111.666" width="186.318" x="57.5572" y="49.3407"><feFlood flood-opacity="0" result="BackgroundImageFix"/><feGaussianBlur in="BackgroundImageFix" stdDeviation="2.42236"/><feComposite in2="SourceAlpha" operator="in" result="effect1_backgroundBlur_1_5"/><feBlend in="SourceGraphic" in2="effect1_backgroundBlur_1_5" mode="normal" result="shape"/></filter><radialGradient id="f" cx="0" cy="0" gradientTransform="matrix(124.99374567 249.2611032 -270.50476946 135.64653258 85.6776 17.3799)" gradientUnits="userSpaceOnUse" r="1"><stop offset="0" stop-color="#51354f"/><stop offset="1" stop-color="#231f26"/></radialGradient><radialGradient id="g" cx="0" cy="0" gradientTransform="matrix(0 48.4585 -51.4337 0 51.4337 48.4585)" gradientUnits="userSpaceOnUse" r="1"><stop offset="0" stop-color="#ff8f96"/><stop offset=".9375" stop-color="#e35760"/></radialGradient><radialGradient id="h" cx="0" cy="0" gradientTransform="matrix(-256.99405897 -179.51502707 119.4283469 -170.97385175 231.265 144.201)" gradientUnits="userSpaceOnUse" r="1"><stop offset="0" stop-color="#e35760"/><stop offset="1" stop-color="#302634"/></radialGradient><radialGradient id="i" cx="0" cy="0" gradientTransform="matrix(45.74687586 262.25290221 -297.86416147 51.95883326 41.1722 -63.5042)" gradientUnits="userSpaceOnUse" r="1"><stop offset=".01" stop-color="#e35760"/><stop offset=".475" stop-color="#81557e"/><stop offset="1" stop-color="#36293b"/></radialGradient><radialGradient id="j" cx="0" cy="0" gradientTransform="matrix(-52.83813442 -46.41943531 25.25700983 -28.74945099 45.3825 38.6886)" gradientUnits="userSpaceOnUse" r="1"><stop offset="0" stop-color="#81557e"/><stop offset=".673033" stop-color="#36293b"/></radialGradient><linearGradient id="k"><stop offset="0" stop-color="#81557e"/><stop offset="1" stop-color="#36293b"/></linearGradient><radialGradient id="l" cx="0" cy="0" gradientTransform="matrix(-56.37841251 -48.26755059 26.35680186 -30.78578942 49.144 40.7653)" gradientUnits="userSpaceOnUse" r="1" xlink:href="#k"/><radialGradient id="m" cx="0" cy="0" gradientTransform="matrix(-45.80333629 -30.00255753 15.2004286 -23.2056998 39.9255 25.3396)" gradientUnits="userSpaceOnUse" r="1" xlink:href="#k"/><radialGradient id="n" cx="0" cy="0" gradientTransform="matrix(-279.67676782 -262.21173872 92.43399474 -98.59070769 312.865 295.38)" gradientUnits="userSpaceOnUse" r="1"><stop offset="0" stop-color="#81557e"/><stop offset=".730299" stop-color="#36293b"/></radialGradient><radialGradient id="o" cx="0" cy="0" gradientTransform="matrix(-227.64592255 -141.4601791 70.0956727 -112.80202089 260.835 173.66)" gradientUnits="userSpaceOnUse" r="1" xlink:href="#k"/><path d="m117.263 10.5826c6.963-4.11568 18.421-4.12959 25.415-.0309l182.235 106.8083c2.718 1.593 4.242 3.739 4.242 5.975 0 2.263-1.561 4.434-4.338 6.031l-105.187 60.514c-6.961 4.005-18.226 3.995-25.167-.021l-182.599-105.6721c-2.5932-1.5008-4.04956-3.5341-4.04956-5.654 0-2.0906 1.41656-4.0983 3.94686-5.5938z" fill="url(#f)"/><g filter="url(#a)"><ellipse cx="51.4337" cy="48.4585" fill="url(#g)" rx="51.4337" ry="48.4585" transform="matrix(.866026 .5 -.866026 .5 203.23 70.9305)"/></g><g filter="url(#b)"><rect fill="url(#h)" fill-opacity=".5" height="149.537" rx="14.5342" transform="matrix(.866025 .5 -.866025 .5 129.943 .666016)" width="238.547"/><rect fill="url(#i)" height="149.537" rx="14.5342" transform="matrix(.866025 .5 -.866025 .5 129.943 .666016)" width="238.547"/></g><g filter="url(#c)"><path clip-rule="evenodd" d="m7.8326 74.9492c-.22658 2.7892 1.50476 5.6216 5.194 7.7516l181.4134 104.7392c6.952 4.014 18.223 4.014 25.174 0l104.329-60.234c3.689-2.13 5.421-4.963 5.194-7.752-.2 2.467-1.932 4.899-5.194 6.783l-104.329 60.234c-6.951 4.014-18.222 4.014-25.174 0l-181.4134-104.7392c-3.2623-1.8835-4.99364-4.3162-5.194-6.7826z" fill="#a0789c" fill-opacity=".3" fill-rule="evenodd"/></g><rect fill="url(#j)" height="35.857" rx="4.84472" transform="matrix(.866025 .5 -.866025 .5 123.725 19.6739)" width="45.0794"/><g filter="url(#d)"><path clip-rule="evenodd" d="m127.921 22.0961c-2.317-1.3379-6.074-1.3379-8.392 0l-22.6613 13.0837c-1.2653.7306-1.8397 1.7089-1.7232 2.6645.0967-.7946.6711-1.5734 1.7232-2.1809l22.6613-13.0837c2.318-1.3379 6.075-1.3379 8.392 0l30.648 17.6949c1.052.6073 1.627 1.386 1.724 2.1803.116-.9553-.459-1.9335-1.724-2.6639z" fill="#fff" fill-opacity=".25" fill-rule="evenodd"/></g><rect fill="url(#l)" height="34.7948" rx="4.84472" transform="matrix(.866025 .5 -.866025 .5 123.962 20.873)" width="43.744"/><rect fill="url(#m)" height="21.6284" rx="10.8142" transform="matrix(.866025 .5 -.866025 .5 193.264 152.626)" width="35.5384"/><g fill="url(#n)"><path d="m62.4019 60.2828c0-.6303.3363-1.2128.8822-1.528l5.7865-3.3408c.2946-.1701.6288-.2596.9689-.2596h2.4903c.3402 0 .6743.0895.9689.2596l3.3833 1.9533c.5459.3152.8822.8977.8822 1.528 0 .6304-.3363 1.2129-.8822 1.528l-5.7865 3.3409c-.2946.17-.6287.2596-.9689.2596h-2.4903c-.3401 0-.6743-.0896-.9689-.2596l-3.3833-1.9534c-.5459-.3151-.8822-.8976-.8822-1.528zm5.0564 1.9007c.2946.1701.6288.2596.969.2596h.3c.3401 0 .6743-.0895.9689-.2596l4.9955-2.8842c.2071-.1196.3347-.3405.3347-.5796 0-.2391-.1276-.46-.3347-.5796l-1.9839-1.1454c-.2946-.1701-.6288-.2596-.9689-.2596h-.3c-.3402 0-.6744.0895-.969.2596l-4.9955 2.8842c-.2071.1195-.3346.3405-.3346.5796 0 .2391.1275.46.3346.5795z"/><path d="m72.3242 66.0114c0-.6303.3363-1.2128.8822-1.5279l5.7865-3.3409c.2946-.1701.6287-.2596.9689-.2596h2.4903c.3401 0 .6743.0895.9689.2596l3.3833 1.9534c.5459.3151.8822.8976.8822 1.528 0 .6303-.3363 1.2128-.8822 1.528l-5.7865 3.3408c-.2946.1701-.6288.2596-.969.2596h-2.4902c-.3402 0-.6743-.0895-.9689-.2596l-3.3833-1.9534c-.5459-.3151-.8822-.8976-.8822-1.528zm5.0564 1.9007c.2946.1701.6288.2596.9689.2596h.3c.3402 0 .6744-.0895.969-.2596l4.9955-2.8842c.2071-.1195.3346-.3405.3346-.5796 0-.2391-.1275-.46-.3346-.5796l-1.9839-1.1454c-.2946-.1701-.6288-.2596-.969-.2596h-.3c-.3401 0-.6743.0895-.9689.2596l-4.9956 2.8842c-.207.1195-.3346.3405-.3346.5796 0 .2391.1276.46.3346.5796z"/><path d="m82.2465 71.7401c0-.6304.3362-1.2129.8821-1.528l5.7865-3.3409c.2946-.17.6288-.2596.969-.2596h2.4902c.3402 0 .6744.0896.969.2596l3.3832 1.9534c.5459.3152.8822.8976.8822 1.528 0 .6303-.3363 1.2128-.8822 1.528l-5.7864 3.3408c-.2946.1701-.6288.2596-.969.2596h-2.4902c-.3402 0-.6744-.0895-.969-.2596l-3.3833-1.9533c-.5459-.3152-.8821-.8977-.8821-1.528zm5.0563 1.9006c.2946.1701.6288.2596.969.2596h.3c.3401 0 .6743-.0895.9689-.2596l4.9956-2.8842c.207-.1195.3346-.3405.3346-.5796 0-.2391-.1276-.46-.3346-.5795l-1.984-1.1455c-.2946-.1701-.6287-.2596-.9689-.2596h-.3c-.3402 0-.6743.0895-.9689.2596l-4.9956 2.8842c-.2071.1196-.3346.3405-.3346.5796 0 .2391.1275.46.3346.5796z"/><path d="m92.1687 77.4687c0-.6304.3363-1.2128.8822-1.528l5.7865-3.3408c.2946-.1701.6288-.2597.9689-.2597h2.4907c.34 0 .674.0896.969.2597l3.383 1.9533c.546.3152.882.8976.882 1.528 0 .6303-.336 1.2128-.882 1.528l-5.787 3.3408c-.294.1701-.628.2596-.9686.2596l-2.4903.0001c-.3401 0-.6743-.0896-.9689-.2597l-3.3833-1.9533c-.5459-.3152-.8822-.8977-.8822-1.528zm5.0564 1.9006c.2946.1701.6288.2597.9689.2597h.3c.3402 0 .6744-.0896.969-.2597l4.996-2.8841c.207-.1196.334-.3405.334-.5796 0-.2391-.127-.4601-.334-.5796l-1.984-1.1454c-.295-.1701-.629-.2597-.969-.2597h-.3c-.341 0-.675.0896-.969.2597l-4.9958 2.8841c-.2071.1196-.3347.3405-.3347.5796 0 .2391.1276.4601.3347.5796z"/><path d="m106.235 85.59c0-.6304.336-1.2129.882-1.528l5.787-3.3409c.294-.1701.629-.2596.969-.2596h2.49c.34 0 .674.0895.969.2596l3.383 1.9534c.546.3151.882.8976.882 1.528 0 .6303-.336 1.2128-.882 1.528l-5.786 3.3408c-.295.1701-.629.2596-.969.2596h-2.49c-.341 0-.675-.0895-.969-.2596l-3.384-1.9534c-.546-.3151-.882-.8976-.882-1.5279zm5.057 1.9006c.294.1701.628.2596.968.2596h.3c.341 0 .675-.0895.969-.2596l4.996-2.8842c.207-.1195.335-.3405.335-.5796 0-.2391-.128-.46-.335-.5796l-1.984-1.1454c-.295-.1701-.629-.2596-.969-.2596h-.3c-.34 0-.674.0895-.969.2596l-4.995 2.8842c-.207.1195-.335.3405-.335.5796 0 .2391.128.46.335.5796z"/><path d="m116.157 91.3186c0-.6304.337-1.2129.883-1.528l5.786-3.3409c.295-.17.629-.2596.969-.2596h2.49c.34 0 .675.0896.969.2596l3.383 1.9534c.546.3152.883.8976.883 1.528 0 .6303-.337 1.2128-.883 1.528l-5.786 3.3408c-.295.1701-.629.2596-.969.2596h-2.49c-.34 0-.675-.0895-.969-.2596l-3.383-1.9533c-.546-.3152-.883-.8977-.883-1.528zm5.057 1.9006c.294.1701.629.2596.969.2596h.3c.34 0 .674-.0895.969-.2596l4.995-2.8842c.207-.1195.335-.3405.335-.5796 0-.2391-.128-.46-.335-.5795l-1.984-1.1455c-.294-.1701-.628-.2596-.969-.2596h-.3c-.34 0-.674.0895-.969.2596l-4.995 2.8842c-.207.1196-.335.3405-.335.5796 0 .2391.128.46.335.5796z"/><path d="m126.08 97.0472c0-.6304.336-1.2128.882-1.528l5.786-3.3408c.295-.1701.629-.2597.969-.2597h2.491c.34 0 .674.0896.968.2597l3.384 1.9533c.546.3152.882.8976.882 1.528 0 .6304-.336 1.2128-.882 1.528l-5.787 3.3413c-.294.17-.628.259-.969.259h-2.49c-.34 0-.674-.089-.969-.259l-3.383-1.9538c-.546-.3152-.882-.8977-.882-1.528zm5.056 1.9006c.295.1701.629.2597.969.2597h.3c.34 0 .674-.0896.969-.2597l4.995-2.8841c.208-.1196.335-.3405.335-.5796 0-.2391-.127-.4601-.335-.5796l-1.983-1.1454c-.295-.1701-.629-.2597-.969-.2597h-.3c-.341 0-.675.0896-.969.2597l-4.996 2.8841c-.207.1196-.334.3405-.334.5796 0 .2391.127.4601.334.5796z"/><path d="m136.002 102.776c0-.631.336-1.213.882-1.528l5.787-3.341c.294-.1701.628-.2596.969-.2596h2.49c.34 0 .674.0895.969.2596l3.383 1.9533c.546.3147.882.8977.882 1.5277 0 .631-.336 1.213-.882 1.528l-5.786 3.341c-.295.17-.629.26-.969.26h-2.491c-.34 0-.674-.09-.969-.26l-3.383-1.953c-.546-.315-.882-.898-.882-1.528zm5.056 1.9c.295.171.629.26.969.26h.3c.34 0 .675-.089.969-.26l4.996-2.884c.207-.119.334-.34.334-.579 0-.239-.127-.46-.334-.58l-1.984-1.1453c-.295-.1701-.629-.2597-.969-.2597h-.3c-.34 0-.674.0896-.969.2597l-4.996 2.8843c-.207.119-.334.34-.334.579 0 .24.127.46.334.58z"/><path d="m150.068 110.897c0-.63.337-1.213.883-1.528l5.786-3.341c.295-.17.629-.259.969-.259h2.49c.34 0 .675.089.969.259l3.383 1.954c.546.315.883.897.883 1.528 0 .63-.337 1.212-.883 1.528l-5.786 3.34c-.295.17-.629.26-.969.26h-2.49c-.34 0-.675-.09-.969-.26l-3.383-1.953c-.546-.315-.883-.898-.883-1.528zm5.057 1.901c.294.17.629.259.969.259h.3c.34 0 .674-.089.969-.259l4.995-2.884c.207-.12.335-.341.335-.58 0-.239-.128-.46-.335-.58l-1.984-1.145c-.294-.17-.629-.26-.969-.26h-.3c-.34 0-.674.09-.969.26l-4.995 2.884c-.207.12-.335.341-.335.58 0 .239.128.46.335.579z"/><path d="m159.991 116.626c0-.631.336-1.213.882-1.528l5.786-3.341c.295-.17.629-.26.969-.26h2.491c.34 0 .674.09.968.26l3.384 1.953c.546.315.882.898.882 1.528 0 .631-.336 1.213-.882 1.528l-5.787 3.341c-.294.17-.629.26-.969.26h-2.49c-.34 0-.674-.09-.969-.26l-3.383-1.953c-.546-.315-.882-.898-.882-1.528zm5.056 1.9c.295.17.629.26.969.26h.3c.34 0 .674-.09.969-.26l4.995-2.884c.208-.119.335-.34.335-.579 0-.24-.127-.46-.335-.58l-1.983-1.145c-.295-.171-.629-.26-.969-.26h-.3c-.341 0-.675.089-.969.26l-4.996 2.884c-.207.119-.335.34-.335.579 0 .239.128.46.335.58z"/><path d="m169.913 122.354c0-.63.336-1.213.882-1.528l5.787-3.341c.294-.17.628-.259.969-.259h2.49c.34 0 .674.089.969.259l3.383 1.954c.546.315.882.897.882 1.528 0 .63-.336 1.213-.882 1.528l-5.787 3.341c-.294.17-.628.259-.968.259h-2.491c-.34 0-.674-.089-.969-.259l-3.383-1.954c-.546-.315-.882-.897-.882-1.528zm5.056 1.901c.295.17.629.26.969.26h.3c.34 0 .675-.09.969-.26l4.996-2.884c.207-.12.334-.341.334-.58 0-.239-.127-.46-.334-.579l-1.984-1.146c-.295-.17-.629-.259-.969-.259h-.3c-.34 0-.674.089-.969.259l-4.996 2.884c-.207.12-.334.341-.334.58 0 .239.127.46.334.58z"/><path d="m179.835 128.083c0-.63.336-1.213.882-1.528l5.787-3.341c.294-.17.629-.26.969-.26h2.49c.34 0 .674.09.969.26l3.383 1.953c.546.316.882.898.882 1.528 0 .631-.336 1.213-.882 1.528l-5.786 3.341c-.295.17-.629.26-.969.26h-2.49c-.341 0-.675-.09-.969-.26l-3.384-1.953c-.546-.315-.882-.898-.882-1.528zm5.057 1.901c.294.17.628.259.968.259h.3c.341 0 .675-.089.969-.259l4.996-2.885c.207-.119.335-.34.335-.579 0-.239-.128-.46-.335-.58l-1.984-1.145c-.295-.17-.629-.26-.969-.26h-.3c-.34 0-.674.09-.969.26l-4.995 2.884c-.207.12-.335.34-.335.58 0 .239.128.46.335.579z"/><path d="m193.902 136.204c0-.63.336-1.213.882-1.528l5.786-3.341c.295-.17.629-.259.969-.259h2.49c.341 0 .675.089.969.259l3.384 1.954c.546.315.882.897.882 1.528 0 .63-.336 1.213-.882 1.528l-5.787 3.341c-.294.17-.629.259-.969.259h-2.49c-.34 0-.674-.089-.969-.259l-3.383-1.954c-.546-.315-.882-.897-.882-1.528zm5.056 1.901c.295.17.629.259.969.259h.3c.34 0 .674-.089.969-.259l4.995-2.884c.207-.12.335-.341.335-.58 0-.239-.128-.46-.335-.58l-1.984-1.145c-.294-.17-.628-.26-.968-.26h-.3c-.341 0-.675.09-.969.26l-4.996 2.884c-.207.12-.335.341-.335.58 0 .239.128.46.335.579z"/><path d="m203.824 141.933c0-.631.336-1.213.882-1.528l5.787-3.341c.294-.17.628-.26.968-.26h2.491c.34 0 .674.09.969.26l3.383 1.953c.546.316.882.898.882 1.528 0 .631-.336 1.213-.882 1.528l-5.787 3.341c-.294.17-.628.26-.968.26h-2.491c-.34 0-.674-.09-.969-.26l-3.383-1.953c-.546-.315-.882-.898-.882-1.528zm5.056 1.9c.295.171.629.26.969.26h.3c.34 0 .675-.089.969-.26l4.996-2.884c.207-.119.334-.34.334-.579 0-.239-.127-.46-.334-.58l-1.984-1.145c-.295-.17-.629-.26-.969-.26h-.3c-.34 0-.675.09-.969.26l-4.996 2.884c-.207.119-.334.34-.334.579 0 .24.127.46.334.58z"/><path d="m213.746 147.661c0-.63.336-1.212.882-1.528l5.787-3.34c.294-.17.629-.26.969-.26h2.49c.34 0 .674.09.969.26l3.383 1.953c.546.315.882.898.882 1.528 0 .63-.336 1.213-.882 1.528l-5.786 3.341c-.295.17-.629.259-.969.259h-2.49c-.341 0-.675-.089-.969-.259l-3.384-1.954c-.546-.315-.882-.897-.882-1.528zm5.057 1.901c.294.17.628.26.968.26h.3c.341 0 .675-.09.969-.26l4.996-2.884c.207-.12.335-.341.335-.58 0-.239-.128-.46-.335-.579l-1.984-1.146c-.295-.17-.629-.259-.969-.259h-.3c-.34 0-.674.089-.969.259l-4.995 2.884c-.207.12-.335.341-.335.58 0 .239.128.46.335.58z"/><path d="m223.668 153.39c0-.63.337-1.213.883-1.528l5.786-3.341c.295-.17.629-.259.969-.259h2.49c.34 0 .675.089.969.259l3.383 1.954c.546.315.883.897.883 1.528 0 .63-.337 1.212-.883 1.528l-5.786 3.34c-.295.17-.629.26-.969.26h-2.49c-.34 0-.675-.09-.969-.26l-3.383-1.953c-.546-.315-.883-.898-.883-1.528zm5.057 1.901c.294.17.629.259.969.259h.3c.34 0 .674-.089.969-.259l4.995-2.884c.207-.12.335-.341.335-.58 0-.239-.128-.46-.335-.58l-1.984-1.145c-.294-.17-.629-.26-.969-.26h-.3c-.34 0-.674.09-.969.26l-4.995 2.884c-.207.12-.335.341-.335.58 0 .239.128.46.335.579z"/></g><g fill="url(#o)" fill-opacity=".5" filter="url(#e)"><path d="m62.4019 59.3139c0-.6304.3363-1.2128.8822-1.528l5.7865-3.3408c.2946-.1701.6288-.2597.9689-.2597h2.4903c.3402 0 .6743.0896.9689.2597l3.3833 1.9533c.5459.3152.8822.8977.8822 1.528 0 .6304-.3363 1.2128-.8822 1.528l-5.7865 3.3408c-.2946.1701-.6287.2597-.9689.2597h-2.4903c-.3401 0-.6743-.0896-.9689-.2597l-3.3833-1.9533c-.5459-.3152-.8822-.8976-.8822-1.528zm5.0564 1.9006c.2946.1701.6288.2597.969.2597h.3c.3401 0 .6743-.0896.9689-.2597l4.9955-2.8841c.2071-.1196.3347-.3405.3347-.5796 0-.2391-.1276-.4601-.3347-.5796l-1.9839-1.1454c-.2946-.1701-.6288-.2597-.9689-.2597h-.3c-.3402 0-.6744.0896-.969.2597l-4.9955 2.8841c-.2071.1196-.3346.3405-.3346.5796 0 .2391.1275.4601.3346.5796z"/><path d="m72.3242 65.0425c0-.6303.3363-1.2128.8822-1.528l5.7865-3.3408c.2946-.1701.6287-.2596.9689-.2596h2.4903c.3401 0 .6743.0895.9689.2596l3.3833 1.9533c.5459.3152.8822.8977.8822 1.528 0 .6304-.3363 1.2128-.8822 1.528l-5.7865 3.3409c-.2946.17-.6288.2596-.969.2596h-2.4902c-.3402 0-.6743-.0896-.9689-.2596l-3.3833-1.9534c-.5459-.3152-.8822-.8976-.8822-1.528zm5.0564 1.9007c.2946.1701.6288.2596.9689.2596h.3c.3402 0 .6744-.0895.969-.2596l4.9955-2.8842c.2071-.1196.3346-.3405.3346-.5796 0-.2391-.1275-.46-.3346-.5796l-1.9839-1.1454c-.2946-.1701-.6288-.2596-.969-.2596h-.3c-.3401 0-.6743.0895-.9689.2596l-4.9956 2.8842c-.207.1195-.3346.3405-.3346.5796 0 .2391.1276.46.3346.5795z"/><path d="m82.2465 70.7711c0-.6303.3362-1.2128.8821-1.528l5.7865-3.3408c.2946-.1701.6288-.2596.969-.2596h2.4902c.3402 0 .6744.0895.969.2596l3.3832 1.9534c.5459.3151.8822.8976.8822 1.5279 0 .6304-.3363 1.2129-.8822 1.528l-5.7864 3.3409c-.2946.1701-.6288.2596-.969.2596h-2.4902c-.3402 0-.6744-.0895-.969-.2596l-3.3833-1.9534c-.5459-.3151-.8821-.8976-.8821-1.528zm5.0563 1.9007c.2946.1701.6288.2596.969.2596h.3c.3401 0 .6743-.0895.9689-.2596l4.9956-2.8842c.207-.1195.3346-.3405.3346-.5796 0-.2391-.1276-.46-.3346-.5796l-1.984-1.1454c-.2946-.1701-.6287-.2596-.9689-.2596h-.3c-.3402 0-.6743.0895-.9689.2596l-4.9956 2.8842c-.2071.1195-.3346.3405-.3346.5796 0 .2391.1275.46.3346.5796z"/><path d="m92.1687 76.4998c0-.6304.3363-1.2129.8822-1.528l5.7865-3.3409c.2946-.1701.6288-.2596.9689-.2596h2.4907c.34 0 .674.0895.969.2596l3.383 1.9534c.546.3151.882.8976.882 1.528 0 .6303-.336 1.2128-.882 1.528l-5.787 3.3408c-.294.1701-.628.2596-.9686.2596h-2.4903c-.3401 0-.6743-.0895-.9689-.2596l-3.3833-1.9533c-.5459-.3152-.8822-.8977-.8822-1.528zm5.0564 1.9006c.2946.1701.6288.2596.9689.2596h.3c.3402 0 .6744-.0895.969-.2596l4.996-2.8842c.207-.1195.334-.3405.334-.5796 0-.2391-.127-.46-.334-.5796l-1.984-1.1454c-.295-.1701-.629-.2596-.969-.2596h-.3c-.341 0-.675.0895-.969.2596l-4.9958 2.8842c-.2071.1196-.3347.3405-.3347.5796 0 .2391.1276.46.3347.5796z"/><path d="m106.235 84.621c0-.6303.336-1.2128.882-1.528l5.787-3.3408c.294-.1701.629-.2596.969-.2596h2.49c.34 0 .674.0895.969.2596l3.383 1.9533c.546.3152.882.8977.882 1.528 0 .6304-.336 1.2129-.882 1.528l-5.786 3.3409c-.295.17-.629.2596-.969.2596h-2.49c-.341 0-.675-.0896-.969-.2596l-3.384-1.9534c-.546-.3152-.882-.8976-.882-1.528zm5.057 1.9007c.294.1701.628.2596.968.2596h.3c.341 0 .675-.0895.969-.2596l4.996-2.8842c.207-.1196.335-.3405.335-.5796 0-.2391-.128-.46-.335-.5796l-1.984-1.1454c-.295-.1701-.629-.2596-.969-.2596h-.3c-.34 0-.674.0895-.969.2596l-4.995 2.8842c-.207.1195-.335.3405-.335.5796 0 .2391.128.46.335.5795z"/><path d="m116.157 90.3496c0-.6303.337-1.2128.883-1.528l5.786-3.3408c.295-.1701.629-.2596.969-.2596h2.49c.34 0 .675.0895.969.2596l3.383 1.9533c.546.3152.883.8977.883 1.528 0 .6304-.337 1.2129-.882 1.528l-5.787 3.3409c-.295.1701-.629.2596-.969.2596h-2.49c-.34 0-.675-.0895-.969-.2596l-3.383-1.9534c-.546-.3151-.883-.8976-.883-1.528zm5.057 1.9007c.294.1701.629.2596.969.2596h.3c.34 0 .674-.0895.969-.2596l4.995-2.8842c.207-.1195.335-.3405.335-.5796 0-.2391-.128-.46-.335-.5796l-1.984-1.1454c-.294-.1701-.628-.2596-.969-.2596h-.3c-.34 0-.674.0895-.969.2596l-4.995 2.8842c-.207.1195-.335.3405-.335.5796 0 .2391.128.46.335.5796z"/><path d="m126.08 96.0783c0-.6304.336-1.2129.882-1.528l5.786-3.3409c.295-.17.629-.2596.969-.2596h2.491c.34 0 .674.0896.968.2596l3.384 1.9534c.546.3151.882.8976.882 1.528 0 .6303-.336 1.2128-.882 1.528l-5.787 3.3408c-.294.1701-.628.2596-.969.2596h-2.49c-.34 0-.674-.0895-.969-.2596l-3.383-1.9533c-.546-.3152-.882-.8977-.882-1.528zm5.056 1.9006c.295.1701.629.2596.969.2596h.3c.34 0 .674-.0895.969-.2596l4.995-2.8842c.208-.1195.335-.3405.335-.5796 0-.2391-.127-.46-.335-.5795l-1.983-1.1455c-.295-.1701-.629-.2596-.969-.2596h-.3c-.341 0-.675.0895-.969.2596l-4.996 2.8842c-.207.1196-.334.3405-.334.5796 0 .2391.127.46.334.5796z"/><path d="m136.002 101.807c0-.63.336-1.213.882-1.528l5.787-3.3409c.294-.1701.628-.2597.969-.2597h2.49c.34 0 .674.0896.969.2597l3.383 1.9533c.546.3152.882.8976.882 1.5276 0 .631-.336 1.213-.882 1.528l-5.786 3.341c-.295.17-.629.26-.969.26h-2.491c-.34 0-.674-.09-.969-.26l-3.383-1.953c-.546-.315-.882-.898-.882-1.528zm5.056 1.901c.295.17.629.259.969.259h.3c.34 0 .675-.089.969-.259l4.996-2.885c.207-.119.334-.34.334-.579 0-.239-.127-.4603-.334-.5798l-1.984-1.1455c-.295-.17-.629-.2596-.969-.2596h-.3c-.34 0-.674.0896-.969.2596l-4.996 2.8843c-.207.119-.334.34-.334.58 0 .239.127.46.334.579z"/><path d="m150.068 109.928c0-.63.337-1.213.883-1.528l5.786-3.341c.295-.17.629-.259.969-.259h2.49c.34 0 .675.089.969.259l3.383 1.954c.546.315.883.897.883 1.528 0 .63-.337 1.212-.883 1.528l-5.786 3.34c-.295.171-.629.26-.969.26h-2.49c-.34 0-.675-.089-.969-.26l-3.383-1.953c-.546-.315-.883-.898-.883-1.528zm5.057 1.901c.294.17.629.259.969.259h.3c.34 0 .674-.089.969-.259l4.995-2.884c.207-.12.335-.341.335-.58 0-.239-.128-.46-.335-.58l-1.984-1.145c-.294-.17-.629-.26-.969-.26h-.3c-.34 0-.674.09-.969.26l-4.995 2.884c-.207.12-.335.341-.335.58 0 .239.128.46.335.579z"/><path d="m159.991 115.657c0-.631.336-1.213.882-1.528l5.786-3.341c.295-.17.629-.26.969-.26h2.491c.34 0 .674.09.968.26l3.384 1.953c.546.315.882.898.882 1.528 0 .631-.336 1.213-.882 1.528l-5.787 3.341c-.294.17-.629.26-.969.26h-2.49c-.34 0-.674-.09-.969-.26l-3.383-1.953c-.546-.315-.882-.898-.882-1.528zm5.056 1.9c.295.17.629.26.969.26h.3c.34 0 .674-.09.969-.26l4.995-2.884c.208-.119.335-.34.335-.579 0-.239-.127-.46-.335-.58l-1.983-1.145c-.295-.17-.629-.26-.969-.26h-.3c-.341 0-.675.09-.969.26l-4.996 2.884c-.207.119-.335.34-.335.579 0 .239.128.46.335.58z"/><path d="m169.913 121.385c0-.63.336-1.212.882-1.528l5.787-3.34c.294-.171.628-.26.969-.26h2.49c.34 0 .674.089.969.26l3.383 1.953c.546.315.882.898.882 1.528 0 .63-.336 1.213-.882 1.528l-5.787 3.341c-.294.17-.628.259-.968.259h-2.491c-.34 0-.674-.089-.969-.259l-3.383-1.954c-.546-.315-.882-.897-.882-1.528zm5.056 1.901c.295.17.629.26.969.26h.3c.34 0 .675-.09.969-.26l4.996-2.884c.207-.12.334-.341.334-.58 0-.239-.127-.46-.334-.579l-1.984-1.146c-.295-.17-.629-.259-.969-.259h-.3c-.34 0-.674.089-.969.259l-4.996 2.884c-.207.12-.334.341-.334.58 0 .239.127.46.334.58z"/><path d="m179.835 127.114c0-.63.336-1.213.882-1.528l5.787-3.341c.294-.17.629-.259.969-.259h2.49c.34 0 .674.089.969.259l3.383 1.954c.546.315.882.897.882 1.528 0 .63-.336 1.212-.882 1.528l-5.786 3.34c-.295.17-.629.26-.969.26h-2.49c-.341 0-.675-.09-.969-.26l-3.384-1.953c-.546-.315-.882-.898-.882-1.528zm5.057 1.901c.294.17.628.259.968.259h.3c.341 0 .675-.089.969-.259l4.996-2.885c.207-.119.335-.34.335-.579 0-.239-.128-.46-.335-.58l-1.984-1.145c-.295-.17-.629-.26-.969-.26h-.3c-.34 0-.674.09-.969.26l-4.995 2.884c-.207.12-.335.341-.335.58 0 .239.128.46.335.579z"/><path d="m193.902 135.235c0-.63.336-1.213.882-1.528l5.786-3.341c.295-.17.629-.259.969-.259h2.49c.341 0 .675.089.969.259l3.384 1.954c.546.315.882.897.882 1.528 0 .63-.336 1.213-.882 1.528l-5.787 3.341c-.294.17-.629.259-.969.259h-2.49c-.34 0-.674-.089-.969-.259l-3.383-1.954c-.546-.315-.882-.897-.882-1.528zm5.056 1.901c.295.17.629.26.969.26h.3c.34 0 .674-.09.969-.26l4.995-2.884c.207-.12.335-.341.335-.58 0-.239-.128-.46-.335-.579l-1.984-1.146c-.294-.17-.628-.26-.968-.26h-.3c-.341 0-.675.09-.969.26l-4.996 2.884c-.207.12-.335.341-.335.58 0 .239.128.46.335.579z"/><path d="m203.824 140.964c0-.63.336-1.213.882-1.528l5.787-3.341c.294-.17.628-.26.968-.26h2.491c.34 0 .674.09.969.26l3.383 1.953c.546.316.882.898.882 1.528 0 .631-.336 1.213-.882 1.528l-5.787 3.341c-.294.17-.628.26-.968.26h-2.491c-.34 0-.674-.09-.969-.26l-3.383-1.953c-.546-.315-.882-.898-.882-1.528zm5.056 1.901c.295.17.629.259.969.259h.3c.34 0 .675-.089.969-.259l4.996-2.885c.207-.119.334-.34.334-.579 0-.239-.127-.46-.334-.58l-1.984-1.145c-.295-.17-.629-.26-.969-.26h-.3c-.34 0-.675.09-.969.26l-4.996 2.884c-.207.119-.334.34-.334.58 0 .239.127.46.334.579z"/><path d="m213.746 146.693c0-.631.336-1.213.882-1.528l5.787-3.341c.294-.17.629-.26.969-.26h2.49c.34 0 .674.09.969.26l3.383 1.953c.546.315.882.898.882 1.528 0 .63-.336 1.213-.882 1.528l-5.786 3.341c-.295.17-.629.259-.969.259h-2.49c-.341 0-.675-.089-.969-.259l-3.384-1.954c-.546-.315-.882-.897-.882-1.527zm5.057 1.9c.294.17.628.26.968.26h.3c.341 0 .675-.09.969-.26l4.996-2.884c.207-.12.335-.341.335-.58 0-.239-.128-.46-.335-.579l-1.984-1.146c-.295-.17-.629-.259-.969-.259h-.3c-.34 0-.674.089-.969.259l-4.995 2.885c-.207.119-.335.34-.335.579 0 .239.128.46.335.58z"/><path d="m223.668 152.421c0-.63.337-1.213.883-1.528l5.786-3.341c.295-.17.629-.259.969-.259h2.49c.34 0 .675.089.969.259l3.383 1.954c.546.315.883.897.883 1.528 0 .63-.337 1.212-.883 1.528l-5.786 3.34c-.295.171-.629.26-.969.26h-2.49c-.34 0-.675-.089-.969-.26l-3.383-1.953c-.546-.315-.883-.898-.883-1.528zm5.057 1.901c.294.17.629.259.969.259h.3c.34 0 .674-.089.969-.259l4.995-2.884c.207-.12.335-.341.335-.58 0-.239-.128-.46-.335-.58l-1.984-1.145c-.294-.17-.629-.26-.969-.26h-.3c-.34 0-.674.09-.969.26l-4.995 2.884c-.207.12-.335.341-.335.58 0 .239.128.46.335.579z"/></g></svg>