<svg fill="none" height="255" viewBox="0 0 474 255" width="474" xmlns="http://www.w3.org/2000/svg" xmlns:xlink="http://www.w3.org/1999/xlink"><filter id="a" color-interpolation-filters="sRGB" filterUnits="userSpaceOnUse" height="63.317" width="91.2122" x="328.016" y="64.8993"><feFlood flood-opacity="0" result="BackgroundImageFix"/><feBlend in="SourceGraphic" in2="BackgroundImageFix" mode="normal" result="shape"/><feGaussianBlur result="effect1_foregroundBlur_1_3" stdDeviation="1.05"/></filter><filter id="b" color-interpolation-filters="sRGB" filterUnits="userSpaceOnUse" height="79.3615" width="105.966" x="320.076" y="61.3461"><feFlood flood-opacity="0" result="BackgroundImageFix"/><feBlend in="SourceGraphic" in2="BackgroundImageFix" mode="normal" result="shape"/><feGaussianBlur result="effect1_foregroundBlur_1_3" stdDeviation=".260435"/></filter><linearGradient id="c"><stop offset="0" stop-color="#784f76"/><stop offset=".0255456" stop-color="#372a3c"/><stop offset=".371217" stop-color="#372a3c"/><stop offset=".558444" stop-color="#372a3c"/><stop offset=".834233" stop-color="#6f4a6e"/><stop offset=".933517" stop-color="#462f45"/><stop offset="1" stop-color="#372a3c"/></linearGradient><linearGradient id="d" gradientUnits="userSpaceOnUse" x1="36.9366" x2="240.052" xlink:href="#c" y1="124.316" y2="124.316"/><linearGradient id="e"><stop offset=".01" stop-color="#e35760"/><stop offset=".475" stop-color="#81557e"/><stop offset="1" stop-color="#36293b"/></linearGradient><radialGradient id="f" cx="0" cy="0" gradientTransform="matrix(-117.75894701 -6.90129843 8.12498725 -138.63912042 179.352 71.0329)" gradientUnits="userSpaceOnUse" r="1" xlink:href="#e"/><linearGradient id="g" gradientUnits="userSpaceOnUse" x1="36.9365" x2="240.052" xlink:href="#c" y1="124.316" y2="124.316"/><linearGradient id="h" gradientUnits="userSpaceOnUse" x1="238.758" x2="441.873" xlink:href="#c" y1="233.604" y2="233.604"/><radialGradient id="i" cx="0" cy="0" gradientTransform="matrix(186.56611599 121.9696797 -143.59609933 219.64611687 189.295 99)" gradientUnits="userSpaceOnUse" r="1" xlink:href="#e"/><linearGradient id="j"><stop offset="0" stop-color="#fbff5c"/><stop offset=".370478" stop-color="#e35760"/><stop offset=".825209" stop-color="#302634"/></linearGradient><linearGradient id="k" gradientUnits="userSpaceOnUse" x1="333.402" x2="145.284" xlink:href="#j" y1="163.487" y2="8.80699"/><linearGradient id="l" gradientUnits="userSpaceOnUse" x1="292.847" x2="89.2495" y1="233.167" y2="200.617"><stop offset="0" stop-color="#e35760"/><stop offset=".516195" stop-color="#302634"/><stop offset=".985" stop-color="#1c1320"/></linearGradient><linearGradient id="m"><stop offset="0" stop-color="#6b4d68"/><stop offset="1" stop-color="#6b4d68" stop-opacity="0"/></linearGradient><linearGradient id="n" gradientUnits="userSpaceOnUse" x1="48.2948" x2="142.094" xlink:href="#m" y1="14" y2="67.3452"/><linearGradient id="o"><stop offset="0" stop-color="#6b4d68" stop-opacity="0"/><stop offset=".595" stop-color="#6b4d68"/><stop offset="1" stop-color="#6b4d68" stop-opacity="0"/></linearGradient><linearGradient id="p" gradientUnits="userSpaceOnUse" x1="31.2534" x2="127.666" xlink:href="#o" y1="51" y2="76.3194"/><linearGradient id="q" gradientUnits="userSpaceOnUse" x1="230.253" x2="326.666" xlink:href="#o" y1="162" y2="187.319"/><linearGradient id="r" gradientUnits="userSpaceOnUse" x1="351.295" x2="342.474" xlink:href="#m" y1="296.5" y2="178.612"/><linearGradient id="s" gradientUnits="userSpaceOnUse" x1="430.567" x2="430.567" y1="219.39" y2="316.992"><stop offset="0" stop-color="#ff8f96" stop-opacity="0"/><stop offset="1" stop-color="#e35760"/></linearGradient><linearGradient id="t" gradientUnits="userSpaceOnUse" x1="420.13" x2="311.851" y1="150.764" y2="86.9739"><stop offset="0" stop-color="#66536e"/><stop offset=".3125" stop-color="#302634"/><stop offset=".588542" stop-color="#c44b53"/><stop offset=".793394" stop-color="#ff656f"/><stop offset=".952475" stop-color="#ff9da3"/><stop offset="1" stop-color="#ff656f"/></linearGradient><linearGradient id="u" gradientUnits="userSpaceOnUse" x1="270.919" x2="380.826" xlink:href="#j" y1="58.646" y2="193.813"/><linearGradient id="v"><stop offset="0" stop-color="#302634"/><stop offset="1" stop-color="#302634" stop-opacity="0"/></linearGradient><linearGradient id="w" gradientUnits="userSpaceOnUse" x1="2.90643" x2="-.194121" xlink:href="#v" y1="27.8833" y2="27.8812"/><linearGradient id="x" gradientUnits="userSpaceOnUse" x1="2.90643" x2="-.194121" xlink:href="#v" y1="22.9042" y2="22.9016"/><linearGradient id="y" gradientUnits="userSpaceOnUse" x1="2.90643" x2="-.194121" xlink:href="#v" y1="29.2111" y2="29.2091"/><linearGradient id="z" gradientUnits="userSpaceOnUse" x1="96.1624" x2="0" y1="48.0812" y2="48.0812"><stop offset="0" stop-color="#302634"/><stop offset=".365" stop-color="#5d3340"/><stop offset="1" stop-color="#302634"/></linearGradient><radialGradient id="A" cx="0" cy="0" gradientTransform="matrix(-40.02371262 -109.02782485 90.51885382 -33.22913758 53.3088 71.7023)" gradientUnits="userSpaceOnUse" r="1"><stop offset="0" stop-color="#e35760"/><stop offset="1" stop-color="#302634"/></radialGradient><radialGradient id="B" cx="0" cy="0" gradientTransform="matrix(-58.17505795 -49.55989725 30.49293601 -35.79362384 64.8555 64.734)" gradientUnits="userSpaceOnUse" r="1"><stop offset="0" stop-color="#81557e"/><stop offset="1" stop-color="#36293b"/></radialGradient><linearGradient id="C" gradientUnits="userSpaceOnUse" x1="348.473" x2="406.415" y1="155.089" y2="52.0595"><stop offset="0" stop-color="#fbff5c"/><stop offset=".42" stop-color="#e35760"/><stop offset=".86" stop-color="#302634"/></linearGradient><radialGradient id="D" cx="0" cy="0" gradientTransform="matrix(-101.36680462 -37.12106438 39.11827737 -106.82061102 420.938 116.941)" gradientUnits="userSpaceOnUse" r="1"><stop offset="0" stop-color="#36293b"/><stop offset="1" stop-color="#81557e"/></radialGradient><mask id="E" height="88" maskUnits="userSpaceOnUse" width="114" x="312" y="67"><path d="m318.012 112.84c13.262 22.998 45.544 41.636 72.106 41.63 13.455-.004 22.861-4.791 27.144-12.505l8.446-14.569-101.64-59.475-9.117 15.769c-4.171 7.513-3.482 17.802 3.061 29.15z" fill="#b81a24"/></mask><g clip-rule="evenodd" fill-rule="evenodd"><path d="m97.2766 32.8932 81.7844 47.2185c6.286 3.629 7.907 8.9315 4.862 13.4233-1.057-1.5604-2.678-3.023-4.862-4.2836l-81.7844-47.2185c-8.4691-4.8897-22.2003-4.8897-30.6694 0-2.1835 1.2606-3.804 2.7232-4.8616 4.2836-3.0445-4.4919-1.424-9.7943 4.8616-13.4233 8.4691-4.8896 22.2003-4.8896 30.6694 0zm-59.6425 13.4233c-2.4865 8.0769 1.6749 16.7024 12.4842 22.9432l81.7847 47.2183c17.576 10.148 46.072 10.148 63.647 0 10.81-6.241 14.971-14.866 12.485-22.943-1.557 5.056-5.718 9.897-12.485 13.804-17.575 10.147-46.071 10.147-63.647 0l-81.7847-47.219c-6.7663-3.9065-10.9277-8.7475-12.4842-13.8035z" fill="#000"/><path d="m97.2766 32.8932 81.7844 47.2185c6.286 3.629 7.907 8.9315 4.862 13.4233-1.057-1.5604-2.678-3.023-4.862-4.2836l-81.7844-47.2185c-8.4691-4.8897-22.2003-4.8897-30.6694 0-2.1835 1.2606-3.804 2.7232-4.8616 4.2836-3.0445-4.4919-1.424-9.7943 4.8616-13.4233 8.4691-4.8896 22.2003-4.8896 30.6694 0zm-59.6425 13.4233c-2.4865 8.0769 1.6749 16.7024 12.4842 22.9432l81.7847 47.2183c17.576 10.148 46.072 10.148 63.647 0 10.81-6.241 14.971-14.866 12.485-22.943-1.557 5.056-5.718 9.897-12.485 13.804-17.575 10.147-46.071 10.147-63.647 0l-81.7847-47.219c-6.7663-3.9065-10.9277-8.7475-12.4842-13.8035z" fill="url(#d)" fill-opacity=".5"/><path d="m179.061 80.1117-81.7845-47.2185c-8.4691-4.8896-22.2002-4.8896-30.6693 0s-8.4691 12.8173 0 17.707l81.7848 47.2185c8.469 4.8893 22.2 4.8893 30.669 0 8.47-4.8896 8.47-12.8173 0-17.707zm-65.296-56.7384c-17.5753-10.1473-46.0711-10.1473-63.6467 0-17.5757 10.1474-17.5757 26.5994 0 36.7467l81.7847 47.219c17.576 10.147 46.072 10.147 63.647 0 17.576-10.1478 17.576-26.5998 0-36.7471z" fill="#000"/><path d="m179.061 80.1117-81.7845-47.2185c-8.4691-4.8896-22.2002-4.8896-30.6693 0s-8.4691 12.8173 0 17.707l81.7848 47.2185c8.469 4.8893 22.2 4.8893 30.669 0 8.47-4.8896 8.47-12.8173 0-17.707zm-65.296-56.7384c-17.5753-10.1473-46.0711-10.1473-63.6467 0-17.5757 10.1474-17.5757 26.5994 0 36.7467l81.7847 47.219c17.576 10.147 46.072 10.147 63.647 0 17.576-10.1478 17.576-26.5998 0-36.7471z" fill="url(#f)"/><path d="m97.2765 32.8942 81.7845 47.2185c6.286 3.6289 7.906 8.9311 4.862 13.4228-1.057-1.5606-2.678-3.0233-4.862-4.2841l-81.7845-47.2185c-8.4691-4.8897-22.2003-4.8897-30.6694 0-2.1837 1.2607-3.8044 2.7235-4.862 4.2841-3.044-4.4918-1.4233-9.794 4.862-13.4228 8.4691-4.8897 22.2003-4.8897 30.6694 0zm-59.6427 13.4228c-2.4861 8.0768 1.6754 16.702 12.4844 22.9427l81.7848 47.2183c17.576 10.148 46.072 10.148 63.647 0 10.809-6.24 14.971-14.866 12.485-22.9425-1.557 5.0562-5.718 9.8975-12.485 13.8045-17.575 10.147-46.071 10.147-63.647 0l-81.7848-47.219c-6.7665-3.9067-10.928-8.7479-12.4844-13.804z" fill="#000"/><path d="m97.2765 32.8942 81.7845 47.2185c6.286 3.6289 7.906 8.9311 4.862 13.4228-1.057-1.5606-2.678-3.0233-4.862-4.2841l-81.7845-47.2185c-8.4691-4.8897-22.2003-4.8897-30.6694 0-2.1837 1.2607-3.8044 2.7235-4.862 4.2841-3.044-4.4918-1.4233-9.794 4.862-13.4228 8.4691-4.8897 22.2003-4.8897 30.6694 0zm-59.6427 13.4228c-2.4861 8.0768 1.6754 16.702 12.4844 22.9427l81.7848 47.2183c17.576 10.148 46.072 10.148 63.647 0 10.809-6.24 14.971-14.866 12.485-22.9425-1.557 5.0562-5.718 9.8975-12.485 13.8045-17.575 10.147-46.071 10.147-63.647 0l-81.7848-47.219c-6.7665-3.9067-10.928-8.7479-12.4844-13.804z" fill="url(#g)" fill-opacity=".5"/><path d="m299.098 142.181 81.785 47.219c6.286 3.629 7.906 8.931 4.862 13.423-1.058-1.56-2.678-3.023-4.862-4.284l-81.785-47.218c-8.469-4.89-22.2-4.89-30.669 0-2.184 1.261-3.804 2.723-4.862 4.284-3.044-4.492-1.424-9.795 4.862-13.424 8.469-4.889 22.2-4.889 30.669 0zm-59.642 13.424c-2.487 8.077 1.675 16.702 12.484 22.943l81.785 47.218c17.575 10.148 46.071 10.148 63.647 0 10.809-6.24 14.971-14.866 12.484-22.943-1.556 5.056-5.718 9.897-12.484 13.804-17.576 10.147-46.072 10.147-63.647 0l-81.785-47.219c-6.766-3.906-10.928-8.747-12.484-13.803z" fill="#000"/><path d="m299.098 142.181 81.785 47.219c6.286 3.629 7.906 8.931 4.862 13.423-1.058-1.56-2.678-3.023-4.862-4.284l-81.785-47.218c-8.469-4.89-22.2-4.89-30.669 0-2.184 1.261-3.804 2.723-4.862 4.284-3.044-4.492-1.424-9.795 4.862-13.424 8.469-4.889 22.2-4.889 30.669 0zm-59.642 13.424c-2.487 8.077 1.675 16.702 12.484 22.943l81.785 47.218c17.575 10.148 46.071 10.148 63.647 0 10.809-6.24 14.971-14.866 12.484-22.943-1.556 5.056-5.718 9.897-12.484 13.804-17.576 10.147-46.072 10.147-63.647 0l-81.785-47.219c-6.766-3.906-10.928-8.747-12.484-13.803z" fill="url(#h)" fill-opacity=".5"/><path d="m380.883 189.4-81.785-47.219c-8.469-4.889-22.2-4.889-30.67 0-8.469 4.89-8.469 12.818 0 17.707l81.785 47.219c8.469 4.889 22.201 4.889 30.67 0 8.469-4.89 8.469-12.818 0-17.707zm-65.296-56.739c-17.576-10.147-46.072-10.147-63.647 0-17.576 10.148-17.576 26.6 0 36.747l81.784 47.219c17.576 10.147 46.072 10.147 63.648 0 17.575-10.148 17.575-26.6 0-36.747z" fill="#000"/><path d="m380.883 189.4-81.785-47.219c-8.469-4.889-22.2-4.889-30.67 0-8.469 4.89-8.469 12.818 0 17.707l81.785 47.219c8.469 4.889 22.201 4.889 30.67 0 8.469-4.89 8.469-12.818 0-17.707zm-65.296-56.739c-17.576-10.147-46.072-10.147-63.647 0-17.576 10.148-17.576 26.6 0 36.747l81.784 47.219c17.576 10.147 46.072 10.147 63.648 0 17.575-10.148 17.575-26.6 0-36.747z" fill="url(#i)"/><path d="m169.585 87.0615c0-1.711.21-3.2439.602-4.5825-3.827 1.0103-6.314 4.7895-6.314 10.6752 0 2.7009.524 5.5628 1.46 8.3938 2.665-.114 5.3-.51 7.759-1.19-2.191-4.3268-3.507-9.0142-3.507-13.2965zm22.849 30.8985c-3.086 1.491-6.437 2.705-9.955 3.644l56.677 32.722c-.677-2.994-.452-6.043.676-9zm81.441 44.969 1.465.846c.143-.355.272-.726.385-1.113-.586.155-1.204.245-1.85.267zm21.628 12.487-3.147-1.817c.302-1.861.46-3.864.46-5.999 0-20.295-14.248-44.973-31.823-55.12l-81.785-47.219c-8.983-5.1864-17.097-5.573-22.884-2.0016 5.177-9.2115 16.036-11.342 28.595-4.0911l81.785 47.2187c17.576 10.147 31.824 34.825 31.824 55.12 0 5.599-1.085 10.28-3.025 13.909z" fill="#000"/><path d="m169.585 87.0615c0-1.711.21-3.2439.602-4.5825-3.827 1.0103-6.314 4.7895-6.314 10.6752 0 2.7009.524 5.5628 1.46 8.3938 2.665-.114 5.3-.51 7.759-1.19-2.191-4.3268-3.507-9.0142-3.507-13.2965zm22.849 30.8985c-3.086 1.491-6.437 2.705-9.955 3.644l56.677 32.722c-.677-2.994-.452-6.043.676-9zm81.441 44.969 1.465.846c.143-.355.272-.726.385-1.113-.586.155-1.204.245-1.85.267zm21.628 12.487-3.147-1.817c.302-1.861.46-3.864.46-5.999 0-20.295-14.248-44.973-31.823-55.12l-81.785-47.219c-8.983-5.1864-17.097-5.573-22.884-2.0016 5.177-9.2115 16.036-11.342 28.595-4.0911l81.785 47.2187c17.576 10.147 31.824 34.825 31.824 55.12 0 5.599-1.085 10.28-3.025 13.909z" fill="url(#k)"/><path d="m260.992 131.519-81.785-47.2183c-8.469-4.8896-15.334-.9258-15.334 8.8535 0 2.7008.523 5.5628 1.46 8.3938-5.54.236-11.206-.751-15.683-2.961-1.462-5.0625-2.266-10.1313-2.266-14.9527 0-20.2946 14.248-28.5206 31.823-18.3733l81.785 47.219c17.576 10.147 31.824 34.825 31.824 55.12 0 2.135-.158 4.137-.461 5.998l-17.015-9.824c.638-1.579.987-3.489.987-5.694 0-9.78-6.866-21.671-15.335-26.561zm-21.836 22.807-56.677-32.722c-6.229 1.661-12.98 2.456-19.709 2.385 4.798 6.118 10.423 11.293 16.437 14.765l81.785 47.219c3.91 2.257 7.656 3.606 11.117 4.114l-20.153-11.635c-10.809-6.241-14.97-14.866-12.484-22.943-.121-.393-.227-.788-.316-1.183z" fill="#000"/><path d="m260.992 131.519-81.785-47.2183c-8.469-4.8896-15.334-.9258-15.334 8.8535 0 2.7008.523 5.5628 1.46 8.3938-5.54.236-11.206-.751-15.683-2.961-1.462-5.0625-2.266-10.1313-2.266-14.9527 0-20.2946 14.248-28.5206 31.823-18.3733l81.785 47.219c17.576 10.147 31.824 34.825 31.824 55.12 0 2.135-.158 4.137-.461 5.998l-17.015-9.824c.638-1.579.987-3.489.987-5.694 0-9.78-6.866-21.671-15.335-26.561zm-21.836 22.807-56.677-32.722c-6.229 1.661-12.98 2.456-19.709 2.385 4.798 6.118 10.423 11.293 16.437 14.765l81.785 47.219c3.91 2.257 7.656 3.606 11.117 4.114l-20.153-11.635c-10.809-6.241-14.97-14.866-12.484-22.943-.121-.393-.227-.788-.316-1.183z" fill="url(#l)"/></g><path d="m112.583 110.405-68.558-37.5912c-17.1326-9.8915-24.3951-36.6183-2.4491-49.2888 21.0762-14.02396 53.6254-14.92344 70.7581-5.032l39.861 23.014" stroke="url(#n)" stroke-width=".7"/><path d="m114.336 120.889-68.5579-37.5918c-5.3652-3.0976-11.6893-7.8463-14.5247-13.2972" stroke="url(#p)" stroke-width=".7"/><path d="m313.336 231.889-68.558-37.592c-5.365-3.097-11.689-7.846-14.525-13.297" stroke="url(#q)" stroke-width=".7"/><path d="m268.319 198.067 68.46 37.649c17.132 9.891 47.792 8.227 68.48-3.717s23.57-29.646 6.438-39.537" stroke="url(#r)" stroke-width=".7"/><path d="m372.067 219.39h117v97.602h-117z" fill="url(#s)" fill-opacity=".4" transform="matrix(-.8660254 -.5 .5 -.8660254 584.591474 595.420813)"/><path d="m318.013 112.84c13.261 22.998 45.544 41.636 72.105 41.63 13.456-.004 22.862-4.791 27.144-12.504l8.446-14.57-101.64-59.4749-9.117 15.769c-4.171 7.513-3.481 17.8019 3.062 29.1499z" fill="url(#t)"/><path d="m318.013 112.84c13.261 22.998 45.544 41.636 72.105 41.63 13.456-.004 22.862-4.791 27.144-12.504l8.446-14.57-101.64-59.4749-9.117 15.769c-4.171 7.513-3.481 17.8019 3.062 29.1499z" fill="url(#u)"/><g fill-opacity=".2" mask="url(#E)"><path d="m0 0h2.74674v57.7349h-2.74674z" fill="url(#w)" transform="matrix(.866026 .5 -.500521 .865724 324.855 69.9638)"/><g fill="url(#x)"><path d="m0 0h2.74674v47.4251h-2.74674z" transform="matrix(.866026 .5 -.500521 .865724 324.453 81.6367)"/><path d="m0 0h2.74674v47.4251h-2.74674z" transform="matrix(.866026 .5 -.500521 .865724 329.211 84.3837)"/><path d="m0 0h2.74674v47.4251h-2.74674z" transform="matrix(.866026 .5 -.500521 .865724 333.968 87.1298)"/><path d="m0 0h2.74674v47.4251h-2.74674z" transform="matrix(.866026 .5 -.500521 .865724 338.727 89.8769)"/><path d="m0 0h2.74674v47.4251h-2.74674z" transform="matrix(.866026 .5 -.500521 .865724 343.483 92.624)"/><path d="m0 0h2.74674v47.4251h-2.74674z" transform="matrix(.866026 .5 -.500521 .865724 348.241 95.371)"/><path d="m0 0h2.74674v47.4251h-2.74674z" transform="matrix(.866026 .5 -.500521 .865724 352.999 98.1171)"/><path d="m0 0h2.74674v47.4251h-2.74674z" transform="matrix(.866026 .5 -.500521 .865724 357.757 100.864)"/><path d="m0 0h2.74674v47.4251h-2.74674z" transform="matrix(.866026 .5 -.500521 .865724 362.515 103.611)"/><path d="m0 0h2.74674v47.4251h-2.74674z" transform="matrix(.866026 .5 -.500521 .865724 367.271 106.358)"/><path d="m0 0h2.74674v47.4251h-2.74674z" transform="matrix(.866026 .5 -.500521 .865724 372.03 109.105)"/><path d="m0 0h2.74674v47.4251h-2.74674z" transform="matrix(.866026 .5 -.500521 .865724 376.787 111.852)"/><path d="m0 0h2.74674v47.4251h-2.74674z" transform="matrix(.866026 .5 -.500521 .865724 381.545 114.599)"/><path d="m0 0h2.74674v47.4251h-2.74674z" transform="matrix(.866026 .5 -.500521 .865724 386.303 117.345)"/><path d="m0 0h2.74674v47.4251h-2.74674z" transform="matrix(.866026 .5 -.500521 .865724 391.061 120.093)"/><path d="m0 0h2.74674v47.4251h-2.74674z" transform="matrix(.866026 .5 -.500521 .865724 395.819 122.84)"/><path d="m0 0h2.74674v47.4251h-2.74674z" transform="matrix(.866026 .5 -.500521 .865724 400.576 125.586)"/><path d="m0 0h2.74674v47.4251h-2.74674z" transform="matrix(.866026 .5 -.500521 .865724 405.334 128.333)"/><path d="m0 0h2.74674v47.4251h-2.74674z" transform="matrix(.866026 .5 -.500521 .865724 410.091 131.079)"/><path d="m0 0h2.74674v47.4251h-2.74674z" transform="matrix(.866026 .5 -.500521 .865724 414.849 133.827)"/></g><path d="m0 0h2.74674v60.4842h-2.74674z" fill="url(#y)" transform="matrix(.866026 .5 -.500521 .865724 426.143 125.269)"/></g><ellipse cx="48.0812" cy="48.0812" fill="url(#z)" rx="48.0812" ry="48.0812" transform="matrix(.499392 .866075 -1.00026 .0002503 398.789 56.2978)"/><ellipse cx="39.8008" cy="39.8766" fill="url(#A)" rx="39.8008" ry="39.8766" transform="matrix(.499392 .866075 -1.00026 .0002503 392.564 66.9911)"/><ellipse cx="39.8008" cy="39.8766" fill="url(#B)" rx="39.8008" ry="39.8766" transform="matrix(.499392 .866075 -1.00026 .0002503 392.564 66.9911)"/><g filter="url(#a)"><path clip-rule="evenodd" d="m414.647 126.116c3.424-6.213 2.846-14.702-2.551-24.061-10.977-19.038-37.734-34.4665-59.763-34.461-10.849.0027-18.528 3.7485-22.217 9.824 3.541-6.4249 11.362-10.4159 22.561-10.4187 22.029-.0056 48.786 15.423 59.763 34.4607 5.571 9.661 6.008 18.396 2.207 24.656z" fill="#ff9da3" fill-opacity=".22" fill-rule="evenodd"/></g><path d="m398.718 139.594c-26.561.006-58.844-18.632-72.105-41.6302s-2.479-41.6473 24.082-41.654c26.562-.0066 58.844 18.6317 72.105 41.6299 13.262 22.9983 2.48 41.6473-24.082 41.6543zm-44.817-77.7244c-23.015.0058-32.357 16.165-20.867 36.0926 11.491 19.9278 39.463 36.0778 62.478 36.0718s32.358-16.165 20.867-36.0927c-11.49-19.9276-39.463-36.0774-62.478-36.0717z" fill="url(#C)"/><path d="m398.718 139.594c-26.561.006-58.844-18.632-72.105-41.6302s-2.479-41.6473 24.082-41.654c26.562-.0066 58.844 18.6317 72.105 41.6299 13.262 22.9983 2.48 41.6473-24.082 41.6543zm-44.817-77.7244c-23.015.0058-32.357 16.165-20.867 36.0926 11.491 19.9278 39.463 36.0778 62.478 36.0718s32.358-16.165 20.867-36.0927c-11.49-19.9276-39.463-36.0774-62.478-36.0717z" fill="url(#D)"/><g filter="url(#b)"><path clip-rule="evenodd" d="m326.614 97.9611c13.261 22.9979 45.544 41.6369 72.105 41.6299 13.108-.003 22.373-4.547 26.802-11.912-4.281 7.715-13.688 12.504-27.146 12.508-26.562.006-58.844-18.632-72.105-41.6302-6.717-11.6486-7.266-22.1816-2.72-29.7415-4.169 7.5127-3.478 17.8 3.064 29.1458zm3.744-25.2158c3.7-6.7091 11.86-10.8754 23.544-10.8783 23.015-.0058 50.988 16.144 62.478 36.0716 5.832 10.1134 6.297 19.2564 2.333 25.8094 3.588-6.506 2.98-15.403-2.677-25.2136-11.491-19.9276-39.463-36.0775-62.478-36.0717-11.335.0028-19.353 3.9235-23.2 10.2826z" fill="#bf89f5" fill-opacity=".28" fill-rule="evenodd"/></g></svg>