<svg fill="none" height="161" viewBox="0 0 165 161" width="165" xmlns="http://www.w3.org/2000/svg" xmlns:xlink="http://www.w3.org/1999/xlink"><filter id="a" color-interpolation-filters="sRGB" filterUnits="userSpaceOnUse" height="48.3258" width="68.3219" x="37.4535" y="76.6695"><feFlood flood-opacity="0" result="BackgroundImageFix"/><feBlend in="SourceGraphic" in2="BackgroundImageFix" mode="normal" result="shape"/><feGaussianBlur result="effect1_foregroundBlur_0_49" stdDeviation="1.5"/></filter><filter id="b" color-interpolation-filters="sRGB" filterUnits="userSpaceOnUse" height="57.112" width="76.1871" x="33.9234" y="69.079"><feFlood flood-opacity="0" result="BackgroundImageFix"/><feBlend in="SourceGraphic" in2="BackgroundImageFix" mode="normal" result="shape"/><feGaussianBlur result="effect1_foregroundBlur_0_49" stdDeviation=".260435"/></filter><linearGradient id="c" gradientUnits="userSpaceOnUse" x1="116.33" x2="116.33" y1="9.5" y2="87.5"><stop offset="0" stop-color="#27212b" stop-opacity="0"/><stop offset="1" stop-color="#e35760"/></linearGradient><linearGradient id="d" gradientUnits="userSpaceOnUse" x1="38.2959" x2="115.854" y1="62.0196" y2="107.704"><stop offset="0" stop-color="#66536e"/><stop offset=".3125" stop-color="#302634"/><stop offset=".58" stop-color="#8c404b"/><stop offset=".793394" stop-color="#8c404b"/><stop offset=".952475" stop-color="#7a5178"/><stop offset="1" stop-color="#332837"/></linearGradient><linearGradient id="e"><stop offset="0" stop-color="#302634"/><stop offset="1" stop-color="#302634" stop-opacity="0"/></linearGradient><linearGradient id="f" gradientUnits="userSpaceOnUse" x1="2.08249" x2="-.13909" xlink:href="#e" y1="19.9596" y2="19.9581"/><linearGradient id="g" gradientUnits="userSpaceOnUse" x1="2.08248" x2="-.139089" xlink:href="#e" y1="16.3953" y2="16.3935"/><linearGradient id="h" gradientUnits="userSpaceOnUse" x1="2.0825" x2="-.139091" xlink:href="#e" y1="20.9101" y2="20.9086"/><linearGradient id="i"><stop offset="0" stop-color="#81557e"/><stop offset="1" stop-color="#36293b"/></linearGradient><radialGradient id="j" cx="0" cy="0" gradientTransform="matrix(-30.70828524 57.23712334 -98.59612082 -52.89779824 50.1382 9.17599)" gradientUnits="userSpaceOnUse" r="1" xlink:href="#i"/><radialGradient id="k" cx="0" cy="0" gradientTransform="matrix(-41.6582264 -35.48904793 21.83550321 -25.63124088 46.442 46.355)" gradientUnits="userSpaceOnUse" r="1" xlink:href="#i"/><radialGradient id="l" cx="0" cy="0" gradientTransform="matrix(72.59722345 26.59770535 -28.00492109 76.43815461 37.7259 86.2323)" gradientUnits="userSpaceOnUse" r="1"><stop offset="0" stop-color="#36293b"/><stop offset="1" stop-color="#81557e"/></radialGradient><mask id="m" height="63" maskUnits="userSpaceOnUse" width="82" x="34" y="59"><path d="m111.429 89.1928c-9.503-16.4649-32.6255-29.8146-51.6448-29.8174-9.6349-.0014-16.3685 3.4225-19.4324 8.9422l-6.0426 10.4255 72.7998 42.5989 6.523-11.284c2.984-5.376 2.487-12.741-2.203-20.8652z" fill="#b81a24"/></mask><path d="m73.83 9.5h85v78h-85z" fill="url(#c)" fill-opacity=".4" transform="matrix(.8660254 .5 -.5 .8660254 14.641344 -35.642241)"/><path d="m111.43 89.1931c-9.503-16.4652-32.6255-29.815-51.645-29.8175-9.635-.0012-16.3687 3.423-19.4327 8.9429l-6.0429 10.4259 72.7996 42.5986 6.523-11.284c2.985-5.377 2.487-12.7416-2.202-20.8659z" fill="url(#d)"/><g fill-opacity=".2" mask="url(#m)"><path d="m0 0h1.96807v41.3282h-1.96807z" fill="url(#f)" transform="matrix(-.866029 -.499994 .500459 -.86576 106.541 119.889)"/><g fill="url(#g)"><path d="m0 0h1.96806v33.948h-1.96806z" transform="matrix(-.86603 -.499992 .50046 -.86576 106.827 111.532)"/><path d="m0 0h1.96806v33.948h-1.96806z" transform="matrix(-.86603 -.499992 .50046 -.86576 103.419 109.565)"/><path d="m0 0h1.96806v33.948h-1.96806z" transform="matrix(-.86603 -.499992 .50046 -.86576 100.012 107.597)"/><path d="m0 0h1.96806v33.948h-1.96806z" transform="matrix(-.86603 -.499992 .50046 -.86576 96.6035 105.63)"/><path d="m0 0h1.96806v33.948h-1.96806z" transform="matrix(-.86603 -.499992 .50046 -.86576 93.1958 103.662)"/><path d="m0 0h1.96806v33.948h-1.96806z" transform="matrix(-.86603 -.499992 .50046 -.86576 89.7891 101.694)"/><path d="m0 0h1.96806v33.948h-1.96806z" transform="matrix(-.86603 -.499992 .50046 -.86576 86.3809 99.7275)"/><path d="m0 0h1.96806v33.948h-1.96806z" transform="matrix(-.86603 -.499992 .50046 -.86576 82.9727 97.7598)"/><path d="m0 0h1.96806v33.948h-1.96806z" transform="matrix(-.86603 -.499992 .50046 -.86576 79.5654 95.793)"/><path d="m0 0h1.96806v33.948h-1.96806z" transform="matrix(-.86603 -.499992 .50046 -.86576 76.1577 93.8252)"/><path d="m0 0h1.96806v33.948h-1.96806z" transform="matrix(-.86603 -.499992 .50046 -.86576 72.7495 91.8574)"/><path d="m0 0h1.96806v33.948h-1.96806z" transform="matrix(-.86603 -.499992 .50046 -.86576 69.3423 89.8906)"/><path d="m0 0h1.96806v33.948h-1.96806z" transform="matrix(-.86603 -.499992 .50046 -.86576 65.9346 87.9229)"/><path d="m0 0h1.96806v33.948h-1.96806z" transform="matrix(-.86603 -.499992 .50046 -.86576 62.5259 85.9561)"/><path d="m0 0h1.96806v33.948h-1.96806z" transform="matrix(-.86603 -.499992 .50046 -.86576 59.1196 83.9873)"/><path d="m0 0h1.96806v33.948h-1.96806z" transform="matrix(-.86603 -.499992 .50046 -.86576 55.7114 82.0215)"/><path d="m0 0h1.96806v33.948h-1.96806z" transform="matrix(-.86603 -.499992 .50046 -.86576 52.3032 80.0527)"/><path d="m0 0h1.96806v33.948h-1.96806z" transform="matrix(-.86603 -.499992 .50046 -.86576 48.8955 78.0859)"/><path d="m0 0h1.96806v33.948h-1.96806z" transform="matrix(-.86603 -.499992 .50046 -.86576 45.4883 76.1182)"/><path d="m0 0h1.96806v33.948h-1.96806z" transform="matrix(-.86603 -.499992 .50046 -.86576 42.0806 74.1514)"/></g><path d="m0 0h1.96807v43.2962h-1.96807z" fill="url(#h)" transform="matrix(-.866029 -.499994 .500459 -.86576 33.9946 80.2773)"/></g><ellipse cx="34.4302" cy="34.4302" fill="url(#j)" rx="34.4302" ry="34.4302" transform="matrix(-.499774 -.865895 1.00023 .00013072 53.6056 129.646)"/><ellipse cx="28.5008" cy="28.555" fill="url(#k)" rx="28.5008" ry="28.555" transform="matrix(-.499774 -.865895 1.00023 .00013059 58.0596 121.992)"/><g filter="url(#a)"><path clip-rule="evenodd" d="m42.224 79.6695c-2.4465 4.4457-2.0284 10.5199 1.8375 17.2176 7.8669 13.6299 27.0315 24.6799 42.8054 24.6829 7.7719.001 13.2711-2.681 15.9081-7.031-2.532 4.601-8.1318 7.457-16.1542 7.456-15.7739-.002-34.9385-11.053-42.8054-24.6821-3.9908-6.9141-4.3074-13.1637-1.5914-17.6434z" fill="#ff93ba" fill-opacity=".22" fill-rule="evenodd"/></g><path d="m53.629 70.0242c19.0196.0025 42.1419 13.3522 51.645 29.8174 9.504 16.4654 1.789 29.8114-17.2304 29.8084-19.0196-.002-42.142-13.352-51.6453-29.8174-9.5033-16.4652-1.7889-29.8109 17.2307-29.8084zm32.1172 55.6458c16.4798.002 23.1648-11.562 14.9298-25.829-8.2342-14.2668-28.2694-25.8342-44.7496-25.8363-16.4802-.0022-23.1646 11.5617-14.9301 25.8285s28.2697 25.8338 44.7499 25.8368z" fill="url(#l)"/><g filter="url(#b)"><path clip-rule="evenodd" d="m105.275 99.8431c-9.5033-16.4649-32.6257-29.8146-51.645-29.8174-9.3841-.0014-16.016 3.2467-19.1857 8.5155 3.0641-5.5191 9.7975-8.9428 19.4319-8.9413 19.0194.0027 42.1417 13.3525 51.6448 29.8174 4.815 8.3417 5.211 15.8817 1.956 21.2917 2.985-5.376 2.488-12.741-2.202-20.8659zm-2.674 18.0509c-2.6475 4.799-8.4886 7.777-16.8533 7.776-16.48-.002-36.5152-11.57-44.7498-25.8363-4.1801-7.242-4.5159-13.7875-1.6776-18.4771-2.5686 4.6561-2.1312 11.0259 1.9238 18.0512 8.2346 14.2662 28.2698 25.8342 44.7498 25.8362 8.1145.001 13.854-2.801 16.6071-7.35z" fill="#ff84b1" fill-opacity=".18" fill-rule="evenodd"/></g></svg>