<svg fill="none" height="32" viewBox="0 0 291 32" width="291" xmlns="http://www.w3.org/2000/svg">
    <g clip-rule="evenodd" fill="#fff" fill-rule="evenodd">
        <path d="m14.4628.0537216c1.6643-.1819276 3.2337.0981934 4.7079.8406994 2.5783 2.578259 5.1562 5.156179 7.7345 7.734439-3.5343 1.93524-7.1214 3.78484-10.761 5.54864-3.3628-1.6814-6.72557-3.3628-10.08836-5.04422-.34334-.16882-.3995-.39278-.16814-.67256 2.82307-2.87957 5.6814-5.68179 8.5751-8.4069984z"
              opacity=".99"/>
        <path d="m190.667 2.07178c2.509.43514 3.461 1.89258 2.859 4.37163-1.117 1.4941-2.518 1.8862-4.204 1.17698-1.399-1.16958-1.68-2.57052-.84-4.20349.677-.58782 1.405-1.03642 2.185-1.34512z"
              opacity=".891"/>
        <path d="m44.3887 4.08942c4.149-.05615 8.2963 0 12.4423.16814 5.0405 1.32865 6.5538 4.41132 4.5398 9.24774-.7691.996-1.7218 1.7247-2.8584 2.1858 3.003.8168 4.5721 2.7783 4.7079 5.8849-.4916 4.5808-3.0699 6.8789-7.7344 6.8937-3.6974.1681-7.3965.2243-11.0972.1681 0-8.1826 0-16.3657 0-24.54838zm5.0442 4.37164c1.9087-.05582 3.8144.00034 5.7167.16814 1.6932 1.01321 2.0856 2.4145 1.177 4.2035-.3037.4039-.6958.6843-1.177.8407-1.8791.4335-3.7848.6016-5.7167.5044 0-1.9057 0-3.811 0-5.71674zm0 9.41584c2.0207-.0558 4.0384.0003 6.053.1681 2.0066 1.1407 2.511 2.7663 1.5133 4.8761-.2522.2105-.5327.3786-.8407.5044-2.2114.4631-4.4534.6312-6.7256.5044 0-2.0176 0-4.0353 0-6.053z"
              opacity=".953"/>
        <path d="m65.5762 4.08838h5.0442c.156 8.07142.2122 16.14212.1681 24.21212-1.7056.3266-3.4428.4389-5.2123.3363 0-8.1827 0-16.3657 0-24.54842z"
              opacity=".96"/>
        <path d="m112.65 4.08887h5.381c-.056 4.14902 0 8.29633.168 12.44233 1.864-1.9753 3.602-4.0491 5.212-6.2212 2.13-.2243 4.26-.2243 6.39 0-2.242 2.5783-4.484 5.1562-6.726 7.7345 2.313 3.4482 4.667 6.8668 7.062 10.2565-2.008.3914-4.026.4473-6.053.1682-1.627-2.353-3.309-4.6511-5.044-6.8938-.329.1604-.609.3844-.841.6726-.168 2.1269-.224 4.2566-.168 6.3893-1.794 0-3.587 0-5.381 0 0-8.1827 0-16.3657 0-24.54843z"
              opacity=".926"/>
        <path d="m149.31 4.08887h5.381c-.056 2.91655 0 5.83109.168 8.74323 1.556-2.6535 3.854-3.60656 6.893-2.85834 2.018.44924 3.42 1.62624 4.204 3.53094.488 5.02.656 10.0642.504 15.1326-1.769.1026-3.506-.0098-5.212-.3363-.273-3.7149-.217-7.4139.168-11.0972-.803-2.6435-2.484-3.4842-5.044-2.5221-.777.5505-1.281 1.2792-1.513 2.1858-.168 3.9217-.225 7.8451-.168 11.7698-1.77.1026-3.507-.0098-5.213-.3363-.168-8.07-.224-16.1407-.168-24.21213z"
              opacity=".92"/>
        <path d="m80.0341 9.80609c7.038-.6396 10.8491 2.55501 11.4335 9.58401-.2337 5.9504-3.316 9.1451-9.2477 9.5839-7.1193-1.1083-10.0335-5.2557-8.7432-12.4423.9049-3.5387 3.0907-5.7807 6.5574-6.72561zm1.6814 4.03541c1.0354.1022 1.9884.4385 2.8584 1.0088 1.9666 3.1906 1.7984 6.2733-.5044 9.2477-3.8054.909-5.5991-.6605-5.3805-4.7079-.2428-2.6012.7661-4.4507 3.0265-5.5486z"
              opacity=".931"/>
        <path d="m99.8741 9.80574c2.9429-.40959 5.6329.20676 8.0709 1.84956 1.476 1.5519 2.261 3.4014 2.354 5.5486-1.696.11-3.378-.002-5.044-.3363-.657-2.5006-2.226-3.3413-4.708-2.5221-2.5954 2.6304-2.9875 5.6011-1.1773 8.9114 2.5253 2.0618 4.4873 1.6135 5.8853-1.3451 1.666-.3343 3.348-.4462 5.044-.3363-.665 4.7547-3.411 7.2206-8.239 7.3982-7.3858-1.1195-10.3-5.3791-8.7434-12.7786 1.0496-3.348 3.2354-5.478 6.5575-6.38936z"
              opacity=".921"/>
        <path d="m136.868 9.80569c4.066-.62683 7.261.71831 9.584 4.03531.403 1.0849.571 2.2057.505 3.3628-1.574.0559-3.143-.0003-4.708-.1681-.881-2.7935-2.675-3.578-5.381-2.354-1.887 2.5601-2.167 5.3065-.841 8.2389 2.613 2.5039 4.687 2.1115 6.222-1.177 1.681-.2243 3.362-.2243 5.044 0-1.397 5.9148-5.096 8.1568-11.097 6.7256-5.167-1.9773-7.241-5.7325-6.222-11.2654.708-4.0212 3.006-6.4871 6.894-7.39811z"
              opacity=".922"/>
        <path d="m175.2 9.80622c2.581-.25692 5.047.13552 7.399 1.17698 1.22.8871 2.06 2.0641 2.522 3.5309.168 4.7066.224 9.4145.168 14.1238-1.682 0-3.363 0-5.044 0 .054-.7926-.001-1.5772-.169-2.354-.926 1.371-2.215 2.2117-3.867 2.5221-5.983.2963-8.281-2.4498-6.894-8.2388.888-1.22 2.065-2.0607 3.531-2.5221 2.272-.3393 4.514-.7879 6.726-1.3451.549-1.969-.236-2.9216-2.354-2.8584-1.31.0955-2.319.7122-3.026 1.8495-1.559-.0417-3.129-.0975-4.708-.1681.679-3.1449 2.584-5.0506 5.716-5.71678zm3.699 10.42468h1.009c.522 2.8893-.655 4.4587-3.531 4.7079-2.13-.0518-2.859-1.0606-2.185-3.0265.391-.3645.84-.6447 1.345-.8407 1.189-.1799 2.311-.46 3.362-.8407z"
              opacity=".921"/>
        <path d="m205.132 9.80512c3.545-.5979 6.179.63528 7.902 3.69908.488 5.02.656 10.0642.505 15.1326-1.77.1026-3.507-.0098-5.213-.3363-.112-4.1473-.224-8.295-.336-12.4423-2.479-2.4065-4.497-2.0702-6.053 1.0088.065 3.918.121 7.8414.168 11.7698-1.793 0-3.587 0-5.38 0 0-6.165 0-12.3304 0-18.4954h5.044c-.055.7926.001 1.5772.168 2.354.906-1.096 1.971-1.9925 3.195-2.69028z"
              opacity=".934"/>
        <path d="m231.365 9.80595c2.751-.3198 5.329.18462 7.734 1.51325 1.854 1.523 2.751 3.4845 2.69 5.8849-1.573.0558-3.142-.0003-4.707-.1681-.882-2.7935-2.675-3.578-5.381-2.354-1.887 2.5601-2.167 5.3065-.841 8.2389 2.613 2.5039 4.687 2.1115 6.222-1.177 1.681-.2243 3.362-.2243 5.044 0-1.398 5.9148-5.097 8.1568-11.098 6.7256-2.938-.8084-4.899-2.658-5.884-5.5486-1.448-4.8119-.271-8.7914 3.531-11.938.944-.3675 1.841-.76 2.69-1.17695z"
              opacity=".939"/>
        <path d="m250.529 9.80585c7.011-.70451 10.71 2.43395 11.097 9.41585-.704 8.0324-4.964 11.0027-12.779 8.9114-3.58-1.7749-5.374-4.6891-5.38-8.7433.013-4.9914 2.367-8.186 7.062-9.58395zm1.681 4.03535c3.009.5646 4.354 2.4142 4.035 5.5486.019 1.515-.374 2.9162-1.177 4.2035-1.986 1.478-3.779 1.2537-5.38-.6725-1.197-2.6405-1.085-5.2188.336-7.7345.677-.5878 1.406-1.0364 2.186-1.3451z"
              opacity=".948"/>
        <path d="m272.386 9.80606c3.185-.62077 5.483.50034 6.893 3.36284 1.695-2.6597 4.106-3.61236 7.23-2.8584 1.971.6251 3.259 1.9144 3.867 3.8672.169 4.8185.226 9.6388.169 14.46-1.682 0-3.363 0-5.045 0 .058-4.037 0-8.0724-.168-12.106-.74-2.1358-2.142-2.7525-4.203-1.8496-.669.4436-1.059 1.06-1.177 1.8496-.168 4.0336-.224 8.069-.168 12.106-1.682 0-3.363 0-5.045 0 .057-4.261 0-8.5206-.168-12.7786-1.792-2.2904-3.473-2.1781-5.044.3363-.168 4.146-.224 8.2933-.168 12.4423-1.793 0-3.587 0-5.38 0 0-6.165 0-12.3303 0-18.4954h5.044c-.055.9036.001 1.8005.168 2.6903.809-1.3142 1.874-2.323 3.195-3.02654z"
              opacity=".945"/>
        <path d="m188.316 10.1416h5.381v18.4954c-1.793 0-3.587 0-5.381 0 0-6.165 0-12.3304 0-18.4954z" opacity=".92"/>
        <path d="m2.35404 11.8232c3.88134 1.6041 7.69276 3.3975 11.43356 5.3805.4482 4.9322.4482 9.8641 0 14.7963-4.83642-4.4436-9.3762-9.1515-13.619376-14.1237-.2242987-1.1208-.2242987-2.242 0-3.3628.672896-.952 1.401276-1.8485 2.185816-2.6903z"
              opacity=".983"/>
        <path d="m29.2584 11.4863c3.1271 1.8869 3.8558 4.4648 2.1858 7.7345-4.2643 4.3201-8.5798 8.5798-12.9467 12.7786-.3921-4.9282-.4483-9.8604-.1682-14.7963 3.69-1.8724 7.3333-3.7781 10.9291-5.7168z"
              opacity=".975"/>
        <path d="m218.581 22.9214c3.079-.3393 4.369 1.0058 3.867 4.0353-.264.6006-.656 1.1051-1.177 1.5133-3.25.6729-4.651-.6164-4.203-3.8672.344-.7355.849-1.296 1.513-1.6814z"
              opacity=".931"/>
    </g>
</svg>