<svg width="174" height="29" viewBox="0 0 119 20" fill="none" xmlns="http://www.w3.org/2000/svg">
    <path d="M16.565 0C18.3932 0 19.8771 1.48062 19.8771 3.30471V16.6906C19.8771 18.5147 18.3932 19.9954 16.565 19.9954C14.7369 19.9954 13.2529 18.5147 13.2529 16.6906V3.30471C13.2529 1.48062 14.7369 0 16.565 0Z"
          fill="#7A7A7A"/>
    <path d="M12.3227 7.62126L5.37286 0.719424C4.80534 0.269204 4.09361 0 3.3121 0C1.48393 0 0 1.48062 0 3.30471V16.6906C0 18.5147 1.48393 19.9954 3.3121 19.9954C5.14027 19.9954 6.6242 18.5147 6.6242 16.6906V11.5851L12.318 17.1641V7.62126H12.3227Z"
          fill="#7A7A7A"/>
    <path d="M33.7949 8.61127V14.0823H31.9226V8.99491C31.9226 7.34358 31.2037 6.46787 29.8329 6.46787C28.4036 6.46787 27.388 7.61463 27.388 9.22009V14.0865H25.5156V4.99585H26.8196L27.1832 6.26354C27.8728 5.34614 28.997 4.78735 30.3344 4.78735C32.4617 4.79152 33.7949 6.37613 33.7949 8.61127Z"
          fill="#7A7A7A"/>
    <path d="M48.1635 10.1749H40.7702C41.0042 11.6469 42.0658 12.5518 43.5578 12.5518C44.6445 12.5518 45.5263 12.0514 46.0069 11.2215H47.9796C47.2566 13.1397 45.5932 14.3032 43.5578 14.3032C40.8956 14.3032 38.877 12.2515 38.877 9.53685C38.877 6.81799 40.8872 4.77051 43.5578 4.77051C46.3455 4.77051 48.2011 6.9139 48.2011 9.5577C48.2011 9.7662 48.1844 9.97053 48.1635 10.1749ZM40.8162 8.65697H46.3246C45.9902 7.27669 44.9454 6.46354 43.5578 6.46354C42.1494 6.46354 41.1213 7.31005 40.8162 8.65697Z"
          fill="#7A7A7A"/>
    <path d="M54.8213 14.0865L52.5519 10.6254L50.2574 14.0865H48.2012L51.436 9.38689L48.4478 4.99585H50.5542L52.5644 8.05248L54.6457 4.99585H56.702L53.672 9.29515L56.9277 14.0865H54.8213Z"
          fill="#7A7A7A"/>
    <path d="M61.7006 14.3073C58.9882 14.3073 56.9277 12.2473 56.9277 9.53266C56.9277 6.81797 58.984 4.77466 61.7047 4.77466C63.9574 4.77466 65.7169 6.15077 66.2226 8.23578H64.367C63.8864 7.1891 62.8875 6.55943 61.7006 6.55943C60.0622 6.55943 58.8335 7.85214 58.8335 9.53683C58.8335 11.2215 60.079 12.5226 61.7006 12.5226C62.8917 12.5226 63.8571 11.8804 64.3544 10.7753H66.2435C65.742 12.8979 63.949 14.3073 61.7006 14.3073Z"
          fill="#7A7A7A"/>
    <path d="M75.9482 8.60705V14.0823H74.0759V8.99486C74.0759 7.3477 73.3696 6.46782 71.9862 6.46782C70.5694 6.46782 69.5413 7.61041 69.5413 9.22004V14.0865H67.6689V1.73901H69.5413V6.02997C70.2392 5.25435 71.2841 4.79147 72.5003 4.79147C74.6234 4.79147 75.9482 6.26766 75.9482 8.60705Z"
          fill="#7A7A7A"/>
    <path d="M87.1441 4.9915V14.0822H85.6354L85.4515 12.9771C84.6282 13.8111 83.4747 14.3073 82.1498 14.3073C79.4374 14.3073 77.4062 12.2599 77.4062 9.53683C77.4062 6.80546 79.4332 4.77466 82.1498 4.77466C83.4914 4.77466 84.6532 5.27923 85.4808 6.12992L85.6981 4.9915H87.1441ZM85.2676 9.53683C85.2676 7.82295 84.0138 6.55526 82.2961 6.55526C80.5784 6.55526 79.312 7.83546 79.312 9.53683C79.312 11.2382 80.5784 12.5184 82.2961 12.5184C84.0138 12.5184 85.2676 11.2507 85.2676 9.53683Z"
          fill="#7A7A7A"/>
    <path d="M97.6768 8.61127V14.0823H95.8044V8.99491C95.8044 7.34358 95.0856 6.46787 93.7147 6.46787C92.2854 6.46787 91.2698 7.61463 91.2698 9.22009V14.0865H89.3975V4.99585H90.7014L91.065 6.26354C91.7546 5.34614 92.8789 4.78735 94.2163 4.78735C96.3477 4.79152 97.6768 6.37613 97.6768 8.61127Z"
          fill="#7A7A7A"/>
    <path d="M108.484 4.99587V12.8939C108.484 15.7921 106.758 17.5643 103.937 17.5643C101.605 17.5643 99.95 16.355 99.4819 14.3618H101.35C101.701 15.3584 102.771 15.9088 103.92 15.9088C105.496 15.9088 106.645 14.8747 106.645 13.1524V12.7354C105.855 13.4193 104.811 13.8238 103.632 13.8238C101.095 13.8238 99.1309 11.8556 99.1309 9.31185C99.1309 6.77231 101.099 4.7832 103.632 4.7832C104.969 4.7832 106.14 5.3128 106.955 6.17599L107.251 5.00421L108.484 4.99587ZM103.849 12.0849C105.471 12.0849 106.645 10.909 106.645 9.30351C106.645 7.69388 105.475 6.51793 103.849 6.51793C102.228 6.51793 101.041 7.70639 101.041 9.30351C101.041 10.8965 102.224 12.0849 103.849 12.0849Z"
          fill="#7A7A7A"/>
    <path d="M119.351 10.1749H111.958C112.192 11.6469 113.253 12.5518 114.745 12.5518C115.832 12.5518 116.714 12.0514 117.194 11.2215H119.167C118.444 13.1397 116.781 14.3032 114.745 14.3032C112.083 14.3032 110.064 12.2515 110.064 9.53685C110.064 6.81799 112.075 4.77051 114.745 4.77051C117.533 4.77051 119.389 6.9139 119.389 9.5577C119.389 9.7662 119.372 9.97053 119.351 10.1749ZM112.004 8.65697H117.512C117.178 7.27669 116.133 6.46354 114.745 6.46354C113.337 6.46354 112.309 7.31005 112.004 8.65697Z"
          fill="#7A7A7A"/>
    <path d="M36.7124 14.0821C37.2779 14.0821 37.7364 13.6247 37.7364 13.0605C37.7364 12.4962 37.2779 12.0388 36.7124 12.0388C36.1469 12.0388 35.6885 12.4962 35.6885 13.0605C35.6885 13.6247 36.1469 14.0821 36.7124 14.0821Z"
          fill="#7A7A7A"/>
    <defs>
    </defs>
</svg>
