<svg width="97" height="97" viewBox="0 0 97 97" fill="none" xmlns="http://www.w3.org/2000/svg">
<g clip-path="url(#clip0_9_24)">
<path d="M85 0H48C38.4509 0.0989622 29.1435 3.01474 21.2448 8.38176C13.3461 13.7488 7.20756 21.3282 3.59886 30.1697C-0.00984907 39.0112 -0.928121 48.7212 0.959171 58.0825C2.84646 67.4437 7.45532 76.0395 14.2079 82.7921C20.9605 89.5447 29.5563 94.1535 38.9175 96.0408C48.2787 97.9281 57.9888 97.0098 66.8303 93.4011C75.6718 89.7924 83.2512 83.6539 88.6182 75.7552C93.9852 67.8564 96.901 58.5491 97 49V12C97 8.8174 95.7357 5.76516 93.4853 3.51472C91.2348 1.26428 88.1826 0 85 0Z" fill="#673E60"/>
<path d="M30 45C30 42.3478 31.0536 39.8043 32.9289 37.9289C34.8043 36.0536 37.3478 35 40 35H57C59.6522 35 62.1957 36.0536 64.0711 37.9289C65.9464 39.8043 67 42.3478 67 45V53C67 55.6522 65.9464 58.1957 64.0711 60.0711C62.1957 61.9464 59.6522 63 57 63H33C32.2044 63 31.4413 62.6839 30.8787 62.1213C30.3161 61.5587 30 60.7956 30 60V45Z" fill="white"/>
<path fill-rule="evenodd" clip-rule="evenodd" d="M37 45.5C37 45.1022 37.158 44.7206 37.4393 44.4393C37.7206 44.158 38.1022 44 38.5 44H59.5C59.8978 44 60.2794 44.158 60.5607 44.4393C60.842 44.7206 61 45.1022 61 45.5C61 45.8978 60.842 46.2794 60.5607 46.5607C60.2794 46.842 59.8978 47 59.5 47H38.5C38.1022 47 37.7206 46.842 37.4393 46.5607C37.158 46.2794 37 45.8978 37 45.5Z" fill="#673E60"/>
<path fill-rule="evenodd" clip-rule="evenodd" d="M37 53.5C37 53.1022 37.158 52.7206 37.4393 52.4393C37.7206 52.158 38.1022 52 38.5 52H51.5C51.8978 52 52.2794 52.158 52.5607 52.4393C52.842 52.7206 53 53.1022 53 53.5C53 53.8978 52.842 54.2794 52.5607 54.5607C52.2794 54.842 51.8978 55 51.5 55H38.5C38.1022 55 37.7206 54.842 37.4393 54.5607C37.158 54.2794 37 53.8978 37 53.5Z" fill="#673E60"/>
</g>
<defs>
<clipPath id="clip0_9_24">
<rect width="97" height="97" fill="white"/>
</clipPath>
</defs>
</svg>
