<svg width="150"
     height="29"
     viewBox="0 0 150 29"
     fill="none"
     xmlns="http://www.w3.org/2000/svg"
>
    <path
        d="M3.95785 17.2481C4.04194 18.178 4.2942 18.855 4.71546 19.2774C5.38878 20.1224 6.56825 20.5457 8.16797 20.5457C9.17845 20.5457 9.93606 20.461 10.5253 20.2073C11.704 19.7848 12.294 19.0238 12.294 17.9243C12.294 17.2481 12.0411 16.7408 11.4517 16.4024C10.8625 16.0646 9.93606 15.7262 8.7574 15.4725L6.65234 14.9651C4.54728 14.4577 3.11554 13.9506 2.35814 13.4432C1.01048 12.5133 0.337169 11.0761 0.337169 9.13087C0.337169 7.35605 1.01049 5.83391 2.27324 4.64975C3.5368 3.38151 5.47287 2.79004 7.99918 2.79004C10.1042 2.79004 11.8729 3.38151 13.3886 4.48097C14.9044 5.58022 15.6618 7.18645 15.7459 9.30047H11.7889C11.7039 8.11692 11.1988 7.27115 10.1889 6.76377C9.51481 6.42538 8.7574 6.25659 7.74692 6.25659C6.65234 6.25659 5.81003 6.51008 5.2206 6.93276C4.4632 7.35585 4.21012 7.94732 4.21012 8.70839C4.21012 9.38456 4.54729 9.97663 5.13651 10.315C5.55777 10.5687 6.39926 10.8224 7.74692 11.1602L11.1988 12.006C12.7144 12.3443 13.809 12.8517 14.5672 13.4432C15.7459 14.373 16.3353 15.7262 16.3353 17.5018C16.3353 19.3622 15.6618 20.8835 14.2303 22.0676C12.7993 23.2512 10.8625 23.8433 8.33614 23.8433C5.72595 23.8433 3.70498 23.2512 2.18915 22.0676C0.757612 20.8835 0 19.2775 0 17.2481H3.95785ZM17.5987 11.4986V8.70839H19.6197V4.64975H23.4087V8.79309H25.766V11.5835H23.4087V19.3622C23.4087 19.9536 23.4928 20.3761 23.661 20.461C23.8298 20.6298 24.2502 20.7147 25.0925 20.7147C25.1766 20.7147 25.3456 20.7147 25.4297 20.7147C25.5979 20.7147 25.6819 20.7147 25.8507 20.7147V23.5898L23.9979 23.6739C22.1451 23.7586 20.9665 23.4202 20.2932 22.7438C19.8719 22.3213 19.6197 21.6445 19.6197 20.7147V11.4986H17.5987ZM34.1022 11.4139C33.1764 11.4139 32.5023 11.6676 31.9971 12.2596C31.4918 12.8517 31.2395 13.6128 31.0713 14.5427H37.0495C37.0495 13.5279 36.7124 12.6821 36.1231 12.1749C35.6178 11.6676 34.9445 11.4139 34.1022 11.4139ZM34.1022 8.20101C35.3655 8.20101 36.4601 8.4547 37.3865 8.87718C38.397 9.30047 39.1546 10.0615 39.8279 11.0761C40.4174 11.9213 40.7543 12.9358 40.9225 14.12C41.0072 14.7963 41.0913 15.8109 41.0072 17.0791H30.9025C30.9866 18.6013 31.4077 19.6158 32.3341 20.2073C32.8394 20.5457 33.5127 20.7994 34.271 20.7994C35.0286 20.7994 35.7019 20.5457 36.2072 20.1224C36.4601 19.8689 36.7124 19.5311 36.9655 19.1085H40.9225C40.8384 19.9536 40.3333 20.8835 39.5757 21.8141C38.3123 23.2512 36.5442 23.9274 34.271 23.9274C32.4182 23.9274 30.7344 23.3361 29.3026 22.1517C27.8711 20.9682 27.1976 18.9389 27.1976 16.2334C27.1976 13.6969 27.8711 11.7523 29.1345 10.315C30.3972 8.87718 31.9971 8.20101 34.1022 8.20101ZM51.7847 16.1487C51.5325 16.3183 51.2796 16.4024 51.0273 16.4871C50.7743 16.572 50.4379 16.6561 50.0169 16.7408L49.1745 16.9097C48.3328 17.0791 47.743 17.2481 47.4065 17.4169C46.8172 17.7555 46.4801 18.3476 46.4801 19.0238C46.4801 19.6999 46.6484 20.1224 46.9854 20.461C47.3224 20.7147 47.8277 20.8835 48.3328 20.8835C49.1745 20.8835 49.9328 20.6298 50.6061 20.1224C51.2796 19.6158 51.7007 18.7701 51.7007 17.4169V16.1487H51.7847ZM49.4274 14.373C50.1009 14.289 50.6061 14.2041 50.9433 14.0353C51.5325 13.7816 51.7847 13.4432 51.7847 12.9358C51.7847 12.3443 51.6166 11.9213 51.1955 11.6676C50.7743 11.4139 50.185 11.3298 49.3433 11.3298C48.4169 11.3298 47.8277 11.5835 47.4065 12.006C47.1536 12.3443 46.9854 12.767 46.9013 13.3591H43.1963C43.2806 12.0909 43.6176 10.9914 44.2909 10.1456C45.3014 8.87718 47.0695 8.20101 49.5115 8.20101C51.1114 8.20101 52.543 8.5394 53.8057 9.13087C55.0693 9.80785 55.6585 10.9914 55.6585 12.767V19.5311C55.6585 20.0383 55.6585 20.5457 55.6585 21.2219C55.6585 21.7292 55.7426 22.0676 55.9108 22.2366C55.9949 22.4054 56.2479 22.575 56.5002 22.6591V23.2512H52.2901C52.206 22.9128 52.1219 22.6591 52.0378 22.4054C51.9537 22.1517 51.9537 21.8142 51.9537 21.4756C51.4484 22.0676 50.7743 22.575 50.1009 22.9128C49.2586 23.4202 48.3328 23.5898 47.3224 23.5898C45.9749 23.5898 44.8803 23.1665 44.038 22.4054C43.1963 21.6445 42.7753 20.5457 42.7753 19.1925C42.7753 17.4169 43.4486 16.0646 44.8803 15.2188C45.6377 14.7963 46.7331 14.4577 48.2481 14.289L49.4274 14.373ZM62.9842 23.3361H59.1104V3.38151H62.9842V23.3361ZM65.2574 11.4986V8.70839H67.2784V4.64975H71.0674V8.79309H73.4254V11.5835H71.0674V19.3622C71.0674 19.9536 71.1515 20.3761 71.3203 20.461C71.4885 20.6298 71.9097 20.7147 72.7512 20.7147C72.8361 20.7147 73.0043 20.7147 73.0884 20.7147C73.2566 20.7147 73.3413 20.7147 73.5095 20.7147V23.5898L71.6567 23.6739C69.8047 23.7586 68.6252 23.4202 67.9519 22.7438C67.5306 22.3213 67.2784 21.6445 67.2784 20.7147V11.4986H65.2574ZM84.0347 8.20101C84.9611 8.20101 85.8028 8.37061 86.477 8.70839C87.2344 9.04678 87.8238 9.46925 88.3289 10.1456C88.7502 10.7377 89.0031 11.2451 89.0872 11.8372C89.1713 12.4284 89.2553 13.3591 89.2553 14.7114V23.4202H85.2975V14.373C85.2975 13.6128 85.1293 12.9358 84.877 12.4284C84.5401 11.7523 83.8666 11.4139 82.8561 11.4139C81.8456 11.4139 81.0874 11.7523 80.5822 12.4284C80.0769 13.1054 79.8246 14.12 79.8246 15.3876V23.4202H75.9517V3.46621H79.8246V10.5687C80.4141 9.72294 81.0033 9.13087 81.7615 8.79309C82.435 8.37061 83.2773 8.20101 84.0347 8.20101Z"
        fill="#7a7a7a"
    />
    <path
        d="M149.611 13.1898L139.928 0.592077C139.675 0.253688 139.169 0 138.749 0H94.1211V28.4937H139.254C139.675 28.4937 140.012 28.3247 140.265 27.9863L149.696 15.4729C150.116 14.7967 150.116 13.8668 149.611 13.1898ZM115.256 23.1668H100.1V4.8197H114.919V9.4696H106.162V11.5838H113.909V16.0649H106.162V18.432H115.256V23.1668ZM129.908 23.1668L126.792 18.263L123.677 23.1668H116.687L123.256 13.9509L116.856 4.90379H123.761L126.876 9.5545L129.908 4.90379H136.559L130.244 13.7819L136.98 23.2515H129.908V23.1668Z"
        fill="#7a7a7a"
    />
</svg>
