<svg width="1351" height="300" viewBox="0 0 1351 300" fill="none" xmlns="http://www.w3.org/2000/svg">
<path d="M393.842 138.4V232.1C393.842 233.3 394.842 234.3 396.042 234.3H422.042C423.242 234.3 424.242 233.3 424.242 232.1V138.2C424.242 134.5 427.242 131.5 430.942 131.5H472.042C473.242 131.5 474.242 130.5 474.242 129.3V103.3C474.242 102.1 473.242 101.1 472.042 101.1H431.142C410.542 100.9 393.842 117.7 393.842 138.4Z" fill="#7A7A7A"/>
<path d="M545.942 98.7C507.942 98.7 476.642 130.4 476.942 168.3C477.342 206 507.742 236.6 545.042 236.6C559.442 236.6 573.142 231.2 584.342 221.5V232.1C584.342 233.3 585.342 234.3 586.542 234.3H612.542C613.742 234.3 614.742 233.3 614.742 232.1V167.6C614.842 129.6 583.942 98.7 545.942 98.7ZM584.342 167.7C584.342 189.1 567.142 206.6 545.942 206.6C524.742 206.6 507.542 189.2 507.542 167.7C507.542 146.3 524.742 128.8 545.942 128.8C567.142 128.8 584.342 146.2 584.342 167.7Z" fill="#7A7A7A"/>
<path d="M703.943 98.6999C689.943 98.6999 676.543 103.5 665.543 112.4V58.5999C665.543 57.3999 664.543 56.3999 663.343 56.3999H637.343C636.143 56.3999 635.143 57.3999 635.143 58.5999V167.4C635.143 205.4 665.743 236.6 703.743 236.8C741.943 237 773.043 206 773.043 167.8C772.943 129.6 742.043 98.6999 703.943 98.6999ZM742.443 167.7C742.443 189.1 725.243 206.6 704.043 206.6C682.843 206.6 665.643 189.2 665.643 167.7C665.643 146.3 682.843 128.8 704.043 128.8C725.143 128.8 742.443 146.2 742.443 167.7Z" fill="#7A7A7A"/>
<path d="M859.142 98.6999C845.142 98.6999 831.742 103.5 820.742 112.4V58.5999C820.742 57.3999 819.742 56.3999 818.542 56.3999H792.542C791.342 56.3999 790.342 57.3999 790.342 58.5999V167.4C790.342 205.4 820.942 236.6 858.942 236.8C897.142 237 928.242 206 928.242 167.8C928.142 129.6 897.142 98.6999 859.142 98.6999ZM897.542 167.7C897.542 189.1 880.342 206.6 859.142 206.6C837.942 206.6 820.742 189.2 820.742 167.7C820.742 146.3 837.942 128.8 859.142 128.8C880.342 128.8 897.542 146.2 897.542 167.7Z" fill="#7A7A7A"/>
<path d="M1035.54 56.2998H1009.54C1008.34 56.2998 1007.34 57.2998 1007.34 58.4998V167.6C1007.34 205.7 1038.24 236.6 1076.34 236.6H1084.84C1086.04 236.6 1087.04 235.6 1087.04 234.4V208.4C1087.04 207.2 1086.04 206.2 1084.84 206.2H1076.34C1055.14 206.2 1037.94 189 1037.94 167.8V130.6H1084.94C1086.14 130.6 1087.14 129.6 1087.14 128.4V102.8C1087.14 101.6 1086.14 100.6 1084.94 100.6H1037.94V58.6998C1037.84 57.2998 1036.84 56.2998 1035.54 56.2998Z" fill="#7A7A7A"/>
<path d="M1281.04 98.7C1243.04 98.7 1212.04 129.6 1212.04 167.7C1212.04 205.7 1242.94 236.7 1281.04 236.7C1319.04 236.7 1350.04 205.8 1350.04 167.7C1350.04 129.6 1319.14 98.7 1281.04 98.7ZM1319.54 167.7C1319.54 189.1 1302.34 206.6 1281.14 206.6C1259.94 206.6 1242.74 189.2 1242.74 167.7C1242.74 146.3 1259.94 128.8 1281.14 128.8C1302.24 128.8 1319.54 146.2 1319.54 167.7Z" fill="#7A7A7A"/>
<path d="M1162.64 234.4H1188.64C1189.84 234.4 1190.84 233.4 1190.84 232.2V103.2C1190.84 102 1189.84 101 1188.64 101H1162.64C1161.44 101 1160.44 102 1160.44 103.2V232.2C1160.34 233.4 1161.34 234.4 1162.64 234.4Z" fill="#7A7A7A"/>
<path d="M1175.64 46.8999C1164.74 46.8999 1155.84 55.7999 1155.84 66.6999C1155.84 77.5999 1164.74 86.4999 1175.64 86.4999C1186.54 86.4999 1195.44 77.5999 1195.44 66.6999C1195.44 55.6999 1186.54 46.8999 1175.64 46.8999Z" fill="#7A7A7A"/>
<path d="M1123.94 197C1113.04 197 1104.14 205.9 1104.14 216.8C1104.14 227.7 1113.04 236.6 1123.94 236.6C1134.84 236.6 1143.74 227.7 1143.74 216.8C1143.84 205.9 1134.94 197 1123.94 197Z" fill="#7A7A7A"/>
<path d="M951.542 234.4H977.542C978.742 234.4 979.742 233.4 979.742 232.2V103.2C979.742 102 978.742 101 977.542 101H951.542C950.342 101 949.342 102 949.342 103.2V232.2C949.342 233.4 950.342 234.4 951.542 234.4Z" fill="#7A7A7A"/>
<path d="M964.542 86.4999C975.477 86.4999 984.342 77.6351 984.342 66.6999C984.342 55.7647 975.477 46.8999 964.542 46.8999C953.607 46.8999 944.742 55.7647 944.742 66.6999C944.742 77.6351 953.607 86.4999 964.542 86.4999Z" fill="#7A7A7A"/>
<path d="M196.942 0C160.542 0 96.7418 43.3 55.6418 100.5C19.8418 150.1 6.44182 194.5 0.641823 239.2C-4.45818 270.9 21.5418 300 53.5418 300H180.242C189.242 300 196.742 292.7 196.842 283.7C196.942 274.6 189.542 267.2 180.442 267.2H53.4418C40.8418 267.2 31.2418 256.1 32.9418 243.7C39.8418 194.8 53.5418 159.3 82.3418 119.3C126.842 59.4 171.042 39.4 187.242 34.2C203.242 28.9 214.242 36.3 214.242 53.1C222.642 50.5 234.942 47.7 246.742 47.4C243.942 20.9 225.342 0 196.942 0Z" fill="#7A7A7A"/>
<path d="M241.143 221.7C263.843 199.5 300.043 143.5 300.043 95.2999C300.043 78.2999 292.343 46.8999 250.143 46.8999C171.543 46.8999 72.4426 140.6 120.343 186.3C126.243 191.7 135.943 197.4 150.943 197.4C194.643 197.4 234.143 146.3 245.243 79.4999C247.343 79.2999 249.443 79.2999 251.543 79.2999C261.943 79.2999 267.243 83.0999 267.243 95.0999C267.243 127.4 241.943 179.3 206.743 209.7C195.543 219.8 202.743 231.9 208.243 235.8C227.243 251.3 239.843 268 244.543 286.7C246.643 294.4 252.843 299.9 260.643 299.9C272.043 299.9 276.543 289.6 276.543 282.5C276.543 266.3 258.343 237.9 241.143 221.7ZM151.043 165.3C120.443 165.3 158.543 110.8 210.143 88.5999C196.543 141.4 168.543 165.3 151.043 165.3Z" fill="#7A7A7A"/>
<path d="M151.041 165.3V197.4C194.741 197.4 234.241 146.3 245.341 79.5C233.341 80.4 221.441 83.7 210.141 88.6C196.541 141.4 168.541 165.3 151.041 165.3Z" fill="#7A7A7A"/>
</svg>
