<svg width="406" height="100" viewBox="0 0 406 100" fill="none" xmlns="http://www.w3.org/2000/svg">
<path d="M405.389 34.0483H391.314L392.62 69.4371H404.082L405.389 34.0483ZM398.351 86.3272C402.046 86.3272 405.338 83.2105 405.389 79.2896C405.338 75.4692 402.046 72.3526 398.351 72.3526C394.455 72.3526 391.263 75.4692 391.314 79.2896C391.263 83.2105 394.455 86.3272 398.351 86.3272Z" fill="#7A7A7A"/>
<path d="M150.503 50.1338H163.874C163.824 40.0299 156.032 33.3442 143.566 33.3442C131.326 33.3442 122.679 39.9294 122.755 49.7316C122.73 57.7746 128.31 62.2484 137.433 64.2089L142.561 65.3148C148.291 66.5715 150.252 68.0041 150.302 70.3416C150.252 72.8801 147.939 74.6647 143.465 74.6647C138.112 74.6647 134.945 72.1513 134.719 67.426H122.922C122.973 80.345 130.245 86.1258 143.666 86.1258C156.711 86.1258 164.528 80.4958 164.578 70.3416C164.528 62.4998 159.853 56.9954 148.492 54.5574L144.27 53.6526C139.394 52.6221 137.207 51.1894 137.333 48.7263C137.358 46.4642 139.243 44.8054 143.566 44.8054C148.09 44.8054 150.226 46.791 150.503 50.1338Z" fill="#7A7A7A"/>
<path d="M174.867 85.523H189.847L195.276 64.8125H195.678L201.107 85.523H216.087L225.738 46.917H211.864L207.642 70.2415H207.34L202.213 46.917H188.741L183.815 70.4425H183.513L179.09 46.917H165.216L174.867 85.523Z" fill="#7A7A7A"/>
<path d="M237.179 86.126C242.206 86.126 246.002 84.4169 248.339 80.0938H248.641V85.5228H261.61V59.0817C261.61 51.9436 254.849 46.4141 243.815 46.4141C232.278 46.4141 226.598 52.4463 226.12 59.4839H238.889C239.215 57.0961 240.975 55.9651 243.614 55.9651C246.027 55.9651 247.736 57.071 247.736 59.0817V59.1823C247.736 61.4192 245.273 62.123 238.788 62.6005C230.821 63.1786 224.612 66.3957 224.612 74.8659C224.612 82.557 229.79 86.126 237.179 86.126ZM241.704 77.3793C239.341 77.3793 237.682 76.2232 237.682 74.0616C237.682 72.0761 239.09 70.5429 242.307 70.0402C244.519 69.6883 246.379 69.2359 247.836 68.6327V71.8498C247.836 75.3686 244.845 77.3793 241.704 77.3793Z" fill="#7A7A7A"/>
<path d="M264.7 100H278.574V79.189H278.775C280.384 83.1099 284.104 86.0255 289.533 86.0255C297.777 86.0255 304.714 79.5911 304.714 66.2198C304.714 52.2453 297.274 46.4141 289.633 46.4141C283.903 46.4141 280.283 49.7318 278.775 53.6528H278.474V46.9168H264.7V100ZM278.272 66.2198C278.272 60.4892 280.585 57.071 284.405 57.071C288.226 57.071 290.437 60.4892 290.437 66.2198C290.437 71.9504 288.226 75.3686 284.405 75.3686C280.585 75.3686 278.272 71.8498 278.272 66.2198Z" fill="#7A7A7A"/>
<path d="M332.02 68.6329C332.046 72.4533 329.834 74.7656 326.39 74.7656C322.897 74.7656 320.886 72.4533 320.861 68.6329V46.917H306.987V71.5484C307.012 79.9935 312.34 86.0257 320.459 86.0257C326.215 86.0257 330.638 83.1101 332.322 78.1838H332.724V85.523H345.894V46.917H332.02V68.6329Z" fill="#7A7A7A"/>
<path d="M349.814 85.523H383.695V74.9667H367.71V74.7656L383.092 55.3621V46.917H350.417V57.4733H366.704V57.6744L349.814 77.8822V85.523Z" fill="#7A7A7A"/>
<path fill-rule="evenodd" clip-rule="evenodd" d="M66.3407 0.647007C69.2529 -1.11799 72.9836 0.931406 73.0561 4.33592L73.4952 24.971L94.874 28.6564C98.2298 29.2349 99.7009 33.2292 97.522 35.8462L83.2958 52.9325L94.0994 61.6129C96.754 63.7458 96.1042 67.9525 92.9297 69.185L73.4071 76.7648L75.8002 88.8298C76.4628 92.17 73.261 94.9749 70.037 93.8785L56.1108 89.1429C40.2278 96.8563 21.1986 92.8571 9.7245 79.77C26.7193 84.6765 40.3407 79.5478 46.8062 74.2466C48.3806 72.9557 48.6104 70.633 47.3196 69.0586C46.0287 67.4843 43.706 67.2545 42.1316 68.5453C36.7647 72.9458 22.1061 78.7301 3.13073 69.2956C-4.40143 51.687 1.97699 30.7672 18.8278 20.5544C26.2425 16.0605 34.5567 14.3234 42.5763 15.05L66.3407 0.647007ZM34.7436 45.3925C31.2614 47.503 26.7276 46.391 24.6172 42.9088C22.5067 39.4267 23.6187 34.8929 27.1009 32.7825C30.5831 30.672 35.1168 31.784 37.2273 35.2662C39.3377 38.7483 38.2257 43.2821 34.7436 45.3925Z" fill="#7A7A7A"/>
</svg>
