<svg width="193" height="50" viewBox="0 0 193 50" fill="none" xmlns="http://www.w3.org/2000/svg">
    <path fill-rule="evenodd" clip-rule="evenodd" d="M21.4988 15.7519C21.4988 21.69 16.6861 26.5038 10.7494 26.5038C4.81266 26.5038 0 21.69 0 15.7519C0 9.81379 4.81266 5 10.7494 5C16.6861 5 21.4988 9.81379 21.4988 15.7519ZM17.199 11.3818C17.199 12.148 16.578 12.7691 15.812 12.7691C15.046 12.7691 14.425 12.148 14.425 11.3818C14.425 10.6156 15.046 9.99445 15.812 9.99445C16.578 9.99445 17.199 10.6156 17.199 11.3818ZM10.68 11.3817C12.0589 11.3817 13.1767 10.6364 13.1767 9.71691C13.1767 8.79746 12.0589 8.0521 10.68 8.0521C9.30119 8.0521 8.18341 8.79746 8.18341 9.71691C8.18341 10.6364 9.30119 11.3817 10.68 11.3817Z" fill="#FBFF5C"/>
    <path d="M122.036 21.0978C122.036 19.9696 121.64 19.0792 120.847 18.4266C120.055 17.7646 118.606 17.1399 116.499 16.5526C114.392 15.9559 112.854 15.3079 111.885 14.6086C110.505 13.6203 109.816 12.3243 109.816 10.7207C109.816 9.16368 110.454 7.90035 111.731 6.9307C113.017 5.95173 114.658 5.46225 116.653 5.46225C118.004 5.46225 119.211 5.72331 120.274 6.24542C121.346 6.76754 122.176 7.49477 122.763 8.42712C123.35 9.35947 123.644 10.399 123.644 11.5458H121.91C121.91 10.1566 121.435 9.04248 120.484 8.20336C119.533 7.35492 118.256 6.9307 116.653 6.9307C115.096 6.9307 113.856 7.28033 112.934 7.9796C112.011 8.66954 111.549 9.57392 111.549 10.6927C111.549 11.7276 111.964 12.5714 112.794 13.2241C113.623 13.8767 114.952 14.4548 116.779 14.9582C118.606 15.4524 119.99 15.9698 120.931 16.5106C121.873 17.042 122.581 17.6807 123.056 18.4266C123.532 19.1725 123.77 20.0535 123.77 21.0698C123.77 22.6734 123.126 23.9601 121.84 24.9297C120.563 25.8994 118.876 26.3842 116.779 26.3842C115.343 26.3842 114.024 26.1278 112.822 25.615C111.629 25.1022 110.72 24.3843 110.095 23.4613C109.48 22.5382 109.172 21.48 109.172 20.2866H110.892C110.892 21.7224 111.428 22.8552 112.5 23.685C113.572 24.5148 114.998 24.9297 116.779 24.9297C118.363 24.9297 119.636 24.5801 120.596 23.8808C121.556 23.1816 122.036 22.2539 122.036 21.0978Z" fill="#FBFF5C"/>
    <path d="M129.209 17.8112V26.1045H127.489V5.74195H134.424C136.54 5.74195 138.208 6.28272 139.429 7.36424C140.66 8.44577 141.275 9.93287 141.275 11.8255C141.275 13.7369 140.683 15.2146 139.499 16.2589C138.325 17.2938 136.619 17.8112 134.382 17.8112H129.209ZM129.209 16.3568H134.424C136.092 16.3568 137.365 15.9605 138.241 15.168C139.117 14.3755 139.555 13.2707 139.555 11.8535C139.555 10.4457 139.117 9.32684 138.241 8.49705C137.374 7.65794 136.139 7.22905 134.536 7.21041H129.209V16.3568Z" fill="#FBFF5C"/>
    <path d="M154.194 20.3985H144.952L142.855 26.1045H141.051L148.755 5.74195H150.391L158.095 26.1045H156.306L154.194 20.3985ZM145.484 18.9301H153.649L149.566 7.83974L145.484 18.9301Z" fill="#FBFF5C"/>
    <path d="M175.349 19.7552C175.116 21.8996 174.347 23.5405 173.042 24.678C171.746 25.8155 170.017 26.3842 167.855 26.3842C166.345 26.3842 165.007 26.0066 163.842 25.2514C162.686 24.4962 161.791 23.4286 161.157 22.0488C160.523 20.6596 160.202 19.0746 160.193 17.2938V14.6506C160.193 12.8418 160.509 11.2382 161.143 9.83964C161.777 8.44111 162.686 7.36424 163.87 6.60904C165.063 5.84451 166.433 5.46225 167.981 5.46225C170.162 5.46225 171.881 6.05429 173.14 7.23838C174.408 8.41314 175.144 10.0401 175.349 12.1192H173.615C173.186 8.66021 171.308 6.9307 167.981 6.9307C166.135 6.9307 164.662 7.62064 163.562 9.00052C162.472 10.3804 161.926 12.2871 161.926 14.7205V17.2099C161.926 19.5594 162.458 21.4334 163.52 22.8319C164.592 24.2305 166.037 24.9297 167.855 24.9297C169.654 24.9297 171.01 24.5008 171.923 23.6431C172.837 22.776 173.401 21.48 173.615 19.7552H175.349Z" fill="#FBFF5C"/>
    <path d="M190.771 16.3428H181.249V24.65H192.197V26.1045H179.53V5.74195H192.127V7.21041H181.249V14.8883H190.771V16.3428Z" fill="#FBFF5C"/>
    <path d="M122.036 21.0978C122.036 19.9696 121.64 19.0792 120.847 18.4266C120.055 17.7646 118.606 17.1399 116.499 16.5526C114.392 15.9559 112.854 15.3079 111.885 14.6086C110.505 13.6203 109.816 12.3243 109.816 10.7207C109.816 9.16368 110.454 7.90035 111.731 6.9307C113.017 5.95173 114.658 5.46225 116.653 5.46225C118.004 5.46225 119.211 5.72331 120.274 6.24542C121.346 6.76754 122.176 7.49477 122.763 8.42712C123.35 9.35947 123.644 10.399 123.644 11.5458H121.91C121.91 10.1566 121.435 9.04248 120.484 8.20336C119.533 7.35492 118.256 6.9307 116.653 6.9307C115.096 6.9307 113.856 7.28033 112.934 7.9796C112.011 8.66954 111.549 9.57392 111.549 10.6927C111.549 11.7276 111.964 12.5714 112.794 13.2241C113.623 13.8767 114.952 14.4548 116.779 14.9582C118.606 15.4524 119.99 15.9698 120.931 16.5106C121.873 17.042 122.581 17.6807 123.056 18.4266C123.532 19.1725 123.77 20.0535 123.77 21.0698C123.77 22.6734 123.126 23.9601 121.84 24.9297C120.563 25.8994 118.876 26.3842 116.779 26.3842C115.343 26.3842 114.024 26.1278 112.822 25.615C111.629 25.1022 110.72 24.3843 110.095 23.4613C109.48 22.5382 109.172 21.48 109.172 20.2866H110.892C110.892 21.7224 111.428 22.8552 112.5 23.685C113.572 24.5148 114.998 24.9297 116.779 24.9297C118.363 24.9297 119.636 24.5801 120.596 23.8808C121.556 23.1816 122.036 22.2539 122.036 21.0978Z" fill="#FBFF5C"/>
    <path d="M40.5069 20.7621C40.5069 19.9696 40.2273 19.3636 39.668 18.944C39.1087 18.5152 38.102 18.0676 36.6479 17.6015C35.1938 17.126 34.0426 16.6598 33.1944 16.2029C30.8827 14.9536 29.7268 13.2707 29.7268 11.1542C29.7268 10.0541 30.0344 9.07511 30.6497 8.21735C31.2742 7.35026 32.1644 6.67431 33.3202 6.18948C34.4854 5.70466 35.7904 5.46225 37.2352 5.46225C38.6893 5.46225 39.985 5.72797 41.1221 6.25941C42.2593 6.78153 43.1402 7.52274 43.7647 8.48307C44.3986 9.44339 44.7155 10.5342 44.7155 11.7556H40.5209C40.5209 10.8233 40.2273 10.1007 39.6401 9.5879C39.0528 9.06578 38.2279 8.80473 37.1653 8.80473C36.1399 8.80473 35.3429 9.02383 34.7743 9.46203C34.2057 9.89091 33.9214 10.4596 33.9214 11.1682C33.9214 11.8302 34.2523 12.385 34.9142 12.8325C35.5853 13.28 36.5687 13.6996 37.8644 14.0912C40.2506 14.8091 41.989 15.6995 43.0796 16.7623C44.1702 17.8252 44.7155 19.1492 44.7155 20.7342C44.7155 22.4963 44.049 23.8808 42.7161 24.8878C41.3831 25.8854 39.5888 26.3842 37.333 26.3842C35.7671 26.3842 34.3409 26.0998 33.0546 25.5311C31.7682 24.953 30.7848 24.1652 30.1044 23.1676C29.4332 22.17 29.0977 21.0139 29.0977 19.6992H33.3062C33.3062 21.9462 34.6485 23.0697 37.333 23.0697C38.3304 23.0697 39.1087 22.8692 39.668 22.4683C40.2273 22.0581 40.5069 21.4894 40.5069 20.7621Z" fill="white"/>
    <path d="M63.4234 20.2307L66.1639 5.74195H70.3445L65.8283 26.1045H61.6057L58.292 12.4828L54.9783 26.1045H50.7557L46.2395 5.74195H50.4202L53.1746 20.2027L56.5303 5.74195H60.0817L63.4234 20.2307Z" fill="white"/>
    <path d="M83.5015 21.9089H76.147L74.7488 26.1045H70.2885L77.8668 5.74195H81.7538L89.3739 26.1045H84.9137L83.5015 21.9089ZM77.2795 18.5105H82.369L79.8103 10.8885L77.2795 18.5105Z" fill="white"/>
    <path d="M95.4701 18.9301V26.1045H91.2755V5.74195H99.2172C100.746 5.74195 102.088 6.02166 103.244 6.58107C104.409 7.14048 105.304 7.93764 105.929 8.97255C106.553 9.99813 106.865 11.1682 106.865 12.4828C106.865 14.4781 106.18 16.0538 104.81 17.2099C103.449 18.3567 101.562 18.9301 99.1473 18.9301H95.4701ZM95.4701 15.5316H99.2172C100.326 15.5316 101.17 15.2706 101.748 14.7485C102.335 14.2263 102.629 13.4805 102.629 12.5108C102.629 11.5132 102.335 10.7067 101.748 10.0914C101.161 9.47602 100.35 9.15902 99.3151 9.14037H95.4701V15.5316Z" fill="white"/>
    <path d="M40.5069 20.7621C40.5069 19.9696 40.2273 19.3636 39.668 18.944C39.1087 18.5152 38.102 18.0676 36.6479 17.6015C35.1938 17.126 34.0426 16.6598 33.1944 16.2029C30.8827 14.9536 29.7268 13.2707 29.7268 11.1542C29.7268 10.0541 30.0344 9.07511 30.6497 8.21735C31.2742 7.35026 32.1644 6.67431 33.3202 6.18948C34.4854 5.70466 35.7904 5.46225 37.2352 5.46225C38.6893 5.46225 39.985 5.72797 41.1221 6.25941C42.2593 6.78153 43.1402 7.52274 43.7647 8.48307C44.3986 9.44339 44.7155 10.5342 44.7155 11.7556H40.5209C40.5209 10.8233 40.2273 10.1007 39.6401 9.5879C39.0528 9.06578 38.2279 8.80473 37.1653 8.80473C36.1399 8.80473 35.3429 9.02383 34.7743 9.46203C34.2057 9.89091 33.9214 10.4596 33.9214 11.1682C33.9214 11.8302 34.2523 12.385 34.9142 12.8325C35.5853 13.28 36.5687 13.6996 37.8644 14.0912C40.2506 14.8091 41.989 15.6995 43.0796 16.7623C44.1702 17.8252 44.7155 19.1492 44.7155 20.7342C44.7155 22.4963 44.049 23.8808 42.7161 24.8878C41.3831 25.8854 39.5888 26.3842 37.333 26.3842C35.7671 26.3842 34.3409 26.0998 33.0546 25.5311C31.7682 24.953 30.7848 24.1652 30.1044 23.1676C29.4332 22.17 29.0977 21.0139 29.0977 19.6992H33.3062C33.3062 21.9462 34.6485 23.0697 37.333 23.0697C38.3304 23.0697 39.1087 22.8692 39.668 22.4683C40.2273 22.0581 40.5069 21.4894 40.5069 20.7621Z" fill="white"/>
    <path d="M63.4234 20.2307L66.1639 5.74195H70.3445L65.8283 26.1045H61.6057L58.292 12.4828L54.9783 26.1045H50.7557L46.2395 5.74195H50.4202L53.1746 20.2027L56.5303 5.74195H60.0817L63.4234 20.2307Z" fill="white"/>
    <path d="M83.5015 21.9089H76.147L74.7488 26.1045H70.2885L77.8668 5.74195H81.7538L89.3739 26.1045H84.9137L83.5015 21.9089ZM77.2795 18.5105H82.369L79.8103 10.8885L77.2795 18.5105Z" fill="white"/>
    <path d="M95.4701 18.9301V26.1045H91.2755V5.74195H99.2172C100.746 5.74195 102.088 6.02166 103.244 6.58107C104.409 7.14048 105.304 7.93764 105.929 8.97255C106.553 9.99813 106.865 11.1682 106.865 12.4828C106.865 14.4781 106.18 16.0538 104.81 17.2099C103.449 18.3567 101.562 18.9301 99.1473 18.9301H95.4701ZM95.4701 15.5316H99.2172C100.326 15.5316 101.17 15.2706 101.748 14.7485C102.335 14.2263 102.629 13.4805 102.629 12.5108C102.629 11.5132 102.335 10.7067 101.748 10.0914C101.161 9.47602 100.35 9.15902 99.3151 9.14037H95.4701V15.5316Z" fill="white"/>
    <path d="M35.5505 40.106H36.7506C36.6881 40.6811 36.5235 41.1957 36.2568 41.6499C35.9902 42.1041 35.613 42.4645 35.1255 42.7312C34.638 42.9937 34.0296 43.125 33.3004 43.125C32.767 43.125 32.2815 43.025 31.844 42.825C31.4106 42.625 31.0377 42.3416 30.7251 41.9749C30.4126 41.6041 30.1709 41.1603 30.0001 40.6436C29.8334 40.1227 29.7501 39.5435 29.7501 38.9059V37.9996C29.7501 37.362 29.8334 36.7849 30.0001 36.2682C30.1709 35.7473 30.4147 35.3015 30.7314 34.9306C31.0523 34.5597 31.4377 34.2743 31.8877 34.0743C32.3378 33.8743 32.8441 33.7742 33.4066 33.7742C34.0942 33.7742 34.6755 33.9034 35.1505 34.1618C35.6255 34.4201 35.9943 34.7785 36.2568 35.2369C36.5235 35.6911 36.6881 36.2182 36.7506 36.8182H35.5505C35.4922 36.3932 35.3839 36.0286 35.2255 35.7244C35.0672 35.416 34.8421 35.1785 34.5505 35.0118C34.2588 34.8452 33.8775 34.7618 33.4066 34.7618C33.0024 34.7618 32.6461 34.8389 32.3378 34.9931C32.0336 35.1473 31.7773 35.366 31.569 35.6494C31.3648 35.9328 31.2106 36.2724 31.1064 36.6682C31.0022 37.0641 30.9502 37.5037 30.9502 37.9871V38.9059C30.9502 39.3518 30.996 39.7706 31.0877 40.1623C31.1835 40.554 31.3273 40.8977 31.519 41.1936C31.7106 41.4895 31.9544 41.7228 32.2503 41.8937C32.5461 42.0603 32.8962 42.1437 33.3004 42.1437C33.8129 42.1437 34.2213 42.0624 34.5255 41.8999C34.8296 41.7374 35.0588 41.504 35.213 41.1999C35.3714 40.8957 35.4839 40.531 35.5505 40.106ZM39.3758 37.2995V43H38.2195V36.2369H39.3446L39.3758 37.2995ZM41.4885 36.1994L41.4823 37.2745C41.3864 37.2537 41.2948 37.2412 41.2072 37.237C41.1239 37.2287 41.0281 37.2245 40.9197 37.2245C40.653 37.2245 40.4176 37.2662 40.2134 37.3495C40.0092 37.4329 39.8363 37.5496 39.6946 37.6996C39.5529 37.8496 39.4404 38.0288 39.3571 38.2371C39.2779 38.4413 39.2258 38.6663 39.2008 38.9122L38.8758 39.0997C38.8758 38.6913 38.9154 38.3079 38.9946 37.9496C39.0779 37.5912 39.205 37.2745 39.3758 36.9995C39.5467 36.7203 39.7634 36.5036 40.0259 36.3495C40.2926 36.1911 40.6093 36.1119 40.976 36.1119C41.0593 36.1119 41.1552 36.1224 41.2635 36.1432C41.3718 36.1599 41.4469 36.1786 41.4885 36.1994ZM44.57 42.2999L46.4514 36.2369H47.689L44.9763 44.0438C44.9138 44.2105 44.8305 44.3897 44.7263 44.5814C44.6263 44.7772 44.4971 44.9627 44.3388 45.1377C44.1804 45.3127 43.9887 45.4544 43.7637 45.5627C43.5429 45.6752 43.2783 45.7315 42.9699 45.7315C42.8782 45.7315 42.7615 45.719 42.6199 45.694C42.4782 45.669 42.3782 45.6481 42.3198 45.6315L42.3136 44.6939C42.3469 44.6981 42.399 44.7022 42.4699 44.7064C42.5449 44.7147 42.5969 44.7189 42.6261 44.7189C42.8886 44.7189 43.1116 44.6835 43.2949 44.6126C43.4783 44.546 43.6324 44.4314 43.7575 44.2689C43.8866 44.1105 43.9971 43.8917 44.0887 43.6126L44.57 42.2999ZM43.1887 36.2369L44.9451 41.4874L45.2451 42.7062L44.4138 43.1313L41.9261 36.2369H43.1887ZM49.8892 37.5371V45.6002H48.7266V36.2369H49.7892L49.8892 37.5371ZM54.4458 39.5622V39.6935C54.4458 40.1852 54.3875 40.6415 54.2708 41.0623C54.1541 41.479 53.9833 41.8416 53.7583 42.1499C53.5374 42.4583 53.2645 42.6979 52.9395 42.8687C52.6144 43.0396 52.2415 43.125 51.8206 43.125C51.3914 43.125 51.0122 43.0542 50.683 42.9125C50.3538 42.7708 50.0746 42.5645 49.8455 42.2937C49.6163 42.0228 49.4329 41.6978 49.2954 41.3186C49.1621 40.9394 49.0704 40.5123 49.0204 40.0373V39.3372C49.0704 38.8372 49.1641 38.3892 49.3017 37.9933C49.4392 37.5975 49.6204 37.2599 49.8455 36.9808C50.0746 36.6974 50.3517 36.4828 50.6768 36.337C51.0018 36.1869 51.3768 36.1119 51.8019 36.1119C52.2269 36.1119 52.604 36.1953 52.9332 36.362C53.2624 36.5245 53.5395 36.7578 53.7645 37.062C53.9895 37.3662 54.1583 37.7308 54.2708 38.1559C54.3875 38.5767 54.4458 39.0455 54.4458 39.5622ZM53.2832 39.6935V39.5622C53.2832 39.2247 53.2478 38.908 53.177 38.6121C53.1061 38.3121 52.9957 38.0496 52.8457 37.8246C52.6999 37.5954 52.5123 37.4162 52.2832 37.287C52.054 37.1537 51.781 37.087 51.4643 37.087C51.1726 37.087 50.9185 37.137 50.7018 37.237C50.4893 37.337 50.308 37.4725 50.158 37.6433C50.008 37.81 49.885 38.0017 49.7892 38.2184C49.6975 38.4309 49.6288 38.6517 49.5829 38.8809V40.4998C49.6663 40.7915 49.7829 41.0665 49.933 41.3249C50.083 41.5791 50.283 41.7853 50.533 41.9437C50.783 42.0978 51.0976 42.1749 51.4768 42.1749C51.7894 42.1749 52.0581 42.1103 52.2832 41.9812C52.5123 41.8478 52.6999 41.6666 52.8457 41.4374C52.9957 41.2082 53.1061 40.9457 53.177 40.6498C53.2478 40.3498 53.2832 40.031 53.2832 39.6935ZM58.7524 36.2369V37.1245H55.0959V36.2369H58.7524ZM56.3335 34.5931H57.4898V41.3249C57.4898 41.554 57.5252 41.727 57.5961 41.8437C57.6669 41.9603 57.7586 42.0374 57.8711 42.0749C57.9836 42.1124 58.1045 42.1312 58.2336 42.1312C58.3295 42.1312 58.4295 42.1228 58.5337 42.1062C58.642 42.0853 58.7233 42.0687 58.7774 42.0562L58.7837 43C58.692 43.0292 58.5712 43.0563 58.4212 43.0813C58.2753 43.1104 58.0982 43.125 57.8899 43.125C57.6065 43.125 57.3461 43.0688 57.1085 42.9562C56.871 42.8437 56.6814 42.6562 56.5397 42.3937C56.4022 42.127 56.3335 41.7686 56.3335 41.3186V34.5931ZM59.6775 39.6935V39.5497C59.6775 39.0622 59.7483 38.6101 59.89 38.1934C60.0317 37.7725 60.2359 37.4079 60.5026 37.0995C60.7693 36.787 61.0922 36.5453 61.4714 36.3745C61.8506 36.1994 62.2756 36.1119 62.7465 36.1119C63.2215 36.1119 63.6487 36.1994 64.0279 36.3745C64.4112 36.5453 64.7363 36.787 65.0029 37.0995C65.2738 37.4079 65.4801 37.7725 65.6217 38.1934C65.7634 38.6101 65.8343 39.0622 65.8343 39.5497V39.6935C65.8343 40.181 65.7634 40.6331 65.6217 41.0498C65.4801 41.4665 65.2738 41.8312 65.0029 42.1437C64.7363 42.452 64.4133 42.6937 64.0341 42.8687C63.6591 43.0396 63.234 43.125 62.759 43.125C62.284 43.125 61.8569 43.0396 61.4777 42.8687C61.0985 42.6937 60.7734 42.452 60.5026 42.1437C60.2359 41.8312 60.0317 41.4665 59.89 41.0498C59.7483 40.6331 59.6775 40.181 59.6775 39.6935ZM60.8339 39.5497V39.6935C60.8339 40.031 60.8734 40.3498 60.9526 40.6498C61.0318 40.9457 61.1505 41.2082 61.3089 41.4374C61.4714 41.6666 61.6735 41.8478 61.9152 41.9812C62.1569 42.1103 62.4381 42.1749 62.759 42.1749C63.0757 42.1749 63.3528 42.1103 63.5903 41.9812C63.832 41.8478 64.032 41.6666 64.1904 41.4374C64.3487 41.2082 64.4675 40.9457 64.5467 40.6498C64.63 40.3498 64.6717 40.031 64.6717 39.6935V39.5497C64.6717 39.2164 64.63 38.9017 64.5467 38.6059C64.4675 38.3059 64.3466 38.0413 64.1841 37.8121C64.0258 37.5787 63.8258 37.3954 63.5841 37.262C63.3466 37.1287 63.0674 37.062 62.7465 37.062C62.4298 37.062 62.1506 37.1287 61.9089 37.262C61.6714 37.3954 61.4714 37.5787 61.3089 37.8121C61.1505 38.0413 61.0318 38.3059 60.9526 38.6059C60.8734 38.9017 60.8339 39.2164 60.8339 39.5497ZM76.4164 42.0187V43H71.5972V42.0187H76.4164ZM71.841 33.8993V43H70.6347V33.8993H71.841ZM75.7788 37.8121V38.7934H71.5972V37.8121H75.7788ZM76.3539 33.8993V34.8868H71.5972V33.8993H76.3539ZM78.5165 36.2369L79.9979 38.6996L81.498 36.2369H82.8544L80.6417 39.5747L82.9232 43H81.5855L80.0229 40.4623L78.4603 43H77.1164L79.3916 39.5747L77.1852 36.2369H78.5165ZM86.6672 42.1749C86.9422 42.1749 87.1964 42.1187 87.4298 42.0062C87.6631 41.8937 87.8548 41.7395 88.0048 41.5436C88.1548 41.3436 88.2403 41.1165 88.2611 40.8623H89.3612C89.3403 41.2624 89.2049 41.6353 88.9549 41.9812C88.709 42.3229 88.3861 42.6 87.9861 42.8125C87.586 43.0208 87.1464 43.125 86.6672 43.125C86.1588 43.125 85.7151 43.0354 85.3359 42.8562C84.9608 42.6771 84.6483 42.4312 84.3983 42.1187C84.1524 41.8062 83.967 41.4478 83.842 41.0436C83.7211 40.6352 83.6607 40.2039 83.6607 39.7497V39.4872C83.6607 39.033 83.7211 38.6038 83.842 38.1996C83.967 37.7912 84.1524 37.4308 84.3983 37.1183C84.6483 36.8057 84.9608 36.5599 85.3359 36.3807C85.7151 36.2015 86.1588 36.1119 86.6672 36.1119C87.1964 36.1119 87.659 36.2203 88.0548 36.437C88.4507 36.6495 88.7611 36.9412 88.9862 37.312C89.2153 37.6787 89.3403 38.0954 89.3612 38.5621H88.2611C88.2403 38.2829 88.1611 38.0308 88.0236 37.8058C87.8902 37.5808 87.7069 37.4016 87.4735 37.2683C87.2443 37.1308 86.9756 37.062 86.6672 37.062C86.313 37.062 86.0151 37.1329 85.7734 37.2745C85.5359 37.412 85.3463 37.5996 85.2046 37.8371C85.0671 38.0704 84.9671 38.3309 84.9046 38.6184C84.8462 38.9017 84.8171 39.1914 84.8171 39.4872V39.7497C84.8171 40.0456 84.8462 40.3373 84.9046 40.6248C84.9629 40.9123 85.0608 41.1728 85.1983 41.4061C85.34 41.6395 85.5296 41.827 85.7671 41.9687C86.0088 42.1062 86.3088 42.1749 86.6672 42.1749ZM91.8176 33.3992V43H90.6613V33.3992H91.8176ZM91.5426 39.3622L91.0613 39.3435C91.0655 38.8809 91.1342 38.4538 91.2676 38.0621C91.4009 37.6662 91.5884 37.3225 91.8301 37.0308C92.0718 36.7391 92.3593 36.5141 92.6927 36.3557C93.0302 36.1932 93.4032 36.1119 93.8115 36.1119C94.1449 36.1119 94.4449 36.1578 94.7116 36.2494C94.9783 36.337 95.2054 36.4786 95.3929 36.6745C95.5846 36.8703 95.7305 37.1245 95.8305 37.437C95.9305 37.7454 95.9805 38.1225 95.9805 38.5684V43H94.8179V38.5559C94.8179 38.2017 94.7658 37.9183 94.6616 37.7058C94.5574 37.4891 94.4053 37.3329 94.2053 37.237C94.0053 37.137 93.7595 37.087 93.4678 37.087C93.1802 37.087 92.9177 37.1474 92.6802 37.2683C92.4469 37.3891 92.2448 37.5558 92.0739 37.7683C91.9072 37.9808 91.776 38.2246 91.6801 38.4996C91.5884 38.7705 91.5426 39.058 91.5426 39.3622ZM101.7 41.8437V38.3621C101.7 38.0954 101.646 37.8642 101.537 37.6683C101.433 37.4683 101.275 37.3141 101.062 37.2058C100.85 37.0974 100.587 37.0433 100.275 37.0433C99.9829 37.0433 99.7266 37.0933 99.5058 37.1933C99.2891 37.2933 99.1182 37.4245 98.9932 37.5871C98.8724 37.7496 98.812 37.9246 98.812 38.1121H97.6556C97.6556 37.8704 97.7181 37.6308 97.8431 37.3933C97.9681 37.1558 98.1473 36.9412 98.3807 36.7495C98.6182 36.5536 98.9015 36.3995 99.2307 36.287C99.5641 36.1703 99.935 36.1119 100.343 36.1119C100.835 36.1119 101.268 36.1953 101.643 36.362C102.023 36.5286 102.318 36.7807 102.531 37.1183C102.748 37.4516 102.856 37.8704 102.856 38.3746V41.5249C102.856 41.7499 102.875 41.9895 102.912 42.2437C102.954 42.4979 103.014 42.7166 103.094 42.9V43H101.887C101.829 42.8667 101.783 42.6896 101.75 42.4687C101.716 42.2437 101.7 42.0353 101.7 41.8437ZM101.9 38.8997L101.912 39.7122H100.743C100.414 39.7122 100.12 39.7393 99.862 39.7935C99.6037 39.8435 99.387 39.9206 99.212 40.0248C99.037 40.1289 98.9036 40.2602 98.812 40.4185C98.7203 40.5727 98.6744 40.754 98.6744 40.9623C98.6744 41.1749 98.7224 41.3686 98.8182 41.5436C98.914 41.7186 99.0578 41.8582 99.2495 41.9624C99.4453 42.0624 99.6849 42.1124 99.9683 42.1124C100.322 42.1124 100.635 42.0374 100.906 41.8874C101.177 41.7374 101.391 41.554 101.55 41.3374C101.712 41.1207 101.8 40.9102 101.812 40.7061L102.306 41.2624C102.277 41.4374 102.198 41.6311 102.068 41.8437C101.939 42.0562 101.766 42.2604 101.55 42.4562C101.337 42.6479 101.083 42.8083 100.787 42.9375C100.495 43.0625 100.166 43.125 99.7995 43.125C99.3412 43.125 98.939 43.0354 98.5932 42.8562C98.2515 42.6771 97.9848 42.4375 97.7931 42.1374C97.6056 41.8332 97.5118 41.4936 97.5118 41.1186C97.5118 40.7561 97.5827 40.4373 97.7244 40.1623C97.866 39.8831 98.0702 39.6518 98.3369 39.4685C98.6036 39.2809 98.9245 39.1393 99.2995 39.0434C99.6745 38.9476 100.093 38.8997 100.556 38.8997H101.9ZM105.831 37.6808V43H104.675V36.2369H105.769L105.831 37.6808ZM105.556 39.3622L105.075 39.3435C105.079 38.8809 105.148 38.4538 105.281 38.0621C105.415 37.6662 105.602 37.3225 105.844 37.0308C106.085 36.7391 106.373 36.5141 106.706 36.3557C107.044 36.1932 107.417 36.1119 107.825 36.1119C108.159 36.1119 108.459 36.1578 108.725 36.2494C108.992 36.337 109.219 36.4786 109.407 36.6745C109.598 36.8703 109.744 37.1245 109.844 37.437C109.944 37.7454 109.994 38.1225 109.994 38.5684V43H108.832V38.5559C108.832 38.2017 108.779 37.9183 108.675 37.7058C108.571 37.4891 108.419 37.3329 108.219 37.237C108.019 37.137 107.773 37.087 107.481 37.087C107.194 37.087 106.931 37.1474 106.694 37.2683C106.46 37.3891 106.258 37.5558 106.088 37.7683C105.921 37.9808 105.79 38.2246 105.694 38.4996C105.602 38.7705 105.556 39.058 105.556 39.3622ZM116.132 36.2369H117.182V42.8562C117.182 43.4521 117.061 43.9605 116.82 44.3814C116.578 44.8022 116.24 45.121 115.807 45.3377C115.378 45.5585 114.882 45.669 114.319 45.669C114.086 45.669 113.811 45.6315 113.494 45.5565C113.182 45.4856 112.874 45.3627 112.569 45.1877C112.269 45.0168 112.017 44.7856 111.813 44.4939L112.419 43.8063C112.703 44.148 112.999 44.3855 113.307 44.5189C113.619 44.6522 113.928 44.7189 114.232 44.7189C114.599 44.7189 114.915 44.6501 115.182 44.5126C115.449 44.3751 115.655 44.1709 115.801 43.9001C115.951 43.6334 116.026 43.3042 116.026 42.9125V37.7246L116.132 36.2369ZM111.475 39.6935V39.5622C111.475 39.0455 111.536 38.5767 111.657 38.1559C111.782 37.7308 111.959 37.3662 112.188 37.062C112.421 36.7578 112.703 36.5245 113.032 36.362C113.361 36.1953 113.732 36.1119 114.144 36.1119C114.569 36.1119 114.94 36.1869 115.257 36.337C115.578 36.4828 115.849 36.6974 116.07 36.9808C116.295 37.2599 116.472 37.5975 116.601 37.9933C116.73 38.3892 116.82 38.8372 116.87 39.3372V39.9122C116.824 40.4081 116.734 40.854 116.601 41.2499C116.472 41.6457 116.295 41.9833 116.07 42.2624C115.849 42.5416 115.578 42.7562 115.257 42.9062C114.936 43.0521 114.561 43.125 114.132 43.125C113.728 43.125 113.361 43.0396 113.032 42.8687C112.707 42.6979 112.428 42.4583 112.194 42.1499C111.961 41.8416 111.782 41.479 111.657 41.0623C111.536 40.6415 111.475 40.1852 111.475 39.6935ZM112.632 39.5622V39.6935C112.632 40.031 112.665 40.3477 112.732 40.6436C112.803 40.9394 112.909 41.1999 113.051 41.4249C113.196 41.6499 113.382 41.827 113.607 41.9562C113.832 42.0812 114.101 42.1437 114.413 42.1437C114.797 42.1437 115.113 42.0624 115.363 41.8999C115.613 41.7374 115.811 41.5228 115.957 41.2561C116.107 40.9894 116.224 40.6998 116.307 40.3873V38.8809C116.261 38.6517 116.19 38.4309 116.095 38.2184C116.003 38.0017 115.882 37.81 115.732 37.6433C115.586 37.4725 115.405 37.337 115.188 37.237C114.972 37.137 114.717 37.087 114.426 37.087C114.109 37.087 113.836 37.1537 113.607 37.287C113.382 37.4162 113.196 37.5954 113.051 37.8246C112.909 38.0496 112.803 38.3121 112.732 38.6121C112.665 38.908 112.632 39.2247 112.632 39.5622ZM121.745 43.125C121.274 43.125 120.847 43.0458 120.464 42.8875C120.085 42.725 119.757 42.4979 119.482 42.2062C119.212 41.9145 119.003 41.5686 118.857 41.1686C118.712 40.7686 118.639 40.331 118.639 39.856V39.5935C118.639 39.0434 118.72 38.5538 118.882 38.1246C119.045 37.6912 119.266 37.3245 119.545 37.0245C119.824 36.7245 120.141 36.4974 120.495 36.3432C120.849 36.189 121.216 36.1119 121.595 36.1119C122.078 36.1119 122.495 36.1953 122.845 36.362C123.199 36.5286 123.489 36.762 123.714 37.062C123.939 37.3579 124.106 37.7079 124.214 38.1121C124.322 38.5121 124.377 38.9497 124.377 39.4247V39.9435H119.326V38.9997H123.22V38.9122C123.204 38.6121 123.141 38.3205 123.033 38.0371C122.929 37.7537 122.762 37.5204 122.533 37.337C122.303 37.1537 121.991 37.062 121.595 37.062C121.333 37.062 121.091 37.1183 120.87 37.2308C120.649 37.3391 120.46 37.5016 120.301 37.7183C120.143 37.935 120.02 38.1996 119.932 38.5121C119.845 38.8247 119.801 39.1851 119.801 39.5935V39.856C119.801 40.1769 119.845 40.479 119.932 40.7623C120.024 41.0415 120.155 41.2874 120.326 41.4999C120.501 41.7124 120.712 41.8791 120.958 41.9999C121.208 42.1208 121.491 42.1812 121.808 42.1812C122.216 42.1812 122.562 42.0978 122.845 41.9312C123.129 41.7645 123.376 41.5415 123.589 41.2624L124.289 41.8187C124.143 42.0395 123.958 42.2499 123.733 42.45C123.508 42.65 123.231 42.8125 122.901 42.9375C122.576 43.0625 122.191 43.125 121.745 43.125ZM132.446 34.7056L129.433 43H128.202L131.671 33.8993H132.465L132.446 34.7056ZM134.971 43L131.952 34.7056L131.933 33.8993H132.727L136.209 43H134.971ZM134.815 39.631V40.6186H129.702V39.631H134.815ZM141.634 36.2369H142.684V42.8562C142.684 43.4521 142.563 43.9605 142.322 44.3814C142.08 44.8022 141.743 45.121 141.309 45.3377C140.88 45.5585 140.384 45.669 139.822 45.669C139.588 45.669 139.313 45.6315 138.996 45.5565C138.684 45.4856 138.376 45.3627 138.071 45.1877C137.771 45.0168 137.519 44.7856 137.315 44.4939L137.921 43.8063C138.205 44.148 138.501 44.3855 138.809 44.5189C139.122 44.6522 139.43 44.7189 139.734 44.7189C140.101 44.7189 140.417 44.6501 140.684 44.5126C140.951 44.3751 141.157 44.1709 141.303 43.9001C141.453 43.6334 141.528 43.3042 141.528 42.9125V37.7246L141.634 36.2369ZM136.978 39.6935V39.5622C136.978 39.0455 137.038 38.5767 137.159 38.1559C137.284 37.7308 137.461 37.3662 137.69 37.062C137.923 36.7578 138.205 36.5245 138.534 36.362C138.863 36.1953 139.234 36.1119 139.647 36.1119C140.072 36.1119 140.442 36.1869 140.759 36.337C141.08 36.4828 141.351 36.6974 141.572 36.9808C141.797 37.2599 141.974 37.5975 142.103 37.9933C142.232 38.3892 142.322 38.8372 142.372 39.3372V39.9122C142.326 40.4081 142.236 40.854 142.103 41.2499C141.974 41.6457 141.797 41.9833 141.572 42.2624C141.351 42.5416 141.08 42.7562 140.759 42.9062C140.438 43.0521 140.063 43.125 139.634 43.125C139.23 43.125 138.863 43.0396 138.534 42.8687C138.209 42.6979 137.93 42.4583 137.696 42.1499C137.463 41.8416 137.284 41.479 137.159 41.0623C137.038 40.6415 136.978 40.1852 136.978 39.6935ZM138.134 39.5622V39.6935C138.134 40.031 138.167 40.3477 138.234 40.6436C138.305 40.9394 138.411 41.1999 138.553 41.4249C138.699 41.6499 138.884 41.827 139.109 41.9562C139.334 42.0812 139.603 42.1437 139.915 42.1437C140.299 42.1437 140.615 42.0624 140.865 41.8999C141.115 41.7374 141.313 41.5228 141.459 41.2561C141.609 40.9894 141.726 40.6998 141.809 40.3873V38.8809C141.763 38.6517 141.693 38.4309 141.597 38.2184C141.505 38.0017 141.384 37.81 141.234 37.6433C141.088 37.4725 140.907 37.337 140.69 37.237C140.474 37.137 140.22 37.087 139.928 37.087C139.611 37.087 139.338 37.1537 139.109 37.287C138.884 37.4162 138.699 37.5954 138.553 37.8246C138.411 38.0496 138.305 38.3121 138.234 38.6121C138.167 38.908 138.134 39.2247 138.134 39.5622ZM148.822 36.2369H149.872V42.8562C149.872 43.4521 149.752 43.9605 149.51 44.3814C149.268 44.8022 148.931 45.121 148.497 45.3377C148.068 45.5585 147.572 45.669 147.01 45.669C146.776 45.669 146.501 45.6315 146.185 45.5565C145.872 45.4856 145.564 45.3627 145.26 45.1877C144.959 45.0168 144.707 44.7856 144.503 44.4939L145.109 43.8063C145.393 44.148 145.689 44.3855 145.997 44.5189C146.31 44.6522 146.618 44.7189 146.922 44.7189C147.289 44.7189 147.606 44.6501 147.872 44.5126C148.139 44.3751 148.345 44.1709 148.491 43.9001C148.641 43.6334 148.716 43.3042 148.716 42.9125V37.7246L148.822 36.2369ZM144.166 39.6935V39.5622C144.166 39.0455 144.226 38.5767 144.347 38.1559C144.472 37.7308 144.649 37.3662 144.878 37.062C145.112 36.7578 145.393 36.5245 145.722 36.362C146.051 36.1953 146.422 36.1119 146.835 36.1119C147.26 36.1119 147.631 36.1869 147.947 36.337C148.268 36.4828 148.539 36.6974 148.76 36.9808C148.985 37.2599 149.162 37.5975 149.291 37.9933C149.42 38.3892 149.51 38.8372 149.56 39.3372V39.9122C149.514 40.4081 149.424 40.854 149.291 41.2499C149.162 41.6457 148.985 41.9833 148.76 42.2624C148.539 42.5416 148.268 42.7562 147.947 42.9062C147.626 43.0521 147.251 43.125 146.822 43.125C146.418 43.125 146.051 43.0396 145.722 42.8687C145.397 42.6979 145.118 42.4583 144.884 42.1499C144.651 41.8416 144.472 41.479 144.347 41.0623C144.226 40.6415 144.166 40.1852 144.166 39.6935ZM145.322 39.5622V39.6935C145.322 40.031 145.355 40.3477 145.422 40.6436C145.493 40.9394 145.599 41.1999 145.741 41.4249C145.887 41.6499 146.072 41.827 146.297 41.9562C146.522 42.0812 146.791 42.1437 147.103 42.1437C147.487 42.1437 147.803 42.0624 148.053 41.8999C148.304 41.7374 148.501 41.5228 148.647 41.2561C148.797 40.9894 148.914 40.6998 148.997 40.3873V38.8809C148.951 38.6517 148.881 38.4309 148.785 38.2184C148.693 38.0017 148.572 37.81 148.422 37.6433C148.276 37.4725 148.095 37.337 147.878 37.237C147.662 37.137 147.408 37.087 147.116 37.087C146.799 37.087 146.526 37.1537 146.297 37.287C146.072 37.4162 145.887 37.5954 145.741 37.8246C145.599 38.0496 145.493 38.3121 145.422 38.6121C145.355 38.908 145.322 39.2247 145.322 39.5622ZM152.785 37.2995V43H151.629V36.2369H152.754L152.785 37.2995ZM154.898 36.1994L154.892 37.2745C154.796 37.2537 154.704 37.2412 154.617 37.237C154.533 37.2287 154.437 37.2245 154.329 37.2245C154.062 37.2245 153.827 37.2662 153.623 37.3495C153.419 37.4329 153.246 37.5496 153.104 37.6996C152.962 37.8496 152.85 38.0288 152.766 38.2371C152.687 38.4413 152.635 38.6663 152.61 38.9122L152.285 39.0997C152.285 38.6913 152.325 38.3079 152.404 37.9496C152.487 37.5912 152.614 37.2745 152.785 36.9995C152.956 36.7203 153.173 36.5036 153.435 36.3495C153.702 36.1911 154.019 36.1119 154.385 36.1119C154.469 36.1119 154.564 36.1224 154.673 36.1432C154.781 36.1599 154.856 36.1786 154.898 36.1994ZM158.648 43.125C158.177 43.125 157.75 43.0458 157.367 42.8875C156.988 42.725 156.66 42.4979 156.385 42.2062C156.115 41.9145 155.906 41.5686 155.76 41.1686C155.615 40.7686 155.542 40.331 155.542 39.856V39.5935C155.542 39.0434 155.623 38.5538 155.785 38.1246C155.948 37.6912 156.169 37.3245 156.448 37.0245C156.727 36.7245 157.044 36.4974 157.398 36.3432C157.752 36.189 158.119 36.1119 158.498 36.1119C158.981 36.1119 159.398 36.1953 159.748 36.362C160.102 36.5286 160.392 36.762 160.617 37.062C160.842 37.3579 161.009 37.7079 161.117 38.1121C161.225 38.5121 161.28 38.9497 161.28 39.4247V39.9435H156.229V38.9997H160.123V38.9122C160.107 38.6121 160.044 38.3205 159.936 38.0371C159.832 37.7537 159.665 37.5204 159.436 37.337C159.206 37.1537 158.894 37.062 158.498 37.062C158.236 37.062 157.994 37.1183 157.773 37.2308C157.552 37.3391 157.363 37.5016 157.204 37.7183C157.046 37.935 156.923 38.1996 156.835 38.5121C156.748 38.8247 156.704 39.1851 156.704 39.5935V39.856C156.704 40.1769 156.748 40.479 156.835 40.7623C156.927 41.0415 157.058 41.2874 157.229 41.4999C157.404 41.7124 157.615 41.8791 157.861 41.9999C158.111 42.1208 158.394 42.1812 158.711 42.1812C159.119 42.1812 159.465 42.0978 159.748 41.9312C160.032 41.7645 160.279 41.5415 160.492 41.2624L161.192 41.8187C161.046 42.0395 160.861 42.2499 160.636 42.45C160.411 42.65 160.134 42.8125 159.804 42.9375C159.479 43.0625 159.094 43.125 158.648 43.125ZM167.011 36.2369H168.061V42.8562C168.061 43.4521 167.941 43.9605 167.699 44.3814C167.457 44.8022 167.12 45.121 166.686 45.3377C166.257 45.5585 165.761 45.669 165.199 45.669C164.965 45.669 164.69 45.6315 164.374 45.5565C164.061 45.4856 163.753 45.3627 163.448 45.1877C163.148 45.0168 162.896 44.7856 162.692 44.4939L163.298 43.8063C163.582 44.148 163.878 44.3855 164.186 44.5189C164.499 44.6522 164.807 44.7189 165.111 44.7189C165.478 44.7189 165.795 44.6501 166.061 44.5126C166.328 44.3751 166.534 44.1709 166.68 43.9001C166.83 43.6334 166.905 43.3042 166.905 42.9125V37.7246L167.011 36.2369ZM162.355 39.6935V39.5622C162.355 39.0455 162.415 38.5767 162.536 38.1559C162.661 37.7308 162.838 37.3662 163.067 37.062C163.301 36.7578 163.582 36.5245 163.911 36.362C164.24 36.1953 164.611 36.1119 165.024 36.1119C165.449 36.1119 165.82 36.1869 166.136 36.337C166.457 36.4828 166.728 36.6974 166.949 36.9808C167.174 37.2599 167.351 37.5975 167.48 37.9933C167.609 38.3892 167.699 38.8372 167.749 39.3372V39.9122C167.703 40.4081 167.613 40.854 167.48 41.2499C167.351 41.6457 167.174 41.9833 166.949 42.2624C166.728 42.5416 166.457 42.7562 166.136 42.9062C165.815 43.0521 165.44 43.125 165.011 43.125C164.607 43.125 164.24 43.0396 163.911 42.8687C163.586 42.6979 163.307 42.4583 163.073 42.1499C162.84 41.8416 162.661 41.479 162.536 41.0623C162.415 40.6415 162.355 40.1852 162.355 39.6935ZM163.511 39.5622V39.6935C163.511 40.031 163.544 40.3477 163.611 40.6436C163.682 40.9394 163.788 41.1999 163.93 41.4249C164.076 41.6499 164.261 41.827 164.486 41.9562C164.711 42.0812 164.98 42.1437 165.292 42.1437C165.676 42.1437 165.992 42.0624 166.242 41.8999C166.492 41.7374 166.69 41.5228 166.836 41.2561C166.986 40.9894 167.103 40.6998 167.186 40.3873V38.8809C167.14 38.6517 167.07 38.4309 166.974 38.2184C166.882 38.0017 166.761 37.81 166.611 37.6433C166.465 37.4725 166.284 37.337 166.067 37.237C165.851 37.137 165.597 37.087 165.305 37.087C164.988 37.087 164.715 37.1537 164.486 37.287C164.261 37.4162 164.076 37.5954 163.93 37.8246C163.788 38.0496 163.682 38.3121 163.611 38.6121C163.544 38.908 163.511 39.2247 163.511 39.5622ZM173.806 41.8437V38.3621C173.806 38.0954 173.751 37.8642 173.643 37.6683C173.539 37.4683 173.381 37.3141 173.168 37.2058C172.956 37.0974 172.693 37.0433 172.38 37.0433C172.089 37.0433 171.833 37.0933 171.612 37.1933C171.395 37.2933 171.224 37.4245 171.099 37.5871C170.978 37.7496 170.918 37.9246 170.918 38.1121H169.761C169.761 37.8704 169.824 37.6308 169.949 37.3933C170.074 37.1558 170.253 36.9412 170.487 36.7495C170.724 36.5536 171.007 36.3995 171.337 36.287C171.67 36.1703 172.041 36.1119 172.449 36.1119C172.941 36.1119 173.374 36.1953 173.749 36.362C174.129 36.5286 174.424 36.7807 174.637 37.1183C174.854 37.4516 174.962 37.8704 174.962 38.3746V41.5249C174.962 41.7499 174.981 41.9895 175.018 42.2437C175.06 42.4979 175.12 42.7166 175.199 42.9V43H173.993C173.935 42.8667 173.889 42.6896 173.856 42.4687C173.822 42.2437 173.806 42.0353 173.806 41.8437ZM174.006 38.8997L174.018 39.7122H172.849C172.52 39.7122 172.226 39.7393 171.968 39.7935C171.71 39.8435 171.493 39.9206 171.318 40.0248C171.143 40.1289 171.01 40.2602 170.918 40.4185C170.826 40.5727 170.78 40.754 170.78 40.9623C170.78 41.1749 170.828 41.3686 170.924 41.5436C171.02 41.7186 171.164 41.8582 171.355 41.9624C171.551 42.0624 171.791 42.1124 172.074 42.1124C172.428 42.1124 172.741 42.0374 173.012 41.8874C173.283 41.7374 173.497 41.554 173.656 41.3374C173.818 41.1207 173.906 40.9102 173.918 40.7061L174.412 41.2624C174.383 41.4374 174.304 41.6311 174.174 41.8437C174.045 42.0562 173.872 42.2604 173.656 42.4562C173.443 42.6479 173.189 42.8083 172.893 42.9375C172.601 43.0625 172.272 43.125 171.905 43.125C171.447 43.125 171.045 43.0354 170.699 42.8562C170.357 42.6771 170.091 42.4375 169.899 42.1374C169.711 41.8332 169.618 41.4936 169.618 41.1186C169.618 40.7561 169.689 40.4373 169.83 40.1623C169.972 39.8831 170.176 39.6518 170.443 39.4685C170.709 39.2809 171.03 39.1393 171.405 39.0434C171.78 38.9476 172.199 38.8997 172.662 38.8997H174.006ZM179.612 36.2369V37.1245H175.956V36.2369H179.612ZM177.193 34.5931H178.35V41.3249C178.35 41.554 178.385 41.727 178.456 41.8437C178.527 41.9603 178.618 42.0374 178.731 42.0749C178.843 42.1124 178.964 42.1312 179.094 42.1312C179.189 42.1312 179.289 42.1228 179.394 42.1062C179.502 42.0853 179.583 42.0687 179.637 42.0562L179.644 43C179.552 43.0292 179.431 43.0563 179.281 43.0813C179.135 43.1104 178.958 43.125 178.75 43.125C178.466 43.125 178.206 43.0688 177.968 42.9562C177.731 42.8437 177.541 42.6562 177.4 42.3937C177.262 42.127 177.193 41.7686 177.193 41.3186V34.5931ZM180.537 39.6935V39.5497C180.537 39.0622 180.608 38.6101 180.75 38.1934C180.892 37.7725 181.096 37.4079 181.362 37.0995C181.629 36.787 181.952 36.5453 182.331 36.3745C182.71 36.1994 183.136 36.1119 183.606 36.1119C184.081 36.1119 184.509 36.1994 184.888 36.3745C185.271 36.5453 185.596 36.787 185.863 37.0995C186.134 37.4079 186.34 37.7725 186.482 38.1934C186.623 38.6101 186.694 39.0622 186.694 39.5497V39.6935C186.694 40.181 186.623 40.6331 186.482 41.0498C186.34 41.4665 186.134 41.8312 185.863 42.1437C185.596 42.452 185.273 42.6937 184.894 42.8687C184.519 43.0396 184.094 43.125 183.619 43.125C183.144 43.125 182.717 43.0396 182.338 42.8687C181.958 42.6937 181.633 42.452 181.362 42.1437C181.096 41.8312 180.892 41.4665 180.75 41.0498C180.608 40.6331 180.537 40.181 180.537 39.6935ZM181.694 39.5497V39.6935C181.694 40.031 181.733 40.3498 181.812 40.6498C181.892 40.9457 182.01 41.2082 182.169 41.4374C182.331 41.6666 182.533 41.8478 182.775 41.9812C183.017 42.1103 183.298 42.1749 183.619 42.1749C183.936 42.1749 184.213 42.1103 184.45 41.9812C184.692 41.8478 184.892 41.6666 185.05 41.4374C185.209 41.2082 185.327 40.9457 185.407 40.6498C185.49 40.3498 185.532 40.031 185.532 39.6935V39.5497C185.532 39.2164 185.49 38.9017 185.407 38.6059C185.327 38.3059 185.207 38.0413 185.044 37.8121C184.886 37.5787 184.686 37.3954 184.444 37.262C184.206 37.1287 183.927 37.062 183.606 37.062C183.29 37.062 183.011 37.1287 182.769 37.262C182.531 37.3954 182.331 37.5787 182.169 37.8121C182.01 38.0413 181.892 38.3059 181.812 38.6059C181.733 38.9017 181.694 39.2164 181.694 39.5497ZM189.301 37.2995V43H188.144V36.2369H189.269L189.301 37.2995ZM191.413 36.1994L191.407 37.2745C191.311 37.2537 191.22 37.2412 191.132 37.237C191.049 37.2287 190.953 37.2245 190.844 37.2245C190.578 37.2245 190.342 37.2662 190.138 37.3495C189.934 37.4329 189.761 37.5496 189.619 37.6996C189.478 37.8496 189.365 38.0288 189.282 38.2371C189.203 38.4413 189.151 38.6663 189.126 38.9122L188.801 39.0997C188.801 38.6913 188.84 38.3079 188.919 37.9496C189.003 37.5912 189.13 37.2745 189.301 36.9995C189.471 36.7203 189.688 36.5036 189.951 36.3495C190.217 36.1911 190.534 36.1119 190.901 36.1119C190.984 36.1119 191.08 36.1224 191.188 36.1432C191.297 36.1599 191.372 36.1786 191.413 36.1994Z" fill="#A0789C"/>
</svg>
