<svg fill="none" height="159" viewBox="0 0 131 159" width="131" xmlns="http://www.w3.org/2000/svg" xmlns:xlink="http://www.w3.org/1999/xlink"><filter id="a" color-interpolation-filters="sRGB" filterUnits="userSpaceOnUse" height="84.6199" width="40.8255" x="58.315" y="36.1856"><feFlood flood-opacity="0" result="BackgroundImageFix"/><feBlend in="SourceGraphic" in2="BackgroundImageFix" mode="normal" result="shape"/><feGaussianBlur result="effect1_foregroundBlur_4_83" stdDeviation="1.5"/></filter><filter id="b" color-interpolation-filters="sRGB" filterUnits="userSpaceOnUse" height="95.9337" width="61.9914" x="39.6507" y="30.2944"><feFlood flood-opacity="0" result="BackgroundImageFix"/><feBlend in="SourceGraphic" in2="BackgroundImageFix" mode="normal" result="shape"/><feGaussianBlur result="effect1_foregroundBlur_4_83" stdDeviation=".260435"/></filter><linearGradient id="c" gradientUnits="userSpaceOnUse" x1="81.0216" x2="47.1844" y1="139.56" y2="32.7207"><stop offset="0" stop-color="#302634"/><stop offset=".43" stop-color="#8c404b"/><stop offset=".745" stop-color="#7a5178"/><stop offset="1" stop-color="#332837"/></linearGradient><linearGradient id="d"><stop offset="0" stop-color="#302634"/><stop offset="1" stop-color="#302634" stop-opacity="0"/></linearGradient><linearGradient id="e" gradientUnits="userSpaceOnUse" x1="2.37665" x2="-.158737" xlink:href="#d" y1="25.8614" y2="25.8599"/><linearGradient id="f" gradientUnits="userSpaceOnUse" x1="2.37664" x2="-.158736" xlink:href="#d" y1="21.2432" y2="21.2414"/><linearGradient id="g" gradientUnits="userSpaceOnUse" x1="2.37665" x2="-.158738" xlink:href="#d" y1="27.0929" y2="27.0914"/><linearGradient id="h"><stop offset="0" stop-color="#81557e"/><stop offset="1" stop-color="#36293b"/></linearGradient><radialGradient id="i" cx="0" cy="0" gradientTransform="matrix(-36.28961991 67.64016403 -116.51684036 -62.51244229 59.251 10.8438)" gradientUnits="userSpaceOnUse" r="1" xlink:href="#h"/><radialGradient id="j" cx="0" cy="0" gradientTransform="matrix(-49.22979203 -41.93933828 25.80420928 -30.28984025 54.883 54.7802)" gradientUnits="userSpaceOnUse" r="1" xlink:href="#h"/><radialGradient id="k" cx="0" cy="0" gradientTransform="matrix(-63.08440126 -187.27848846 223.00789354 -75.11978314 91.6844 179.253)" gradientUnits="userSpaceOnUse" r="1"><stop offset="0" stop-color="#c44b53"/><stop offset=".5" stop-color="#36293b"/><stop offset="1" stop-color="#81557e"/></radialGradient><mask id="l" height="99" maskUnits="userSpaceOnUse" width="58" x="25" y="30"><path d="m29.0341 51.9258c-8.4704 20.8077-2.6032 50.7082 13.1047 66.7852 7.9573 8.144 16.9135 11.178 24.9157 9.484l15.3256-2.982-17.9096-94.5816-16.5733 3.2431c-7.7944 1.6495-14.6836 7.7843-18.8631 18.0513z" fill="#b81a24"/></mask><path d="m29.0335 51.9252c-8.4709 20.8078-2.6037 50.7088 13.1047 66.7848 7.9575 8.144 16.9141 11.178 24.9166 9.484l15.3262-2.982-17.9096-94.5815-16.574 3.2432c-7.7947 1.6496-14.6842 7.7845-18.8639 18.0515z" fill="url(#c)"/><g fill-opacity=".2" mask="url(#l)"><path d="m0 0h2.24606v53.5483h-2.24606z" fill="url(#e)" transform="matrix(.19256 .981285 -.981389 .192032 63.4941 32.2453)"/><g fill="url(#f)"><path d="m0 0h2.24605v43.986h-2.24605z" transform="matrix(.192561 .981285 -.981389 .192031 54.9736 38.4875)"/><path d="m0 0h2.24605v43.986h-2.24605z" transform="matrix(.192561 .981285 -.981389 .192031 55.8393 42.8938)"/><path d="m0 0h2.24605v43.986h-2.24605z" transform="matrix(.192561 .981285 -.981389 .192031 56.7031 47.301)"/><path d="m0 0h2.24605v43.986h-2.24605z" transform="matrix(.192561 .981285 -.981389 .192031 57.5678 51.7072)"/><path d="m0 0h2.24605v43.986h-2.24605z" transform="matrix(.192561 .981285 -.981389 .192031 58.4326 56.1135)"/><path d="m0 0h2.24605v43.986h-2.24605z" transform="matrix(.192561 .981285 -.981389 .192031 59.2973 60.5197)"/><path d="m0 0h2.24605v43.986h-2.24605z" transform="matrix(.192561 .981285 -.981389 .192031 60.1625 64.927)"/><path d="m0 0h2.24605v43.986h-2.24605z" transform="matrix(.192561 .981285 -.981389 .192031 61.0268 69.3342)"/><path d="m0 0h2.24605v43.986h-2.24605z" transform="matrix(.192561 .981285 -.981389 .192031 61.892 73.7395)"/><path d="m0 0h2.24605v43.986h-2.24605z" transform="matrix(.192561 .981285 -.981389 .192031 62.7558 78.1477)"/><path d="m0 0h2.24605v43.986h-2.24605z" transform="matrix(.192561 .981285 -.981389 .192031 63.6206 82.5539)"/><path d="m0 0h2.24605v43.986h-2.24605z" transform="matrix(.192561 .981285 -.981389 .192031 64.4853 86.9592)"/><path d="m0 0h2.24605v43.986h-2.24605z" transform="matrix(.192561 .981285 -.981389 .192031 65.3496 91.3674)"/><path d="m0 0h2.24605v43.986h-2.24605z" transform="matrix(.192561 .981285 -.981389 .192031 66.2158 95.7736)"/><path d="m0 0h2.24605v43.986h-2.24605z" transform="matrix(.192561 .981285 -.981389 .192031 67.0795 100.179)"/><path d="m0 0h2.24605v43.986h-2.24605z" transform="matrix(.192561 .981285 -.981389 .192031 67.9448 104.586)"/><path d="m0 0h2.24605v43.986h-2.24605z" transform="matrix(.192561 .981285 -.981389 .192031 68.809 108.994)"/><path d="m0 0h2.24605v43.986h-2.24605z" transform="matrix(.192561 .981285 -.981389 .192031 69.6738 113.401)"/><path d="m0 0h2.24605v43.986h-2.24605z" transform="matrix(.192561 .981285 -.981389 .192031 70.5385 117.805)"/><path d="m0 0h2.24605v43.986h-2.24605z" transform="matrix(.192561 .981285 -.981389 .192031 71.4033 122.213)"/></g><path d="m0 0h2.24607v56.0983h-2.24607z" fill="url(#g)" transform="matrix(.19256 .981285 -.981388 .192033 84.1542 124.294)"/></g><ellipse cx="40.688" cy="40.688" fill="url(#i)" rx="40.688" ry="40.688" transform="matrix(-.376962 .92597 -.699041 -.715417 116.897 69.4063)"/><ellipse cx="33.6809" cy="33.745" fill="url(#j)" rx="33.6809" ry="33.745" transform="matrix(-.376962 .92597 -.699041 -.715417 105.632 71.5811)"/><g filter="url(#a)"><path clip-rule="evenodd" d="m76.7537 117.805c6.4308-1.379 12.1094-6.446 15.5565-14.914 7.0117-17.2243 2.1349-41.996-10.8927-55.3292-6.4162-6.5666-13.6128-9.134-20.1025-7.991 6.6503-1.4266 14.1049 1.0905 20.728 7.8689 13.0276 13.3332 17.9044 38.1049 10.8927 55.3293-3.5584 8.741-9.4949 13.859-16.182 15.036z" fill="#ff93ba" fill-opacity=".22" fill-rule="evenodd"/></g><path d="m57.7783 115.649c-15.7084-16.0762-21.5756-45.9768-13.1047-66.7846 8.4708-20.8078 28.072-24.6434 43.7804-8.567 15.708 16.0764 21.576 45.9769 13.105 66.7846-8.4711 20.808-28.0723 24.644-43.7807 8.567zm28.6278-70.3213c-13.6111-13.93-30.5952-10.6065-37.935 7.4231-7.3399 18.0297-2.2561 43.9381 11.355 57.8682 13.6111 13.93 30.5952 10.606 37.9351-7.423 7.3398-18.03 2.2558-43.9384-11.3551-57.8683z" fill="url(#k)"/><g filter="url(#b)"><path clip-rule="evenodd" d="m44.6749 48.8619c-8.4704 20.8078-2.6032 50.7083 13.1047 66.7851 7.758 7.94 16.4654 11.023 24.3125 9.603-8.0078 1.704-16.9732-1.329-24.9379-9.48-15.7079-16.0767-21.5751-45.9773-13.1047-66.785 4.287-10.5311 11.4249-16.7147 19.4663-18.1697-7.7852 1.6564-14.6654 7.7894-18.8409 18.0466zm20.0812-11.7417c6.9492-1.4957 14.7348 1.128 21.6499 8.2053 13.611 13.93 18.695 39.8384 11.355 57.8685-3.722 9.143-9.9243 14.504-16.9092 15.751 6.7287-1.448 12.6732-6.759 16.2838-15.628 7.3394-18.03 2.2556-43.9384-11.3551-57.8684-6.7083-6.8657-14.2359-9.5402-21.0244-8.3284z" fill="#ff84b1" fill-opacity=".18" fill-rule="evenodd"/></g></svg>