<svg fill="none" height="277" viewBox="0 0 268 277" width="268" xmlns="http://www.w3.org/2000/svg" xmlns:xlink="http://www.w3.org/1999/xlink"><filter id="a" color-interpolation-filters="sRGB" filterUnits="userSpaceOnUse" height="102.439" width="83.4339" x="49.2681" y="125.644"><feFlood flood-opacity="0" result="BackgroundImageFix"/><feBlend in="SourceGraphic" in2="BackgroundImageFix" mode="normal" result="shape"/><feGaussianBlur result="effect1_foregroundBlur_8930_25071" stdDeviation="2.42236"/></filter><filter id="b" color-interpolation-filters="sRGB" filterUnits="userSpaceOnUse" height="111.863" width="85.4271" x="136.117" y="56.2275"><feFlood flood-opacity="0" result="BackgroundImageFix"/><feBlend in="SourceGraphic" in2="BackgroundImageFix" mode="normal" result="shape"/><feGaussianBlur result="effect1_foregroundBlur_8930_25071" stdDeviation="2.42236"/></filter><filter id="c" color-interpolation-filters="sRGB" filterUnits="userSpaceOnUse" height="108.298" width="100.498" x="75.9399" y="77.3707"><feFlood flood-opacity="0" result="BackgroundImageFix"/><feBlend in="SourceGraphic" in2="BackgroundImageFix" mode="normal" result="shape"/><feGaussianBlur result="effect1_foregroundBlur_8930_25071" stdDeviation="1.05"/></filter><filter id="d" color-interpolation-filters="sRGB" filterUnits="userSpaceOnUse" height="126.487" width="118.819" x="71.1605" y="71.8698"><feFlood flood-opacity="0" result="BackgroundImageFix"/><feBlend in="SourceGraphic" in2="BackgroundImageFix" mode="normal" result="shape"/><feGaussianBlur result="effect1_foregroundBlur_8930_25071" stdDeviation=".260435"/></filter><filter id="e" color-interpolation-filters="sRGB" filterUnits="userSpaceOnUse" height="86.6291" width="67.4321" x="85.3396" y="83.7108"><feFlood flood-opacity="0" result="BackgroundImageFix"/><feBlend in="SourceGraphic" in2="BackgroundImageFix" mode="normal" result="shape"/><feGaussianBlur result="effect1_foregroundBlur_8930_25071" stdDeviation=".242236"/></filter><linearGradient id="f" gradientUnits="userSpaceOnUse" x1="207.962" x2="91.1311" y1="86.385" y2="208.455"><stop offset="0" stop-color="#66536e"/><stop offset=".3125" stop-color="#302634"/><stop offset=".588542" stop-color="#c44b53"/><stop offset=".793394" stop-color="#ff656f"/><stop offset=".952475" stop-color="#ff9da3"/><stop offset="1" stop-color="#ff656f"/></linearGradient><linearGradient id="g" gradientUnits="userSpaceOnUse" x1="44.5254" x2="253.833" y1="256.245" y2="154.317"><stop offset="0" stop-color="#fbff5c"/><stop offset=".370478" stop-color="#e35760"/><stop offset=".825209" stop-color="#302634"/></linearGradient><linearGradient id="h"><stop offset="0" stop-color="#302634"/><stop offset="1" stop-color="#302634" stop-opacity="0"/></linearGradient><linearGradient id="i" gradientUnits="userSpaceOnUse" x1="3.90901" x2="-.261084" xlink:href="#h" y1="37.4138" y2="37.411"/><linearGradient id="j" gradientUnits="userSpaceOnUse" x1="3.90901" x2="-.261083" xlink:href="#h" y1="30.7328" y2="30.7293"/><linearGradient id="k" gradientUnits="userSpaceOnUse" x1="3.90901" x2="-.261084" xlink:href="#h" y1="39.1954" y2="39.1927"/><linearGradient id="l" gradientUnits="userSpaceOnUse" x1="129.258" x2="0" y1="64.629" y2="64.629"><stop offset="0" stop-color="#302634"/><stop offset=".365" stop-color="#5d3340"/><stop offset="1" stop-color="#302634"/></linearGradient><radialGradient id="m" cx="0" cy="0" gradientTransform="matrix(-53.79812512 -146.55043672 121.67179321 -44.6652668 71.6557 96.3796)" gradientUnits="userSpaceOnUse" r="1"><stop offset="0" stop-color="#e35760"/><stop offset="1" stop-color="#302634"/></radialGradient><radialGradient id="n" cx="0" cy="0" gradientTransform="matrix(-78.1964771 -66.6163388 40.9874169 -48.11239501 87.1763 87.013)" gradientUnits="userSpaceOnUse" r="1"><stop offset="0" stop-color="#81557e"/><stop offset="1" stop-color="#36293b"/></radialGradient><linearGradient id="o" gradientUnits="userSpaceOnUse" x1="125.293" x2="168.579" y1="116.665" y2="140.5"><stop offset="0" stop-color="#362a39"/><stop offset="1" stop-color="#362a39" stop-opacity="0"/></linearGradient><linearGradient id="p" gradientUnits="userSpaceOnUse" x1="192.525" x2="73.8973" y1="182.426" y2="77.2372"><stop offset="0" stop-color="#fbff5c"/><stop offset=".42" stop-color="#e35760"/><stop offset=".86" stop-color="#302634"/></linearGradient><linearGradient id="q"><stop offset="0" stop-color="#36293b"/><stop offset="1" stop-color="#81557e"/></linearGradient><radialGradient id="r" cx="0" cy="0" gradientTransform="matrix(-77.97398301 122.98117198 -128.50961132 -81.47918977 164.286 75.239)" gradientUnits="userSpaceOnUse" r="1" xlink:href="#q"/><linearGradient id="s" gradientUnits="userSpaceOnUse" x1="88.181" x2="101.842" y1="151.994" y2="182.489"><stop offset="0" stop-color="#36293b"/><stop offset="1" stop-color="#8c404b"/></linearGradient><linearGradient id="t"><stop offset=".111577" stop-color="#36293b"/><stop offset=".571564" stop-color="#81557e"/></linearGradient><linearGradient id="u" gradientUnits="userSpaceOnUse" x1="98.7497" x2="112.322" xlink:href="#t" y1="159.533" y2="171.843"/><linearGradient id="v" gradientUnits="userSpaceOnUse" x1="134.733" x2="127.348" y1="138.887" y2="205.786"><stop offset=".111517" stop-color="#302634"/><stop offset=".317679" stop-color="#4f3456"/><stop offset=".794169" stop-color="#e35760"/><stop offset="1" stop-color="#302634"/></linearGradient><linearGradient id="w"><stop offset="0" stop-color="#36293b"/><stop offset=".466525" stop-color="#8c404b"/><stop offset="1" stop-color="#e35760"/></linearGradient><linearGradient id="x" gradientUnits="userSpaceOnUse" x1="105.025" x2="96.7961" xlink:href="#w" y1="181.916" y2="148.068"/><linearGradient id="y" gradientUnits="userSpaceOnUse" x1="105.576" x2="110.221" y1="153.862" y2="169.338"><stop offset=".125157" stop-color="#36293b"/><stop offset="1" stop-color="#81557e"/></linearGradient><linearGradient id="z"><stop offset=".111517" stop-color="#302634"/><stop offset=".317679" stop-color="#4f3456"/><stop offset=".636808" stop-color="#e35760"/><stop offset="1" stop-color="#302634"/></linearGradient><linearGradient id="A" gradientUnits="userSpaceOnUse" x1="147.025" x2="139.88" xlink:href="#z" y1="137.118" y2="205.496"/><linearGradient id="B" gradientUnits="userSpaceOnUse" x1="116.542" x2="108.303" xlink:href="#w" y1="180.838" y2="146.932"/><linearGradient id="C" gradientUnits="userSpaceOnUse" x1="179.185" x2="163.003" y1="94.7388" y2="173.66"><stop offset=".111517" stop-color="#302634"/><stop offset=".499269" stop-color="#4f3456"/><stop offset=".757492" stop-color="#e35760"/><stop offset="1" stop-color="#302634"/></linearGradient><linearGradient id="D" gradientUnits="userSpaceOnUse" x1="183.526" x2="188.527" xlink:href="#z" y1="107.081" y2="224.439"/><linearGradient id="E" gradientUnits="userSpaceOnUse" x1="142.025" x2="132.276" xlink:href="#q" y1="84.6811" y2="101.335"/><linearGradient id="F" gradientUnits="userSpaceOnUse" x1="130.333" x2="139.54" xlink:href="#t" y1="90.4626" y2="98.8131"/><linearGradient id="G" gradientUnits="userSpaceOnUse" x1="130.808" x2="122.298" xlink:href="#q" y1="87.37" y2="107.802"/><linearGradient id="H" gradientUnits="userSpaceOnUse" x1="110.157" x2="119.391" y1="103.715" y2="112.091"><stop offset=".111577" stop-color="#36293b"/><stop offset=".897208" stop-color="#81557e"/></linearGradient><linearGradient id="I" gradientUnits="userSpaceOnUse" x1="100.525" x2="86.0545" xlink:href="#q" y1="127.953" y2="173.938"/><linearGradient id="J"><stop offset=".105" stop-color="#36293b"/><stop offset="1" stop-color="#e35760"/></linearGradient><linearGradient id="K" gradientUnits="userSpaceOnUse" x1="118.145" x2="129.379" xlink:href="#J" y1="123.049" y2="164.121"/><linearGradient id="L" gradientUnits="userSpaceOnUse" x1="119.848" x2="133.077" xlink:href="#t" y1="111.797" y2="123.796"/><linearGradient id="M" gradientUnits="userSpaceOnUse" x1="119.863" x2="108.673" xlink:href="#q" y1="108.089" y2="129.244"/><linearGradient id="N" gradientUnits="userSpaceOnUse" x1="112.245" x2="100.524" xlink:href="#q" y1="105.906" y2="151.686"/><linearGradient id="O" gradientUnits="userSpaceOnUse" x1="128.858" x2="137.783" xlink:href="#J" y1="101.758" y2="132.82"/><radialGradient id="P" cx="0" cy="0" gradientTransform="matrix(-.29598848 61.40028658 -124.10955795 -.59828709 123.127 97.615)" gradientUnits="userSpaceOnUse" r="1"><stop offset="0" stop-color="#81557e"/><stop offset=".205" stop-color="#724c70"/><stop offset=".745" stop-color="#8c404b"/></radialGradient><mask id="Q" height="142" maskUnits="userSpaceOnUse" width="134" x="72" y="72"><path d="m128.723 210.118c33.755-10.684 67.438-47.819 75.232-82.944 3.949-17.793.497-31.6573-8.26-39.6182l-16.434-15.5087-107.079 116.6809 17.795 16.754c8.529 7.754 22.09 9.907 38.746 4.636z" fill="#b81a24"/></mask><g filter="url(#a)"><ellipse cx="31.8092" cy="49.9721" fill="#27212b" fill-opacity=".2" rx="31.8092" ry="49.9721" transform="matrix(.862078 -.506776 .493255 .869885 38.9141 149.514)"/></g><g filter="url(#b)"><ellipse cx="35.3755" cy="52.8269" fill="#27212b" fill-opacity=".3" rx="35.3755" ry="52.8269" transform="matrix(.93113 -.364687 .353411 .935468 127.222 75.6426)"/></g><path d="m128.723 210.118c33.755-10.684 67.438-47.819 75.232-82.944 3.949-17.793.497-31.6573-8.26-39.6182l-16.434-15.5088-107.079 116.681 17.795 16.754c8.529 7.754 22.09 9.907 38.746 4.636z" fill="url(#f)"/><path d="m128.723 210.118c33.755-10.684 67.438-47.819 75.232-82.944 3.949-17.793.497-31.6573-8.26-39.6182l-16.434-15.5088-107.079 116.681 17.795 16.754c8.529 7.754 22.09 9.907 38.746 4.636z" fill="url(#g)"/><g fill-opacity=".2" mask="url(#Q)"><path d="m0 0h3.69423v77.4687h-3.69423z" fill="url(#i)" transform="matrix(.67184 -.740696 .728091 .685481 75.0654 188.295)"/><g fill="url(#j)"><path d="m0 0h3.69423v63.635h-3.69423z" transform="matrix(.67184 -.740696 .728091 .685481 90.1025 192.305)"/><path d="m0 0h3.69423v63.635h-3.69423z" transform="matrix(.67184 -.740696 .728091 .685481 95.0664 186.832)"/><path d="m0 0h3.69423v63.635h-3.69423z" transform="matrix(.67184 -.740696 .728091 .685481 100.03 181.359)"/><path d="m0 0h3.69423v63.635h-3.69423z" transform="matrix(.67184 -.740696 .728091 .685481 104.995 175.885)"/><path d="m0 0h3.69423v63.635h-3.69423z" transform="matrix(.67184 -.740696 .728091 .685481 109.959 170.414)"/><path d="m0 0h3.69423v63.635h-3.69423z" transform="matrix(.67184 -.740696 .728091 .685481 114.923 164.941)"/><path d="m0 0h3.69423v63.635h-3.69423z" transform="matrix(.67184 -.740696 .728091 .685481 119.887 159.469)"/><path d="m0 0h3.69423v63.635h-3.69423z" transform="matrix(.67184 -.740696 .728091 .685481 124.851 153.994)"/><path d="m0 0h3.69423v63.635h-3.69423z" transform="matrix(.67184 -.740696 .728091 .685481 129.815 148.521)"/><path d="m0 0h3.69423v63.635h-3.69423z" transform="matrix(.67184 -.740696 .728091 .685481 134.779 143.051)"/><path d="m0 0h3.69423v63.635h-3.69423z" transform="matrix(.67184 -.740696 .728091 .685481 139.744 137.578)"/><path d="m0 0h3.69423v63.635h-3.69423z" transform="matrix(.67184 -.740696 .728091 .685481 144.707 132.104)"/><path d="m0 0h3.69423v63.635h-3.69423z" transform="matrix(.67184 -.740696 .728091 .685481 149.671 126.631)"/><path d="m0 0h3.69423v63.635h-3.69423z" transform="matrix(.67184 -.740696 .728091 .685481 154.635 121.158)"/><path d="m0 0h3.69423v63.635h-3.69423z" transform="matrix(.67184 -.740696 .728091 .685481 159.6 115.686)"/><path d="m0 0h3.69423v63.635h-3.69423z" transform="matrix(.67184 -.740696 .728091 .685481 164.563 110.213)"/><path d="m0 0h3.69423v63.635h-3.69423z" transform="matrix(.67184 -.740696 .728091 .685481 169.527 104.74)"/><path d="m0 0h3.69423v63.635h-3.69423z" transform="matrix(.67184 -.740696 .728091 .685481 174.491 99.2676)"/><path d="m0 0h3.69423v63.635h-3.69423z" transform="matrix(.67184 -.740696 .728091 .685481 179.455 93.7949)"/><path d="m0 0h3.69423v63.635h-3.69423z" transform="matrix(.67184 -.740696 .728091 .685481 184.42 88.3203)"/></g><path d="m0 0h3.69423v81.1576h-3.69423z" fill="url(#k)" transform="matrix(.67184 -.740696 .728091 .685481 176.627 70.8379)"/></g><circle cx="64.629" cy="64.629" fill="url(#l)" r="64.629" transform="matrix(.945695 -.299314 -.218379 .984065 79.0439 86.459)"/><ellipse cx="53.4988" cy="53.6006" fill="url(#m)" rx="53.4988" ry="53.6006" transform="matrix(.945695 -.299314 -.218379 .984065 91.0977 97.875)"/><ellipse cx="53.4988" cy="53.6006" fill="url(#n)" rx="53.4988" ry="53.6006" transform="matrix(.945695 -.299314 -.218379 .984065 91.0977 97.875)"/><g filter="url(#c)"><path clip-rule="evenodd" d="m174.338 86.2809c-7.062-6.3717-18.249-8.1325-31.979-3.7869-27.942 8.8437-55.8346 39.628-62.2992 68.759-3.1854 14.354-.5741 25.628 6.2373 32.315-7.3089-6.595-10.1972-18.13-6.9092-32.947 6.4646-29.131 34.3571-59.9157 62.2991-68.7594 14.174-4.4861 25.638-2.4646 32.651 4.4193z" fill="#ff9da3" fill-opacity=".22" fill-rule="evenodd"/></g><path d="m112.816 191.319-13.1654-15.239 16.0404-22.283-1.75-26.177 14.708-19.338 27.289-17.5946c7.639 7.1923 16.865 17.3206 24.562 26.0106-24.068 64.492-48.056 63.239-67.684 74.621z" fill="url(#o)" fill-opacity=".5"/><path d="m187.169 111.369c-7.795 35.125-41.478 72.26-75.233 82.944-33.7553 10.683-54.8004-9.13-47.0057-44.255 7.7948-35.125 41.4777-72.2598 75.2327-82.9434 33.755-10.6835 54.801 9.13 47.006 44.2544zm-114.0783 36.106c-6.7541 30.435 11.4812 47.604 40.7293 38.346 29.249-9.257 58.434-41.434 65.189-71.869 6.754-30.435-11.482-47.6031-40.73-38.3459-29.249 9.2571-58.4343 41.4339-65.1883 71.8689z" fill="url(#p)"/><path d="m187.169 111.369c-7.795 35.125-41.478 72.26-75.233 82.944-33.7553 10.683-54.8004-9.13-47.0057-44.255 7.7948-35.125 41.4777-72.2598 75.2327-82.9434 33.755-10.6835 54.801 9.13 47.006 44.2544zm-114.0783 36.106c-6.7541 30.435 11.4812 47.604 40.7293 38.346 29.249-9.257 58.434-41.434 65.189-71.869 6.754-30.435-11.482-47.6031-40.73-38.3459-29.249 9.2571-58.4343 41.4339-65.1883 71.8689z" fill="url(#r)"/><g filter="url(#d)"><path clip-rule="evenodd" d="m111.932 194.31c33.756-10.684 67.439-47.819 75.233-82.944 3.845-17.3233.674-30.9224-7.577-38.9753 8.748 7.9627 12.195 21.8224 8.248 39.6083-7.794 35.124-41.477 72.259-75.233 82.943-17.1069 5.414-30.9495 2.996-39.428-5.279 8.5283 7.763 22.0942 9.921 38.757 4.647zm-31.6523-12.477c-7.6133-6.893-10.6193-18.919-7.1926-34.361 6.7541-30.435 35.9399-62.6119 65.1879-71.8691 14.853-4.7009 26.866-2.5874 34.208 4.6175-7.392-6.6927-19.128-8.5455-33.537-3.9851-29.248 9.2572-58.4339 41.4337-65.188 71.8697-3.3242 14.979-.5948 26.745 6.5217 33.728z" fill="#bf89f5" fill-opacity=".28" fill-rule="evenodd"/></g><path d="m85.8262 158.166 6.8308 6.431 5.876-.556 1.567-8.971c-1.0392.086-1.9847.159-1.9847.159z" fill="url(#s)"/><path d="m106.122 175.684 5.763-12.729-2.223-2.093-4.727-4.449-5.742 12.748z" fill="url(#u)"/><path d="m106.122 175.684 5.763-12.729-2.223-2.093-4.727-4.449-5.742 12.748z" fill="url(#v)"/><path d="m99.7245 176.287 6.3965-.603-6.9286-6.523-6.291.702z" fill="url(#x)"/><path d="m104.935 156.412 5.627-.917c.207 1.065.511 2.662.775 4.111l-1.676 1.255z" fill="url(#y)"/><path d="m117.644 174.835 5.958-13.001-7.052-6.653-5.74 13.22z" fill="url(#A)"/><path d="m111.234 175.201 6.405-.606-6.834-6.434-6.408.603z" fill="url(#B)"/><path d="m148.107 128.545c4.748-2.641 8.893-6.888 11.387-13.546l.002-.001c1.594-4.241 1.325-7.039-.214-8.827l-7.016-6.6062-2.376 3.7832-2.648 9.972-6.167 8.605z" fill="url(#C)"/><path d="m123.454 161.754c11.104-1.765 20.126-5.757 26.59-18.066 3.65-6.943 3.841-11.001 1.804-13.221l-7.363-6.932-8.261 15.137-9.429 9.312-10.394 7.116z" fill="url(#D)"/><path d="m148.807 84.1878 6.841 6.4412-4.706 10.398-5.543-1.2993-3.153-1.7259.474-1.4042z" fill="url(#E)"/><path d="m137.303 85.2893 6.829 6.4297-10.446 9.538-5.325-.568c1.04-2.1126 3.181-6.4523 3.426-6.9083.246-.4561 3.779-5.851 5.516-8.4914z" fill="url(#F)"/><path d="m137.303 85.2893 6.829 6.4297-10.446 9.538-5.325-.568c1.04-2.1126 3.181-6.4523 3.426-6.9083.246-.4561 3.779-5.851 5.516-8.4914z" fill="url(#G)"/><path d="m119.053 106.282-3.741 8.268-6.85-6.448 9.232-2.702z" fill="url(#H)"/><path d="m116.271 153.576 7.717-17.045-6.942-6.535-8.118 17.226z" fill="url(#I)"/><path d="m125.565 136.354c-.607.074-1.143.139-1.579.18l-7.336-6.907 13.124-3.384 5.733 10.009c-2.965-.746-7.185-.233-9.941.102z" fill="url(#K)"/><path d="m134.517 113.27-6.869-6.466-8.1 17.414 9.529 1.069z" fill="url(#L)"/><path d="m134.517 113.27-6.869-6.466-8.1 17.414 9.529 1.069z" fill="url(#M)"/><path d="m134.517 113.27-6.869-6.466-8.1 17.414 9.529 1.069z" fill="url(#N)"/><path d="m141.122 107.298c.355.333.078 3.75-.104 5.416l-6.499.559-6.871-6.468 5.244-.898 4.665-.697c1.041.557 3.211 1.754 3.565 2.088z" fill="url(#O)"/><path clip-rule="evenodd" d="m152.664 108.565c3.42-9.1004-1.736-11.5556-9.606-11.6498l5.757-12.7196-6.406.6068-5.606 12.3844c-1.682.1587-3.421.3616-5.149.5645l5.644-12.4666-6.401.6049-5.758 12.7162c-1.402.1653-2.778.3252-4.106.4517l.017-.0393-8.831.8313-3.741 8.2685s4.778-.556 4.652-.443c2.594-.244 2.616 1.496 2.148 3.045l-6.558 14.49c.178-.016.407-.029.652-.01l-.675.064-9.1922 20.301c-.5606.997-1.7528 2.616-3.5668 2.791.0422.08-4.6546.439-4.6546.439l-5.4583 9.369 8.3361-.789c.9405-.088 1.867-.164 2.7832-.239h.0008c.5934-.048 1.1825-.097 1.7684-.147l-5.8209 12.866 6.3965-.604 5.7638-12.729c1.734-.121 3.426-.265 5.087-.424l-5.738 12.67 6.404-.606 5.815-12.842c11.105-1.764 20.127-5.756 26.591-18.065 5.21-9.914 3.371-13.944-1.937-15.143 4.748-2.641 8.893-6.888 11.387-13.546zm-21.413 28.356c-3.993 8.824-15.372 9.713-20.574 10.12-.466.036-.882.069-1.239.103l7.717-17.045c.436-.041.972-.106 1.58-.18 5.442-.661 16.596-2.016 12.518 7.001zm-9.516-14.711c4.338-.327 13.792-1.04 17.423-9.057 3.713-8.201-5.598-7.039-10.146-6.471-.511.064-.962.12-1.328.155l-6.998 15.458c.302-.028.654-.055 1.049-.085z" fill="url(#P)" fill-rule="evenodd"/><g filter="url(#e)"><path clip-rule="evenodd" d="m142.113 122.335c-.125.072-.251.143-.376.213 1.315.297 2.418.768 3.252 1.459-.71-.762-1.686-1.305-2.876-1.672zm-37.022 46.368 5.511-12.169c-.23.022-.459.043-.69.065l-5.511 12.169zm-11.5099 1.087-.6894.065 5.5974-12.372c.2293-.02.4581-.039.6864-.059zm-6.9984-11.698 5.1626-8.861s4.6968-.359 4.6546-.439c1.8141-.175 3.0062-1.794 3.5668-2.792l9.1923-20.3.675-.064c-.245-.019-.474-.006-.653.01l6.559-14.491c.331-1.097.417-2.291-.485-2.806.389.605.28 1.517.022 2.371l-6.558 14.49c.178-.016.407-.029.652-.01l-.675.064-9.1922 20.301c-.5606.997-1.7527 2.616-3.5668 2.791.0422.08-4.6545.439-4.6545.439l-5.4584 9.369zm22.5903-50.053 3.508-7.754 8.831-.8311-.017.0393c1.328-.1265 2.704-.2864 4.106-.4517l5.758-12.7162 5.711-.5397.227-.5009-6.401.6049-5.758 12.7162c-1.402.1653-2.778.3252-4.106.4517l.017-.0393-8.831.8313-3.741 8.2685s.277-.032.696-.079zm23.177-10.3694-.234.5174c1.728-.2029 3.467-.4058 5.149-.5645l5.606-12.3844 5.716-.5415.227-.501-6.406.6068-5.606 12.3844c-1.456.1374-2.954.3079-4.452.4828zm11.361-.7408-.192.4221c3.751.0449 6.885.6259 8.768 2.2066-1.708-1.808-4.797-2.5162-8.576-2.6287zm-33.035 50.1122c5.202-.407 16.581-1.296 20.574-10.12l.002-.001c1.246-2.755 1.07-4.541.07-5.676 1.387 1.093 1.812 2.975.393 6.112l-.002.001c-3.993 8.824-15.372 9.713-20.574 10.12-.466.036-.882.069-1.239.103l.224-.495c.175-.014.359-.029.552-.044zm28.481-33.888c-3.631 8.017-13.085 8.73-17.423 9.057-.125.01-.246.019-.363.028l-.223.493c.302-.029.654-.055 1.049-.085 4.338-.327 13.792-1.04 17.423-9.057 1.367-3.019.969-4.769-.306-5.747.887 1.034 1.027 2.697-.157 5.311z" fill="#fff" fill-opacity=".25" fill-rule="evenodd"/></g></svg>