<svg fill="none" height="168" viewBox="0 0 225 168" width="225" xmlns="http://www.w3.org/2000/svg" xmlns:xlink="http://www.w3.org/1999/xlink"><filter id="a" color-interpolation-filters="sRGB" filterUnits="userSpaceOnUse" height="124.088" width="223.966" x=".863672" y="21.9452"><feFlood flood-opacity="0" result="BackgroundImageFix"/><feBlend in="SourceGraphic" in2="BackgroundImageFix" mode="normal" result="shape"/><feGaussianBlur result="effect1_foregroundBlur_8930_24996" stdDeviation=".242236"/></filter><linearGradient id="b" gradientUnits="userSpaceOnUse" x1="-4.47473" x2="265" y1="167.557" y2="168.096"><stop offset="0" stop-color="#784f76"/><stop offset=".0255456" stop-color="#372a3c"/><stop offset=".371217" stop-color="#372a3c"/><stop offset=".558444" stop-color="#372a3c"/><stop offset=".693696" stop-color="#5d3340"/><stop offset=".834233" stop-color="#6f4a6e"/><stop offset=".933517" stop-color="#462f45"/><stop offset="1" stop-color="#372a3c"/></linearGradient><radialGradient id="c" cx="0" cy="0" gradientTransform="matrix(-237.12121196 -175.57577607 117.6249634 -158.85661736 222.541 145.377)" gradientUnits="userSpaceOnUse" r="1"><stop offset="0" stop-color="#e35760"/><stop offset="1" stop-color="#302634"/></radialGradient><radialGradient id="d" cx="0" cy="0" gradientTransform="matrix(-99.44522101 120.94603928 -245.33708645 -201.723024 163.716 19.4325)" gradientUnits="userSpaceOnUse" r="1"><stop offset="0" stop-color="#81557e"/><stop offset=".365" stop-color="#664565"/><stop offset="1" stop-color="#36293b"/></radialGradient><g clip-rule="evenodd" fill-rule="evenodd"><path d="m201.415 142.488c14.832-12.702 22.931-27.835 22.931-43.4584v-20.7934l-123.031-64.8671-99.96649 8.8699v22.4914l38.83389 22.8287c14.1983-8.3465 33.4553-13.0355 53.5347-13.0355 20.0789 0 39.3359 4.689 53.5349 13.0355 14.198 8.3465 22.174 19.6668 22.174 31.4705 0 10.1274-5.872 19.8994-16.508 27.7424l-24.956-8.087v49.06h82.963v-22.176z" fill="url(#b)" fill-opacity=".5"/><path d="m93.717.0429688c-34.645.000002-67.8709 8.0904212-92.36861 22.4914312l38.83391 22.8287c14.1983-8.3465 33.4553-13.0355 53.5347-13.0355 20.079 0 39.336 4.689 53.535 13.0355 14.198 8.3465 22.174 19.6668 22.174 31.4705 0 11.7079-7.847 22.9402-21.83 31.2664l-19.634-11.6106v49.0606h82.963l-24.609-14.553c24.353-14.388 38.03-33.8611 38.03-54.1634 0-20.3661-13.763-39.8981-38.26-54.2992-24.498-14.40101-57.724-22.4914312-92.369-22.4914312z" fill="url(#c)"/><path d="m93.717.0429688c-34.645.000002-67.8709 8.0904212-92.36861 22.4914312l38.83391 22.8287c14.1983-8.3465 33.4553-13.0355 53.5347-13.0355 20.079 0 39.336 4.689 53.535 13.0355 14.198 8.3465 22.174 19.6668 22.174 31.4705 0 11.7079-7.847 22.9402-21.83 31.2664l-19.634-11.6106v49.0606h82.963l-24.609-14.553c24.353-14.388 38.03-33.8611 38.03-54.1634 0-20.3661-13.763-39.8981-38.26-54.2992-24.498-14.40101-57.724-22.4914312-92.369-22.4914312z" fill="url(#d)"/></g><g filter="url(#a)"><path clip-rule="evenodd" d="m1.52559 22.4297c-.0592.0347-.11835.0694-.17745.1041l38.83396 22.8287c14.1983-8.3465 33.4552-13.0355 53.5346-13.0355 20.0793 0 39.3363 4.689 53.5343 13.0355 4.603 2.7056 8.552 5.7237 11.787 8.9694-3.323-3.4335-7.436-6.6204-12.271-9.4626-14.198-8.3465-33.455-13.0355-53.5347-13.0355-20.0793 0-39.3363 4.689-53.5346 13.0355zm126.43641 122.6263v.493h82.963l-.834-.493zm58.528-14.163-.659-.39c24.354-14.388 38.03-33.8609 38.03-54.1632 0-13.5011-6.048-26.6356-17.262-38.1518 11.524 11.6337 17.747 24.9508 17.747 38.645 0 20.2536-13.611 39.682-37.856 54.06z" fill="#ff9da3" fill-opacity=".14" fill-rule="evenodd"/></g></svg>