<svg fill="none" height="165" viewBox="0 0 225 165" width="225" xmlns="http://www.w3.org/2000/svg" xmlns:xlink="http://www.w3.org/1999/xlink"><filter id="a" color-interpolation-filters="sRGB" filterUnits="userSpaceOnUse" height="142.647" width="208.027" x="16.8593" y=".736231"><feFlood flood-opacity="0" result="BackgroundImageFix"/><feBlend in="SourceGraphic" in2="BackgroundImageFix" mode="normal" result="shape"/><feGaussianBlur result="effect1_foregroundBlur_8930_25010" stdDeviation=".242236"/></filter><linearGradient id="b" gradientUnits="userSpaceOnUse" x1=".918457" x2="264.57" y1="164.928" y2="164.928"><stop offset="0" stop-color="#784f76"/><stop offset=".0255456" stop-color="#372a3c"/><stop offset=".371217" stop-color="#372a3c"/><stop offset=".558444" stop-color="#372a3c"/><stop offset=".834233" stop-color="#6f4a6e"/><stop offset=".933517" stop-color="#462f45"/><stop offset="1" stop-color="#372a3c"/></linearGradient><radialGradient id="c" cx="0" cy="0" gradientTransform="matrix(-99.44651992 117.76242143 -240.03027641 -202.69773136 163.287 19.6038)" gradientUnits="userSpaceOnUse" r="1"><stop offset=".01" stop-color="#e35760"/><stop offset=".475" stop-color="#81557e"/><stop offset="1" stop-color="#36293b"/></radialGradient><path clip-rule="evenodd" d="m75.7341 57.6729 24.0883 14.2447v-49.0605l-82.9632-22.132491v22.132491l20.5219 12.1357-36.462643 31.392.000004 21.5439c-.000006 10.0843 3.378889 19.8853 9.943639 29.2023 6.5647 9.316 16.1867 17.782 28.3167 24.913 12.1301 7.13 26.5305 12.787 42.3791 16.646s32.8351 5.845 49.9891 5.845c17.155 0 34.141-1.986 49.99-5.845s30.249-9.516 42.379-16.646v-22.172l-63.396 8.991c-9.185 2.236-19.03 3.387-28.973 3.387-9.942 0-19.787-1.151-28.972-3.387-9.1858-2.237-17.5319-5.515-24.5622-9.648s-12.607-9.039-16.4117-14.439c-3.8048-5.3997-5.7631-11.1871-5.7631-17.0317s1.9583-11.632 5.7631-17.0317c3.3839-4.8026 8.1696-9.2148 14.133-13.0397z" fill="url(#b)" fill-opacity=".5" fill-rule="evenodd"/><path clip-rule="evenodd" d="m75.7334 35.5404 24.0882 14.2446v-49.060391h-82.9632l20.1321 11.905191c-11.1022 6.8473-19.9632 14.8456-26.128 23.5948-6.56473 9.3166-9.943553 19.3022-9.943555 29.3865-.000001 10.0843 3.378815 20.0698 9.943555 29.3865 6.5647 9.3164 16.1867 17.7824 28.3168 24.9124 12.13 7.131 26.5304 12.787 42.379 16.646 15.8487 3.859 32.8347 5.846 49.9897 5.846 17.154 0 34.141-1.987 49.989-5.846 15.849-3.859 30.249-9.515 42.379-16.646l-38.834-22.8284c-7.03 4.1324-15.376 7.4114-24.561 9.6474-9.186 2.237-19.031 3.388-28.973 3.388s-19.787-1.151-28.973-3.388c-9.1854-2.236-17.5315-5.515-24.5618-9.6474-7.0303-4.1328-12.607-9.0391-16.4117-14.4388-3.8048-5.3997-5.7631-11.1871-5.7631-17.0317s1.9583-11.632 5.7631-17.0317c3.3837-4.8023 8.1691-9.2143 14.1319-13.039z" fill="url(#c)" fill-rule="evenodd"/><g filter="url(#a)"><path clip-rule="evenodd" d="m99.8216 49.7881-24.0882-14.2446c-5.9629 3.8247-10.7482 8.2366-14.1319 13.0389-3.8048 5.3997-5.7631 11.1871-5.7631 17.0317s1.9583 11.632 5.7631 17.0318c1.339 1.9002 2.8974 3.7394 4.6614 5.5053-1.5658-1.6144-2.9612-3.2882-4.1761-5.0123-3.8047-5.3997-5.763-11.1871-5.763-17.0317s1.9583-11.632 5.763-17.0317c3.3838-4.8023 8.1691-9.2143 14.1319-13.039l24.0883 14.2446v-49.0604h-.4854zm123.9184 70.2289c-12.093 7.082-26.431 12.702-42.203 16.542-15.848 3.86-32.835 5.846-49.989 5.846-17.155 0-34.1411-1.986-49.9897-5.846-15.8486-3.859-30.249-9.515-42.379-16.646-7.9444-4.67-14.813-9.912-20.4515-15.592 5.7281 5.869 12.763 11.28 20.9368 16.085 12.13 7.131 26.5304 12.787 42.3791 16.647 15.8486 3.859 32.8353 5.845 49.9893 5.845 17.155 0 34.141-1.986 49.99-5.846 15.848-3.859 30.249-9.515 42.379-16.646zm-186.9198-107.2789c.0567-.0351.1135-.0702.1703-.1053l-19.2983-11.4121h-.3484z" fill="#ff9da3" fill-opacity=".3" fill-rule="evenodd"/></g></svg>