<svg fill="none" height="231" viewBox="0 0 264 231" width="264" xmlns="http://www.w3.org/2000/svg" xmlns:xlink="http://www.w3.org/1999/xlink"><filter id="a" color-interpolation-filters="sRGB" filterUnits="userSpaceOnUse" height="94.834" width="107.338" x="111.974" y="78.1768"><feFlood flood-opacity="0" result="BackgroundImageFix"/><feBlend in="SourceGraphic" in2="BackgroundImageFix" mode="normal" result="shape"/><feGaussianBlur result="effect1_foregroundBlur_8930_25025" stdDeviation="2.42236"/></filter><filter id="b" color-interpolation-filters="sRGB" filterUnits="userSpaceOnUse" height="83.0879" width="116.962" x="69.3679" y="57.4922"><feFlood flood-opacity="0" result="BackgroundImageFix"/><feBlend in="SourceGraphic" in2="BackgroundImageFix" mode="normal" result="shape"/><feGaussianBlur result="effect1_foregroundBlur_8930_25025" stdDeviation="1.5"/></filter><filter id="c" color-interpolation-filters="sRGB" filterUnits="userSpaceOnUse" height="102.884" width="135" x="61.2866" y="53.2565"><feFlood flood-opacity="0" result="BackgroundImageFix"/><feBlend in="SourceGraphic" in2="BackgroundImageFix" mode="normal" result="shape"/><feGaussianBlur result="effect1_foregroundBlur_8930_25025" stdDeviation=".260435"/></filter><filter id="d" color-interpolation-filters="sRGB" filterUnits="userSpaceOnUse" height="66.3637" width="89" x="86.2269" y="72.3055"><feFlood flood-opacity="0" result="BackgroundImageFix"/><feBlend in="SourceGraphic" in2="BackgroundImageFix" mode="normal" result="shape"/><feGaussianBlur result="effect1_foregroundBlur_8930_25025" stdDeviation=".4"/></filter><linearGradient id="e" gradientUnits="userSpaceOnUse" x1="214.093" x2="73.2135" y1="83.8382" y2="162.169"><stop offset="0" stop-color="#66536e"/><stop offset=".3125" stop-color="#302634"/><stop offset=".58" stop-color="#8c404b"/><stop offset=".793394" stop-color="#8c404b"/><stop offset=".952475" stop-color="#7a5178"/><stop offset="1" stop-color="#332837"/></linearGradient><linearGradient id="f"><stop offset="0" stop-color="#302634"/><stop offset="1" stop-color="#302634" stop-opacity="0"/></linearGradient><linearGradient id="g" gradientUnits="userSpaceOnUse" x1="3.73021" x2="-.249142" xlink:href="#f" y1="36.0759" y2="36.0731"/><linearGradient id="h" gradientUnits="userSpaceOnUse" x1="3.7302" x2="-.24914" xlink:href="#f" y1="29.6336" y2="29.6303"/><linearGradient id="i" gradientUnits="userSpaceOnUse" x1="3.73022" x2="-.249142" xlink:href="#f" y1="37.7938" y2="37.7912"/><linearGradient id="j"><stop offset="0" stop-color="#81557e"/><stop offset="1" stop-color="#36293b"/></linearGradient><radialGradient id="k" cx="0" cy="0" gradientTransform="matrix(-55.13019973 102.75709037 -177.00863143 -94.9668891 90.0127 16.4736)" gradientUnits="userSpaceOnUse" r="1" xlink:href="#j"/><radialGradient id="l" cx="0" cy="0" gradientTransform="matrix(-74.78879299 -63.71329959 39.20108088 -46.01553431 83.377 83.2208)" gradientUnits="userSpaceOnUse" r="1" xlink:href="#j"/><radialGradient id="m" cx="0" cy="0" gradientTransform="matrix(-105.76991112 90.0268 -95.07855728 -111.70507618 177.207 60.9722)" gradientUnits="userSpaceOnUse" r="1"><stop offset="0" stop-color="#36293b"/><stop offset="1" stop-color="#81557e"/></radialGradient><linearGradient id="n" gradientUnits="userSpaceOnUse" x1="183.621" x2="129.134" y1="137.993" y2="179.623"><stop offset="0" stop-color="#302634"/><stop offset=".268813" stop-color="#4f3456"/><stop offset=".636808" stop-color="#e35760"/><stop offset="1" stop-color="#302634"/></linearGradient><radialGradient id="o" cx="0" cy="0" gradientTransform="matrix(25.50004191 -77.38262172 89.62684388 29.53490363 121.026 138.302)" gradientUnits="userSpaceOnUse" r="1"><stop offset="0" stop-color="#e35760"/><stop offset=".485" stop-color="#81557e"/><stop offset="1" stop-color="#302634"/></radialGradient><mask id="p" height="113" maskUnits="userSpaceOnUse" width="146" x="61" y="62"><path d="m106.955 174.185c33.897-.005 75.119-24.252 92.072-54.158 8.588-15.149 9.301-28.8443 3.507-38.6704l-10.717-18.9615-130.6633 75.8259 11.6147 20.496c5.6439 9.571 17.461 15.471 34.1866 15.468z" fill="#b81a24"/></mask><g filter="url(#a)"><ellipse cx="31.0938" cy="56.8144" fill="#27212b" fill-opacity=".2" rx="31.0938" ry="56.8144" transform="matrix(.591761 .806114 -.795762 .605609 192.454 66.1211)"/></g><path d="m106.955 174.186c33.897-.004 75.12-24.251 92.072-54.157 8.588-15.15 9.3-28.8457 3.506-38.6722l-10.717-18.9622-130.6634 75.8264 11.6152 20.496c5.644 9.571 17.4613 15.472 34.1872 15.469z" fill="url(#e)"/><g fill-opacity=".2" mask="url(#p)"><path d="m0 0h3.52526v74.6982h-3.52526z" fill="url(#g)" transform="matrix(.861941 -.507009 .493023 .870016 63.9142 138.65)"/><g fill="url(#h)"><path d="m0 0h3.52524v61.3591h-3.52524z" transform="matrix(.86194 -.507011 .493022 .870017 76.5656 146.682)"/><path d="m0 0h3.52524v61.3591h-3.52524z" transform="matrix(.86194 -.507011 .493022 .870017 82.6398 143.107)"/><path d="m0 0h3.52524v61.3591h-3.52524z" transform="matrix(.86194 -.507011 .493022 .870017 88.7159 139.535)"/><path d="m0 0h3.52524v61.3591h-3.52524z" transform="matrix(.86194 -.507011 .493022 .870017 94.7911 135.961)"/><path d="m0 0h3.52524v61.3591h-3.52524z" transform="matrix(.86194 -.507011 .493022 .870017 100.866 132.389)"/><path d="m0 0h3.52524v61.3591h-3.52524z" transform="matrix(.86194 -.507011 .493022 .870017 106.941 128.816)"/><path d="m0 0h3.52524v61.3591h-3.52524z" transform="matrix(.86194 -.507011 .493022 .870017 113.016 125.24)"/><path d="m0 0h3.52524v61.3591h-3.52524z" transform="matrix(.86194 -.507011 .493022 .870017 119.092 121.668)"/><path d="m0 0h3.52524v61.3591h-3.52524z" transform="matrix(.86194 -.507011 .493022 .870017 125.166 118.094)"/><path d="m0 0h3.52524v61.3591h-3.52524z" transform="matrix(.86194 -.507011 .493022 .870017 131.242 114.521)"/><path d="m0 0h3.52524v61.3591h-3.52524z" transform="matrix(.86194 -.507011 .493022 .870017 137.318 110.947)"/><path d="m0 0h3.52524v61.3591h-3.52524z" transform="matrix(.86194 -.507011 .493022 .870017 143.392 107.373)"/><path d="m0 0h3.52524v61.3591h-3.52524z" transform="matrix(.86194 -.507011 .493022 .870017 149.468 103.801)"/><path d="m0 0h3.52524v61.3591h-3.52524z" transform="matrix(.86194 -.507011 .493022 .870017 155.543 100.227)"/><path d="m0 0h3.52524v61.3591h-3.52524z" transform="matrix(.86194 -.507011 .493022 .870017 161.617 96.6543)"/><path d="m0 0h3.52524v61.3591h-3.52524z" transform="matrix(.86194 -.507011 .493022 .870017 167.693 93.0801)"/><path d="m0 0h3.52524v61.3591h-3.52524z" transform="matrix(.86194 -.507011 .493022 .870017 173.769 89.5059)"/><path d="m0 0h3.52524v61.3591h-3.52524z" transform="matrix(.86194 -.507011 .493022 .870017 179.844 85.9316)"/><path d="m0 0h3.52524v61.3591h-3.52524z" transform="matrix(.86194 -.507011 .493022 .870017 185.918 82.3594)"/><path d="m0 0h3.52524v61.3591h-3.52524z" transform="matrix(.86194 -.507011 .493022 .870017 191.993 78.7852)"/></g><path d="m0 0h3.52526v78.2554h-3.52526z" fill="url(#i)" transform="matrix(.861941 -.507009 .493024 .870016 189.738 60.5137)"/></g><ellipse cx="61.8123" cy="61.8122" fill="url(#k)" rx="61.8123" ry="61.8122" transform="matrix(.992957 -.00013222 -.496591 .876033 96.0089 46.5527)"/><ellipse cx="51.1672" cy="51.2646" fill="url(#l)" rx="51.1672" ry="51.2646" transform="matrix(.992957 -.00013222 -.496591 .876033 103.859 60.5)"/><g filter="url(#b)"><path clip-rule="evenodd" d="m183.33 73.9936c-4.686-7.8784-14.439-12.7304-28.225-12.7284-28.06.0041-62.2048 20.1137-76.2648 44.9158-6.9286 12.223-7.6869 23.304-3.3158 31.4-4.852-8.157-4.2745-19.557 2.8773-32.173 14.06-24.8023 48.2043-44.912 76.2643-44.9161 14.232-.002 24.165 5.1687 28.664 13.5017z" fill="#ff93ba" fill-opacity=".22" fill-rule="evenodd"/></g><path d="m188.067 100.686c-16.952 29.906-58.174 54.153-92.072 54.158-33.8975.004-47.6341-24.236-30.6815-54.142 16.9526-29.9057 58.1745-54.1529 92.0725-54.1574 33.897-.0046 47.634 24.2354 30.681 54.1414zm-114.5588.015c-14.6891 25.913-2.7866 46.917 26.5848 46.913 29.372-.004 65.09-21.014 79.78-46.927 14.689-25.913 2.786-46.9166-26.585-46.9127-29.372.0039-65.0906 21.0138-79.7798 46.9267z" fill="url(#m)"/><g filter="url(#c)"><path clip-rule="evenodd" d="m95.9917 154.845c33.8973-.005 75.1193-24.252 92.0723-54.158 8.366-14.7575 9.258-28.1355 3.942-37.9009 5.797 9.8264 5.086 23.5233-3.503 38.6749-16.953 29.905-58.176 54.153-92.0728 54.158-17.1694.002-29.1663-6.215-34.6227-16.238 5.6447 9.568 17.4609 15.467 34.1842 15.464zm-25.4915-20.578c-5.0556-8.518-4.4514-20.408 3.0058-33.562 14.6894-25.913 50.408-46.9229 79.779-46.9273 14.907-.0022 25.314 5.4066 30.029 14.1222-4.903-8.2609-15.129-13.3509-29.59-13.3488-29.372.0044-65.0901 21.0143-79.7795 46.9269-7.2342 12.761-8.0191 24.332-3.4443 32.789z" fill="#ff84b1" fill-opacity=".18" fill-rule="evenodd"/></g><path clip-rule="evenodd" d="m174.419 73.1151-7.447 13.1409-22.498.0001-4.872 8.5977c2.246.0928 4.398.2244 6.439.3913l1.764-3.1114 22.498.0001 7.453-13.151-3.326-5.8687zm-7.137 27.9739c.191.48.154.975-.134 1.482-2.156 3.805-17.657 6.98-36.293 7.717l-15.629 27.58h-15.9992l-.0188.021 3.319 5.857h16.029l15.63-27.581c18.636-.736 34.137-3.912 36.293-7.716.287-.507.325-1.003.133-1.483zm-55.572 14.697 3.112-5.492c-14.494-.588-25.1039-2.79-27.4489-5.636l2.9176 5.148c.8617 2.738 9.1721 4.99 21.4193 5.98zm13.403-23.6521 3.331-5.8777h-22.498l.023-.0414-.034.023 3.341 5.8961zm31.64 11.7971c2.13-.655 3.515-1.377 3.945-2.137 1.423-2.5098-8.034-4.6163-22.097-5.1993l-4.503 7.9463c-2.619.121-5.378.185-8.19.185-2.768 0-5.401-.063-7.844-.179l.009-.016-.016.005 1.445 2.549c.327.009.657.016.988.023h.091l.823.015h.242l.691.008h4.453l.708-.008h.252l.9-.016h.042c.671-.013 1.337-.03 1.996-.05h.094l.888-.028h.103l.949-.035c2.376-.094 4.678-.228 6.873-.397l2.337-4.125c5.908.245 11.004.759 14.821 1.459zm-55.03 1.595c3.793-1.169 9.957-2.12 17.307-2.682l3.554-6.2729c-14.78.582-26.6935 2.6885-28.123 5.2109-.8256 1.457 2.0026 2.777 7.262 3.744z" fill="url(#n)" fill-rule="evenodd"/><path d="m166.973 86.255 7.452-13.1507-61.026.001-7.453 13.1507 22.499-.0003-4.869 8.5917c-18.7.726-34.2746 3.9071-36.4374 7.7236-2.1629 3.816 9.8061 6.997 27.6834 7.722l-15.626 27.574 16.03-.001 15.629-27.58c18.636-.736 34.137-3.912 36.293-7.717 2.157-3.8049-9.745-6.9807-27.546-7.7161l4.872-8.5976 22.499-.0004zm-6.275 15.538c-1.422 2.51-13.264 4.615-27.976 5.2l-.949.035h-.103l-.887.028h-.095c-.659.02-1.325.037-1.996.05h-.042l-.9.016h-.252l-.708.008-4.453.001-.691-.009h-.242l-.822-.015h-.092c-.974-.02-1.93-.046-2.867-.079h-.013l-.931-.036c-14.127-.576-23.6467-2.688-22.2175-5.21 1.4296-2.5228 13.3425-4.6294 28.1235-5.2116l-4.52 7.9766c2.443.115 5.076.178 7.843.178 2.812 0 5.571-.064 8.19-.185l4.503-7.9462c14.063.5828 23.52 2.6891 22.097 5.1992z" fill="url(#o)"/><g filter="url(#d)"><path clip-rule="evenodd" d="m173.982 73.1054-7.23 12.7594-22.499.0001-4.872 8.5977c.145.006.29.0121.434.0185l4.661-8.2248h22.498l7.453-13.1509zm-6.941 27.5436c.214.495.183 1.007-.113 1.531-2.156 3.805-17.658 6.98-36.293 7.716l-15.63 27.581h-15.5851l-.2219.391h16.03l15.629-27.58c18.636-.737 34.137-3.912 36.293-7.717.376-.663.325-1.306-.109-1.922zm-52.651 9.627.211-.373c-14.7706-.6-25.5082-2.875-27.5741-5.801 1.3349 3.084 12.1668 5.52 27.3631 6.174zm13.612-24.0195.221-.3915h-22.054l-.222.3915zm32.57 14.3675c-1.597-1.9753-10.159-3.5394-21.969-4.029l-4.503 7.946c-2.619.121-5.378.185-8.19.185-2.768 0-5.401-.063-7.844-.178l.211-.372c2.32.103 4.805.159 7.41.159 2.812 0 5.571-.064 8.19-.185l4.503-7.9464c12.581.5215 21.475 2.2622 22.192 4.4204zm-66.2037 1.94c-.085-.255-.0559-.516.0946-.782 1.4149-2.4962 13.0991-4.5853 27.6681-5.1922l.233-.4099c-14.781.582-26.6942 2.6885-28.1237 5.2111-.2285.403-.1772.796.128 1.173z" fill="#ff9da3" fill-opacity=".2" fill-rule="evenodd"/></g></svg>