<svg fill="none" height="350" viewBox="0 0 409 350" width="409" xmlns="http://www.w3.org/2000/svg" xmlns:xlink="http://www.w3.org/1999/xlink"><filter id="a" color-interpolation-filters="sRGB" filterUnits="userSpaceOnUse" height="287.232" width="250.004" x="72.5748" y="5.18214"><feFlood flood-opacity="0" result="BackgroundImageFix"/><feBlend in="SourceGraphic" in2="BackgroundImageFix" mode="normal" result="shape"/><feGaussianBlur result="effect1_foregroundBlur_4_6" stdDeviation="4.25"/></filter><filter id="b" color-interpolation-filters="sRGB" filterUnits="userSpaceOnUse" height="73.6969" width="157.333" x="106.36" y="187.957"><feFlood flood-opacity="0" result="BackgroundImageFix"/><feBlend in="SourceGraphic" in2="BackgroundImageFix" mode="normal" result="shape"/><feGaussianBlur result="effect1_foregroundBlur_4_6" stdDeviation="6.9"/></filter><filter id="c" color-interpolation-filters="sRGB" filterUnits="userSpaceOnUse" height="65.9706" width="194.621" x="85.1498" y="185.158"><feFlood flood-opacity="0" result="BackgroundImageFix"/><feBlend in="SourceGraphic" in2="BackgroundImageFix" mode="normal" result="shape"/><feGaussianBlur result="effect1_foregroundBlur_4_6" stdDeviation=".55"/></filter><filter id="d" color-interpolation-filters="sRGB" filterUnits="userSpaceOnUse" height="274.561" width="201.968" x="96.1065" y="31.5436"><feFlood flood-opacity="0" result="BackgroundImageFix"/><feBlend in="SourceGraphic" in2="BackgroundImageFix" mode="normal" result="shape"/><feGaussianBlur result="effect1_foregroundBlur_4_6" stdDeviation="19.8628"/></filter><filter id="e" color-interpolation-filters="sRGB" filterUnits="userSpaceOnUse" height="198.641" width="154.295" x="119.937" y="68.8242"><feFlood flood-opacity="0" result="BackgroundImageFix"/><feBlend in="SourceGraphic" in2="BackgroundImageFix" mode="normal" result="shape"/><feGaussianBlur result="effect1_foregroundBlur_4_6" stdDeviation="19.8628"/></filter><filter id="f" color-interpolation-filters="sRGB" filterUnits="userSpaceOnUse" height="26.1903" width="60.8974" x="181.089" y="186.596"><feFlood flood-opacity="0" result="BackgroundImageFix"/><feBlend in="SourceGraphic" in2="BackgroundImageFix" mode="normal" result="shape"/><feGaussianBlur result="effect1_foregroundBlur_4_6" stdDeviation="1.5"/></filter><filter id="g" color-interpolation-filters="sRGB" filterUnits="userSpaceOnUse" height="38.0324" width="67.3023" x="177.751" y="186.015"><feFlood flood-opacity="0" result="BackgroundImageFix"/><feBlend in="SourceGraphic" in2="BackgroundImageFix" mode="normal" result="shape"/><feGaussianBlur result="effect1_foregroundBlur_4_6" stdDeviation=".260435"/></filter><filter id="h" color-interpolation-filters="sRGB" filterUnits="userSpaceOnUse" height="66.978" width="158.454" x="116.452" y="124.683"><feFlood flood-opacity="0" result="BackgroundImageFix"/><feBlend in="SourceGraphic" in2="BackgroundImageFix" mode="normal" result="shape"/><feGaussianBlur result="effect1_foregroundBlur_4_6" stdDeviation="1.05"/></filter><filter id="i" color-interpolation-filters="sRGB" filterUnits="userSpaceOnUse" height="39.1815" width="16.7729" x="275.229" y="117.03"><feFlood flood-opacity="0" result="BackgroundImageFix"/><feBlend in="SourceGraphic" in2="BackgroundImageFix" mode="normal" result="shape"/><feGaussianBlur result="effect1_foregroundBlur_4_6" stdDeviation=".242236"/></filter><linearGradient id="j"><stop offset="0" stop-color="#27212b" stop-opacity="0"/><stop offset="1" stop-color="#81557e"/></linearGradient><radialGradient id="k" cx="0" cy="0" gradientTransform="matrix(-207.39283261 18.43999739 -24.95936999 -280.71557345 195.519 175.31)" gradientUnits="userSpaceOnUse" r="1" xlink:href="#j"/><radialGradient id="l" cx="0" cy="0" gradientTransform="matrix(-216.71797449 4.88395944 -5.61675726 -249.23471837 213.508 135.591)" gradientUnits="userSpaceOnUse" r="1" xlink:href="#j"/><radialGradient id="m" cx="0" cy="0" gradientTransform="matrix(207.41291096 26.72052574 -16.50887857 128.14697563 172.431 270.682)" gradientUnits="userSpaceOnUse" r="1" xlink:href="#j"/><linearGradient id="n" gradientUnits="userSpaceOnUse" x1="312.95" x2="351.727" y1="262.99" y2="35.9809"><stop offset="0" stop-color="#27212b" stop-opacity="0"/><stop offset=".997481" stop-color="#81557e"/></linearGradient><linearGradient id="o" gradientUnits="userSpaceOnUse" x1="182.486" x2="138.859" xlink:href="#j" y1="224.581" y2="322.326"/><linearGradient id="p" gradientUnits="userSpaceOnUse" x1="132.118" x2="365.775" y1="251.448" y2="38.7503"><stop offset="0" stop-color="#332837"/><stop offset="1" stop-color="#36293b"/></linearGradient><radialGradient id="q" cx="0" cy="0" gradientTransform="matrix(81.27964282 -28.67459391 24.13077528 68.39995021 182.486 224.58)" gradientUnits="userSpaceOnUse" r="1"><stop offset="0" stop-color="#36293b"/><stop offset="1" stop-color="#594163"/></radialGradient><linearGradient id="r"><stop offset="0" stop-color="#ff8f96"/><stop offset=".9375" stop-color="#e35760"/></linearGradient><radialGradient id="s" cx="0" cy="0" gradientTransform="matrix(0 80.4094 -82.4683 0 82.4683 80.4094)" gradientUnits="userSpaceOnUse" r="1" xlink:href="#r"/><radialGradient id="t" cx="0" cy="0" gradientTransform="matrix(0 49.1209 -50.3787 0 50.3787 49.1209)" gradientUnits="userSpaceOnUse" r="1" xlink:href="#r"/><linearGradient id="u" gradientUnits="userSpaceOnUse" x1="254.221" x2="156.708" y1="200.256" y2="204.269"><stop offset="0" stop-color="#302634"/><stop offset=".38" stop-color="#4f3456"/><stop offset=".665322" stop-color="#ff656f"/><stop offset="1" stop-color="#fbff5c"/></linearGradient><linearGradient id="v"><stop offset="0" stop-color="#302634"/><stop offset="1" stop-color="#302634" stop-opacity="0"/></linearGradient><linearGradient id="w" gradientUnits="userSpaceOnUse" x1="1.64795" x2="-.110067" xlink:href="#v" y1="15.7947" y2="15.7935"/><linearGradient id="x" gradientUnits="userSpaceOnUse" x1="1.64794" x2="-.110066" xlink:href="#v" y1="12.9742" y2="12.9727"/><linearGradient id="y" gradientUnits="userSpaceOnUse" x1="1.64795" x2="-.110067" xlink:href="#v" y1="16.5469" y2="16.5457"/><radialGradient id="z" cx="0" cy="0" gradientTransform="matrix(-24.30055544 45.29376609 -78.02267305 -41.85993914 39.6761 7.26128)" gradientUnits="userSpaceOnUse" r="1"><stop offset="0" stop-color="#81557e"/><stop offset="1" stop-color="#36293b"/></radialGradient><radialGradient id="A" cx="0" cy="0" gradientTransform="matrix(-2.99391624 -67.77390402 78.76978037 -3.47965973 8.71883 63.9667)" gradientUnits="userSpaceOnUse" r="1"><stop offset="0" stop-color="#5d3548"/><stop offset="1" stop-color="#423046"/></radialGradient><radialGradient id="B" cx="0" cy="0" gradientTransform="matrix(89.25303038 5.86464303 -6.17492416 93.97514738 180.437 189.723)" gradientUnits="userSpaceOnUse" r="1"><stop offset="0" stop-color="#c44b53"/><stop offset=".5" stop-color="#36293b"/><stop offset="1" stop-color="#81557e"/></radialGradient><linearGradient id="C"><stop offset="0" stop-color="#302634"/><stop offset=".277845" stop-color="#c4475c"/><stop offset=".424337" stop-color="#e35760"/><stop offset=".630401" stop-color="#e35760"/><stop offset=".843734" stop-color="#c4475c"/><stop offset="1" stop-color="#302634"/></linearGradient><linearGradient id="D" gradientUnits="userSpaceOnUse" x1="273.492" x2="124.862" xlink:href="#C" y1="128.342" y2="129.772"/><linearGradient id="E" gradientUnits="userSpaceOnUse" x1="82.0098" x2="258.067" y1="181.863" y2="113.748"><stop offset="0" stop-color="#fbff5c"/><stop offset=".370478" stop-color="#e35760"/><stop offset=".825209" stop-color="#302634"/></linearGradient><linearGradient id="F" gradientUnits="userSpaceOnUse" x1="277.481" x2="116.559" y1="134.759" y2="184.192"><stop offset="0" stop-color="#ff9da3"/><stop offset="1" stop-color="#f2f3be"/></linearGradient><linearGradient id="G" gradientUnits="userSpaceOnUse" x1="273.858" x2="-152.815" xlink:href="#C" y1="128.569" y2="101.164"/><linearGradient id="H" gradientUnits="userSpaceOnUse" x1="-13.7745" x2="268.82" y1="223.144" y2="130.145"><stop offset="0" stop-color="#fbff5c"/><stop offset=".370478" stop-color="#e35760"/><stop offset=".825209" stop-color="#29222c"/></linearGradient><linearGradient id="I" gradientUnits="userSpaceOnUse" x1="276.299" x2="278.686" y1="154.423" y2="155.187"><stop offset=".00591728" stop-color="#3b2937"/><stop offset="1" stop-color="#e15760"/></linearGradient><linearGradient id="J" gradientUnits="userSpaceOnUse" x1="270.828" x2="307.18" y1="138.674" y2="128.76"><stop offset="0" stop-color="#302634"/><stop offset="1" stop-color="#e35760"/></linearGradient><linearGradient id="K" gradientUnits="userSpaceOnUse" x1="43.7108" x2="336.575" y1="222.207" y2="112.891"><stop offset="0" stop-color="#27212b"/><stop offset=".25" stop-color="#ff656f"/><stop offset=".5" stop-color="#ff9da3"/><stop offset=".75" stop-color="#df5b64"/><stop offset="1" stop-color="#27212b"/></linearGradient><mask id="L" height="34" maskUnits="userSpaceOnUse" width="68" x="178" y="199"><path d="m191.047 229.837c13.918 5.71 34.856 2.88 46.766-6.322 6.033-4.661 8.592-10.063 7.84-15.002l-1.261-9.452-66.197 8.555 1.376 10.222c.733 4.81 4.608 9.181 11.476 11.999z" fill="#a97578"/></mask><path d="m121.797 101.427c14.194-48.2119 64.784-75.789 112.996-61.5951 48.212 14.1938 75.789 64.7841 61.595 112.9961l-44.905 152.527-174.5908-51.401z" fill="url(#k)" fill-opacity=".01"/><path d="m126.881 84.1606c15.129-51.3908 69.055-80.78615 120.446-65.6564 51.39 15.1297 80.786 69.0552 65.656 120.4458l-33.608 114.156-186.1025-54.79z" fill="url(#l)"/><path d="m276.268 263.658c-15.13 51.39-69.055 80.786-120.446 65.656-51.391-15.13-80.7861-69.055-65.6564-120.446l3.1067-10.552 186.1027 54.789z" fill="url(#m)"/><path clip-rule="evenodd" d="m243.946 17.5728c-50.354-12.90102-102.267 16.3217-117.065 66.5868l-33.6085 114.1554 179.3875 52.813-186.1026-54.789 33.6076-114.1559c15.13-51.3908 69.056-80.78619 120.446-65.6565 1.123.3304 2.234.6793 3.335 1.0462zm0 0c1.128.2889 2.255.599 3.381.9304 51.39 15.1297 80.786 69.0552 65.656 120.4458l-33.608 114.156-6.715-1.977 33.608-114.155c14.799-50.2689-13.003-102.9628-62.322-119.4002z" fill="url(#n)" fill-rule="evenodd"/><path clip-rule="evenodd" d="m152.486 328.268c50.355 12.901 102.269-16.321 117.067-66.587l3.107-10.552-179.3878-52.813 186.1028 54.79-3.107 10.552c-15.13 51.391-69.055 80.786-120.446 65.656-1.122-.33-2.234-.679-3.336-1.046zm0 0c-1.127-.289-2.253-.599-3.379-.93-51.3906-15.13-80.7859-69.056-65.6562-120.446l3.1066-10.553 6.7148 1.977-3.1066 10.552c-14.7992 50.268 13.0024 102.962 62.3204 119.4z" fill="url(#o)" fill-rule="evenodd"/><g filter="url(#a)"><path clip-rule="evenodd" d="m244.449 17.6563c-51.391-15.12974-105.317 14.2657-120.446 65.6564l-42.9282 145.8123 7.6743 2.259 43.0879-146.356c13.882-47.1523 63.36-74.1234 110.512-60.2415 47.153 13.8819 74.124 63.36 60.242 110.5125l-43.088 146.356 7.674 2.259 42.928-145.812c15.13-51.3905-14.266-105.316-65.656-120.4457z" fill="#ebb1f3" fill-opacity=".11" fill-rule="evenodd"/></g><path d="m248.286 18.7863-8.634-2.5418c-50.331-14.81775-103.145 13.9716-117.962 64.3027l-37.5623 127.5858c-14.8177 50.331 13.6892 104.104 64.0203 118.922-50.8609-14.974-79.9533-68.344-64.9795-119.205l37.5615-127.5852c14.974-50.861 68.344-79.953318 119.205-64.9796l8.633 2.5418c27.043 7.9614 46.929 27.0035 58.312 50.5254-11.287-23.1793-31.914-41.7112-58.594-49.5661z" fill="#ff9da3" fill-opacity=".35"/><path clip-rule="evenodd" d="m280.219 250.228c-3.752 11.189-49.223 7.737-101.934-7.781-52.713-15.519-92.8017-37.258-89.8882-48.694-.0011 0-.0022 0-.0034 0l-6.072 20.624c-3.3534 11.391 36.8706 33.267 89.8426 48.862s98.633 19.004 101.986 7.614l6.071-20.622c-.001-.001-.001-.002-.002-.003z" fill="url(#p)" fill-rule="evenodd"/><ellipse cx="182.486" cy="224.58" fill="#d9d9d9" rx="100" ry="27" transform="matrix(.95929081 .28242015 -.28242015 .95929081 70.854774 -42.395254)"/><ellipse cx="182.486" cy="224.58" fill="url(#q)" rx="100" ry="27" transform="matrix(.95929081 .28242015 -.28242015 .95929081 70.854774 -42.395254)"/><g filter="url(#b)"><ellipse cx="185.026" cy="224.806" fill="#302634" fill-opacity=".74" rx="67.5" ry="13.5" transform="matrix(.95929081 .28242015 -.28242015 .95929081 71.022002 -43.1034)"/></g><g filter="url(#c)"><path clip-rule="evenodd" d="m278.671 250.029c-4.405-14.479-40.938-35.244-88.15-49.144-52.972-15.595-99.3284-16.641-103.5398-2.337-.2624.891-.355 1.821-.2851 2.785-.5374-1.766-.5966-3.439-.1387-4.995 4.2113-14.304 50.5676-13.258 103.5396 2.337 49.672 14.624 87.523 36.848 88.574 51.354z" fill="#ff9da3" fill-opacity=".1" fill-rule="evenodd"/></g><g filter="url(#d)"><ellipse cx="82.4683" cy="80.4094" fill="url(#s)" fill-opacity=".2" rx="82.4683" ry="80.4094" transform="matrix(.689442 -.724341 .283011 .959117 117.477 151.437)"/></g><g filter="url(#e)"><ellipse cx="50.3787" cy="49.1209" fill="url(#t)" fill-opacity=".38" rx="50.3787" ry="49.1209" transform="matrix(.689442 -.724341 .283011 .959117 148.45 157.523)"/></g><path d="m191.046 229.837c13.918 5.71 34.856 2.88 46.766-6.322 6.033-4.661 8.593-10.064 7.84-15.003l-1.261-9.452-66.197 8.555 1.376 10.222c.733 4.811 4.609 9.182 11.476 12z" fill="url(#u)"/><g fill-opacity=".2" mask="url(#L)"><path d="m0 0h1.5574v32.7044h-1.5574z" fill="url(#w)" transform="matrix(.990987 -.133961 .133428 .991058 179.257 208.252)"/><g fill="url(#x)"><path d="m0 0h1.5574v26.8643h-1.5574z" transform="matrix(.990986 -.133962 .133427 .991059 183.122 213.623)"/><path d="m0 0h1.5574v26.8643h-1.5574z" transform="matrix(.990986 -.133962 .133427 .991059 186.207 213.206)"/><path d="m0 0h1.5574v26.8643h-1.5574z" transform="matrix(.990986 -.133962 .133427 .991059 189.293 212.789)"/><path d="m0 0h1.5574v26.8643h-1.5574z" transform="matrix(.990986 -.133962 .133427 .991059 192.379 212.372)"/><path d="m0 0h1.5574v26.8643h-1.5574z" transform="matrix(.990986 -.133962 .133427 .991059 195.464 211.955)"/><path d="m0 0h1.5574v26.8643h-1.5574z" transform="matrix(.990986 -.133962 .133427 .991059 198.55 211.538)"/><path d="m0 0h1.5574v26.8643h-1.5574z" transform="matrix(.990986 -.133962 .133427 .991059 201.635 211.12)"/><path d="m0 0h1.5574v26.8643h-1.5574z" transform="matrix(.990986 -.133962 .133427 .991059 204.722 210.703)"/><path d="m0 0h1.5574v26.8643h-1.5574z" transform="matrix(.990986 -.133962 .133427 .991059 207.807 210.286)"/><path d="m0 0h1.5574v26.8643h-1.5574z" transform="matrix(.990986 -.133962 .133427 .991059 210.894 209.869)"/><path d="m0 0h1.5574v26.8643h-1.5574z" transform="matrix(.990986 -.133962 .133427 .991059 213.979 209.452)"/><path d="m0 0h1.5574v26.8643h-1.5574z" transform="matrix(.990986 -.133962 .133427 .991059 217.065 209.035)"/><path d="m0 0h1.5574v26.8643h-1.5574z" transform="matrix(.990986 -.133962 .133427 .991059 220.15 208.618)"/><path d="m0 0h1.5574v26.8643h-1.5574z" transform="matrix(.990986 -.133962 .133427 .991059 223.236 208.2)"/><path d="m0 0h1.5574v26.8643h-1.5574z" transform="matrix(.990986 -.133962 .133427 .991059 226.321 207.784)"/><path d="m0 0h1.5574v26.8643h-1.5574z" transform="matrix(.990986 -.133962 .133427 .991059 229.407 207.366)"/><path d="m0 0h1.5574v26.8643h-1.5574z" transform="matrix(.990986 -.133962 .133427 .991059 232.493 206.949)"/><path d="m0 0h1.5574v26.8643h-1.5574z" transform="matrix(.990986 -.133962 .133427 .991059 235.579 206.532)"/><path d="m0 0h1.5574v26.8643h-1.5574z" transform="matrix(.990986 -.133962 .133427 .991059 238.664 206.115)"/><path d="m0 0h1.5574v26.8643h-1.5574z" transform="matrix(.990986 -.133962 .133427 .991059 241.75 205.698)"/></g><path d="m0 0h1.55741v34.2618h-1.55741z" fill="url(#y)" transform="matrix(.990987 -.133961 .133429 .991058 243.848 197.95)"/></g><ellipse cx="27.2458" cy="27.2458" fill="url(#z)" rx="27.2458" ry="27.2458" transform="matrix(.924938 .379521 -.791503 .611536 207.677 176.527)"/><ellipse cx="22.5537" cy="22.5966" fill="url(#A)" rx="22.5537" ry="22.5966" transform="matrix(.924938 .379521 -.791503 .611536 208.591 183.474)"/><g filter="url(#f)"><path clip-rule="evenodd" d="m238.986 202.304c-.622-3.964-3.822-7.563-9.481-9.884-11.521-4.727-28.868-2.373-38.746 5.259-4.869 3.762-7.014 8.104-6.558 12.107-.644-4.108 1.48-8.609 6.506-12.493 9.878-7.632 27.225-9.986 38.746-5.259 5.842 2.397 9.064 6.154 9.533 10.27z" fill="#ff93ba" fill-opacity=".22" fill-rule="evenodd"/></g><path d="m236.514 213.87c-11.91 9.202-32.848 12.032-46.766 6.321-13.918-5.71-15.546-17.8-3.636-27.002s32.848-12.032 46.766-6.321 15.546 17.8 3.636 27.002zm-47.037-19.3c-10.32 7.973-8.91 18.448 3.15 23.397 12.06 4.948 30.202 2.496 40.522-5.478 10.32-7.973 8.909-18.448-3.15-23.397-12.06-4.948-30.202-2.496-40.522 5.478z" fill="url(#B)"/><g filter="url(#g)"><path clip-rule="evenodd" d="m189.746 220.19c13.918 5.711 34.856 2.88 46.766-6.321 5.88-4.543 8.461-9.79 7.891-14.626.757 4.941-1.802 10.347-7.839 15.011-11.91 9.202-32.848 12.032-46.766 6.322-7.046-2.891-10.942-7.417-11.526-12.376.736 4.807 4.611 9.174 11.474 11.99zm-7.059-12.588c-.669-4.288 1.547-8.983 6.788-13.033 10.32-7.973 28.463-10.425 40.522-5.477 6.118 2.51 9.495 6.443 9.991 10.749-.648-4.155-4.004-7.928-9.939-10.363-12.059-4.948-30.201-2.496-40.521 5.477-5.085 3.929-7.322 8.464-6.841 12.647z" fill="#ff84b1" fill-opacity=".18" fill-rule="evenodd"/></g><path d="m144.234 169.193c-11.952 4.39-21.437 3.906-28.505 1.757l3.929 17.317c7.067 2.148 16.553 2.632 28.505-1.757 7.408-2.721 13.023-6.001 18.451-9.173l.017-.01c8.411-4.915 16.357-9.556 29.062-10.576 9.833-.79 15.742.355 20.955 1.366h.002c7.53 1.462 13.479 2.615 28.124-2.207 8.84-2.91 16.109-8.584 20.65-12.833 4.909-4.591 7.776-8.554 7.862-8.673l.002-.002-3.931-17.316-.001.002c-.086.119-2.954 4.081-7.862 8.673-4.542 4.248-11.81 9.923-20.65 12.833-14.643 4.82-20.591 3.667-28.123 2.207l-.001-.001c-5.213-1.01-11.122-2.156-20.957-1.366-12.704 1.019-20.65 5.661-29.061 10.576l-.004.002c-5.433 3.174-11.051 6.457-18.464 9.181z" fill="url(#D)"/><path d="m144.234 169.193c-11.952 4.39-21.437 3.906-28.505 1.757l3.929 17.317c7.067 2.148 16.553 2.632 28.505-1.757 7.408-2.721 13.023-6.001 18.451-9.173l.017-.01c8.411-4.915 16.357-9.556 29.062-10.576 9.833-.79 15.742.355 20.955 1.366h.002c7.53 1.462 13.479 2.615 28.124-2.207 8.84-2.91 16.109-8.584 20.65-12.833 4.909-4.591 7.776-8.554 7.862-8.673l.002-.002-3.931-17.316-.001.002c-.086.119-2.954 4.081-7.862 8.673-4.542 4.248-11.81 9.923-20.65 12.833-14.643 4.82-20.591 3.667-28.123 2.207l-.001-.001c-5.213-1.01-11.122-2.156-20.957-1.366-12.704 1.019-20.65 5.661-29.061 10.576l-.004.002c-5.433 3.174-11.051 6.457-18.464 9.181z" fill="url(#E)"/><g filter="url(#h)"><path clip-rule="evenodd" d="m118.552 185.213c7.065 2.144 16.546 2.624 28.488-1.762 7.408-2.721 13.023-6.001 18.451-9.173h.001l.016-.01c8.411-4.915 16.357-9.556 29.062-10.576 9.833-.79 15.742.356 20.955 1.366l.002.001c7.531 1.461 13.479 2.614 28.125-2.208 8.839-2.909 16.108-8.584 20.649-12.833 4.909-4.591 7.776-8.554 7.862-8.673l.002-.002-3.301-14.545c.004-.006.007-.01.009-.013l.002-.002 3.93 17.316-.002.002v.001c-.089.123-2.956 4.083-7.861 8.672-4.541 4.249-11.811 9.923-20.65 12.833-14.645 4.822-20.594 3.669-28.125 2.207h-.002c-5.212-1.011-11.122-2.156-20.955-1.366-12.705 1.02-20.65 5.661-29.062 10.576l-.016.01c-5.429 3.172-11.044 6.452-18.452 9.173-11.951 4.39-21.437 3.905-28.504 1.757z" fill="url(#F)" fill-opacity=".29" fill-rule="evenodd"/></g><path clip-rule="evenodd" d="m119.4 185.742c7.066 2.144 16.546 2.625 28.489-1.762 7.408-2.721 13.022-6.001 18.451-9.172l.017-.01c8.411-4.915 16.357-9.557 29.062-10.577 9.833-.79 15.742.356 20.955 1.366l.002.001c7.53 1.461 13.479 2.614 28.124-2.207 8.84-2.91 16.109-8.585 20.65-12.834 4.909-4.591 7.776-8.554 7.862-8.672l.002-.003-3.302-14.545c.005-.006.008-.01.01-.012v-.001l.002-.002 3.93 17.316-.002.003c-.089.123-2.956 4.084-7.862 8.672-4.541 4.249-11.81 9.924-20.65 12.834-14.645 4.821-20.593 3.668-28.124 2.207l-.002-.001c-5.213-1.01-11.122-2.156-20.955-1.366-12.705 1.02-20.651 5.662-29.062 10.577l-.017.009c-5.428 3.172-11.043 6.452-18.451 9.173-11.952 4.39-21.437 3.905-28.505 1.757z" fill="url(#G)" fill-rule="evenodd"/><path clip-rule="evenodd" d="m119.4 185.742c7.066 2.144 16.546 2.625 28.489-1.762 7.408-2.721 13.022-6.001 18.451-9.172l.017-.01c8.411-4.915 16.357-9.557 29.062-10.577 9.833-.79 15.742.356 20.955 1.366l.002.001c7.53 1.461 13.479 2.614 28.124-2.207 8.84-2.91 16.109-8.585 20.65-12.834 4.909-4.591 7.776-8.554 7.862-8.672l.002-.003-3.302-14.545c.005-.006.008-.01.01-.012v-.001l.002-.002 3.93 17.316-.002.003c-.089.123-2.956 4.084-7.862 8.672-4.541 4.249-11.81 9.924-20.65 12.834-14.645 4.821-20.593 3.668-28.124 2.207l-.002-.001c-5.213-1.01-11.122-2.156-20.955-1.366-12.705 1.02-20.651 5.662-29.062 10.577l-.017.009c-5.428 3.172-11.043 6.452-18.451 9.173-11.952 4.39-21.437 3.905-28.505 1.757z" fill="url(#H)" fill-rule="evenodd"/><path d="m291.105 117.262 1.598.471-15.617 38.208-1.598-.472z" fill="url(#I)"/><path d="m291.109 117.264-15.618 38.205-9.039-38.406z" fill="url(#J)"/><g filter="url(#i)"><path clip-rule="evenodd" d="m275.713 154.926.189.801 15.615-38.209-.514-.004z" fill="#ff9da3" fill-opacity=".29" fill-rule="evenodd"/></g><path d="m41.5169 188.737c5.9682 42.704 80.1591 67.63 165.7091 55.673 85.551-11.956 150.065-56.267 144.097-98.971-1.534-10.975-7.574-20.776-17.156-29.079" opacity=".48" stroke="url(#K)" stroke-width=".7"/></svg>