<svg width="757" height="200" viewBox="0 0 757 200" fill="none" xmlns="http://www.w3.org/2000/svg">
    <g clip-path="url(#clip0)">
        <path fill-rule="evenodd" clip-rule="evenodd"
              d="M87.7235 34.6186C90.1133 35.8377 91.9217 37.9553 92.7514 40.5063C93.5812 43.0574 93.3645 45.8334 92.149 48.2249L23.0903 184.019C21.876 186.405 19.7639 188.211 17.218 189.041C14.6722 189.871 11.9011 189.656 9.51363 188.444L9.50113 188.437C7.11082 187.217 5.30238 185.098 4.47267 182.546C3.64297 179.994 3.8598 177.217 5.07557 174.825L74.1343 39.0311C75.3486 36.6449 77.4607 34.8385 80.0066 34.0087C82.5524 33.179 85.3235 33.3938 87.711 34.6061L87.7235 34.6186ZM102.338 83.5999C104.727 84.8201 106.534 86.9381 107.362 89.489C108.191 92.04 107.973 94.8154 106.757 97.2061L62.6078 184.019C61.3935 186.405 59.2813 188.211 56.7355 189.041C54.1897 189.871 51.4185 189.656 49.0311 188.444L49.0186 188.437C46.6282 187.217 44.82 185.098 43.9914 182.546C43.1627 179.993 43.3814 177.216 44.5993 174.825L88.7486 88.0124C89.3485 86.8305 90.1757 85.7784 91.1827 84.9165C92.1898 84.0545 93.3569 83.3996 94.6174 82.9892C95.8778 82.5788 97.2069 82.4209 98.5284 82.5246C99.85 82.6283 101.138 82.9916 102.319 83.5936H102.338V83.5999ZM122.165 123.987C124.555 125.206 126.364 127.324 127.193 129.875C128.023 132.426 127.806 135.202 126.591 137.594L102.982 184.019C101.767 186.405 99.6552 188.211 97.1093 189.041C94.5635 189.871 91.7924 189.656 89.4049 188.444L89.3924 188.437C87.0021 187.217 85.1937 185.098 84.364 182.546C83.5343 179.994 83.7511 177.217 84.9669 174.825L108.576 128.4C109.177 127.218 110.005 126.167 111.013 125.305C112.021 124.444 113.188 123.789 114.449 123.379C115.71 122.968 117.039 122.81 118.361 122.914C119.683 123.017 120.971 123.38 122.153 123.981H122.165V123.987Z"
              fill="#7A7A7A"/>
        <path d="M143.418 12.8375C143.436 58.3875 177.341 106.844 216.846 120.55C219.381 121.432 222.162 121.272 224.579 120.105C226.996 118.938 228.85 116.859 229.735 114.325C230.612 111.79 230.446 109.01 229.274 106.597C228.102 104.184 226.019 102.335 223.484 101.456C192.193 90.6063 163.689 49.8563 163.67 12.85C163.672 10.1647 162.607 7.58869 160.709 5.68872C158.811 3.78874 156.236 2.72041 153.55 2.71875C150.865 2.71709 148.288 3.78224 146.388 5.67988C144.488 7.57751 143.419 10.1522 143.418 12.8375V12.8375ZM73.5214 12.6625C71.5524 98.95 130.679 175.788 215.989 195.475C217.283 195.776 218.624 195.82 219.935 195.603C221.246 195.386 222.501 194.912 223.629 194.21C224.757 193.508 225.735 192.59 226.509 191.51C227.282 190.429 227.834 189.207 228.135 187.913C228.733 185.298 228.27 182.552 226.846 180.279C225.422 178.006 223.154 176.39 220.54 175.788C144.63 158.263 92.0112 89.8875 93.7614 13.1375C93.8184 10.4546 92.8086 7.85867 90.9535 5.91942C89.0984 3.98018 86.5496 2.85605 83.8664 2.79375C81.1849 2.73 78.5879 3.73391 76.6467 5.58465C74.7055 7.43539 73.579 9.98135 73.5151 12.6625H73.5214Z"
              fill="#7A7A7A"/>
        <path d="M108.295 12.6248C106.72 79.1436 152.257 141.887 216.096 156.625C218.711 157.229 221.459 156.771 223.737 155.351C226.014 153.93 227.634 151.664 228.241 149.05C228.84 146.435 228.376 143.69 226.952 141.417C225.528 139.143 223.26 137.528 220.646 136.925C166.452 124.419 127.191 70.3123 128.541 13.1248C128.594 10.4484 127.584 7.86005 125.733 5.92596C123.882 3.99187 121.34 2.86943 118.664 2.80416C115.987 2.73889 113.394 3.73609 111.451 5.57765C109.507 7.41921 108.373 9.95525 108.295 12.6311V12.6248Z"
              fill="#7A7A7A"/>
        <path d="M270.596 157.206C270.596 139.788 283.16 125.531 299.7 125.531C308.388 125.531 315.639 130.038 319.015 134.906V126.75H332.298V187.669H319.015V179.506C315.639 184.381 308.388 188.888 299.7 188.888C283.154 188.888 270.596 174.638 270.596 157.206V157.206ZM320.102 157.206C320.102 146.244 312.858 137.713 302.113 137.713C291.361 137.713 284.123 146.244 284.123 157.213C284.123 168.175 291.368 176.706 302.113 176.706C312.858 176.706 320.102 168.175 320.102 157.206ZM350.294 187.669V96.2875H363.57V187.669H350.287H350.294ZM387.111 187.669V138.688H374.559V126.75H387.117V116.513C387.117 102.869 396.168 95.5563 407.763 95.5563C411.864 95.5563 415.127 96.1625 417.665 97.0188V108.956C415.376 108.147 412.966 107.735 410.539 107.738C403.657 107.738 400.394 110.544 400.394 118.1V126.75H417.665V138.688H400.394V187.669H387.117H387.111ZM423.94 157.206C423.94 139.788 436.498 125.531 453.038 125.531C461.733 125.531 468.977 130.038 472.353 134.906V126.75H485.642V187.669H472.359V179.506C468.984 184.381 461.733 188.888 453.044 188.888C436.498 188.888 423.94 174.638 423.94 157.206V157.206ZM473.447 157.206C473.447 146.244 466.196 137.713 455.457 137.713C444.706 137.713 437.467 146.244 437.467 157.213C437.467 168.175 444.706 176.706 455.457 176.706C466.202 176.706 473.447 168.175 473.447 157.206ZM559.295 172.075C554.107 182.188 543.599 188.888 531.16 188.888C513.052 188.888 499.281 175.244 499.281 157.206C499.281 139.175 513.052 125.531 531.16 125.531C543.599 125.531 554.101 132.231 559.289 142.344L547.7 148.681C544.806 142.469 538.886 137.956 531.16 137.956C520.409 137.956 512.808 146.363 512.808 157.206C512.808 168.056 520.415 176.456 531.16 176.456C538.886 176.456 544.806 171.956 547.7 165.738L559.295 172.075V172.075ZM567.14 157.206C567.14 139.788 579.704 125.531 596.243 125.531C604.932 125.531 612.183 130.038 615.558 134.906V126.75H628.841V187.669H615.558V179.506C612.183 184.381 604.932 188.888 596.243 188.888C579.698 188.888 567.14 174.638 567.14 157.206V157.206ZM616.646 157.206C616.646 146.244 609.401 137.713 598.656 137.713C587.905 137.713 580.666 146.244 580.666 157.213C580.666 168.175 587.911 176.706 598.656 176.706C609.401 176.706 616.646 168.175 616.646 157.206ZM687.886 170C687.886 181.7 678.466 188.888 666.027 188.888C655.282 188.888 646.106 184.625 641.762 175.975L651.538 168.906C653.957 174.269 659.87 177.313 666.027 177.313C670.74 177.313 674.722 175.125 674.722 170.856C674.722 167.325 672.672 165.25 665.427 163.056L660.114 161.594C649.613 158.669 644.174 151.969 644.299 142.956C644.418 132.106 653.832 125.531 665.908 125.531C674.966 125.531 682.085 129.188 686.317 135.888L677.135 142.95C674.484 139.175 670.615 136.738 665.665 136.738C661.683 136.738 657.576 138.813 657.576 142.469C657.576 145.388 658.908 147.95 664.827 149.656L670.978 151.481C681.604 154.65 687.886 160.013 687.886 170V170ZM701.65 187.669V96.2875H714.927V135.038C718.553 128.944 725.435 125.531 733.286 125.531C747.287 125.531 756.345 135.519 756.345 150.994V187.669H743.062V153.188C743.062 143.563 738.236 137.713 730.504 137.713C721.69 137.713 714.927 144.656 714.927 157.694V187.669H701.65Z"
              fill="#7A7A7A"/>
    </g>
    <defs>
        <clipPath id="clip0">
            <rect width="756.345" height="200" fill="#7A7A7A"/>
        </clipPath>
    </defs>
</svg>
