<svg enable-background="new 0 0 485.885 128" height="128" viewBox="0 0 485.885 128" width="485.885"
     xmlns="http://www.w3.org/2000/svg">
    <g fill="#7a7a7a">
        <path d="m249.547 42.756c-5.014 18.472-10.83 35.208-17.449 50.208-1.239 2.786-2.513 5.174-3.816 7.159-1.304 1.984-2.762 3.626-4.374 4.928-1.614 1.302-3.415 2.242-5.399 2.836-1.985.587-4.281.884-6.887.884-1.739 0-3.462-.187-5.168-.558-1.704-.372-2.993-.776-3.862-1.209l2.045-9.019c2.242.869 4.453 1.302 6.633 1.302 2.925 0 5.214-.698 6.864-2.092 1.65-1.396 3.096-3.55 4.343-6.464-3.548-6.814-6.958-14.254-10.226-22.314-3.268-8.057-6.178-16.611-8.73-25.66h11.994c.623 2.603 1.384 5.423 2.287 8.46.901 3.039 1.882 6.121 2.94 9.25 1.056 3.131 2.176 6.245 3.357 9.347 1.183 3.099 2.365 5.981 3.548 8.644 1.974-5.515 3.824-11.387 5.553-17.618 1.729-6.23 3.303-12.258 4.723-18.084z"/>
        <path d="m303.913 67.116c0 3.717-.481 7.129-1.441 10.226-.963 3.1-2.339 5.765-4.137 7.999-1.799 2.23-4.045 3.964-6.742 5.206-2.697 1.238-5.747 1.857-9.155 1.857-2.296 0-4.403-.278-6.324-.837-1.923-.558-3.503-1.175-4.741-1.858v18.874h-11.251v-64.247c2.292-.619 5.113-1.209 8.461-1.767 3.346-.558 6.879-.836 10.598-.836 3.845 0 7.284.59 10.321 1.765 3.036 1.18 5.627 2.869 7.764 5.068 2.137 2.2 3.781 4.866 4.928 7.996 1.145 3.13 1.719 6.647 1.719 10.554zm-11.529.185c0-5.02-1.133-8.926-3.393-11.714-2.264-2.791-5.905-4.185-10.925-4.185-1.055 0-2.156.046-3.301.137-1.147.093-2.277.296-3.393.605v27.802c.991.683 2.305 1.316 3.95 1.906 1.643.59 3.393.884 5.254.884 4.093 0 7.081-1.395 8.971-4.185 1.893-2.791 2.837-6.539 2.837-11.25z"/>
        <path d="m380.376 91.381h-11.252v-26.869c0-1.982.094-3.843.281-5.58.184-1.735.527-3.378 1.021-4.925-.804-.558-2.013-1.133-3.627-1.722-1.609-.588-3.315-.883-5.114-.883-3.533 0-5.918 1.133-7.159 3.394-1.237 2.26-1.858 5.935-1.858 11.017v25.567h-11.252v-27.335c0-3.285.265-6.306.791-9.063.527-2.757 1.488-5.114 2.88-7.066 1.396-1.954 3.318-3.474 5.767-4.558 2.449-1.083 5.564-1.626 9.344-1.626 1.487 0 2.96.154 4.417.463 1.459.311 2.835.698 4.137 1.163 1.304.465 2.479.977 3.535 1.534 1.053.558 1.921 1.085 2.602 1.581 1.426-1.426 3.207-2.571 5.346-3.442 2.138-.866 4.884-1.299 8.228-1.299 3.906 0 7.611.277 11.11.836 3.504.558 6.338 1.148 8.509 1.767v47.045h-11.249v-39.236c-.743-.122-1.861-.276-3.348-.464-1.486-.186-2.85-.278-4.093-.278-3.469 0-5.838 1.133-7.109 3.394-1.271 2.26-1.906 5.935-1.906 11.017v25.568z"/>
        <path d="m418.679 67.301c0-4.278.635-8.026 1.907-11.251 1.268-3.222 2.959-5.903 5.068-8.042 2.104-2.138 4.521-3.75 7.251-4.834 2.725-1.084 5.515-1.63 8.367-1.63 6.695 0 11.917 2.081 15.668 6.232 3.75 4.153 5.625 10.353 5.625 18.595 0 .623-.015 1.318-.048 2.091-.029.777-.074 1.476-.138 2.093h-32.075c.309 3.904 1.687 6.929 4.135 9.066 2.45 2.138 5.998 3.208 10.644 3.208 2.731 0 5.223-.248 7.489-.745 2.261-.495 4.043-1.021 5.344-1.58l1.488 9.206c-.622.311-1.473.637-2.557.976-1.086.341-2.327.65-3.718.928-1.395.283-2.901.513-4.511.699-1.611.185-3.254.28-4.927.28-4.276 0-7.995-.638-11.159-1.907-3.162-1.269-5.763-3.037-7.811-5.299-2.043-2.262-3.566-4.928-4.556-7.996-.99-3.071-1.486-6.432-1.486-10.09zm32.635-5.02c0-1.55-.219-3.024-.652-4.417-.435-1.395-1.067-2.605-1.903-3.628-.84-1.024-1.863-1.827-3.071-2.414-1.207-.591-2.647-.885-4.322-.885-1.734 0-3.256.324-4.557.977-1.302.65-2.404 1.502-3.298 2.557-.902 1.053-1.599 2.263-2.093 3.626-.499 1.362-.837 2.757-1.025 4.185z"/>
        <path d="m149.454 19.23c2.613 0 4.916.233 6.906.702 1.992.466 3.485.884 4.482 1.259l-2.147 9.331c-1.058-.496-2.286-.902-3.687-1.212-1.401-.312-2.91-.466-4.525-.466-1.806 0-3.329.266-4.576.793-1.243.529-2.237 1.262-2.984 2.193-.746.933-1.278 2.069-1.588 3.409-.311 1.335-.466 2.784-.466 4.339v3.265h17.734v9.428h-17.734v39.381h-11.29v-52.263c0-6.285 1.648-11.214 4.945-14.792 3.295-3.578 8.272-5.367 14.93-5.367z"/>
        <path d="m192.449 92.312c-3.347-.062-6.124-.435-8.321-1.114-2.203-.681-3.953-1.657-5.255-2.928-1.301-1.273-2.217-2.854-2.743-4.744-.527-1.889-.789-4.042-.789-6.463v-55.972l11.25-1.861v55.695c0 1.363.106 2.512.326 3.44.215.929.601 1.719 1.16 2.372.559.649 1.316 1.146 2.278 1.486.96.342 2.186.606 3.672.791z"/>
        <path d="m23.321 38.667c0-3.033 1.084-5.626 3.256-7.774 2.18-2.146 4.751-3.223 7.737-3.223h36.574l-6.593 11.525h-29.376v14.553h21.092l-6.843 11.676h-14.25v14.561h5.844l-6.213 11.595h-11.228z"/>
        <path d="m94.158 80.584c0 3.032-1.084 5.623-3.256 7.772-2.179 2.145-4.75 3.224-7.736 3.224h-36.574l6.592-11.527h29.377v-14.553h-21.092l6.842-11.675h14.25v-14.561h-5.844l6.213-11.594h11.228z"/>
        <path d="m315.89 80.063h11.237v11.237h-11.237z"/>
    </g>
</svg>