<svg width="484" height="200" viewBox="0 0 484 200" fill="none" xmlns="http://www.w3.org/2000/svg">
<g clip-path="url(#clip0_35622_111811)">
<path d="M368.795 53.7075L326.202 134.244H336.091C338.437 134.243 340.739 133.605 342.751 132.399C344.764 131.192 346.411 129.462 347.517 127.393L359.091 105.819H388.72C390.769 105.809 392.775 105.233 394.517 104.155C396.259 103.076 397.669 101.537 398.591 99.7075L402.424 92.0408H366.424L379.128 68.3556H433.332L399.795 134.189H408.702C411.218 134.185 413.685 133.492 415.836 132.186C417.987 130.881 419.74 129.012 420.906 126.782L451.85 68.3001H468.183C470.536 68.301 472.843 67.6466 474.845 66.4102C476.846 65.1738 478.464 63.4043 479.517 61.3001L483.332 53.7075H368.795ZM141.276 149.133C143.103 149.092 144.927 149.291 146.702 149.726C148.036 150.027 149.296 150.594 150.406 151.393C151.311 152.065 152.021 152.967 152.461 154.004C152.883 155.089 153.091 156.247 153.072 157.411C153.078 158.083 152.978 158.752 152.776 159.393C152.58 160.059 152.267 160.689 151.85 161.244C151.389 161.832 150.84 162.345 150.221 162.763C149.48 163.267 148.676 163.67 147.832 163.967C149.537 164.295 151.104 165.127 152.332 166.356C153.338 167.548 153.861 169.074 153.795 170.633C153.808 171.908 153.549 173.171 153.035 174.337C152.516 175.472 151.751 176.478 150.795 177.282C149.705 178.179 148.445 178.846 147.091 179.244C145.498 179.744 143.834 179.982 142.165 179.948H129.943V149.133H141.276ZM137.035 154.485V162.096H140.739C141.452 162.102 142.165 162.046 142.869 161.93C143.437 161.829 143.982 161.628 144.48 161.337C144.922 161.051 145.275 160.647 145.498 160.17C145.752 159.587 145.873 158.954 145.85 158.319C145.868 157.69 145.774 157.063 145.572 156.467C145.405 156.005 145.109 155.6 144.721 155.3C144.294 154.982 143.8 154.766 143.276 154.67C142.593 154.534 141.898 154.472 141.202 154.485H137.035ZM142.054 174.541C142.865 174.575 143.676 174.456 144.443 174.189C144.97 173.99 145.445 173.673 145.832 173.263C146.168 172.894 146.41 172.45 146.535 171.967C146.662 171.489 146.724 170.997 146.721 170.504C146.728 169.989 146.653 169.476 146.498 168.985C146.358 168.539 146.095 168.141 145.739 167.837C145.316 167.505 144.831 167.26 144.313 167.115C143.58 166.935 142.827 166.854 142.072 166.874H137.035V174.541H142.054ZM184.887 174.226V179.93H166.369V149.133H173.517V174.226H184.887ZM226.091 164.522C226.108 166.652 225.712 168.765 224.924 170.744C224.194 172.613 223.091 174.314 221.684 175.744C220.251 177.18 218.544 178.314 216.665 179.078C212.448 180.682 207.789 180.682 203.572 179.078C201.684 178.338 199.97 177.215 198.536 175.781C197.102 174.347 195.979 172.633 195.239 170.744C193.707 166.738 193.707 162.307 195.239 158.3C195.981 156.417 197.104 154.708 198.538 153.28C199.972 151.852 201.686 150.737 203.572 150.004C207.785 148.375 212.453 148.375 216.665 150.004C218.551 150.765 220.264 151.899 221.702 153.337C223.113 154.757 224.216 156.453 224.943 158.319C225.724 160.292 226.114 162.399 226.091 164.522ZM218.684 164.522C218.699 163.13 218.499 161.743 218.091 160.411C217.756 159.315 217.208 158.296 216.48 157.411C215.728 156.592 214.796 155.958 213.758 155.559C212.583 155.08 211.322 154.846 210.054 154.874C208.785 154.846 207.525 155.08 206.35 155.559C205.339 155.968 204.433 156.601 203.702 157.411C202.923 158.311 202.342 159.365 201.998 160.504C201.209 163.194 201.209 166.054 201.998 168.744C202.343 169.883 202.924 170.937 203.702 171.837C204.443 172.689 205.376 173.356 206.424 173.782C207.603 174.246 208.862 174.472 210.128 174.448C211.395 174.475 212.654 174.248 213.832 173.782C214.879 173.356 215.812 172.69 216.554 171.837C217.326 170.933 217.906 169.88 218.258 168.744C218.652 167.373 218.827 165.948 218.776 164.522H218.684ZM259.128 171.967C259.3 171.939 259.475 171.939 259.646 171.967C259.833 172.034 260 172.149 260.128 172.3L262.961 175.374C261.744 176.984 260.138 178.258 258.295 179.078C256.194 179.944 253.937 180.366 251.665 180.319C249.512 180.351 247.375 179.941 245.387 179.115C243.62 178.345 242.036 177.208 240.739 175.782C239.426 174.338 238.418 172.643 237.776 170.8C237.063 168.785 236.712 166.66 236.739 164.522C236.715 162.361 237.092 160.213 237.85 158.189C238.555 156.334 239.626 154.64 240.998 153.207C242.363 151.826 243.995 150.736 245.795 150.004C247.778 149.208 249.899 148.811 252.035 148.837C253.129 148.835 254.221 148.94 255.295 149.152C256.277 149.341 257.239 149.626 258.165 150.004C259.024 150.346 259.844 150.781 260.609 151.3C261.332 151.78 262 152.332 262.609 152.948L260.184 156.189C260.023 156.386 259.843 156.566 259.646 156.726C259.384 156.901 259.072 156.986 258.758 156.967C258.507 156.969 258.26 156.912 258.035 156.8L257.313 156.393L256.48 155.856C256.137 155.647 255.778 155.468 255.406 155.319C254.928 155.149 254.439 155.013 253.943 154.911C253.295 154.792 252.638 154.736 251.98 154.744C250.866 154.735 249.763 154.956 248.739 155.393C247.766 155.813 246.899 156.446 246.202 157.244C245.458 158.152 244.898 159.197 244.554 160.319C244.149 161.676 243.955 163.087 243.98 164.504C243.95 165.932 244.169 167.354 244.628 168.707C244.998 169.843 245.591 170.893 246.369 171.8C247.088 172.598 247.973 173.23 248.961 173.652C249.961 174.083 251.039 174.303 252.128 174.3C252.744 174.343 253.363 174.343 253.98 174.3C254.489 174.247 254.992 174.142 255.48 173.985C255.94 173.841 256.382 173.642 256.795 173.393C257.246 173.122 257.668 172.805 258.054 172.448C258.221 172.314 258.401 172.196 258.591 172.096C258.76 172.019 258.942 171.975 259.128 171.967ZM281.313 161.596H282.461C282.893 161.638 283.328 161.57 283.726 161.398C284.124 161.226 284.473 160.957 284.739 160.615L291.683 150.541C292.016 150.061 292.47 149.678 292.998 149.43C293.559 149.214 294.157 149.113 294.758 149.133H300.98L291.85 161.578C291.3 162.344 290.585 162.977 289.758 163.43C290.284 163.612 290.773 163.888 291.202 164.244C291.68 164.639 292.096 165.1 292.443 165.615L301.702 179.911H295.313C294.968 179.943 294.621 179.943 294.276 179.911C294.012 179.861 293.756 179.774 293.517 179.652C293.316 179.548 293.134 179.41 292.98 179.244C292.812 179.076 292.663 178.89 292.535 178.689L285.554 167.967C285.333 167.591 284.995 167.298 284.591 167.133C284.089 166.943 283.554 166.855 283.017 166.874H281.276V179.985H274.128V149.133H281.276L281.313 161.596ZM331.48 171.967C331.645 171.94 331.814 171.94 331.98 171.967C332.172 172.033 332.345 172.148 332.48 172.3L335.313 175.282C334.096 176.891 332.49 178.165 330.646 178.985C328.546 179.851 326.289 180.274 324.017 180.226C321.858 180.258 319.715 179.849 317.721 179.022C315.933 178.276 314.328 177.152 313.017 175.726C311.698 174.283 310.684 172.589 310.035 170.744C309.33 168.727 308.979 166.603 308.998 164.467C308.971 162.303 309.354 160.154 310.128 158.133C310.827 156.276 311.898 154.58 313.276 153.152C314.684 151.775 316.361 150.704 318.202 150.004C320.179 149.209 322.294 148.813 324.424 148.837C325.525 148.834 326.622 148.939 327.702 149.152C328.684 149.341 329.646 149.626 330.572 150.004C331.43 150.35 332.249 150.784 333.017 151.3C333.732 151.78 334.396 152.332 334.998 152.948L332.591 156.189C332.429 156.391 332.242 156.571 332.035 156.726C331.776 156.906 331.462 156.991 331.146 156.967C330.902 156.967 330.661 156.909 330.443 156.8C330.202 156.689 329.98 156.541 329.721 156.393L328.887 155.856C328.543 155.651 328.184 155.471 327.813 155.319C327.336 155.149 326.847 155.013 326.35 154.911C325.703 154.793 325.045 154.737 324.387 154.744C323.274 154.734 322.17 154.954 321.146 155.393C320.171 155.809 319.303 156.442 318.609 157.244C317.859 158.148 317.298 159.193 316.961 160.319C316.549 161.675 316.349 163.086 316.369 164.504C316.348 165.931 316.567 167.352 317.017 168.707C317.395 169.844 317.993 170.895 318.776 171.8C319.496 172.598 320.38 173.23 321.369 173.652C322.368 174.085 323.446 174.305 324.535 174.3C325.152 174.343 325.771 174.343 326.387 174.3C326.856 174.27 327.321 174.196 327.776 174.078C328.235 173.93 328.676 173.731 329.091 173.485C329.536 173.214 329.952 172.897 330.332 172.541C330.503 172.402 330.689 172.284 330.887 172.189C331.066 172.072 331.268 171.996 331.48 171.967ZM373.461 149.133V179.93H366.276V166.967H353.702V179.93H346.517V149.133H353.702V162.096H366.221V149.133H373.461ZM415.146 179.93H409.591C409.057 179.964 408.527 179.814 408.091 179.504C407.707 179.218 407.406 178.834 407.22 178.393L405.369 173.022H393.702L391.85 178.393C391.664 178.813 391.378 179.182 391.017 179.467C390.584 179.787 390.055 179.95 389.517 179.93H383.961L395.887 149.133H403.295L415.146 179.93ZM403.795 168.152L400.924 159.726C400.689 159.113 400.467 158.496 400.257 157.874C400.017 157.133 399.776 156.356 399.535 155.504C399.332 156.374 399.091 157.17 398.869 157.893C398.646 158.615 398.387 159.263 398.183 159.744L395.35 168.133L403.795 168.152ZM432.832 179.93H425.646V149.133H432.832V179.93ZM473.776 149.133V179.93H470.072C469.596 179.951 469.12 179.862 468.683 179.67C468.249 179.448 467.869 179.132 467.572 178.744L453.054 160.374C453.054 160.93 453.146 161.467 453.165 161.967C453.183 162.467 453.165 162.967 453.165 163.43V179.93H446.869V149.133H450.572C450.832 149.113 451.091 149.113 451.35 149.133C451.742 149.184 452.11 149.352 452.406 149.615C452.598 149.794 452.776 149.985 452.943 150.189L467.591 168.707C467.591 168.115 467.48 167.541 467.443 166.985C467.406 166.43 467.443 165.911 467.443 165.411V149.115L473.776 149.133ZM94.7206 11.9853C94.7206 11.9853 83.8688 1.13343 71.0725 0.151944C58.2762 -0.829537 53.3317 3.11491 54.3132 7.05935C55.2947 11.0038 59.7392 11.4853 65.6466 7.54083C71.554 3.59639 84.3688 4.59639 94.7206 11.9853Z" fill="#7A7A7A"/>
<path d="M89.3872 13.5961C89.3872 13.5961 80.7576 8.20726 72.3502 9.48503C63.9428 10.7628 61.2391 14.0406 62.5539 16.4295C63.8687 18.8184 66.7206 18.485 69.9613 15.0591C73.202 11.6332 81.5909 10.3739 89.3872 13.5961Z" fill="#7A7A7A"/>
<path d="M88.0535 14.9676C84.3822 13.746 80.4221 13.6942 76.7201 14.8194C71.5905 16.8009 70.4239 19.2453 71.535 20.5787C72.6461 21.912 74.4424 21.3009 75.9979 18.7268C77.5535 16.1528 82.6831 14.0231 88.0535 14.9676ZM114.905 46.9676C124.665 42.7824 131.572 41.0416 150.868 45.4861C150.868 45.4861 123.294 -0.810203 89.7572 14.9305C77.4609 21.3379 76.4794 35.1898 75.4979 40.0601C74.5165 44.9305 75.8498 61.5787 62.6831 69.6898C44.9609 80.4675 -15.1502 98.1527 3.57204 199.69C3.57204 199.69 5.535 173.079 41.0165 166.19C76.4979 159.301 90.2757 161.264 108.016 141.56C125.757 121.856 117.868 84.412 113.924 73.5601C109.979 62.7083 108.016 50.0046 114.905 46.9676ZM90.0164 129.486C82.4239 144.005 66.5535 141.782 59.609 141.875C55.7942 141.875 46.3498 139.745 37.5905 142.356C26.9054 145.542 24.9424 149.893 21.6461 153.079C21.6461 153.079 23.0905 132.708 35.035 116.042C46.9794 99.3749 65.2016 93.6898 77.2016 97.8009C89.2016 101.912 97.609 114.949 90.0164 129.486ZM139.053 39.5787C139.053 39.5787 119.831 37.0416 112.442 44.449C112.442 44.449 118.368 27.7824 139.053 39.5787ZM323.572 61.1157L298.146 109.264L291.702 53.7083H280.757C278.34 53.7119 275.97 54.3741 273.902 55.6237C271.833 56.8734 270.144 58.6633 269.016 60.8009L243.09 110.134L237.924 58.0601C237.921 57.4846 237.805 56.9153 237.582 56.3848C237.359 55.8542 237.034 55.373 236.624 54.9686C236.215 54.5643 235.729 54.2448 235.196 54.0285C234.663 53.8122 234.092 53.7034 233.516 53.7083H177.072C174.077 53.8585 171.112 54.3683 168.239 55.2268C164.852 56.2037 161.675 57.7984 158.868 59.9305C156.16 62.0252 153.942 64.6859 152.368 67.7268C150.716 71.0874 149.903 74.7981 149.998 78.5416C149.798 82.1747 150.702 85.7833 152.59 88.8935C154.321 91.4334 156.599 93.5532 159.257 95.0972C161.98 96.676 164.884 97.9196 167.905 98.8009C171.016 99.7268 173.905 100.666 176.572 101.616C178.991 102.429 181.271 103.61 183.331 105.116C184.198 105.75 184.894 106.589 185.357 107.559C185.819 108.529 186.033 109.598 185.979 110.671C186.005 111.94 185.643 113.187 184.942 114.245C184.208 115.257 183.252 116.087 182.146 116.671C180.99 117.338 179.742 117.831 178.442 118.134C177.679 118.306 176.905 118.438 176.128 118.523H171.942L146.016 118.301C143.481 118.285 140.991 118.968 138.818 120.274C136.646 121.581 134.876 123.461 133.702 125.708L129.183 134.301H176.035C178.91 134.124 181.759 133.646 184.535 132.875C187.945 131.934 191.145 130.35 193.961 128.208C196.681 126.1 198.88 123.395 200.387 120.301C202.042 116.835 202.861 113.029 202.776 109.19C202.958 105.441 202.058 101.719 200.183 98.4675C198.511 95.8681 196.269 93.6834 193.628 92.0786C190.972 90.471 188.113 89.2254 185.128 88.3749C182.09 87.5101 179.257 86.6398 176.628 85.7638C174.303 85.0565 172.099 84.0013 170.09 82.6342C169.242 82.0451 168.557 81.25 168.1 80.3235C167.644 79.3971 167.43 78.3697 167.479 77.3379C167.438 76.0182 167.821 74.72 168.572 73.6342C169.294 72.6113 170.254 71.7789 171.368 71.2083C172.534 70.5845 173.781 70.1234 175.072 69.8379C175.739 69.6916 176.413 69.5805 177.09 69.5046H222.905L230.59 133.893H247.813L277.442 78.3379L283.905 133.893H301.998L344.239 53.7083H335.794C333.275 53.7114 330.805 54.4031 328.651 55.7087C326.496 57.0143 324.74 58.884 323.572 61.1157Z" fill="#7A7A7A"/>
</g>
<defs>
<clipPath id="clip0_35622_111811">
<rect width="483.203" height="200" fill="white"/>
</clipPath>
</defs>
</svg>
