<svg width="116" height="27" viewBox="0 0 116 27" fill="none" xmlns="http://www.w3.org/2000/svg">
<mask id="mask0_1_36" style="mask-type:luminance" maskUnits="userSpaceOnUse" x="0" y="0" width="116" height="27">
<path d="M115.5 0H0.5V26.3934H115.5V0Z" fill="white"/>
</mask>
<g mask="url(#mask0_1_36)">
<path d="M90.3649 13.1846C90.3649 12.5114 90.3649 11.8782 90.3431 11.2934C90.3284 10.7418 90.2737 10.1919 90.1797 9.6481C90.0919 9.15153 89.9367 8.66924 89.7186 8.21462C89.488 7.74584 89.1804 7.31935 88.8079 6.95305C88.2799 6.41201 87.6517 5.979 86.958 5.67816C86.2077 5.37423 85.4041 5.22357 84.5948 5.23505C83.7822 5.22456 82.9758 5.37517 82.2217 5.67816C81.5241 5.9749 80.8919 6.40603 80.3608 6.94699C79.9891 7.31306 79.6827 7.73967 79.4541 8.20856C79.2377 8.66329 79.085 9.14564 79 9.64204C78.9083 10.186 78.8556 10.7359 78.8426 11.2874C78.8281 11.8722 78.8207 12.5054 78.8244 13.1785C78.8281 13.8517 78.8244 14.48 78.8426 15.0684C78.8556 15.6199 78.9083 16.1698 79 16.7138C79.085 17.2102 79.2377 17.6925 79.4541 18.1473C79.6835 18.6156 79.99 19.0421 80.3608 19.4088C80.891 19.9502 81.5235 20.3807 82.2217 20.6752C82.9752 20.9802 83.7819 21.1317 84.5948 21.1208C85.4043 21.1327 86.2082 20.9812 86.958 20.6752C87.6517 20.3784 88.2802 19.9481 88.8079 19.4088C89.1795 19.0418 89.4871 18.6155 89.7186 18.1473C89.9367 17.6926 90.0919 17.2103 90.1797 16.7138C90.2726 16.1715 90.3264 15.6233 90.3409 15.0733C90.359 14.4849 90.3675 13.8553 90.3624 13.1834L90.3649 13.1846ZM87.314 13.1846C87.314 13.9303 87.303 14.5515 87.2775 15.0454C87.2633 15.4512 87.2228 15.8556 87.1565 16.2561C87.1112 16.523 87.0296 16.7824 86.9144 17.0274C86.8209 17.2248 86.6985 17.4071 86.5512 17.5685C86.3241 17.8287 86.0419 18.0354 85.7256 18.1739C85.3692 18.3263 84.9857 18.4038 84.5982 18.4016C84.209 18.4032 83.8235 18.3258 83.4652 18.1739C83.1409 18.038 82.8514 17.8311 82.6177 17.5685C82.4696 17.4079 82.3469 17.2253 82.2543 17.0274C82.1424 16.7822 82.0648 16.5226 82.0243 16.2561C81.9597 15.8554 81.9192 15.4511 81.9034 15.0454C81.8816 14.5515 81.8705 13.9312 81.8705 13.1846C81.8705 12.4388 81.8816 11.8165 81.9034 11.3225C81.9192 10.9169 81.9597 10.5126 82.0243 10.1118C82.0648 9.8453 82.1424 9.58573 82.2543 9.34057C82.3472 9.14275 82.4699 8.96025 82.6177 8.79939C82.8517 8.53713 83.1412 8.33036 83.4652 8.19403C83.823 8.04042 84.209 7.9629 84.5982 7.96641C84.986 7.96239 85.3698 8.03994 85.7256 8.19403C86.0417 8.33291 86.3235 8.53957 86.5512 8.79939C86.6982 8.96099 86.8206 9.14335 86.9144 9.34057C87.0296 9.58547 87.1112 9.84493 87.1565 10.1118C87.2228 10.5124 87.2633 10.9168 87.2775 11.3225C87.3041 11.8153 87.314 12.4376 87.314 13.1846Z" fill="#23AF91"/>
<path d="M114.676 5.63941C114.675 5.49218 114.555 5.37316 114.408 5.37183H111.891C111.744 5.37251 111.624 5.4919 111.624 5.63941V14.9376L105.485 5.44692C105.444 5.38273 105.408 5.37183 105.317 5.37183H102.983C102.836 5.37378 102.717 5.49246 102.715 5.63941V20.7272C102.717 20.874 102.836 20.9923 102.983 20.9936H105.499C105.645 20.9929 105.764 20.8741 105.765 20.7272V11.4048L111.904 20.9173C111.947 20.9815 111.981 20.9924 112.073 20.9924H114.406C114.553 20.9917 114.672 20.8731 114.673 20.7261L114.676 5.63941Z" fill="#23AF91"/>
<path d="M97.8034 5.63941C97.8029 5.4919 97.6833 5.37251 97.536 5.37183H95.0213C94.8738 5.37251 94.7545 5.4919 94.7537 5.63941V20.7261C94.7545 20.8735 94.8738 20.9929 95.0213 20.9936H97.536C97.6833 20.9929 97.8029 20.8735 97.8034 20.7261V5.63941Z" fill="#23AF91"/>
<path d="M67.7005 13.1846C67.7005 12.4339 67.7087 11.8092 67.7305 11.3116C67.7456 10.9059 67.7858 10.5015 67.8518 10.1009C68.0843 8.75701 69.1134 7.96399 70.4268 7.96399C71.2842 7.97124 72.0615 8.28845 72.5577 9.01004C72.7826 9.34691 72.9463 9.72063 73.0421 10.1142C73.0494 10.1556 73.0874 10.1846 73.1293 10.1808H76.0893C76.1318 10.1808 76.1476 10.1517 76.1403 10.1106C75.8171 8.27877 74.8399 6.63342 73.1134 5.81862C72.2648 5.42575 71.3389 5.22917 70.4039 5.24353C68.7372 5.24353 67.3331 5.81417 66.1919 6.95547C65.5402 7.59052 65.0955 8.40745 64.9159 9.29941C64.7414 10.1776 64.6533 11.4722 64.6519 13.1833C64.6502 14.8945 64.7383 16.1887 64.9159 17.0661C65.094 17.9592 65.5373 18.7778 66.1882 19.4149C67.3286 20.5554 68.7327 21.1256 70.4002 21.1256C71.3349 21.1397 72.2611 20.9436 73.1098 20.5517C74.8362 19.7369 75.8134 18.0916 76.1366 16.2598C76.1439 16.2174 76.1281 16.1895 76.0859 16.1895H73.1245C73.0823 16.1851 73.0441 16.2143 73.0373 16.2561C72.9415 16.6492 72.7775 17.0225 72.5529 17.3591C72.0566 18.0855 71.2791 18.3991 70.422 18.4051C69.1086 18.4051 68.0792 17.6133 67.847 16.2695C67.7812 15.8688 67.7407 15.4645 67.7257 15.0587C67.7087 14.5587 67.7005 13.9328 67.7005 13.1846Z" fill="#23AF91"/>
<path d="M36.435 5.63941C36.4345 5.4919 36.3149 5.37251 36.1676 5.37183H33.6529C33.5054 5.37251 33.3861 5.4919 33.3853 5.63941V20.7272C33.3867 20.8743 33.5059 20.993 33.6529 20.9938H36.1676C36.3146 20.993 36.4339 20.8743 36.435 20.7272V16.2985L38.4535 13.8855L42.5988 20.9137C42.6309 20.9655 42.6881 20.9961 42.749 20.9938H45.8047C45.9452 20.9938 45.9707 20.9064 45.9004 20.7866L40.4728 11.5852L45.4526 5.61157C45.5529 5.49048 45.5107 5.37548 45.3532 5.37548H42.0128C41.9723 5.37307 41.9332 5.39129 41.9088 5.42389L36.435 11.9883V5.63941Z" fill="#23AF91"/>
<path d="M54.7554 18.4051C53.3403 18.4051 52.0568 17.0951 52.0568 15.5309V5.63941C52.0563 5.4919 51.9367 5.37251 51.7892 5.37183H49.2748C49.1272 5.37251 49.0076 5.4919 49.0071 5.63941V15.4921C49.0071 18.9366 51.5835 21.1256 54.7554 21.1256C57.9275 21.1256 60.504 18.9366 60.504 15.4921V5.63941C60.5025 5.49218 60.3836 5.37316 60.2363 5.37183H57.7205C57.5734 5.37316 57.4548 5.49238 57.4542 5.63941V15.5309C57.4542 17.0939 56.1697 18.4051 54.7554 18.4051Z" fill="#23AF91"/>
<path fill-rule="evenodd" clip-rule="evenodd" d="M8.1081 13.1846L15.9147 20.9924L20.8423 16.0648C21.7235 15.2715 23.0714 15.3068 23.9098 16.1451C24.7482 16.9835 24.7835 18.3316 23.9902 19.2127L17.4875 25.7166C16.614 26.5756 15.2131 26.5756 14.3396 25.7166L4.95784 16.3324V21.9101C4.95784 23.1411 3.95991 24.1391 2.72892 24.1391C1.49792 24.1391 0.5 23.1411 0.5 21.9101V4.45172C0.5 3.22073 1.49792 2.22281 2.72892 2.22281C3.95991 2.22281 4.95784 3.22073 4.95784 4.45172V10.0295L14.3384 0.647682C15.2116 -0.211988 16.613 -0.211988 17.4862 0.647682L23.9938 7.15039C24.7872 8.0315 24.7519 9.37952 23.9135 10.2179C23.0751 11.0563 21.7271 11.0916 20.846 10.2982L15.9184 5.37067L8.1081 13.1846ZM15.9184 10.9532C15.0158 10.9528 14.2018 11.4961 13.856 12.3298C13.5103 13.1636 13.7009 14.1235 14.3389 14.7619C14.977 15.4003 15.9368 15.5915 16.7708 15.2462C17.6047 14.9009 18.1485 14.0872 18.1485 13.1846C18.1488 12.5928 17.914 12.0251 17.4958 11.6064C17.0776 11.1877 16.5102 10.9523 15.9184 10.952V10.9532Z" fill="#23AF91"/>
</g>
</svg>
