<svg fill="none" height="38" viewBox="0 0 333 38" width="333" xmlns="http://www.w3.org/2000/svg" xmlns:xlink="http://www.w3.org/1999/xlink"><linearGradient id="a" gradientUnits="userSpaceOnUse" x1="37.1438" x2="11.8789" y1="22.6305" y2="15.8213"><stop offset=".14" stop-color="#adadad"/><stop offset=".29" stop-color="#cbcbcb"/><stop offset=".43" stop-color="#e2e2e2"/><stop offset=".59" stop-color="#f2f2f2"/><stop offset=".77" stop-color="#fcfcfc"/><stop offset="1" stop-color="#fff"/></linearGradient><linearGradient id="b" gradientUnits="userSpaceOnUse" x1="27.8161" x2="-7.89702" y1="44.205" y2="-5.60552"><stop offset="0" stop-color="#adadad"/><stop offset=".17" stop-color="#cbcbcb"/><stop offset=".34" stop-color="#e2e2e2"/><stop offset=".52" stop-color="#f2f2f2"/><stop offset=".73" stop-color="#fcfcfc"/><stop offset="1" stop-color="#fff"/></linearGradient><linearGradient id="c" gradientUnits="userSpaceOnUse" x1="18.9604" x2="35.9231" y1="36.6665" y2="15.1643"><stop offset=".15" stop-color="#adadad"/><stop offset=".29" stop-color="#cbcbcb"/><stop offset=".44" stop-color="#e2e2e2"/><stop offset=".6" stop-color="#f2f2f2"/><stop offset=".77" stop-color="#fcfcfc"/><stop offset="1" stop-color="#fff"/></linearGradient><linearGradient id="d" gradientUnits="userSpaceOnUse" x1="3.70595" x2="18.0413" y1="20.5156" y2="6.89797"><stop offset=".14" stop-color="#adadad"/><stop offset=".43" stop-color="#c9c9c9"/><stop offset="1" stop-color="#fff"/></linearGradient><linearGradient id="e" gradientUnits="userSpaceOnUse" x1="33.6782" x2="33.6782" y1="3.14917" y2="12.7601"><stop offset=".0895638" stop-color="#adadad"/><stop offset=".240189" stop-color="#cbcbcb"/><stop offset=".425047" stop-color="#e2e2e2"/><stop offset=".536875" stop-color="#f2f2f2"/><stop offset="1" stop-color="#fff"/></linearGradient><linearGradient id="f" gradientUnits="userSpaceOnUse" x1="196.763" x2="196.763" y1="47.8735" y2="-12.7884"><stop offset=".18" stop-color="#adadad"/><stop offset=".32" stop-color="#cbcbcb"/><stop offset=".46" stop-color="#e2e2e2"/><stop offset=".61" stop-color="#f2f2f2"/><stop offset=".78" stop-color="#fcfcfc"/><stop offset="1" stop-color="#fff"/></linearGradient><path d="m30.452 15.1876c2.3148 3.0893-4.464 9.0611-2.9408 6.5946h-14.4395c-1.5621-2.0427-2.636-4.2766-3.15227-6.5946z" fill="url(#a)"/><path d="m26.2672 32.9885c-2.052 1.636-4.2705 3.0514-6.6187 4.223l-1.1485.5785-1.1555-.5762c-10.86344-5.4515-17.3445-14.8415-17.3445-25.1319v-12.0819h6.62569v12.0819c-.00119.7707.05077 1.5405.15552 2.304.83433 6.2516 5.05419 12.0189 11.69389 15.9021.0062.0059.0133.0109.021.0148.007-.0039.0109-.0078.0179-.0109l.028-.0179c2.3998 1.3422 5.0132 2.2605 7.7252 2.7145z" fill="url(#b)"/><path d="m36.7948 15.1876c-.3067 2.3881-.9616 4.7183-1.9439 6.9165-1.8164 4.0815-4.7354 7.796-8.5805 10.886-2.7107-.4544-5.3227-1.3727-7.7213-2.7145.8665-.5108 1.7065-1.0651 2.517-1.6609.0807-.0523.1586-.1089.2332-.1695 4.4881-3.2319 7.7215-7.9154 9.1529-13.2576z" fill="url(#c)"/><path d="m37 .00244141h-30.37427v6.62258859h30.37427z" fill="url(#d)"/><path d="m37 6.62509v5.45701c0 .2255-.007.4518-.014.678h-6.6296c.0068-.2265.0102-.4525.0102-.678v-5.45701z" fill="url(#e)"/><path d="m84.0001 17.4582c0 2.3754-.2674 4.3147-.8023 5.8181-.723 2.1591-2.1468 4.0147-4.0452 5.2721-1.9226 1.2105-4.1605 1.8251-6.4318 1.7663-4.0294 0-7.1206-1.3708-9.2735-4.1125-1.6448-2.1269-2.5077-4.7549-2.444-7.4428 0-3.1933.954-5.8777 2.862-8.053 2.1641-2.47195 5.1868-3.70793 9.0679-3.70793 2.5911 0 4.7879.6652 6.5903 1.99556 1.2854.93935 2.3832 2.33147 3.2934 4.17647l-5.3936 2.2349c-.3589-.8779-.9094-1.6644-1.6113-2.3023-.8851-.7261-2.0005-1.1122-3.1451-1.0888-2.4833 0-4.2137 1.2776-5.1913 3.8327-.3648.9299-.5513 1.9202-.5495 2.9191-.0298.9583.1303 1.913.471 2.8091.3408.8962.8555 1.716 1.5145 2.4124.9798 1.0382 2.2867 1.5562 3.9205 1.5539 1.4495 0 2.599-.4213 3.4485-1.264.6205-.6827 1.0057-1.5463 1.0989-2.4641h-4.6958v-4.3552zm29.3479 2.8922c.014 1.1327-.099 2.2634-.337 3.3709-.37 1.5325-1.193 2.9176-2.363 3.9742-1.78 1.6832-4.16 2.5248-7.14 2.5248-3.032 0-5.3992-.8573-7.1027-2.572-.9204-.9361-1.5613-2.1105-1.8506-3.3911-.2669-1.2787-.3856-2.584-.354-3.8899v-12.66768h5.7071v11.86878c0 .9551.0168 1.6663.0505 2.1337.1037 1.4899.7777 2.5293 2.0227 3.1181.533.2496 1.117.3752 1.706.3674 1.391 0 2.44-.4865 3.148-1.4596.526-.7169.789-2.1034.789-4.1596v-11.86878h5.707zm30.056 9.2901h-6.095l-1.413-3.8259h-7.878l-1.51 3.8259h-6.027l8.427-21.94088h6.233zm-9.052-8.1642-2.359-6.9945-2.397 6.9945zm36.407 8.1642h-7.079l-5.451-8.4271v8.4271h-5.72v-21.94088h8.875c2.594 0 4.512.77643 5.755 2.32928 1.006 1.2516 1.54 2.8169 1.51 4.4225 0 1.9394-.579 3.4877-1.736 4.6451-.849.7969-1.909 1.3329-3.054 1.5438zm-8.023-14.8756c.007-.3704-.066-.738-.213-1.0781-.147-.34-.365-.6448-.64-.8938-.539-.5034-1.405-.754-2.599-.7517h-1.065v5.4641h1.065c1.207 0 2.07-.2528 2.599-.755.274-.2524.491-.5597.637-.9019.147-.3422.219-.7114.213-1.0836zm36.241 3.8967c-.031 2.2707-.75 4.4785-2.062 6.332-1.312 1.8536-3.155 3.2658-5.286 4.0503-1.116.3916-2.29.5921-3.472.5932h-8.428v-21.93748h8.428c2.038-.0079 4.033.59052 5.73 1.71914 1.705 1.09474 3.076 2.63614 3.965 4.45624.737 1.4881 1.122 3.1259 1.125 4.7866zm-5.916 0c.029-1.4264-.419-2.8215-1.274-3.9641-1.123-1.4944-2.809-2.2405-5.056-2.2382h-1.305v12.4249h1.305c2.247 0 3.933-.7472 5.056-2.2416.851-1.1504 1.297-2.5503 1.268-3.981zm34.347 10.9789h-6.091l-1.416-3.8259h-7.878l-1.51 3.8259h-6.027l8.427-21.94088h6.233zm-9.051-8.1642-2.359-6.9945-2.38 6.9945zm36.407 8.1642h-7.099l-5.448-8.4271v8.4271h-5.7v-21.94088h8.872c2.594 0 4.512.77643 5.754 2.32928 1.007 1.2516 1.541 2.8169 1.511 4.4225 0 1.9394-.579 3.4877-1.736 4.6451-.849.7969-1.909 1.3329-3.055 1.5438zm-8.02-14.8756c.006-.3707-.067-.7383-.215-1.0784-.148-.34-.366-.6447-.641-.8935-.539-.5023-1.402-.7517-2.596-.7517h-1.065v5.4641h1.055c1.205 0 2.07-.2517 2.596-.755.276-.2513.495-.5581.644-.9004.149-.3422.223-.712.219-1.0851zm22.707 14.8756h-5.71v-21.94088h5.707zm32.045 0h-6.095l-1.416-3.8259h-7.874l-1.511 3.8259h-6.03l8.427-21.94088h6.22zm-9.048-8.1642-2.36-6.9945-2.396 6.9945zm40.064 8.1642h-5.707l-10.497-13.4362v13.4362h-5.707v-21.94088h5.707l10.497 13.42278v-13.42278h5.707z" fill="url(#f)"/></svg>