<svg width="110" height="25" viewBox="0 0 110 25" fill="none" xmlns="http://www.w3.org/2000/svg">
<path d="M7.22727 19.2642C5.96023 19.2642 4.86932 18.9773 3.95455 18.4034C3.04545 17.8239 2.34659 17.0256 1.85795 16.0085C1.36932 14.9915 1.125 13.8267 1.125 12.5142C1.125 11.1847 1.375 10.0114 1.875 8.99428C2.375 7.97155 3.07955 7.17326 3.98864 6.59939C4.89773 6.02553 5.96875 5.7386 7.2017 5.7386C8.19602 5.7386 9.08239 5.92326 9.8608 6.29257C10.6392 6.65621 11.267 7.16757 11.7443 7.82666C12.2273 8.48576 12.5142 9.25564 12.6051 10.1364H10.125C9.98864 9.52269 9.67614 8.99428 9.1875 8.5511C8.70455 8.10791 8.05682 7.88632 7.24432 7.88632C6.53409 7.88632 5.91193 8.07382 5.37784 8.44882C4.84943 8.81814 4.4375 9.34655 4.14205 10.0341C3.84659 10.7159 3.69886 11.5227 3.69886 12.4545C3.69886 13.4091 3.84375 14.233 4.13352 14.9261C4.4233 15.6193 4.83239 16.1562 5.3608 16.5369C5.89489 16.9176 6.52273 17.108 7.24432 17.108C7.72727 17.108 8.16477 17.0199 8.55682 16.8438C8.95455 16.6619 9.28693 16.4034 9.55398 16.0682C9.8267 15.733 10.017 15.3295 10.125 14.858H12.6051C12.5142 15.7045 12.2386 16.4602 11.7784 17.125C11.3182 17.7898 10.7017 18.3125 9.92898 18.6932C9.16193 19.0739 8.26136 19.2642 7.22727 19.2642ZM17.8786 11.2273V19H15.3303V1.54541H17.8445V8.03973H18.0064C18.3132 7.33519 18.782 6.77553 19.4126 6.36075C20.0433 5.94598 20.8672 5.7386 21.8842 5.7386C22.782 5.7386 23.5661 5.92326 24.2365 6.29257C24.9126 6.66189 25.4354 7.21303 25.8047 7.94598C26.1797 8.67326 26.3672 9.58235 26.3672 10.6733V19H23.8189V10.9801C23.8189 10.0199 23.5717 9.27553 23.0774 8.74712C22.5831 8.21303 21.8956 7.94598 21.0149 7.94598C20.4126 7.94598 19.8729 8.07382 19.3956 8.32951C18.924 8.58519 18.5518 8.96019 18.2791 9.45451C18.0121 9.94314 17.8786 10.5341 17.8786 11.2273ZM33.5774 19.2898C32.7479 19.2898 31.9979 19.1364 31.3274 18.8295C30.657 18.517 30.1257 18.0653 29.7337 17.4744C29.3473 16.8835 29.1541 16.1591 29.1541 15.3011C29.1541 14.5625 29.2962 13.9545 29.5803 13.4773C29.8643 13 30.2479 12.6222 30.7308 12.3438C31.2138 12.0653 31.7536 11.8551 32.3501 11.7131C32.9467 11.571 33.5547 11.4631 34.174 11.3892C34.9581 11.2983 35.5945 11.2244 36.0831 11.1676C36.5717 11.1051 36.9268 11.0057 37.1484 10.8693C37.37 10.733 37.4808 10.5114 37.4808 10.2045V10.1449C37.4808 9.40053 37.2706 8.82382 36.8501 8.41473C36.4354 8.00564 35.8161 7.8011 34.9922 7.8011C34.1342 7.8011 33.4581 7.99144 32.9638 8.37212C32.4751 8.74712 32.1371 9.16473 31.9496 9.62496L29.5547 9.07951C29.8388 8.28405 30.2536 7.64201 30.799 7.15337C31.3501 6.65905 31.9837 6.3011 32.6996 6.0795C33.4155 5.85223 34.1683 5.7386 34.9581 5.7386C35.4808 5.7386 36.0348 5.8011 36.62 5.9261C37.2109 6.04541 37.7621 6.26701 38.2734 6.59087C38.7905 6.91473 39.2138 7.3778 39.5433 7.98007C39.8729 8.57666 40.0376 9.35223 40.0376 10.3068V19H37.549V17.2102H37.4467C37.282 17.5398 37.0348 17.8636 36.7053 18.1818C36.3757 18.5 35.9524 18.7642 35.4354 18.9744C34.9183 19.1847 34.299 19.2898 33.5774 19.2898ZM34.1314 17.2443C34.8359 17.2443 35.4382 17.1051 35.9382 16.8267C36.4439 16.5483 36.8274 16.1847 37.0888 15.7358C37.3558 15.2812 37.4893 14.7955 37.4893 14.2784V12.5909C37.3984 12.6818 37.2223 12.767 36.9609 12.8466C36.7053 12.9205 36.4126 12.9858 36.0831 13.0426C35.7536 13.0937 35.4325 13.142 35.12 13.1875C34.8075 13.2273 34.5462 13.2614 34.3359 13.2898C33.8416 13.3523 33.3899 13.4574 32.9808 13.6051C32.5774 13.7528 32.2536 13.9659 32.0092 14.2443C31.7706 14.517 31.6513 14.8807 31.6513 15.3352C31.6513 15.9659 31.8842 16.4432 32.3501 16.767C32.8161 17.0852 33.4098 17.2443 34.1314 17.2443ZM45.9801 11.2273V19H43.4318V5.90905H45.8778V8.03973H46.0398C46.3409 7.34655 46.8125 6.78973 47.4545 6.36928C48.1023 5.94882 48.9176 5.7386 49.9006 5.7386C50.7926 5.7386 51.5739 5.9261 52.2443 6.3011C52.9148 6.67041 53.4347 7.22155 53.804 7.95451C54.1733 8.68746 54.358 9.59371 54.358 10.6733V19H51.8097V10.9801C51.8097 10.0312 51.5625 9.28973 51.0682 8.75564C50.5739 8.21587 49.8949 7.94598 49.0312 7.94598C48.4403 7.94598 47.9148 8.07382 47.4545 8.32951C47 8.58519 46.6392 8.96019 46.3722 9.45451C46.1108 9.94314 45.9801 10.5341 45.9801 11.2273ZM63.2642 24.1818C62.2244 24.1818 61.3295 24.0455 60.5795 23.7727C59.8352 23.5 59.2273 23.1392 58.7557 22.6903C58.2841 22.2415 57.9318 21.75 57.6989 21.2159L59.8892 20.3125C60.0426 20.5625 60.2472 20.8267 60.5028 21.1051C60.7642 21.3892 61.1165 21.6307 61.5597 21.8295C62.0085 22.0284 62.5852 22.1278 63.2898 22.1278C64.2557 22.1278 65.054 21.892 65.6847 21.4205C66.3153 20.9545 66.6307 20.2102 66.6307 19.1875V16.6136H66.4688C66.3153 16.892 66.0938 17.2017 65.804 17.5426C65.5199 17.8835 65.1278 18.179 64.6278 18.429C64.1278 18.679 63.4773 18.804 62.6761 18.804C61.642 18.804 60.7102 18.5625 59.8807 18.0795C59.0568 17.5909 58.4034 16.8722 57.9205 15.9233C57.4432 14.9687 57.2045 13.7955 57.2045 12.4034C57.2045 11.0114 57.4403 9.81814 57.9119 8.82382C58.3892 7.82951 59.0426 7.06814 59.8722 6.53973C60.7017 6.00564 61.642 5.7386 62.6932 5.7386C63.5057 5.7386 64.1619 5.87496 64.6619 6.14769C65.1619 6.41473 65.5511 6.72723 65.8295 7.08519C66.1136 7.44314 66.3324 7.75848 66.4858 8.03121H66.6733V5.90905H69.1705V19.2898C69.1705 20.4148 68.9091 21.3381 68.3864 22.0597C67.8636 22.7813 67.1563 23.3153 66.2642 23.6619C65.3778 24.0085 64.3778 24.1818 63.2642 24.1818ZM63.2386 16.6903C63.9716 16.6903 64.5909 16.5199 65.0966 16.179C65.608 15.8324 65.9943 15.3381 66.2557 14.696C66.5227 14.0483 66.6562 13.2727 66.6562 12.3693C66.6562 11.4886 66.5256 10.7131 66.2642 10.0426C66.0028 9.37212 65.6193 8.84939 65.1136 8.47439C64.608 8.09371 63.983 7.90337 63.2386 7.90337C62.4716 7.90337 61.8324 8.10223 61.321 8.49996C60.8097 8.89201 60.4233 9.4261 60.1619 10.1023C59.9063 10.7784 59.7784 11.5341 59.7784 12.3693C59.7784 13.2273 59.9091 13.9801 60.1705 14.6278C60.4318 15.2756 60.8182 15.7812 61.3295 16.1449C61.8466 16.5085 62.483 16.6903 63.2386 16.6903ZM78.2301 19.2642C76.9403 19.2642 75.8295 18.9886 74.8977 18.4375C73.9716 17.8807 73.2557 17.0994 72.75 16.0938C72.25 15.0824 72 13.8977 72 12.5398C72 11.1989 72.25 10.017 72.75 8.99428C73.2557 7.97155 73.9602 7.17326 74.8636 6.59939C75.7727 6.02553 76.8352 5.7386 78.0511 5.7386C78.7898 5.7386 79.5057 5.86076 80.1989 6.10507C80.892 6.34939 81.5142 6.73291 82.0653 7.25564C82.6165 7.77837 83.0511 8.45735 83.3693 9.29257C83.6875 10.1222 83.8466 11.1307 83.8466 12.3182V13.2216H73.4403V11.3125H81.3494C81.3494 10.642 81.2131 10.0483 80.9403 9.53121C80.6676 9.00848 80.2841 8.59655 79.7898 8.29541C79.3011 7.99428 78.7273 7.84371 78.0682 7.84371C77.3523 7.84371 76.7273 8.01985 76.1932 8.37212C75.6648 8.71871 75.2557 9.17326 74.9659 9.73576C74.6818 10.2926 74.5398 10.8977 74.5398 11.5511V13.0426C74.5398 13.9176 74.6932 14.6619 75 15.2756C75.3125 15.8892 75.7472 16.358 76.304 16.6818C76.8608 17 77.5114 17.1591 78.2557 17.1591C78.7386 17.1591 79.179 17.0909 79.5767 16.9545C79.9744 16.8125 80.3182 16.6023 80.608 16.3239C80.8977 16.0455 81.1193 15.7017 81.2727 15.2926L83.6847 15.7273C83.4915 16.4375 83.1449 17.0597 82.6449 17.5938C82.1506 18.1222 81.5284 18.5341 80.7784 18.8295C80.0341 19.1193 79.1847 19.2642 78.2301 19.2642Z" fill="#7A7A7A"/>
<path fill-rule="evenodd" clip-rule="evenodd" d="M110 13C110 19.6274 104.627 25 98 25C91.3726 25 86 19.6274 86 13C86 6.37258 91.3726 1 98 1C104.627 1 110 6.37258 110 13ZM95.0227 18.4376C95.9545 18.9887 97.0653 19.2643 98.3551 19.2643C99.3097 19.2643 100.159 19.1194 100.903 18.8296C101.653 18.5342 102.276 18.1223 102.77 17.5939C103.27 17.0598 103.616 16.4376 103.81 15.7274L101.398 15.2927C101.244 15.7018 101.023 16.0456 100.733 16.324C100.443 16.6024 100.099 16.8126 99.7017 16.9546C99.304 17.091 98.8636 17.1592 98.3807 17.1592C97.6364 17.1592 96.9858 17.0001 96.429 16.6819C95.8722 16.3581 95.4375 15.8893 95.125 15.2757C94.8393 14.7043 94.6867 14.0197 94.667 13.2217H103.972V12.3183C103.972 11.1308 103.813 10.1223 103.494 9.29274C103.176 8.45752 102.741 7.77854 102.19 7.25581C101.639 6.73308 101.017 6.34956 100.324 6.10524C99.6307 5.86093 98.9148 5.73877 98.1761 5.73877C96.9602 5.73877 95.8977 6.0257 94.9886 6.59956C94.0852 7.17343 93.3807 7.97172 92.875 8.99445C92.375 10.0171 92.125 11.199 92.125 12.5399C92.125 13.8978 92.375 15.0825 92.875 16.0939C93.3807 17.0995 94.0966 17.8808 95.0227 18.4376ZM94.6712 11.3126C94.7018 10.7499 94.8417 10.2243 95.0909 9.73593C95.3807 9.17343 95.7898 8.71888 96.3182 8.37229C96.8523 8.02002 97.4773 7.84388 98.1932 7.84388C98.8523 7.84388 99.4261 7.99445 99.9148 8.29558C100.409 8.59672 100.793 9.00865 101.065 9.53138C101.338 10.0484 101.474 10.6421 101.474 11.3126H94.6712Z" fill="#7A7A7A"/>
</svg>
