<svg fill="none" height="40" viewBox="0 0 187 40" width="187" xmlns="http://www.w3.org/2000/svg"><path d="m66.115 23.7846.95 1.45c-.9666 1.25-2.4083 1.875-4.325 1.875-1.8 0-3.2583-.5333-4.375-1.6-1.1-1.0666-1.65-2.4916-1.65-4.275 0-1.65.5417-3.0416 1.625-4.175 1.0834-1.1333 2.4417-1.7 4.075-1.7 1.9667 0 3.4417.4917 4.425 1.475l-.925 1.575c-.8666-.7833-1.9416-1.175-3.225-1.175-1.05 0-1.9583.3834-2.725 1.15-.75.75-1.125 1.7-1.125 2.85 0 1.2167.3834 2.1834 1.15 2.9.7834.7334 1.75 1.1 2.9 1.1 1.3 0 2.375-.4833 3.225-1.45zm5.5571 3.075h-2v-17.49995h2v7.54995c1-1 2.225-1.5 3.675-1.5 3.1166 0 4.675 1.6667 4.675 5v6.45h-2v-6.175c0-2.2666-1.05-3.4-3.15-3.4-.5834 0-1.175.1334-1.775.4-.5834.2667-1.0584.6084-1.425 1.025zm12.3207-8.875-.525-1.6c1.1166-.6833 2.3666-1.025 3.75-1.025 1.5166 0 2.6166.375 3.3 1.125.6833.75 1.025 1.9084 1.025 3.475v6.9h-1.9v-1.45c-.8834 1.0834-2.0834 1.625-3.6 1.625-1.0334 0-1.8667-.3083-2.5-.925-.6334-.6333-.95-1.4833-.95-2.55 0-1.1.3916-1.9666 1.175-2.6.7833-.65 1.8083-.975 3.075-.975 1.1833 0 2.1166.2417 2.8.725 0-1.2666-.175-2.175-.525-2.725s-1.025-.825-2.025-.825c-1.0167 0-2.05.275-3.1.825zm2.75 7.25c1.1166 0 2.0833-.4833 2.9-1.45v-1.425c-.7-.5-1.5417-.75-2.525-.75-.6834 0-1.2584.1667-1.725.5-.45.3167-.675.7667-.675 1.35 0 .55.175.9834.525 1.3.3666.3167.8666.475 1.5.475zm10.149 1.625h-2v-11.25h2v1.375c.4167-.4666.9583-.8416 1.625-1.125.6833-.3 1.3667-.45 2.0502-.45 3.116 0 4.675 1.65 4.675 4.95v6.5h-2v-6.125c0-2.3-1.059-3.45-3.175-3.45-1.2669 0-2.3252.4834-3.1752 1.45zm10.1712 1.625c0-.8666.316-1.5916.95-2.175.633-.5833 1.516-1 2.65-1.25-.184-.2333-.275-.5416-.275-.925 0-.3833.1-.7.3-.95-.8-.3166-1.425-.8-1.875-1.45-.434-.65-.65-1.4-.65-2.25 0-1.1666.416-2.1416 1.25-2.925.85-.8 1.966-1.2 3.35-1.2 1.066 0 2.016.275 2.85.825l3.3-.8.05 1.625-2.125.525c.35.5834.525 1.2334.525 1.95 0 1.15-.425 2.1167-1.275 2.9-.834.7667-1.942 1.15-3.325 1.15-.384 0-.634-.0083-.75-.025-.084.2-.125.4084-.125.625 0 .3.075.55.225.75h.3c.183-.0166.308-.025.375-.025 1.75 0 3.141.3167 4.175.95 1.033.6167 1.55 1.5084 1.55 2.675 0 1.1334-.517 2.0084-1.55 2.625-1.034.6334-2.425.95-4.175.95-1.767 0-3.167-.3083-4.2-.925-1.017-.6-1.525-1.4833-1.525-2.65zm9.575 0c0-.6166-.342-1.1083-1.025-1.475-.684-.35-1.625-.525-2.825-.525s-2.142.175-2.825.525c-.684.3667-1.025.8584-1.025 1.475 0 .6167.341 1.0917 1.025 1.425.683.35 1.625.525 2.825.525s2.141-.1666 2.825-.5c.683-.3333 1.025-.8166 1.025-1.45zm-6.6-9c0 .7.25 1.2834.75 1.75.516.45 1.175.675 1.975.675s1.45-.225 1.95-.675c.516-.45.775-1.0333.775-1.75 0-.7166-.25-1.3083-.75-1.775-.517-.4833-1.175-.725-1.975-.725s-1.459.2417-1.975.725c-.5.4667-.75 1.0584-.75 1.775zm19.803 4.575.625 1.575c-1.083.9834-2.492 1.475-4.225 1.475-1.833 0-3.292-.5333-4.375-1.6-1.1-1.0666-1.65-2.4916-1.65-4.275 0-1.6833.517-3.0833 1.55-4.2 1.017-1.1166 2.433-1.675 4.25-1.675 1.5 0 2.742.4834 3.725 1.45 1 .95 1.5 2.1834 1.5 3.7 0 .4834-.042.9334-.125 1.35h-8.65c.083 1.05.475 1.875 1.175 2.475.717.6 1.633.9 2.75.9 1.467 0 2.617-.3916 3.45-1.175zm-3.925-6.825c-.983 0-1.8.275-2.45.825-.633.55-1.008 1.275-1.125 2.175h6.825c-.05-.9333-.367-1.6666-.95-2.2-.567-.5333-1.333-.8-2.3-.8z" fill="#fff"/><path d="m135.954 26.8596h-2v-17.49995h2v7.54995c1-1 2.225-1.5 3.675-1.5 3.117 0 4.675 1.6667 4.675 5v6.45h-2v-6.175c0-2.2666-1.05-3.4-3.15-3.4-.583 0-1.175.1334-1.775.4-.583.2667-1.058.6084-1.425 1.025zm20.596-2.8.625 1.575c-1.083.9834-2.492 1.475-4.225 1.475-1.833 0-3.292-.5333-4.375-1.6-1.1-1.0666-1.65-2.4916-1.65-4.275 0-1.6833.517-3.0833 1.55-4.2 1.017-1.1166 2.433-1.675 4.25-1.675 1.5 0 2.742.4834 3.725 1.45 1 .95 1.5 2.1834 1.5 3.7 0 .4834-.042.9334-.125 1.35h-8.65c.083 1.05.475 1.875 1.175 2.475.717.6 1.633.9 2.75.9 1.467 0 2.617-.3916 3.45-1.175zm-3.925-6.825c-.983 0-1.8.275-2.45.825-.633.55-1.008 1.275-1.125 2.175h6.825c-.05-.9333-.367-1.6666-.95-2.2-.567-.5333-1.333-.8-2.3-.8zm10.038 9.625h-2v-11.25h2v1.325c.667-1.0166 1.609-1.525 2.825-1.525.784 0 1.367.1417 1.75.425l-.7 1.875c-.483-.2833-.991-.425-1.525-.425-1.016 0-1.8.5334-2.35 1.6zm7.396-1.4c-1.1-1.1333-1.65-2.5416-1.65-4.225 0-1.7.55-3.1 1.65-4.2 1.117-1.1166 2.567-1.675 4.35-1.675 1.784 0 3.225.5584 4.325 1.675 1.117 1.1 1.675 2.5 1.675 4.2s-.558 3.1084-1.675 4.225c-1.1 1.1-2.541 1.65-4.325 1.65-1.766 0-3.216-.55-4.35-1.65zm1.575-7.1c-.733.7334-1.1 1.6917-1.1 2.875 0 1.1834.359 2.1417 1.075 2.875.734.75 1.667 1.125 2.8 1.125 1.134 0 2.059-.3666 2.775-1.1.734-.75 1.1-1.7166 1.1-2.9 0-1.15-.366-2.1083-1.1-2.875-.716-.75-1.641-1.125-2.775-1.125-1.133 0-2.058.375-2.775 1.125z" fill="#fff"/><path d="m33.6486 24.2942-9.3891 12.018-1.049-8.3895-6.1895-.6691z" fill="#03578c"/><path d="m24.1284 21.9266-7.1074 5.327 1.4687-13.9223z" fill="#03578c"/><path d="m23.9711 21.9008-5.4814-8.5695 5.1929 1.1838z" fill="#0099f7"/><path d="m41.6477 26.6103h-.0262l-1.4425 9.7276h-15.9195v-.0257l9.3891-12.018z" fill="#28adff"/><path d="m17.021 27.2536 7.0025-5.2498-.0525-.103 9.6776 2.3933z" fill="#0099f7"/><path d="m27.9313 19.1987-3.8028 2.7278-.1574-.0257-.2885-7.3858 9.835 2.2904.0262-.0258.8392 3.011z" fill="#0474ba"/><path d="m47.234 26.0697-5.5862.5405-7.9991-2.3161.4721-.1544-6.1633-4.9411 13.2444 4.8381 2.5964.9779.577-.5919-.8917-4.0145-3.0423-.0515-5.0354-.4632 3.8553-1.5441 4.5371 1.6213.341-7.3601.3147.103z" fill="#0474ba"/><path d="m44.3754 24.4229-.577.5918-2.5964-.9779-.7606-3.68 3.0423.0515z" fill="#03578c"/><path d="m33.8584 3.96392-3.0161.7463-3.5405 1.59553.0524-2.08449 5.6912-3.31974z" fill="#49484d"/><path d="m35.3796 9.70274-8.1565-.05147.0787-3.34548 3.5406-1.59553 3.0161-.7463z" fill="#ffb536"/><path d="m18.4897 13.4084-11.38231 23.1096h-.02623l-7.08116 1.8271z" fill="#ffc767"/><path d="m18.5422 13.3313-1.5212 13.9223-6.8713 11.0916-3.04228-1.8272 11.38228-23.1095z" fill="#ffb536"/><path d="m21.2959 27.7168-3.8553 9.6504-7.2909.978 6.8713-11.0916z" fill="#ffc767"/><path d="m24.2596 36.3379-.7868 3.3197-5.9797-2.2903h-.0524l3.8553-9.6505 1.9145.2059z" fill="#ffb536"/><path d="m33.5176 16.8054-14.9754-3.4741 8.681-3.68005h.1312l4.983 5.76455z" fill="#ffb536"/><path d="m43.8771 12.5335h-.0263l-10.3332 4.2719-1.1802-1.3896 4.6945-5.2241z" fill="#ffc767"/><path d="m37.0319 10.1917-4.6946 5.2241-5.1142-5.76455 8.1565.05146 1.6261.48899z" fill="#03578c"/><path d="m43.8508 12.5335-1.4949 3.1138-3.0685 2.7022h-.0262l-3.8553 1.544-1.0228-.1029-.8655-2.9852 10.307-4.2462z" fill="#0099f7"/><path d="m34.1207 24.1398-.4721.1544-9.494-2.3419-.0262-.0257 3.8291-2.7278z" fill="#03578c"/><path d="m41.202 24.0368-13.2444-4.838h-.0262l6.4517.5919 1.0229.1029 5.0354.4632z" fill="#0099f7"/><path d="m44.1391 12.6107-.3409 7.36-4.5372-1.6212h.0262l3.0685-2.7022 1.4949-3.1138h.0263z" fill="#03578c"/></svg>