<svg width="92" height="33" viewBox="0 0 92 33" fill="none" xmlns="http://www.w3.org/2000/svg">
<g clip-path="url(#clip0_1_2)">
<path d="M39.9381 8.07439H43.4098V21.9612H46.8815V4.60269H43.4098C41.5004 4.60269 39.9381 6.16496 39.9381 8.07439Z" fill="white"/>
<path d="M50.3532 21.9612H53.8249V15.0178C53.8249 13.1083 52.2626 11.5461 50.3532 11.5461V21.9612Z" fill="white"/>
<path d="M57.2966 11.5461V21.9612H60.7683V15.0178H64.24V18.4895C64.24 20.3989 65.8022 21.9612 67.7117 21.9612V15.0178C67.7117 13.1083 66.1494 11.5461 64.24 11.5461H57.2966Z" fill="white"/>
<path d="M88.5419 11.5461H85.0702V8.07439C85.0702 6.16496 83.5079 4.60269 81.5985 4.60269V18.4895H74.6551V15.0178H78.1268V11.5461H74.6551C72.7457 11.5461 71.1834 13.1084 71.1834 15.0178V18.4895C71.1834 20.3989 72.7457 21.9612 74.6551 21.9612H85.0702V15.0178H88.5419V18.4895C88.5419 20.3989 90.1042 21.9612 92.0136 21.9612V15.0178C92.0136 13.1084 90.4513 11.5461 88.5419 11.5461Z" fill="white"/>
<path d="M50.3532 8.07439H53.8249C53.8249 6.16496 52.2626 4.60269 50.3532 4.60269V8.07439Z" fill="white"/>
<path fill-rule="evenodd" clip-rule="evenodd" d="M45.3507 25.4329V27.7048H45.0326L43.7831 26.1307V27.7048H43.4098V25.4329H43.7279L44.9774 27.0135V25.4329H45.3507ZM52.4127 27.7048H51.0658V25.4329H52.3803V25.8062H51.465V26.3708H52.2829V26.7441H51.465V27.3316H52.4127V27.7048ZM58.1278 25.8062H58.8646V27.7048H59.2637V25.8062H60.0005V25.4329H58.1278V25.8062ZM68.4971 25.4329H68.8802L68.231 27.7048H67.8577L67.3092 26.0625L66.7704 27.7048H66.3939L65.7155 25.4329H66.1635L66.6211 27.0525L67.1275 25.4329H67.5234L68.0427 27.0557L68.4971 25.4329ZM74.9262 25.7704C74.7055 25.9955 74.5952 26.2735 74.5952 26.6046C74.5952 26.9529 74.7066 27.2353 74.9295 27.4517C75.1523 27.668 75.4347 27.7763 75.7766 27.7763C76.1163 27.7763 76.3987 27.6659 76.6237 27.4452C76.8488 27.2245 76.9613 26.9443 76.9613 26.6046C76.9613 26.2583 76.8488 25.976 76.6237 25.7575C76.4009 25.5411 76.1185 25.4329 75.7766 25.4329C75.4347 25.4329 75.1513 25.5453 74.9262 25.7704ZM75.2346 27.1758C75.0896 27.0244 75.0171 26.834 75.0171 26.6046C75.0171 26.3708 75.0885 26.1794 75.2313 26.0301C75.3763 25.8808 75.5581 25.8062 75.7766 25.8062C75.9908 25.8062 76.1715 25.8808 76.3186 26.0301C76.4657 26.1815 76.5393 26.373 76.5393 26.6046C76.5393 26.834 76.4701 27.0244 76.3316 27.1758C76.1953 27.3273 76.0103 27.403 75.7766 27.403C75.5602 27.403 75.3795 27.3273 75.2346 27.1758ZM83.0755 26.8609V27.7113H82.6763V25.4394C82.7888 25.4394 82.9111 25.4382 83.043 25.4361C83.1751 25.4339 83.2833 25.4329 83.3676 25.4329C83.9172 25.4329 84.1921 25.6666 84.1921 26.134C84.1921 26.307 84.1477 26.4498 84.0589 26.5624C83.9702 26.6705 83.8686 26.7441 83.7539 26.7831L84.4647 27.7113H83.9811L83.3546 26.8609H83.0755ZM83.3482 25.8062C83.3374 25.8062 83.3201 25.8072 83.2962 25.8094C83.2724 25.8094 83.2389 25.8104 83.1956 25.8126H83.0755V26.4877H83.3352C83.4629 26.4877 83.5667 26.4563 83.6468 26.3936C83.729 26.3308 83.7701 26.2453 83.7701 26.1372C83.7701 25.9165 83.6295 25.8062 83.3482 25.8062ZM90.1796 27.7048H90.5789V26.5331L91.5076 27.7048H92.0136L91.0207 26.4909L91.9554 25.4329H91.4746L90.5789 26.5105V25.4329H90.1796V27.7048Z" fill="#2F7AEA"/>
<path d="M8.211 17.8947L9.12232 11.0313L1.2052 5.53495L8.43883 7.98413L10.1475 5.36408L16.3844 1.49097L30.1396 9.06634L30.8516 20.6287L24.7286 29.1439L19.8873 29.8843L22.3934 25.2992V20.885L20.5708 17.439L18.7197 16.2145L15.8717 19.1478V22.252L13.6505 24.331L10.831 24.6727L9.57798 25.3846L7.52748 24.7296L6.67313 21.6539L8.211 19.4895V17.8947Z" fill="white"/>
<path d="M20.8556 5.47798C19.3463 5.16471 17.6945 5.25015 17.6945 5.25015C17.6945 5.25015 17.1534 7.75629 13.7928 8.41132C13.8214 8.41132 18.2356 9.92064 20.8556 5.47798Z" fill="#94A6C3"/>
<path d="M22.2225 28.2041C24.0451 26.7801 25.4121 24.8151 26.0387 22.5937C26.0672 22.5083 26.3234 22.3659 26.4943 22.252C26.7791 22.0811 27.0639 21.9387 27.1209 21.7109C27.2348 21.0558 27.2917 20.3723 27.2917 19.6889C27.2917 19.4326 27.0354 19.1763 26.7791 18.92C26.5797 18.7491 26.3804 18.5497 26.3804 18.4074C26.0956 15.8157 24.8995 13.3951 22.9915 11.6294L22.7921 11.8288C24.6432 13.566 25.8393 15.9297 26.0956 18.4358C26.1241 18.6637 26.3519 18.8915 26.5797 19.1193C26.7791 19.2902 27.0069 19.5465 27.0069 19.6604C27.0069 20.3154 26.95 20.9704 26.836 21.6255C26.8076 21.7393 26.5513 21.8533 26.3519 21.9672C26.0671 22.1096 25.8109 22.252 25.7539 22.4798C25.0704 24.9005 23.5041 27.008 21.4251 28.375C21.7953 27.5775 22.9629 24.986 23.5895 23.6759L23.4756 19.461L19.8588 15.9582L17.8083 16.2429L15.5585 19.8882C15.5585 19.8882 16.6122 21.2267 15.1313 22.7931C13.6789 24.331 12.5398 24.6727 12.5398 24.6727L11.486 24.1031C11.7993 23.7044 12.4258 23.1063 12.9099 22.7077C13.7359 22.0242 14.5618 21.9672 14.5618 21.2267C14.5902 19.6889 12.9384 20.116 12.9384 20.116L12.3404 20.6857L12.0841 22.7931L10.831 24.3594L10.6887 24.331L8.63818 23.8753C8.63818 23.8753 9.89121 23.2203 10.0906 22.4798C10.2899 21.7679 9.69184 19.4041 9.66338 19.2618C9.69184 19.2902 10.2615 19.7743 10.5178 20.5717C10.9734 19.3187 11.5714 18.1226 11.7423 18.0086C11.9132 17.8948 14.22 16.6701 14.22 16.6701L13.4511 18.6921L14.0206 18.3789L15.3876 15.0184C15.3876 15.0184 16.7261 14.3634 17.7228 14.3634C19.517 14.3349 22.1656 12.142 20.9695 8.21194C21.3112 8.35437 27.2348 11.3162 28.26 17.1258C29.0289 21.597 26.4943 25.7833 22.2225 28.2041Z" fill="#94A6C3"/>
<path d="M15.4447 6.10455C16.0997 5.33562 15.8433 4.19647 15.8433 4.19647L13.9353 7.01588C13.9068 7.01588 14.6188 7.04435 15.4447 6.10455Z" fill="#1B314F"/>
<path d="M9.03683 21.5116L9.26466 20.3724C9.26466 20.3724 8.32488 22.0242 8.23947 22.252C8.15407 22.5084 8.29641 22.9641 8.66667 22.9355C9.03683 22.907 9.4925 22.366 9.4925 21.9672C9.4925 21.4547 9.03683 21.5116 9.03683 21.5116Z" fill="#1B314F"/>
<path d="M25.9533 3.39909C25.9533 3.39909 27.3772 3.45604 28.8581 3.62692C25.5261 1.00687 22.365 0.237941 19.8019 0.237941C16.2705 0.237941 13.8783 1.69036 13.7359 1.77579L14.8466 0.0101109C14.8466 0.0101109 10.4038 -0.417073 8.83749 4.28192C8.43885 3.28517 8.0686 1.83275 8.0686 1.83275C8.0686 1.83275 5.76183 3.85475 6.84401 7.21523C4.19549 6.24696 0.407816 4.90846 0.265424 4.87998C0.0660705 4.8515 0.00911293 4.93694 0.00911293 4.93694C0.00911293 4.93694 -0.0478446 5.02237 0.123032 5.16477C0.436292 5.42107 6.41684 9.83532 7.72686 10.6896C7.44208 11.7149 7.44208 12.199 7.72686 12.6832C8.12553 13.3382 8.154 13.6799 8.09706 14.1641C8.04013 14.6482 7.52751 18.8346 7.41359 19.3472C7.29968 19.8598 6.10357 21.6825 6.16053 22.2236C6.21749 22.7646 6.95794 25.0714 7.61294 25.3278C8.09706 25.4986 9.29324 25.8688 10.0906 25.8688C10.3754 25.8688 10.6317 25.8119 10.7456 25.6979C11.2298 25.2707 11.3722 25.1853 11.7139 25.1853H11.7994C11.9417 25.1853 12.1126 25.2138 12.312 25.2138C12.7676 25.2138 13.3656 25.1284 13.7928 24.7297C14.4194 24.1031 15.5016 23.2487 15.8433 22.8501C16.2705 22.309 16.4983 21.5685 16.3844 20.8281C16.299 20.1446 16.6692 19.5465 17.0964 18.9485C17.6375 18.2365 18.6342 16.955 18.6342 16.955C20.5993 18.4358 21.8238 20.6857 21.8238 23.1918C21.8238 27.6345 17.9508 31.2228 13.1664 31.2228C12.4258 31.2228 11.7139 31.1374 11.0019 30.9665C13.1948 31.7355 15.0459 31.9918 16.5552 31.9918C19.7733 31.9918 21.4821 30.8242 21.4821 30.8242C21.4821 30.8242 20.884 31.5931 19.9158 32.4759H19.9442C25.2698 31.7355 27.8614 27.3497 27.8614 27.3497C27.8614 27.3497 27.662 28.7737 27.4057 29.7419C34.4969 24.4164 33.3008 17.7524 33.2723 17.5245C33.3293 17.61 34.0412 18.4643 34.4115 18.92C35.5506 7.18676 25.9533 3.39909 25.9533 3.39909ZM15.0459 22.1381C14.932 22.2805 14.4478 22.7077 14.1061 23.0209C13.7644 23.3342 13.3942 23.6475 13.1093 23.9322C12.9955 24.0462 12.7676 24.1031 12.4258 24.1031C12.312 24.1031 12.198 24.1031 12.1126 24.1031C12.0557 24.1031 11.9986 24.1031 11.9417 24.1031C11.8848 24.1031 11.8563 24.1031 11.8278 24.1031C11.7423 24.1031 11.6569 24.1031 11.5715 24.1031C11.9986 23.5336 13.2518 22.2236 13.6789 21.9388C14.1915 21.597 14.4478 21.2553 14.1346 20.6572C13.8213 20.0591 12.9955 20.2015 12.9955 20.2015C12.9955 20.2015 13.4796 20.0022 13.9068 20.0022C13.3656 19.8598 12.6821 20.0022 12.3689 20.3155C12.0272 20.6287 12.0841 21.7394 11.9417 22.4514C11.7994 23.1918 11.3152 23.5621 10.5747 24.2456C10.176 24.6157 9.89124 24.7297 9.66341 24.7297C9.17928 24.6443 8.60966 24.5019 8.21102 24.3594C7.92617 23.9893 7.49903 22.7646 7.38511 22.252C7.47055 21.9673 7.8123 21.3692 7.98319 21.0275C8.32489 20.3724 8.52426 20.0022 8.58119 19.6605C8.69515 19.1764 9.06541 16.186 9.20775 14.933C9.578 15.4171 10.0906 16.2146 9.97673 16.7272C10.8026 15.5595 10.2046 14.4204 9.91971 13.9647C9.66341 13.5091 9.3217 12.5977 9.60647 11.6294C9.89124 10.6611 10.9165 7.98412 10.9165 7.98412C10.9165 7.98412 11.2582 8.58221 11.7423 8.46834C12.2265 8.35438 16.1281 2.48777 16.1281 2.48777C16.1281 2.48777 17.1818 4.79454 16.0711 6.47479C14.932 8.15502 13.8213 8.46834 13.8213 8.46834C13.8213 8.46834 15.3876 8.7531 16.8401 7.69936C17.4381 9.09481 18.0077 10.5473 18.0362 10.7466C17.9507 10.9459 16.8115 13.6799 16.6977 13.8508C16.6407 13.9077 16.242 14.0217 15.9572 14.0786C15.4731 14.221 15.1883 14.3064 15.0744 14.3919C14.875 14.5627 13.9637 17.0689 13.5365 18.2935C13.0239 18.4358 12.5113 18.7207 12.1411 19.2902C12.3404 19.1478 12.967 19.0624 13.4226 19.0055C13.8213 18.977 15.0459 19.632 15.3592 20.8566V20.9135C15.4161 21.3692 15.2738 21.7964 15.0459 22.1381ZM12.3689 22.4799C12.6252 22.1096 12.5967 21.4831 12.6252 21.2838C12.6537 21.0844 12.7107 20.7141 12.9385 20.6572C13.1664 20.6003 13.7074 20.6857 13.7074 21.0844C13.7074 21.4547 13.3087 21.5401 13.0239 21.7964C12.8246 21.9957 12.4258 22.4229 12.3689 22.4799ZM23.7319 17.0404C24.0167 15.588 24.0452 14.3349 23.9598 13.3097C25.0705 14.7906 25.7539 16.5847 25.9533 18.4358C25.9818 18.6637 26.2096 18.8915 26.4374 19.1193C26.6368 19.2902 26.8646 19.5181 26.8646 19.6605C26.8646 20.3155 26.8076 20.9704 26.6937 21.6255C26.6653 21.711 26.409 21.8533 26.2096 21.9673C25.9248 22.1096 25.6685 22.252 25.6115 22.4799C24.985 24.6727 23.6465 26.6093 21.8524 27.9762C24.5008 25.2138 25.7824 20.6572 23.7319 17.0404ZM21.9378 28.2325C23.7889 26.8086 25.2128 24.8151 25.8394 22.5653C25.8678 22.4799 26.1241 22.3374 26.295 22.2236C26.5798 22.0811 26.8646 21.9103 26.9216 21.6825C27.0354 21.0275 27.0925 20.344 27.0925 19.6605C27.0925 19.4042 26.8362 19.1478 26.5798 18.8915C26.4374 18.7207 26.2096 18.5213 26.2096 18.3789C25.9818 16.3 25.1559 14.3349 23.8744 12.7116C23.3048 9.29417 21.0264 8.24051 20.9695 8.21195C21.0264 8.29744 22.5074 10.4333 21.4821 12.9395C20.4284 15.4741 17.723 15.0754 17.4951 15.1039C17.2673 15.1039 16.3844 16.243 15.2738 18.3504C15.1313 18.2935 14.5332 18.1511 13.8498 18.265C14.3624 16.841 15.1313 14.819 15.2738 14.6482C15.3307 14.5912 15.7579 14.4773 16.0427 14.3919C16.5837 14.2495 16.8401 14.1641 16.9255 14.0501C16.9824 13.9647 17.2672 13.3097 17.5521 12.6262C17.8084 12.6262 18.4634 12.5693 18.5203 12.5407C18.5773 12.4838 19.1184 11.0883 19.1184 10.9174C19.1184 10.7751 18.0077 8.01268 17.5805 6.95893C17.7799 6.7311 17.9793 6.44631 18.1785 6.13305C24.0167 6.75957 28.5733 11.7149 28.5733 17.7239C28.5733 22.3374 25.8678 26.353 21.9378 28.2325Z" fill="#1B314F"/>
<path d="M14.3624 12.8541C14.9035 12.2275 14.6187 11.0599 13.622 10.8605C13.8783 10.2624 14.2485 9.06635 14.2485 9.06635C14.2485 9.06635 11.3437 13.6229 11.0873 13.7084C10.831 13.7938 10.5747 12.797 10.5747 12.797C10.0336 14.8761 11.486 15.1608 11.6569 14.5058C12.4543 14.3064 13.8213 13.4521 14.3624 12.8541Z" fill="#1B314F"/>
<path d="M11.8848 13.9647L13.3656 11.4301C13.3656 11.4301 14.22 11.8573 13.7928 12.5408C13.2517 13.3382 11.8848 13.9647 11.8848 13.9647Z" fill="#FFD923"/>
<path d="M30.1965 25.6979C29.7694 26.2675 29.2852 26.8655 28.7157 27.4352C32.3894 20.3724 28.8866 13.9078 28.7442 13.6514C29.0005 13.9078 29.2568 14.1925 29.4846 14.4488C32.304 17.5815 32.6457 22.2805 30.1965 25.6979Z" fill="#D82122"/>
<path d="M33.614 16.6132C32.3325 13.1673 30.5099 10.2339 26.4943 7.58548C22.6212 5.02236 18.4634 5.22171 18.2355 5.2502C18.2071 5.2502 18.1786 5.2502 18.1786 5.2502C18.3209 5.19323 18.4634 5.16476 18.6057 5.13628C19.4885 4.85149 20.6277 4.62366 21.7668 4.48127C24.7857 4.05408 27.8329 5.07932 29.9118 7.27216C29.9403 7.30062 29.9403 7.30062 29.9687 7.32918C32.3325 9.83531 33.5571 12.9679 33.614 16.6132Z" fill="#D82122"/>
<path d="M25.583 2.51632C21.3397 1.71892 18.6057 2.11762 16.6407 2.85807C16.5838 2.63024 16.3844 2.17458 16.2135 1.80436C15.6154 2.51632 14.989 3.37068 14.5902 3.91178C13.508 4.65223 13.0524 5.3642 13.0524 5.3642C13.6789 3.22829 15.5016 1.63348 17.7229 1.23478C18.3494 1.12087 19.0329 1.0639 19.7734 1.0639C21.7384 1.09238 23.7035 1.57653 25.583 2.51632Z" fill="#D82122"/>
<path d="M9.89121 7.98421C6.55922 7.87034 7.66989 3.99721 7.72685 3.76938C7.72685 3.79786 7.9547 6.81659 9.89121 7.98421Z" fill="#D82122"/>
<path d="M13.1663 1.0069C10.6032 2.54475 11.1159 6.21851 11.1159 6.21851C8.66668 2.48779 12.967 1.09234 13.1663 1.0069Z" fill="#D82122"/>
<path d="M8.95147 9.00939C9.12237 9.15181 9.29326 9.40811 9.0939 9.77828C8.97994 9.97764 8.80913 9.94918 8.55275 9.83531C8.21105 9.66441 6.16058 8.46832 4.30945 7.24368C6.41688 7.98411 8.55275 8.78156 8.89454 8.95245C8.89454 8.95245 8.92301 8.98092 8.95147 9.00939Z" fill="white"/>
</g>
<defs>
<clipPath id="clip0_1_2">
<rect width="92" height="32.4604" fill="white"/>
</clipPath>
</defs>
</svg>
