<svg fill="none" height="609" viewBox="0 0 1216 609" width="1216" xmlns="http://www.w3.org/2000/svg" xmlns:xlink="http://www.w3.org/1999/xlink"><filter id="a" color-interpolation-filters="sRGB" filterUnits="userSpaceOnUse" height="581.09" width="644.989" x="291.481" y=".461823"><feFlood flood-opacity="0" result="BackgroundImageFix"/><feBlend in="SourceGraphic" in2="BackgroundImageFix" mode="normal" result="shape"/><feGaussianBlur result="effect1_foregroundBlur_10_2" stdDeviation="50"/></filter><filter id="b" color-interpolation-filters="sRGB" filterUnits="userSpaceOnUse" height="516" width="516" x="370.457" y="65.0009"><feFlood flood-opacity="0" result="BackgroundImageFix"/><feBlend in="SourceGraphic" in2="BackgroundImageFix" mode="normal" result="shape"/><feGaussianBlur result="effect1_foregroundBlur_10_2" stdDeviation="7.5"/></filter><radialGradient id="c" cx="0" cy="0" gradientTransform="matrix(72.17641622 225.01773495 -207.03326557 66.4077396 565.025 232.992)" gradientUnits="userSpaceOnUse" r="1"><stop offset="0" stop-color="#ffcace"/><stop offset=".333333" stop-color="#faac73"/><stop offset=".666667" stop-color="#e35760" stop-opacity=".8"/><stop offset="1" stop-color="#291651"/></radialGradient><radialGradient id="d" cx="0" cy="0" gradientTransform="matrix(197.09151859 -30.54899874 28.12355114 181.44337401 619.897 232.14)" gradientUnits="userSpaceOnUse" r="1"><stop offset="0" stop-color="#302634"/><stop offset="1" stop-color="#201823"/></radialGradient><radialGradient id="e" cx="0" cy="0" gradientTransform="matrix(0 287.226 -287.226 0 619.897 240.88)" gradientUnits="userSpaceOnUse" r="1"><stop offset="0" stop-color="#a0789c" stop-opacity="0"/><stop offset="1" stop-color="#231f26"/></radialGradient><radialGradient id="f" cx="0" cy="0" gradientTransform="matrix(78.33732783 327.75216143 -306.30136875 73.21028985 696.521 145.056)" gradientUnits="userSpaceOnUse" r="1"><stop offset="0" stop-color="#f45479" stop-opacity=".23"/><stop offset="1" stop-color="#51354f" stop-opacity="0"/><stop offset="1" stop-color="#2a1d43" stop-opacity=".1"/></radialGradient><linearGradient id="g" gradientUnits="userSpaceOnUse" x1="444.457" x2="942.457" y1="511.501" y2="80.0009"><stop offset="0" stop-color="#302634"/><stop offset=".45" stop-color="#784f76"/><stop offset="1" stop-color="#e35760"/></linearGradient><linearGradient id="h" gradientUnits="userSpaceOnUse" x1="632" x2="629.281" y1="156.001" y2="403.205"><stop offset="0" stop-color="#27212b" stop-opacity="0"/><stop offset="1" stop-color="#27212b"/></linearGradient><linearGradient id="i"><stop offset="0" stop-color="#3f3142" stop-opacity=".13"/><stop offset=".645388" stop-color="#a0789a"/><stop offset="1" stop-color="#302634" stop-opacity="0"/></linearGradient><linearGradient id="j" gradientUnits="userSpaceOnUse" x1="-239.5" x2="1345.5" xlink:href="#i" y1="303.002" y2="84.5019"/><linearGradient id="k"><stop offset="0" stop-color="#27212b"/><stop offset=".25" stop-color="#81557e"/><stop offset=".5" stop-color="#c68dc3"/><stop offset=".75" stop-color="#81557e"/><stop offset="1" stop-color="#27212b"/></linearGradient><linearGradient id="l" gradientUnits="userSpaceOnUse" x1="608.959" x2="609.734" xlink:href="#k" y1="339.058" y2="218.429"/><linearGradient id="m" gradientUnits="userSpaceOnUse" x1="-267.401" x2="1287.36" xlink:href="#i" y1="444.993" y2="24.8158"/><linearGradient id="n" gradientUnits="userSpaceOnUse" x1="581.571" x2="561.97" xlink:href="#k" y1="362.486" y2="222.357"/><linearGradient id="o"><stop offset="0" stop-color="#27212b"/><stop offset="1" stop-color="#27212b" stop-opacity="0"/></linearGradient><radialGradient id="p" cx="955" cy="171" gradientUnits="userSpaceOnUse" r="95" xlink:href="#o"/><linearGradient id="q" gradientUnits="userSpaceOnUse" x1="-51.6242" x2="1301.25" xlink:href="#i" y1="431.408" y2="161.04"/><linearGradient id="r" gradientUnits="userSpaceOnUse" x1="676.651" x2="655.648" xlink:href="#k" y1="399.026" y2="210.008"/><linearGradient id="s" gradientUnits="userSpaceOnUse" x1="-114.719" x2="1232.46" xlink:href="#i" y1="212.336" y2="221.742"/><linearGradient id="t" gradientUnits="userSpaceOnUse" x1="588.049" x2="597.605" y1="330.401" y2="192.682"><stop offset="0" stop-color="#27212b"/><stop offset=".25" stop-color="#81557e"/><stop offset=".5" stop-color="#c68dc3"/><stop offset=".685" stop-color="#423046"/><stop offset="1" stop-color="#27212b"/></linearGradient><radialGradient id="u" cx="910.5" cy="231.5" gradientUnits="userSpaceOnUse" r="85.5" xlink:href="#o"/><radialGradient id="v" cx="675" cy="401" gradientUnits="userSpaceOnUse" r="51" xlink:href="#o"/><g filter="url(#a)"><path d="m822.26 216.016c63.777 110.466-101.428 30.999-211.824 94.737-110.397 63.737-124.179 246.543-187.957 136.077-63.777-110.466-25.985-251.686 84.411-315.423 110.397-63.7377 251.592-25.857 315.37 84.609z" fill="url(#c)"/></g><circle cx="619.5" cy="322.717" fill="url(#d)" r="205.388"/><circle cx="619.5" cy="322.717" fill="url(#e)" fill-opacity=".61" r="205.388"/><circle cx="619.5" cy="322.717" fill="url(#f)" r="205.388"/><g filter="url(#b)" opacity=".42"><circle cx="628.457" cy="323.001" r="236" stroke="url(#g)" stroke-opacity=".61" stroke-width="14"/></g><circle cx="628.457" cy="323.001" opacity=".42" r="242.5" stroke="url(#g)"/><path d="m304 156.001h656v453h-656z" fill="url(#h)"/><g stroke-width=".7"><path d="m869.5 214.181c204.34 10.22 345.5 32.046 345.5 57.321 0 35.07-271.763 63.5-607 63.5s-607-28.43-607-63.5c0-27.544 98.1368-43.205 332.5-52l51.5-2.001" stroke="url(#j)"/><path d="m869.5 214.181c204.34 10.22 345.5 32.046 345.5 57.321 0 35.07-271.763 63.5-607 63.5s-607-28.43-607-63.5c0-27.544 98.1368-43.205 332.5-52l51.5-2.001" stroke="url(#l)"/><path d="m834 179c204.73-18.088 333.68-13.052 338 16.277 5.45 36.879-211.742 100.139-500.353 148.244" stroke="url(#m)"/><path d="m834 179c204.73-18.088 333.68-13.052 338 16.277 5.45 36.879-211.742 100.139-500.353 148.244" stroke="url(#n)"/></g><circle cx="955" cy="171" fill="url(#p)" r="95"/><path d="m675.055 392.781c-285.006 35.087-521.527 19.043-528.283-35.836-4.727-38.396 21.327-68.817 166.728-102.072 17.82-4.075 37.432-8.193 59-12.374 18.833-2.666 57.7-8.099 62.5-8.499" stroke="url(#q)" stroke-width=".7"/><path d="m675.055 392.781c-285.006 35.087-521.527 19.043-528.283-35.836-4.727-38.396 21.327-68.817 166.728-102.072 17.82-4.075 37.432-8.193 59-12.374 18.833-2.666 57.7-8.099 62.5-8.499" stroke="url(#r)" stroke-width=".7"/><path d="m909.887 232.72c118.843 26.188 194.113 55.066 191.593 77.946-4.3 39.113-234.311 45.884-513.732 15.124-279.422-30.76-502.4472-87.404-498.1413-126.518 2.7038-24.561 56.7653-34.894 178.7253-32.072" stroke="url(#s)" stroke-width=".7"/><path d="m909.887 232.72c118.843 26.188 194.113 55.066 191.593 77.946-4.3 39.113-234.311 45.884-513.732 15.124-279.422-30.76-502.4472-87.404-498.1413-126.518 2.7038-24.561 56.7653-34.894 178.7253-32.072" stroke="url(#t)" stroke-width=".7"/><circle cx="910.5" cy="231.5" fill="url(#u)" r="85.5"/><circle cx="675" cy="401" fill="url(#v)" r="51"/></svg>