<svg width="579" height="110" viewBox="0 0 579 110" fill="none" xmlns="http://www.w3.org/2000/svg">
<path fill-rule="evenodd" clip-rule="evenodd" d="M285.5 1.7019C275.681 6.3229 271.059 13.2269 271.022 23.3279C270.985 33.2289 275.18 39.2849 285.033 43.5549C287.275 44.5269 288.112 44.2139 292.337 40.8249L297.109 36.9959L292.031 34.8119C281.636 30.3399 278.893 22.2549 285.372 15.1849C288.478 11.7959 289.261 11.4719 295.273 11.0889C303.859 10.5429 308.114 12.0799 312.824 17.4309L316.695 21.8289L320.851 18.7719L325.008 15.7149L323.254 12.7029C321.086 8.9779 317.011 5.46191 311.616 2.66091C305.7 -0.411095 291.127 -0.946095 285.5 1.7019ZM0 43.9489V87.0039L4.75 86.6989L9.5 86.3939L9.761 43.6439L10.021 0.893905H5.011H0V43.9489ZM154.5 10.2549L150.5 11.4619V43.4279C150.5 73.5959 150.613 75.5849 152.5 78.7889C156.054 84.8229 159.142 86.3519 168.573 86.7469L177 87.0989V81.9969V76.8939H171C161.135 76.8939 161 76.5899 161 54.3939V35.8939H169H177V30.8939V25.8939H169H161V17.3939C161 8.07191 161.158 8.2459 154.5 10.2549ZM45.885 25.2739C41.67 26.7799 36 30.6159 36 31.9619C36 32.4749 35.55 32.8939 35 32.8939C34.45 32.8939 34 31.3189 34 29.3939V25.8939H29H24V56.3939V86.8939H28.896H33.791L34.199 67.1439C34.509 52.1359 34.982 46.5419 36.168 43.8469C40.817 33.2809 55.58 30.6309 63.542 38.9349L66.5 42.0199L67 64.2069L67.5 86.3939L72.75 86.6959L78 86.9989V66.1279C78 49.9099 77.643 44.0459 76.398 39.8259C72.747 27.4519 58.629 20.7189 45.885 25.2739ZM103.309 25.4759C94.428 28.7509 89.161 38.7909 91.927 47.1719C93.932 53.2479 99.016 56.5599 112.231 60.4019C123.163 63.5809 126.686 67.3359 124.379 73.3489C122.77 77.5419 112.28 79.2909 105.566 76.4859C103.712 75.7109 101.185 73.7109 99.95 72.0409L97.705 69.0039L93.92 70.9349C91.839 71.9969 89.888 73.2659 89.586 73.7549C88.5 75.5119 94.856 82.6459 99.518 84.9019C105.87 87.9779 116.111 88.6819 122.692 86.4959C130.78 83.8099 136 77.0559 136 69.2789C136 61.0399 130.613 56.0949 117.092 51.9219C103.469 47.7189 100.222 44.6919 102.621 38.4389C103.568 35.9719 108.41 33.8939 113.2 33.8979C117.704 33.9019 123.623 36.7479 124.641 39.3999C125.422 41.4359 126.833 41.2419 131.324 38.4809L135.147 36.1309L131.918 32.4539C130.142 30.4309 126.847 27.8349 124.595 26.6849C119.256 23.9589 109.001 23.3759 103.309 25.4759ZM211.293 25.3429C202.834 27.9859 194.591 36.1339 191.495 44.9099C190.673 47.2389 190 52.2339 190 56.0089C190 68.4089 195.863 78.7329 206.136 84.4229C210.972 87.1019 212.386 87.3939 220.5 87.3899C230.618 87.3859 233.889 86.1749 240.25 80.0809L244 76.4879V81.6909V86.8939H249H254V56.3939V25.8939H249H244V30.3939C244 32.8689 243.848 34.8939 243.663 34.8939C243.477 34.8939 241.492 33.1499 239.251 31.0179C232.358 24.4609 221.297 22.2159 211.293 25.3429ZM455.86 25.4019C449.89 27.3169 441.656 34.7229 438.199 41.2859C435.823 45.7979 435.511 47.5029 435.52 55.8939C435.529 63.8589 435.914 66.1709 437.903 70.2029C443.692 81.9359 454.741 88.4509 467.5 87.6539C475.425 87.1589 479.819 85.2839 485.25 80.0809L489 76.4879V81.6909V86.8939H494H499V56.3939V25.8939H494H489V30.5969V35.2999L485.25 31.7069C483.188 29.7309 479.925 27.3169 478 26.3429C473.302 23.9649 461.856 23.4789 455.86 25.4019ZM537.878 25.4569C535.171 26.2899 531.545 28.5399 529.128 30.8859L525 34.8919V30.3929V25.8939H519.5H514V68.0939C514 91.3039 514.372 109.867 514.827 109.344C515.282 108.822 517.757 105.388 520.327 101.715L525 95.0359V86.1199V77.2039L528.935 80.9469C539.608 91.0999 559.877 89.7709 569.989 78.2539C575.667 71.7859 578.368 64.5319 578.368 55.7469C578.368 49.1349 577.926 47.1869 575.142 41.5309C568.124 27.2749 553.066 20.7799 537.878 25.4569ZM339 26.9249C339 27.4919 343.13 41.2169 348.178 57.4249L357.356 86.8939H362.606H367.856L373.485 69.1439C376.58 59.3809 379.837 49.1439 380.721 46.3939C381.656 43.4899 382.545 42.0229 382.843 42.8939C383.126 43.7189 386.337 53.8439 389.979 65.3939L396.602 86.3939L401.44 86.7039C404.102 86.8749 406.633 86.6499 407.065 86.2039C407.744 85.5039 426 27.8709 426 26.4269C426 26.1339 423.557 25.8939 420.571 25.8939H415.142L413.501 31.6439C404.528 63.0769 402.627 69.4869 402.104 70.0819C401.772 70.4599 398.377 60.6729 394.559 48.3319L387.618 25.8939H382.377H377.136L373.147 38.6439C370.954 45.6569 367.933 55.4439 366.435 60.3939C364.937 65.3439 363.417 69.7309 363.058 70.1419C362.698 70.5539 359.512 60.7659 355.977 48.3919L349.551 25.8939H344.275C341.32 25.8939 339 26.3469 339 26.9249ZM228.5 34.9989C234.538 36.6509 241.487 44.2759 242.882 50.7789C244.633 58.9419 242.82 65.3159 237.122 71.0389C224.209 84.0059 202.881 76.8989 200.401 58.8029C199.502 52.2409 201.502 46.3019 206.326 41.2149C212.554 34.6469 219.794 32.6179 228.5 34.9989ZM473.5 35.0119C479.101 36.5629 486.437 44.0889 487.998 49.8849C492.17 65.3799 479.423 79.8339 463.67 77.4719C446.687 74.9249 439.601 54.1799 451.331 41.3469C457.461 34.6409 464.693 32.5739 473.5 35.0119ZM557.537 37.3629C569.666 44.4709 571.713 61.2429 561.675 71.2649C547.714 85.2059 525.044 75.6939 525.044 55.8939C525.044 38.7749 542.733 28.6869 557.537 37.3629Z" fill="#7A7A7A"/>
<path fill-rule="evenodd" clip-rule="evenodd" d="M299.5 45.9588C294 46.8838 289.275 47.7208 289 47.8188C288.725 47.9168 293.437 49.7608 299.472 51.9158C315.107 57.5008 318.531 60.5838 317.619 68.2558C316.741 75.6458 310.138 79.8828 299.5 79.8828C291.539 79.8828 286.936 78.1378 282.357 73.3828L278.213 69.0808L274.607 71.6468C269.798 75.0688 269.925 77.6898 275.128 82.3898C281.347 88.0088 287.119 90.1898 297.098 90.6918C309.043 91.2918 315.55 89.3058 321.953 83.1028C332.664 72.7268 330.999 55.6448 318.57 48.3918C311.635 44.3458 310.192 44.1608 299.5 45.9588Z" fill="#7A7A7A"/>
</svg>
