<svg width="78" height="46" viewBox="0 0 78 46" fill="none" xmlns="http://www.w3.org/2000/svg">
<g id="payment methods/applepay">
<path id="Vector" d="M57.9487 34.5087C60.6243 34.5087 61.8836 33.5226 62.9836 30.5333L67.8025 17.4773H65.0125L61.781 27.5783H61.7243L58.4928 17.491H55.6237L60.2726 29.9177L60.0236 30.6736C59.8477 31.7555 58.8422 32.5273 57.7103 32.4475C57.4943 32.4475 57.0753 32.4258 56.9054 32.4042V34.4563C57.2512 34.5019 57.6006 34.5235 57.9487 34.5224V34.5087ZM48.6508 27.9705C47.1873 27.9705 46.2585 27.2864 46.2585 26.2513C46.2585 25.1785 47.1543 24.5537 48.8668 24.4545L51.9165 24.2687V25.2332C51.8493 26.8224 50.4601 28.0594 48.8149 27.9944C48.7594 27.9921 48.7051 27.9876 48.6508 27.983V27.9705ZM47.9143 29.9964C49.5749 30.0397 51.1281 29.204 51.9626 27.8166H52.0192V29.8687H54.5591V21.3695C54.5591 18.9047 52.5184 17.3166 49.3767 17.3166C46.4626 17.3166 44.3075 18.9264 44.2285 21.1392H46.7011C46.9961 20.014 48.1032 19.2718 49.2976 19.3972C50.9759 19.3972 51.9165 20.1531 51.9165 21.5439V22.4856L48.4938 22.6829C45.3072 22.8687 43.584 24.1285 43.584 26.3197C43.5817 28.5416 45.3615 30.0089 47.9132 30.0089L47.9143 29.9964ZM33.1956 15.0239H36.3586C38.7403 15.0239 40.1012 16.2506 40.1012 18.4088C40.1012 20.5669 38.7403 21.8039 36.348 21.8039H33.1956V15.0239ZM30.4515 12.7894V29.8653H33.1956V24.0441H36.9948C40.0894 24.2048 42.7319 21.9122 42.8983 18.9229C42.9078 18.7531 42.909 18.5843 42.9019 18.4145C43.0482 15.4583 40.6866 12.9479 37.6262 12.8054C37.4456 12.7974 37.2662 12.7985 37.0857 12.8065L30.4515 12.7894ZM21.3436 15.9759C19.7668 15.8881 18.4178 16.8412 17.6696 16.8412C16.9213 16.8412 15.7647 16.0203 14.5171 16.0431C12.8648 16.0842 11.3588 16.9677 10.5598 18.3655C8.85908 21.1917 10.1172 25.3757 11.7613 27.6752C12.5662 28.8153 13.5316 30.0636 14.8004 30.0192C16.0019 29.9758 16.4787 29.2633 17.9304 29.2633C19.3821 29.2633 19.8129 30.0192 21.0828 29.9964C22.3976 29.9747 23.2261 28.8563 24.0334 27.7162C24.6023 26.9091 25.0449 26.0255 25.3482 25.0941C23.7985 24.4397 22.7942 22.9656 22.7859 21.3319C22.8095 19.8909 23.5908 18.5615 24.8607 17.8057C24.0511 16.6953 22.7517 16.0135 21.346 15.9656L21.3436 15.9759ZM20.3593 14.4676C19.6689 15.3078 18.6126 15.7901 17.502 15.7707C17.4311 14.7241 17.7994 13.6946 18.5229 12.9125C19.2428 12.1054 20.2578 11.5992 21.3554 11.5C21.4333 12.5762 21.0757 13.6388 20.357 14.4642" fill="white"/>
</g>
</svg>
