<svg width="78" height="46" viewBox="0 0 78 46" fill="none" xmlns="http://www.w3.org/2000/svg">
<path d="M37.2042 22.3033V28.7854H35.0605V12.7774H40.746C41.4247 12.7638 42.0994 12.8793 42.7313 13.1172C43.3632 13.355 43.9397 13.7106 44.4276 14.1633C44.9204 14.5885 45.3126 15.11 45.5779 15.6927C45.8431 16.2754 45.9753 16.9059 45.9654 17.5416C45.9796 18.1808 45.8494 18.8154 45.584 19.4018C45.3185 19.9882 44.9241 20.5127 44.4276 20.9392C43.4334 21.8486 42.2062 22.3028 40.746 22.302H37.2042V22.3033ZM37.2042 14.7483V20.3363H40.7993C41.1934 20.3475 41.5856 20.2797 41.9508 20.1372C42.3161 19.9946 42.6463 19.7806 42.9203 19.5086C43.193 19.2544 43.4097 18.9503 43.5576 18.6143C43.7056 18.2783 43.7819 17.9172 43.7819 17.5525C43.7819 17.1877 43.7056 16.8267 43.5576 16.4907C43.4097 16.1547 43.193 15.8506 42.9203 15.5964C42.6497 15.3187 42.3207 15.0994 41.955 14.9529C41.5893 14.8065 41.1954 14.7363 40.7993 14.747H37.2042V14.7483Z" fill="#E4E5E7"/>
<path d="M50.906 17.4756C52.4904 17.4756 53.7411 17.8818 54.6581 18.6941C55.575 19.5064 56.0331 20.6202 56.0322 22.0354V28.7858H53.9817V27.2658H53.8885C53.0008 28.5175 51.8202 29.1434 50.3467 29.1434C49.0889 29.1434 48.0366 28.7858 47.1898 28.0705C46.7834 27.7422 46.4585 27.3311 46.2387 26.867C46.019 26.403 45.9099 25.8978 45.9195 25.3882C45.9195 24.2549 46.366 23.3536 47.259 22.6843C48.152 22.015 49.3441 21.6795 50.8354 21.6778C52.1083 21.6778 53.1566 21.9013 53.9804 22.3483V21.8783C53.9828 21.5309 53.9046 21.1874 53.7515 20.8726C53.5983 20.5577 53.374 20.2796 53.0949 20.0582C52.528 19.5676 51.7892 19.2999 51.0258 19.3085C49.8283 19.3085 48.8808 19.793 48.1831 20.762L46.295 19.6214C47.3336 18.1909 48.8706 17.4756 50.906 17.4756ZM48.1325 25.4329C48.131 25.6947 48.1948 25.9529 48.3185 26.1862C48.4422 26.4195 48.6222 26.621 48.8435 26.7741C49.3176 27.1318 49.9061 27.3213 50.5092 27.3105C51.4138 27.3091 52.2809 26.9637 52.9205 26.35C53.6306 25.7088 53.9857 24.9565 53.9857 24.0931C53.3173 23.5822 52.3852 23.3267 51.1896 23.3267C50.3188 23.3267 49.5927 23.5281 49.0112 23.9309C48.4241 24.3396 48.1325 24.8365 48.1325 25.4329Z" fill="#E4E5E7"/>
<path d="M67.8024 17.833L60.6443 33.6136H58.4314L61.0877 28.092L56.3809 17.833H58.711L62.1129 25.701H62.1595L65.4683 17.833H67.8024Z" fill="#E4E5E7"/>
<path d="M28.5428 20.906C28.5436 20.2794 28.4884 19.6538 28.3777 19.0361H19.3369V22.578H24.5151C24.4091 23.1437 24.1848 23.6829 23.8558 24.1632C23.5267 24.6435 23.0997 25.0549 22.6004 25.3726V27.6717H25.6908C27.5003 26.0713 28.5428 23.7045 28.5428 20.906Z" fill="#4285F4"/>
<path d="M19.336 29.8933C21.9231 29.8933 24.1014 29.0784 25.6898 27.6734L22.5995 25.3743C21.7393 25.9337 20.6315 26.2531 19.336 26.2531C16.8354 26.2531 14.713 24.636 13.9541 22.457H10.7705V24.8264C11.5684 26.3495 12.7919 27.6299 14.3045 28.5246C15.817 29.4193 17.559 29.8932 19.336 29.8933Z" fill="#34A853"/>
<path d="M13.9544 22.4568C13.5532 21.315 13.5532 20.0785 13.9544 18.9367V16.5674H10.7708C10.0996 17.8487 9.75 19.2628 9.75 20.6968C9.75 22.1308 10.0996 23.5449 10.7708 24.8262L13.9544 22.4568Z" fill="#FBBC04"/>
<path d="M19.336 15.1408C20.7031 15.1194 22.0242 15.6149 23.0136 16.5203L25.7498 13.8955C24.0147 12.3322 21.7162 11.4739 19.336 11.5006C17.559 11.5007 15.817 11.9745 14.3045 12.8693C12.7919 13.764 11.5684 15.0444 10.7705 16.5675L13.9541 18.9368C14.713 16.7578 16.8354 15.1408 19.336 15.1408Z" fill="#EA4335"/>
</svg>
