<svg width="78" height="46" viewBox="0 0 78 46" fill="none" xmlns="http://www.w3.org/2000/svg">
<path d="M63.8984 14.0684H60.2489C59.1456 14.0684 58.2969 14.3963 57.7876 15.4621L50.8281 30.7929H55.7507C55.7507 30.7929 56.5994 28.7433 56.7692 28.2514C57.2784 28.2514 62.1161 28.2514 62.7951 28.2514C62.9648 28.8253 63.3892 30.7109 63.3892 30.7109H67.8026L63.8984 14.0684ZM58.1271 24.8081C58.5515 23.8243 59.9943 20.1351 59.9943 20.1351C59.9943 20.2171 60.4187 19.1513 60.5884 18.5774L60.9279 20.0531C60.9279 20.0531 61.8615 24.0703 62.0312 24.8901H58.1271V24.8081Z" fill="#3362AB"/>
<path d="M51.1675 25.2999C51.1675 28.7432 47.9424 31.0387 42.9349 31.0387C40.8131 31.0387 38.7762 30.6288 37.6729 30.1369L38.3518 26.3657L38.9459 26.6116C40.4736 27.2675 41.4921 27.5134 43.3593 27.5134C44.7172 27.5134 46.1601 27.0215 46.1601 25.8738C46.1601 25.1359 45.566 24.644 43.6988 23.8242C41.9165 23.0044 39.54 21.6926 39.54 19.3151C39.54 16.0358 42.85 13.8223 47.518 13.8223C49.3003 13.8223 50.828 14.1502 51.7616 14.5601L51.0826 18.1674L50.7432 17.8394C49.8944 17.5115 48.7911 17.1836 47.1785 17.1836C45.3962 17.2656 44.5475 18.0034 44.5475 18.6593C44.5475 19.3971 45.566 19.971 47.1785 20.7088C49.8944 21.9386 51.1675 23.3323 51.1675 25.2999Z" fill="#3362AB"/>
<path d="M9.75 14.2322L9.83487 13.9043H17.1339C18.1523 13.9043 18.9162 14.2322 19.1708 15.298L20.7834 22.6765C19.1708 18.7413 15.4364 15.544 9.75 14.2322Z" fill="#F9B50B"/>
<path d="M31.0529 14.0683L23.669 30.7109H18.6616L14.418 16.7738C17.4734 18.6594 20.0195 21.6107 20.9531 23.6603L21.4624 25.382L26.0455 13.9863H31.0529V14.0683Z" fill="#3362AB"/>
<path d="M33.0047 13.9863H37.6727L34.7021 30.7109H30.0342L33.0047 13.9863Z" fill="#3362AB"/>
</svg>
