<svg width="300" height="37" viewBox="0 0 300 37" fill="none" xmlns="http://www.w3.org/2000/svg"><path d="M68.4056 13.8134L63.6739 8.94169H57.2104L53.7157 12.5184V15.4475L56.963 17.1125H64.6945L69.8592 19.8259V25.6534L64.8182 30.8334H56.0661L50.5612 25.1909L52.4787 23.1867L57.2104 28.0584H63.6739L67.1686 24.4817V21.5217L64.0141 19.8875H56.3444L50.9942 17.1742V11.3467L56.0661 6.16669H64.8182L70.3231 11.8092L68.4056 13.8134Z" fill="#F2F2F2"/><path d="M87.1713 8.94169H82.1922V28.0584H87.1713V30.8334H74.4916V28.0584H79.4707V8.94169H74.4916V6.16669H87.1713V8.94169Z" fill="#F2F2F2"/><path d="M106.363 30.8334H92.5701V6.16669H106.363L111.435 11.3467V25.6534L106.363 30.8334ZM108.714 12.5184L105.25 8.94169H95.2916V28.0584H105.25L108.714 24.4817V12.5184Z" fill="#F2F2F2"/><path d="M117.305 30.8334V6.16669H136.17V8.94169H120.026V17.1125H129.366V19.8875H120.026V28.0584H136.17V30.8334H117.305Z" fill="#F2F2F2"/><path d="M157.409 13.8134L152.677 8.94169H146.214L142.719 12.5184V15.4475L145.966 17.1125H153.698L158.862 19.8259V25.6534L153.821 30.8334H145.069L139.565 25.1909L141.482 23.1867L146.214 28.0584H152.677L156.172 24.4817V21.5217L153.017 19.8875H145.348L139.998 17.1742V11.3467L145.069 6.16669H153.821L159.326 11.8092L157.409 13.8134Z" fill="#F2F2F2"/><path d="M180.411 30.8334V19.8875H166.99V30.8334H164.268V6.16669H166.99V17.1125H180.411V6.16669H183.133V30.8334H180.411Z" fill="#F2F2F2"/><path d="M201.211 8.94169H196.232V28.0584H201.211V30.8334H188.532V28.0584H193.511V8.94169H188.532V6.16669H201.211V8.94169Z" fill="#F2F2F2"/><path d="M209.332 8.94169V17.1125H218.671V19.8875H209.332V30.8334H206.61V6.16669H225.475V8.94169H209.332Z" fill="#F2F2F2"/><path d="M246.67 8.94169H238.599V30.8334H235.877V8.94169H227.806V6.16669H246.67V8.94169Z" fill="#F2F2F2"/><path d="M252.855 30.8334V26.3934H255.916V30.8334H252.855Z" fill="#F2F2F2"/><path d="M279.2 30.8334V19.8875H265.778V30.8334H263.057V11.3467L268.128 6.16669H276.85L281.921 11.3467V30.8334H279.2ZM279.2 12.5184L275.736 8.94169H269.242L265.778 12.5184V17.1125H279.2V12.5184Z" fill="#F2F2F2"/><path d="M300 8.94169H295.021V28.0584H300V30.8334H287.32V28.0584H292.299V8.94169H287.32V6.16669H300V8.94169Z" fill="#F2F2F2"/><path d="M30.5887 4.42356C27.3588 1.67463 23.1473 0 18.5559 0C8.29631 0 0 8.27837 0 18.5157C0 23.0973 1.67826 27.2997 4.43314 30.5225L30.5887 4.42356Z" fill="url(#paint0_linear)"/><path d="M6.39664 32.4817C9.65816 35.2938 13.9013 37 18.5561 37C28.8157 37 37.112 28.7216 37.112 18.4843C37.112 13.8395 35.4021 9.60555 32.5838 6.35107L6.39664 32.4817Z" fill="url(#paint1_linear)"/><defs><linearGradient id="paint0_linear" x1="24.853" y1="27.852" x2="6.425" y2="2.633" gradientUnits="userSpaceOnUse"><stop stop-color="#FF416C"/><stop offset="1" stop-color="#FF4B2B"/></linearGradient><linearGradient id="paint1_linear" x1="31.353" y1="34.318" x2="12.848" y2="8.995" gradientUnits="userSpaceOnUse"><stop stop-color="#FF416C"/><stop offset="1" stop-color="#FF4B2B"/></linearGradient></defs></svg>