<svg width="5093" height="1024" viewBox="0 0 5093 1024" fill="none" xmlns="http://www.w3.org/2000/svg">
    <path d="M230.997 512L116.053 626.987L0 512L116.011 395.989L230.997 512ZM512 230.997L709.973 428.971L826.027 313.003L512 0L197.973 314.027L314.027 429.995L512 230.997ZM907.989 395.989L793.003 512L909.013 628.011L1024.98 512L907.989 395.989ZM512 793.003L314.027 594.005L197.973 710.016L512 1024L826.027 709.973L709.973 594.005L512 793.003ZM512 627.029L628.011 510.976L512 396.032L395.989 512L512 626.987V627.029ZM1732.01 638.976V637.013C1732.01 562.005 1691.99 523.989 1627.01 498.987C1666.99 477.013 1700.99 440.96 1700.99 377.984V376.021C1700.99 288 1629.99 230.997 1515.99 230.997H1255V792.021H1522.01C1648.98 793.003 1732.01 740.992 1732.01 639.019V638.976ZM1577.98 399.019C1577.98 441.003 1543.98 457.984 1488.98 457.984H1375.02V338.987H1497C1549.01 338.987 1577.98 359.979 1577.98 397.013V399.019ZM1609 623.019C1609 665.003 1576.02 684.032 1521.96 684.032H1375.02V560.981H1517.99C1581.01 560.981 1609 584.021 1609 621.995V623.019ZM1991 793.003V230.997H1867.01V792.021H1991V793.003V793.003ZM2655.02 793.003V230.997H2532.99V577.024L2269.99 230.997H2155.99V792.021H2278.02V436.011L2550.02 793.003H2654.98H2655.02ZM3338.97 793.003L3098.03 228.011H2984.06L2743.04 793.003H2870.06L2921.05 667.008H3158.06L3209.05 793.003H3339.05H3338.97ZM3113.98 557.995H2964.99L3040 376.021L3113.98 557.995V557.995ZM3928.02 793.003V230.997H3805.99V577.024L3543 230.997H3428.99V792.021H3551.02V436.011L3823.02 793.003H3927.98H3928.02ZM4564.99 701.995L4486.02 623.019C4441.98 662.997 4402.99 688.981 4338.01 688.981C4242.01 688.981 4175.02 608.981 4175.02 512.981V509.995C4175.02 413.995 4242.99 335.019 4338.01 335.019C4393.98 335.019 4438.02 358.997 4482.01 397.995L4560.98 306.987C4509.01 256 4445.99 219.989 4340.01 219.989C4168.02 219.989 4047.02 350.976 4047.02 509.995V512C4047.02 672.981 4169.98 800.981 4335.02 800.981C4443.01 802.005 4507.01 763.989 4564.99 701.995V701.995ZM5092.01 793.003V683.008H4786.99V564.992H5051.99V454.997H4786.99V340.992H5088V230.997H4665V792.021H5092.01V793.003V793.003Z"
          fill="#7a7a7a"/>
</svg>
