<svg width="150"
     height="29"
     viewBox="0 0 150 29"
     fill="none"
     xmlns="http://www.w3.org/2000/svg"
>
    <g clip-path="url(#clip0)">
        <path d="M123.075 0.398865L129.304 8.71718L135.355 0.398865H130.486H123.075Z"
              fill="#F06464"
        />
        <path
            d="M20.9218 23.6097L17.7833 27.8755H0V0.384888H20.3595L17.1969 4.65068H5.1812V11.8504H17.1969V16.0498H5.1812V23.6335L20.9218 23.6097Z"
            fill="white"
        />
        <path fill-rule="evenodd"
              clip-rule="evenodd"
              d="M56.0081 21.3914C57.2934 23.5365 59.1546 25.2899 61.3864 26.4581C66.2194 28.8993 71.948 28.8993 76.781 26.4581C79.0078 25.2917 80.8679 23.5459 82.1592 21.4103C83.4751 19.2114 84.1503 16.6971 84.1106 14.1442C84.1453 11.5915 83.4651 9.07884 82.1448 6.88288C80.8534 4.7473 78.9933 3.00148 76.7666 1.83503C71.9399 -0.611472 66.213 -0.611472 61.3864 1.83503C59.1567 3.00607 57.2962 4.75882 56.0081 6.90185C54.6995 9.09504 54.0247 11.5997 54.0568 14.1442C54.0245 16.6903 54.6994 19.1965 56.0081 21.3914ZM77.6074 19.0973C76.7871 20.5569 75.5681 21.7606 74.0891 22.5715L74.0987 22.5526C70.9625 24.2016 67.1994 24.2016 64.0631 22.5526C62.5934 21.7428 61.3805 20.5467 60.5594 19.0973C59.7021 17.5848 59.2628 15.8767 59.2857 14.1442C59.261 12.4069 59.7002 10.6938 60.5594 9.17691C61.3817 7.72688 62.5965 6.53064 64.0679 5.72163C67.204 4.07177 70.9675 4.07177 74.1035 5.72163C75.5733 6.53134 76.7863 7.72751 77.6074 9.17691C78.4626 10.6886 78.9033 12.3942 78.8858 14.1252C78.9095 15.8645 78.4685 17.5793 77.6074 19.0973Z"
              fill="white"
        />
        <path d="M89.9834 0.398865H95.1648V23.5716H109.742L106.57 27.8943H89.9885L89.9834 0.398865Z"
              fill="white"
        />
        <path d="M113.103 0.398865H118.279V20.7799L113.103 27.8896V0.398865Z"
              fill="white"
        />
        <path
            d="M42.1752 14.6182L51.932 27.8943H46.3134L25.728 0.398865H31.6205L39.1087 10.8453L46.6739 0.398865H52.6482L42.1752 14.6182Z"
            fill="white"
        />
        <path d="M38.0082 27.8943L31.7743 19.5713L25.728 27.8943H30.5968H38.0082Z" fill="#3FF4BB"/>
        <path
            d="M139.522 13.6749L149.279 0.398865H143.665L123.075 27.8943H128.968L136.455 17.4431L144.026 27.8943H150L139.522 13.6749Z"
            fill="white"
        />
    </g>
    <defs>
        <clipPath id="clip0">
            <rect width="150"
                  height="28.2889"
                  fill="white"
            />
        </clipPath>
    </defs>
</svg>
