<svg width="999" height="182" viewBox="0 0 999 182" fill="none" xmlns="http://www.w3.org/2000/svg">
    <path d="M528.26 62.6372C517.754 62.6372 509.28 67.8854 505.457 74.9336V65.3877H470.965V80.8998H490.178V121.723H470.844V137.235L531.001 136.992V121.713H506.893V96.058C506.893 83.2863 515.367 78.392 522.77 78.392C525.035 78.392 527.31 78.8673 528.139 79.5852C527.542 81.1324 527.3 82.5683 527.3 84.1256C527.3 89.7379 531.244 94.6322 538.039 94.6322C543.53 94.6322 549.375 90.0918 549.375 81.3852C549.385 70.0292 539.121 62.6372 528.26 62.6372Z"
          fill="#7A7A7A"/>
    <path d="M420.475 62.5156C398.511 62.5156 381.806 79.4636 381.806 100.952C381.806 121.48 398.521 139.621 420.717 139.621C434.328 139.621 445.189 135.323 452.47 126.971L442.327 114.442C437.675 119.215 430.506 123.037 420.727 123.037C409.988 123.037 401.029 115.281 399.957 106.322L457.131 106.443C457.374 105.371 457.607 104.41 457.607 100.952C457.597 79.8176 442.56 62.5156 420.475 62.5156ZM399.947 93.0746C402.212 83.8827 410.929 78.2704 420.353 78.2704C429.424 78.2704 438.019 83.64 439.566 93.0746H399.947Z"
          fill="#7A7A7A"/>
    <path d="M357.81 91.76C357.81 74.3368 346.231 62.5156 329.637 62.5156C317.341 62.5156 307.795 68.2492 303.376 77.0772C299.553 68.1279 290.847 62.5156 280.097 62.5156C269.116 62.5156 262.189 68.4818 259.206 74.9334H258.963V65.3875L229.001 65.5088V80.9097H242.49V137.012H259.206V97.0083C259.206 86.0264 266.365 78.867 275.921 78.867C285.477 78.867 291.797 84.8332 291.797 96.8869V136.992H308.513V96.8869C308.513 86.0264 316.147 78.867 325.703 78.867C335.138 78.867 341.104 84.8332 341.104 96.1791V137.002H371.188V121.722H357.82V91.76H357.81Z"
          fill="#7A7A7A"/>
    <path d="M880.255 80.8996H887.9L872.378 119.69L855.673 80.8996H864.389V65.3774H829.169V80.8996H838.836L863.186 136.992L850.182 169.705H868.323L903.534 80.8996H914.04V65.3774H880.255V80.8996Z"
          fill="#7A7A7A"/>
    <path d="M801.724 62.6372C791.218 62.6372 782.744 67.8854 778.921 74.9336V65.3877H744.429V80.8998H763.642V121.723H744.307V137.235L804.465 136.992V121.713H780.357V96.058C780.357 83.2863 788.831 78.392 796.233 78.392C798.499 78.392 800.774 78.8673 801.603 79.5852C801.006 81.1324 800.764 82.5683 800.764 84.1256C800.764 89.7379 804.707 94.6322 811.503 94.6322C816.994 94.6322 822.839 90.0918 822.839 81.3852C822.849 70.0292 812.585 62.6372 801.724 62.6372Z"
          fill="#7A7A7A"/>
    <path d="M959.039 62.5156C937.551 62.5156 919.885 79.8277 919.885 101.073C919.885 122.319 937.551 139.631 959.039 139.631C980.639 139.631 998.194 122.319 998.194 101.073C998.194 79.8277 980.639 62.5156 959.039 62.5156ZM959.039 123.512C946.622 123.512 936.6 113.481 936.6 101.073C936.6 88.6657 946.632 78.6344 959.039 78.6344C971.457 78.6344 981.478 88.6657 981.478 101.073C981.478 113.481 971.457 123.512 959.039 123.512Z"
          fill="#7A7A7A"/>
    <path d="M621.009 100.355C627.451 100.355 632.831 95.5825 632.831 87.5837C632.831 76.4806 619.816 62.5156 597.853 62.5156C575.889 62.5156 559.184 79.4636 559.184 100.952C559.184 121.48 575.899 139.621 598.095 139.621C613.85 139.621 624.478 133.18 631.516 125.302L621.606 113.127C615.873 119.69 608.834 123.158 599.167 123.158C588.428 123.158 577.325 115.281 577.325 100.598C577.325 85.6826 588.428 78.9985 598.217 78.9985C605.376 78.9985 609.674 80.667 613.021 83.4175C611.231 85.3287 610.392 88.1905 610.392 90.3443C610.382 96.169 615.276 100.355 621.009 100.355Z"
          fill="#7A7A7A"/>
    <path d="M721.15 65.3774H704.435V105.361C704.435 116.343 697.276 123.502 687.72 123.502C678.164 123.502 671.843 117.536 671.843 105.482V65.3774H641.76V80.657H655.128V106.676C655.128 124.342 665.038 139.5 682.815 139.5C694.04 139.5 701.674 133.887 704.657 127.325H704.779V136.992L734.62 136.871V121.47H721.13V65.3774H721.15Z"
          fill="#7A7A7A"/>
    <path d="M91.0733 0.719727C41.2721 0.719727 0.900024 41.0918 0.900024 90.893C0.900024 140.694 41.2721 181.066 91.0733 181.066C140.874 181.066 181.247 140.694 181.247 90.893C181.247 41.0918 140.874 0.719727 91.0733 0.719727Z"
          fill="#7A7A7A"/>
    <mask id="mask0" mask-type="alpha" maskUnits="userSpaceOnUse" x="0" y="0" width="182" height="185">
        <path d="M91.0733 0.719727C41.2721 0.719727 0.900024 41.0918 0.900024 90.893C0.900024 132.77 29.4471 167.981 68.1427 178.125C75.4645 180.044 83.1495 184.089 91.0733 184.089C98.9971 184.089 106.682 180.044 114.004 178.125C152.699 167.981 181.247 132.77 181.247 90.893C181.247 41.0918 140.874 0.719727 91.0733 0.719727Z"
              fill="#FBFBFB"/>
    </mask>
    <g mask="url(#mask0)">
        <path d="M30.6727 107.42C30.6727 128.279 36.9066 145.066 42.1836 158.491C46.7416 170.24 46.7416 172.159 46.7416 181.269H50.0991C50.0991 172.878 50.0991 169.758 45.0657 157.291C39.7886 144.104 33.7984 127.797 33.7984 107.42C33.7984 85.842 36.4369 67.616 41.4703 54.9105C44.1088 48.1954 46.9851 45.8004 52.0186 45.8004C57.2956 45.8004 62.8104 47.7199 64.4863 60.9066C66.4057 76.2506 70.001 88.9618 73.8399 102.386C79.836 123.245 86.0699 144.347 84.8695 177.917C70.4824 174.798 65.4489 167.607 64.0108 142.671L59.215 65.221C58.7337 58.2681 56.5765 55.1483 52.2621 55.1483C47.9477 55.1483 46.0283 59.4627 44.8279 64.0207C43.3898 69.0541 38.5941 92.5514 40.5135 116.53C41.7139 131.155 46.5096 143.623 50.5862 154.414C56.8201 169.758 56.8201 170.959 57.0578 181.269H60.4154C60.4154 172.159 60.1777 169.521 53.7003 153.214C49.6236 142.666 45.0657 130.436 43.8711 116.286C41.9516 92.7891 46.5096 69.7674 47.9477 64.9717C49.6236 59.2192 51.0676 58.5001 52.2621 58.5001C53.4625 58.5001 55.382 58.5001 55.8575 65.453L60.6532 142.66C62.0913 167.595 67.1248 181.263 90.8656 181.263C114.606 181.263 119.64 167.595 121.078 142.66L125.874 65.453C126.355 58.5001 128.269 58.5001 129.469 58.5001C130.669 58.5001 132.108 59.2192 133.783 64.9717C135.222 69.7674 139.78 92.7833 137.86 116.286C136.66 130.436 132.108 142.66 128.031 153.214C121.559 169.521 121.316 172.159 121.316 181.269H124.673C124.911 170.959 124.911 169.758 131.145 154.414C135.222 143.623 140.017 131.155 141.218 116.53C143.137 92.5514 138.341 69.0541 136.903 64.0207C135.703 59.4627 133.783 55.1483 129.469 55.1483C125.155 55.1483 122.997 58.2681 122.516 65.221L117.72 142.671C116.282 167.607 111.249 174.803 96.8617 177.917C95.6613 144.347 101.895 123.251 107.891 102.386C111.73 88.956 115.325 76.2506 117.245 60.9066C118.921 47.7199 124.436 45.8004 129.713 45.8004C134.746 45.8004 137.628 48.1954 140.261 54.9105C145.294 67.616 147.933 85.842 147.933 107.42C147.933 127.803 141.937 144.104 136.665 157.291C131.632 169.758 131.632 172.878 131.632 181.269H134.99C134.99 172.159 134.99 170.24 139.548 158.491C144.825 145.061 151.058 128.279 151.058 107.42C151.058 85.3607 148.42 66.8969 143.143 53.7102C140.748 47.9576 137.628 42.6806 129.713 42.6806C119.402 42.6806 115.325 49.6335 114.125 60.6631C112.449 75.7693 108.848 88.237 105.015 101.424C98.7811 122.526 92.5473 144.585 93.7476 178.393C93.0286 178.393 92.0718 178.393 90.8714 178.393H87.9951C89.1955 144.585 82.9616 122.526 76.7278 101.424C72.8889 88.237 69.2936 75.7693 67.6177 60.6631C66.4173 49.6335 62.3407 42.6806 52.0302 42.6806C44.1146 42.6806 41.0006 47.9576 38.5999 53.7102C33.3112 66.8969 30.6727 85.3607 30.6727 107.42ZM91.5788 30.4507H89.903C88.2271 39.0853 85.1072 41.9615 76.4726 43.881V45.0814C85.1072 47.0008 88.2213 50.1148 89.903 58.7494H91.5788C93.2547 50.1148 96.6123 47.0008 104.766 45.0814V43.881C96.6123 41.9615 93.2547 39.0853 91.5788 30.4507Z"
              fill="black"/>
    </g>
</svg>
