<svg width="1000" height="229" viewBox="0 0 1000 229" fill="none" xmlns="http://www.w3.org/2000/svg">
<g clip-path="url(#clip0_201_3)">
<path fill-rule="evenodd" clip-rule="evenodd" d="M827.868 68.0558H856.268V39.6495H827.868V68.0558ZM676.918 115.362C682.345 100.968 696.241 90.7205 712.536 90.7205C728.828 90.7205 742.724 100.968 748.153 115.362H676.918ZM712.536 64.3096C676.937 64.3096 648.07 93.1791 648.07 128.793C648.07 164.406 676.937 193.271 712.536 193.271C736.964 193.271 758.215 179.685 769.154 159.66L745.334 148.101C738.715 159.325 726.507 166.86 712.536 166.86C694.883 166.86 680.044 154.84 675.738 138.537H749.331C749.326 138.549 749.324 138.565 749.321 138.58H776.275C776.761 135.387 777.013 132.118 777.013 128.793C777.013 93.1791 748.146 64.3096 712.536 64.3096ZM784.499 189.834H812.899V161.427H784.499V189.834ZM827.868 189.834H856.268V80.5438H827.868V189.834ZM935.534 166.86C914.514 166.86 897.473 149.816 897.473 128.793C897.473 107.765 914.514 90.7205 935.534 90.7205C956.555 90.7205 973.595 107.765 973.595 128.793C973.595 149.816 956.555 166.86 935.534 166.86ZM935.522 64.3096C899.924 64.3096 871.057 93.1791 871.057 128.793C871.057 164.406 899.924 193.271 935.522 193.271C971.132 193.271 1000 164.406 1000 128.793C1000 93.1791 971.132 64.3096 935.522 64.3096ZM341.753 105.023V134.394H381.462C379.389 142.787 375.29 150.308 369.412 156.315C360.546 165.378 348.253 170.371 334.794 170.371C306.867 170.371 284.144 147.645 284.144 119.709C284.144 91.7728 306.867 69.044 334.794 69.044C349.754 69.044 363.505 75.4484 373.038 86.4944L395.774 67.9133C380.7 50.2443 358.335 39.6709 334.794 39.6709C290.675 39.6709 254.78 75.5766 254.78 119.709C254.78 163.841 290.675 199.744 334.794 199.744C356.216 199.744 375.964 192.024 390.402 177.267C402.516 164.881 410.546 147.604 412.09 130.296C412.843 121.854 412.911 113.468 412.467 105.023H341.753ZM486.407 166.867C465.386 166.867 448.343 149.818 448.343 128.793C448.343 107.762 465.386 90.7181 486.407 90.7181C507.43 90.7181 524.472 107.762 524.472 128.793C524.472 149.818 507.43 166.867 486.407 166.867ZM524.477 76.876C513.807 69.0511 500.649 64.4189 486.407 64.4189C450.809 64.4189 421.95 93.286 421.95 128.892C421.95 164.504 450.809 193.366 486.407 193.366C500.649 193.366 513.807 188.736 524.477 180.911V189.834H550.865V67.9536H524.477V76.876ZM607.513 39.6519H581.122V68.0558H565.305V92.9677H581.122V158.161C581.122 164.893 581.968 170.556 583.644 175.001C585.297 179.398 587.824 182.84 590.829 185.529C593.873 188.259 597.445 190.385 601.68 191.591C605.983 192.803 610.731 193.271 615.749 193.271C620.943 193.271 625.574 192.732 629.526 191.665C633.195 190.679 636.713 189.285 639.985 187.513V167.44C634.78 169.692 629.913 170.507 624.361 170.765C618.499 171.041 615.032 169.366 612.146 166.615C609.123 163.734 607.513 159.978 607.513 153.678V92.9677H639.985V68.0558H607.513V39.6519Z" fill="#7A7A7A"/>
<path fill-rule="evenodd" clip-rule="evenodd" d="M114.475 177.475C79.7034 177.475 51.5151 149.283 51.5151 114.501C51.5151 79.7209 79.7034 51.5237 114.475 51.5237V-0.000976562C51.2515 -0.000976562 0 51.2624 0 114.501C0 177.737 51.2515 229 114.475 229C177.696 229 228.95 177.737 228.95 114.501H177.435C177.435 149.283 149.247 177.475 114.475 177.475Z" fill="#7A7A7A"/>
<path fill-rule="evenodd" clip-rule="evenodd" d="M114.475 114.499H177.435V51.5247H114.475V114.499Z" fill="#7A7A7A"/>
</g>
<defs>
<clipPath id="clip0_201_3">
<rect width="1000" height="229" fill="white"/>
</clipPath>
</defs>
</svg>
