<svg fill="none" height="325" viewBox="0 0 449 325" width="449" xmlns="http://www.w3.org/2000/svg" xmlns:xlink="http://www.w3.org/1999/xlink"><filter id="a" color-interpolation-filters="sRGB" filterUnits="userSpaceOnUse" height="198.97" width="364.694" x="54.4882" y="85.4659"><feFlood flood-opacity="0" result="BackgroundImageFix"/><feBlend in="SourceGraphic" in2="BackgroundImageFix" mode="normal" result="shape"/><feGaussianBlur result="effect1_foregroundBlur_6_123" stdDeviation="5.88507"/></filter><filter id="b" color-interpolation-filters="sRGB" filterUnits="userSpaceOnUse" height="57.0545" width="51.6351" x="122.865" y="184.951"><feFlood flood-opacity="0" result="BackgroundImageFix"/><feBlend in="SourceGraphic" in2="BackgroundImageFix" mode="normal" result="shape"/><feGaussianBlur result="effect1_foregroundBlur_6_123" stdDeviation="1.34773"/></filter><filter id="c" color-interpolation-filters="sRGB" filterUnits="userSpaceOnUse" height="63.2029" width="58.0411" x="117.418" y="183.35"><feFlood flood-opacity="0" result="BackgroundImageFix"/><feBlend in="SourceGraphic" in2="BackgroundImageFix" mode="normal" result="shape"/><feGaussianBlur result="effect1_foregroundBlur_6_123" stdDeviation=".233997"/></filter><filter id="d" color-interpolation-filters="sRGB" filterUnits="userSpaceOnUse" height="45.1377" width="40.1406" x="127.921" y="191.007"><feFlood flood-opacity="0" result="BackgroundImageFix"/><feBlend in="SourceGraphic" in2="BackgroundImageFix" mode="normal" result="shape"/><feGaussianBlur result="effect1_foregroundBlur_6_123" stdDeviation=".359394"/></filter><filter id="e" color-interpolation-filters="sRGB" filterUnits="userSpaceOnUse" height="113.81" width="259.99" x="105.324" y="130.372"><feFlood flood-opacity="0" result="BackgroundImageFix"/><feGaussianBlur in="BackgroundImageFix" stdDeviation=".449242"/><feComposite in2="SourceAlpha" operator="in" result="effect1_backgroundBlur_6_123"/><feBlend in="SourceGraphic" in2="effect1_backgroundBlur_6_123" mode="normal" result="shape"/></filter><filter id="f" color-interpolation-filters="sRGB" filterUnits="userSpaceOnUse" height="54.0367" width="12.94" x="341.521" y="62.776"><feFlood flood-opacity="0" result="BackgroundImageFix"/><feColorMatrix in="SourceAlpha" result="hardAlpha" type="matrix" values="0 0 0 0 0 0 0 0 0 0 0 0 0 0 0 0 0 0 127 0"/><feOffset dy="1.79697"/><feGaussianBlur stdDeviation="1.75204"/><feComposite in2="hardAlpha" operator="out"/><feColorMatrix type="matrix" values="0 0 0 0 1 0 0 0 0 0.614648 0 0 0 0 0.639421 0 0 0 0.4 0"/><feBlend in2="BackgroundImageFix" mode="normal" result="effect1_dropShadow_6_123"/><feBlend in="SourceGraphic" in2="effect1_dropShadow_6_123" mode="normal" result="shape"/></filter><filter id="g" color-interpolation-filters="sRGB" filterUnits="userSpaceOnUse" height="11.5486" width="11.5486" x="339.973" y="58.7888"><feFlood flood-opacity="0" result="BackgroundImageFix"/><feBlend in="SourceGraphic" in2="BackgroundImageFix" mode="normal" result="shape"/><feGaussianBlur result="effect1_foregroundBlur_6_123" stdDeviation="1.79697"/></filter><filter id="h" color-interpolation-filters="sRGB" filterUnits="userSpaceOnUse" height="10.095" width="10.095" x="340.7" y="59.5151"><feFlood flood-opacity="0" result="BackgroundImageFix"/><feBlend in="SourceGraphic" in2="BackgroundImageFix" mode="normal" result="shape"/><feGaussianBlur result="effect1_foregroundBlur_6_123" stdDeviation="1.79697"/></filter><filter id="i" color-interpolation-filters="sRGB" filterUnits="userSpaceOnUse" height="5.04749" width="5.04749" x="343.224" y="62.0395"><feFlood flood-opacity="0" result="BackgroundImageFix"/><feBlend in="SourceGraphic" in2="BackgroundImageFix" mode="normal" result="shape"/><feGaussianBlur result="effect1_foregroundBlur_6_123" stdDeviation=".898485"/></filter><filter id="j" color-interpolation-filters="sRGB" filterUnits="userSpaceOnUse" height="61.7354" width="29.0897" x="312.15" y="157.458"><feFlood flood-opacity="0" result="BackgroundImageFix"/><feColorMatrix in="SourceAlpha" result="hardAlpha" type="matrix" values="0 0 0 0 0 0 0 0 0 0 0 0 0 0 0 0 0 0 127 0"/><feOffset dy="1.79697"/><feGaussianBlur stdDeviation="1.75204"/><feComposite in2="hardAlpha" operator="out"/><feColorMatrix type="matrix" values="0 0 0 0 1 0 0 0 0 0.614648 0 0 0 0 0.639421 0 0 0 0.4 0"/><feBlend in2="BackgroundImageFix" mode="normal" result="effect1_dropShadow_6_123"/><feBlend in="SourceGraphic" in2="effect1_dropShadow_6_123" mode="normal" result="shape"/></filter><filter id="k" color-interpolation-filters="sRGB" filterUnits="userSpaceOnUse" height="12.5802" width="12.5802" x="310.201" y="153.201"><feFlood flood-opacity="0" result="BackgroundImageFix"/><feBlend in="SourceGraphic" in2="BackgroundImageFix" mode="normal" result="shape"/><feGaussianBlur result="effect1_foregroundBlur_6_123" stdDeviation="1.79697"/></filter><filter id="l" color-interpolation-filters="sRGB" filterUnits="userSpaceOnUse" height="10.7828" width="10.7828" x="311.1" y="154.1"><feFlood flood-opacity="0" result="BackgroundImageFix"/><feBlend in="SourceGraphic" in2="BackgroundImageFix" mode="normal" result="shape"/><feGaussianBlur result="effect1_foregroundBlur_6_123" stdDeviation="1.79697"/></filter><filter id="m" color-interpolation-filters="sRGB" filterUnits="userSpaceOnUse" height="5.39139" width="5.39139" x="313.796" y="156.796"><feFlood flood-opacity="0" result="BackgroundImageFix"/><feBlend in="SourceGraphic" in2="BackgroundImageFix" mode="normal" result="shape"/><feGaussianBlur result="effect1_foregroundBlur_6_123" stdDeviation=".898485"/></filter><filter id="n" color-interpolation-filters="sRGB" filterUnits="userSpaceOnUse" height="34.3718" width="18.049" x="317.609" y="119.621"><feFlood flood-opacity="0" result="BackgroundImageFix"/><feColorMatrix in="SourceAlpha" result="hardAlpha" type="matrix" values="0 0 0 0 0 0 0 0 0 0 0 0 0 0 0 0 0 0 127 0"/><feOffset dy="1.79697"/><feGaussianBlur stdDeviation="1.75204"/><feComposite in2="hardAlpha" operator="out"/><feColorMatrix type="matrix" values="0 0 0 0 1 0 0 0 0 0.614648 0 0 0 0 0.639421 0 0 0 0.4 0"/><feBlend in2="BackgroundImageFix" mode="normal" result="effect1_dropShadow_6_123"/><feBlend in="SourceGraphic" in2="effect1_dropShadow_6_123" mode="normal" result="shape"/></filter><filter id="o" color-interpolation-filters="sRGB" filterUnits="userSpaceOnUse" height="9.88405" width="9.88404" x="316.589" y="116.55"><feFlood flood-opacity="0" result="BackgroundImageFix"/><feBlend in="SourceGraphic" in2="BackgroundImageFix" mode="normal" result="shape"/><feGaussianBlur result="effect1_foregroundBlur_6_123" stdDeviation="1.79697"/></filter><filter id="p" color-interpolation-filters="sRGB" filterUnits="userSpaceOnUse" height="8.98532" width="8.98533" x="317.039" y="116.999"><feFlood flood-opacity="0" result="BackgroundImageFix"/><feBlend in="SourceGraphic" in2="BackgroundImageFix" mode="normal" result="shape"/><feGaussianBlur result="effect1_foregroundBlur_6_123" stdDeviation="1.79697"/></filter><filter id="q" color-interpolation-filters="sRGB" filterUnits="userSpaceOnUse" height="4.49267" width="4.49267" x="319.285" y="119.245"><feFlood flood-opacity="0" result="BackgroundImageFix"/><feBlend in="SourceGraphic" in2="BackgroundImageFix" mode="normal" result="shape"/><feGaussianBlur result="effect1_foregroundBlur_6_123" stdDeviation=".898485"/></filter><filter id="r" color-interpolation-filters="sRGB" filterUnits="userSpaceOnUse" height="61.7354" width="29.0897" x="222.555" y="194.516"><feFlood flood-opacity="0" result="BackgroundImageFix"/><feColorMatrix in="SourceAlpha" result="hardAlpha" type="matrix" values="0 0 0 0 0 0 0 0 0 0 0 0 0 0 0 0 0 0 127 0"/><feOffset dy="1.79697"/><feGaussianBlur stdDeviation="1.75204"/><feComposite in2="hardAlpha" operator="out"/><feColorMatrix type="matrix" values="0 0 0 0 1 0 0 0 0 0.614648 0 0 0 0 0.639421 0 0 0 0.4 0"/><feBlend in2="BackgroundImageFix" mode="normal" result="effect1_dropShadow_6_123"/><feBlend in="SourceGraphic" in2="effect1_dropShadow_6_123" mode="normal" result="shape"/></filter><filter id="s" color-interpolation-filters="sRGB" filterUnits="userSpaceOnUse" height="12.5802" width="12.5802" x="220.606" y="190.26"><feFlood flood-opacity="0" result="BackgroundImageFix"/><feBlend in="SourceGraphic" in2="BackgroundImageFix" mode="normal" result="shape"/><feGaussianBlur result="effect1_foregroundBlur_6_123" stdDeviation="1.79697"/></filter><filter id="t" color-interpolation-filters="sRGB" filterUnits="userSpaceOnUse" height="10.7828" width="10.7828" x="221.505" y="191.158"><feFlood flood-opacity="0" result="BackgroundImageFix"/><feBlend in="SourceGraphic" in2="BackgroundImageFix" mode="normal" result="shape"/><feGaussianBlur result="effect1_foregroundBlur_6_123" stdDeviation="1.79697"/></filter><filter id="u" color-interpolation-filters="sRGB" filterUnits="userSpaceOnUse" height="5.39139" width="5.39139" x="224.201" y="193.854"><feFlood flood-opacity="0" result="BackgroundImageFix"/><feBlend in="SourceGraphic" in2="BackgroundImageFix" mode="normal" result="shape"/><feGaussianBlur result="effect1_foregroundBlur_6_123" stdDeviation=".898485"/></filter><filter id="v" color-interpolation-filters="sRGB" filterUnits="userSpaceOnUse" height="52.6142" width="25.4095" x="270.699" y="163.124"><feFlood flood-opacity="0" result="BackgroundImageFix"/><feColorMatrix in="SourceAlpha" result="hardAlpha" type="matrix" values="0 0 0 0 0 0 0 0 0 0 0 0 0 0 0 0 0 0 127 0"/><feOffset dy="1.79697"/><feGaussianBlur stdDeviation="1.75204"/><feComposite in2="hardAlpha" operator="out"/><feColorMatrix type="matrix" values="0 0 0 0 1 0 0 0 0 0.614648 0 0 0 0 0.639421 0 0 0 0.4 0"/><feBlend in2="BackgroundImageFix" mode="normal" result="effect1_dropShadow_6_123"/><feBlend in="SourceGraphic" in2="effect1_dropShadow_6_123" mode="normal" result="shape"/></filter><filter id="w" color-interpolation-filters="sRGB" filterUnits="userSpaceOnUse" height="11.6815" width="11.6815" x="269.06" y="159.263"><feFlood flood-opacity="0" result="BackgroundImageFix"/><feBlend in="SourceGraphic" in2="BackgroundImageFix" mode="normal" result="shape"/><feGaussianBlur result="effect1_foregroundBlur_6_123" stdDeviation="1.79697"/></filter><filter id="x" color-interpolation-filters="sRGB" filterUnits="userSpaceOnUse" height="10.1836" width="10.1836" x="269.809" y="160.011"><feFlood flood-opacity="0" result="BackgroundImageFix"/><feBlend in="SourceGraphic" in2="BackgroundImageFix" mode="normal" result="shape"/><feGaussianBlur result="effect1_foregroundBlur_6_123" stdDeviation="1.79697"/></filter><filter id="y" color-interpolation-filters="sRGB" filterUnits="userSpaceOnUse" height="5.09181" width="5.09181" x="272.355" y="162.558"><feFlood flood-opacity="0" result="BackgroundImageFix"/><feBlend in="SourceGraphic" in2="BackgroundImageFix" mode="normal" result="shape"/><feGaussianBlur result="effect1_foregroundBlur_6_123" stdDeviation=".898485"/></filter><filter id="z" color-interpolation-filters="sRGB" filterUnits="userSpaceOnUse" height="52.6142" width="25.4095" x="162.077" y="211.009"><feFlood flood-opacity="0" result="BackgroundImageFix"/><feColorMatrix in="SourceAlpha" result="hardAlpha" type="matrix" values="0 0 0 0 0 0 0 0 0 0 0 0 0 0 0 0 0 0 127 0"/><feOffset dy="1.79697"/><feGaussianBlur stdDeviation="1.75204"/><feComposite in2="hardAlpha" operator="out"/><feColorMatrix type="matrix" values="0 0 0 0 1 0 0 0 0 0.614648 0 0 0 0 0.639421 0 0 0 0.4 0"/><feBlend in2="BackgroundImageFix" mode="normal" result="effect1_dropShadow_6_123"/><feBlend in="SourceGraphic" in2="effect1_dropShadow_6_123" mode="normal" result="shape"/></filter><filter id="A" color-interpolation-filters="sRGB" filterUnits="userSpaceOnUse" height="11.6815" width="11.6815" x="160.438" y="207.147"><feFlood flood-opacity="0" result="BackgroundImageFix"/><feBlend in="SourceGraphic" in2="BackgroundImageFix" mode="normal" result="shape"/><feGaussianBlur result="effect1_foregroundBlur_6_123" stdDeviation="1.79697"/></filter><filter id="B" color-interpolation-filters="sRGB" filterUnits="userSpaceOnUse" height="10.1836" width="10.1836" x="161.187" y="207.896"><feFlood flood-opacity="0" result="BackgroundImageFix"/><feBlend in="SourceGraphic" in2="BackgroundImageFix" mode="normal" result="shape"/><feGaussianBlur result="effect1_foregroundBlur_6_123" stdDeviation="1.79697"/></filter><filter id="C" color-interpolation-filters="sRGB" filterUnits="userSpaceOnUse" height="5.09181" width="5.09181" x="163.733" y="210.443"><feFlood flood-opacity="0" result="BackgroundImageFix"/><feBlend in="SourceGraphic" in2="BackgroundImageFix" mode="normal" result="shape"/><feGaussianBlur result="effect1_foregroundBlur_6_123" stdDeviation=".898485"/></filter><filter id="D" color-interpolation-filters="sRGB" filterUnits="userSpaceOnUse" height="49.6658" width="28.6121" x="143.977" y="160.193"><feFlood flood-opacity="0" result="BackgroundImageFix"/><feColorMatrix in="SourceAlpha" result="hardAlpha" type="matrix" values="0 0 0 0 0 0 0 0 0 0 0 0 0 0 0 0 0 0 127 0"/><feOffset dy="1.79697"/><feGaussianBlur stdDeviation="1.75204"/><feComposite in2="hardAlpha" operator="out"/><feColorMatrix type="matrix" values="0 0 0 0 1 0 0 0 0 0.614648 0 0 0 0 0.639421 0 0 0 0.4 0"/><feBlend in2="BackgroundImageFix" mode="normal" result="effect1_dropShadow_6_123"/><feBlend in="SourceGraphic" in2="effect1_dropShadow_6_123" mode="normal" result="shape"/></filter><filter id="E" color-interpolation-filters="sRGB" filterUnits="userSpaceOnUse" height="11.5491" width="11.5491" x="142.358" y="156.448"><feFlood flood-opacity="0" result="BackgroundImageFix"/><feBlend in="SourceGraphic" in2="BackgroundImageFix" mode="normal" result="shape"/><feGaussianBlur result="effect1_foregroundBlur_6_123" stdDeviation="1.79697"/></filter><filter id="F" color-interpolation-filters="sRGB" filterUnits="userSpaceOnUse" height="10.0954" width="10.0954" x="143.085" y="157.175"><feFlood flood-opacity="0" result="BackgroundImageFix"/><feBlend in="SourceGraphic" in2="BackgroundImageFix" mode="normal" result="shape"/><feGaussianBlur result="effect1_foregroundBlur_6_123" stdDeviation="1.79697"/></filter><filter id="G" color-interpolation-filters="sRGB" filterUnits="userSpaceOnUse" height="5.04769" width="5.04769" x="145.609" y="159.699"><feFlood flood-opacity="0" result="BackgroundImageFix"/><feBlend in="SourceGraphic" in2="BackgroundImageFix" mode="normal" result="shape"/><feGaussianBlur result="effect1_foregroundBlur_6_123" stdDeviation=".898485"/></filter><filter id="H" color-interpolation-filters="sRGB" filterUnits="userSpaceOnUse" height="47.7341" width="32.1916" x="77.368" y="136.282"><feFlood flood-opacity="0" result="BackgroundImageFix"/><feColorMatrix in="SourceAlpha" result="hardAlpha" type="matrix" values="0 0 0 0 0 0 0 0 0 0 0 0 0 0 0 0 0 0 127 0"/><feOffset dy="1.79697"/><feGaussianBlur stdDeviation="1.75204"/><feComposite in2="hardAlpha" operator="out"/><feColorMatrix type="matrix" values="0 0 0 0 1 0 0 0 0 0.614648 0 0 0 0 0.639421 0 0 0 0.4 0"/><feBlend in2="BackgroundImageFix" mode="normal" result="effect1_dropShadow_6_123"/><feBlend in="SourceGraphic" in2="effect1_dropShadow_6_123" mode="normal" result="shape"/></filter><filter id="I" color-interpolation-filters="sRGB" filterUnits="userSpaceOnUse" height="11.5488" width="11.5488" x="75.7181" y="132.593"><feFlood flood-opacity="0" result="BackgroundImageFix"/><feBlend in="SourceGraphic" in2="BackgroundImageFix" mode="normal" result="shape"/><feGaussianBlur result="effect1_foregroundBlur_6_123" stdDeviation="1.79697"/></filter><filter id="J" color-interpolation-filters="sRGB" filterUnits="userSpaceOnUse" height="10.0952" width="10.0952" x="76.4451" y="133.32"><feFlood flood-opacity="0" result="BackgroundImageFix"/><feBlend in="SourceGraphic" in2="BackgroundImageFix" mode="normal" result="shape"/><feGaussianBlur result="effect1_foregroundBlur_6_123" stdDeviation="1.79697"/></filter><filter id="K" color-interpolation-filters="sRGB" filterUnits="userSpaceOnUse" height="5.04758" width="5.04758" x="78.969" y="135.844"><feFlood flood-opacity="0" result="BackgroundImageFix"/><feBlend in="SourceGraphic" in2="BackgroundImageFix" mode="normal" result="shape"/><feGaussianBlur result="effect1_foregroundBlur_6_123" stdDeviation=".898485"/></filter><filter id="L" color-interpolation-filters="sRGB" filterUnits="userSpaceOnUse" height="35.6118" width="13.1614" x="273.475" y="47.2655"><feFlood flood-opacity="0" result="BackgroundImageFix"/><feColorMatrix in="SourceAlpha" result="hardAlpha" type="matrix" values="0 0 0 0 0 0 0 0 0 0 0 0 0 0 0 0 0 0 127 0"/><feOffset dy="1.79697"/><feGaussianBlur stdDeviation="1.75204"/><feComposite in2="hardAlpha" operator="out"/><feColorMatrix type="matrix" values="0 0 0 0 1 0 0 0 0 0.614648 0 0 0 0 0.639421 0 0 0 0.4 0"/><feBlend in2="BackgroundImageFix" mode="normal" result="effect1_dropShadow_6_123"/><feBlend in="SourceGraphic" in2="effect1_dropShadow_6_123" mode="normal" result="shape"/></filter><filter id="M" color-interpolation-filters="sRGB" filterUnits="userSpaceOnUse" height="9.87295" width="9.87295" x="272.482" y="44.1237"><feFlood flood-opacity="0" result="BackgroundImageFix"/><feBlend in="SourceGraphic" in2="BackgroundImageFix" mode="normal" result="shape"/><feGaussianBlur result="effect1_foregroundBlur_6_123" stdDeviation="1.79697"/></filter><filter id="N" color-interpolation-filters="sRGB" filterUnits="userSpaceOnUse" height="8.97793" width="8.97793" x="272.929" y="44.571"><feFlood flood-opacity="0" result="BackgroundImageFix"/><feBlend in="SourceGraphic" in2="BackgroundImageFix" mode="normal" result="shape"/><feGaussianBlur result="effect1_foregroundBlur_6_123" stdDeviation="1.79697"/></filter><filter id="O" color-interpolation-filters="sRGB" filterUnits="userSpaceOnUse" height="4.48896" width="4.48896" x="275.173" y="46.8154"><feFlood flood-opacity="0" result="BackgroundImageFix"/><feBlend in="SourceGraphic" in2="BackgroundImageFix" mode="normal" result="shape"/><feGaussianBlur result="effect1_foregroundBlur_6_123" stdDeviation=".898485"/></filter><filter id="P" color-interpolation-filters="sRGB" filterUnits="userSpaceOnUse" height="32.6027" width="19.9705" x="158.1" y="87.3797"><feFlood flood-opacity="0" result="BackgroundImageFix"/><feColorMatrix in="SourceAlpha" result="hardAlpha" type="matrix" values="0 0 0 0 0 0 0 0 0 0 0 0 0 0 0 0 0 0 127 0"/><feOffset dy="1.79697"/><feGaussianBlur stdDeviation="1.75204"/><feComposite in2="hardAlpha" operator="out"/><feColorMatrix type="matrix" values="0 0 0 0 1 0 0 0 0 0.614648 0 0 0 0 0.639421 0 0 0 0.4 0"/><feBlend in2="BackgroundImageFix" mode="normal" result="effect1_dropShadow_6_123"/><feBlend in="SourceGraphic" in2="effect1_dropShadow_6_123" mode="normal" result="shape"/></filter><filter id="Q" color-interpolation-filters="sRGB" filterUnits="userSpaceOnUse" height="9.80464" width="9.80463" x="157.092" y="84.3773"><feFlood flood-opacity="0" result="BackgroundImageFix"/><feBlend in="SourceGraphic" in2="BackgroundImageFix" mode="normal" result="shape"/><feGaussianBlur result="effect1_foregroundBlur_6_123" stdDeviation="1.79697"/></filter><filter id="R" color-interpolation-filters="sRGB" filterUnits="userSpaceOnUse" height="8.93238" width="8.93238" x="157.529" y="84.8133"><feFlood flood-opacity="0" result="BackgroundImageFix"/><feBlend in="SourceGraphic" in2="BackgroundImageFix" mode="normal" result="shape"/><feGaussianBlur result="effect1_foregroundBlur_6_123" stdDeviation="1.79697"/></filter><filter id="S" color-interpolation-filters="sRGB" filterUnits="userSpaceOnUse" height="4.46619" width="4.46619" x="159.762" y="87.0464"><feFlood flood-opacity="0" result="BackgroundImageFix"/><feBlend in="SourceGraphic" in2="BackgroundImageFix" mode="normal" result="shape"/><feGaussianBlur result="effect1_foregroundBlur_6_123" stdDeviation=".898485"/></filter><linearGradient id="T"><stop offset="0" stop-color="#27212b"/><stop offset=".25" stop-color="#81557e"/><stop offset=".5" stop-color="#c68dc3"/><stop offset=".75" stop-color="#81557e"/><stop offset="1" stop-color="#27212b"/></linearGradient><linearGradient id="U" gradientUnits="userSpaceOnUse" x1="261.138" x2="220.581" xlink:href="#T" y1="246.394" y2="134.948"/><linearGradient id="V" gradientUnits="userSpaceOnUse" x1="261.138" x2="406.07" xlink:href="#T" y1="246.394" y2="93.2605"/><linearGradient id="W" gradientUnits="userSpaceOnUse" x1="262.473" x2="216.981" xlink:href="#T" y1="253.07" y2="128.739"/><linearGradient id="X" gradientUnits="userSpaceOnUse" x1="65.8789" x2="218.667" xlink:href="#T" y1="258.466" y2="137.569"/><radialGradient id="Y" cx="0" cy="0" gradientTransform="matrix(210.22827002 -478.0539286 894.49160254 393.36026941 121.369 562.338)" gradientUnits="userSpaceOnUse" r="1"><stop offset=".01" stop-color="#e35760"/><stop offset=".475" stop-color="#81557e"/><stop offset="1" stop-color="#261b2a"/></radialGradient><linearGradient id="Z" gradientUnits="userSpaceOnUse" x1="254.139" x2="218.893" y1="231.729" y2="134.159"><stop offset="0" stop-color="#27212b"/><stop offset=".25" stop-color="#ff656f"/><stop offset=".5" stop-color="#ff9da3"/><stop offset=".75" stop-color="#df5b64"/><stop offset="1" stop-color="#27212b"/></linearGradient><linearGradient id="aa" gradientUnits="userSpaceOnUse" x1="108.968" x2="163.42" y1="190.109" y2="252.277"><stop offset="0" stop-color="#66536e"/><stop offset=".3125" stop-color="#302634"/><stop offset=".58" stop-color="#8c404b"/><stop offset=".793394" stop-color="#8c404b"/><stop offset=".952475" stop-color="#7a5178"/><stop offset="1" stop-color="#332837"/></linearGradient><linearGradient id="ab"><stop offset="0" stop-color="#302634"/><stop offset="1" stop-color="#302634" stop-opacity="0"/></linearGradient><linearGradient id="ac" gradientUnits="userSpaceOnUse" x1="1.91197" x2="-.127701" xlink:href="#ab" y1="18.3252" y2="18.3238"/><linearGradient id="ad" gradientUnits="userSpaceOnUse" x1="1.91196" x2="-.1277" xlink:href="#ab" y1="15.0528" y2="15.0511"/><linearGradient id="ae" gradientUnits="userSpaceOnUse" x1="1.91197" x2="-.127701" xlink:href="#ab" y1="19.1979" y2="19.1965"/><linearGradient id="af"><stop offset="0" stop-color="#81557e"/><stop offset="1" stop-color="#36293b"/></linearGradient><radialGradient id="ag" cx="0" cy="0" gradientTransform="matrix(-28.19373694 52.55026082 -90.52267674 -48.56631529 46.0327 8.42462)" gradientUnits="userSpaceOnUse" r="1" xlink:href="#af"/><radialGradient id="ah" cx="0" cy="0" gradientTransform="matrix(-38.24711681 -32.58309051 20.04748112 -23.532401 42.6391 42.5592)" gradientUnits="userSpaceOnUse" r="1" xlink:href="#af"/><radialGradient id="ai" cx="0" cy="0" gradientTransform="matrix(-92.61328749 -104.99742385 64.30666615 -56.7218846 76.3175 94.9888)" gradientUnits="userSpaceOnUse" r="1"><stop offset=".16" stop-color="#e35760"/><stop offset=".783773" stop-color="#4b354e"/></radialGradient><radialGradient id="aj" cx="0" cy="0" gradientTransform="matrix(36.38651339 60.95014571 -64.17490894 38.31165874 130.714 185.463)" gradientUnits="userSpaceOnUse" r="1"><stop offset="0" stop-color="#36293b"/><stop offset="1" stop-color="#81557e"/></radialGradient><linearGradient id="ak" gradientUnits="userSpaceOnUse" x1="114.742" x2="133.766" y1="221.141" y2="250.604"><stop offset="0" stop-color="#302634"/><stop offset=".268813" stop-color="#4f3456"/><stop offset=".636808" stop-color="#e35760"/><stop offset="1" stop-color="#302634"/></linearGradient><radialGradient id="al" cx="0" cy="0" gradientTransform="matrix(.52006216 -41.27412369 48.50015009 .61111152 145.115 231.924)" gradientUnits="userSpaceOnUse" r="1"><stop offset="0" stop-color="#e35760"/><stop offset=".485" stop-color="#81557e"/><stop offset="1" stop-color="#302634"/></radialGradient><linearGradient id="am" gradientUnits="userSpaceOnUse" x1="233.017" x2="248.562" y1="182.584" y2="219.919"><stop offset="0" stop-color="#63394b" stop-opacity="0"/><stop offset="1" stop-color="#e35760"/></linearGradient><linearGradient id="an" gradientUnits="userSpaceOnUse" x1="215.131" x2="282" y1="130.731" y2="289.5"><stop offset="0" stop-color="#ff8f96" stop-opacity="0"/><stop offset="1" stop-color="#e35760"/></linearGradient><linearGradient id="ao" gradientUnits="userSpaceOnUse" x1="351.13" x2="382.106" xlink:href="#T" y1="113.056" y2="93.8765"/><linearGradient id="ap"><stop offset="0" stop-color="#ff9da3"/><stop offset="1" stop-color="#543b53" stop-opacity="0"/></linearGradient><radialGradient id="aq" cx="0" cy="0" gradientTransform="matrix(0 2.18015 -2.18015 0 345.748 64.5631)" gradientUnits="userSpaceOnUse" r="1" xlink:href="#ap"/><radialGradient id="ar" cx="0" cy="0" gradientTransform="matrix(0 1.45343 -1.45343 0 345.747 64.5626)" gradientUnits="userSpaceOnUse" r="1" xlink:href="#ap"/><radialGradient id="as" cx="0" cy="0" gradientTransform="matrix(0 .726715 -.726715 0 345.748 64.5633)" gradientUnits="userSpaceOnUse" r="1" xlink:href="#ap"/><linearGradient id="at" gradientUnits="userSpaceOnUse" x1="338.436" x2="369.291" xlink:href="#T" y1="215.681" y2="182.864"/><radialGradient id="au" cx="0" cy="0" gradientTransform="matrix(0 2.69545 -2.69545 0 316.491 159.491)" gradientUnits="userSpaceOnUse" r="1" xlink:href="#ap"/><radialGradient id="av" cx="0" cy="0" gradientTransform="matrix(0 1.79697 -1.79697 0 316.491 159.491)" gradientUnits="userSpaceOnUse" r="1" xlink:href="#ap"/><radialGradient id="aw" cx="0" cy="0" gradientTransform="matrix(0 .898485 -.898485 0 316.491 159.492)" gradientUnits="userSpaceOnUse" r="1" xlink:href="#ap"/><linearGradient id="ax" gradientUnits="userSpaceOnUse" x1="332.504" x2="347.931" xlink:href="#T" y1="149.586" y2="133.178"/><radialGradient id="ay" cx="0" cy="0" gradientTransform="matrix(0 1.34773 -1.34773 0 321.531 121.492)" gradientUnits="userSpaceOnUse" r="1" xlink:href="#ap"/><radialGradient id="az" cx="0" cy="0" gradientTransform="matrix(0 .898485 -.898485 0 321.531 121.492)" gradientUnits="userSpaceOnUse" r="1" xlink:href="#ap"/><radialGradient id="aA" cx="0" cy="0" gradientTransform="matrix(0 .449242 -.449242 0 321.531 121.491)" gradientUnits="userSpaceOnUse" r="1" xlink:href="#ap"/><linearGradient id="aB" gradientUnits="userSpaceOnUse" x1="248.841" x2="279.696" xlink:href="#T" y1="252.739" y2="219.923"/><radialGradient id="aC" cx="0" cy="0" gradientTransform="matrix(0 2.69545 -2.69545 0 226.897 196.55)" gradientUnits="userSpaceOnUse" r="1" xlink:href="#ap"/><radialGradient id="aD" cx="0" cy="0" gradientTransform="matrix(0 1.79697 -1.79697 0 226.896 196.549)" gradientUnits="userSpaceOnUse" r="1" xlink:href="#ap"/><radialGradient id="aE" cx="0" cy="0" gradientTransform="matrix(0 .898485 -.898485 0 226.897 196.55)" gradientUnits="userSpaceOnUse" r="1" xlink:href="#ap"/><linearGradient id="aF" gradientUnits="userSpaceOnUse" x1="293.188" x2="318.901" xlink:href="#T" y1="211.928" y2="184.581"/><radialGradient id="aG" cx="0" cy="0" gradientTransform="matrix(0 2.24621 -2.24621 0 274.901 165.103)" gradientUnits="userSpaceOnUse" r="1" xlink:href="#ap"/><radialGradient id="aH" cx="0" cy="0" gradientTransform="matrix(0 1.49747 -1.49747 0 274.901 165.103)" gradientUnits="userSpaceOnUse" r="1" xlink:href="#ap"/><radialGradient id="aI" cx="0" cy="0" gradientTransform="matrix(0 .748737 -.748737 0 274.901 165.104)" gradientUnits="userSpaceOnUse" r="1" xlink:href="#ap"/><linearGradient id="aJ" gradientUnits="userSpaceOnUse" x1="184.566" x2="210.278" xlink:href="#T" y1="259.813" y2="232.465"/><radialGradient id="aK" cx="0" cy="0" gradientTransform="matrix(0 2.24621 -2.24621 0 166.279 212.988)" gradientUnits="userSpaceOnUse" r="1" xlink:href="#ap"/><radialGradient id="aL" cx="0" cy="0" gradientTransform="matrix(0 1.49747 -1.49747 0 166.279 212.988)" gradientUnits="userSpaceOnUse" r="1" xlink:href="#ap"/><radialGradient id="aM" cx="0" cy="0" gradientTransform="matrix(0 .748737 -.748737 0 166.279 212.989)" gradientUnits="userSpaceOnUse" r="1" xlink:href="#ap"/><linearGradient id="aN" gradientUnits="userSpaceOnUse" x1="169.776" x2="192.324" xlink:href="#T" y1="205.95" y2="177.333"/><radialGradient id="aO" cx="0" cy="0" gradientTransform="matrix(0 2.18015 -2.18015 0 148.132 162.222)" gradientUnits="userSpaceOnUse" r="1" xlink:href="#ap"/><radialGradient id="aP" cx="0" cy="0" gradientTransform="matrix(0 1.45343 -1.45343 0 148.133 162.222)" gradientUnits="userSpaceOnUse" r="1" xlink:href="#ap"/><radialGradient id="aQ" cx="0" cy="0" gradientTransform="matrix(0 .726715 -.726715 0 148.132 162.222)" gradientUnits="userSpaceOnUse" r="1" xlink:href="#ap"/><linearGradient id="aR" gradientUnits="userSpaceOnUse" x1="106.864" x2="126.832" xlink:href="#T" y1="180.042" y2="149.569"/><radialGradient id="aS" cx="0" cy="0" gradientTransform="matrix(0 2.18015 -2.18015 0 81.4925 138.367)" gradientUnits="userSpaceOnUse" r="1" xlink:href="#ap"/><radialGradient id="aT" cx="0" cy="0" gradientTransform="matrix(0 1.45343 -1.45343 0 81.4927 138.367)" gradientUnits="userSpaceOnUse" r="1" xlink:href="#ap"/><radialGradient id="aU" cx="0" cy="0" gradientTransform="matrix(0 .726715 -.726715 0 81.4928 138.368)" gradientUnits="userSpaceOnUse" r="1" xlink:href="#ap"/><linearGradient id="aV" gradientUnits="userSpaceOnUse" x1="283.321" x2="301.291" xlink:href="#T" y1="78.5141" y2="65.0885"/><radialGradient id="aW" cx="0" cy="0" gradientTransform="matrix(0 1.34228 -1.34228 0 277.418 49.0602)" gradientUnits="userSpaceOnUse" r="1" xlink:href="#ap"/><radialGradient id="aX" cx="0" cy="0" gradientTransform="matrix(0 .894852 -.894852 0 277.418 49.06)" gradientUnits="userSpaceOnUse" r="1" xlink:href="#ap"/><radialGradient id="aY" cx="0" cy="0" gradientTransform="matrix(0 .447426 -.447426 0 277.418 49.0599)" gradientUnits="userSpaceOnUse" r="1" xlink:href="#ap"/><linearGradient id="aZ" gradientUnits="userSpaceOnUse" x1="174.981" x2="188.51" xlink:href="#T" y1="115.517" y2="98.3463"/><radialGradient id="a0" cx="0" cy="0" gradientTransform="matrix(0 1.30809 -1.30809 0 161.995 89.2796)" gradientUnits="userSpaceOnUse" r="1" xlink:href="#ap"/><radialGradient id="a1" cx="0" cy="0" gradientTransform="matrix(0 .872058 -.872058 0 161.995 89.2795)" gradientUnits="userSpaceOnUse" r="1" xlink:href="#ap"/><radialGradient id="a2" cx="0" cy="0" gradientTransform="matrix(0 .436029 -.436029 0 161.995 89.2795)" gradientUnits="userSpaceOnUse" r="1" xlink:href="#ap"/><mask id="a3" height="80" maskUnits="userSpaceOnUse" width="95" x="95" y="163"><path d="m182.861 238.679c-22.748 6.955-45.858 3.601-54.568 1.055l-33.0168-22.796 4.2072-34.92 47.7046-18.63c21.37 22.199 58.422 68.337 35.673 75.291z" fill="#d9d9d9"/></mask><mask id="a4" height="71" maskUnits="userSpaceOnUse" width="66" x="109" y="183"><path d="m145.965 251.446c-16.475-5.763-32.465-24.343-35.714-41.5-1.646-8.691.293-15.35 4.75-19.057l8.373-7.23 50.856 58.401-9.066 7.811c-4.341 3.609-11.069 4.418-19.199 1.575z" fill="#b81a24"/></mask><g filter="url(#a)"><path d="m400.036 121.217c2.137 5.471 1.28 12.827-4.109 22.258-5.355 9.371-14.708 19.878-27.661 30.821-25.856 21.843-64.949 44.495-111.167 62.545-46.218 18.049-90.316 27.885-124.132 29.345-16.94.731-30.939-.657-41.2267-3.919-10.3549-3.283-15.9699-8.112-18.1062-13.582-2.1363-5.471-1.2798-12.827 4.1096-22.258 5.3546-9.371 14.7074-19.878 27.6603-30.821 25.856-21.843 64.949-44.495 111.167-62.545 46.218-18.049 90.316-27.885 124.132-29.345 16.941-.731 30.939.657 41.227 3.919 10.355 3.283 15.97 8.112 18.106 13.582z" stroke="url(#U)" stroke-opacity=".5" stroke-width="12.5788"/></g><g stroke-width=".898485"><path d="m405.895 118.929c12.455 31.894-53.139 87.307-146.508 123.77" stroke="url(#V)" stroke-opacity=".5"/><path d="m420.558 113.91c3.328 8.524 1.454 18.687-4.931 29.826-6.382 11.135-17.236 23.178-31.729 35.402-28.983 24.443-72.439 49.54-123.5 69.481-51.062 19.941-100.025 30.936-137.903 32.603-18.941.833-35.0836-.667-47.3227-4.53-12.2441-3.864-20.5102-10.068-23.8389-18.592-3.3287-8.523-1.4543-18.687 4.9304-29.826 6.3822-11.135 17.236-23.178 31.7291-35.401 28.9821-24.444 72.4391-49.541 123.5001-69.482 51.062-19.941 100.025-30.9354 137.903-32.6023 18.941-.8336 35.084.6666 47.323 4.5295 12.244 3.8644 20.51 10.0678 23.839 18.5918z" stroke="url(#W)"/><path d="m63.1008 251.352c-8.055-20.626 18.6331-51.844 65.1582-81.379 23.852-15.142 52.917-29.84 85.187-42.443" stroke="url(#X)"/><path d="m364.461 123.645c2.366 6.058 1.041 13.3-3.525 21.267-4.564 7.963-12.331 16.583-22.712 25.338-20.759 17.508-51.891 35.488-88.477 49.776-36.587 14.288-71.665 22.164-98.795 23.358-13.567.597-25.12-.478-33.872-3.241-8.757-2.763-14.639-7.191-17.005-13.249-2.3662-6.058-1.0413-13.3 3.525-21.267 4.564-7.963 12.331-16.583 22.712-25.339 20.759-17.507 51.891-35.488 88.477-49.776 36.587-14.288 71.665-22.163 98.795-23.357 13.567-.597 25.12.478 33.872 3.24 8.757 2.764 14.639 7.192 17.005 13.25z" fill="url(#Y)" stroke="url(#Z)"/></g><g mask="url(#a3)"><path d="m145.966 251.446c-16.476-5.763-32.466-24.343-35.715-41.5-1.645-8.691.294-15.35 4.751-19.057l8.373-7.231 50.856 58.402-9.066 7.81c-4.341 3.61-11.07 4.419-19.199 1.576z" fill="url(#aa)"/><g fill-opacity=".2" mask="url(#a4)"><path d="m0 0h1.80692v37.944h-1.80692z" fill="url(#ac)" transform="matrix(-.652294 -.757966 -.757616 .652701 172.816 241.794)"/><g fill="url(#ad)"><path d="m0 0h1.80691v31.1682h-1.80691z" transform="matrix(-.652293 -.757967 -.757615 .652702 165.326 243.48)"/><path d="m0 0h1.80691v31.1682h-1.80691z" transform="matrix(-.652293 -.757967 -.757615 .652702 162.97 240.741)"/><path d="m0 0h1.80691v31.1682h-1.80691z" transform="matrix(-.652293 -.757967 -.757615 .652702 160.613 238.003)"/><path d="m0 0h1.80691v31.1682h-1.80691z" transform="matrix(-.652293 -.757967 -.757615 .652702 158.256 235.265)"/><path d="m0 0h1.80691v31.1682h-1.80691z" transform="matrix(-.652293 -.757967 -.757615 .652702 155.9 232.526)"/><path d="m0 0h1.80691v31.1682h-1.80691z" transform="matrix(-.652293 -.757967 -.757615 .652702 153.544 229.788)"/><path d="m0 0h1.80691v31.1682h-1.80691z" transform="matrix(-.652293 -.757967 -.757615 .652702 151.188 227.05)"/><path d="m0 0h1.80691v31.1682h-1.80691z" transform="matrix(-.652293 -.757967 -.757615 .652702 148.831 224.312)"/><path d="m0 0h1.80691v31.1682h-1.80691z" transform="matrix(-.652293 -.757967 -.757615 .652702 146.475 221.573)"/><path d="m0 0h1.80691v31.1682h-1.80691z" transform="matrix(-.652293 -.757967 -.757615 .652702 144.117 218.835)"/><path d="m0 0h1.80691v31.1682h-1.80691z" transform="matrix(-.652293 -.757967 -.757615 .652702 141.761 216.097)"/><path d="m0 0h1.80691v31.1682h-1.80691z" transform="matrix(-.652293 -.757967 -.757615 .652702 139.405 213.358)"/><path d="m0 0h1.80691v31.1682h-1.80691z" transform="matrix(-.652293 -.757967 -.757615 .652702 137.048 210.621)"/><path d="m0 0h1.80691v31.1682h-1.80691z" transform="matrix(-.652293 -.757967 -.757615 .652702 134.692 207.882)"/><path d="m0 0h1.80691v31.1682h-1.80691z" transform="matrix(-.652293 -.757967 -.757615 .652702 132.335 205.144)"/><path d="m0 0h1.80691v31.1682h-1.80691z" transform="matrix(-.652293 -.757967 -.757615 .652702 129.979 202.405)"/><path d="m0 0h1.80691v31.1682h-1.80691z" transform="matrix(-.652293 -.757967 -.757615 .652702 127.622 199.667)"/><path d="m0 0h1.80691v31.1682h-1.80691z" transform="matrix(-.652293 -.757967 -.757615 .652702 125.266 196.929)"/><path d="m0 0h1.80691v31.1682h-1.80691z" transform="matrix(-.652293 -.757967 -.757615 .652702 122.909 194.191)"/><path d="m0 0h1.80691v31.1682h-1.80691z" transform="matrix(-.652293 -.757967 -.757615 .652702 120.552 191.452)"/></g><path d="m0 0h1.80692v39.7509h-1.80692z" fill="url(#ae)" transform="matrix(-.652294 -.757966 -.757616 .652701 124.698 183.113)"/></g><ellipse cx="31.6109" cy="31.6109" fill="url(#ag)" rx="31.6109" ry="31.6109" transform="matrix(-.943718 -.330066 .186098 .982762 172.588 192.377)"/><ellipse cx="26.167" cy="26.2168" fill="url(#ah)" rx="26.167" ry="26.2168" transform="matrix(-.943718 -.330066 .186098 .982762 166.444 197.7)"/><ellipse cx="26.167" cy="26.2168" fill="url(#ai)" rx="26.167" ry="26.2168" transform="matrix(-.943718 -.330066 .186098 .982762 166.444 197.7)"/><g filter="url(#b)"><path clip-rule="evenodd" d="m125.561 190.64c3.593-2.966 9.144-3.626 15.846-1.282 13.638 4.77 26.879 20.172 29.573 34.402 1.328 7.01-.152 12.428-3.625 15.55 3.717-3.069 5.338-8.609 3.968-15.845-2.695-14.23-15.935-29.632-29.573-34.402-6.92-2.42-12.612-1.638-16.189 1.577z" fill="#ff93ba" fill-opacity=".22" fill-rule="evenodd"/></g><path d="m118.807 202.576c3.249 17.157 19.239 35.737 35.714 41.499 16.476 5.763 27.198-3.475 23.949-20.632s-19.239-35.737-35.714-41.5c-16.476-5.762-27.198 3.475-23.949 20.633zm55.68 19.474c2.816 14.866-6.475 22.87-20.751 17.877s-28.131-21.092-30.946-35.958c-2.815-14.867 6.475-22.871 20.751-17.878s28.131 21.092 30.946 35.959z" fill="url(#aj)"/><g filter="url(#c)"><path clip-rule="evenodd" d="m154.523 244.075c-16.475-5.762-32.465-24.342-35.714-41.499-1.603-8.463.193-14.999 4.403-18.758-4.453 3.707-6.391 10.364-4.745 19.053 3.249 17.157 19.239 35.737 35.714 41.499 8.349 2.92 15.22 1.989 19.545-1.873-4.34 3.612-11.071 4.422-19.203 1.578zm15.83-5.496c3.876-3.208 5.564-8.985 4.135-16.528-2.815-14.867-16.67-30.966-30.946-35.959-7.248-2.536-13.212-1.72-16.958 1.643 3.762-3.114 9.584-3.808 16.616-1.348 14.276 4.993 28.131 21.092 30.946 35.959 1.386 7.317-.161 12.972-3.793 16.233z" fill="#ff84b1" fill-opacity=".18" fill-rule="evenodd"/></g><path clip-rule="evenodd" d="m130.042 191.734 1.427 7.538 10.935 3.823.934 4.932c-1.107-.337-2.175-.64-3.195-.907l-.338-1.785-10.936-3.823-1.427-7.544 2.596-2.237zm-1.201 14.569c-.172.196-.235.438-.181.727.413 2.183 7.418 6.333 16.353 9.851l2.994 15.823 7.777 2.718.006.014-2.591 2.232-7.791-2.724-2.994-15.822c-8.936-3.519-15.94-7.669-16.353-9.851-.055-.291.009-.534.183-.731zm24.561 16.457-.597-3.151c7.147 2.183 12.674 2.935 14.285 1.972l-2.279 1.964c-.876 1.161-5.291.824-11.409-.785zm-2.568-13.569-.638-3.372 10.936 3.823-.005-.023.013.017-2.608 2.247zm-17.347.256c-.927-.675-1.479-1.256-1.562-1.692-.272-1.439 4.676-.838 11.609 1.273l.862 4.559c1.253.503 2.583 1.002 3.95 1.48 1.345.47 2.636.888 3.843 1.248l-.002-.009.007.005-1.127.971c-.161-.052-.322-.104-.485-.157l-.044-.016-.403-.132-.117-.041-.338-.114-2.164-.757-.343-.124-.122-.043-.435-.16-.02-.007c-.324-.121-.645-.242-.962-.363l-.046-.016-.427-.165-.05-.017-.455-.178c-1.14-.449-2.236-.904-3.274-1.358l-.448-2.365c-2.913-.887-5.475-1.508-7.447-1.822zm26.481 10.112c-1.649-1.203-4.486-2.704-7.964-4.221l-.681-3.599c7.087 2.789 12.526 5.819 12.8 7.267.158.835-1.437.985-4.155.553z" fill="url(#ak)" fill-rule="evenodd"/><path d="m131.469 199.271-1.428-7.545 29.662 10.371 1.428 7.544-10.936-3.823.933 4.929c8.968 3.524 16.008 7.689 16.422 9.879.414 2.189-5.934 1.673-14.745-1.018l2.994 15.818-7.792-2.724-2.994-15.822c-8.935-3.519-15.94-7.668-16.353-9.851s5.902-1.677 14.678.997l-.934-4.932-10.935-3.824zm.456 8.483c.272 1.44 5.677 4.457 12.731 7.237l.455.178.05.017.427.164.045.016c.318.122.638.243.963.363l.02.007.435.161.122.043.343.124 2.164.757.338.113.117.042.402.132.045.015c.477.157.946.306 1.407.45l.006.002.459.141c6.962 2.126 11.942 2.735 11.668 1.288s-5.713-4.477-12.8-7.266l.866 4.575c-1.207-.36-2.497-.777-3.842-1.247-1.367-.478-2.697-.978-3.95-1.48l-.863-4.559c-6.933-2.111-11.881-2.713-11.608-1.273z" fill="url(#al)"/><g filter="url(#d)"><path clip-rule="evenodd" d="m130.256 191.801 1.386 7.321 10.935 3.824.934 4.932c-.072-.022-.144-.044-.215-.065l-.893-4.72-10.936-3.823-1.427-7.545zm-1.217 14.324c-.191.201-.263.452-.206.756.413 2.183 7.418 6.332 16.353 9.851l2.994 15.822 7.575 2.648.042.224-7.791-2.724-2.994-15.823c-8.936-3.518-15.94-7.668-16.353-9.851-.073-.383.062-.683.38-.903zm23.979 13.547-.04-.212c7.269 2.22 12.862 2.96 14.365 1.921-1.177 1.236-6.842.557-14.325-1.709zm-2.607-13.779-.042-.223 10.719 3.747.042.223zm-18.226 1.321c1.113-.667 5.531.041 11.347 1.812l.863 4.559c1.253.503 2.583 1.002 3.95 1.48 1.345.47 2.635.888 3.842 1.248l-.04-.212c-1.145-.345-2.362-.741-3.628-1.183-1.367-.478-2.697-.978-3.95-1.48l-.863-4.559c-6.193-1.886-10.802-2.567-11.521-1.665zm31.849 12.183c.086-.108.116-.239.087-.393-.271-1.433-5.601-4.415-12.581-7.181l-.045-.234c7.088 2.79 12.527 5.82 12.801 7.267.044.233-.048.412-.262.541z" fill="#ff9da3" fill-opacity=".2" fill-rule="evenodd"/></g></g><g filter="url(#e)"><path d="m364.415 131.27c-.035 24.61-51.397 63.478-115.853 88.649-64.443 25.167-130.566 31.216-142.339 12.182 0 0 83.114-32.458 121.354-47.392 38.241-14.934 136.838-53.439 136.838-53.439z" fill="url(#am)"/></g><path d="m365.046 123.252c9.743 24.949-41.73 68.361-114.97 96.963-73.239 28.602-140.51 31.562-150.2536 6.613-9.7434-24.95-95.86537-67.644-95.86537-67.644l387.03697-147.3247s-34.508 89.4727-25.948 111.3927z" fill="url(#an)" fill-opacity=".4"/><g opacity=".63"><g filter="url(#f)"><path d="m345.025 64.6434 5.932 46.8686-4.487-47.0288z" fill="url(#ao)"/></g><g filter="url(#g)"><circle cx="345.748" cy="64.5631" fill="url(#aq)" r="2.18015" transform="matrix(.9938999 -.11028596 .11028596 .9938999 -5.011305 38.524991)"/></g><g filter="url(#h)"><circle cx="345.747" cy="64.5626" fill="url(#ar)" r="1.45343" transform="matrix(.9938999 -.11028596 .11028596 .9938999 -5.011256 38.524877)"/></g><g filter="url(#i)"><circle cx="345.748" cy="64.5633" fill="url(#as)" r=".726715" transform="matrix(.9938999 -.11028596 .11028596 .9938999 -5.011327 38.524992)"/></g><circle cx="345.748" cy="64.5633" fill="#ba83b7" r=".726715" transform="matrix(.9938999 -.11028596 .11028596 .9938999 -5.011327 38.524992)"/></g><g filter="url(#j)"><path d="m315.654 159.818 22.082 54.074-20.408-54.727z" fill="url(#at)"/></g><g filter="url(#k)"><circle cx="316.491" cy="159.491" fill="url(#au)" r="2.69545" transform="matrix(.93148947 -.36376828 .36376828 .93148947 -36.334801 126.056198)"/></g><g filter="url(#l)"><circle cx="316.491" cy="159.491" fill="url(#av)" r="1.79697" transform="matrix(.93148947 -.36376828 .36376828 .93148947 -36.334801 126.056198)"/></g><g filter="url(#m)"><circle cx="316.491" cy="159.492" fill="url(#aw)" r=".898485" transform="matrix(.93148947 -.36376828 .36376828 .93148947 -36.335165 126.056266)"/></g><circle cx="316.491" cy="159.492" fill="#ba83b7" r=".898485" transform="matrix(.93148947 -.36376828 .36376828 .93148947 -36.335165 126.056266)"/><g filter="url(#n)"><path d="m321.113 121.655 11.041 27.037-10.204-27.364z" fill="url(#ax)"/></g><g filter="url(#o)"><circle cx="321.531" cy="121.492" fill="url(#ay)" r="1.34773" transform="matrix(.93148947 -.36376828 .36376828 .93148947 -22.166678 125.286259)"/></g><g filter="url(#p)"><circle cx="321.531" cy="121.492" fill="url(#az)" r=".898485" transform="matrix(.93148947 -.36376828 .36376828 .93148947 -22.166678 125.286259)"/></g><g filter="url(#q)"><circle cx="321.531" cy="121.491" fill="url(#aA)" r=".449242" transform="matrix(.93148947 -.36376828 .36376828 .93148947 -22.166314 125.28619)"/></g><circle cx="321.531" cy="121.491" fill="#ba83b7" r=".449242" transform="matrix(.93148947 -.36376828 .36376828 .93148947 -22.166314 125.28619)"/><g filter="url(#r)"><path d="m226.06 196.877 22.081 54.073-20.408-54.727z" fill="url(#aB)"/></g><g filter="url(#s)"><circle cx="226.897" cy="196.55" fill="url(#aC)" r="2.69545" transform="matrix(.93148947 -.36376828 .36376828 .93148947 -55.953822 96.003675)"/></g><g filter="url(#t)"><circle cx="226.896" cy="196.549" fill="url(#aD)" r="1.79697" transform="matrix(.93148947 -.36376828 .36376828 .93148947 -55.953527 96.003242)"/></g><g filter="url(#u)"><circle cx="226.897" cy="196.55" fill="url(#aE)" r=".898485" transform="matrix(.93148947 -.36376828 .36376828 .93148947 -55.953822 96.003675)"/></g><circle cx="226.897" cy="196.55" fill="#ba83b7" r=".898485" transform="matrix(.93148947 -.36376828 .36376828 .93148947 -55.953822 96.003675)"/><g filter="url(#v)"><path d="m274.203 165.376 18.402 45.061-17.007-45.606z" fill="url(#aF)"/></g><g filter="url(#w)"><circle cx="274.901" cy="165.103" fill="url(#aG)" r="2.24621" transform="matrix(.93148947 -.36376828 .36376828 .93148947 -41.225622 111.311556)"/></g><g filter="url(#x)"><circle cx="274.901" cy="165.103" fill="url(#aH)" r="1.49747" transform="matrix(.93148947 -.36376828 .36376828 .93148947 -41.225622 111.311556)"/></g><g filter="url(#y)"><circle cx="274.901" cy="165.104" fill="url(#aI)" r=".748737" transform="matrix(.93148947 -.36376828 .36376828 .93148947 -41.225986 111.311625)"/></g><circle cx="274.901" cy="165.104" fill="#ba83b7" r=".748737" transform="matrix(.93148947 -.36376828 .36376828 .93148947 -41.225986 111.311625)"/><g filter="url(#z)"><path d="m165.581 213.261 18.401 45.061-17.006-45.606z" fill="url(#aJ)"/></g><g filter="url(#A)"><circle cx="166.279" cy="212.988" fill="url(#aK)" r="2.24621" transform="matrix(.93148947 -.36376828 .36376828 .93148947 -66.086416 75.078945)"/></g><g filter="url(#B)"><circle cx="166.279" cy="212.988" fill="url(#aL)" r="1.49747" transform="matrix(.93148947 -.36376828 .36376828 .93148947 -66.086416 75.078945)"/></g><g filter="url(#C)"><circle cx="166.279" cy="212.989" fill="url(#aM)" r=".748737" transform="matrix(.93148947 -.36376828 .36376828 .93148947 -66.08678 75.079014)"/></g><circle cx="166.279" cy="212.989" fill="#ba83b7" r=".748737" transform="matrix(.93148947 -.36376828 .36376828 .93148947 -66.08678 75.079014)"/><g opacity=".63"><g filter="url(#D)"><path d="m147.481 162.545 21.604 42.013-20.301-42.658z" fill="url(#aN)"/></g><g filter="url(#E)"><circle cx="148.132" cy="162.222" fill="url(#aO)" r="2.18015" transform="matrix(.89624038 -.44356869 .44356869 .89624038 -56.586479 82.538809)"/></g><g filter="url(#F)"><circle cx="148.133" cy="162.222" fill="url(#aP)" r="1.45343" transform="matrix(.89624038 -.44356869 .44356869 .89624038 -56.586376 82.539253)"/></g><g filter="url(#G)"><circle cx="148.132" cy="162.222" fill="url(#aQ)" r=".726715" transform="matrix(.89624038 -.44356869 .44356869 .89624038 -56.586479 82.538809)"/></g><circle cx="148.132" cy="162.222" fill="#ba83b7" r=".726715" transform="matrix(.89624038 -.44356869 .44356869 .89624038 -56.586479 82.538809)"/></g><g opacity=".63"><g filter="url(#H)"><path d="m80.8721 138.745 25.1829 39.97-23.9415-40.726z" fill="url(#aR)"/></g><g filter="url(#I)"><circle cx="81.4925" cy="138.367" fill="url(#aS)" r="2.18015" transform="matrix(.85417036 -.51999327 .51999327 .85417036 -60.065887 62.553562)"/></g><g filter="url(#J)"><circle cx="81.4927" cy="138.367" fill="url(#aT)" r="1.45343" transform="matrix(.85417036 -.51999327 .51999327 .85417036 -60.065857 62.553666)"/></g><g filter="url(#K)"><circle cx="81.4928" cy="138.368" fill="url(#aU)" r=".726715" transform="matrix(.85417036 -.51999327 .51999327 .85417036 -60.066363 62.553863)"/></g><circle cx="81.4928" cy="138.368" fill="#ba83b7" r=".726715" transform="matrix(.85417036 -.51999327 .51999327 .85417036 -60.066363 62.553863)"/></g><g opacity=".63"><g filter="url(#L)"><path d="m276.979 49.1485 6.154 28.4278-5.276-28.6037z" fill="url(#aV)"/></g><g filter="url(#M)"><circle cx="277.418" cy="49.0602" fill="url(#aW)" r="1.34228" transform="matrix(.98050575 -.19649037 .19649037 .98050575 -4.231802 55.466357)"/></g><g filter="url(#N)"><circle cx="277.418" cy="49.06" fill="url(#aX)" r=".894852" transform="matrix(.98050575 -.19649037 .19649037 .98050575 -4.231763 55.466353)"/></g><g filter="url(#O)"><circle cx="277.418" cy="49.0599" fill="url(#aY)" r=".447426" transform="matrix(.98050575 -.19649037 .19649037 .98050575 -4.231743 55.466351)"/></g><circle cx="277.418" cy="49.0599" fill="#ba83b7" r=".447426" transform="matrix(.98050575 -.19649037 .19649037 .98050575 -4.231743 55.466351)"/></g><g filter="url(#P)"><path d="m161.604 89.4736 12.963 25.2074-12.181-25.5942z" fill="url(#aZ)"/></g><g filter="url(#Q)"><circle cx="161.995" cy="89.2796" fill="url(#a0)" r="1.30809" transform="matrix(.89624038 -.44356869 .44356869 .89624038 -22.793095 81.119526)"/></g><g filter="url(#R)"><circle cx="161.995" cy="89.2795" fill="url(#a1)" r=".872058" transform="matrix(.89624038 -.44356869 .44356869 .89624038 -22.793051 81.119516)"/></g><g filter="url(#S)"><circle cx="161.995" cy="89.2795" fill="url(#a2)" r=".436029" transform="matrix(.89624038 -.44356869 .44356869 .89624038 -22.793051 81.119516)"/></g><circle cx="161.995" cy="89.2795" fill="#ba83b7" r=".436029" transform="matrix(.89624038 -.44356869 .44356869 .89624038 -22.793051 81.119516)"/></svg>