<svg fill="none" height="71" viewBox="0 0 81 71" width="81" xmlns="http://www.w3.org/2000/svg" xmlns:xlink="http://www.w3.org/1999/xlink"><filter id="a" color-interpolation-filters="sRGB" filterUnits="userSpaceOnUse" height="26.7077" width="41.093" x="21.0507" y="18.2708"><feFlood flood-opacity="0" result="BackgroundImageFix"/><feBlend in="SourceGraphic" in2="BackgroundImageFix" mode="normal" result="shape"/><feGaussianBlur result="effect1_foregroundBlur_6_176" stdDeviation="1.34773"/></filter><filter id="b" color-interpolation-filters="sRGB" filterUnits="userSpaceOnUse" height="30.4918" width="43.9998" x="19.5659" y="18.4289"><feFlood flood-opacity="0" result="BackgroundImageFix"/><feBlend in="SourceGraphic" in2="BackgroundImageFix" mode="normal" result="shape"/><feGaussianBlur result="effect1_foregroundBlur_6_176" stdDeviation=".233997"/></filter><linearGradient id="c" gradientUnits="userSpaceOnUse" x1="61.7543" x2="16.8543" y1="51.8096" y2="30.2926"><stop offset="0" stop-color="#66536e"/><stop offset=".3125" stop-color="#302634"/><stop offset=".58" stop-color="#8c404b"/><stop offset=".793394" stop-color="#8c404b"/><stop offset=".952475" stop-color="#7a5178"/><stop offset="1" stop-color="#332837"/></linearGradient><linearGradient id="d"><stop offset="0" stop-color="#302634"/><stop offset="1" stop-color="#302634" stop-opacity="0"/></linearGradient><linearGradient id="e" gradientUnits="userSpaceOnUse" x1="1.1519" x2="-.076936" xlink:href="#d" y1="11.0404" y2="11.0395"/><linearGradient id="f" gradientUnits="userSpaceOnUse" x1="1.1519" x2="-.076935" xlink:href="#d" y1="9.06886" y2="9.06783"/><linearGradient id="g" gradientUnits="userSpaceOnUse" x1="1.1519" x2="-.076936" xlink:href="#d" y1="11.5661" y2="11.5653"/><linearGradient id="h"><stop offset="0" stop-color="#81557e"/><stop offset="1" stop-color="#36293b"/></linearGradient><radialGradient id="i" cx="0" cy="0" gradientTransform="matrix(-16.98587115 31.65993785 -54.53716343 -29.25972993 27.7333 5.07557)" gradientUnits="userSpaceOnUse" r="1" xlink:href="#h"/><radialGradient id="j" cx="0" cy="0" gradientTransform="matrix(-23.04270722 -19.63030622 12.07803346 -14.17759792 25.6887 25.6406)" gradientUnits="userSpaceOnUse" r="1" xlink:href="#h"/><linearGradient id="k"><stop offset="0" stop-color="#e35760"/><stop offset="1" stop-color="#302634"/></linearGradient><radialGradient id="l" cx="0" cy="0" gradientTransform="matrix(12.30777166 -35.09500655 29.68278141 10.40971157 30.8311 64.6921)" gradientUnits="userSpaceOnUse" r="1" xlink:href="#k"/><radialGradient id="m" cx="0" cy="0" gradientTransform="matrix(10.60531281 -45.32592139 39.03814392 9.13410506 32.833 61.6163)" gradientUnits="userSpaceOnUse" r="1" xlink:href="#k"/><radialGradient id="n" cx="0" cy="0" gradientTransform="matrix(-41.26499288 -11.23233421 11.82661856 -43.44825589 60.9258 38.4392)" gradientUnits="userSpaceOnUse" r="1"><stop offset="0" stop-color="#36293b"/><stop offset="1" stop-color="#81557e"/></radialGradient><mask id="o" height="33" maskUnits="userSpaceOnUse" width="47" x="17" y="22"><path d="m20.1665 40.2873c6.0146 8.6256 19.3879 14.8915 29.87 13.9954 5.31-.4539 8.8594-2.6588 10.2874-5.8454l2.8382-6.0309-42.1319-20.0411-3.0623 6.5268c-1.3909 3.1038-.7692 7.1391 2.1986 11.3952z" fill="#b81a24"/></mask><path d="m20.166 40.2856c6.0146 8.6257 19.3879 14.8917 29.87 13.9954 5.3101-.4541 8.8596-2.659 10.2877-5.8457l2.8382-6.0312-42.1319-20.0411-3.0623 6.5271c-1.391 3.1039-.7694 7.1393 2.1983 11.3955z" fill="url(#c)"/><g fill-opacity=".2" mask="url(#o)"><path d="m0 0h1.08861v22.8601h-1.08861z" fill="url(#e)" transform="matrix(.905534 .424274 -.424761 .905306 21.4121 23.1426)"/><g fill="url(#f)"><path d="m0 0h1.08861v18.7779h-1.08861z" transform="matrix(.905534 .424273 -.424762 .905305 21.6489 27.7615)"/><path d="m0 0h1.08861v18.7779h-1.08861z" transform="matrix(.905534 .424273 -.424762 .905305 23.6196 28.6855)"/><path d="m0 0h1.08861v18.7779h-1.08861z" transform="matrix(.905534 .424273 -.424762 .905305 25.5908 29.6094)"/><path d="m0 0h1.08861v18.7779h-1.08861z" transform="matrix(.905534 .424273 -.424762 .905305 27.5615 30.5322)"/><path d="m0 0h1.08861v18.7779h-1.08861z" transform="matrix(.905534 .424273 -.424762 .905305 29.5332 31.4561)"/><path d="m0 0h1.08861v18.7779h-1.08861z" transform="matrix(.905534 .424273 -.424762 .905305 31.5029 32.3789)"/><path d="m0 0h1.08861v18.7779h-1.08861z" transform="matrix(.905534 .424273 -.424762 .905305 33.4741 33.3018)"/><path d="m0 0h1.08861v18.7779h-1.08861z" transform="matrix(.905534 .424273 -.424762 .905305 35.4458 34.2256)"/><path d="m0 0h1.08861v18.7779h-1.08861z" transform="matrix(.905534 .424273 -.424762 .905305 37.4165 35.1484)"/><path d="m0 0h1.08861v18.7779h-1.08861z" transform="matrix(.905534 .424273 -.424762 .905305 39.3867 36.0723)"/><path d="m0 0h1.08861v18.7779h-1.08861z" transform="matrix(.905534 .424273 -.424762 .905305 41.3579 36.9962)"/><path d="m0 0h1.08861v18.7779h-1.08861z" transform="matrix(.905534 .424273 -.424762 .905305 43.329 37.9191)"/><path d="m0 0h1.08861v18.7779h-1.08861z" transform="matrix(.905534 .424273 -.424762 .905305 45.2993 38.8438)"/><path d="m0 0h1.08861v18.7779h-1.08861z" transform="matrix(.905534 .424273 -.424762 .905305 47.2711 39.7666)"/><path d="m0 0h1.08861v18.7779h-1.08861z" transform="matrix(.905534 .424273 -.424762 .905305 49.2416 40.6903)"/><path d="m0 0h1.08861v18.7779h-1.08861z" transform="matrix(.905534 .424273 -.424762 .905305 51.2123 41.6131)"/><path d="m0 0h1.08861v18.7779h-1.08861z" transform="matrix(.905534 .424273 -.424762 .905305 53.1837 42.5369)"/><path d="m0 0h1.08861v18.7779h-1.08861z" transform="matrix(.905534 .424273 -.424762 .905305 55.1538 43.4609)"/><path d="m0 0h1.08861v18.7779h-1.08861z" transform="matrix(.905534 .424273 -.424762 .905305 57.125 44.3848)"/><path d="m0 0h1.08861v18.7779h-1.08861z" transform="matrix(.905534 .424273 -.424762 .905305 59.0962 45.3076)"/></g><path d="m0 0h1.08861v23.9487h-1.08861z" fill="url(#g)" transform="matrix(.905534 .424274 -.42476 .905306 63.2627 41.5488)"/></g><ellipse cx="19.0446" cy="19.0446" fill="url(#i)" rx="19.0446" ry="19.0446" transform="matrix(.571835 .820092 -.99659 .0852165 50.1252 15.2628)"/><ellipse cx="15.7648" cy="15.7948" fill="url(#j)" rx="15.7648" ry="15.7948" transform="matrix(.571835 .820092 -.99659 .0852166 48.0315 19.6906)"/><g clip-rule="evenodd" fill-rule="evenodd"><path d="m39.9672 41.3265 2.2971-1.2401.7963-1.2925-.6623-2.8264c.0214-.5985.4499-1.1589 1.1928-1.56.743-.401 1.7408-.6107 2.7777-.5835l7.1325.1962 2.2989-1.2411.8189-1.297-10.2094 1.0395c-3.4004-.0925-6.2072 1.4228-6.2704 3.385zm1.5408-16.5029-.7919 1.2853-.1351 4.1523c-.0214.5985-.4499 1.1589-1.1928 1.56-.743.4011-1.7408.6107-2.7777.5835l-7.1919-.1969-1.395-.2236-.9021 1.4637 9.4481.2593c3.4004.0924 6.2072-1.4228 6.2704-3.3851l.1747-5.4541z" fill="#fff"/><path d="m39.9672 41.3265 2.2971-1.2401.7963-1.2925-.6623-2.8264c.0214-.5985.4499-1.1589 1.1928-1.56.743-.401 1.7408-.6107 2.7777-.5835l7.1325.1962 2.2989-1.2411.8189-1.297-10.2094 1.0395c-3.4004-.0925-6.2072 1.4228-6.2704 3.385zm1.5408-16.5029-.7919 1.2853-.1351 4.1523c-.0214.5985-.4499 1.1589-1.1928 1.56-.743.4011-1.7408.6107-2.7777.5835l-7.1919-.1969-1.395-.2236-.9021 1.4637 9.4481.2593c3.4004.0924 6.2072-1.4228 6.2704-3.3851l.1747-5.4541z" fill="url(#l)"/><path d="m40.7568 40.0455 2.297-1.24.134-4.119c.0214-.5985.4499-1.1588 1.1929-1.5599s1.7407-.6107 2.7777-.5835l7.1324.1961 2.299-1.2411-9.3906-.2575c-3.4003-.0924-6.2071 1.4228-6.2703 3.3851zm3.0478-16.4581-2.2986 1.2409-.1351 4.1523c-.0214.5985-.4499 1.1589-1.1929 1.56-.7429.4011-1.7407.6107-2.7776.5835l-7.192-.1969-2.297 1.2401 9.4481.2593c3.4004.0924 6.2071-1.4229 6.2703-3.3851z" fill="#fff"/><path d="m40.7568 40.0455 2.297-1.24.134-4.119c.0214-.5985.4499-1.1588 1.1929-1.5599s1.7407-.6107 2.7777-.5835l7.1324.1961 2.299-1.2411-9.3906-.2575c-3.4003-.0924-6.2071 1.4228-6.2703 3.3851zm3.0478-16.4581-2.2986 1.2409-.1351 4.1523c-.0214.5985-.4499 1.1589-1.1929 1.56-.7429.4011-1.7407.6107-2.7776.5835l-7.192-.1969-2.297 1.2401 9.4481.2593c3.4004.0924 6.2071-1.4229 6.2703-3.3851z" fill="url(#m)"/></g><g filter="url(#a)"><path clip-rule="evenodd" d="m58.7489 42.2831c1.1472-2.5676.6328-5.9016-1.8187-9.4172-4.9788-7.1402-16.0623-12.3259-24.7558-11.5826-4.2748.3655-7.1757 2.0965-8.4282 4.6108 1.1827-2.6471 4.1315-4.4796 8.5445-4.8569 8.6934-.7433 19.7769 4.4424 24.7558 11.5826 2.5305 3.6291 2.997 7.0645 1.7024 9.6633z" fill="#ff93ba" fill-opacity=".22" fill-rule="evenodd"/></g><path d="m52.9263 48.1224c-10.4822.8963-23.8554-5.3697-29.87-13.9954-6.0146-8.6258-2.3929-16.345 8.0892-17.2413 10.4822-.8963 23.8554 5.3697 29.87 13.9954 6.0146 8.6258 2.3929 16.345-8.0892 17.2413zm-20.3267-29.1514c-9.0827.7766-12.2208 7.4652-7.0093 14.9393 5.2116 7.4741 16.7993 12.9034 25.8819 12.1268 9.0827-.7767 12.2208-7.4652 7.0093-14.9393-5.2116-7.4741-16.7993-12.9034-25.8819-12.1268z" fill="url(#n)"/><g filter="url(#b)"><path clip-rule="evenodd" d="m23.0555 34.1262c6.0147 8.6256 19.388 14.8915 29.87 13.9954 5.1725-.4422 8.6744-2.5457 10.1722-5.5997-1.428 3.1867-4.9774 5.3916-10.2875 5.8455-10.4821.8962-23.8553-5.3698-29.87-13.9954-3.0467-4.3692-3.6209-8.5058-2.0832-11.6409-1.3909 3.1039-.7692 7.1391 2.1985 11.3951zm.6217-10.0737c1.2324-2.7702 4.3111-4.6875 8.9214-5.0817 9.0825-.7765 20.6702 4.6529 25.8819 12.1268 2.6452 3.7935 3.1394 7.3846 1.7971 10.103 1.1955-2.6872.6537-6.1769-1.9125-9.8571-5.2116-7.474-16.7993-12.9033-25.8819-12.1268-4.4726.3823-7.5037 2.1983-8.806 4.8358z" fill="#ff84b1" fill-opacity=".18" fill-rule="evenodd"/></g></svg>