<svg fill="none" height="77" viewBox="0 0 104 77" width="104" xmlns="http://www.w3.org/2000/svg" xmlns:xlink="http://www.w3.org/1999/xlink"><filter id="a" color-interpolation-filters="sRGB" filterUnits="userSpaceOnUse" height="21.7464" width="40.6922" x="29.886" y="22.1343"><feFlood flood-opacity="0" result="BackgroundImageFix"/><feColorMatrix in="SourceAlpha" result="hardAlpha" type="matrix" values="0 0 0 0 0 0 0 0 0 0 0 0 0 0 0 0 0 0 127 0"/><feOffset dx="-2.69545" dy="-1.79697"/><feGaussianBlur stdDeviation="1.34773"/><feComposite in2="hardAlpha" operator="out"/><feColorMatrix type="matrix" values="0 0 0 0 0.215686 0 0 0 0 0.164706 0 0 0 0 0.235294 0 0 0 0.4 0"/><feBlend in2="BackgroundImageFix" mode="normal" result="effect1_dropShadow_6_262"/><feBlend in="SourceGraphic" in2="effect1_dropShadow_6_262" mode="normal" result="shape"/></filter><filter id="b" color-interpolation-filters="sRGB" filterUnits="userSpaceOnUse" height="10.6455" width="26.8776" x="44.1359" y="32.772"><feFlood flood-opacity="0" result="BackgroundImageFix"/><feBlend in="SourceGraphic" in2="BackgroundImageFix" mode="normal" result="shape"/><feGaussianBlur result="effect1_foregroundBlur_6_262" stdDeviation=".217645"/></filter><filter id="c" color-interpolation-filters="sRGB" filterUnits="userSpaceOnUse" height="7.06045" width="15.411" x="45.7605" y="26.7611"><feFlood flood-opacity="0" result="BackgroundImageFix"/><feBlend in="SourceGraphic" in2="BackgroundImageFix" mode="normal" result="shape"/><feGaussianBlur result="effect1_foregroundBlur_6_262" stdDeviation=".217645"/></filter><filter id="d" color-interpolation-filters="sRGB" filterUnits="userSpaceOnUse" height="10.5385" width="13.8249" x="44.1347" y="32.8783"><feFlood flood-opacity="0" result="BackgroundImageFix"/><feBlend in="SourceGraphic" in2="BackgroundImageFix" mode="normal" result="shape"/><feGaussianBlur result="effect1_foregroundBlur_6_262" stdDeviation=".217645"/></filter><filter id="e" color-interpolation-filters="sRGB" filterUnits="userSpaceOnUse" height="6.98918" width="24.1682" x="34.8421" y="26.1914"><feFlood flood-opacity="0" result="BackgroundImageFix"/><feBlend in="SourceGraphic" in2="BackgroundImageFix" mode="normal" result="shape"/><feGaussianBlur result="effect1_foregroundBlur_6_262" stdDeviation=".217645"/></filter><filter id="f" color-interpolation-filters="sRGB" filterUnits="userSpaceOnUse" height="13.0001" width="9.73743" x="34.8416" y="29.8525"><feFlood flood-opacity="0" result="BackgroundImageFix"/><feBlend in="SourceGraphic" in2="BackgroundImageFix" mode="normal" result="shape"/><feGaussianBlur result="effect1_foregroundBlur_6_262" stdDeviation=".217645"/></filter><filter id="g" color-interpolation-filters="sRGB" filterUnits="userSpaceOnUse" height="25.5344" width="58.4054" x="22.9139" y="17.1498"><feFlood flood-opacity="0" result="BackgroundImageFix"/><feBlend in="SourceGraphic" in2="BackgroundImageFix" mode="normal" result="shape"/><feGaussianBlur result="effect1_foregroundBlur_6_262" stdDeviation="1.34773"/></filter><filter id="h" color-interpolation-filters="sRGB" filterUnits="userSpaceOnUse" height="36.9483" width="64.9049" x="19.9175" y="16.4285"><feFlood flood-opacity="0" result="BackgroundImageFix"/><feBlend in="SourceGraphic" in2="BackgroundImageFix" mode="normal" result="shape"/><feGaussianBlur result="effect1_foregroundBlur_6_262" stdDeviation=".233997"/></filter><linearGradient id="i" gradientUnits="userSpaceOnUse" x1="86.1424" x2="18.1379" y1="51.5281" y2="40.1973"><stop offset="0" stop-color="#66536e"/><stop offset=".3125" stop-color="#302634"/><stop offset=".58" stop-color="#8c404b"/><stop offset=".793394" stop-color="#8c404b"/><stop offset=".952475" stop-color="#7a5178"/><stop offset="1" stop-color="#332837"/></linearGradient><linearGradient id="j"><stop offset="0" stop-color="#302634"/><stop offset="1" stop-color="#302634" stop-opacity="0"/></linearGradient><linearGradient id="k" gradientUnits="userSpaceOnUse" x1="1.59501" x2="-.106531" xlink:href="#j" y1="15.2873" y2="15.2861"/><linearGradient id="l" gradientUnits="userSpaceOnUse" x1="1.595" x2="-.10653" xlink:href="#j" y1="12.5574" y2="12.556"/><linearGradient id="m" gradientUnits="userSpaceOnUse" x1="1.59501" x2="-.106531" xlink:href="#j" y1="16.0153" y2="16.0142"/><linearGradient id="n"><stop offset="0" stop-color="#81557e"/><stop offset="1" stop-color="#36293b"/></linearGradient><radialGradient id="o" cx="0" cy="0" gradientTransform="matrix(-23.51982951 43.83857229 -75.51604578 -40.51510871 38.4015 7.028)" gradientUnits="userSpaceOnUse" r="1" xlink:href="#n"/><radialGradient id="p" cx="0" cy="0" gradientTransform="matrix(-31.90659856 -27.1815414 16.72408941 -19.63129313 35.5705 35.5039)" gradientUnits="userSpaceOnUse" r="1" xlink:href="#n"/><linearGradient id="q"><stop offset="0" stop-color="#e35760"/><stop offset="1" stop-color="#302634"/></linearGradient><radialGradient id="r" cx="0" cy="0" gradientTransform="matrix(20.67943047 -.88828921 .91808983 21.37319072 49.5112 40.6319)" gradientUnits="userSpaceOnUse" r="1" xlink:href="#q"/><radialGradient id="s" cx="0" cy="0" gradientTransform="matrix(21.43604752 -3.53395982 3.61509707 21.92820419 56.6093 35.5578)" gradientUnits="userSpaceOnUse" r="1"><stop offset="0" stop-color="#c54f59"/><stop offset="1" stop-color="#302634"/></radialGradient><radialGradient id="t" cx="0" cy="0" gradientTransform="matrix(14.42313751 -6.25131415 5.85793264 13.51552105 34.7072 40.2544)" gradientUnits="userSpaceOnUse" r="1" xlink:href="#q"/><radialGradient id="u" cx="0" cy="0" gradientTransform="matrix(-18.23604951 3.42069075 -3.1975377 -17.04639793 52.0546 27.0647)" gradientUnits="userSpaceOnUse" r="1" xlink:href="#q"/><radialGradient id="v" cx="0" cy="0" gradientTransform="matrix(12.69670258 -6.59901116 5.46687851 10.51844418 43.7051 42.7416)" gradientUnits="userSpaceOnUse" r="1" xlink:href="#q"/><radialGradient id="w" cx="0" cy="0" gradientTransform="matrix(-3.39729979 -22.38405831 21.28761475 -3.23088906 59.2053 51.4693)" gradientUnits="userSpaceOnUse" r="1" xlink:href="#q"/><radialGradient id="x" cx="0" cy="0" gradientTransform="matrix(-59.20979936 .94874785 -.99894461 -62.34249722 79.8921 34.0636)" gradientUnits="userSpaceOnUse" r="1"><stop offset="0" stop-color="#36293b"/><stop offset="1" stop-color="#81557e"/></radialGradient><mask id="y" height="34" maskUnits="userSpaceOnUse" width="67" x="18" y="28"><path d="m26.3907 52.2053c11.321 9.1567 31.5209 12.3416 45.1176 7.1137 6.8879-2.6483 10.7599-6.9476 11.4323-11.7358l1.4528-9.1142-63.7545-10.4336-1.5599 9.8601c-.655 4.6638 1.7256 9.7917 7.3117 14.3098z" fill="#b81a24"/></mask><path d="m26.3903 52.2134c11.321 9.157 31.5209 12.3419 45.1177 7.1137 6.8879-2.6484 10.7599-6.9478 11.4324-11.7362l1.4528-9.1146-63.7545-10.4336-1.56 9.8604c-.655 4.6641 1.7256 9.7921 7.3116 14.3103z" fill="url(#i)"/><g fill-opacity=".2" mask="url(#y)"><path d="m0 0h1.50737v31.6537h-1.50737z" fill="url(#k)" transform="matrix(.987798 .155739 -.15627 .987714 21.4465 28.9217)"/><g fill="url(#l)"><path d="m0 0h1.50736v26.0012h-1.50736z" transform="matrix(.987798 .155738 -.156271 .987714 23.54 34.9748)"/><path d="m0 0h1.50736v26.0012h-1.50736z" transform="matrix(.987798 .155738 -.156271 .987714 26.5166 35.4443)"/><path d="m0 0h1.50736v26.0012h-1.50736z" transform="matrix(.987798 .155738 -.156271 .987714 29.4937 35.9141)"/><path d="m0 0h1.50736v26.0012h-1.50736z" transform="matrix(.987798 .155738 -.156271 .987714 32.4707 36.3828)"/><path d="m0 0h1.50736v26.0012h-1.50736z" transform="matrix(.987798 .155738 -.156271 .987714 35.4483 36.8525)"/><path d="m0 0h1.50736v26.0012h-1.50736z" transform="matrix(.987798 .155738 -.156271 .987714 38.4243 37.3214)"/><path d="m0 0h1.50736v26.0012h-1.50736z" transform="matrix(.987798 .155738 -.156271 .987714 41.402 37.791)"/><path d="m0 0h1.50736v26.0012h-1.50736z" transform="matrix(.987798 .155738 -.156271 .987714 44.3793 38.2607)"/><path d="m0 0h1.50736v26.0012h-1.50736z" transform="matrix(.987798 .155738 -.156271 .987714 47.356 38.7295)"/><path d="m0 0h1.50736v26.0012h-1.50736z" transform="matrix(.987798 .155738 -.156271 .987714 50.3325 39.1992)"/><path d="m0 0h1.50736v26.0012h-1.50736z" transform="matrix(.987798 .155738 -.156271 .987714 53.3096 39.6689)"/><path d="m0 0h1.50736v26.0012h-1.50736z" transform="matrix(.987798 .155738 -.156271 .987714 56.2862 40.1376)"/><path d="m0 0h1.50736v26.0012h-1.50736z" transform="matrix(.987798 .155738 -.156271 .987714 59.2635 40.6073)"/><path d="m0 0h1.50736v26.0012h-1.50736z" transform="matrix(.987798 .155738 -.156271 .987714 62.2412 41.0762)"/><path d="m0 0h1.50736v26.0012h-1.50736z" transform="matrix(.987798 .155738 -.156271 .987714 65.2174 41.5461)"/><path d="m0 0h1.50736v26.0012h-1.50736z" transform="matrix(.987798 .155738 -.156271 .987714 68.1943 42.0146)"/><path d="m0 0h1.50736v26.0012h-1.50736z" transform="matrix(.987798 .155738 -.156271 .987714 71.172 42.4845)"/><path d="m0 0h1.50736v26.0012h-1.50736z" transform="matrix(.987798 .155738 -.156271 .987714 74.1485 42.9531)"/><path d="m0 0h1.50736v26.0012h-1.50736z" transform="matrix(.987798 .155738 -.156271 .987714 77.1255 43.4238)"/><path d="m0 0h1.50736v26.0012h-1.50736z" transform="matrix(.987798 .155738 -.156271 .987714 80.1025 43.8924)"/></g><path d="m0 0h1.50737v33.1611h-1.50737z" fill="url(#m)" transform="matrix(.987798 .155739 -.156269 .987714 84.198 37.2902)"/></g><ellipse cx="26.3705" cy="26.3705" fill="url(#o)" rx="26.3705" ry="26.3705" transform="matrix(.777326 .628738 -.933589 .358978 56.6029 7.39624)"/><ellipse cx="21.8291" cy="21.8706" fill="url(#p)" rx="21.8291" ry="21.8706" transform="matrix(.777326 .628738 -.933589 .358978 55.5229 14.0916)"/><g filter="url(#a)"><path d="m70.5768 40.0719-.6289-.3955-23.3411-6.4699-.4118.1071-1.6252 9.6679z" fill="url(#r)"/><path d="m70.5773 40.0724-9.9477-12.876-14.4341 6.1177 11.3291 3.1403z" fill="url(#s)"/><path d="m44.1438 32.7455-.0639-.1423-8.3144-2.3047-.4886-.0108 7.2334 12.1296z" fill="url(#t)"/><path d="m35.2773 30.2875 8.8669 2.4578 14.4308-6.1186z" fill="url(#u)"/><path d="m46.1957 33.3136-1.6252 9.6679 12.9543-6.5276z" fill="url(#v)"/><path d="m60.6303 27.1962-14.4341 6.1177 11.3291 3.1403z" fill="url(#w)"/><g filter="url(#b)"><path clip-rule="evenodd" d="m69.9493 39.6771.6289.3955-26.0071 2.9096.0174-.1034 25.7284-2.8784-.629-.3955-23.0801-6.3975.0004-.0001z" fill="#fff" fill-opacity=".25" fill-rule="evenodd"/></g><g filter="url(#c)"><path clip-rule="evenodd" d="m60.7361 27.3339-14.2799 6.0523-.2605-.0722 14.4342-6.1177z" fill="#fff" fill-opacity=".25" fill-rule="evenodd"/></g><g filter="url(#d)"><path clip-rule="evenodd" d="m44.57 42.9815 1.6252-9.6679.0272.0075-1.5801 9.3994 12.5947-6.3463.2873.0797z" fill="#fff" fill-opacity=".25" fill-rule="evenodd"/></g><g filter="url(#e)"><path clip-rule="evenodd" d="m44.1443 32.7453-8.8669-2.4578h.0001l8.6059 2.3855 14.006-5.9385.6857-.1078z" fill="#fff" fill-opacity=".25" fill-rule="evenodd"/></g><g filter="url(#f)"><path clip-rule="evenodd" d="m44.0799 32.6032.0639.1423-1.6335 9.6718-.2355-.3949 1.535-9.0884-.0638-.1424-8.3145-2.3046-.0362-.0008-.1184-.1985.4886.0108z" fill="#fff" fill-opacity=".25" fill-rule="evenodd"/></g></g><g filter="url(#g)"><path clip-rule="evenodd" d="m78.4809 39.9887c.5291-3.8522-1.4397-8.0815-6.0472-11.8082-9.3714-7.5798-26.1099-10.2095-37.3865-5.8737-5.5533 2.1353-8.7464 5.5617-9.4379 9.3949.5471-3.983 3.7646-7.5628 9.497-9.767 11.2766-4.3358 28.0151-1.7061 37.3865 5.8737 4.7563 3.8471 6.7007 8.2298 5.9881 12.1803z" fill="#ff93ba" fill-opacity=".22" fill-rule="evenodd"/></g><path d="m72.9807 50.0229c-13.5968 5.2282-33.7967 2.0433-45.1177-7.1137-11.321-9.1569-9.4761-20.8184 4.1207-26.0465 13.5968-5.2282 33.7967-2.0433 45.1177 7.1137 11.321 9.1569 9.4761 20.8184-4.1207 26.0465zm-38.2601-30.9465c-11.7814 4.5301-13.38 14.6345-3.5705 22.5689 9.8094 7.9344 27.3123 10.6941 39.0938 6.1639 11.7814-4.5301 13.38-14.6345 3.5705-22.5689s-27.3124-10.6941-39.0938-6.1639z" fill="url(#x)"/><g filter="url(#h)"><path clip-rule="evenodd" d="m27.8614 42.9078c11.3211 9.1567 31.521 12.3416 45.1177 7.1137 6.714-2.5815 10.5625-6.7316 11.3753-11.3742-.6683 4.7925-4.5409 9.096-11.4338 11.7463-13.5967 5.2279-33.7966 2.043-45.1176-7.1137-5.7308-4.6352-8.0879-9.9121-7.2547-14.6714-.6499 4.6611 1.7313 9.7846 7.3131 14.2993zm-3.0531-13.6291c.569-4.1625 3.9261-7.9018 9.9106-10.2028 11.7814-4.5299 29.2843-1.7702 39.0938 6.1639 4.9755 4.0243 7.0162 8.607 6.2817 12.7373.5512-4.0321-1.5136-8.4614-6.3402-12.3652-9.8095-7.9342-27.3124-10.6939-39.0938-6.164-5.8057 2.2323-9.1386 5.8181-9.8521 9.8308z" fill="#ff84b1" fill-opacity=".18" fill-rule="evenodd"/></g></svg>