<svg fill="none" height="262" viewBox="0 0 236 262" width="236" xmlns="http://www.w3.org/2000/svg" xmlns:xlink="http://www.w3.org/1999/xlink"><filter id="a" color-interpolation-filters="sRGB" filterUnits="userSpaceOnUse" height="113.669" width="79.5801" x="66.9377" y="69.4982"><feFlood flood-opacity="0" result="BackgroundImageFix"/><feBlend in="SourceGraphic" in2="BackgroundImageFix" mode="normal" result="shape"/><feGaussianBlur result="effect1_foregroundBlur_6_320" stdDeviation=".943409"/></filter><filter id="b" color-interpolation-filters="sRGB" filterUnits="userSpaceOnUse" height="133.429" width="100.873" x="61.8678" y="60.4186"><feFlood flood-opacity="0" result="BackgroundImageFix"/><feBlend in="SourceGraphic" in2="BackgroundImageFix" mode="normal" result="shape"/><feGaussianBlur result="effect1_foregroundBlur_6_320" stdDeviation=".233997"/></filter><filter id="c" color-interpolation-filters="sRGB" filterUnits="userSpaceOnUse" height="90.4339" width="51.269" x="75.8708" y="77.41"><feFlood flood-opacity="0" result="BackgroundImageFix"/><feBlend in="SourceGraphic" in2="BackgroundImageFix" mode="normal" result="shape"/><feGaussianBlur result="effect1_foregroundBlur_6_320" stdDeviation=".217645"/></filter><linearGradient id="d" gradientUnits="userSpaceOnUse" x1="175.984" x2="93.5928" y1="68.0141" y2="204.563"><stop offset="0" stop-color="#66536e"/><stop offset=".3125" stop-color="#302634"/><stop offset=".588542" stop-color="#c44b53"/><stop offset=".793394" stop-color="#ff656f"/><stop offset=".952475" stop-color="#ff9da3"/><stop offset="1" stop-color="#ff656f"/></linearGradient><linearGradient id="e" gradientUnits="userSpaceOnUse" x1="57.1068" x2="230.114" y1="256.129" y2="118.535"><stop offset="0" stop-color="#fbff5c"/><stop offset=".370478" stop-color="#e35760"/><stop offset=".825209" stop-color="#302634"/></linearGradient><linearGradient id="f"><stop offset="0" stop-color="#302634"/><stop offset="1" stop-color="#302634" stop-opacity="0"/></linearGradient><linearGradient id="g" gradientUnits="userSpaceOnUse" x1="3.6883" x2="-.246343" xlink:href="#f" y1="35.3516" y2="35.3489"/><linearGradient id="h" gradientUnits="userSpaceOnUse" x1="3.6883" x2="-.246342" xlink:href="#f" y1="29.0388" y2="29.0355"/><linearGradient id="i" gradientUnits="userSpaceOnUse" x1="3.6883" x2="-.246343" xlink:href="#f" y1="37.035" y2="37.0324"/><linearGradient id="j" gradientUnits="userSpaceOnUse" x1="122.003" x2="0" y1="61.0016" y2="61.0016"><stop offset="0" stop-color="#302634"/><stop offset=".365" stop-color="#5d3340"/><stop offset="1" stop-color="#302634"/></linearGradient><radialGradient id="k" cx="0" cy="0" gradientTransform="matrix(-50.77865095 -138.32514525 114.84335563 -42.15857253 67.6339 90.9702)" gradientUnits="userSpaceOnUse" r="1"><stop offset="0" stop-color="#e35760"/><stop offset="1" stop-color="#302634"/></radialGradient><radialGradient id="l" cx="0" cy="0" gradientTransform="matrix(-73.80788299 -62.87765283 38.68695644 -45.41203791 82.2834 82.1293)" gradientUnits="userSpaceOnUse" r="1"><stop offset="0" stop-color="#81557e"/><stop offset="1" stop-color="#36293b"/></radialGradient><linearGradient id="m" gradientUnits="userSpaceOnUse" x1="104.921" x2="149.719" y1="112.258" y2="126.087"><stop offset="0" stop-color="#362a39"/><stop offset="1" stop-color="#362a39" stop-opacity="0"/></linearGradient><linearGradient id="n" gradientUnits="userSpaceOnUse" x1="180.477" x2="50.6318" y1="158.975" y2="84.144"><stop offset="0" stop-color="#fbff5c"/><stop offset=".42" stop-color="#e35760"/><stop offset=".86" stop-color="#302634"/></linearGradient><linearGradient id="o"><stop offset="0" stop-color="#36293b"/><stop offset="1" stop-color="#81557e"/></linearGradient><radialGradient id="p" cx="0" cy="0" gradientTransform="matrix(-48.47513087 128.12337748 -134.89772558 -51.03818702 133.106 66.5544)" gradientUnits="userSpaceOnUse" r="1" xlink:href="#o"/><linearGradient id="q" gradientUnits="userSpaceOnUse" x1="77.2897" x2="95.6665" y1="152.01" y2="177.426"><stop offset="0" stop-color="#36293b"/><stop offset="1" stop-color="#8c404b"/></linearGradient><linearGradient id="r"><stop offset=".111577" stop-color="#36293b"/><stop offset=".571564" stop-color="#81557e"/></linearGradient><linearGradient id="s" gradientUnits="userSpaceOnUse" x1="88.6168" x2="103.522" xlink:href="#r" y1="156.792" y2="165.608"/><linearGradient id="t" gradientUnits="userSpaceOnUse" x1="118.082" x2="124.595" y1="130.703" y2="193.364"><stop offset=".111517" stop-color="#302634"/><stop offset=".317679" stop-color="#4f3456"/><stop offset=".794169" stop-color="#e35760"/><stop offset="1" stop-color="#302634"/></linearGradient><linearGradient id="u"><stop offset="0" stop-color="#36293b"/><stop offset=".466525" stop-color="#8c404b"/><stop offset="1" stop-color="#e35760"/></linearGradient><linearGradient id="v" gradientUnits="userSpaceOnUse" x1="98.8617" x2="84.7875" xlink:href="#u" y1="176.017" y2="146.578"/><linearGradient id="w" gradientUnits="userSpaceOnUse" x1="93.8612" x2="101.098" y1="150.239" y2="163.541"><stop offset=".125157" stop-color="#36293b"/><stop offset="1" stop-color="#81557e"/></linearGradient><linearGradient id="x"><stop offset=".111517" stop-color="#302634"/><stop offset=".317679" stop-color="#4f3456"/><stop offset=".636808" stop-color="#e35760"/><stop offset="1" stop-color="#302634"/></linearGradient><linearGradient id="y" gradientUnits="userSpaceOnUse" x1="129.185" x2="136.204" xlink:href="#x" y1="126.624" y2="190.59"/><linearGradient id="z" gradientUnits="userSpaceOnUse" x1="109.379" x2="95.284" xlink:href="#u" y1="172.725" y2="143.234"/><linearGradient id="A" gradientUnits="userSpaceOnUse" x1="150.817" x2="151.786" y1="81.4134" y2="156.853"><stop offset=".111517" stop-color="#302634"/><stop offset=".499269" stop-color="#4f3456"/><stop offset=".757492" stop-color="#e35760"/><stop offset="1" stop-color="#302634"/></linearGradient><linearGradient id="B" gradientUnits="userSpaceOnUse" x1="157.286" x2="184.844" xlink:href="#x" y1="91.838" y2="198.256"/><linearGradient id="C" gradientUnits="userSpaceOnUse" x1="114.223" x2="108.684" xlink:href="#o" y1="79.6478" y2="96.9233"/><linearGradient id="D" gradientUnits="userSpaceOnUse" x1="104.467" x2="114.577" xlink:href="#r" y1="87.2759" y2="93.2555"/><linearGradient id="E" gradientUnits="userSpaceOnUse" x1="104.302" x2="100.65" xlink:href="#o" y1="84.3513" y2="104.796"/><linearGradient id="F" gradientUnits="userSpaceOnUse" x1="88.2749" x2="98.4154" y1="103.44" y2="109.437"><stop offset=".111577" stop-color="#36293b"/><stop offset=".897208" stop-color="#81557e"/></linearGradient><linearGradient id="G" gradientUnits="userSpaceOnUse" x1="84.0651" x2="80.0854" xlink:href="#o" y1="127.543" y2="172.554"/><linearGradient id="H"><stop offset=".105" stop-color="#36293b"/><stop offset="1" stop-color="#e35760"/></linearGradient><linearGradient id="I" gradientUnits="userSpaceOnUse" x1="99.5155" x2="117.727" xlink:href="#H" y1="119.529" y2="155.027"/><linearGradient id="J" gradientUnits="userSpaceOnUse" x1="98.8915" x2="113.419" xlink:href="#r" y1="108.893" y2="117.486"/><linearGradient id="K" gradientUnits="userSpaceOnUse" x1="98.1766" x2="92.232" xlink:href="#o" y1="105.498" y2="127.181"/><linearGradient id="L" gradientUnits="userSpaceOnUse" x1="90.6511" x2="89.1111" xlink:href="#o" y1="105.025" y2="149.27"/><linearGradient id="M" gradientUnits="userSpaceOnUse" x1="105.312" x2="119.474" xlink:href="#H" y1="97.9062" y2="124.677"/><radialGradient id="N" cx="0" cy="0" gradientTransform="matrix(11.79011848 56.23749815 -115.74177658 24.26511319 99.1586 95.2623)" gradientUnits="userSpaceOnUse" r="1"><stop offset="0" stop-color="#81557e"/><stop offset=".205" stop-color="#724c70"/><stop offset=".745" stop-color="#8c404b"/></radialGradient><mask id="O" height="145" maskUnits="userSpaceOnUse" width="112" x="69" y="60"><path d="m126.48 197.077c29.347-16.529 53.428-57.245 53.787-90.942.182-17.0701-5.759-29.0645-15.48-34.5963l-18.358-10.9015-76.8254 128.1828 19.87 11.768c9.4693 5.388 22.5264 4.645 37.0064-3.511z" fill="#b81a24"/></mask><path d="m126.48 197.078c29.347-16.529 53.428-57.245 53.787-90.942.182-17.0702-5.758-29.0646-15.48-34.5963l-18.358-10.9015-76.8253 128.1828 19.87 11.768c9.4694 5.388 22.5263 4.645 37.0063-3.511z" fill="url(#d)"/><path d="m126.48 197.078c29.347-16.529 53.428-57.245 53.787-90.942.182-17.0702-5.758-29.0646-15.48-34.5963l-18.358-10.9015-76.8253 128.1828 19.87 11.768c9.4694 5.388 22.5263 4.645 37.0063-3.511z" fill="url(#e)"/><g fill-opacity=".2" mask="url(#O)"><path d="m0 0h3.48565v73.1986h-3.48565z" fill="url(#g)" transform="matrix(.509071 -.860725 .860418 .509589 72.2043 187.847)"/><g fill="url(#h)"><path d="m0 0h3.48565v60.1274h-3.48565z" transform="matrix(.509071 -.860725 .860418 .509589 87.0007 188.507)"/><path d="m0 0h3.48565v60.1274h-3.48565z" transform="matrix(.509071 -.860725 .860418 .509589 90.5496 182.506)"/><path d="m0 0h3.48565v60.1274h-3.48565z" transform="matrix(.509071 -.860725 .860418 .509589 94.0989 176.506)"/><path d="m0 0h3.48565v60.1274h-3.48565z" transform="matrix(.509071 -.860725 .860418 .509589 97.6482 170.505)"/><path d="m0 0h3.48565v60.1274h-3.48565z" transform="matrix(.509071 -.860725 .860418 .509589 101.198 164.505)"/><path d="m0 0h3.48565v60.1274h-3.48565z" transform="matrix(.509071 -.860725 .860418 .509589 104.746 158.504)"/><path d="m0 0h3.48565v60.1274h-3.48565z" transform="matrix(.509071 -.860725 .860418 .509589 108.295 152.504)"/><path d="m0 0h3.48565v60.1274h-3.48565z" transform="matrix(.509071 -.860725 .860418 .509589 111.844 146.502)"/><path d="m0 0h3.48565v60.1274h-3.48565z" transform="matrix(.509071 -.860725 .860418 .509589 115.393 140.501)"/><path d="m0 0h3.48565v60.1274h-3.48565z" transform="matrix(.509071 -.860725 .860418 .509589 118.942 134.502)"/><path d="m0 0h3.48565v60.1274h-3.48565z" transform="matrix(.509071 -.860725 .860418 .509589 122.492 128.501)"/><path d="m0 0h3.48565v60.1274h-3.48565z" transform="matrix(.509071 -.860725 .860418 .509589 126.04 122.5)"/><path d="m0 0h3.48565v60.1274h-3.48565z" transform="matrix(.509071 -.860725 .860418 .509589 129.589 116.499)"/><path d="m0 0h3.48565v60.1274h-3.48565z" transform="matrix(.509071 -.860725 .860418 .509589 133.137 110.498)"/><path d="m0 0h3.48565v60.1274h-3.48565z" transform="matrix(.509071 -.860725 .860418 .509589 136.687 104.498)"/><path d="m0 0h3.48565v60.1274h-3.48565z" transform="matrix(.509071 -.860725 .860418 .509589 140.237 98.498)"/><path d="m0 0h3.48565v60.1274h-3.48565z" transform="matrix(.509071 -.860725 .860418 .509589 143.785 92.4971)"/><path d="m0 0h3.48565v60.1274h-3.48565z" transform="matrix(.509071 -.860725 .860418 .509589 147.334 86.4961)"/><path d="m0 0h3.48565v60.1274h-3.48565z" transform="matrix(.509071 -.860725 .860418 .509589 150.883 80.4961)"/><path d="m0 0h3.48565v60.1274h-3.48565z" transform="matrix(.509071 -.860725 .860418 .509589 154.432 74.4951)"/></g><path d="m0 0h3.48565v76.6842h-3.48565z" fill="url(#i)" transform="matrix(.509071 -.860725 .860418 .509589 143.737 60.0576)"/></g><circle cx="61.0016" cy="61.0016" fill="url(#j)" r="61.0016" transform="matrix(.871077 -.490615 -.0106594 1.0002 55.8992 93.876)"/><ellipse cx="50.4961" cy="50.5922" fill="url(#k)" rx="50.4961" ry="50.5922" transform="matrix(.871077 -.490615 -.0106594 1.0002 69.3718 101.911)"/><ellipse cx="50.4961" cy="50.5922" fill="url(#l)" rx="50.4961" ry="50.5922" transform="matrix(.871077 -.490615 -.0106594 1.0002 69.3718 101.911)"/><g filter="url(#a)"><path clip-rule="evenodd" d="m144.631 74.6421c-7.83-4.412-18.595-3.7828-30.528 2.9382-24.2927 13.6824-44.2274 47.4297-44.5252 75.3767-.1468 13.775 4.5046 23.57 12.1689 28.323-8.1096-4.57-13.0704-14.548-12.9189-28.767.2979-27.947 20.2325-61.6938 44.5252-75.3762 12.319-6.9383 23.393-7.3846 31.278-2.4947z" fill="#ff9da3" fill-opacity=".22" fill-rule="evenodd"/></g><path d="m107.967 183.059-15.2591-11.308 10.5641-23.598-6.7744-23.6 9.9014-20.637 21.965-21.5576c8.53 5.052 19.115 12.473 27.993 18.8836-9.747 63.823-32.341 67.476-48.39 81.817z" fill="url(#m)" fill-opacity=".5"/><path d="m161.523 95.0334c-.359 33.6976-24.44 74.4136-53.787 90.9426s-52.8462 2.611-52.4871-31.086c.3592-33.697 24.4406-74.4134 53.7871-90.9423 29.347-16.5289 52.846-2.6114 52.487 31.0857zm-99.1795 55.8606c-.3111 29.198 20.0505 41.257 45.4795 26.935 25.428-14.322 46.294-49.602 46.606-78.7997.311-29.1981-20.051-41.2574-45.48-26.9353-25.4281 14.322-46.2943 49.602-46.6055 78.8z" fill="url(#n)"/><path d="m161.523 95.0334c-.359 33.6976-24.44 74.4136-53.787 90.9426s-52.8462 2.611-52.4871-31.086c.3592-33.697 24.4406-74.4134 53.7871-90.9423 29.347-16.5289 52.846-2.6114 52.487 31.0857zm-99.1795 55.8606c-.3111 29.198 20.0505 41.257 45.4795 26.935 25.428-14.322 46.294-49.602 46.606-78.7997.311-29.1981-20.051-41.2574-45.48-26.9353-25.4281 14.322-46.2943 49.602-46.6055 78.8z" fill="url(#p)"/><g filter="url(#b)"><path clip-rule="evenodd" d="m107.732 185.976c29.346-16.529 53.428-57.246 53.787-90.9427.177-16.6214-5.451-28.4303-14.722-34.1467 9.717 5.5342 15.653 17.5263 15.471 34.5911-.359 33.6973-24.44 74.4133-53.787 90.9423-14.8712 8.376-28.2408 8.933-37.7652 3.061 9.4701 5.394 22.5306 4.653 37.0162-3.505zm-31.9366-5.081c-8.449-4.782-13.614-15.185-13.4561-30.001.3111-29.198 21.1773-64.4781 46.6057-78.8001 12.912-7.2721 24.517-7.7427 32.773-2.6217-8.202-4.6424-19.498-3.9886-32.023 3.066-25.4289 14.3221-46.295 49.6018-46.6062 78.7998-.1532 14.373 4.7028 24.593 12.7066 29.557z" fill="#bf89f5" fill-opacity=".28" fill-rule="evenodd"/></g><path d="m76.3087 158.128 7.6274 4.517 5.3648-1.684-.3036-8.522c-.9507.287-1.8173.543-1.8173.543z" fill="url(#q)"/><path d="m98.6584 170.095 2.8676-12.8-2.4823-1.47-5.2773-3.125-2.8446 12.813z" fill="url(#s)"/><path d="m98.6584 170.095 2.8676-12.8-2.4823-1.47-5.2773-3.125-2.8446 12.813z" fill="url(#t)"/><path d="m92.8172 171.927 5.8404-1.832-7.7365-4.582-5.7226 1.902z" fill="url(#v)"/><path d="m93.7653 152.7 5.0625-1.965c.4013.933.9985 2.334 1.5292 3.606l-1.3144 1.484z" fill="url(#w)"/><path d="m109.225 167.012 2.997-13.087-7.878-4.676-2.749 13.244z" fill="url(#y)"/><path d="m103.327 168.629 5.847-1.836-7.631-4.519-5.8515 1.834z" fill="url(#z)"/><path d="m128.508 118.563c3.905-3.367 6.931-8.081 7.946-14.673l.002-.001c.651-4.1994-.149-6.7056-1.934-8.0339l-7.834-4.64-1.471 3.9371-.506 9.6538-4.054 9.107z" fill="url(#A)"/><path d="m112.067 153.88c9.998-3.836 17.618-9.294 21.221-21.849 2.036-7.083 1.416-10.834-.918-12.458l-8.221-4.869-4.721 15.503-6.955 10.406-8.284 8.591z" fill="url(#B)"/><path d="m120.443 77.8395 7.64 4.5245-2.342 10.4551-5.419-.0794-3.276-.9483.166-1.3797z" fill="url(#C)"/><path d="m109.943 81.1481 7.626 4.5164-7.857 10.8164-5.073.5466c.553-2.1412 1.695-6.5402 1.834-7.0066s2.371-6.1095 3.47-8.8728z" fill="url(#D)"/><path d="m109.943 81.1481 7.626 4.5164-7.857 10.8164-5.073.5466c.553-2.1412 1.695-6.5402 1.834-7.0066s2.371-6.1095 3.47-8.8728z" fill="url(#E)"/><path d="m97.0667 104.008-1.8605 8.314-7.6485-4.53 8.0698-4.318z" fill="url(#F)"/><path d="m103.769 147.837 3.839-17.14-7.7508-4.59-4.1774 17.386z" fill="url(#G)"/><path d="m109.042 130.218c-.551.189-1.037.356-1.435.48l-8.1918-4.851 11.5618-5.723 7.308 8.012c-2.909-.09-6.74 1.224-9.241 2.081l-.001.001z" fill="url(#I)"/><path d="m112.846 107.307-7.669-4.543-4.125 17.554 9.088-.928z" fill="url(#J)"/><path d="m112.846 107.307-7.669-4.543-4.125 17.554 9.088-.928z" fill="url(#K)"/><path d="m112.846 107.307-7.669-4.543-4.125 17.554 9.088-.928z" fill="url(#L)"/><path d="m117.826 100.521c.396.234.81 3.415.967 4.977l-5.944 1.811-7.672-4.543 4.709-1.871 4.209-1.5706c1.078.3012 3.335.9616 3.731 1.1966z" fill="url(#M)"/><path clip-rule="evenodd" d="m128.827 99.371c1.398-9.0106-3.888-10.2254-11.238-8.7368l2.864-12.7899-5.849 1.8371-2.789 12.4527c-1.535.4817-3.115 1.0153-4.686 1.5467l2.808-12.5355-5.844 1.834-2.865 12.7869c-1.2737.4318-2.5239.8533-3.7363 1.2348l.0081-.0394-8.0636 2.5276-1.8605 8.3138s4.3423-1.464 4.2469-1.336c2.3681-.742 2.7306.845 2.5994 2.356l-3.2624 14.57c.1632-.05.3743-.108.6059-.14l-.6162.194-4.5742 20.413c-.3262 1.025-1.1186 2.745-2.7742 3.268.0551.065-4.25 1.333-4.25 1.333l-3.2439 9.664 7.6109-2.39c.859-.268 1.7071-.523 2.546-.775h.0007c.5432-.163 1.0825-.325 1.6184-.489l-2.8944 12.937 5.8404-1.832 2.8677-12.8c1.5921-.458 3.1403-.928 4.6559-1.406l-2.8555 12.741 5.8469-1.836 2.894-12.913c9.998-3.837 17.618-9.295 21.221-21.85 2.907-10.113.401-13.433-4.78-13.467 3.905-3.367 6.931-8.081 7.947-14.6729zm-14.376 30.229c-1.985 8.872-12.412 11.963-17.178 13.376-.4268.126-.8082.239-1.1341.342l3.8395-17.139c.3986-.125.8856-.292 1.4366-.481 4.94-1.694 15.065-5.166 13.038 3.901zm-11.756-11.556c3.977-1.167 12.645-3.711 14.452-11.773 1.847-8.2465-6.599-5.32-10.724-3.891-.464.161-.873.303-1.207.408l-3.481 15.544c.276-.087.599-.181.96-.288z" fill="url(#N)" fill-rule="evenodd"/><g filter="url(#c)"><path clip-rule="evenodd" d="m121.703 114.081c-.102.091-.204.182-.308.271 1.283.008 2.402.218 3.316.683-.812-.554-1.827-.856-3.008-.954zm-25.377 49.833 2.7426-12.237c-.2093.066-.4192.132-.6298.197l-2.7427 12.238zm-10.5088 3.297-.6296.198 2.7833-12.44c.2099-.064.4192-.127.6281-.191zm-8.8185-9.303 3.0682-9.14s4.3051-1.268 4.2501-1.333c1.6555-.523 2.448-2.243 2.7741-3.268l4.5742-20.413.6162-.194c-.2315.032-.4427.09-.6059.14l3.2624-14.57c.093-1.071-.062-2.18-1.0034-2.471.4811.476.5588 1.332.4864 2.165l-3.2624 14.57c.1632-.05.3744-.108.6059-.14l-.6162.194-4.5742 20.413c-.3261 1.025-1.1186 2.745-2.7741 3.268.055.065-4.2501 1.333-4.2501 1.333l-3.2438 9.664zm11.2089-50.316 1.7446-7.796 8.0636-2.5275-.0081.0394c1.2125-.3816 2.4623-.8031 3.7363-1.2348l2.865-12.787 5.215-1.6363.112-.5035-5.844 1.834-2.865 12.7869c-1.2737.4318-2.5238.8533-3.7363 1.2348l.0081-.0394-8.0636 2.5276-1.8605 8.3138s.2519-.085.6329-.212zm19.5544-14.1244-.117.5201c1.571-.5315 3.151-1.0651 4.686-1.5468l2.789-12.4527 5.219-1.6392.113-.5037-5.849 1.837-2.789 12.4527c-1.329.417-2.691.8729-4.052 1.3326zm10.438-2.9509-.095.4243c3.501-.7091 6.534-.8047 8.6.2637-1.947-1.3114-4.963-1.3412-8.505-.688zm-20.9279 52.4603c4.7659-1.413 15.1929-4.504 17.1779-13.376l.002-.001c.619-2.771.104-4.371-1.051-5.208 1.507.722 2.273 2.358 1.568 5.514l-.002.001c-1.985 8.872-12.412 11.963-17.1779 13.376-.4269.126-.8083.239-1.1342.342l.1115-.498c.1603-.048.3291-.098.5057-.15zm19.8739-36.705c-1.807 8.062-10.475 10.606-14.452 11.773v.001c-.115.033-.225.066-.332.097l-.111.496c.275-.087.598-.181.96-.288 3.977-1.167 12.645-3.711 14.452-11.773.68-3.036-.035-4.557-1.416-5.197 1.03.768 1.488 2.262.899 4.891z" fill="#fff" fill-opacity=".25" fill-rule="evenodd"/></g></svg>