<svg fill="none" height="51" viewBox="0 0 67 51" width="67" xmlns="http://www.w3.org/2000/svg" xmlns:xlink="http://www.w3.org/1999/xlink"><filter id="a" color-interpolation-filters="sRGB" filterUnits="userSpaceOnUse" height="18.853" width="39.2116" x="13.447" y="20.7176"><feFlood flood-opacity="0" result="BackgroundImageFix"/><feBlend in="SourceGraphic" in2="BackgroundImageFix" mode="normal" result="shape"/><feGaussianBlur result="effect1_foregroundBlur_6_219" stdDeviation="1.34773"/></filter><filter id="b" color-interpolation-filters="sRGB" filterUnits="userSpaceOnUse" height="24.2017" width="41.741" x="12.0139" y="15.0318"><feFlood flood-opacity="0" result="BackgroundImageFix"/><feBlend in="SourceGraphic" in2="BackgroundImageFix" mode="normal" result="shape"/><feGaussianBlur result="effect1_foregroundBlur_6_219" stdDeviation=".233997"/></filter><linearGradient id="c" gradientUnits="userSpaceOnUse" x1="11.5678" x2="54.8981" y1="15.8904" y2="24.3689"><stop offset="0" stop-color="#66536e"/><stop offset=".3125" stop-color="#302634"/><stop offset=".58" stop-color="#8c404b"/><stop offset=".793394" stop-color="#8c404b"/><stop offset=".952475" stop-color="#7a5178"/><stop offset="1" stop-color="#332837"/></linearGradient><linearGradient id="d"><stop offset="0" stop-color="#302634"/><stop offset="1" stop-color="#302634" stop-opacity="0"/></linearGradient><linearGradient id="e" gradientUnits="userSpaceOnUse" x1="1.02148" x2="-.068225" xlink:href="#d" y1="9.79034" y2="9.78959"/><linearGradient id="f" gradientUnits="userSpaceOnUse" x1="1.02147" x2="-.068224" xlink:href="#d" y1="8.04205" y2="8.04113"/><linearGradient id="g" gradientUnits="userSpaceOnUse" x1="1.02148" x2="-.068225" xlink:href="#d" y1="10.2566" y2="10.2558"/><linearGradient id="h"><stop offset="0" stop-color="#81557e"/><stop offset="1" stop-color="#36293b"/></linearGradient><radialGradient id="i" cx="0" cy="0" gradientTransform="matrix(-15.06265869 28.07526523 -48.3622388 -25.94682153 24.5932 4.50089)" gradientUnits="userSpaceOnUse" r="1" xlink:href="#h"/><radialGradient id="j" cx="0" cy="0" gradientTransform="matrix(-20.4336967 -17.40766481 10.71049357 -12.57233405 22.7802 22.7375)" gradientUnits="userSpaceOnUse" r="1" xlink:href="#h"/><linearGradient id="k"><stop offset="0" stop-color="#e35760"/><stop offset="1" stop-color="#302634"/></linearGradient><radialGradient id="l" cx="0" cy="0" gradientTransform="matrix(3.59619779 38.91870375 -35.95811605 3.32263115 28.3562 -8.49791)" gradientUnits="userSpaceOnUse" r="1" xlink:href="#k"/><radialGradient id="m" cx="0" cy="0" gradientTransform="matrix(11.66822959 51.29698267 -46.52975553 10.58385585 28.0008 -6.58278)" gradientUnits="userSpaceOnUse" r="1" xlink:href="#k"/><radialGradient id="n" cx="0" cy="0" gradientTransform="matrix(37.92142395 .45885843 -.48313579 39.92777708 15.2539 27.1827)" gradientUnits="userSpaceOnUse" r="1"><stop offset="0" stop-color="#36293b"/><stop offset="1" stop-color="#81557e"/></radialGradient><mask id="o" height="24" maskUnits="userSpaceOnUse" width="43" x="12" y="9"><path d="m49.8285 16.526c-7.0825-6.0658-19.9564-8.4685-28.7548-5.3667-4.4571 1.5713-7.0133 4.2538-7.53 7.307l-1.0943 5.8085 40.6258 7.8276 1.1763-6.284c.5032-2.9739-.9284-6.2994-4.423-9.2924z" fill="#b81a24"/></mask><path d="m49.8316 16.5279c-7.0824-6.0659-19.9564-8.46863-28.7548-5.3666-4.4571 1.5714-7.0133 4.254-7.5301 7.3073l-1.0942 5.8087 40.6258 7.8276 1.1762-6.2843c.5033-2.9739-.9283-6.2996-4.4229-9.2927z" fill="url(#c)"/><g fill-opacity=".2" mask="url(#o)"><path d="m0 0h.965354v20.2718h-.965354z" fill="url(#e)" transform="matrix(-.983027 -.18346 .183988 -.982929 52.5747 31.5205)"/><g fill="url(#f)"><path d="m0 0h.96535v16.6518h-.96535z" transform="matrix(-.983027 -.183459 .18399 -.982928 51.3437 27.6084)"/><path d="m0 0h.96535v16.6518h-.96535z" transform="matrix(-.983027 -.183459 .18399 -.982928 49.4468 27.2549)"/><path d="m0 0h.96535v16.6518h-.96535z" transform="matrix(-.983027 -.183459 .18399 -.982928 47.5488 26.9004)"/><path d="m0 0h.96535v16.6518h-.96535z" transform="matrix(-.983027 -.183459 .18399 -.982928 45.6514 26.5459)"/><path d="m0 0h.96535v16.6518h-.96535z" transform="matrix(-.983027 -.183459 .18399 -.982928 43.7539 26.1924)"/><path d="m0 0h.96535v16.6518h-.96535z" transform="matrix(-.983027 -.183459 .18399 -.982928 41.8574 25.8369)"/><path d="m0 0h.96535v16.6518h-.96535z" transform="matrix(-.983027 -.183459 .18399 -.982928 39.9595 25.4844)"/><path d="m0 0h.96535v16.6518h-.96535z" transform="matrix(-.983027 -.183459 .18399 -.982928 38.0615 25.1299)"/><path d="m0 0h.96535v16.6518h-.96535z" transform="matrix(-.983027 -.183459 .18399 -.982928 36.165 24.7754)"/><path d="m0 0h.96535v16.6518h-.96535z" transform="matrix(-.983027 -.183459 .18399 -.982928 34.2676 24.4209)"/><path d="m0 0h.96535v16.6518h-.96535z" transform="matrix(-.983027 -.183459 .18399 -.982928 32.3701 24.0664)"/><path d="m0 0h.96535v16.6518h-.96535z" transform="matrix(-.983027 -.183459 .18399 -.982928 30.4727 23.7129)"/><path d="m0 0h.96535v16.6518h-.96535z" transform="matrix(-.983027 -.183459 .18399 -.982928 28.5762 23.3594)"/><path d="m0 0h.96535v16.6518h-.96535z" transform="matrix(-.983027 -.183459 .18399 -.982928 26.6777 23.0049)"/><path d="m0 0h.96535v16.6518h-.96535z" transform="matrix(-.983027 -.183459 .18399 -.982928 24.7812 22.6514)"/><path d="m0 0h.96535v16.6518h-.96535z" transform="matrix(-.983027 -.183459 .18399 -.982928 22.8833 22.2969)"/><path d="m0 0h.96535v16.6518h-.96535z" transform="matrix(-.983027 -.183459 .18399 -.982928 20.9858 21.9424)"/><path d="m0 0h.96535v16.6518h-.96535z" transform="matrix(-.983027 -.183459 .18399 -.982928 19.0894 21.5889)"/><path d="m0 0h.96535v16.6518h-.96535z" transform="matrix(-.983027 -.183459 .18399 -.982928 17.1919 21.2344)"/><path d="m0 0h.96535v16.6518h-.96535z" transform="matrix(-.983027 -.183459 .18399 -.982928 15.2944 20.8809)"/></g><path d="m0 0h.965355v21.2371h-.965355z" fill="url(#g)" transform="matrix(-.983027 -.18346 .183988 -.982929 12.5532 25.0332)"/></g><ellipse cx="16.8883" cy="16.8883" fill="url(#i)" rx="16.8883" ry="16.8883" transform="matrix(-.759335 -.650352 .943316 -.332578 29.6826 44.6738)"/><ellipse cx="13.9798" cy="14.0064" fill="url(#j)" rx="13.9798" ry="14.0064" transform="matrix(-.759335 -.650352 .943316 -.332578 30.4946 40.4072)"/><g clip-rule="evenodd" fill-rule="evenodd"><path d="m27.2586 25.5479.9931 3.5784-3.0688 1.9685-.5376-.9678-1.5709-5.6604 9.8072-2.7218.5677.7881.0101 1.294zm-1.6275 8.1315.5721.9708 3.034-1.9717.1298-.5025-.7077-1.5796-3.6062 1.0008zm11.7731-5.5097-6.1978 1.7202.2864 1.0416.9077 2.0284.0996-.3857 9.0882-3.3232-.9104-4.4386-.6607-1.2236-.0003-.0011-3.606 1.002zm-1.5411-5.4245.6918 1.2871 3.0553-1.9119.0362-1.2777-.6141-.8044-3.6062 1.0008zm-5.6559 3.5647 3.6593-1.0155.0019-.0006.0004.0011.6118 1.2078-.0254.905-3.186 1.9683-.6291-1.5047z" fill="#fff"/><path d="m27.2586 25.5479.9931 3.5784-3.0688 1.9685-.5376-.9678-1.5709-5.6604 9.8072-2.7218.5677.7881.0101 1.294zm-1.6275 8.1315.5721.9708 3.034-1.9717.1298-.5025-.7077-1.5796-3.6062 1.0008zm11.7731-5.5097-6.1978 1.7202.2864 1.0416.9077 2.0284.0996-.3857 9.0882-3.3232-.9104-4.4386-.6607-1.2236-.0003-.0011-3.606 1.002zm-1.5411-5.4245.6918 1.2871 3.0553-1.9119.0362-1.2777-.6141-.8044-3.6062 1.0008zm-5.6559 3.5647 3.6593-1.0155.0019-.0006.0004.0011.6118 1.2078-.0254.905-3.186 1.9683-.6291-1.5047z" fill="url(#l)"/><path d="m27.8302 26.5193.9931 3.5783-3.6063 1.0008-1.5709-5.6604 9.8071-2.7218.5779 2.0821zm-2.2055 6.0493.5782 2.0822 3.6059-1.0008-.5779-2.0822zm6.1534-1.7073-.0001-.0003zm0 0 .5728 2.0833.005-.0013 9.8041-2.7209-1.5711-5.6622-.0004-.0011-3.606 1.002.9934 3.58zm4.2197-8.8508.5778 2.0822 3.6063-1.0009-.5779-2.0821zm-1.5593 4.2556-.0006.0005.0025-.0011.0004.0011.5863 2.1127-3.6565 1.0146-.0052.0014-.0007-.0029-.1028-.37-.0498-.1794-.4329-1.5614z" fill="#fff"/><path d="m27.8302 26.5193.9931 3.5783-3.6063 1.0008-1.5709-5.6604 9.8071-2.7218.5779 2.0821zm-2.2055 6.0493.5782 2.0822 3.6059-1.0008-.5779-2.0822zm6.1534-1.7073-.0001-.0003zm0 0 .5728 2.0833.005-.0013 9.8041-2.7209-1.5711-5.6622-.0004-.0011-3.606 1.002.9934 3.58zm4.2197-8.8508.5778 2.0822 3.6063-1.0009-.5779-2.0821zm-1.5593 4.2556-.0006.0005.0025-.0011.0004.0011.5863 2.1127-3.6565 1.0146-.0052.0014-.0007-.0029-.1028-.37-.0498-.1794-.4329-1.5614z" fill="url(#m)"/></g><g filter="url(#a)"><path clip-rule="evenodd" d="m16.2646 23.4131c-.4066 2.4558.7778 5.1975 3.659 7.6652 5.8628 5.0212 16.5309 7.0062 23.8279 4.4336 3.5949-1.2674 5.701-3.4044 6.2117-5.8471-.4209 2.5412-2.5453 4.7761-6.2561 6.0844-7.2971 2.5726-17.9652.5876-23.8279-4.4336-2.9744-2.5475-4.1405-5.387-3.6146-7.9025z" fill="#ff93ba" fill-opacity=".22" fill-rule="evenodd"/></g><path d="m19.9659 17.0905c8.7984-3.102 21.6724-.6993 28.7548 5.3667 7.0824 6.0659 5.6913 13.498-3.1071 16.6s-21.6724.6992-28.7548-5.3667c-7.08246-6.0659-5.6914-13.498 3.1071-16.6zm23.9355 20.5002c7.6237-2.6878 8.8291-9.1276 2.6923-14.3836-6.1368-5.2561-17.2919-7.338-24.9156-4.6502-7.6238 2.6879-8.8291 9.1277-2.6923 14.3837s17.2919 7.338 24.9156 4.6501z" fill="url(#n)"/><g filter="url(#b)"><path clip-rule="evenodd" d="m48.7217 22.4582c-7.0825-6.0657-19.9565-8.4685-28.7549-5.3667-4.3398 1.53-6.8774 4.1134-7.4849 7.0668.5182-3.0516 3.0741-5.7325 7.5293-7.3032 8.7984-3.1018 21.6724-.6991 28.7548 5.3667 3.5891 3.0738 5.0021 6.4984 4.378 9.5326.5051-2.9748-.9262-6.3019-4.4223-9.2962zm1.7075 8.7891c-.4429 2.6507-2.6586 4.9802-6.5267 6.3439-7.6237 2.6877-18.7788.6057-24.9157-4.6502-3.116-2.6687-4.3391-5.6426-3.7901-8.2756-.43 2.5737.8114 5.4501 3.8345 8.0392 6.1369 5.2559 17.292 7.3379 24.9156 4.6502 3.7527-1.323 5.9502-3.5551 6.4824-6.1075z" fill="#ff84b1" fill-opacity=".18" fill-rule="evenodd"/></g></svg>