<svg fill="none" height="38" viewBox="0 0 333 38" width="333" xmlns="http://www.w3.org/2000/svg"
     xmlns:xlink="http://www.w3.org/1999/xlink">
    <linearGradient id="a">
        <stop offset=".14" stop-color="#7a7a7a"/>
        <stop offset=".21" stop-color="#7a7a7a"/>
        <stop offset=".34" stop-color="#7a7a7a"/>
        <stop offset=".48" stop-color="#7a7a7a"/>
        <stop offset=".62" stop-color="#7a7a7a"/>
        <stop offset=".79" stop-color="#7a7a7a"/>
        <stop offset="1" stop-color="#7a7a7a"/>
    </linearGradient>
    <linearGradient id="b" gradientUnits="userSpaceOnUse" x1="37.142" x2="11.8836" xlink:href="#a" y1="22.6215"
                    y2="15.8142"/>
    <linearGradient id="c" gradientUnits="userSpaceOnUse" x1="27.8178" x2="-7.88678" y1="44.1893" y2="-5.60786">
        <stop offset="0" stop-color="#7a7a7a"/>
        <stop offset=".08" stop-color="#7a7a7a"/>
        <stop offset=".23" stop-color="#7a7a7a"/>
        <stop offset=".39" stop-color="#7a7a7a"/>
        <stop offset=".56" stop-color="#7a7a7a"/>
        <stop offset=".75" stop-color="#7a7a7a"/>
        <stop offset="1" stop-color="#7a7a7a"/>
    </linearGradient>
    <linearGradient id="d" gradientUnits="userSpaceOnUse" x1="18.964" x2="35.9223" y1="36.6531" y2="15.1572">
        <stop offset=".15" stop-color="#7a7a7a"/>
        <stop offset=".22" stop-color="#7a7a7a"/>
        <stop offset=".35" stop-color="#7a7a7a"/>
        <stop offset=".48" stop-color="#7a7a7a"/>
        <stop offset=".63" stop-color="#7a7a7a"/>
        <stop offset=".79" stop-color="#7a7a7a"/>
        <stop offset="1" stop-color="#7a7a7a"/>
    </linearGradient>
    <linearGradient id="e" gradientUnits="userSpaceOnUse" x1="3.71453" x2="18.0451" y1="20.5067" y2="6.89216">
        <stop offset=".14" stop-color="#7a7a7a"/>
        <stop offset=".53" stop-color="#352e91"/>
        <stop offset="1" stop-color="#7a7a7a"/>
    </linearGradient>
    <linearGradient id="f" gradientUnits="userSpaceOnUse" x1="3918.06" x2="3892.38" xlink:href="#a" y1="2113.07"
                    y2="2546.01"/>
    <linearGradient id="g" gradientUnits="userSpaceOnUse" x1="333" x2="307.164" y1="7" y2="99.647">
        <stop offset="0" stop-color="#7a7a7a"/>
        <stop offset="1" stop-color="#7a7a7a"/>
    </linearGradient>
    <path d="m30.4528 15.1794c2.314 3.089-4.4619 9.0585-2.9395 6.5932h-14.4358c-1.5186-1.9417-2.5944-4.192-3.15172-6.5932z"
          fill="url(#b)"/>
    <path d="m26.2696 32.9754c-2.0514 1.6358-4.2693 3.051-6.6172 4.2221l-1.1496.5757-1.157-.5757c-10.85959-5.4474-17.3458-14.8344-17.3458-25.1219v-12.0756h6.62461v12.0756c-.00074.7704.05228 1.5399.15869 2.3029.83407 6.25 5.0543 12.0147 11.6899 15.8972.0065.0062.014.0112.0222.0148l.0166-.0111.0277-.0166c2.4015 1.342 5.0165 2.2596 7.7299 2.7126z"
          fill="url(#c)"/>
    <path d="m36.7933 15.1794c-.306 2.3902-.9619 4.7224-1.9468 6.9217-1.8158 4.0818-4.7332 7.7945-8.577 10.8872-2.7102-.454-5.322-1.3716-7.7207-2.7126.8684-.5105 1.7104-1.0648 2.5225-1.6607.0811-.0524.1594-.1091.2344-.1698 4.4857-3.2327 7.7169-7.9156 9.1471-13.2566z"
          fill="url(#d)"/>
    <path d="m37 0h-30.36621v6.62091h30.36621z" fill="url(#e)"/>
    <path d="m36.9981 6.61908v5.45652c0 .2251 0 .4521-.0129.6772h-6.6283c0-.2251.0111-.4521.0111-.6772v-5.45652z"
          fill="url(#f)"/>
    <path d="m84.0414 17.7647c0 2.4446-.2679 4.4405-.8037 5.9878-.7243 2.222-2.1507 4.1317-4.0524 5.4257-1.9261 1.2459-4.1681 1.8784-6.4434 1.8178-4.0367 0-7.1335-1.4108-9.2903-4.2323-1.6476-2.189-2.5121-4.8936-2.4483-7.6599 0-3.2864.9557-6.049 2.8671-8.2878 2.1681-2.54398 5.1961-3.816 9.0842-3.816 2.5958 0 4.7966.68459 6.6021 2.05374 1.2878.96676 2.3876 2.39946 3.2994 4.29826l-5.4033 2.3c-.3595-.9034-.9111-1.7129-1.6142-2.3694-.8867-.7473-2.0041-1.1447-3.1508-1.1205-2.4877 0-4.2213 1.3148-5.2006 3.9444-.3655.957-.5522 1.9762-.5505 3.0043-.0298.9862.1305 1.9687.4719 2.891.3414.9222.857 1.766 1.5172 2.4827.9816 1.0684 2.2908 1.6015 3.9275 1.5992 1.4521 0 2.6037-.4336 3.4547-1.3009.6217-.7026 1.0075-1.5914 1.1009-2.5359h-4.7042v-4.4822zm29.4006 2.9766c.014 1.1657-.099 2.3293-.338 3.4691-.37 1.5772-1.195 3.0027-2.367 4.0901-1.783 1.7323-4.167 2.5984-7.153 2.5984-3.037 0-5.4085-.8823-7.1151-2.647-.922-.9634-1.5641-2.1721-1.854-3.4899-.2673-1.3161-.3862-2.6594-.3545-4.0034v-13.03701h5.7173v12.21481c0 .9829.0169 1.7149.0503 2.196.104 1.5333.779 2.603 2.027 3.2089.534.2569 1.118.3862 1.708.3782 1.394 0 2.445-.5008 3.154-1.5022.527-.7377.791-2.1647.791-4.2809v-12.21481h5.717zm30.11 9.5609h-6.106l-1.415-3.9375h-7.892l-1.513 3.9375h-6.038l8.442-22.58061h6.244zm-9.068-8.4023-2.364-7.1984-2.401 7.1984zm36.472 8.4023h-7.092l-5.46-8.6728v8.6728h-5.731v-22.58061h8.892c2.598 0 4.519.79907 5.764 2.39721 1.008 1.288 1.544 2.899 1.513 4.5515 0 1.9959-.579 3.5894-1.739 4.7804-.85.8202-1.912 1.3718-3.06 1.5889zm-8.037-15.3093c.006-.3813-.067-.7595-.214-1.1095s-.366-.6637-.64-.92c-.541-.518-1.409-.7759-2.604-.7736h-1.067v5.6235h1.067c1.209 0 2.073-.2602 2.604-.7771.274-.2597.491-.576.638-.9281.146-.3522.219-.7322.213-1.1152zm36.306 4.0103c-.031 2.3369-.751 4.609-2.066 6.5166-1.314 1.9076-3.161 3.361-5.296 4.1684-1.117.403-2.293.6094-3.478.6105h-8.442v-22.57711h8.442c2.042-.00813 4.041.60774 5.741 1.76927 1.707 1.12674 3.081 2.71304 3.972 4.58614.738 1.5315 1.124 3.217 1.127 4.9262zm-5.926 0c.028-1.468-.421-2.9038-1.277-4.0797-1.125-1.538-2.814-2.3058-5.065-2.3035h-1.307v12.7872h1.307c2.251 0 3.94-.7689 5.065-2.3069.853-1.184 1.299-2.6247 1.27-4.0971zm34.408 11.299h-6.102l-1.418-3.9375h-7.892l-1.513 3.9375h-6.039l8.443-22.58061h6.244zm-9.067-8.4023-2.364-7.1984-2.384 7.1984zm36.472 8.4023h-7.112l-5.457-8.6728v8.6728h-5.711v-22.58061h8.888c2.599 0 4.52.79907 5.765 2.39721 1.008 1.288 1.544 2.899 1.513 4.5515 0 1.9959-.58 3.5894-1.739 4.7804-.851.8202-1.913 1.3718-3.06 1.5889zm-8.034-15.3093c.006-.3815-.068-.7599-.216-1.1098-.148-.35-.366-.6635-.642-.9197-.54-.5169-1.405-.7736-2.6-.7736h-1.067v5.6235h1.057c1.207 0 2.073-.259 2.6-.7771.276-.2586.496-.5744.645-.9265.149-.3522.224-.7328.22-1.1168zm22.748 15.3093h-5.721v-22.58061h5.717zm32.102 0h-6.106l-1.418-3.9375h-7.889l-1.513 3.9375h-6.041l8.442-22.58061h6.231zm-9.064-8.4023-2.364-7.1984-2.401 7.1984zm40.136 8.4023h-5.717l-10.516-13.828v13.828h-5.718v-22.58061h5.718l10.516 13.81411v-13.81411h5.717z"
          fill="url(#g)"/>
</svg>