<svg width="185"
     height="49"
     viewBox="0 0 185 49"
     fill="none"
     xmlns="http://www.w3.org/2000/svg"
>
    <path
        d="M25.6973 38.3635C26.2943 36.5834 26.7828 35.2591 27.1627 33.8696C27.4015 32.871 27.89 31.525 26.7394 30.9063C25.5888 30.2875 24.1233 29.6145 22.6471 30.255C22.1586 30.4612 21.7461 30.9171 21.236 31.0474C19.3906 31.5141 16.894 32.1871 15.8085 30.9063C15.2148 30.0442 14.8969 29.0222 14.8969 27.9755C14.8969 26.9287 15.2148 25.9067 15.8085 25.0446C17.1654 23.1125 16.4924 21.3974 15.6674 20.0406C14.723 18.4883 12.8886 19.5304 11.4557 19.8777C10.5114 20.0948 9.62127 20.5073 7.99304 21.0826C10.4571 16.9144 11.5317 12.4747 16.8615 11.9863C19.2387 11.7692 20.8669 10.4015 22.4843 8.64296C27.2604 3.45434 33.719 1.67415 40.3839 0.458407C40.6553 0.458407 40.9267 0.458407 41.198 0.393278C46.9945 -0.258013 47.1031 -0.236303 46.1913 5.39737C44.9538 13.1043 42.8371 20.453 36.3025 25.5874C35.9074 25.8952 35.5829 26.2841 35.3507 26.7278C35.1185 27.1716 34.9841 27.6599 34.9565 28.16C34.7502 33.8479 30.7665 36.1926 25.6973 38.3635ZM18.0989 14.027C15.5155 13.9076 13.3445 14.4395 12.5738 17.2834C15.7108 18.1301 17.3933 16.8384 18.0663 13.951L18.1315 13.875L18.0989 14.027ZM20.0202 26.2278L20.4218 26.6403C20.1722 27.6715 18.837 28.1274 18.9239 29.3649C19.2973 29.555 19.7243 29.6123 20.1346 29.5275C20.545 29.4427 20.9143 29.2207 21.1817 28.8981C23.1723 26.833 24.9038 24.5329 26.3377 22.0487C26.62 21.5168 26.9673 20.8113 26.4789 20.2902C25.9904 19.7692 25.0894 19.9971 24.4816 20.2902C22.0108 21.7542 19.7256 23.5109 17.6756 25.5223C17.3444 25.8187 17.1321 26.2254 17.0782 26.6666C17.0243 27.1079 17.1324 27.5537 17.3825 27.9212L20.0202 26.2278ZM18.0989 19.9103C18.0989 20.3119 17.871 21.2346 18.4788 21.6471C19.3798 22.2441 19.9768 21.2563 20.4978 20.757C22.5711 18.8031 25.1329 18.0758 27.814 17.5005C29.1274 17.2183 29.4531 17.5005 29.1274 18.8248C28.5738 20.9958 28.2591 23.1668 26.7719 25.0881C26.0664 25.9782 24.2753 26.9008 25.2197 28.0949C26.1641 29.2889 27.9225 28.6159 29.2686 28.0949C30.0146 27.7552 30.7396 27.371 31.4395 26.9442C38.8208 22.7217 42.3921 16.0243 43.9986 7.94825C45.2795 1.43534 45.3663 1.43534 38.9077 2.68365C30.506 4.2359 23.7109 8.11108 19.4341 15.8506C18.6163 17.0514 18.1535 18.4585 18.0989 19.9103ZM29.3228 34.1519C32.0148 33.2292 32.7421 31.3622 32.677 28.8656C29.084 29.1152 29.0949 31.4164 29.3228 34.1519Z"
        fill="#7A7A7A"
    />
    <path
        d="M133.519 25.4354C128.395 28.5399 124.639 28.4748 121.98 25.2183C120.78 23.837 120.142 22.0556 120.192 20.2265C120.242 18.3974 120.977 16.6538 122.251 15.3404C125.008 12.3228 129.046 12.3336 133.529 15.4598C134.029 14.776 133.193 13.0718 135.038 13.3431C136.884 13.6145 136.004 14.8519 136.026 15.6552C136.113 19.0853 136.026 22.5263 136.026 25.9565C136.026 31.0365 133.627 33.6634 128.536 33.9239C126.373 34.06 124.216 33.5901 122.305 32.5671C121.665 32.2197 120.938 31.97 121.459 30.9714C121.98 29.9728 122.468 30.2333 123.196 30.6458C124.706 31.4677 126.404 31.8829 128.124 31.8506C132.075 31.8506 134.029 29.5277 133.519 25.4354ZM122.664 20.2577C122.641 20.9765 122.766 21.6924 123.031 22.3611C123.296 23.0298 123.694 23.6372 124.203 24.1457C124.712 24.6543 125.319 25.0532 125.988 25.318C126.656 25.5828 127.372 25.7077 128.091 25.6851C129.542 25.7234 130.95 25.1892 132.01 24.198C133.07 23.2068 133.698 21.8381 133.757 20.3879C133.743 19.6667 133.586 18.9554 133.294 18.2958C133.002 17.6361 132.581 17.0413 132.057 16.5461C131.532 16.0508 130.914 15.6651 130.239 15.4115C129.564 15.1579 128.845 15.0415 128.124 15.069C127.425 15.0413 126.727 15.1549 126.073 15.4031C125.419 15.6512 124.822 16.0288 124.317 16.5133C123.812 16.9977 123.41 17.5791 123.136 18.2225C122.861 18.8658 122.719 19.5581 122.718 20.2577H122.664Z"
        fill="#7A7A7A"
    />
    <path
        d="M71.8414 7.11243V14.9713C72.84 15.3513 73.0789 14.4177 73.5999 14.0812C74.4827 13.426 75.5277 13.0243 76.6221 12.9196C77.7165 12.8149 78.8188 13.0111 79.8098 13.4871C80.8008 13.9631 81.643 14.7007 82.2455 15.6203C82.8479 16.54 83.1877 17.6067 83.2281 18.7054C83.4127 21.6688 83.2281 24.6647 83.2281 27.6498C83.2281 28.3879 83.2281 29.0826 82.1427 29.1261C81.0572 29.1695 80.7966 28.5399 80.8075 27.6064C80.8075 25.0772 80.8075 22.548 80.8075 20.008C80.7207 16.8709 79.1576 15.145 76.5307 15.1559C73.9038 15.1667 71.95 17.0989 71.874 20.084C71.874 22.4286 71.874 24.7733 71.874 27.1288C71.874 27.8995 72.3624 29.0501 70.7885 29.1044C69.2145 29.1586 69.5185 27.8995 69.5185 27.0202C69.5185 21.2346 69.5185 15.4598 69.5185 9.65246C69.4208 8.0568 70.1372 7.42722 71.8414 7.11243Z"
        fill="#7A7A7A"
    />
    <path
        d="M97.1223 27.1831C96.2324 28.0531 95.1424 28.6913 93.9481 29.0414C92.7538 29.3916 91.4917 29.443 90.2729 29.1912C87.9282 28.7679 86.2674 27.4653 85.9309 25.0012C85.5944 22.5372 86.9296 20.6593 89.3394 19.8235C91.4113 19.1273 93.6422 19.0556 95.7546 19.6172C97.6868 20.0731 97.5456 19.183 97.1332 17.9781C96.3407 15.6769 94.4086 15.2536 92.3245 15.3296C91.2494 15.4197 90.1869 15.6234 89.1548 15.9374C88.4927 16.1111 87.9174 16.2631 87.6243 15.4164C87.3312 14.5697 87.7111 14.3309 88.3624 13.951C94.007 10.8357 99.6515 14.0813 99.6515 20.4639C99.6515 22.6349 99.6515 24.8058 99.6515 26.9768C99.6515 27.7367 100.227 28.8438 98.7397 29.1478C97.2526 29.4517 97.4914 28.0949 97.1223 27.1831ZM93.0626 21.1586C90.186 21.1586 88.2539 22.5697 88.2647 24.4151C88.2756 26.2604 90.1209 27.5087 92.3136 27.5087C95.2661 27.5087 97.6542 25.4788 97.3503 23.0799C96.9595 20.0514 94.1698 22.2332 93.0626 21.1586Z"
        fill="#7A7A7A"
    />
    <path
        d="M147.782 22.1465C146.61 22.1465 145.426 22.1465 144.254 22.1465C143.494 22.1465 142.441 21.7014 142.007 22.483C141.464 23.4707 142.279 24.3608 142.865 25.1424C144.656 27.563 147.901 27.9864 150.854 26.1736C151.614 25.7069 152.341 24.8493 153.025 26.0434C153.709 27.2374 152.515 27.4328 151.939 27.8453C150.49 28.8566 148.757 29.3825 146.99 29.3474C145.223 29.3123 143.513 28.718 142.105 27.6499C140.623 26.3681 139.627 24.6153 139.285 22.686C138.943 20.7568 139.276 18.7686 140.227 17.0555C140.985 15.4948 142.28 14.2595 143.875 13.5758C145.47 12.892 147.258 12.8056 148.911 13.3323C151.809 14.0704 154.534 18.2061 154.121 21.0827C153.969 22.1682 153.35 22.1682 152.601 22.1682L147.782 22.1465ZM146.751 15.0474C145.697 15.082 144.679 15.4431 143.839 16.0809C142.999 16.7187 142.378 17.6017 142.061 18.6078C141.616 19.6933 141.801 20.3337 143.147 20.3011C145.036 20.3011 146.935 20.3663 148.813 20.3011C149.725 20.3011 151.038 20.9307 151.483 19.8018C151.928 18.6729 151.028 17.7502 150.398 16.8819C149.987 16.3005 149.439 15.8291 148.803 15.5092C148.167 15.1893 147.462 15.0307 146.751 15.0474Z"
        fill="#7A7A7A"
    />
    <path
        d="M103.624 21.0935C103.624 19.0202 103.624 16.9361 103.624 14.8628C103.624 14.2658 103.451 13.4734 104.384 13.4083C105.025 13.4083 105.936 13.05 106.012 14.2224C106.121 15.894 106.816 14.8628 107.293 14.472C108.264 13.644 109.466 13.1352 110.737 13.0148C112.007 12.8944 113.283 13.1682 114.392 13.799C116.77 14.9714 117.399 17.24 117.399 19.7258C117.399 22.2115 117.399 24.9687 117.399 27.5955C117.399 28.5182 117.258 29.1695 116.086 29.1152C114.913 29.0609 115 28.4422 115 27.6607C115 25.1315 115 22.6023 115 20.0623C114.924 16.8927 113.405 15.1776 110.767 15.1559C108.129 15.1342 106.164 17.0772 106.088 20.0514C106.023 22.4829 106.088 24.9253 106.088 27.3676C106.088 28.1166 106.349 29.0501 105.003 29.1044C103.657 29.1586 103.668 28.236 103.668 27.3242L103.624 21.0935Z"
        fill="#7A7A7A"
    />
    <path
        d="M168.862 13.6471C170.729 12.9958 171.511 13.6471 172.118 15.0257C173.616 18.6729 175.245 22.255 177.036 26.3473C178.501 22.5264 179.782 19.1722 181.074 15.8181C181.305 15.1355 181.596 14.4745 181.942 13.8425C182.42 13.0718 183.288 13.2455 183.907 13.4734C184.525 13.7014 184.146 14.3635 183.961 14.8194C181.79 20.0949 179.782 25.4029 177.502 30.6024C177.282 31.2511 176.933 31.8488 176.476 32.3597C176.019 32.8706 175.465 33.2842 174.845 33.576C174.225 33.8678 173.552 34.0316 172.867 34.0579C172.183 34.0841 171.5 33.9721 170.859 33.7286C170.338 33.5549 169.426 33.62 169.698 32.6431C169.882 31.9484 170.121 31.4708 171.174 31.5576C175.364 31.9267 176.46 30.2984 174.745 26.5427C172.791 22.2767 170.848 18.0216 168.862 13.6471Z"
        fill="#7A7A7A"
    />
    <path
        d="M60.433 29.354C58.7182 29.3693 57.0459 28.821 55.6731 27.7934C54.3003 26.7657 53.303 25.3157 52.8346 23.6661C52.3387 22.065 52.3377 20.3516 52.8315 18.7499C53.3254 17.1483 54.2912 15.733 55.6026 14.6891C56.9386 13.682 58.5499 13.1061 60.2217 13.0382C61.8934 12.9703 63.5461 13.4137 64.9594 14.3092C65.6216 14.7651 67.1304 15.0256 66.186 16.4259C65.2417 17.8262 64.5578 16.5887 63.8197 16.1545C62.7637 15.4571 61.5094 15.1222 60.2464 15.2006C58.9833 15.2789 57.78 15.7662 56.8183 16.5887C55.8415 17.5933 55.2098 18.8828 55.0147 20.2703C54.8195 21.6578 55.071 23.0715 55.7328 24.3065C56.3288 25.4316 57.2944 26.3169 58.4669 26.8132C59.6394 27.3095 60.9471 27.3864 62.1697 27.0311C63.0442 26.8102 63.8476 26.3693 64.5035 25.7502C65.2091 25.1315 65.7301 25.1315 66.3163 25.8154C67.0978 26.7055 66.3163 27.0854 65.7627 27.5196C64.2969 28.8089 62.3818 29.4681 60.433 29.354Z"
        fill="#7A7A7A"
    />
    <path
        d="M159.755 8.13281C159.755 14.7217 159.755 21.1586 159.755 27.5087C159.755 28.3445 159.755 29.1261 158.55 29.1261C157.345 29.1261 157.345 28.3228 157.345 27.487C157.345 21.8099 157.345 16.1328 157.345 10.4558C157.312 8.90351 158.127 8.45846 159.755 8.13281Z"
        fill="#7A7A7A"
    />
    <path
        d="M20.4002 37.9294C16.2753 41.7503 11.1952 42.6078 5.86551 42.4016C4.20471 42.3256 1.79494 42.966 1.0351 41.6417C0.275258 40.3174 2.67418 39.1885 3.30376 37.7231C4.19386 35.6607 5.12738 33.6092 6.06089 31.5684C6.53211 30.4101 7.18833 29.3359 8.00391 28.388C7.24407 31.8507 6.64705 35.2917 4.86686 38.3636C3.78137 40.2523 4.38925 40.5345 6.25628 40.6214C11.0509 40.8055 15.8135 39.7671 20.0962 37.6037L20.4002 37.9294Z"
        fill="#7A7A7A"
    />
    <path
        d="M166.322 7.18842C166.322 13.9836 166.322 20.7353 166.322 27.4978C166.322 28.3011 166.463 29.1478 165.161 29.1152C163.858 29.0827 164.01 28.2468 164.01 27.4436C164.01 21.4951 164.01 15.5032 164.01 9.59819C163.956 7.96997 164.705 7.32953 166.322 7.18842Z"
        fill="#7A7A7A"
    />
    <path
        d="M70.2023 46.2984C70.9405 47.4599 72.0477 46.2984 72.9595 47.2645C72.5077 47.7939 71.8749 48.136 71.1846 48.2243C70.4943 48.3126 69.7959 48.1407 69.2254 47.7421C68.6024 47.4572 68.1147 46.941 67.8655 46.3028C67.6163 45.6647 67.6252 44.9546 67.8902 44.3229C68.0739 43.6647 68.4954 43.0982 69.073 42.7332C69.6506 42.3682 70.3432 42.2307 71.0164 42.3473C72.2539 42.4775 73.3937 43.1614 73.4262 44.5182C73.4588 46.8846 70.9839 45.1153 70.2023 46.2984Z"
        fill="#7A7A7A"
    />
    <path
        d="M44.4111 46.8738C45.7137 46.1682 47.6675 47.9593 48.1234 46.3419C48.5793 44.7245 46.3215 45.2564 45.4314 44.54C44.5413 43.8236 44.0746 43.3242 44.3459 42.3039C44.4461 41.8596 44.6834 41.4581 45.0243 41.1562C45.3652 40.8542 45.7925 40.6672 46.2455 40.6214C47.331 40.4586 48.4165 40.2306 49.3066 41.0664C49.3677 41.17 49.4 41.2881 49.4 41.4084C49.4 41.5286 49.3677 41.6467 49.3066 41.7503C48.8507 42.2713 48.3188 41.8154 47.8195 41.7503C47.0705 41.6852 46.2238 41.6526 46.0176 42.4993C45.8114 43.3459 46.658 43.4653 47.2333 43.6607C48.6987 44.1492 50.6092 44.5291 49.8602 46.5807C49.1112 48.6323 47.0162 48.3609 45.236 47.9375C45.1116 47.9228 44.9914 47.8835 44.8823 47.8218C44.7732 47.7602 44.6775 47.6775 44.6007 47.5784C44.524 47.4794 44.4677 47.3662 44.4351 47.2452C44.4025 47.1242 44.3944 46.9979 44.4111 46.8738Z"
        fill="#7A7A7A"
    />
    <path
        d="M90.0775 44.4749C90.0124 46.787 88.623 48.4152 86.756 48.1872C84.357 47.905 83.7383 46.1574 83.8143 44.1058C83.8903 42.0542 84.7152 40.5888 86.9839 40.5237C88.8292 40.4694 90.1318 42.1954 90.0775 44.4749ZM88.6556 44.2686C88.5362 43.1832 88.3299 41.8914 86.9839 41.8914C85.3557 41.8914 85.3991 43.3134 85.3991 44.4749C85.3991 45.6363 85.4859 46.8738 86.9296 46.8304C88.3733 46.787 88.5362 45.4518 88.6556 44.2686Z"
        fill="#7A7A7A"
    />
    <path
        d="M95.1683 47.1451C95.3118 46.921 95.5325 46.7574 95.7887 46.6854C96.0448 46.6133 96.3185 46.6379 96.5578 46.7544C97.4804 47.004 98.6093 47.1234 98.8264 46.0379C99.1086 44.6268 97.7409 44.8765 96.9377 44.8548C95.57 44.8548 95.19 44.1275 95.4614 42.9118C95.7002 41.8263 95.3963 40.3717 97.2633 40.5345C98.1426 40.5997 99.0544 40.3283 99.8685 40.8385C100.02 41.4789 99.608 41.5983 99.1304 41.7069C98.3922 41.8588 97.2199 41.4463 97.1114 42.5318C97.0028 43.6173 98.2728 43.3785 98.935 43.6173C100.02 44.0949 100.791 44.8005 100.596 46.0705C100.539 46.6168 100.29 47.1249 99.8916 47.5031C99.4935 47.8814 98.9732 48.1047 98.4248 48.1329C97.1873 48.2632 95.9282 48.3934 95.1683 47.1451Z"
        fill="#7A7A7A"
    />
    <path
        d="M54.1587 45.2672C54.4084 44.3446 53.6811 42.6512 54.9837 42.5427C56.2862 42.4341 58.2401 41.4572 59.4667 43.194C60.4002 44.5617 60.0529 46.1356 59.8466 47.6336C59.8466 47.7964 59.3365 48.0569 59.2713 48.0027C58.9945 47.8133 58.7763 47.5501 58.6417 47.2428C58.1641 46.0705 59.3473 43.791 57.0569 43.8995C55.1682 43.9647 55.8738 45.9619 55.635 47.156C55.5698 47.4925 55.5481 47.905 55.1031 47.9701C54.658 48.0352 54.3215 47.6336 54.2672 47.1668C54.213 46.7001 54.1913 45.962 54.1587 45.2672Z"
        fill="#7A7A7A"
    />
    <path
        d="M76.9213 42.0976C78.9403 40.1872 80.6987 39.9267 81.9796 41.251C84.1506 43.5413 81.2632 44.8005 80.384 46.4287C80.9158 47.5142 82.4464 46.3636 82.924 47.905C81.397 48.2796 79.8116 48.3533 78.2564 48.1221C77.2578 48.1221 77.3663 47.3731 77.8656 46.7978C78.365 46.2225 79.2768 45.4084 79.9606 44.6919C80.6445 43.9755 81.4477 43.4111 80.8616 42.3907C80.2754 41.3703 79.483 41.8371 78.6906 42.0759C78.1032 42.1451 77.5102 42.1524 76.9213 42.0976Z"
        fill="#7A7A7A"
    />
    <path
        d="M67.0326 46.6784C65.3067 48.73 63.7762 48.578 62.3325 47.2537C62.0512 47.0177 61.8237 46.7242 61.6653 46.393C61.5068 46.0618 61.4211 45.7005 61.4139 45.3334C61.4067 44.9663 61.4782 44.6019 61.6235 44.2647C61.7689 43.9275 61.9847 43.6254 62.2565 43.3785C63.6133 41.9131 65.133 41.9565 66.9241 43.3785C65.5021 44.3446 62.8643 42.6621 63.114 45.4301C63.3311 47.8724 65.2741 46.4722 67.0326 46.6784Z"
        fill="#7A7A7A"
    />
    <path
        d="M90.6202 41.0339C91.8577 40.4477 93.1169 40.1655 93.3557 41.0339C93.9174 43.5099 93.9174 46.0803 93.3557 48.5563C91.1521 45.962 93.931 42.6078 90.6202 41.0339Z"
        fill="#7A7A7A"
    />
    <path
        d="M52.7694 45.3541C52.7694 45.8969 52.7694 46.4396 52.7694 46.9823C52.7694 47.5251 52.65 47.9376 52.0964 48.0027C51.2931 48.0787 51.304 47.4165 51.2822 46.9172C51.2822 46.0163 51.2171 45.1044 51.2822 44.2035C51.2822 43.5522 51.0434 42.4884 52.0746 42.521C53.1059 42.5536 52.7585 43.6065 52.8236 44.2795C52.8236 44.6377 52.8236 45.0068 52.8236 45.365L52.7694 45.3541Z"
        fill="#7A7A7A"
    />
    <path
        d="M40.0909 11.3893C40.0291 12.66 39.4761 13.8571 38.5486 14.7279C37.6211 15.5988 36.3915 16.0752 35.1194 16.0569C33.8899 15.9871 32.7346 15.4462 31.8936 14.5466C31.0526 13.647 30.5906 12.4579 30.6038 11.2264C30.6178 10.6035 30.755 9.98949 31.0075 9.41982C31.2599 8.85014 31.6226 8.33606 32.0747 7.90722C32.5267 7.47837 33.0592 7.14324 33.6414 6.92114C34.2236 6.69904 34.8439 6.59436 35.4668 6.61314C36.698 6.67863 37.859 7.20736 38.7167 8.09322C39.5743 8.97907 40.0653 10.1565 40.0909 11.3893ZM35.4668 14.0813C35.8303 14.0734 36.1887 13.9941 36.5215 13.8477C36.8543 13.7014 37.1551 13.4909 37.4065 13.2283C37.658 12.9658 37.8553 12.6562 37.9872 12.3174C38.1191 11.9786 38.1829 11.6171 38.175 11.2536C38.1672 10.8901 38.0878 10.5317 37.9415 10.1989C37.7952 9.86604 37.5847 9.5653 37.3221 9.31381C37.0595 9.06232 36.75 8.86502 36.4112 8.73316C36.0723 8.60129 35.7109 8.53746 35.3474 8.5453C34.9592 8.51357 34.5689 8.56853 34.2046 8.7062C33.8403 8.84387 33.5112 9.06082 33.2411 9.34133C32.971 9.62184 32.7666 9.9589 32.6428 10.3281C32.5189 10.6973 32.4787 11.0895 32.5251 11.4761C32.5142 13.1369 33.654 14.0161 35.4668 14.0813Z"
        fill="#7A7A7A"
    />
</svg>
