<svg enable-background="new 0 0 598.1 217.9" viewBox="0 0 598.1 217.9" xmlns="http://www.w3.org/2000/svg"><g fill="#ffffff"><path d="m0 119.5 12-20.5c6.7 6 21.1 12.1 31.7 12.1 8.6 0 12.1-2.4 12.1-6.3 0-11.2-52.5.4-52.5-36.2 0-15.9 13.8-29.7 38.7-29.7 15.3 0 28 4.9 37.7 12l-11 20.4c-5.4-5.2-15.7-9.9-26.5-9.9-6.7 0-11.2 2.6-11.2 6.2 0 9.9 52.3-.4 52.3 36.6 0 17.2-15.1 29.5-40.9 29.5-16.3-.2-32.9-5.6-42.4-14.2z"/><path d="m85.7 16.4c0-9.1 7.3-16.4 16.4-16.4s16.6 7.3 16.6 16.4-7.4 16.6-16.6 16.6c-9.1 0-16.4-7.4-16.4-16.6z"/><path d="m87.8 41.1h28.8v90.2h-28.8z"/><path d="m240.9 131.3v-54.9c0-6.9-3.4-12.1-12-12.1-7.8 0-13.4 5-16.2 8.8v58.3h-28.8v-55c0-6.9-3.2-12.1-11.8-12.1-7.8 0-13.3 5-16.2 8.8v58.3h-28.8v-90.3h28.8v7.9l-3 6.7c1.1-1.4 2.2-2.7 3-3.6 3.9-5.2 15.5-13.3 29.7-13.3 13.1 0 21.8 5.4 25.6 16.1 5.2-7.8 17-16.1 31.2-16.1 16.6 0 27.1 8.6 27.1 27.1v65.4z"/><path d="m309 120.6c-.7-.9-1.2-2-1.7-3.1l1.7 10v38.2h-28.8v-124.6h28.8v10.5c7.1-8.6 16.4-12.7 26.7-12.7 22.6 0 39.6 16.8 39.6 47.2 0 30.6-17 47.4-39.6 47.4-10.1 0-19.2-3.9-26.7-12.9zm37-34.5c0-13.4-8.6-21.8-19.8-21.8-6.2 0-13.6 3.4-17.2 8.2v27.4c3.5 4.7 11 8.2 17.2 8.2 11.2 0 19.8-8.4 19.8-22z"/><path d="m380 131.3v-124.6h28.8v124.5h-28.8z"/><path d="m413.6 86.1c0-26.1 19.6-47.2 47.8-47.2 26.7 0 46.1 19.6 46.1 50.2v6.5h-62l-2.4-3.2c-.1 1-.1 2 .2 3.2 2.1 8 9.5 14.8 22.6 14.8 6.3 0 16.8-2.8 22-7.7l12.5 18.9c-9 8-23.9 12-37.7 12-27.9-.1-49.1-18.2-49.1-47.5zm47.8-24.1c-12.5 0-17.4 7.5-18.5 14h37.1c-.7-6.4-5.4-14-18.6-14z"/><path d="m566.1 131.3-17.2-27.3-17.7 27.3h-31.4l30.8-46.3-28.9-43.9h31.6l15.5 24.5 1.1 1.7v-3.5l14.2-22.7h31.6l-28.8 43.9 30.8 46.3z"/><path d="m484 188.6c0-3.6-1.9-4.9-4.8-4.9-2.8 0-4.6 1.5-5.7 2.9v19h-9.5v-29.5h9.4v2.6l-1.2 2.2c1.8-2.1 6.4-5.5 11.3-5.5 6.7 0 9.8 3.9 9.8 9.3v20.9h-9.3z"/><path d="m516.1 201.3c-1.8 2.1-6.2 5.1-11.1 5.1-6.7 0-9.7-3.8-9.7-9.2v-21h9.4v17.1c0 3.5 1.8 4.8 4.9 4.8 2.7 0 4.5-1.5 5.6-2.9v-19h9.4v29.5h-9.4v-2.2z"/><path d="m571 175.4c8.7 0 15.1 6.4 15.1 16.4v2h-20.3l-.8-1.1c0 .4.1.9.2 1.3.7 2.6 3.2 5 7.5 5 2.6 0 5.6-1 7.2-2.5l4 5.9c-2.9 2.6-7.8 3.9-12.3 3.9-9.1 0-16.1-5.9-16.1-15.5-.1-8.5 6.3-15.4 15.5-15.4zm-6 12.4h12.1c-.2-2.1-1.8-5.1-6.1-5.1-4.1 0-5.6 2.9-6 5.1z"/><path d="m588 176.2h9.4v29.5h-9.4z"/><path d="m547.8 176.2-6.3 17.5.2 2.7-7.2-20.2h-8v4.7l9.7 24.7h10l11.6-29.4z"/><path d="m587.3 167.1c0-3 2.4-5.4 5.4-5.4s5.4 2.4 5.4 5.4-2.4 5.4-5.4 5.4c-3-.1-5.4-2.4-5.4-5.4z"/><path d="m380 205.9v-40.9h6.4v15.4c2.4-3.2 5.8-4.8 9.5-4.8 7.7 0 13.2 6 13.2 15.5 0 9.8-5.6 15.6-13.2 15.6-3.8 0-7.2-1.8-9.5-4.8v4zm14.1-5c5.1 0 8.3-4.1 8.3-9.9 0-5.7-3.3-9.8-8.3-9.8-3.1 0-6.2 1.8-7.7 4v11.8c1.5 2.2 4.6 3.9 7.7 3.9z"/><path d="m415.7 211.7c.7.3 1.7.5 2.5.5 2.1 0 3.4-.6 4.3-2.6l1.5-3.4-12.2-30h6.9l8.6 22.2 8.7-22.2h6.9l-14.3 35c-2 5-5.5 6.6-10.1 6.7-.9 0-2.8-.2-3.6-.4z"/></g></svg>