<svg width="226" height="48" viewBox="0 0 226 48" fill="none" xmlns="http://www.w3.org/2000/svg">
<path d="M84.1406 31.7947C82.5926 31.7947 81.2786 31.4527 80.1986 30.7687C79.1186 30.0847 78.2942 29.1343 77.7254 27.9175C77.1638 26.7007 76.883 25.2931 76.883 23.6947C76.883 22.0963 77.1638 20.6887 77.7254 19.4719C78.2942 18.2551 79.1186 17.3047 80.1986 16.6207C81.2786 15.9367 82.5926 15.5947 84.1406 15.5947C85.9406 15.5947 87.4202 16.0519 88.5794 16.9663C89.7459 17.8807 90.5487 19.1119 90.9879 20.6599L89.0331 21.1783C88.7163 20.0191 88.151 19.1047 87.3374 18.4351C86.5238 17.7655 85.4582 17.4307 84.1406 17.4307C82.9814 17.4307 82.0166 17.6935 81.2462 18.2191C80.4758 18.7447 79.8962 19.4791 79.5074 20.4223C79.1186 21.3583 78.9206 22.4491 78.9134 23.6947C78.9062 24.9331 79.097 26.0239 79.4858 26.9671C79.8746 27.9031 80.4578 28.6375 81.2354 29.1703C82.013 29.6959 82.9814 29.9587 84.1406 29.9587C85.4582 29.9587 86.5238 29.6239 87.3374 28.9543C88.151 28.2775 88.7163 27.3631 89.0331 26.2111L90.9879 26.7295C90.5487 28.2703 89.7459 29.5015 88.5794 30.4231C87.4202 31.3375 85.9406 31.7947 84.1406 31.7947ZM98.3244 31.7947C97.1652 31.7947 96.1644 31.5319 95.322 31.0063C94.4868 30.4807 93.8424 29.7535 93.3888 28.8247C92.9352 27.8959 92.7084 26.8303 92.7084 25.6279C92.7084 24.4039 92.9388 23.3311 93.3996 22.4095C93.8604 21.4879 94.512 20.7715 95.3544 20.2603C96.1968 19.7419 97.1868 19.4827 98.3244 19.4827C99.4908 19.4827 100.495 19.7455 101.338 20.2711C102.18 20.7895 102.824 21.5131 103.271 22.4419C103.724 23.3635 103.951 24.4255 103.951 25.6279C103.951 26.8447 103.724 27.9175 103.271 28.8463C102.817 29.7679 102.169 30.4915 101.327 31.0171C100.484 31.5355 99.4836 31.7947 98.3244 31.7947ZM98.3244 29.9695C99.534 29.9695 100.434 29.5663 101.024 28.7599C101.615 27.9535 101.91 26.9095 101.91 25.6279C101.91 24.3103 101.611 23.2627 101.014 22.4851C100.416 21.7003 99.5196 21.3079 98.3244 21.3079C97.5108 21.3079 96.8412 21.4915 96.3156 21.8587C95.79 22.2259 95.3976 22.7335 95.1384 23.3815C94.8792 24.0295 94.7496 24.7783 94.7496 25.6279C94.7496 26.9383 95.052 27.9895 95.6568 28.7815C96.2616 29.5735 97.1508 29.9695 98.3244 29.9695ZM106.545 17.7439V15.7567H108.467V17.7439H106.545ZM106.545 31.4707V19.8067H108.467V31.4707H106.545ZM120.013 31.4707V25.6279C120.013 25.0735 119.963 24.5407 119.862 24.0295C119.768 23.5183 119.599 23.0611 119.354 22.6579C119.117 22.2475 118.793 21.9235 118.382 21.6859C117.979 21.4483 117.468 21.3295 116.849 21.3295C116.366 21.3295 115.927 21.4123 115.531 21.5779C115.142 21.7363 114.808 21.9811 114.527 22.3123C114.246 22.6435 114.026 23.0611 113.868 23.5651C113.717 24.0619 113.641 24.6487 113.641 25.3255L112.378 24.9367C112.378 23.8063 112.579 22.8379 112.982 22.0315C113.393 21.2179 113.965 20.5951 114.7 20.1631C115.441 19.7239 116.312 19.5043 117.313 19.5043C118.069 19.5043 118.714 19.6231 119.246 19.8607C119.779 20.0983 120.222 20.4151 120.575 20.8111C120.928 21.1999 121.205 21.6391 121.406 22.1287C121.608 22.6111 121.748 23.1043 121.828 23.6083C121.914 24.1051 121.957 24.5767 121.957 25.0231V31.4707H120.013ZM111.697 31.4707V19.8067H113.425V22.9279H113.641V31.4707H111.697Z" fill="white"/>
<path d="M131.159 31.7947C129.611 31.7947 128.297 31.4527 127.217 30.7687C126.137 30.0847 125.312 29.1343 124.743 27.9175C124.182 26.7007 123.901 25.2931 123.901 23.6947C123.901 22.0963 124.182 20.6887 124.743 19.4719C125.312 18.2551 126.137 17.3047 127.217 16.6207C128.297 15.9367 129.611 15.5947 131.159 15.5947C132.959 15.5947 134.438 16.0519 135.597 16.9663C136.764 17.8807 137.567 19.1119 138.006 20.6599L136.051 21.1783C135.734 20.0191 135.169 19.1047 134.355 18.4351C133.542 17.7655 132.476 17.4307 131.159 17.4307C129.999 17.4307 129.035 17.6935 128.264 18.2191C127.494 18.7447 126.914 19.4791 126.525 20.4223C126.137 21.3583 125.939 22.4491 125.931 23.6947C125.924 24.9331 126.115 26.0239 126.504 26.9671C126.893 27.9031 127.476 28.6375 128.253 29.1703C129.031 29.6959 129.999 29.9587 131.159 29.9587C132.476 29.9587 133.542 29.6239 134.355 28.9543C135.169 28.2775 135.734 27.3631 136.051 26.2111L138.006 26.7295C137.567 28.2703 136.764 29.5015 135.597 30.4231C134.438 31.3375 132.959 31.7947 131.159 31.7947ZM140.374 31.4707V19.8067H142.092V22.6255L141.811 22.2583C141.948 21.8983 142.124 21.5671 142.34 21.2647C142.563 20.9623 142.812 20.7139 143.085 20.5195C143.388 20.2747 143.73 20.0875 144.111 19.9579C144.493 19.8283 144.882 19.7527 145.278 19.7311C145.674 19.7023 146.044 19.7275 146.39 19.8067V21.6103C145.987 21.5023 145.544 21.4735 145.062 21.5239C144.579 21.5743 144.133 21.7507 143.722 22.0531C143.348 22.3195 143.056 22.6435 142.848 23.0251C142.646 23.4067 142.506 23.8207 142.426 24.2671C142.347 24.7063 142.308 25.1563 142.308 25.6171V31.4707H140.374ZM151.368 31.7947C150.497 31.7947 149.766 31.6363 149.176 31.3195C148.593 30.9955 148.15 30.5707 147.847 30.0451C147.552 29.5195 147.405 28.9435 147.405 28.3171C147.405 27.7051 147.52 27.1759 147.75 26.7295C147.988 26.2759 148.319 25.9015 148.744 25.6063C149.169 25.3039 149.676 25.0663 150.267 24.8935C150.821 24.7423 151.44 24.6127 152.124 24.5047C152.815 24.3895 153.514 24.2851 154.219 24.1915C154.925 24.0979 155.584 24.0079 156.196 23.9215L155.505 24.3211C155.526 23.2843 155.317 22.5175 154.878 22.0207C154.446 21.5239 153.697 21.2755 152.632 21.2755C151.926 21.2755 151.307 21.4375 150.774 21.7615C150.249 22.0783 149.878 22.5967 149.662 23.3167L147.837 22.7659C148.117 21.7435 148.661 20.9407 149.467 20.3575C150.274 19.7743 151.336 19.4827 152.653 19.4827C153.712 19.4827 154.619 19.6735 155.375 20.0551C156.138 20.4295 156.685 20.9983 157.017 21.7615C157.182 22.1215 157.287 22.5139 157.33 22.9387C157.373 23.3563 157.395 23.7955 157.395 24.2563V31.4707H155.688V28.6735L156.088 28.9327C155.649 29.8759 155.033 30.5887 154.241 31.0711C153.456 31.5535 152.499 31.7947 151.368 31.7947ZM151.66 30.1855C152.351 30.1855 152.949 30.0631 153.453 29.8183C153.964 29.5663 154.374 29.2387 154.684 28.8355C154.993 28.4251 155.195 27.9787 155.289 27.4963C155.397 27.1363 155.454 26.7367 155.461 26.2975C155.476 25.8511 155.483 25.5091 155.483 25.2715L156.153 25.5631C155.526 25.6495 154.911 25.7323 154.306 25.8115C153.701 25.8907 153.129 25.9771 152.589 26.0707C152.049 26.1571 151.563 26.2615 151.131 26.3839C150.814 26.4847 150.515 26.6143 150.234 26.7727C149.961 26.9311 149.737 27.1363 149.565 27.3883C149.399 27.6331 149.316 27.9391 149.316 28.3063C149.316 28.6231 149.395 28.9255 149.554 29.2135C149.719 29.5015 149.971 29.7355 150.31 29.9155C150.655 30.0955 151.105 30.1855 151.66 30.1855ZM164.782 31.7947C163.695 31.7947 162.762 31.5247 161.985 30.9847C161.207 30.4375 160.606 29.6995 160.181 28.7707C159.763 27.8419 159.555 26.7943 159.555 25.6279C159.555 24.4615 159.763 23.4139 160.181 22.4851C160.606 21.5563 161.207 20.8255 161.985 20.2927C162.762 19.7527 163.691 19.4827 164.771 19.4827C165.873 19.4827 166.798 19.7491 167.547 20.2819C168.295 20.8147 168.861 21.5455 169.242 22.4743C169.631 23.4031 169.825 24.4543 169.825 25.6279C169.825 26.7871 169.631 27.8347 169.242 28.7707C168.861 29.6995 168.295 30.4375 167.547 30.9847C166.798 31.5247 165.876 31.7947 164.782 31.7947ZM165.019 30.0343C165.804 30.0343 166.449 29.8471 166.953 29.4727C167.457 29.0911 167.827 28.5691 168.065 27.9067C168.31 27.2371 168.432 26.4775 168.432 25.6279C168.432 24.7639 168.31 24.0043 168.065 23.3491C167.827 22.6867 167.46 22.1719 166.963 21.8047C166.467 21.4303 165.837 21.2431 165.073 21.2431C164.281 21.2431 163.626 21.4375 163.108 21.8263C162.597 22.2151 162.215 22.7407 161.963 23.4031C161.718 24.0655 161.596 24.8071 161.596 25.6279C161.596 26.4559 161.722 27.2047 161.974 27.8743C162.226 28.5367 162.604 29.0623 163.108 29.4511C163.619 29.8399 164.256 30.0343 165.019 30.0343ZM168.432 31.4707V22.8847H168.216V15.9187H170.149V31.4707H168.432ZM177.754 31.7947C176.667 31.7947 175.735 31.5247 174.957 30.9847C174.18 30.4375 173.578 29.6995 173.154 28.7707C172.736 27.8419 172.527 26.7943 172.527 25.6279C172.527 24.4615 172.736 23.4139 173.154 22.4851C173.578 21.5563 174.18 20.8255 174.957 20.2927C175.735 19.7527 176.664 19.4827 177.744 19.4827C178.845 19.4827 179.77 19.7491 180.519 20.2819C181.268 20.8147 181.833 21.5455 182.215 22.4743C182.604 23.4031 182.798 24.4543 182.798 25.6279C182.798 26.7871 182.604 27.8347 182.215 28.7707C181.833 29.6995 181.268 30.4375 180.519 30.9847C179.77 31.5247 178.849 31.7947 177.754 31.7947ZM177.992 30.0343C178.777 30.0343 179.421 29.8471 179.925 29.4727C180.429 29.0911 180.8 28.5691 181.038 27.9067C181.282 27.2371 181.405 26.4775 181.405 25.6279C181.405 24.7639 181.282 24.0043 181.038 23.3491C180.8 22.6867 180.433 22.1719 179.936 21.8047C179.439 21.4303 178.809 21.2431 178.046 21.2431C177.254 21.2431 176.599 21.4375 176.08 21.8263C175.569 22.2151 175.188 22.7407 174.936 23.4031C174.691 24.0655 174.568 24.8071 174.568 25.6279C174.568 26.4559 174.694 27.2047 174.946 27.8743C175.198 28.5367 175.576 29.0623 176.08 29.4511C176.592 29.8399 177.229 30.0343 177.992 30.0343ZM181.405 31.4707V22.8847H181.189V15.9187H183.122V31.4707H181.405ZM186.364 31.4707V15.5947H188.286V31.4707H186.364ZM196.581 31.7947C195.436 31.7947 194.436 31.5427 193.579 31.0387C192.729 30.5275 192.067 29.8183 191.592 28.9111C191.116 27.9967 190.879 26.9311 190.879 25.7143C190.879 24.4399 191.113 23.3383 191.581 22.4095C192.049 21.4735 192.7 20.7535 193.536 20.2495C194.378 19.7383 195.364 19.4827 196.495 19.4827C197.668 19.4827 198.666 19.7527 199.486 20.2927C200.314 20.8327 200.934 21.6031 201.344 22.6039C201.762 23.6047 201.942 24.7963 201.884 26.1787H199.94V25.4875C199.918 24.0547 199.627 22.9855 199.065 22.2799C198.504 21.5671 197.668 21.2107 196.56 21.2107C195.372 21.2107 194.468 21.5923 193.849 22.3555C193.23 23.1187 192.92 24.2131 192.92 25.6387C192.92 27.0139 193.23 28.0795 193.849 28.8355C194.468 29.5915 195.35 29.9695 196.495 29.9695C197.265 29.9695 197.935 29.7931 198.504 29.4403C199.072 29.0875 199.519 28.5799 199.843 27.9175L201.69 28.5547C201.236 29.5843 200.552 30.3835 199.638 30.9523C198.73 31.5139 197.712 31.7947 196.581 31.7947ZM192.272 26.1787V24.6343H200.89V26.1787H192.272Z" fill="#2CB48E"/>
<path fill-rule="evenodd" clip-rule="evenodd" d="M22.5881 24C22.5881 37.2548 33.3332 48 46.5881 48C59.8429 48 70.5881 37.2548 70.5881 24C70.5881 10.7452 59.8429 0 46.5881 0V7.27273C55.8263 7.27273 63.3154 14.7618 63.3154 24C63.3154 33.2382 55.8263 40.7273 46.5881 40.7273C37.3499 40.7273 29.8608 33.2382 29.8608 24H22.5881Z" fill="#2CB48E"/>
<path fill-rule="evenodd" clip-rule="evenodd" d="M47.9999 24C47.9999 10.7452 37.2547 -8.56877e-06 23.9999 -9.72754e-06C10.745 -1.08863e-05 -0.000134072 10.7452 -0.000135231 24C-0.00013639 37.2548 10.745 48 23.9999 48L23.9999 40.7273C14.7617 40.7273 7.27259 33.2382 7.27259 24C7.27259 14.7618 14.7617 7.27272 23.9999 7.27272C33.2381 7.27272 40.7272 14.7618 40.7272 24L47.9999 24Z" fill="white"/>
</svg>
