<?xml version="1.0" encoding="UTF-8"?>
<svg width="88px"
     height="54px"
     viewBox="0 0 88 54"
     version="1.1"
     xmlns="http://www.w3.org/2000/svg"
     xmlns:xlink="http://www.w3.org/1999/xlink"
>
<title>changenow</title>
<desc>Created with Sketch.</desc>
<g id="Page-1"
   stroke="none"
   stroke-width="1"
   fill="none"
   fill-rule="evenodd"
>
    <g id="changenow"
       fill="#7A7A7A"
       fill-rule="nonzero"
    >
        <path d="M70.9843596,34.7784107 C69.4403056,39.8655964 67.854427,44.9528786 66.3208539,50.0401607 C65.9348404,51.3018321 66.0391551,52.8687 63.754418,52.8381321 C61.469582,52.8076607 61.6678292,51.3628714 61.3444045,50.1724607 C59.5186517,44.28135 57.7242427,38.3597679 56.0445303,32.4280607 C55.8359011,31.6751464 54.4378876,30.3931286 56.3783371,29.8335536 C58.0580494,29.3960571 58.7883506,30.260925 59.195227,31.8684857 C60.3428854,36.3859714 61.6990742,40.8424179 62.982391,45.3293357 C63.1388135,45.8890071 63.3475416,46.4383607 63.5978966,47.2014964 C64.2701573,46.6446214 64.6992809,45.8586321 64.7976629,45.0037929 C66.1434697,40.6287321 67.5102382,36.2638929 68.7621124,31.8582643 C69.1481258,30.4745143 69.6280719,29.7012536 71.3393258,29.7012536 C73.0498876,29.7012536 73.425618,30.7187679 73.8013483,31.9803429 C75.3032809,37.067625 76.9307865,42.1549071 78.496,47.4355286 C79.5391461,46.5197464 79.5391461,45.2988643 79.8209438,44.271225 C81.1142472,39.97755 82.3768989,35.6635286 83.461573,31.3088143 C83.8897079,29.6198679 84.974382,29.6198679 86.1955056,29.8132071 C88.0415281,30.0980571 86.7897528,31.3292571 86.612764,31.93965 C84.7973933,38.2886036 82.8564494,44.6069893 80.9995506,50.9558464 C80.6554607,52.0954393 80.2906067,52.8076607 78.7876854,52.8483536 C77.1186517,52.8992679 76.7636854,52.0241786 76.3988315,50.8134214 C74.7713258,45.4616357 73.1438202,40.10985 71.506427,34.7681893 L70.9843596,34.7784107 Z"
              id="Path"
              fill="#3bee81"
        />
        <path d="M40.6351371,29.1823714 C47.7711461,29.1823714 52.9041169,34.147575 52.9458427,41.1578357 C52.9875685,48.1680964 47.9068045,53.28585 40.8020404,53.3265429 C39.1477393,53.3962607 37.4966022,53.1316607 35.9522517,52.5491357 C34.4079011,51.9667071 33.0037573,51.0790821 31.8281169,49.9419964 C30.6523775,48.8050071 29.7304539,47.44305 29.1203865,45.94185 C28.5102202,44.4407464 28.2249618,42.8327036 28.2826067,41.218875 C28.2380135,39.6254893 28.5271281,38.0400107 29.1321528,36.55935 C29.7372764,35.0785929 30.6457528,33.7338964 31.8019146,32.607225 C32.9580764,31.48065 34.3377978,30.5958214 35.8565393,30.0069321 C37.3753798,29.4180429 39.0013034,29.1375321 40.6351371,29.1823714 Z M40.7289708,50.3354059 C45.8410787,50.3354059 49.5655551,46.5401893 49.6072809,41.3308286 C49.6491056,36.1213714 45.736764,32.0413821 40.6351371,32.0821714 C35.5334112,32.1228643 31.767209,36.0298607 31.8297978,41.4223393 C31.8923865,46.8148179 35.585618,50.3555786 40.7289708,50.3354059 Z"
              id="Shape"
              fill="#3bee81"
        />
        <path d="M5.85229663,33.9338893 L5.85229663,50.6608714 C5.85229663,51.74955 6.10265169,52.8280071 4.26651685,52.8280071 C2.43028315,52.8280071 2.65977528,51.759675 2.65977528,50.65065 C2.65977528,44.54595 2.65977528,38.44125 2.65977528,32.33655 C2.65977528,31.4716821 1.95043596,30.0166714 3.52573483,29.8234286 C5.10113258,29.6300893 6.58259775,29.2332857 7.69891236,30.9425786 C11.0477573,36.0298607 14.5218787,40.94415 17.9542742,45.939825 C18.4238382,46.6012286 18.9350292,47.2320643 19.8739596,48.4732929 C19.8739596,42.470325 19.8739596,37.1898 19.8739596,31.8989571 C19.8739596,31.095225 19.3522876,29.9352857 20.9172045,29.7521679 C22.4821213,29.56905 23.0872449,30.0065464 23.066382,31.644675 C22.9829303,37.8307607 23.066382,44.0067214 22.9934112,50.1928071 C22.9934112,51.0373286 23.7549573,52.4922429 22.1379326,52.6754571 C20.6877124,52.8382286 19.1645213,53.1841179 17.9647551,51.4544786 C14.6366742,46.3671964 11.099964,41.4732536 7.64670562,36.50805 C7.29203596,35.8568679 6.78074607,35.1955607 5.85229663,33.9338893 Z"
              id="Path"
              fill="#3bee81"
        />
        <path d="M68.2821663,18.7026107 C65.6113169,20.6358107 63.0031551,20.9613536 60.3740315,19.2621857 C59.3836854,18.6325071 58.6090876,17.7282 58.1498067,16.66575 C57.6906247,15.6032036 57.5678202,14.4310179 57.7971146,13.2999107 C57.8815551,12.304575 58.2213933,11.3459786 58.7853843,10.5123536 C59.3493753,9.67872857 60.1194247,8.99688214 61.0245393,8.52968571 C61.9296539,8.06248929 62.9408629,7.82488929 63.964827,7.83887143 C64.988791,7.85275714 65.992782,8.11783929 66.8841528,8.60943214 C67.4684135,8.89437857 67.9273978,9.99318214 68.6473169,8.42631429 C68.9185348,7.78535357 70.660836,7.57166786 70.671218,9.27083571 C70.671218,13.3406036 70.7651506,17.4104679 70.5147955,21.4802357 C70.429564,22.5515571 69.9881798,23.5665643 69.257582,24.370875 C68.5269843,25.1751857 67.5471191,25.7250214 66.4667955,25.9366821 C65.1362157,26.3329071 63.7304899,26.4279857 62.3565034,26.2145893 C60.9825169,26.0012893 59.6765573,25.4852036 58.5378966,24.7055786 C58.4225079,24.6444429 58.3261034,24.5539929 58.2589663,24.4438714 C58.1918292,24.33375 58.1564315,24.2080071 58.1564315,24.0798536 C58.1564315,23.9517 58.1918292,23.8259571 58.2589663,23.7158357 C58.3261034,23.6057143 58.4225079,23.5153607 58.5378966,23.4541286 C58.944773,23.0980179 59.0804315,22.2738429 59.9045663,22.6299536 C60.2905798,22.7928214 60.6036225,23.1284893 60.9479101,23.33205 C65.0271551,25.5094071 68.3968629,23.5049464 68.2821663,18.7026107 Z M68.3864809,14.3072036 C68.4002247,13.7847536 68.3082697,13.2648107 68.1158562,12.777075 C67.9235416,12.2892429 67.6346247,11.8432607 67.2655191,11.4643929 C66.8964135,11.085525 66.4543371,10.7812929 65.9647011,10.5689571 C65.4750652,10.3567179 64.9472629,10.2406179 64.4115506,10.2272143 C63.8758382,10.2139071 63.3426966,10.3034893 62.8425798,10.4911393 C62.3424629,10.6786929 61.8850607,10.9605536 61.4965753,11.3205214 C61.1080899,11.6804893 60.7961348,12.111525 60.578409,12.5890393 C60.360782,13.06665 60.2417348,13.5812893 60.227991,14.1037393 C60.2003056,15.1588607 60.6036225,16.1813893 61.3490517,16.94655 C62.0944809,17.7117107 63.1210157,18.1567286 64.2029213,18.1837286 C65.284827,18.2107286 66.3333124,17.8173964 67.1178966,17.0904214 C67.9024809,16.3634464 68.3587955,15.362325 68.3864809,14.3072036 Z"
              id="Shape"
              fill="#ffffff"
        />
        <path d="M16.8067146,9.49464643 C18.0142921,8.45967857 19.570409,7.89460714 21.1780404,7.90743214 C23.4941213,8.03973214 25.0173124,9.17922857 25.2155596,11.4278464 C25.4346697,13.9510929 25.2990112,16.5150321 25.3616,19.038375 C25.3616,19.8624536 25.1112449,20.2491321 24.1826966,20.2592571 C23.2541483,20.2694786 23.0037933,19.8930214 23.0141753,19.0587214 C23.0141753,17.1153964 23.0141753,15.16185 23.0141753,13.218525 C23.0141753,11.5193571 22.3465618,10.166175 20.3746697,10.0745679 C19.9339775,10.0086107 19.4837933,10.0381179 19.0560539,10.1609679 C18.6284135,10.2839143 18.2336989,10.4971179 17.9000899,10.7856321 C17.5664809,11.0741464 17.3020854,11.4307393 17.1256899,11.83005 C16.9493933,12.2294571 16.8653483,12.6618429 16.8796854,13.0964464 C16.6919191,14.9481643 16.7962337,16.820325 16.7962337,18.6822643 C16.7962337,19.5572571 16.9110292,20.3712107 15.5234966,20.3101714 C14.3758382,20.3101714 14.3237303,19.6589893 14.3237303,18.8246893 C14.3237303,13.3982679 14.3237303,7.97184643 14.3237303,2.545425 C14.3237303,1.60939286 14.417564,0.917517857 15.700782,0.937864286 C16.9840989,0.958210714 16.7441258,1.76203929 16.7441258,2.50473214 C16.8067146,4.67186786 16.8067146,6.86957143 16.8067146,9.49464643 Z"
              id="Path"
              fill="#ffffff"
        />
        <path d="M80.3212584,20.5238571 C79.4679551,20.5489286 78.6195955,20.3988857 77.829573,20.0834679 C77.0395506,19.76805 76.3256629,19.2942 75.7363596,18.692775 C75.1460674,18.0912536 74.6922247,17.3755607 74.4035056,16.5920786 C74.1147865,15.8085 73.9991011,14.9745857 74.062382,14.1444321 C74.0267865,13.3384821 74.1592809,12.5339786 74.4509663,11.7791357 C74.7426517,11.0243893 75.1885843,10.334925 75.7600899,9.75230357 C76.3325843,9.16968214 77.0187865,8.70595714 77.7801348,8.3889 C78.5404944,8.07184286 79.359191,7.90810714 80.1857978,7.90743214 C80.9708764,7.83279643 81.7628764,7.91765357 82.5133483,8.1567 C83.2628315,8.39574643 83.9529888,8.78367857 84.5413034,9.2961 C85.129618,9.80852143 85.6022472,10.4343429 85.9305169,11.1339321 C86.2577978,11.8336179 86.4337978,12.5919321 86.4456629,13.36095 C86.571236,14.7040071 86.1846292,15.1720714 84.7766292,15.1110321 C82.6171685,15.019425 80.4359551,15.1110321 78.2666067,15.1110321 C77.7969438,15.1110321 77.1601798,14.887125 76.8892584,15.4467964 C76.6183371,16.0063714 77.0148315,16.5761679 77.4004494,17.0441357 C78.0797303,17.8211571 79.0348764,18.3204643 80.0740674,18.443025 C81.1142472,18.5654893 82.1633258,18.3022393 83.0136629,17.7055393 C83.9421124,17.0747036 84.7242247,16.688025 85.4025169,17.7055393 C86.1955056,18.8653821 84.8181573,19.0485 84.2654382,19.5064393 C83.0650787,20.4424714 81.5947865,20.3203929 80.3212584,20.5238571 Z M80.008809,13.1371393 C80.5249438,13.1931643 81.0470112,13.1931643 81.5631461,13.1371393 C82.2938427,12.9743679 83.5139775,13.767975 83.6494382,12.4656107 C83.6919551,11.9502 83.549573,11.4364286 83.2470112,11.0116607 C82.9444494,10.5868929 82.5004944,10.2773571 81.9912809,10.1356071 C81.1933483,9.79646786 80.3044494,9.71450357 79.4560899,9.90167143 C77.9640449,10.2781286 76.6391011,11.1225536 76.8160899,12.5469964 C76.962427,13.7781 78.5582921,12.9133286 79.4659775,13.1574857 C79.6488989,13.1594143 79.8308315,13.138875 80.008809,13.0964464 L80.008809,13.1371393 Z"
              id="Shape"
              fill="#ffffff"
        />
        <path d="M39.5501663,15.6808286 C39.5501663,16.7796321 39.4667146,17.8886571 39.5501663,18.9773357 C39.6754427,20.3000464 38.5069213,20.6662821 38.0583191,20.1067071 C37.0150742,18.6924857 36.3786067,19.6997786 35.4188135,20.0456679 C34.5528539,20.4465214 33.5921708,20.6126679 32.637618,20.52675 C31.683164,20.4408321 30.7698427,20.1059357 29.9937618,19.5572571 C29.5314157,19.1719286 29.1754607,18.6797571 28.9583281,18.1256786 C28.7412944,17.5716964 28.6699056,16.9734536 28.7507865,16.385625 C28.8317663,15.7977964 29.0623461,15.2389929 29.4216629,14.7605143 C29.7808809,14.2819393 30.2573663,13.8987321 30.8075146,13.6458964 C32.2993618,12.8624143 33.9373483,12.8827607 35.6065798,12.6792964 C36.1491146,12.6081321 36.9106607,12.9438964 37.1089079,12.1400679 C37.1762427,11.802375 37.1329348,11.4526286 36.9849169,11.1402964 C36.8369978,10.8280607 36.5920809,10.5690536 36.284773,10.4002071 C35.6432629,9.96020357 34.8781573,9.72395357 34.0938697,9.72395357 C33.309582,9.72395357 32.5443775,9.96020357 31.9029663,10.4002071 C31.1309393,10.8275786 30.4945708,11.0920821 29.9415551,10.2068679 C29.2112539,9.05715 30.4006382,8.92494643 30.9848989,8.64 C35.6065798,6.24895714 39.5084404,8.55861429 39.5189213,13.6662429 L39.5189213,15.701175 L39.5501663,15.6808286 Z M33.9164854,18.6619179 C35.773582,18.3974143 37.0463191,17.6445 37.1819775,15.6706071 C37.317636,14.0121321 36.1386337,14.5005429 35.272773,14.5412357 C33.4991281,14.6429679 31.3291865,14.4904179 31.2457348,16.96275 C31.1935281,18.4890214 32.8210337,18.4278857 33.9164854,18.6619179 Z"
              id="Shape"
              fill="#ffffff"
        />
        <path d="M43.3686742,14.3581179 C43.3686742,12.7505571 43.4416449,11.1429 43.3686742,9.54556071 C43.2956045,7.948125 44.4953708,7.58188929 45.2361528,8.29411071 C46.2063281,9.20979643 46.6654112,8.80277143 47.5208899,8.43653571 C51.2141213,6.828975 54.2396404,8.65022143 54.364818,12.5063036 C54.4378876,14.5412357 54.364818,16.5761679 54.364818,18.6110036 C54.364818,19.4758714 54.4899955,20.2797 53.1024629,20.2287857 C51.7149303,20.1779679 51.9235596,19.2927536 51.9235596,18.4788 C51.9235596,16.7083714 51.9235596,14.9278179 51.9235596,13.1574857 C51.9235596,11.3871536 51.318436,10.1051357 49.3153978,10.0440964 C48.9022921,9.98315357 48.4805843,10.0089964 48.0785528,10.1198893 C47.6765213,10.2308786 47.3034607,10.4243143 46.9842876,10.6873714 C46.6652135,10.9504286 46.4074427,11.2769357 46.2282787,11.6450036 C46.0491146,12.0131679 45.9527101,12.4143107 45.945591,12.8217214 C45.7473438,14.7447 45.7682067,16.6982464 45.7473438,18.6415714 C45.7473438,19.5674786 45.7473438,20.2694786 44.4119191,20.2287857 C43.0764944,20.1880929 43.3686742,19.323225 43.3686742,18.6415714 C43.3478112,17.237475 43.3686742,15.8029071 43.3686742,14.3581179 Z"
              id="Path"
              fill="#ffffff"
        />
        <path d="M7.3232809,20.5238571 C6.01534382,20.5970464 4.71689888,20.2683214 3.61076854,19.583775 C2.5046382,18.899325 1.64658876,17.893575 1.15744719,16.7083714 C0.670975281,15.4813179 0.561914607,14.1425036 0.843514607,12.8558571 C1.12521348,11.5692107 1.78531236,10.3905643 2.74322697,9.464175 C3.78518652,8.62939286 5.05159551,8.10482143 6.39107416,7.95333214 C7.73045393,7.80174643 9.08634607,8.02951071 10.2965933,8.60943214 C10.870373,8.914725 12.0180315,9.10806429 11.5068404,10.1051357 C11.433573,10.3269214 11.3037483,10.5268179 11.1295281,10.6861179 C10.955209,10.8455143 10.7423281,10.9590107 10.5106607,11.0159036 C10.2790921,11.0728929 10.0363506,11.0715429 9.80547416,11.0118536 C9.57459775,10.9521643 9.36300225,10.8362571 9.19075955,10.6749321 C8.5133573,10.1915357 7.68170787,9.95885357 6.84462022,10.0185429 C6.00743371,10.0781357 5.21928989,10.4262429 4.62118652,11.000475 C4.04345169,11.521575 3.62105169,12.1853893 3.3988764,12.9216214 C3.17660225,13.6578536 3.16275955,14.4390214 3.35883146,15.1821964 C3.45711461,15.7687714 3.69649438,16.3242 4.05719551,16.8032571 C4.41789663,17.2822179 4.88983371,17.6711143 5.43424719,17.9380286 C5.97875955,18.2050393 6.58022472,18.3425464 7.1896,18.3392679 C7.79897528,18.3358929 8.3989573,18.1920214 8.94030562,17.919225 C10.0671011,17.369775 10.9539236,17.1153964 11.4129079,18.2753357 C11.9658247,19.6996821 10.3696629,19.7404714 9.58715506,20.137275 C8.8582382,20.3818179 8.09412135,20.5122857 7.3232809,20.5238571 Z"
              id="Path"
              fill="#ffffff"
        />
    </g>
</g>
</svg>
