<?xml version="1.0" encoding="UTF-8"?>
<svg width="170px"
     height="45px"
     viewBox="0 0 401 82"
     version="1.1"
     xmlns="http://www.w3.org/2000/svg"
     xmlns:xlink="http://www.w3.org/1999/xlink"
>
    <g id="Page-1"
       stroke="none"
       stroke-width="1"
       fill="none"
       fill-rule="evenodd"
    >
        <g id="Media-kit"
           transform="translate(-732.000000, -682.000000)"
           fill="#7a7a7a"
        >
            <g id="Logo-wide-red"
               transform="translate(732.000000, 682.000000)"
            >
                <path
                    d="M113.41479,58.4507119 L113.41479,35.516977 L109.735798,35.2853231 C109.245264,35.2338442 109,35.019352 109,34.6418401 L109,33.6380066 L113.41479,33.6380066 L113.41479,30.3948521 C113.41479,28.9362833 113.607497,27.65362 113.992917,26.5468237 C114.378337,25.4400273 114.921421,24.5177109 115.622185,23.7798467 C116.322949,23.0419824 117.163852,22.4885926 118.144922,22.1196605 C119.125991,21.7507283 120.212159,21.5662651 121.403457,21.5662651 C121.946549,21.5662651 122.494013,21.6134533 123.045864,21.7078313 C123.597716,21.8022093 124.092623,21.9351945 124.5306,22.1067908 L124.451764,23.2907996 C124.416726,23.4452363 124.342271,23.5439027 124.228397,23.5868018 C124.114523,23.6297008 123.952474,23.6468602 123.742245,23.6382804 C123.532015,23.6297006 123.260474,23.6039615 122.927611,23.5610624 C122.594748,23.5181633 122.209334,23.4967141 121.771356,23.4967141 C120.912921,23.4967141 120.120193,23.6211196 119.393151,23.8699343 C118.666109,24.118749 118.03981,24.5177044 117.514238,25.0668127 C116.988665,25.615921 116.581352,26.3323249 116.292287,27.216046 C116.003222,28.0997671 115.858691,29.1850976 115.858691,30.4720701 L115.858691,33.6380066 L124.34665,33.6380066 L124.34665,35.4654984 L115.937527,35.4654984 L115.937527,58.4507119 L113.41479,58.4507119 Z M139.159944,32.4282585 C141.034487,32.4282585 142.711916,32.7414171 144.192279,33.3677437 C145.672643,33.9940703 146.920859,34.882068 147.936967,36.0317634 C148.953074,37.1814588 149.728283,38.5670784 150.262615,40.1886637 C150.796948,41.8102491 151.06411,43.6248531 151.06411,45.6325301 C151.06411,47.6402072 150.796948,49.4505213 150.262615,51.0635268 C149.728283,52.6765323 148.953074,54.0578621 147.936967,55.2075575 C146.920859,56.3572529 145.672643,57.2409608 144.192279,57.8587076 C142.711916,58.4764543 141.034487,58.7853231 139.159944,58.7853231 C137.285401,58.7853231 135.607973,58.4764543 134.127609,57.8587076 C132.647246,57.2409608 131.394649,56.3572529 130.369782,55.2075575 C129.344915,54.0578621 128.565327,52.6765323 128.030995,51.0635268 C127.496663,49.4505213 127.2295,47.6402072 127.2295,45.6325301 C127.2295,43.6248531 127.496663,41.8102491 128.030995,40.1886637 C128.565327,38.5670784 129.344915,37.1814588 130.369782,36.0317634 C131.394649,34.882068 132.647246,33.9940703 134.127609,33.3677437 C135.607973,32.7414171 137.285401,32.4282585 139.159944,32.4282585 Z M139.159944,56.854874 C140.719144,56.854874 142.081233,56.5931936 143.246253,56.0698248 C144.411273,55.5464559 145.383568,54.7957333 146.163167,53.8176342 C146.942767,52.8395351 147.525268,51.659828 147.910688,50.2784775 C148.296108,48.8971271 148.488816,47.3484934 148.488816,45.6325301 C148.488816,43.9337264 148.296108,42.3893826 147.910688,40.9994524 C147.525268,39.6095221 146.942767,38.4212353 146.163167,37.4345564 C145.383568,36.4478775 144.411273,35.6885751 143.246253,35.1566265 C142.081233,34.6246779 140.719144,34.3587076 139.159944,34.3587076 C137.600745,34.3587076 136.238656,34.6246779 135.073636,35.1566265 C133.908616,35.6885751 132.936321,36.4478775 132.156721,37.4345564 C131.377121,38.4212353 130.790241,39.6095221 130.396061,40.9994524 C130.001881,42.3893826 129.804794,43.9337264 129.804794,45.6325301 C129.804794,47.3484934 130.001881,48.8971271 130.396061,50.2784775 C130.790241,51.659828 131.377121,52.8395351 132.156721,53.8176342 C132.936321,54.7957333 133.908616,55.5464559 135.073636,56.0698248 C136.238656,56.5931936 137.600745,56.854874 139.159944,56.854874 Z M176.283694,58.4507119 L173.892349,58.4507119 C173.647082,58.4507119 173.454375,58.3777846 173.314222,58.2319277 C173.174069,58.0860708 173.060197,57.944506 172.972602,57.8072289 L165.036491,46.4561884 C164.966415,46.7650618 164.835024,47.0653509 164.642314,47.3570646 L157.074102,57.8072289 C156.951469,57.9616656 156.824457,58.1075203 156.693064,58.2447974 C156.561671,58.3820744 156.390862,58.4507119 156.180633,58.4507119 L153.920681,58.4507119 L163.433502,45.3493976 L154.28858,32.8400876 L156.679925,32.8400876 C156.925192,32.8400876 157.10914,32.8915658 157.231774,32.9945235 C157.354407,33.0974813 157.45952,33.217597 157.547116,33.354874 L165.220441,44.1911281 C165.255479,44.0538511 165.312415,43.9079964 165.391251,43.7535597 C165.470087,43.599123 165.553302,43.4446886 165.640897,43.2902519 L172.81493,33.3806134 C172.920045,33.2261767 173.033917,33.0974813 173.156551,32.9945235 C173.279185,32.8915658 173.436854,32.8400876 173.629564,32.8400876 L175.915795,32.8400876 L166.797151,45.1949617 L176.283694,58.4507119 Z M181.242546,56.4687842 C181.242546,56.1427512 181.303862,55.8338824 181.426496,55.5421687 C181.549129,55.2504549 181.719938,54.9973541 181.938927,54.7828587 C182.157915,54.5683633 182.411939,54.3967695 182.701004,54.2680723 C182.990069,54.139375 183.309787,54.0750274 183.660169,54.0750274 C183.993032,54.0750274 184.308371,54.139375 184.606196,54.2680723 C184.90402,54.3967695 185.162423,54.5683633 185.381412,54.7828587 C185.6004,54.9973541 185.775589,55.2504549 185.906982,55.5421687 C186.038375,55.8338824 186.104071,56.1427512 186.104071,56.4687842 C186.104071,56.8119769 186.038375,57.1251355 185.906982,57.4082694 C185.775589,57.6914034 185.6004,57.9402143 185.381412,58.1547097 C185.162423,58.3692052 184.90402,58.5365091 184.606196,58.6566265 C184.308371,58.7767439 183.993032,58.8368018 183.660169,58.8368018 C182.976925,58.8368018 182.403183,58.60944 181.938927,58.1547097 C181.474671,57.6999795 181.242546,57.1380099 181.242546,56.4687842 Z M212.558745,43.058598 C212.558745,41.6858274 212.361658,40.4546422 211.967479,39.3650055 C211.573299,38.2753688 211.017076,37.3530523 210.298793,36.5980285 C209.58051,35.8430046 208.726467,35.2638757 207.736638,34.8606243 C206.746809,34.4573729 205.656262,34.2557503 204.464964,34.2557503 C203.115993,34.2557503 201.907194,34.4616628 200.838529,34.873494 C199.769864,35.2853252 198.845746,35.8773236 198.066146,36.6495071 C197.286547,37.4216906 196.660248,38.3482969 196.187233,39.4293538 C195.714217,40.5104107 195.398878,41.7201466 195.241206,43.058598 L212.558745,43.058598 Z M195.109814,44.6286966 L195.109814,45.1177437 C195.109814,47.0396226 195.337559,48.7298211 195.793055,50.1883899 C196.248552,51.6469587 196.896748,52.8695643 197.737665,53.8562432 C198.578581,54.8429221 199.594674,55.5850651 200.785972,56.0826944 C201.977271,56.5803238 203.308702,56.8291347 204.780306,56.8291347 C206.094238,56.8291347 207.232962,56.6875699 208.196512,56.4044359 C209.160062,56.121302 209.970308,55.8038535 210.627274,55.4520811 C211.284241,55.1003086 211.805426,54.7828601 212.190846,54.4997262 C212.576266,54.2165922 212.856567,54.0750274 213.031758,54.0750274 C213.259506,54.0750274 213.434695,54.1608243 213.557328,54.3324206 L214.24057,55.1560789 C213.820111,55.6708679 213.263889,56.1513304 212.571884,56.5974808 C211.87988,57.0436313 211.109051,57.4254274 210.259375,57.7428806 C209.409699,58.0603338 208.49872,58.3134346 207.52641,58.5021906 C206.5541,58.6909465 205.577426,58.7853231 204.596356,58.7853231 C202.809409,58.7853231 201.180157,58.4807442 199.708553,57.8715772 C198.236949,57.2624102 196.975593,56.3744126 195.924448,55.2075575 C194.873302,54.0407025 194.063056,52.6121844 193.493685,50.9219606 C192.924315,49.2317367 192.639634,47.2970171 192.639634,45.1177437 C192.639634,43.281663 192.906796,41.5871746 193.441128,40.0342278 C193.975461,38.481281 194.746289,37.1428497 195.753637,36.0188938 C196.760985,34.8949378 197.996063,34.0155198 199.458907,33.3806134 C200.921752,32.7457069 202.581661,32.4282585 204.438685,32.4282585 C205.910289,32.4282585 207.276758,32.6770694 208.538133,33.1746988 C209.799508,33.6723282 210.894435,34.3973118 211.822947,35.3496714 C212.751459,36.302031 213.48287,37.4731584 214.017202,38.8630887 C214.551535,40.253019 214.818697,41.8488409 214.818697,43.6506024 C214.818697,44.0281143 214.76614,44.285505 214.661026,44.422782 C214.555911,44.5600591 214.380723,44.6286966 214.135456,44.6286966 L195.109814,44.6286966 Z M240.616408,58.4507119 L238.225064,58.4507119 C237.979797,58.4507119 237.787089,58.3777846 237.646937,58.2319277 C237.506784,58.0860708 237.392912,57.944506 237.305316,57.8072289 L229.369206,46.4561884 C229.299129,46.7650618 229.167738,47.0653509 228.975028,47.3570646 L221.406817,57.8072289 C221.284183,57.9616656 221.157172,58.1075203 221.025779,58.2447974 C220.894385,58.3820744 220.723577,58.4507119 220.513348,58.4507119 L218.253396,58.4507119 L227.766217,45.3493976 L218.621295,32.8400876 L221.012639,32.8400876 C221.257907,32.8400876 221.441854,32.8915658 221.564488,32.9945235 C221.687122,33.0974813 221.792235,33.217597 221.87983,33.354874 L229.553155,44.1911281 C229.588194,44.0538511 229.64513,43.9079964 229.723966,43.7535597 C229.802802,43.599123 229.886016,43.4446886 229.973611,43.2902519 L237.147645,33.3806134 C237.25276,33.2261767 237.366632,33.0974813 237.489266,32.9945235 C237.611899,32.8915658 237.769569,32.8400876 237.962279,32.8400876 L240.248509,32.8400876 L231.129866,45.1949617 L240.616408,58.4507119 Z M262.630014,36.2634173 C262.542419,36.3492155 262.459204,36.4221428 262.380368,36.4822015 C262.301533,36.5422602 262.19204,36.5722892 262.051887,36.5722892 C261.876696,36.5722892 261.640192,36.4564634 261.342367,36.2248083 C261.044543,35.9931533 260.64161,35.7400525 260.133556,35.4654984 C259.625502,35.1909442 258.990444,34.9378434 258.228364,34.7061884 C257.466283,34.4745333 256.542165,34.3587076 255.455981,34.3587076 C253.949339,34.3587076 252.613528,34.620388 251.448508,35.1437568 C250.283488,35.6671257 249.298054,36.4178483 248.492175,37.3959474 C247.686297,38.3740465 247.077518,39.5580434 246.665819,40.9479737 C246.25412,42.337904 246.048274,43.8994072 246.048274,45.6325301 C246.048274,47.4342916 246.26288,49.0301135 246.692097,50.4200438 C247.121315,51.8099741 247.730095,52.9811015 248.518454,53.9334611 C249.306813,54.8858208 250.26159,55.6108044 251.382812,56.1084337 C252.504034,56.6060631 253.747871,56.854874 255.11436,56.854874 C256.375735,56.854874 257.431245,56.7090193 258.280921,56.4173056 C259.130597,56.1255918 259.83135,55.8081434 260.383202,55.4649507 C260.935053,55.1217581 261.368644,54.8043096 261.683988,54.5125958 C261.999332,54.2208821 262.262114,54.0750274 262.472343,54.0750274 C262.682572,54.0750274 262.857761,54.1608243 262.997913,54.3324206 L263.654876,55.1560789 C263.251937,55.6708679 262.743891,56.1513304 262.130723,56.5974808 C261.517554,57.0436313 260.82556,57.4297172 260.05472,57.7557503 C259.28388,58.0817833 258.447356,58.3348841 257.545122,58.5150602 C256.642889,58.6952364 255.701252,58.7853231 254.720183,58.7853231 C253.055869,58.7853231 251.53611,58.4893239 250.160861,57.8973165 C248.785612,57.3053092 247.603091,56.4473404 246.613262,55.3233844 C245.623433,54.1994285 244.852604,52.8223886 244.300753,51.1922234 C243.748901,49.5620583 243.47298,47.7088457 243.47298,45.6325301 C243.47298,43.6763319 243.735762,41.8917569 244.261335,40.2787514 C244.786908,38.6657459 245.557737,37.2758364 246.573844,36.1089814 C247.589952,34.9421263 248.829409,34.0369693 250.292253,33.393483 C251.755098,32.7499968 253.432526,32.4282585 255.324588,32.4282585 C257.02394,32.4282585 258.53056,32.6942288 259.844492,33.2261774 C261.158424,33.7581261 262.305908,34.4788198 263.286977,35.3882804 L262.630014,36.2634173 Z M272.450391,37.1642935 C273.659209,35.7228844 275.038817,34.5732062 276.589257,33.7152245 C278.139697,32.8572429 279.878441,32.4282585 281.805541,32.4282585 C283.242107,32.4282585 284.507842,32.6513304 285.602786,33.0974808 C286.697729,33.5436313 287.604329,34.1871079 288.322612,35.0279299 C289.040895,35.8687519 289.583978,36.8811551 289.951879,38.0651698 C290.31978,39.2491845 290.503728,40.5876158 290.503728,42.0805038 L290.503728,58.4507119 L287.980991,58.4507119 L287.980991,42.0805038 C287.980991,39.6781552 287.420388,37.7949137 286.299166,36.4307229 C285.177944,35.0665321 283.469858,34.3844469 281.174857,34.3844469 C279.475505,34.3844469 277.885671,34.8091414 276.405307,35.6585433 C274.924944,36.5079451 273.606651,37.6876522 272.450391,39.1976999 L272.450391,58.4507119 L269.927654,58.4507119 L269.927654,21 L272.450391,21 L272.450391,37.1642935 Z M313.568474,46.0700986 C311.080763,46.1558967 308.939086,46.3489397 307.143379,46.6492333 C305.347671,46.9495269 303.86733,47.357062 302.70231,47.871851 C301.53729,48.38664 300.674488,49.0000877 300.113877,49.7122125 C299.553266,50.4243373 299.272965,51.2351178 299.272965,52.1445783 C299.272965,53.00256 299.417495,53.744703 299.70656,54.3710296 C299.995625,54.9973562 300.381039,55.5121375 300.862814,55.9153888 C301.34459,56.3186402 301.900812,56.6146394 302.5315,56.8033954 C303.162187,56.9921514 303.819143,57.0865279 304.502388,57.0865279 C305.518496,57.0865279 306.451374,56.9792818 307.30105,56.7647864 C308.150726,56.550291 308.939073,56.2500019 309.666116,55.8639102 C310.393158,55.4778184 311.072013,55.0188051 311.7027,54.4868565 C312.333388,53.9549079 312.955306,53.3800688 313.568474,52.762322 L313.568474,46.0700986 Z M298.195546,36.4693319 C299.562035,35.1308805 300.998579,34.1184773 302.505221,33.432092 C304.011864,32.7457067 305.71995,32.4025192 307.629531,32.4025192 C309.031059,32.4025192 310.257377,32.6213012 311.308523,33.0588719 C312.359668,33.4964425 313.23123,34.1227597 313.923234,34.9378423 C314.615239,35.7529248 315.136424,36.739589 315.486806,37.8978642 C315.837188,39.0561394 316.012376,40.3473824 316.012376,41.771632 L316.012376,58.4507119 L315.013793,58.4507119 C314.48822,58.4507119 314.164121,58.2104807 314.041488,57.730011 L313.673588,54.4353779 C312.955306,55.1217632 312.241413,55.7395007 311.53189,56.288609 C310.822367,56.8377172 310.082196,57.3010204 309.311356,57.6785323 C308.540516,58.0560442 307.708371,58.3477536 306.814897,58.5536692 C305.921423,58.7595848 304.940369,58.8625411 303.871704,58.8625411 C302.97823,58.8625411 302.111048,58.7338458 301.270131,58.4764513 C300.429215,58.2190568 299.680285,57.8243911 299.023319,57.2924425 C298.366353,56.7604939 297.840788,56.0784087 297.446608,55.2461665 C297.052428,54.4139243 296.855342,53.4143906 296.855342,52.2475356 C296.855342,51.1664787 297.170681,50.1626552 297.801368,49.236035 C298.432055,48.3094149 299.421869,47.5029242 300.77084,46.8165389 C302.11981,46.1301536 303.849795,45.5810535 305.960846,45.1692223 C308.071896,44.7573912 310.607747,44.5171599 313.568474,44.4485214 L313.568474,41.771632 C313.568474,39.4036026 313.047289,37.580419 312.004903,36.3020263 C310.962517,35.0236336 309.41648,34.3844469 307.366746,34.3844469 C306.105371,34.3844469 305.032343,34.5560406 304.147628,34.8992333 C303.262914,35.242426 302.513984,35.6199322 301.900816,36.0317634 C301.287647,36.4435946 300.788361,36.8211009 300.402941,37.1642935 C300.01752,37.5074862 299.693422,37.67908 299.430636,37.67908 C299.237926,37.67908 299.080256,37.6361815 298.957622,37.5503834 C298.834989,37.4645852 298.729876,37.3530492 298.64228,37.2157722 L298.195546,36.4693319 Z M326.857615,37.3187295 C328.066432,35.843001 329.463559,34.6590041 331.049037,33.7667032 C332.634515,32.8744023 334.399538,32.4282585 336.344157,32.4282585 C337.780723,32.4282585 339.046459,32.6513304 340.141402,33.0974808 C341.236345,33.5436313 342.142945,34.1871079 342.861228,35.0279299 C343.579511,35.8687519 344.122595,36.8811551 344.490496,38.0651698 C344.858397,39.2491845 345.042344,40.5876158 345.042344,42.0805038 L345.042344,58.4507119 L342.519607,58.4507119 L342.519607,42.0805038 C342.519607,39.6781552 341.959005,37.7949137 340.837783,36.4307229 C339.71656,35.0665321 338.008474,34.3844469 335.713473,34.3844469 C334.014121,34.3844469 332.424287,34.8091414 330.943923,35.6585433 C329.46356,36.5079451 328.145268,37.6876522 326.989007,39.1976999 L326.989007,58.4507119 L324.46627,58.4507119 L324.46627,32.8400876 L325.859031,32.8400876 C326.297009,32.8400876 326.551032,33.0545798 326.621108,33.4835706 L326.857615,37.3187295 Z M362.010476,47.1254107 C363.131698,47.1254107 364.130272,46.9666865 365.006226,46.6492333 C365.882181,46.3317801 366.617972,45.8899262 367.213621,45.3236583 C367.80927,44.7573904 368.26476,44.079595 368.580104,43.2902519 C368.895448,42.5009088 369.053117,41.6257806 369.053117,40.6648412 C369.053117,39.7039017 368.891068,38.8244837 368.566965,38.0265608 C368.242861,37.2286379 367.778612,36.5465527 367.174203,35.9802848 C366.569795,35.4140169 365.834004,34.9764528 364.966809,34.6675794 C364.099613,34.358706 363.114179,34.2042716 362.010476,34.2042716 C360.906773,34.2042716 359.921339,34.358706 359.054144,34.6675794 C358.186948,34.9764528 357.451157,35.4140169 356.846749,35.9802848 C356.24234,36.5465527 355.782471,37.2286379 355.467127,38.0265608 C355.151783,38.8244837 354.994114,39.7039017 354.994114,40.6648412 C354.994114,41.6257806 355.151783,42.5009088 355.467127,43.2902519 C355.782471,44.079595 356.24234,44.7573904 356.846749,45.3236583 C357.451157,45.8899262 358.186948,46.3317801 359.054144,46.6492333 C359.921339,46.9666865 360.906773,47.1254107 362.010476,47.1254107 Z M371.786082,60.1752464 C371.786082,59.3687437 371.571476,58.7209773 371.142259,58.2319277 C370.713041,57.7428782 370.139299,57.3610821 369.421016,57.0865279 C368.702733,56.8119738 367.874968,56.6189308 366.937697,56.5073932 C366.000425,56.3958556 365.019371,56.3143486 363.994504,56.2628697 C362.969637,56.2113908 361.940405,56.1599126 360.906779,56.1084337 C359.873152,56.0569548 358.900857,55.9539986 357.989864,55.7995619 C357.324138,56.0569564 356.710979,56.3529556 356.150368,56.6875685 C355.589757,57.0221813 355.107989,57.4039774 354.70505,57.8329682 C354.302111,58.2619591 353.986772,58.7295521 353.759024,59.2357612 C353.531275,59.7419704 353.417403,60.2867806 353.417403,60.8702081 C353.417403,61.625232 353.61449,62.3244765 354.00867,62.9679628 C354.402849,63.611449 354.980971,64.1691287 355.743051,64.6410186 C356.505132,65.1129085 357.43801,65.486125 358.541713,65.7606791 C359.645416,66.0352332 360.915531,66.1725082 362.352097,66.1725082 C363.683548,66.1725082 364.923005,66.0266535 366.070506,65.7349398 C367.218007,65.443226 368.21658,65.031401 369.066256,64.4994524 C369.915932,63.9675037 370.581648,63.3326068 371.063423,62.5947426 C371.545198,61.8568784 371.786082,61.0503877 371.786082,60.1752464 Z M374.519047,33.9726177 L374.519047,34.8220153 C374.519047,35.1995273 374.273784,35.4311788 373.783249,35.516977 L369.788915,35.8001095 C370.27945,36.4521756 370.656105,37.1814491 370.918891,37.9879518 C371.181678,38.7944546 371.313069,39.6695827 371.313069,40.6133625 C371.313069,41.8488561 371.089704,42.9685054 370.642967,43.9723439 C370.19623,44.9761825 369.565552,45.8341512 368.750914,46.546276 C367.936276,47.2584008 366.955222,47.8117907 365.807721,48.2064622 C364.66022,48.6011338 363.394485,48.7984666 362.010476,48.7984666 C360.521353,48.7984666 359.163644,48.5753947 357.937307,48.1292442 C357.201505,48.5410754 356.619004,49.0258278 356.189786,49.5835159 C355.760568,50.141204 355.545962,50.6945938 355.545962,51.2437021 C355.545962,51.9815663 355.813125,52.5478257 356.347457,52.9424973 C356.881789,53.3371688 357.582543,53.6245884 358.449738,53.8047645 C359.316933,53.9849407 360.306747,54.1007664 361.41921,54.1522453 C362.531672,54.2037242 363.666016,54.2594922 364.822277,54.3195509 C365.978537,54.3796096 367.112881,54.4868557 368.225344,54.6412924 C369.337806,54.7957291 370.32762,55.0659893 371.194816,55.4520811 C372.062011,55.8381728 372.762764,56.3786931 373.297096,57.0736583 C373.831429,57.7686234 374.098591,58.6909399 374.098591,59.8406353 C374.098591,60.9045325 373.827049,61.9255154 373.283957,62.9036145 C372.740865,63.8817135 371.956898,64.748262 370.932031,65.5032859 C369.907163,66.2583097 368.667706,66.8631777 367.213621,67.317908 C365.759536,67.7726383 364.130285,68 362.325818,68 C360.486313,68 358.874581,67.8155367 357.490572,67.4466046 C356.106564,67.0776725 354.945941,66.5800506 354.00867,65.953724 C353.071398,65.3273974 352.366265,64.6024138 351.893249,63.7787514 C351.420234,62.955089 351.18373,62.0799608 351.18373,61.1533406 C351.18373,59.7977296 351.639219,58.6351819 352.550212,57.6656627 C353.461205,56.6961434 354.705042,55.936841 356.281761,55.3877327 C355.405806,55.096019 354.700673,54.6713244 354.166341,54.1136364 C353.632008,53.5559483 353.364846,52.7966459 353.364846,51.8357065 C353.364846,51.4753542 353.434921,51.0978479 353.575074,50.7031763 C353.715227,50.3085048 353.925453,49.918129 354.205758,49.5320372 C354.486064,49.1459455 354.827681,48.7813088 355.23062,48.4381161 C355.633559,48.0949234 356.089049,47.7860547 356.597103,47.5115005 C355.353247,46.8079556 354.385332,45.8727696 353.693327,44.7059146 C353.001323,43.5390595 352.655326,42.1748892 352.655326,40.6133625 C352.655326,39.377869 352.878691,38.2582197 353.325428,37.2543812 C353.772165,36.2505426 354.407223,35.388284 355.23062,34.6675794 C356.054018,33.9468748 357.039452,33.3891951 358.186953,32.9945235 C359.334453,32.599852 360.608948,32.4025192 362.010476,32.4025192 C363.166736,32.4025192 364.231005,32.5397942 365.203315,32.8143483 C366.175625,33.0889024 367.047187,33.4749884 367.818027,33.9726177 L374.519047,33.9726177 Z M398.740048,43.058598 C398.740048,41.6858274 398.542961,40.4546422 398.148782,39.3650055 C397.754602,38.2753688 397.198379,37.3530523 396.480096,36.5980285 C395.761813,35.8430046 394.90777,35.2638757 393.917941,34.8606243 C392.928112,34.4573729 391.837565,34.2557503 390.646267,34.2557503 C389.297296,34.2557503 388.088497,34.4616628 387.019832,34.873494 C385.951167,35.2853252 385.027049,35.8773236 384.247449,36.6495071 C383.46785,37.4216906 382.841551,38.3482969 382.368536,39.4293538 C381.89552,40.5104107 381.580181,41.7201466 381.422509,43.058598 L398.740048,43.058598 Z M381.291117,44.6286966 L381.291117,45.1177437 C381.291117,47.0396226 381.518862,48.7298211 381.974358,50.1883899 C382.429855,51.6469587 383.078051,52.8695643 383.918968,53.8562432 C384.759884,54.8429221 385.775977,55.5850651 386.967275,56.0826944 C388.158574,56.5803238 389.490005,56.8291347 390.961609,56.8291347 C392.275541,56.8291347 393.414265,56.6875699 394.377815,56.4044359 C395.341365,56.121302 396.151611,55.8038535 396.808578,55.4520811 C397.465544,55.1003086 397.986729,54.7828601 398.372149,54.4997262 C398.757569,54.2165922 399.03787,54.0750274 399.213061,54.0750274 C399.440809,54.0750274 399.615998,54.1608243 399.738631,54.3324206 L400.421873,55.1560789 C400.001414,55.6708679 399.445192,56.1513304 398.753187,56.5974808 C398.061183,57.0436313 397.290354,57.4254274 396.440678,57.7428806 C395.591002,58.0603338 394.680023,58.3134346 393.707713,58.5021906 C392.735403,58.6909465 391.758729,58.7853231 390.777659,58.7853231 C388.990712,58.7853231 387.36146,58.4807442 385.889856,57.8715772 C384.418252,57.2624102 383.156896,56.3744126 382.105751,55.2075575 C381.054605,54.0407025 380.244359,52.6121844 379.674988,50.9219606 C379.105618,49.2317367 378.820937,47.2970171 378.820937,45.1177437 C378.820937,43.281663 379.088099,41.5871746 379.622431,40.0342278 C380.156764,38.481281 380.927592,37.1428497 381.93494,36.0188938 C382.942288,34.8949378 384.177366,34.0155198 385.64021,33.3806134 C387.103055,32.7457069 388.762964,32.4282585 390.619988,32.4282585 C392.091592,32.4282585 393.458061,32.6770694 394.719436,33.1746988 C395.980811,33.6723282 397.075738,34.3973118 398.00425,35.3496714 C398.932762,36.302031 399.664173,37.4731584 400.198505,38.8630887 C400.732838,40.253019 401,41.8488409 401,43.6506024 C401,44.0281143 400.947444,44.285505 400.842329,44.422782 C400.737214,44.5600591 400.562026,44.6286966 400.316759,44.6286966 L381.291117,44.6286966 Z"
                    id="fox.exchange"
                />
                <g id="Icon-red" fill-rule="nonzero">
                    <path
                        d="M37,75.559213 L37,77 L34.5200665,77 C34.3222528,77 34.133192,76.9182122 33.997458,76.7739194 L30.4067364,72.9567811 L0.426577207,59.5904114 C0.136644038,59.4611474 -0.0343857213,59.1564686 0.00582220635,58.8408627 L1.29241725,48.741933 C1.30940523,48.6085885 1.3632623,48.4826703 1.44789773,48.3784187 L15.6893823,30.8361445 C15.7129616,30.8071001 15.7387638,30.7799438 15.7665541,30.7549224 L23.8388586,23.486914 C23.9093521,23.4234442 23.9916689,23.3745825 24.0810702,23.3431415 L36.4306556,19 L36.9061867,20.3595932 L24.692028,24.6551075 L16.7682573,31.7893814 L2.691685,49.1285211 L1.49882622,58.4916824 L31.1222626,71.6990107 C31.2092466,71.7377917 31.2876771,71.7935205 31.3529967,71.8629588 L34.8300045,75.559213 L37,75.559213 Z"
                        id="Path"
                    />
                    <path
                        d="M9.75377568,2.08161691 L5.44458873,46 L4,45.8555544 L8.43436093,0.661422769 C8.48971263,0.0972891787 9.13147875,-0.192424693 9.58488795,0.142037868 L36,19.6274524 L35.1435347,20.8106678 L9.75377568,2.08161691 Z"
                        id="Path-2"
                    />
                    <polygon id="Path-3" points="25 23.1883898 23.7885446 24 8 0.811610155 9.2114554 0"/>
                    <path
                        d="M24,24.3245341 L25.4356745,24 C28.5021318,37.0480865 30.495528,46.4931367 31.4170409,52.3444432 L31.4212718,52.3713079 L31.4234323,52.3984083 C31.8900401,58.2511732 32.0733411,64.7848256 31.9736727,72 L30.5004921,71.9804259 C30.5994249,64.8185081 30.4180687,58.3375421 29.956759,52.5381596 C29.0402155,46.7282534 27.0542385,37.3206283 24,24.3245341 Z"
                        id="Path-4"
                    />
                    <polygon id="Path-5"
                             points="11.635522 53.2227968 2 49.3412739 2.5222395 48 12.4326738 51.992267 31 70.982726 29.9943442 72"
                    />
                    <path
                        d="M1.88599203,49.6756312 L1.61774726,48.2362456 L19.1266261,45.0133664 C19.8338823,44.8831809 20.2901937,45.7343851 19.7869556,46.2451464 L12.4943925,53.6467281 C12.4424672,53.6994297 12.3828246,53.7440279 12.3174858,53.7790116 L0.698600917,60 L0,58.7112585 L11.5203137,52.5430472 L17.1057495,46.8741131 L1.88599203,49.6756312 Z"
                        id="Path-6"
                    />
                    <polygon id="Path-7" points="30 48.1262082 28.88626 49 16 31.8737918 17.11374 31"/>
                    <polygon id="Path-8" points="22.124184 64 21 63.2026449 27.875816 53 29 53.7973551"/>
                    <path
                        d="M9,63.1765135 L9.88651041,62 L27.5194167,75.7853006 L31.6018143,79.6611791 C32.3890071,79.9199745 33.1058424,80.0961977 33.7510501,80.1906951 C34.4636302,80.29506 35.5485103,80.4056683 37,80.5214238 L36.8863509,82 C35.4061841,81.8819575 34.2939056,81.7685558 33.5438251,81.6586986 C32.7670237,81.5449279 31.917394,81.331301 30.9934101,81.0188347 L30.8426339,80.9678462 L26.5776318,76.9186008 L9,63.1765135 Z"
                        id="Path-9"
                    />
                    <path
                        d="M35.5389397,76.3640365 L37,76.3640365 L37,79.2075386 C37,79.743132 36.519735,80.1242526 36.0487404,79.9624232 L26,76.5097692 L26.4414589,75 L35.5389397,78.1258101 L35.5389397,76.3640365 Z"
                        id="Path-10"
                    />
                    <path
                        d="M23,24.6882032 L24.3107526,24 L37,46.971137 L36.8812863,70.8798724 L36.2071157,70.9392 C34.9877526,71.046505 34.0815639,71.2248882 33.5037672,71.4612848 C32.8894227,71.7126344 31.9451378,72.2273315 30.6882838,73 L29.894206,71.7722858 C31.2149763,70.9603238 32.2203423,70.4123336 32.9276751,70.1229392 C33.5433663,69.8710387 34.3642845,69.6869178 35.399058,69.563169 L35.5094331,47.3338255 L23,24.6882032 Z"
                        id="Path-11"
                    />
                    <polygon id="Path-12" points="36.0441577 46 37 46.9949948 30.9558423 53 30 52.0050052"/>
                    <path
                        d="M18.0403671,46.1829162 C17.8893343,45.750214 18.1779991,45.2899579 18.6415032,45.2244461 C21.0150841,44.8889636 23.0663654,44.9282579 24.7969317,45.3511529 C26.605446,45.793096 28.3841125,47.1002343 30.1544285,49.2439214 C30.2322511,49.3381574 30.2848622,49.4497922 30.3075324,49.5687906 L30.9870912,53.1358804 C31.0788782,53.6176819 30.668148,54.0492893 30.1691059,53.9954435 C26.5634118,53.606395 24.04575,53.0372734 22.5762545,52.2566308 C20.6299465,51.3500193 19.1320864,49.3106446 18.0403671,46.1829162 Z M24.4334235,46.7683132 C23.1267789,46.4490111 21.5735829,46.3772577 19.7748338,46.5586125 C20.7047591,48.8634666 21.8687241,50.3149407 23.2360777,50.9452085 C23.2498393,50.9515518 23.2633995,50.9583033 23.2767394,50.9654537 C24.401268,51.5682219 26.4286847,52.062999 29.3295691,52.4265773 L28.8708904,50.0189153 C27.3294391,48.1876061 25.8436399,47.112925 24.4334235,46.7683132 Z"
                        id="Path-13"
                    />
                    <path
                        d="M73,75.5505581 L72.1275338,77 L69.6390523,77 C69.4405568,77 69.2508442,76.9177209 69.1146425,76.7725614 L65.5115441,72.9324932 L35.4280476,59.4858305 C35.137115,59.35579 34.9654958,59.049281 35.0058423,58.7317792 L36.296872,48.5721844 C36.3139186,48.4380388 36.3679613,48.3113642 36.4528884,48.2064863 L50.7434614,30.5588342 C50.767122,30.5296154 50.7930131,30.5022959 50.8208992,30.4771242 L58.9210278,23.1654563 C58.9917643,23.1016052 59.0743648,23.0524499 59.1640742,23.0208201 L71.2552054,19 L72.0333971,20.0193494 L59.7771379,24.3406672 L51.8260551,31.5177973 L37.7009629,48.9610947 L36.5039925,58.3805014 L66.2295367,71.6671672 C66.3168205,71.7061811 66.3955213,71.7622447 66.461066,71.8321002 L69.9500586,75.5505581 L73,75.5505581 Z"
                        id="Path"
                        transform="translate(54.000000, 48.000000) scale(-1, 1) translate(-54.000000, -48.000000) "
                    />
                    <path
                        d="M42.7537757,2.08161691 L38.4445887,46 L37,45.8555544 L41.4343609,0.661422769 C41.4897126,0.0972891787 42.1314788,-0.192424693 42.5848879,0.142037868 L69,19.6274524 L68.1435347,20.8106678 L42.7537757,2.08161691 Z"
                        id="Path-2"
                        transform="translate(53.000000, 23.000000) scale(-1, 1) translate(-53.000000, -23.000000) "
                    />
                    <polygon id="Path-3"
                             transform="translate(56.500000, 12.000000) scale(-1, 1) translate(-56.500000, -12.000000) "
                             points="65 23.1883898 63.7885446 24 48 0.811610155 49.2114554 0"
                    />
                    <path
                        d="M42,24.3245341 L43.4356745,24 C46.5021318,37.0480865 48.495528,46.4931367 49.4170409,52.3444432 L49.4212718,52.3713079 L49.4234323,52.3984083 C49.8900401,58.2511732 50.0733411,64.7848256 49.9736727,72 L48.5004921,71.9804259 C48.5994249,64.8185081 48.4180687,58.3375421 47.956759,52.5381596 C47.0402155,46.7282534 45.0542385,37.3206283 42,24.3245341 Z"
                        id="Path-4"
                        transform="translate(46.000000, 48.000000) scale(-1, 1) translate(-46.000000, -48.000000) "
                    />
                    <polygon id="Path-5"
                             transform="translate(56.500000, 60.000000) scale(-1, 1) translate(-56.500000, -60.000000) "
                             points="51.635522 53.2227968 42 49.3412739 42.5222395 48 52.4326738 51.992267 71 70.982726 69.9943442 72"
                    />
                    <path
                        d="M55.6936492,49.7109967 L55.4373648,48.2607239 L72.1655676,45.0134675 C72.8412891,44.8822973 73.2772547,45.7399399 72.7964547,46.2545644 L65.8290483,53.7121301 C65.7794382,53.7652303 65.7224549,53.8101659 65.6600294,53.8454142 L54.6674521,60 L54,58.8149675 L64.8984012,52.6001012 L70.2347967,46.8882885 L55.6936492,49.7109967 Z"
                        id="Path-6"
                        transform="translate(63.500000, 52.500000) scale(-1, 1) translate(-63.500000, -52.500000) "
                    />
                    <polygon id="Path-7"
                             transform="translate(50.000000, 40.000000) scale(-1, 1) translate(-50.000000, -40.000000) "
                             points="57 48.1262082 55.88626 49 43 31.8737918 44.11374 31"
                    />
                    <polygon id="Path-8"
                             transform="translate(48.000000, 58.500000) scale(-1, 1) translate(-48.000000, -58.500000) "
                             points="45.124184 64 44 63.2026449 50.875816 53 52 53.7973551"
                    />
                    <path
                        d="M36,63.1765135 L36.8865104,62 L54.5194167,75.7853006 L58.6018143,79.6611791 C59.3890071,79.9199745 60.1058424,80.0961977 60.7510501,80.1906951 C61.4636302,80.29506 62.5485103,80.4056683 64,80.5214238 L63.2391149,82 C61.7589482,81.8819575 61.2939056,81.7685558 60.5438251,81.6586986 C59.7670237,81.5449279 58.917394,81.331301 57.9934101,81.0188347 L57.8426339,80.9678462 L53.5776318,76.9186008 L36,63.1765135 Z"
                        id="Path-9"
                        transform="translate(50.000000, 72.000000) scale(-1, 1) translate(-50.000000, -72.000000) "
                    />
                    <path
                        d="M45.8759888,76.3578483 L46.9998678,76.3578483 L46.9998678,79.1884505 C46.9998678,79.4997993 47.0128027,79.8104494 46.7827368,79.9399104 C46.6188306,80.0321425 46.2445676,80.0069317 46.0486197,79.9399104 L36,76.5029199 L36.4414536,75 L45.8759888,78.1116293 L45.8759888,76.3578483 Z"
                        id="Path-10"
                        transform="translate(41.500000, 77.500000) scale(-1, 1) translate(-41.500000, -77.500000) "
                    />
                    <path
                        d="M36,24.6882032 L37.3107526,24 L50,46.971137 L49.8812863,70.8798724 L49.2071157,70.9392 C47.9877526,71.046505 47.0815639,71.2248882 46.5037672,71.4612848 C45.8894227,71.7126344 44.9451378,72.2273315 43.6882838,73 L42.894206,71.7722858 C44.2149763,70.9603238 45.2203423,70.4123336 45.9276751,70.1229392 C46.5433663,69.8710387 47.3642845,69.6869178 48.399058,69.563169 L48.5094331,47.3338255 L36,24.6882032 Z"
                        id="Path-11"
                        transform="translate(43.000000, 48.500000) scale(-1, 1) translate(-43.000000, -48.500000) "
                    />
                    <polygon id="Path-12"
                             transform="translate(39.500000, 49.500000) scale(-1, 1) translate(-39.500000, -49.500000) "
                             points="42.0441577 46 43 46.9949948 36.9558423 53 36 52.0050052"
                    />
                    <path
                        d="M42.0403671,46.1829162 C41.8893343,45.750214 42.1779991,45.2899579 42.6415032,45.2244461 C45.0150841,44.8889636 47.0663654,44.9282579 48.7969317,45.3511529 C50.605446,45.793096 52.3841125,47.1002343 54.1544285,49.2439214 C54.2322511,49.3381574 54.2848622,49.4497922 54.3075324,49.5687906 L54.9870912,53.1358804 C55.0788782,53.6176819 54.668148,54.0492893 54.1691059,53.9954435 C50.5634118,53.606395 48.04575,53.0372734 46.5762545,52.2566308 C44.6299465,51.3500193 43.1320864,49.3106446 42.0403671,46.1829162 Z M48.4334235,46.7683132 C47.1267789,46.4490111 45.5735829,46.3772577 43.7748338,46.5586125 C44.7047591,48.8634666 45.8687241,50.3149407 47.2360777,50.9452085 C47.2498393,50.9515518 47.2633995,50.9583033 47.2767394,50.9654537 C48.401268,51.5682219 50.4286847,52.062999 53.3295691,52.4265773 L52.8708904,50.0189153 C51.3294391,48.1876061 49.8436399,47.112925 48.4334235,46.7683132 Z"
                        id="Path-13"
                        transform="translate(48.500000, 49.500000) scale(-1, 1) translate(-48.500000, -49.500000) "
                    />
                </g>
            </g>
        </g>
    </g>
</svg>
