<svg width="752" height="193" viewBox="0 0 752 193" fill="none" xmlns="http://www.w3.org/2000/svg">
<g clip-path="url(#clip0)">
<path fill-rule="evenodd" clip-rule="evenodd" d="M87.7014 34.5237C90.0913 35.7428 91.8996 37.8603 92.7294 40.4114C93.5592 42.9624 93.3425 45.7385 92.127 48.1299L23.0682 183.924C21.8539 186.31 19.7417 188.117 17.1959 188.946C14.65 189.776 11.8789 189.561 9.49142 188.349L9.47892 188.343C7.08861 187.122 5.28016 185.004 4.45046 182.452C3.62075 179.9 3.83758 177.123 5.05336 174.73L74.1122 38.9362C75.3265 36.55 77.4387 34.7435 79.9845 33.9137C82.5303 33.084 85.3015 33.2989 87.6889 34.5112L87.7014 34.5237ZM102.316 83.505C104.705 84.7252 106.512 86.8432 107.34 89.3942C108.169 91.9451 107.951 94.7206 106.735 97.1113L62.5857 183.924C61.3714 186.31 59.2592 188.117 56.7134 188.946C54.1676 189.776 51.3964 189.561 49.009 188.349L48.9965 188.343C46.6061 187.122 44.7979 185.003 43.9692 182.451C43.1406 179.898 43.3592 177.121 44.5772 174.73L88.7266 87.9175C89.3265 86.7356 90.1537 85.6835 91.1607 84.8216C92.1677 83.9596 93.3349 83.3047 94.5953 82.8943C95.8558 82.4839 97.1848 82.326 98.5064 82.4297C99.8279 82.5334 101.116 82.8967 102.297 83.4987H102.316V83.505ZM122.143 123.893C124.533 125.112 126.342 127.229 127.171 129.78C128.001 132.331 127.784 135.107 126.569 137.499L102.96 183.924C101.745 186.31 99.6331 188.117 97.0873 188.946C94.5415 189.776 91.7703 189.561 89.3829 188.349L89.3704 188.343C86.9801 187.122 85.1716 185.004 84.3419 182.452C83.5122 179.9 83.729 177.123 84.9448 174.73L108.554 128.305C109.155 127.123 109.983 126.072 110.991 125.21C111.999 124.349 113.166 123.694 114.427 123.284C115.688 122.874 117.017 122.716 118.339 122.819C119.661 122.922 120.949 123.285 122.131 123.886H122.143V123.893Z" fill="#37C5D3"/>
<path d="M143.396 12.7423C143.415 58.2924 177.319 106.749 216.824 120.455C219.359 121.337 222.14 121.177 224.557 120.01C226.974 118.843 228.828 116.764 229.713 114.23C230.59 111.695 230.424 108.915 229.252 106.502C228.08 104.089 225.998 102.24 223.462 101.361C192.171 90.5112 163.667 49.7612 163.648 12.7548C163.65 10.0695 162.585 7.49353 160.687 5.59355C158.789 3.69357 156.214 2.62524 153.528 2.62358C150.843 2.62193 148.266 3.68708 146.366 5.58471C144.466 7.48235 143.397 10.057 143.396 12.7423V12.7423ZM73.4994 12.5673C71.5304 98.855 130.657 175.693 215.968 195.38C217.262 195.681 218.603 195.725 219.913 195.508C221.224 195.291 222.48 194.817 223.607 194.115C224.735 193.413 225.714 192.495 226.487 191.415C227.26 190.334 227.812 189.112 228.113 187.818C228.712 185.203 228.248 182.458 226.824 180.184C225.4 177.911 223.132 176.296 220.518 175.693C144.609 158.168 91.9893 89.7925 93.7395 13.0423C93.7965 10.3594 92.7866 7.7635 90.9315 5.82426C89.0764 3.88501 86.5276 2.76088 83.8445 2.69858C81.163 2.63483 78.566 3.63875 76.6247 5.48949C74.6835 7.34022 73.557 9.88619 73.4931 12.5673H73.4994Z" fill="#87E273"/>
<path d="M108.273 12.5299C106.698 79.0487 152.235 141.793 216.075 156.53C218.69 157.135 221.438 156.676 223.715 155.256C225.993 153.836 227.613 151.569 228.22 148.955C228.818 146.34 228.355 143.595 226.931 141.322C225.507 139.048 223.239 137.433 220.625 136.83C166.431 124.324 127.169 70.2174 128.52 13.0299C128.572 10.3534 127.562 7.76507 125.711 5.83098C123.86 3.89688 121.319 2.77445 118.642 2.70918C115.966 2.6439 113.372 3.6411 111.429 5.48267C109.486 7.32423 108.351 9.86028 108.273 12.5361V12.5299Z" fill="#87E273"/>
<path d="M270.574 157.111C270.574 139.693 283.139 125.436 299.678 125.436C308.367 125.436 315.618 129.943 318.993 134.811V126.655H332.276V187.574H318.993V179.411C315.618 184.286 308.367 188.793 299.678 188.793C283.132 188.793 270.574 174.543 270.574 157.111V157.111ZM320.081 157.111C320.081 146.149 312.836 137.618 302.091 137.618C291.34 137.618 284.101 146.149 284.101 157.118C284.101 168.08 291.346 176.611 302.091 176.611C312.836 176.611 320.081 168.08 320.081 157.111ZM350.272 187.574V96.1925H363.549V187.574H350.266H350.272ZM387.089 187.574V138.593H374.538V126.655H387.096V116.418C387.096 102.774 396.147 95.4613 407.742 95.4613C411.843 95.4613 415.105 96.0675 417.643 96.9238V108.861C415.355 108.052 412.945 107.64 410.517 107.643C403.635 107.643 400.372 110.449 400.372 118.005V126.655H417.643V138.593H400.372V187.574H387.096H387.089ZM423.919 157.111C423.919 139.693 436.477 125.436 453.017 125.436C461.711 125.436 468.956 129.943 472.331 134.811V126.655H485.621V187.574H472.338V179.411C468.962 184.286 461.711 188.793 453.023 188.793C436.477 188.793 423.919 174.543 423.919 157.111V157.111ZM473.425 157.111C473.425 146.149 466.174 137.618 455.436 137.618C444.684 137.618 437.446 146.149 437.446 157.118C437.446 168.08 444.684 176.611 455.436 176.611C466.181 176.611 473.425 168.08 473.425 157.111ZM559.274 171.98C554.086 182.093 543.578 188.793 531.139 188.793C513.03 188.793 499.26 175.149 499.26 157.111C499.26 139.08 513.03 125.436 531.139 125.436C543.578 125.436 554.079 132.136 559.268 142.249L547.679 148.586C544.785 142.374 538.865 137.861 531.139 137.861C520.388 137.861 512.787 146.268 512.787 157.111C512.787 167.961 520.394 176.361 531.139 176.361C538.865 176.361 544.785 171.861 547.679 165.643L559.274 171.98V171.98ZM567.119 157.111C567.119 139.693 579.683 125.436 596.222 125.436C604.911 125.436 612.162 129.943 615.537 134.811V126.655H628.82V187.574H615.537V179.411C612.162 184.286 604.911 188.793 596.222 188.793C579.676 188.793 567.119 174.543 567.119 157.111V157.111ZM616.625 157.111C616.625 146.149 609.38 137.618 598.635 137.618C587.884 137.618 580.645 146.149 580.645 157.118C580.645 168.08 587.89 176.611 598.635 176.611C609.38 176.611 616.625 168.08 616.625 157.111ZM687.865 169.905C687.865 181.605 678.445 188.793 666.006 188.793C655.261 188.793 646.085 184.53 641.741 175.88L651.517 168.811C653.936 174.174 659.849 177.218 666.006 177.218C670.719 177.218 674.701 175.03 674.701 170.761C674.701 167.23 672.651 165.155 665.406 162.961L660.093 161.499C649.592 158.574 644.153 151.874 644.278 142.861C644.397 132.011 653.811 125.436 665.887 125.436C674.945 125.436 682.065 129.093 686.296 135.793L677.114 142.855C674.464 139.08 670.594 136.643 665.644 136.643C661.662 136.643 657.555 138.718 657.555 142.374C657.555 145.293 658.887 147.855 664.806 149.561L670.957 151.386C681.583 154.555 687.865 159.918 687.865 169.905V169.905ZM701.63 187.574V96.1925H714.906V134.943C718.532 128.849 725.414 125.436 733.265 125.436C747.267 125.436 756.324 135.424 756.324 150.899V187.574H743.041V153.093C743.041 143.468 738.215 137.618 730.483 137.618C721.67 137.618 714.906 144.561 714.906 157.599V187.574H701.63Z" fill="white"/>
</g>
<defs>
<clipPath id="clip0">
<rect width="752" height="193" fill="white"/>
</clipPath>
</defs>
</svg>
